# Blender 5.1.1
# www.blender.org
mtllib barrel.mtl
g Cylinder_Cylinder.001
v 0.000000 0.060949 -0.874274
v 0.000000 2.530965 -0.874274
v 0.334570 0.060949 -0.807724
v 0.334570 2.530965 -0.807724
v 0.618205 0.060949 -0.618205
v 0.618205 2.530965 -0.618205
v 0.807724 0.060949 -0.334570
v 0.807724 2.530965 -0.334570
v 0.874274 0.060949 0.000000
v 0.874274 2.530965 0.000000
v 0.807724 0.060949 0.334570
v 0.807724 2.530965 0.334570
v 0.618205 0.060949 0.618205
v 0.618205 2.530965 0.618205
v 0.334570 0.060949 0.807724
v 0.334570 2.530965 0.807724
v 0.000000 0.060949 0.874274
v 0.000000 2.530965 0.874274
v -0.334570 0.060949 0.807724
v -0.334570 2.530965 0.807724
v -0.618205 0.060949 0.618205
v -0.618205 2.530965 0.618205
v -0.807724 0.060949 0.334570
v -0.807724 2.530965 0.334570
v -0.874274 0.060949 0.000000
v -0.874274 2.530965 0.000000
v -0.807724 0.060949 -0.334570
v -0.807724 2.530965 -0.334570
v -0.618205 0.060949 -0.618205
v -0.618205 2.530965 -0.618205
v -0.334570 0.060949 -0.807724
v -0.334570 2.530965 -0.807724
v 0.000000 0.642949 -0.951748
v 0.000000 1.285898 -1.000000
v 0.000000 1.928848 -0.951748
v 0.364218 1.928848 -0.879300
v 0.382683 1.285898 -0.923880
v 0.364218 0.642949 -0.879300
v 0.672987 1.928848 -0.672987
v 0.707107 1.285898 -0.707107
v 0.672987 0.642949 -0.672987
v 0.879300 1.928848 -0.364218
v 0.923880 1.285898 -0.382683
v 0.879300 0.642949 -0.364218
v 0.951748 1.928848 -0.000000
v 1.000000 1.285898 0.000000
v 0.951748 0.642949 -0.000000
v 0.879300 1.928848 0.364218
v 0.923880 1.285898 0.382683
v 0.879300 0.642949 0.364218
v 0.672987 1.928848 0.672987
v 0.707107 1.285898 0.707107
v 0.672987 0.642949 0.672987
v 0.364218 1.928848 0.879300
v 0.382683 1.285898 0.923880
v 0.364218 0.642949 0.879300
v 0.000000 1.928848 0.951748
v 0.000000 1.285898 1.000000
v 0.000000 0.642949 0.951748
v -0.364218 1.928848 0.879300
v -0.382683 1.285898 0.923880
v -0.364218 0.642949 0.879300
v -0.672987 1.928848 0.672987
v -0.707107 1.285898 0.707107
v -0.672987 0.642949 0.672987
v -0.879300 1.928848 0.364218
v -0.923880 1.285898 0.382683
v -0.879300 0.642949 0.364218
v -0.951748 1.928848 -0.000000
v -1.000000 1.285898 0.000000
v -0.951748 0.642949 -0.000000
v -0.879300 1.928848 -0.364218
v -0.923880 1.285898 -0.382683
v -0.879300 0.642949 -0.364218
v -0.672987 1.928848 -0.672987
v -0.707107 1.285898 -0.707107
v -0.672987 0.642949 -0.672987
v -0.364218 1.928848 -0.879300
v -0.382683 1.285898 -0.923880
v -0.364218 0.642949 -0.879300
v 0.000000 2.503792 -0.951748
v 0.364218 2.503792 -0.879300
v 0.672987 2.503792 -0.672987
v 0.879300 2.503792 -0.364218
v 0.951748 2.503792 -0.000000
v 0.879300 2.503792 0.364218
v 0.672987 2.503792 0.672987
v 0.364218 2.503792 0.879300
v 0.000000 2.503792 0.951748
v -0.364218 2.503792 0.879300
v -0.672987 2.503792 0.672987
v -0.879300 2.503792 0.364218
v -0.951748 2.503792 -0.000000
v -0.879300 2.503792 -0.364218
v -0.672987 2.503792 -0.672987
v -0.364218 2.503792 -0.879300
v 0.000000 1.858417 -1.000000
v 0.382683 1.858417 -0.923880
v 0.707107 1.858417 -0.707107
v 0.923880 1.858417 -0.382683
v 1.000000 1.858417 0.000000
v 0.923880 1.858417 0.382683
v 0.707107 1.858417 0.707107
v 0.382683 1.858417 0.923880
v 0.000000 1.858417 1.000000
v -0.382683 1.858417 0.923880
v -0.707107 1.858417 0.707107
v -0.923880 1.858417 0.382683
v -1.000000 1.858417 0.000000
v -0.923880 1.858417 -0.382683
v -0.707107 1.858417 -0.707107
v -0.382683 1.858417 -0.923880
v 0.364218 1.789005 -0.879300
v 0.672987 1.789005 -0.672987
v 0.879300 1.789005 -0.364218
v 0.951748 1.789005 -0.000000
v 0.879300 1.789005 0.364218
v 0.672987 1.789005 0.672987
v 0.364218 1.789005 0.879300
v 0.000000 1.789005 0.951748
v -0.364218 1.789005 0.879300
v -0.672987 1.789005 0.672987
v -0.879300 1.789005 0.364218
v -0.951748 1.789005 -0.000000
v -0.879300 1.789005 -0.364218
v -0.672987 1.789005 -0.672987
v -0.364218 1.789005 -0.879300
v 0.000000 1.789005 -0.951748
v 0.000000 1.211328 -0.951748
v 0.364218 1.211328 -0.879300
v 0.672987 1.211328 -0.672987
v 0.879300 1.211328 -0.364218
v 0.951748 1.211328 -0.000000
v 0.879300 1.211328 0.364218
v 0.672987 1.211328 0.672987
v 0.364218 1.211328 0.879300
v 0.000000 1.211328 0.951748
v -0.364218 1.211328 0.879300
v -0.672987 1.211328 0.672987
v -0.879300 1.211328 0.364218
v -0.951748 1.211328 -0.000000
v -0.879300 1.211328 -0.364218
v -0.672987 1.211328 -0.672987
v -0.364218 1.211328 -0.879300
v 0.364218 1.360037 -0.879300
v 0.672987 1.360037 -0.672987
v 0.879300 1.360037 -0.364218
v 0.951748 1.360037 -0.000000
v 0.879300 1.360037 0.364218
v 0.672987 1.360037 0.672987
v 0.364218 1.360037 0.879300
v 0.000000 1.360037 0.951748
v -0.364218 1.360037 0.879300
v -0.672987 1.360037 0.672987
v -0.879300 1.360037 0.364218
v -0.951748 1.360037 -0.000000
v -0.879300 1.360037 -0.364218
v -0.672987 1.360037 -0.672987
v -0.364218 1.360037 -0.879300
v 0.000000 1.360037 -0.951748
v 0.382683 0.702735 -0.923880
v 0.707107 0.702735 -0.707107
v 0.923880 0.702735 -0.382683
v 1.000000 0.702735 0.000000
v 0.923880 0.702735 0.382683
v 0.707107 0.702735 0.707107
v 0.382683 0.702735 0.923880
v 0.000000 0.702735 1.000000
v -0.382683 0.702735 0.923880
v -0.707107 0.702735 0.707107
v -0.923880 0.702735 0.382683
v -1.000000 0.702735 0.000000
v -0.923880 0.702735 -0.382683
v -0.707107 0.702735 -0.707107
v -0.382683 0.702735 -0.923880
v 0.000000 0.702735 -1.000000
v 0.000000 0.770444 -0.951748
v 0.364218 0.770444 -0.879300
v 0.672987 0.770444 -0.672987
v 0.879300 0.770444 -0.364218
v 0.951748 0.770444 -0.000000
v 0.879300 0.770444 0.364218
v 0.672987 0.770444 0.672987
v 0.364218 0.770444 0.879300
v 0.000000 0.770444 0.951748
v -0.364218 0.770444 0.879300
v -0.672987 0.770444 0.672987
v -0.879300 0.770444 0.364218
v -0.951748 0.770444 -0.000000
v -0.879300 0.770444 -0.364218
v -0.672987 0.770444 -0.672987
v -0.364218 0.770444 -0.879300
v 0.364218 0.085783 -0.879300
v 0.672987 0.085783 -0.672987
v 0.879300 0.085783 -0.364218
v 0.951748 0.085783 -0.000000
v 0.879300 0.085783 0.364218
v 0.672987 0.085783 0.672987
v 0.364218 0.085783 0.879300
v 0.000000 0.085783 0.951748
v -0.364218 0.085783 0.879300
v -0.672987 0.085783 0.672987
v -0.879300 0.085783 0.364218
v -0.951748 0.085783 -0.000000
v -0.879300 0.085783 -0.364218
v -0.672987 0.085783 -0.672987
v -0.364218 0.085783 -0.879300
v 0.000000 0.085783 -0.951748
v 0.000000 0.000000 -1.000000
v 0.382683 0.000000 -0.923880
v 0.382683 2.571797 -0.923880
v 0.000000 2.571797 -1.000000
v 0.707107 0.000000 -0.707107
v 0.707107 2.571797 -0.707107
v 0.923880 0.000000 -0.382683
v 0.923880 2.571797 -0.382683
v 1.000000 0.000000 0.000000
v 1.000000 2.571797 0.000000
v 0.923880 0.000000 0.382683
v 0.923880 2.571797 0.382683
v 0.707107 0.000000 0.707107
v 0.707107 2.571797 0.707107
v 0.382683 0.000000 0.923880
v 0.382683 2.571797 0.923880
v 0.000000 0.000000 1.000000
v 0.000000 2.571797 1.000000
v -0.382683 0.000000 0.923880
v -0.382683 2.571797 0.923880
v -0.707107 0.000000 0.707107
v -0.707107 2.571797 0.707107
v -0.923880 0.000000 0.382683
v -0.923880 2.571797 0.382683
v -1.000000 0.000000 0.000000
v -1.000000 2.571797 0.000000
v -0.923880 0.000000 -0.382683
v -0.923880 2.571797 -0.382683
v -0.707107 0.000000 -0.707107
v -0.707107 2.571797 -0.707107
v -0.382683 0.000000 -0.923880
v -0.382683 2.571797 -0.923880
v -0.103472 2.580513 0.509037
v -0.103472 2.580513 0.629037
v 0.000451 2.580513 0.689037
v 0.104374 2.580513 0.629037
v -0.103472 2.530965 0.629037
v 0.104374 2.530965 0.509037
v 0.104374 2.530965 0.629037
v 0.000451 2.530965 0.689037
v -0.103472 2.530965 0.578649
v -0.103472 2.530965 0.509037
v 0.000451 2.530965 0.449037
v 0.000451 2.580513 0.449037
v 0.104374 2.580513 0.509037
vn 0.1601 -0.5712 -0.8050
vn 0.4560 -0.5712 -0.6825
vn 0.6825 -0.5712 -0.4560
vn 0.8050 -0.5712 -0.1601
vn 0.8050 -0.5712 0.1601
vn 0.6825 -0.5712 0.4560
vn 0.4560 -0.5712 0.6825
vn 0.1601 -0.5712 0.8050
vn -0.1601 -0.5712 0.8050
vn -0.4560 -0.5712 0.6825
vn -0.6825 -0.5712 0.4560
vn -0.8050 -0.5712 0.1601
vn -0.8050 -0.5712 -0.1601
vn -0.6825 -0.5712 -0.4560
vn -0.4560 -0.5712 -0.6825
vn -0.1601 -0.5712 -0.8050
vn -0.0000 -1.0000 -0.0000
vn -0.1951 -0.0000 -0.9808
vn -0.1647 -0.5358 -0.8281
vn -0.1619 0.5577 -0.8141
vn -0.5556 -0.0000 -0.8315
vn -0.4691 -0.5358 -0.7020
vn -0.4611 0.5577 -0.6901
vn -0.8315 -0.0000 -0.5556
vn -0.7020 -0.5358 -0.4691
vn -0.6901 0.5577 -0.4611
vn -0.9808 -0.0000 -0.1951
vn -0.8281 -0.5358 -0.1647
vn -0.8141 0.5577 -0.1619
vn -0.9808 -0.0000 0.1951
vn -0.8281 -0.5358 0.1647
vn -0.8141 0.5577 0.1619
vn -0.8315 -0.0000 0.5556
vn -0.7020 -0.5358 0.4691
vn -0.6901 0.5577 0.4611
vn -0.5556 -0.0000 0.8315
vn -0.4691 -0.5358 0.7020
vn -0.4611 0.5577 0.6901
vn -0.1951 -0.0000 0.9808
vn -0.1647 -0.5358 0.8281
vn -0.1619 0.5577 0.8141
vn 0.1951 -0.0000 0.9808
vn 0.1647 -0.5358 0.8281
vn 0.1619 0.5577 0.8141
vn 0.5556 -0.0000 0.8315
vn 0.4691 -0.5358 0.7020
vn 0.4611 0.5577 0.6901
vn 0.8315 -0.0000 0.5556
vn 0.7020 -0.5358 0.4691
vn 0.6901 0.5577 0.4611
vn 0.9808 -0.0000 0.1951
vn 0.8281 -0.5358 0.1647
vn 0.8141 0.5577 0.1619
vn 0.9808 -0.0000 -0.1951
vn 0.8281 -0.5358 -0.1647
vn 0.8141 0.5577 -0.1619
vn 0.8315 -0.0000 -0.5556
vn 0.7020 -0.5358 -0.4691
vn 0.6901 0.5577 -0.4611
vn 0.5556 -0.0000 -0.8315
vn 0.4691 -0.5358 -0.7020
vn 0.4611 0.5577 -0.6901
vn 0.1951 -0.0000 -0.9808
vn 0.1647 -0.5358 -0.8281
vn 0.1619 0.5577 -0.8141
vn 0.1612 -0.5633 -0.8104
vn 0.4590 -0.5633 -0.6870
vn 0.6870 -0.5633 -0.4590
vn 0.8104 -0.5633 -0.1612
vn 0.8104 -0.5633 0.1612
vn 0.6870 -0.5633 0.4590
vn 0.4590 -0.5633 0.6870
vn 0.1612 -0.5633 0.8104
vn -0.1612 -0.5633 0.8104
vn -0.4590 -0.5633 0.6870
vn -0.6870 -0.5633 0.4590
vn -0.8104 -0.5633 0.1612
vn -0.8104 -0.5633 -0.1612
vn -0.6870 -0.5633 -0.4590
vn -0.4590 -0.5633 -0.6870
vn -0.1612 -0.5633 -0.8104
vn 0.1644 0.5381 -0.8267
vn 0.4683 0.5381 -0.7009
vn 0.7009 0.5381 -0.4683
vn 0.8267 0.5381 -0.1644
vn 0.8267 0.5381 0.1644
vn 0.7009 0.5381 0.4683
vn 0.4683 0.5381 0.7009
vn 0.1644 0.5381 0.8267
vn -0.1644 0.5381 0.8267
vn -0.4683 0.5381 0.7009
vn -0.7009 0.5381 0.4683
vn -0.8267 0.5381 0.1644
vn -0.8267 0.5381 -0.1644
vn -0.7009 0.5381 -0.4683
vn -0.4683 0.5381 -0.7009
vn -0.1644 0.5381 -0.8267
vn -0.1530 -0.6207 -0.7690
vn -0.4356 -0.6207 -0.6519
vn -0.6519 -0.6207 -0.4356
vn -0.7690 -0.6207 -0.1530
vn -0.7690 -0.6207 0.1530
vn -0.6519 -0.6207 0.4356
vn -0.4356 -0.6207 0.6519
vn -0.1530 -0.6207 0.7690
vn 0.1530 -0.6207 0.7690
vn 0.4356 -0.6207 0.6519
vn 0.6519 -0.6207 0.4356
vn 0.7690 -0.6207 0.1530
vn 0.7690 -0.6207 -0.1530
vn 0.6519 -0.6207 -0.4356
vn 0.4356 -0.6207 -0.6519
vn 0.1530 -0.6207 -0.7690
vn -0.1599 0.5729 -0.8039
vn -0.4554 0.5729 -0.6815
vn -0.6815 0.5729 -0.4554
vn -0.8039 0.5729 -0.1599
vn -0.8039 0.5729 0.1599
vn -0.6815 0.5729 0.4554
vn -0.4554 0.5729 0.6815
vn -0.1599 0.5729 0.8039
vn 0.1599 0.5729 0.8039
vn 0.4554 0.5729 0.6815
vn 0.6815 0.5729 0.4554
vn 0.8039 0.5729 0.1599
vn 0.8039 0.5729 -0.1599
vn 0.6815 0.5729 -0.4554
vn 0.4554 0.5729 -0.6815
vn 0.1599 0.5729 -0.8039
vn 0.1708 0.4830 -0.8588
vn 0.4865 0.4830 -0.7280
vn 0.7280 0.4830 -0.4865
vn 0.8588 0.4830 -0.1708
vn 0.8588 0.4830 0.1708
vn 0.7280 0.4830 0.4865
vn 0.4865 0.4830 0.7280
vn 0.1708 0.4830 0.8588
vn -0.1708 0.4830 0.8588
vn -0.4865 0.4830 0.7280
vn -0.7280 0.4830 0.4865
vn -0.8588 0.4830 0.1708
vn -0.8588 0.4830 -0.1708
vn -0.7280 0.4830 -0.4865
vn -0.4865 0.4830 -0.7280
vn -0.1708 0.4830 -0.8588
vn -0.0864 -0.8965 0.4346
vn -0.0613 0.9493 0.3083
vn -0.2462 -0.8965 0.3684
vn -0.1746 0.9493 0.2614
vn -0.3684 -0.8965 0.2462
vn -0.2614 0.9493 0.1746
vn -0.4346 -0.8965 0.0864
vn -0.3083 0.9493 0.0613
vn -0.4346 -0.8965 -0.0864
vn -0.3083 0.9493 -0.0613
vn -0.3684 -0.8965 -0.2462
vn -0.2614 0.9493 -0.1746
vn -0.2462 -0.8965 -0.3684
vn -0.1746 0.9493 -0.2614
vn -0.0864 -0.8965 -0.4346
vn -0.0613 0.9493 -0.3083
vn 0.0864 -0.8965 -0.4346
vn 0.0613 0.9493 -0.3083
vn 0.2462 -0.8965 -0.3684
vn 0.1746 0.9493 -0.2614
vn 0.3684 -0.8965 -0.2462
vn 0.2614 0.9493 -0.1746
vn 0.4346 -0.8965 -0.0864
vn 0.3083 0.9493 -0.0613
vn 0.4346 -0.8965 0.0864
vn 0.3083 0.9493 0.0613
vn 0.3684 -0.8965 0.2462
vn 0.2614 0.9493 0.1746
vn 0.2462 -0.8965 0.3684
vn 0.1746 0.9493 0.2614
vn 0.0864 -0.8965 0.4346
vn 0.0613 0.9493 0.3083
vn -0.0000 1.0000 -0.0000
vn -0.5000 -0.0000 0.8660
vn -1.0000 -0.0000 -0.0000
vn 0.5000 -0.0000 0.8660
vn -0.5000 -0.0000 -0.8660
vn 0.5000 -0.0000 -0.8660
vn 1.0000 -0.0000 -0.0000
vt 1.000000 0.986779
vt 1.000000 1.000000
vt 0.937500 1.000000
vt 0.937500 0.986779
vt 0.875000 1.000000
vt 0.875000 0.986779
vt 0.812500 1.000000
vt 0.812500 0.986779
vt 0.750000 1.000000
vt 0.750000 0.986779
vt 0.687500 1.000000
vt 0.687500 0.986779
vt 0.625000 1.000000
vt 0.625000 0.986779
vt 0.562500 1.000000
vt 0.562500 0.986779
vt 0.500000 1.000000
vt 0.500000 0.986779
vt 0.437500 1.000000
vt 0.437500 0.986779
vt 0.375000 1.000000
vt 0.375000 0.986779
vt 0.312500 1.000000
vt 0.312500 0.986779
vt 0.250000 1.000000
vt 0.250000 0.986779
vt 0.187500 1.000000
vt 0.187500 0.986779
vt 0.125000 1.000000
vt 0.125000 0.986779
vt 0.062500 1.000000
vt 0.062500 0.986779
vt 0.000000 1.000000
vt 0.000000 0.986779
vt 0.750000 0.459826
vt 0.830297 0.443854
vt 0.898369 0.398369
vt 0.943854 0.330297
vt 0.959826 0.250000
vt 0.943854 0.169703
vt 0.898369 0.101631
vt 0.830297 0.056146
vt 0.750000 0.040174
vt 0.669703 0.056146
vt 0.601631 0.101631
vt 0.556146 0.169703
vt 0.540174 0.250000
vt 0.556146 0.330297
vt 0.601631 0.398369
vt 0.669703 0.443854
vt 0.062500 0.516678
vt 0.062500 0.625000
vt 0.000000 0.625000
vt 0.000000 0.516678
vt 0.062500 0.735502
vt 0.062500 0.750000
vt 0.000000 0.750000
vt 0.000000 0.735502
vt 0.062500 0.861307
vt 0.062500 0.875000
vt 0.000000 0.875000
vt 0.000000 0.861307
vt 0.125000 0.516678
vt 0.125000 0.625000
vt 0.125000 0.735502
vt 0.125000 0.750000
vt 0.125000 0.861307
vt 0.125000 0.875000
vt 0.187500 0.516678
vt 0.187500 0.625000
vt 0.187500 0.735502
vt 0.187500 0.750000
vt 0.187500 0.861307
vt 0.187500 0.875000
vt 0.250000 0.516678
vt 0.250000 0.625000
vt 0.250000 0.735502
vt 0.250000 0.750000
vt 0.250000 0.861307
vt 0.250000 0.875000
vt 0.312500 0.516678
vt 0.312500 0.625000
vt 0.312500 0.735502
vt 0.312500 0.750000
vt 0.312500 0.861307
vt 0.312500 0.875000
vt 0.375000 0.516678
vt 0.375000 0.625000
vt 0.375000 0.735502
vt 0.375000 0.750000
vt 0.375000 0.861307
vt 0.375000 0.875000
vt 0.437500 0.516678
vt 0.437500 0.625000
vt 0.437500 0.735502
vt 0.437500 0.750000
vt 0.437500 0.861307
vt 0.437500 0.875000
vt 0.500000 0.516678
vt 0.500000 0.625000
vt 0.500000 0.735502
vt 0.500000 0.750000
vt 0.500000 0.861307
vt 0.500000 0.875000
vt 0.562500 0.516678
vt 0.562500 0.625000
vt 0.562500 0.735502
vt 0.562500 0.750000
vt 0.562500 0.861307
vt 0.562500 0.875000
vt 0.625000 0.516678
vt 0.625000 0.625000
vt 0.625000 0.735502
vt 0.625000 0.750000
vt 0.625000 0.861307
vt 0.625000 0.875000
vt 0.687500 0.516678
vt 0.687500 0.625000
vt 0.687500 0.735502
vt 0.687500 0.750000
vt 0.687500 0.861307
vt 0.687500 0.875000
vt 0.750000 0.516678
vt 0.750000 0.625000
vt 0.750000 0.735502
vt 0.750000 0.750000
vt 0.750000 0.861307
vt 0.750000 0.875000
vt 0.812500 0.516678
vt 0.812500 0.625000
vt 0.812500 0.735502
vt 0.812500 0.750000
vt 0.812500 0.861307
vt 0.812500 0.875000
vt 0.875000 0.516678
vt 0.875000 0.625000
vt 0.875000 0.735502
vt 0.875000 0.750000
vt 0.875000 0.861307
vt 0.875000 0.875000
vt 0.937500 0.516678
vt 0.937500 0.625000
vt 0.937500 0.735502
vt 0.937500 0.750000
vt 0.937500 0.861307
vt 0.937500 0.875000
vt 1.000000 0.516678
vt 1.000000 0.625000
vt 1.000000 0.735502
vt 1.000000 0.750000
vt 1.000000 0.861307
vt 1.000000 0.875000
vt 1.000000 0.847812
vt 0.937500 0.847812
vt 0.875000 0.847812
vt 0.812500 0.847812
vt 0.750000 0.847812
vt 0.687500 0.847812
vt 0.625000 0.847812
vt 0.562500 0.847812
vt 0.500000 0.847812
vt 0.437500 0.847812
vt 0.375000 0.847812
vt 0.312500 0.847812
vt 0.250000 0.847812
vt 0.187500 0.847812
vt 0.125000 0.847812
vt 0.062500 0.847812
vt 0.000000 0.847812
vt 0.062500 0.764414
vt 0.000000 0.764414
vt 0.125000 0.764414
vt 0.187500 0.764414
vt 0.250000 0.764414
vt 0.312500 0.764414
vt 0.375000 0.764414
vt 0.437500 0.764414
vt 0.500000 0.764414
vt 0.562500 0.764414
vt 0.625000 0.764414
vt 0.687500 0.764414
vt 0.750000 0.764414
vt 0.812500 0.764414
vt 0.875000 0.764414
vt 0.937500 0.764414
vt 1.000000 0.764414
vt 1.000000 0.649787
vt 0.937500 0.649787
vt 0.875000 0.649787
vt 0.812500 0.649787
vt 0.750000 0.649787
vt 0.687500 0.649787
vt 0.625000 0.649787
vt 0.562500 0.649787
vt 0.500000 0.649787
vt 0.437500 0.649787
vt 0.375000 0.649787
vt 0.312500 0.649787
vt 0.250000 0.649787
vt 0.187500 0.649787
vt 0.125000 0.649787
vt 0.062500 0.649787
vt 0.000000 0.649787
vt 0.062500 0.636623
vt 0.000000 0.636623
vt 0.125000 0.636623
vt 0.187500 0.636623
vt 0.250000 0.636623
vt 0.312500 0.636623
vt 0.375000 0.636623
vt 0.437500 0.636623
vt 0.500000 0.636623
vt 0.562500 0.636623
vt 0.625000 0.636623
vt 0.687500 0.636623
vt 0.750000 0.636623
vt 0.812500 0.636623
vt 0.875000 0.636623
vt 0.937500 0.636623
vt 1.000000 0.636623
vt 1.000000 0.500000
vt 0.937500 0.500000
vt 0.875000 0.500000
vt 0.812500 0.500000
vt 0.750000 0.500000
vt 0.687500 0.500000
vt 0.625000 0.500000
vt 0.562500 0.500000
vt 0.500000 0.500000
vt 0.437500 0.500000
vt 0.375000 0.500000
vt 0.312500 0.500000
vt 0.250000 0.500000
vt 0.187500 0.500000
vt 0.125000 0.500000
vt 0.062500 0.500000
vt 0.000000 0.500000
vt 0.750000 0.490000
vt 0.841844 0.471731
vt 0.250000 0.459826
vt 0.330297 0.443854
vt 0.341844 0.471731
vt 0.250000 0.490000
vt 0.919706 0.419706
vt 0.398369 0.398369
vt 0.419706 0.419706
vt 0.971731 0.341844
vt 0.443854 0.330297
vt 0.471731 0.341844
vt 0.990000 0.250000
vt 0.459826 0.250000
vt 0.490000 0.250000
vt 0.971731 0.158156
vt 0.443854 0.169703
vt 0.471731 0.158156
vt 0.919706 0.080294
vt 0.398369 0.101631
vt 0.419706 0.080294
vt 0.841844 0.028269
vt 0.330297 0.056146
vt 0.341844 0.028269
vt 0.750000 0.010000
vt 0.250000 0.040174
vt 0.250000 0.010000
vt 0.658156 0.028269
vt 0.169703 0.056146
vt 0.158156 0.028269
vt 0.580294 0.080294
vt 0.101631 0.101631
vt 0.080294 0.080294
vt 0.528269 0.158156
vt 0.056146 0.169703
vt 0.028269 0.158156
vt 0.510000 0.250000
vt 0.040174 0.250000
vt 0.010000 0.250000
vt 0.528269 0.341844
vt 0.056146 0.330297
vt 0.028269 0.341844
vt 0.580294 0.419706
vt 0.101631 0.398369
vt 0.080294 0.419706
vt 0.658156 0.471731
vt 0.169703 0.443854
vt 0.158156 0.471731
vt 0.225167 0.099031
vt 0.225167 0.111124
vt 0.225167 0.127831
vt 0.250108 0.142231
vt 0.275050 0.127831
vt 0.275050 0.099031
vt 0.250108 0.084631
vt 0.000000 0.000000
s 0
g Cylinder_Material
usemtl Material
f 81/1/1 212/2/1 211/3/1 82/4/1
f 82/4/2 211/3/2 214/5/2 83/6/2
f 83/6/3 214/5/3 216/7/3 84/8/3
f 84/8/4 216/7/4 218/9/4 85/10/4
f 85/10/5 218/9/5 220/11/5 86/12/5
f 86/12/6 220/11/6 222/13/6 87/14/6
f 87/14/7 222/13/7 224/15/7 88/16/7
f 88/16/8 224/15/8 226/17/8 89/18/8
f 89/18/9 226/17/9 228/19/9 90/20/9
f 90/20/10 228/19/10 230/21/10 91/22/10
f 91/22/11 230/21/11 232/23/11 92/24/11
f 92/24/12 232/23/12 234/25/12 93/26/12
f 93/26/13 234/25/13 236/27/13 94/28/13
f 94/28/14 236/27/14 238/29/14 95/30/14
f 95/30/15 238/29/15 240/31/15 96/32/15
f 96/32/16 240/31/16 212/33/16 81/34/16
f 144/55/19 79/56/19 34/57/19 129/58/19
f 112/59/20 78/60/20 35/61/20 97/62/20
f 143/65/22 76/66/22 79/56/22 144/55/22
f 111/67/23 75/68/23 78/60/23 112/59/23
f 142/71/25 73/72/25 76/66/25 143/65/25
f 110/73/26 72/74/26 75/68/26 111/67/26
f 141/77/28 70/78/28 73/72/28 142/71/28
f 109/79/29 69/80/29 72/74/29 110/73/29
f 140/83/31 67/84/31 70/78/31 141/77/31
f 108/85/32 66/86/32 69/80/32 109/79/32
f 139/89/34 64/90/34 67/84/34 140/83/34
f 107/91/35 63/92/35 66/86/35 108/85/35
f 138/95/37 61/96/37 64/90/37 139/89/37
f 106/97/38 60/98/38 63/92/38 107/91/38
f 137/101/40 58/102/40 61/96/40 138/95/40
f 105/103/41 57/104/41 60/98/41 106/97/41
f 136/107/43 55/108/43 58/102/43 137/101/43
f 104/109/44 54/110/44 57/104/44 105/103/44
f 135/113/46 52/114/46 55/108/46 136/107/46
f 103/115/47 51/116/47 54/110/47 104/109/47
f 134/119/49 49/120/49 52/114/49 135/113/49
f 102/121/50 48/122/50 51/116/50 103/115/50
f 133/125/52 46/126/52 49/120/52 134/119/52
f 101/127/53 45/128/53 48/122/53 102/121/53
f 132/131/55 43/132/55 46/126/55 133/125/55
f 100/133/56 42/134/56 45/128/56 101/127/56
f 131/137/58 40/138/58 43/132/58 132/131/58
f 99/139/59 39/140/59 42/134/59 100/133/59
f 130/143/61 37/144/61 40/138/61 131/137/61
f 98/145/62 36/146/62 39/140/62 99/139/62
f 129/149/64 34/150/64 37/144/64 130/143/64
f 97/151/65 35/152/65 36/146/65 98/145/65
f 78/60/18 96/32/18 81/34/18 35/61/18
f 75/68/21 95/30/21 96/32/21 78/60/21
f 72/74/24 94/28/24 95/30/24 75/68/24
f 69/80/27 93/26/27 94/28/27 72/74/27
f 66/86/30 92/24/30 93/26/30 69/80/30
f 63/92/33 91/22/33 92/24/33 66/86/33
f 60/98/36 90/20/36 91/22/36 63/92/36
f 57/104/39 89/18/39 90/20/39 60/98/39
f 54/110/42 88/16/42 89/18/42 57/104/42
f 51/116/45 87/14/45 88/16/45 54/110/45
f 48/122/48 86/12/48 87/14/48 51/116/48
f 45/128/51 85/10/51 86/12/51 48/122/51
f 42/134/54 84/8/54 85/10/54 45/128/54
f 39/140/57 83/6/57 84/8/57 42/134/57
f 36/146/60 82/4/60 83/6/60 39/140/60
f 35/152/63 81/1/63 82/4/63 36/146/63
f 128/153/66 97/151/66 98/145/66 113/154/66
f 113/154/67 98/145/67 99/139/67 114/155/67
f 114/155/68 99/139/68 100/133/68 115/156/68
f 115/156/69 100/133/69 101/127/69 116/157/69
f 116/157/70 101/127/70 102/121/70 117/158/70
f 117/158/71 102/121/71 103/115/71 118/159/71
f 118/159/72 103/115/72 104/109/72 119/160/72
f 119/160/73 104/109/73 105/103/73 120/161/73
f 120/161/74 105/103/74 106/97/74 121/162/74
f 121/162/75 106/97/75 107/91/75 122/163/75
f 122/163/76 107/91/76 108/85/76 123/164/76
f 123/164/77 108/85/77 109/79/77 124/165/77
f 124/165/78 109/79/78 110/73/78 125/166/78
f 125/166/79 110/73/79 111/67/79 126/167/79
f 126/167/80 111/67/80 112/59/80 127/168/80
f 127/168/81 112/59/81 97/62/81 128/169/81
f 159/170/18 127/168/18 128/169/18 160/171/18
f 158/172/21 126/167/21 127/168/21 159/170/21
f 157/173/24 125/166/24 126/167/24 158/172/24
f 156/174/27 124/165/27 125/166/27 157/173/27
f 155/175/30 123/164/30 124/165/30 156/174/30
f 154/176/33 122/163/33 123/164/33 155/175/33
f 153/177/36 121/162/36 122/163/36 154/176/36
f 152/178/39 120/161/39 121/162/39 153/177/39
f 151/179/42 119/160/42 120/161/42 152/178/42
f 150/180/45 118/159/45 119/160/45 151/179/45
f 149/181/48 117/158/48 118/159/48 150/180/48
f 148/182/51 116/157/51 117/158/51 149/181/51
f 147/183/54 115/156/54 116/157/54 148/182/54
f 146/184/57 114/155/57 115/156/57 147/183/57
f 145/185/60 113/154/60 114/155/60 146/184/60
f 160/186/63 128/153/63 113/154/63 145/185/63
f 177/187/63 129/149/63 130/143/63 178/188/63
f 178/188/60 130/143/60 131/137/60 179/189/60
f 179/189/57 131/137/57 132/131/57 180/190/57
f 180/190/54 132/131/54 133/125/54 181/191/54
f 181/191/51 133/125/51 134/119/51 182/192/51
f 182/192/48 134/119/48 135/113/48 183/193/48
f 183/193/45 135/113/45 136/107/45 184/194/45
f 184/194/42 136/107/42 137/101/42 185/195/42
f 185/195/39 137/101/39 138/95/39 186/196/39
f 186/196/36 138/95/36 139/89/36 187/197/36
f 187/197/33 139/89/33 140/83/33 188/198/33
f 188/198/30 140/83/30 141/77/30 189/199/30
f 189/199/27 141/77/27 142/71/27 190/200/27
f 190/200/24 142/71/24 143/65/24 191/201/24
f 191/201/21 143/65/21 144/55/21 192/202/21
f 192/202/18 144/55/18 129/58/18 177/203/18
f 34/150/82 160/186/82 145/185/82 37/144/82
f 37/144/83 145/185/83 146/184/83 40/138/83
f 40/138/84 146/184/84 147/183/84 43/132/84
f 43/132/85 147/183/85 148/182/85 46/126/85
f 46/126/86 148/182/86 149/181/86 49/120/86
f 49/120/87 149/181/87 150/180/87 52/114/87
f 52/114/88 150/180/88 151/179/88 55/108/88
f 55/108/89 151/179/89 152/178/89 58/102/89
f 58/102/90 152/178/90 153/177/90 61/96/90
f 61/96/91 153/177/91 154/176/91 64/90/91
f 64/90/92 154/176/92 155/175/92 67/84/92
f 67/84/93 155/175/93 156/174/93 70/78/93
f 70/78/94 156/174/94 157/173/94 73/72/94
f 73/72/95 157/173/95 158/172/95 76/66/95
f 76/66/96 158/172/96 159/170/96 79/56/96
f 79/56/97 159/170/97 160/171/97 34/57/97
f 80/52/98 175/204/98 176/205/98 33/53/98
f 77/64/99 174/206/99 175/204/99 80/52/99
f 74/70/100 173/207/100 174/206/100 77/64/100
f 71/76/101 172/208/101 173/207/101 74/70/101
f 68/82/102 171/209/102 172/208/102 71/76/102
f 65/88/103 170/210/103 171/209/103 68/82/103
f 62/94/104 169/211/104 170/210/104 65/88/104
f 59/100/105 168/212/105 169/211/105 62/94/105
f 56/106/106 167/213/106 168/212/106 59/100/106
f 53/112/107 166/214/107 167/213/107 56/106/107
f 50/118/108 165/215/108 166/214/108 53/112/108
f 47/124/109 164/216/109 165/215/109 50/118/109
f 44/130/110 163/217/110 164/216/110 47/124/110
f 41/136/111 162/218/111 163/217/111 44/130/111
f 38/142/112 161/219/112 162/218/112 41/136/112
f 33/148/113 176/220/113 161/219/113 38/142/113
f 175/204/114 192/202/114 177/203/114 176/205/114
f 174/206/115 191/201/115 192/202/115 175/204/115
f 173/207/116 190/200/116 191/201/116 174/206/116
f 172/208/117 189/199/117 190/200/117 173/207/117
f 171/209/118 188/198/118 189/199/118 172/208/118
f 170/210/119 187/197/119 188/198/119 171/209/119
f 169/211/120 186/196/120 187/197/120 170/210/120
f 168/212/121 185/195/121 186/196/121 169/211/121
f 167/213/122 184/194/122 185/195/122 168/212/122
f 166/214/123 183/193/123 184/194/123 167/213/123
f 165/215/124 182/192/124 183/193/124 166/214/124
f 164/216/125 181/191/125 182/192/125 165/215/125
f 163/217/126 180/190/126 181/191/126 164/216/126
f 162/218/127 179/189/127 180/190/127 163/217/127
f 161/219/128 178/188/128 179/189/128 162/218/128
f 176/220/129 177/187/129 178/188/129 161/219/129
f 2/240/147 4/241/147 211/242/147 212/243/147
f 4/241/149 6/245/149 214/246/149 211/242/149
f 6/245/151 8/248/151 216/249/151 214/246/151
f 8/248/153 10/251/153 218/252/153 216/249/153
f 10/251/155 12/254/155 220/255/155 218/252/155
f 12/254/157 14/257/157 222/258/157 220/255/157
f 14/257/159 16/260/159 224/261/159 222/258/159
f 16/260/161 18/263/161 226/264/161 224/261/161
f 18/263/163 20/266/163 228/267/163 226/264/163
f 20/266/165 22/269/165 230/270/165 228/267/165
f 22/269/167 24/272/167 232/273/167 230/270/167
f 24/272/169 26/275/169 234/276/169 232/273/169
f 26/275/171 28/278/171 236/279/171 234/276/171
f 28/278/173 30/281/173 238/282/173 236/279/173
f 30/281/175 32/284/175 240/285/175 238/282/175
f 32/284/177 2/240/177 212/243/177 240/285/177
f 250/293/180 249/287/180 245/286/180 242/293/180 241/293/180
g Cylinder_dark_grey
usemtl dark_grey
f 242/293/179 245/286/179 248/292/179 243/293/179
f 247/293/181 244/293/181 243/293/181 248/293/181
f 251/293/182 250/293/182 241/293/182 252/293/182
f 246/293/183 251/293/183 252/293/183 253/293/183
f 253/293/184 244/293/184 247/293/184 246/293/184
f 241/293/178 242/293/178 243/293/178 244/293/178 252/293/178
f 244/293/178 253/293/178 252/293/178
g Cylinder_Steel_-_Satin
usemtl Steel_-_Satin
f 1/35/17 3/36/17 5/37/17 7/38/17 9/39/17 11/40/17 13/41/17 15/42/17 17/43/17 19/44/17 21/45/17 23/46/17 25/47/17 27/48/17 29/49/17 31/50/17
f 207/51/18 80/52/18 33/53/18 208/54/18
f 206/63/21 77/64/21 80/52/21 207/51/21
f 205/69/24 74/70/24 77/64/24 206/63/24
f 204/75/27 71/76/27 74/70/27 205/69/27
f 203/81/30 68/82/30 71/76/30 204/75/30
f 202/87/33 65/88/33 68/82/33 203/81/33
f 201/93/36 62/94/36 65/88/36 202/87/36
f 200/99/39 59/100/39 62/94/39 201/93/39
f 199/105/42 56/106/42 59/100/42 200/99/42
f 198/111/45 53/112/45 56/106/45 199/105/45
f 197/117/48 50/118/48 53/112/48 198/111/48
f 196/123/51 47/124/51 50/118/51 197/117/51
f 195/129/54 44/130/54 47/124/54 196/123/54
f 194/135/57 41/136/57 44/130/57 195/129/57
f 193/141/60 38/142/60 41/136/60 194/135/60
f 208/147/63 33/148/63 38/142/63 193/141/63
f 209/221/130 208/147/130 193/141/130 210/222/130
f 210/222/131 193/141/131 194/135/131 213/223/131
f 213/223/132 194/135/132 195/129/132 215/224/132
f 215/224/133 195/129/133 196/123/133 217/225/133
f 217/225/134 196/123/134 197/117/134 219/226/134
f 219/226/135 197/117/135 198/111/135 221/227/135
f 221/227/136 198/111/136 199/105/136 223/228/136
f 223/228/137 199/105/137 200/99/137 225/229/137
f 225/229/138 200/99/138 201/93/138 227/230/138
f 227/230/139 201/93/139 202/87/139 229/231/139
f 229/231/140 202/87/140 203/81/140 231/232/140
f 231/232/141 203/81/141 204/75/141 233/233/141
f 233/233/142 204/75/142 205/69/142 235/234/142
f 235/234/143 205/69/143 206/63/143 237/235/143
f 237/235/144 206/63/144 207/51/144 239/236/144
f 239/236/145 207/51/145 208/54/145 209/237/145
f 3/36/146 1/35/146 209/238/146 210/239/146
f 5/37/148 3/36/148 210/239/148 213/244/148
f 7/38/150 5/37/150 213/244/150 215/247/150
f 9/39/152 7/38/152 215/247/152 217/250/152
f 11/40/154 9/39/154 217/250/154 219/253/154
f 13/41/156 11/40/156 219/253/156 221/256/156
f 15/42/158 13/41/158 221/256/158 223/259/158
f 17/43/160 15/42/160 223/259/160 225/262/160
f 19/44/162 17/43/162 225/262/162 227/265/162
f 21/45/164 19/44/164 227/265/164 229/268/164
f 23/46/166 21/45/166 229/268/166 231/271/166
f 25/47/168 23/46/168 231/271/168 233/274/168
f 27/48/170 25/47/170 233/274/170 235/277/170
f 29/49/172 27/48/172 235/277/172 237/280/172
f 31/50/174 29/49/174 237/280/174 239/283/174
f 1/35/176 31/50/176 239/283/176 209/238/176
f 245/286/178 18/263/178 16/260/178 14/257/178 12/254/178 10/251/178 8/248/178 6/245/178 4/241/178 2/240/178 32/284/178 30/281/178 28/278/178 26/275/178 24/272/178 22/269/178 249/287/178 250/288/178 251/289/178 246/290/178 247/291/178 248/292/178
f 249/287/178 22/269/178 20/266/178 18/263/178 245/286/178
