# Blender 5.1.1
# www.blender.org
mtllib tire.mtl
g tire_Cylinder
v 0.000000 0.124846 -0.605922
v 0.000000 0.524430 -0.605922
v 0.231876 0.124846 -0.559799
v 0.231876 0.524430 -0.559799
v 0.428451 0.124846 -0.428451
v 0.428451 0.524430 -0.428451
v 0.559799 0.124846 -0.231876
v 0.559799 0.524430 -0.231876
v 0.605922 0.124846 0.000000
v 0.605922 0.524430 0.000000
v 0.559799 0.124846 0.231876
v 0.559799 0.524430 0.231876
v 0.428451 0.124846 0.428451
v 0.428451 0.524430 0.428451
v 0.231876 0.124846 0.559799
v 0.231876 0.524430 0.559799
v 0.000000 0.124846 0.605922
v 0.000000 0.524430 0.605922
v -0.231876 0.124846 0.559799
v -0.231876 0.524430 0.559799
v -0.428451 0.124846 0.428451
v -0.428451 0.524430 0.428451
v -0.559799 0.124846 0.231876
v -0.559799 0.524430 0.231876
v -0.605922 0.124846 0.000000
v -0.605922 0.524430 0.000000
v -0.559799 0.124846 -0.231876
v -0.559799 0.524430 -0.231876
v -0.428451 0.124846 -0.428451
v -0.428451 0.524430 -0.428451
v -0.231876 0.124846 -0.559799
v -0.231876 0.524430 -0.559799
v 0.000000 0.025329 -0.900591
v 0.000000 0.122828 -1.000000
v 0.382683 0.122828 -0.923880
v 0.344641 0.025329 -0.832037
v 0.344641 0.623947 -0.832037
v 0.382683 0.526448 -0.923880
v 0.000000 0.526448 -1.000000
v 0.000000 0.623947 -0.900591
v 0.707107 0.122828 -0.707107
v 0.636814 0.025329 -0.636814
v 0.636814 0.623947 -0.636814
v 0.707107 0.526448 -0.707107
v 0.923880 0.122828 -0.382683
v 0.832037 0.025329 -0.344641
v 0.832037 0.623947 -0.344641
v 0.923880 0.526448 -0.382683
v 1.000000 0.122828 0.000000
v 0.900591 0.025329 0.000000
v 0.900591 0.623947 0.000000
v 1.000000 0.526448 0.000000
v 0.923880 0.122828 0.382683
v 0.832037 0.025329 0.344641
v 0.832037 0.623947 0.344641
v 0.923880 0.526448 0.382683
v 0.707107 0.122828 0.707107
v 0.636814 0.025329 0.636814
v 0.636814 0.623947 0.636814
v 0.707107 0.526448 0.707107
v 0.382683 0.122828 0.923880
v 0.344641 0.025329 0.832037
v 0.344641 0.623947 0.832037
v 0.382683 0.526448 0.923880
v 0.000000 0.122828 1.000000
v 0.000000 0.025329 0.900591
v 0.000000 0.623947 0.900591
v 0.000000 0.526448 1.000000
v -0.382683 0.122828 0.923880
v -0.344641 0.025329 0.832037
v -0.344641 0.623947 0.832037
v -0.382683 0.526448 0.923880
v -0.707107 0.122828 0.707107
v -0.636814 0.025329 0.636814
v -0.636814 0.623947 0.636814
v -0.707107 0.526448 0.707107
v -0.923880 0.122828 0.382683
v -0.832037 0.025329 0.344641
v -0.832037 0.623947 0.344641
v -0.923880 0.526448 0.382683
v -1.000000 0.122828 0.000000
v -0.900591 0.025329 0.000000
v -0.900591 0.623947 0.000000
v -1.000000 0.526448 0.000000
v -0.923880 0.122828 -0.382683
v -0.832037 0.025329 -0.344641
v -0.832037 0.623947 -0.344641
v -0.923880 0.526448 -0.382683
v -0.707107 0.122828 -0.707107
v -0.636814 0.025329 -0.636814
v -0.636814 0.623947 -0.636814
v -0.707107 0.526448 -0.707107
v -0.382683 0.122828 -0.923880
v -0.344641 0.025329 -0.832037
v -0.344641 0.623947 -0.832037
v -0.382683 0.526448 -0.923880
v -0.131732 0.223733 -0.991285
v 0.000000 0.324638 -1.000000
v -0.131732 0.425543 -0.991285
v 0.257644 0.425543 -0.966240
v 0.382683 0.324638 -0.923880
v 0.257644 0.223733 -0.966240
v -0.501053 0.223733 -0.865417
v -0.382683 0.324638 -0.923880
v -0.501053 0.425543 -0.865417
v 0.607796 0.425543 -0.794093
v 0.707107 0.324638 -0.707107
v 0.607796 0.223733 -0.794093
v 0.865417 0.425543 -0.501053
v 0.923880 0.324638 -0.382683
v 0.865417 0.223733 -0.501053
v 0.991285 0.425543 -0.131732
v 1.000000 0.324638 0.000000
v 0.991285 0.223733 -0.131732
v 0.966240 0.425543 0.257644
v 0.923880 0.324638 0.382683
v 0.966240 0.223733 0.257644
v 0.794093 0.425543 0.607796
v 0.707107 0.324638 0.707107
v 0.794093 0.223733 0.607796
v 0.501053 0.425543 0.865417
v 0.382683 0.324638 0.923880
v 0.501053 0.223733 0.865417
v 0.131732 0.425543 0.991285
v 0.000000 0.324638 1.000000
v 0.131732 0.223733 0.991285
v -0.257644 0.425543 0.966240
v -0.382683 0.324638 0.923880
v -0.257644 0.223733 0.966240
v -0.607796 0.425543 0.794093
v -0.707107 0.324638 0.707107
v -0.607796 0.223733 0.794093
v -0.865417 0.425543 0.501053
v -0.923880 0.324638 0.382683
v -0.865417 0.223733 0.501053
v -0.991285 0.425543 0.131732
v -1.000000 0.324638 0.000000
v -0.991285 0.223733 0.131732
v -0.966240 0.425543 -0.257644
v -0.923880 0.324638 -0.382683
v -0.966240 0.223733 -0.257644
v -0.794093 0.425543 -0.607796
v -0.707107 0.324638 -0.707107
v -0.794093 0.223733 -0.607796
vn -0.5556 -0.0000 0.8315
vn -0.8315 -0.0000 0.5556
vn -0.9808 -0.0000 0.1951
vn -0.9808 -0.0000 -0.1951
vn -0.8315 -0.0000 -0.5556
vn -0.5556 -0.0000 -0.8315
vn -0.1951 -0.0000 -0.9808
vn 0.1951 -0.0000 -0.9808
vn 0.5556 -0.0000 -0.8315
vn 0.8315 -0.0000 -0.5556
vn 0.9808 -0.0000 -0.1951
vn 0.9808 -0.0000 0.1951
vn 0.8315 -0.0000 0.5556
vn 0.5556 -0.0000 0.8315
vn 0.1951 -0.0000 0.9808
vn -0.1951 -0.0000 0.9808
vn 0.1379 -0.7071 -0.6935
vn 0.1379 0.7071 -0.6935
vn 0.3928 -0.7071 -0.5879
vn 0.3928 0.7071 -0.5879
vn 0.5879 -0.7071 -0.3928
vn 0.5879 0.7071 -0.3928
vn 0.6935 -0.7071 -0.1379
vn 0.6935 0.7071 -0.1379
vn 0.6935 -0.7071 0.1379
vn 0.6935 0.7071 0.1379
vn 0.5879 -0.7071 0.3928
vn 0.5879 0.7071 0.3928
vn 0.3928 -0.7071 0.5879
vn 0.3928 0.7071 0.5879
vn 0.1379 -0.7071 0.6935
vn 0.1379 0.7071 0.6935
vn -0.1379 -0.7071 0.6935
vn -0.1379 0.7071 0.6935
vn -0.3928 -0.7071 0.5879
vn -0.3928 0.7071 0.5879
vn -0.5879 -0.7071 0.3928
vn -0.5879 0.7071 0.3928
vn -0.6935 -0.7071 0.1379
vn -0.6935 0.7071 0.1379
vn -0.6935 -0.7071 -0.1379
vn -0.6935 0.7071 -0.1379
vn -0.5879 -0.7071 -0.3928
vn -0.5879 0.7071 -0.3928
vn -0.3928 -0.7071 -0.5879
vn -0.3928 0.7071 -0.5879
vn -0.1379 -0.7071 -0.6935
vn -0.1379 0.7071 -0.6935
vn -0.0635 -0.9455 0.3193
vn 0.1299 -0.0000 -0.9915
vn -0.2594 -0.0000 -0.9658
vn 0.0635 -0.9455 0.3193
vn 0.4995 -0.0000 -0.8663
vn -0.1809 -0.9455 0.2707
vn -0.0635 0.9455 0.3193
vn -0.1809 0.9455 0.2707
vn 0.0635 0.9455 0.3193
vn 0.7930 -0.0000 -0.6092
vn -0.2707 -0.9455 0.1809
vn -0.2707 0.9455 0.1809
vn 0.9658 -0.0000 -0.2594
vn -0.3193 -0.9455 0.0635
vn -0.3193 0.9455 0.0635
vn 0.9915 -0.0000 0.1299
vn -0.3193 -0.9455 -0.0635
vn -0.3193 0.9455 -0.0635
vn 0.8663 -0.0000 0.4995
vn -0.2707 -0.9455 -0.1809
vn -0.2707 0.9455 -0.1809
vn 0.6092 -0.0000 0.7930
vn -0.1809 -0.9455 -0.2707
vn -0.1809 0.9455 -0.2707
vn 0.2594 -0.0000 0.9658
vn -0.0635 -0.9455 -0.3193
vn -0.0635 0.9455 -0.3193
vn -0.1299 -0.0000 0.9915
vn 0.0635 -0.9455 -0.3193
vn 0.0635 0.9455 -0.3193
vn -0.4995 -0.0000 0.8663
vn 0.1809 -0.9455 -0.2707
vn 0.1809 0.9455 -0.2707
vn -0.7930 -0.0000 0.6092
vn 0.2707 -0.9455 -0.1809
vn 0.2707 0.9455 -0.1809
vn -0.9658 -0.0000 0.2594
vn 0.3193 -0.9455 -0.0635
vn 0.3193 0.9455 -0.0635
vn -0.9915 -0.0000 -0.1299
vn 0.3193 -0.9455 0.0635
vn 0.3193 0.9455 0.0635
vn -0.8663 -0.0000 -0.4995
vn 0.2707 -0.9455 0.1809
vn 0.2707 0.9455 0.1809
vn -0.6092 -0.0000 -0.7930
vn 0.1809 -0.9455 0.2707
vn 0.1809 0.9455 0.2707
vt 0.805650 0.384352
vt 0.852828 0.352828
vt 0.352828 0.352828
vt 0.305650 0.384352
vt 0.884352 0.305650
vt 0.384352 0.305650
vt 0.895421 0.250000
vt 0.395421 0.250000
vt 0.884352 0.194350
vt 0.384352 0.194350
vt 0.852828 0.147172
vt 0.352828 0.147172
vt 0.805650 0.115648
vt 0.305650 0.115648
vt 0.750000 0.104579
vt 0.250000 0.104579
vt 0.694350 0.115648
vt 0.194350 0.115648
vt 0.647172 0.147172
vt 0.147172 0.147172
vt 0.615648 0.194350
vt 0.115648 0.194350
vt 0.604579 0.250000
vt 0.104579 0.250000
vt 0.615648 0.305650
vt 0.115648 0.305650
vt 0.647172 0.352828
vt 0.147172 0.352828
vt 0.694350 0.384352
vt 0.194350 0.384352
vt 0.750000 0.395421
vt 0.250000 0.395421
vt 0.750000 0.490000
vt 0.841844 0.471731
vt 0.832714 0.449689
vt 0.750000 0.466142
vt 0.341844 0.471731
vt 0.250000 0.490000
vt 0.250000 0.466142
vt 0.332714 0.449689
vt 0.919706 0.419706
vt 0.902835 0.402835
vt 0.419706 0.419706
vt 0.402835 0.402835
vt 0.971731 0.341844
vt 0.949689 0.332714
vt 0.471731 0.341844
vt 0.449689 0.332714
vt 0.990000 0.250000
vt 0.966142 0.250000
vt 0.490000 0.250000
vt 0.466142 0.250000
vt 0.971731 0.158156
vt 0.949689 0.167286
vt 0.471731 0.158156
vt 0.449689 0.167286
vt 0.919706 0.080294
vt 0.902835 0.097165
vt 0.419706 0.080294
vt 0.402835 0.097165
vt 0.841844 0.028269
vt 0.832714 0.050311
vt 0.341844 0.028269
vt 0.332714 0.050311
vt 0.750000 0.010000
vt 0.750000 0.033858
vt 0.250000 0.010000
vt 0.250000 0.033858
vt 0.658156 0.028269
vt 0.667286 0.050311
vt 0.158156 0.028269
vt 0.167286 0.050311
vt 0.580294 0.080294
vt 0.597165 0.097165
vt 0.080294 0.080294
vt 0.097165 0.097165
vt 0.528269 0.158156
vt 0.550311 0.167286
vt 0.028269 0.158156
vt 0.050311 0.167286
vt 0.510000 0.250000
vt 0.533858 0.250000
vt 0.010000 0.250000
vt 0.033858 0.250000
vt 0.528269 0.341844
vt 0.550311 0.332714
vt 0.028269 0.341844
vt 0.050311 0.332714
vt 0.580294 0.419706
vt 0.597165 0.402835
vt 0.080294 0.419706
vt 0.097165 0.402835
vt 0.658156 0.471731
vt 0.667286 0.449689
vt 0.158156 0.471731
vt 0.167286 0.449689
vt 1.000000 0.834282
vt 1.000000 0.918563
vt 0.937500 0.918563
vt 0.937500 0.834282
vt 0.062500 0.834282
vt 0.062500 0.918563
vt 0.000000 0.918563
vt 0.000000 0.834282
vt 0.875000 0.918563
vt 0.875000 0.834282
vt 0.812500 0.918563
vt 0.812500 0.834282
vt 0.750000 0.918563
vt 0.750000 0.834282
vt 0.687500 0.918563
vt 0.687500 0.834282
vt 0.625000 0.918563
vt 0.625000 0.834282
vt 0.562500 0.918563
vt 0.562500 0.834282
vt 0.500000 0.918563
vt 0.500000 0.834282
vt 0.437500 0.918563
vt 0.437500 0.834282
vt 0.375000 0.918563
vt 0.375000 0.834282
vt 0.312500 0.918563
vt 0.312500 0.834282
vt 0.250000 0.918563
vt 0.250000 0.834282
vt 0.187500 0.918563
vt 0.187500 0.834282
vt 0.125000 0.918563
vt 0.125000 0.834282
vt 0.125000 0.581437
vt 0.125000 0.665718
vt 0.062500 0.665718
vt 0.062500 0.581437
vt 0.125000 0.750000
vt 0.062500 0.750000
vt 0.187500 0.581437
vt 0.187500 0.665718
vt 0.187500 0.750000
vt 0.250000 0.581437
vt 0.250000 0.665718
vt 0.250000 0.750000
vt 0.312500 0.581437
vt 0.312500 0.665718
vt 0.312500 0.750000
vt 0.375000 0.581437
vt 0.375000 0.665718
vt 0.375000 0.750000
vt 0.437500 0.581437
vt 0.437500 0.665718
vt 0.437500 0.750000
vt 0.500000 0.581437
vt 0.500000 0.665718
vt 0.500000 0.750000
vt 0.562500 0.581437
vt 0.562500 0.665718
vt 0.562500 0.750000
vt 0.625000 0.581437
vt 0.625000 0.665718
vt 0.625000 0.750000
vt 0.687500 0.581437
vt 0.687500 0.665718
vt 0.687500 0.750000
vt 0.750000 0.581437
vt 0.750000 0.665718
vt 0.750000 0.750000
vt 0.812500 0.581437
vt 0.812500 0.665718
vt 0.812500 0.750000
vt 0.875000 0.581437
vt 0.875000 0.665718
vt 0.875000 0.750000
vt 0.937500 0.581437
vt 0.937500 0.665718
vt 0.937500 0.750000
vt 0.000000 0.665718
vt 0.000000 0.581437
vt 0.000000 0.750000
vt 1.000000 0.581437
vt 1.000000 0.665718
vt 1.000000 0.750000
s 0
g tire_Material
usemtl Material
f 34/33/17 35/34/17 36/35/17 33/36/17
f 38/37/18 39/38/18 40/39/18 37/40/18
f 35/34/19 41/41/19 42/42/19 36/35/19
f 44/43/20 38/37/20 37/40/20 43/44/20
f 41/41/21 45/45/21 46/46/21 42/42/21
f 48/47/22 44/43/22 43/44/22 47/48/22
f 45/45/23 49/49/23 50/50/23 46/46/23
f 52/51/24 48/47/24 47/48/24 51/52/24
f 49/49/25 53/53/25 54/54/25 50/50/25
f 56/55/26 52/51/26 51/52/26 55/56/26
f 53/53/27 57/57/27 58/58/27 54/54/27
f 60/59/28 56/55/28 55/56/28 59/60/28
f 57/57/29 61/61/29 62/62/29 58/58/29
f 64/63/30 60/59/30 59/60/30 63/64/30
f 61/61/31 65/65/31 66/66/31 62/62/31
f 68/67/32 64/63/32 63/64/32 67/68/32
f 65/65/33 69/69/33 70/70/33 66/66/33
f 72/71/34 68/67/34 67/68/34 71/72/34
f 69/69/35 73/73/35 74/74/35 70/70/35
f 76/75/36 72/71/36 71/72/36 75/76/36
f 73/73/37 77/77/37 78/78/37 74/74/37
f 80/79/38 76/75/38 75/76/38 79/80/38
f 77/77/39 81/81/39 82/82/39 78/78/39
f 84/83/40 80/79/40 79/80/40 83/84/40
f 81/81/41 85/85/41 86/86/41 82/82/41
f 88/87/42 84/83/42 83/84/42 87/88/42
f 85/85/43 89/89/43 90/90/43 86/86/43
f 92/91/44 88/87/44 87/88/44 91/92/44
f 89/89/45 93/93/45 94/94/45 90/90/45
f 96/95/46 92/91/46 91/92/46 95/96/46
f 93/93/47 34/33/47 33/36/47 94/94/47
f 39/38/48 96/95/48 95/96/48 40/39/48
f 3/1/49 1/31/49 33/36/49 36/35/49
f 99/97/50 39/98/50 38/99/50 100/100/50
f 105/101/51 96/102/51 39/103/51 99/104/51
f 1/31/52 31/29/52 94/94/52 33/36/52
f 100/100/53 38/99/53 44/105/53 106/106/53
f 5/2/54 3/1/54 36/35/54 42/42/54
f 2/32/55 4/4/55 37/40/55 40/39/55
f 4/4/56 6/3/56 43/44/56 37/40/56
f 32/30/57 2/32/57 40/39/57 95/96/57
f 106/106/58 44/105/58 48/107/58 109/108/58
f 7/5/59 5/2/59 42/42/59 46/46/59
f 6/3/60 8/6/60 47/48/60 43/44/60
f 109/108/61 48/107/61 52/109/61 112/110/61
f 9/7/62 7/5/62 46/46/62 50/50/62
f 8/6/63 10/8/63 51/52/63 47/48/63
f 112/110/64 52/109/64 56/111/64 115/112/64
f 11/9/65 9/7/65 50/50/65 54/54/65
f 10/8/66 12/10/66 55/56/66 51/52/66
f 115/112/67 56/111/67 60/113/67 118/114/67
f 13/11/68 11/9/68 54/54/68 58/58/68
f 12/10/69 14/12/69 59/60/69 55/56/69
f 118/114/70 60/113/70 64/115/70 121/116/70
f 15/13/71 13/11/71 58/58/71 62/62/71
f 14/12/72 16/14/72 63/64/72 59/60/72
f 121/116/73 64/115/73 68/117/73 124/118/73
f 17/15/74 15/13/74 62/62/74 66/66/74
f 16/14/75 18/16/75 67/68/75 63/64/75
f 124/118/76 68/117/76 72/119/76 127/120/76
f 19/17/77 17/15/77 66/66/77 70/70/77
f 18/16/78 20/18/78 71/72/78 67/68/78
f 127/120/79 72/119/79 76/121/79 130/122/79
f 21/19/80 19/17/80 70/70/80 74/74/80
f 20/18/81 22/20/81 75/76/81 71/72/81
f 130/122/82 76/121/82 80/123/82 133/124/82
f 23/21/83 21/19/83 74/74/83 78/78/83
f 22/20/84 24/22/84 79/80/84 75/76/84
f 133/124/85 80/123/85 84/125/85 136/126/85
f 25/23/86 23/21/86 78/78/86 82/82/86
f 24/22/87 26/24/87 83/84/87 79/80/87
f 136/126/88 84/125/88 88/127/88 139/128/88
f 27/25/89 25/23/89 82/82/89 86/86/89
f 26/24/90 28/26/90 87/88/90 83/84/90
f 139/128/91 88/127/91 92/129/91 142/130/91
f 29/27/92 27/25/92 86/86/92 90/90/92
f 28/26/93 30/28/93 91/92/93 87/88/93
f 142/130/94 92/129/94 96/102/94 105/101/94
f 31/29/95 29/27/95 90/90/95 94/94/95
f 30/28/96 32/30/96 95/96/96 91/92/96
f 89/131/94 144/132/94 103/133/94 93/134/94
f 144/132/94 143/135/94 104/136/94 103/133/94
f 143/135/94 142/130/94 105/101/94 104/136/94
f 85/137/91 141/138/91 144/132/91 89/131/91
f 141/138/91 140/139/91 143/135/91 144/132/91
f 140/139/91 139/128/91 142/130/91 143/135/91
f 81/140/88 138/141/88 141/138/88 85/137/88
f 138/141/88 137/142/88 140/139/88 141/138/88
f 137/142/88 136/126/88 139/128/88 140/139/88
f 77/143/85 135/144/85 138/141/85 81/140/85
f 135/144/85 134/145/85 137/142/85 138/141/85
f 134/145/85 133/124/85 136/126/85 137/142/85
f 73/146/82 132/147/82 135/144/82 77/143/82
f 132/147/82 131/148/82 134/145/82 135/144/82
f 131/148/82 130/122/82 133/124/82 134/145/82
f 69/149/79 129/150/79 132/147/79 73/146/79
f 129/150/79 128/151/79 131/148/79 132/147/79
f 128/151/79 127/120/79 130/122/79 131/148/79
f 65/152/76 126/153/76 129/150/76 69/149/76
f 126/153/76 125/154/76 128/151/76 129/150/76
f 125/154/76 124/118/76 127/120/76 128/151/76
f 61/155/73 123/156/73 126/153/73 65/152/73
f 123/156/73 122/157/73 125/154/73 126/153/73
f 122/157/73 121/116/73 124/118/73 125/154/73
f 57/158/70 120/159/70 123/156/70 61/155/70
f 120/159/70 119/160/70 122/157/70 123/156/70
f 119/160/70 118/114/70 121/116/70 122/157/70
f 53/161/67 117/162/67 120/159/67 57/158/67
f 117/162/67 116/163/67 119/160/67 120/159/67
f 116/163/67 115/112/67 118/114/67 119/160/67
f 49/164/64 114/165/64 117/162/64 53/161/64
f 114/165/64 113/166/64 116/163/64 117/162/64
f 113/166/64 112/110/64 115/112/64 116/163/64
f 45/167/61 111/168/61 114/165/61 49/164/61
f 111/168/61 110/169/61 113/166/61 114/165/61
f 110/169/61 109/108/61 112/110/61 113/166/61
f 41/170/58 108/171/58 111/168/58 45/167/58
f 108/171/58 107/172/58 110/169/58 111/168/58
f 107/172/58 106/106/58 109/108/58 110/169/58
f 35/173/53 102/174/53 108/171/53 41/170/53
f 102/174/53 101/175/53 107/172/53 108/171/53
f 101/175/53 100/100/53 106/106/53 107/172/53
f 93/134/51 103/133/51 97/176/51 34/177/51
f 103/133/51 104/136/51 98/178/51 97/176/51
f 104/136/51 105/101/51 99/104/51 98/178/51
f 34/179/50 97/180/50 102/174/50 35/173/50
f 97/180/50 98/181/50 101/175/50 102/174/50
f 98/181/50 99/97/50 100/100/50 101/175/50
g tire_dark_grey
usemtl dark_grey
f 3/1/1 5/2/1 6/3/1 4/4/1
f 5/2/2 7/5/2 8/6/2 6/3/2
f 7/5/3 9/7/3 10/8/3 8/6/3
f 9/7/4 11/9/4 12/10/4 10/8/4
f 11/9/5 13/11/5 14/12/5 12/10/5
f 13/11/6 15/13/6 16/14/6 14/12/6
f 15/13/7 17/15/7 18/16/7 16/14/7
f 17/15/8 19/17/8 20/18/8 18/16/8
f 19/17/9 21/19/9 22/20/9 20/18/9
f 21/19/10 23/21/10 24/22/10 22/20/10
f 23/21/11 25/23/11 26/24/11 24/22/11
f 25/23/12 27/25/12 28/26/12 26/24/12
f 27/25/13 29/27/13 30/28/13 28/26/13
f 29/27/14 31/29/14 32/30/14 30/28/14
f 31/29/15 1/31/15 2/32/15 32/30/15
f 1/31/16 3/1/16 4/4/16 2/32/16
