# Blender 5.1.1
# www.blender.org
mtllib bleachers.mtl
g Cube.001_Cube.002
v -1.000000 -0.905942 0.945640
v -1.000000 -0.905942 -0.945640
v -1.000000 0.945640 -0.945640
v 1.000000 -0.905942 0.945640
v 1.000000 -0.905942 -0.945640
v 1.000000 0.945640 -0.945640
v -1.000000 -0.721027 0.945640
v 1.000000 -0.721027 0.945640
v -1.000000 0.945640 -0.721027
v 1.000000 0.945640 -0.721027
v 1.000000 -0.721027 0.612306
v 1.000000 -0.387694 0.278973
v 1.000000 -0.387694 0.612306
v 1.000000 -0.054360 -0.054360
v 1.000000 -0.054360 0.278973
v 1.000000 0.278973 -0.387694
v 1.000000 0.278973 -0.054360
v 1.000000 0.612306 -0.721027
v 1.000000 0.612306 -0.387694
v -1.000000 -0.721027 0.612306
v -1.000000 -0.387694 0.612306
v -1.000000 -0.387694 0.278973
v -1.000000 -0.054360 0.278973
v -1.000000 -0.054360 -0.054360
v -1.000000 0.278973 -0.054360
v -1.000000 0.278973 -0.387694
v -1.000000 0.612306 -0.387694
v -1.000000 0.612306 -0.721027
v -1.000000 1.055987 -1.000000
v 1.000000 1.055987 -1.000000
v 1.000000 -0.610680 0.666667
v 1.000000 -0.277347 0.333333
v 1.000000 0.055987 0.000000
v 1.000000 0.389320 -0.333333
v 1.000000 0.722653 -0.666667
v -1.000000 -0.610680 0.666667
v -1.000000 -0.277347 0.333333
v -1.000000 0.055987 -0.000000
v -1.000000 0.389320 -0.333333
v -1.000000 0.722653 -0.666667
v 1.000000 -0.666667 1.063894
v -1.000000 -0.666667 1.063894
v -1.000000 -0.333333 0.730561
v 1.000000 -0.333333 0.730561
v -1.000000 0.000000 0.397228
v 1.000000 -0.000000 0.397228
v -1.000000 1.000000 -0.602772
v 1.000000 1.000000 -0.602772
v 1.000000 0.333333 0.063894
v -1.000000 0.333333 0.063894
v 1.000000 0.666667 -0.269439
v -1.000000 0.666667 -0.269439
v 1.000000 -0.610680 1.063894
v -1.000000 -0.610680 1.063894
v -1.000000 -0.277347 0.730561
v 1.000000 -0.277347 0.730561
v -1.000000 0.055987 0.397228
v 1.000000 0.055987 0.397228
v -1.000000 1.055987 -0.602772
v 1.000000 1.055987 -0.602772
v 1.000000 0.389320 0.063894
v -1.000000 0.389320 0.063894
v 1.000000 0.722653 -0.269439
v -1.000000 0.722653 -0.269439
v -1.000000 1.000000 -0.666667
v -1.000000 1.000000 -1.000000
v 1.000000 -0.666667 1.000000
v 1.000000 -1.000000 1.000000
v -1.000000 -1.000000 1.000000
v -1.000000 -0.666667 1.000000
v -1.000000 -1.000000 -1.000000
v 1.000000 1.000000 -1.000000
v 1.000000 -1.000000 -1.000000
v 1.000000 -0.666667 0.666667
v 1.000000 1.000000 -0.666667
v 1.000000 -0.333333 0.333333
v 1.000000 -0.333333 0.666667
v 1.000000 -0.000000 0.000000
v 1.000000 -0.000000 0.333333
v 1.000000 0.333333 -0.333333
v 1.000000 0.333333 0.000000
v 1.000000 0.666667 -0.666667
v 1.000000 0.666667 -0.333333
v -1.000000 -0.666667 0.666667
v -1.000000 -0.333333 0.666667
v -1.000000 -0.333333 0.333333
v -1.000000 0.000000 0.333333
v -1.000000 -0.000000 -0.000000
v -1.000000 0.333333 -0.000000
v -1.000000 0.333333 -0.333333
v -1.000000 0.666667 -0.333333
v -1.000000 0.666667 -0.666667
v -1.000000 0.106754 -0.054360
v 1.000000 0.106754 -0.054360
v -1.000000 -0.784526 -0.945640
v 1.000000 -0.784526 -0.945640
vn -0.0000 -1.0000 -0.0000
vn -0.0000 -0.0000 1.0000
vn -1.0000 -0.0000 -0.0000
vn -0.0000 1.0000 -0.0000
vn -0.0000 -0.0000 -1.0000
vn 1.0000 -0.0000 -0.0000
vt 0.576538 0.534872
vt 0.576538 0.576538
vt 0.576538 0.173462
vt 0.576538 0.215128
vt 0.375000 0.750000
vt 0.416667 0.750000
vt 0.416667 1.000000
vt 0.375000 1.000000
vt 0.416667 0.000000
vt 0.416667 0.041667
vt 0.583333 0.166667
vt 0.583333 0.208333
vt 0.541667 0.125000
vt 0.541667 0.625000
vt 0.416667 0.708333
vt 0.458333 0.708333
vt 0.458333 0.041667
vt 0.458333 0.666667
vt 0.500000 0.666667
vt 0.500000 0.083333
vt 0.458333 0.083333
vt 0.618205 0.215128
vt 0.618205 0.534872
vt 0.375000 0.500000
vt 0.125000 0.750000
vt 0.125000 0.500000
vt 0.500000 0.125000
vt 0.500000 0.625000
vt 0.541667 0.166667
vt 0.541667 0.583333
vt 0.583333 0.583333
vt 0.875000 0.500000
vt 0.875000 0.541667
vt 0.625000 0.541667
vt 0.625000 0.500000
vt 0.625000 0.208333
vt 0.583333 0.541667
vt 0.625000 0.250000
vt 0.618205 0.243205
vt 0.381795 0.743205
vt 0.409872 0.743205
vt 0.409872 0.006795
vt 0.381795 0.006795
vt 0.375000 0.000000
vt 0.381795 0.243205
vt 0.375000 0.250000
vt 0.618205 0.506795
vt 0.381795 0.506795
vt 0.409872 0.701538
vt 0.451538 0.701538
vt 0.451538 0.659872
vt 0.493205 0.659872
vt 0.493205 0.618205
vt 0.534872 0.618205
vt 0.534872 0.576538
vt 0.409872 0.048462
vt 0.451538 0.090128
vt 0.451538 0.048462
vt 0.493205 0.131795
vt 0.493205 0.090128
vt 0.534872 0.173462
vt 0.534872 0.131795
s 0
g Cube.001_Steel_-_Satin
usemtl Steel_-_Satin
f 18/1/1 19/2/1 27/3/1 28/4/1
f 68/5/2 67/6/2 70/7/2 69/8/2
f 89/13/1 81/14/1 49/14/1 50/13/1
f 74/15/2 77/16/2 85/17/2 84/10/2
f 76/18/2 79/19/2 87/20/2 86/21/2
f 18/1/5 28/4/5 9/22/5 10/23/5
f 73/24/1 68/5/1 69/25/1 71/26/1
f 88/27/2 78/28/2 81/14/2 89/13/2
f 90/29/2 80/30/2 83/31/2 91/11/2
f 65/36/2 92/12/2 82/37/2 75/34/2
f 80/30/5 90/29/5 39/29/5 34/30/5
f 74/15/5 84/10/5 36/10/5 31/15/5
f 72/35/5 66/38/5 29/38/5 30/35/5
f 82/37/5 92/12/5 40/12/5 35/37/5
f 78/28/5 88/27/5 38/27/5 33/28/5
f 87/20/1 79/19/1 46/19/1 45/20/1
f 76/18/5 86/21/5 37/21/5 32/18/5
f 65/36/1 75/34/1 48/34/1 47/36/1
f 91/11/1 83/31/1 51/31/1 52/11/1
f 85/17/1 77/16/1 44/16/1 43/17/1
f 70/7/1 67/6/1 41/6/1 42/7/1
f 3/39/3 9/22/3 65/36/3 66/38/3
f 4/40/6 8/41/6 67/6/6 68/5/6
f 7/42/3 1/43/3 69/44/3 70/9/3
f 2/45/3 3/39/3 66/38/3 71/46/3
f 6/47/6 5/48/6 73/24/6 72/35/6
f 8/41/6 11/49/6 74/15/6 67/6/6
f 1/43/3 2/45/3 71/46/3 69/44/3
f 5/48/6 4/40/6 68/5/6 73/24/6
f 10/23/6 6/47/6 72/35/6 75/34/6
f 13/50/6 12/51/6 76/18/6 77/16/6
f 15/52/6 14/53/6 78/28/6 79/19/6
f 17/54/6 16/55/6 80/30/6 81/14/6
f 19/2/6 18/1/6 82/37/6 83/31/6
f 20/56/3 7/42/3 70/9/3 84/10/3
f 22/57/3 21/58/3 85/17/3 86/21/3
f 24/59/3 23/60/3 87/20/3 88/27/3
f 26/61/3 25/62/3 89/13/3 90/29/3
f 28/4/3 27/3/3 91/11/3 92/12/3
f 27/3/3 26/61/3 90/29/3 91/11/3
f 25/62/3 24/59/3 88/27/3 89/13/3
f 23/60/3 22/57/3 86/21/3 87/20/3
f 21/58/3 20/56/3 84/10/3 85/17/3
f 16/55/6 19/2/6 83/31/6 80/30/6
f 14/53/6 17/54/6 81/14/6 78/28/6
f 12/51/6 15/52/6 79/19/6 76/18/6
f 11/49/6 13/50/6 77/16/6 74/15/6
f 18/1/6 10/23/6 75/34/6 82/37/6
f 9/22/3 28/4/3 92/12/3 65/36/3
f 26/61/5 27/3/5 19/2/5 16/55/5
f 16/55/1 17/54/1 25/62/1 26/61/1
f 24/59/5 25/62/5 17/54/5 14/53/5
f 14/53/1 15/52/1 23/60/1 24/59/1
f 22/57/5 23/60/5 15/52/5 12/51/5
f 12/51/1 13/50/1 21/58/1 22/57/1
f 20/56/5 21/58/5 13/50/5 11/49/5
f 11/49/1 8/41/1 7/42/1 20/56/1
f 8/41/5 4/40/5 1/43/5 7/42/5
f 9/22/1 3/39/1 6/47/1 10/23/1
f 2/45/2 5/48/2 6/47/2 3/39/2
f 2/45/4 1/43/4 4/40/4 5/48/4
f 5/48/5 2/45/5 95/45/5 96/48/5
f 24/59/2 14/53/2 94/53/2 93/59/2
f 73/24/5 71/46/5 66/38/5 72/35/5
g Cube.001_Material
usemtl Material
f 70/9/3 42/9/3 54/9/3 36/10/3 84/10/3
f 91/11/3 52/11/3 64/11/3 40/12/3 92/12/3
f 36/10/4 54/9/4 53/6/4 31/15/4
f 34/30/6 61/14/6 49/14/6 81/14/6 80/30/6
f 29/32/4 59/33/4 60/34/4 30/35/4
f 37/21/4 55/17/4 56/16/4 32/18/4
f 33/28/4 38/27/4 57/20/4 58/19/4
f 39/29/4 62/13/4 61/14/4 34/30/4
f 40/12/4 64/11/4 63/31/4 35/37/4
f 79/19/6 78/28/6 33/28/6 58/19/6 46/19/6
f 32/18/6 56/16/6 44/16/6 77/16/6 76/18/6
f 87/20/3 45/20/3 57/20/3 38/27/3 88/27/3
f 65/36/3 47/36/3 59/36/3 29/38/3 66/38/3
f 30/35/6 60/34/6 48/34/6 75/34/6 72/35/6
f 89/13/3 50/13/3 62/13/3 39/29/3 90/29/3
f 35/37/6 63/31/6 51/31/6 83/31/6 82/37/6
f 85/17/3 43/17/3 55/17/3 37/21/3 86/21/3
f 31/15/6 53/6/6 41/6/6 67/6/6 74/15/6
f 47/36/2 48/34/2 60/34/2 59/36/2
f 50/13/2 49/14/2 61/14/2 62/13/2
f 45/20/2 46/19/2 58/19/2 57/20/2
f 52/11/2 51/31/2 63/31/2 64/11/2
f 43/17/2 44/16/2 56/16/2 55/17/2
f 42/7/2 41/6/2 53/6/2 54/7/2
