# Blender 5.1.1
# www.blender.org
mtllib bleachers_box.mtl
g Cube.001_Cube.002
v -0.900000 -0.905942 0.845640
v -0.900000 -0.905942 -0.845640
v -0.900000 0.845640 -0.911348
v 0.900000 -0.905942 0.845640
v 0.900000 -0.905942 -0.845640
v 0.900000 0.845640 -0.911348
v -1.000000 -0.721027 0.945640
v 1.000000 -0.721027 0.945640
v -1.000000 0.945640 -0.721027
v 1.000000 0.945640 -0.721027
v 1.000000 -0.721027 0.612306
v 1.000000 -0.387694 0.278973
v 1.000000 -0.387694 0.612306
v 1.000000 -0.054360 -0.054360
v 1.000000 -0.054360 0.278973
v 1.000000 0.278973 -0.387694
v 1.000000 0.278973 -0.054360
v 1.000000 0.612306 -0.721027
v 1.000000 0.612306 -0.387694
v -1.000000 -0.721027 0.612306
v -1.000000 -0.387694 0.612306
v -1.000000 -0.387694 0.278973
v -1.000000 -0.054360 0.278973
v -1.000000 -0.054360 -0.054360
v -1.000000 0.278973 -0.054360
v -1.000000 0.278973 -0.387694
v -1.000000 0.612306 -0.387694
v -1.000000 0.612306 -0.721027
v -1.000000 1.055987 -1.000000
v 1.000000 1.055987 -1.000000
v 1.000000 -0.610680 0.666667
v 1.000000 -0.277347 0.333333
v 1.000000 0.055987 0.000000
v 1.000000 0.389320 -0.333333
v 1.000000 0.722653 -0.666667
v -1.000000 -0.610680 0.666667
v -1.000000 -0.277347 0.333333
v -1.000000 0.055987 -0.000000
v -1.000000 0.389320 -0.333333
v -1.000000 0.722653 -0.666667
v 1.000000 -0.666667 1.063894
v -1.000000 -0.666667 1.063894
v -1.000000 -0.333333 0.730561
v 1.000000 -0.333333 0.730561
v -1.000000 0.000000 0.397228
v 1.000000 -0.000000 0.397228
v -1.000000 1.000000 -0.602772
v 1.000000 1.000000 -0.602772
v 1.000000 0.333333 0.063894
v -1.000000 0.333333 0.063894
v 1.000000 0.666667 -0.269439
v -1.000000 0.666667 -0.269439
v 1.000000 -0.610680 1.063894
v -1.000000 -0.610680 1.063894
v -1.000000 -0.277347 0.730561
v 1.000000 -0.277347 0.730561
v -1.000000 0.055987 0.397228
v 1.000000 0.055987 0.397228
v -1.000000 1.055987 -0.602772
v 1.000000 1.055987 -0.602772
v 1.000000 0.389320 0.063894
v -1.000000 0.389320 0.063894
v 1.000000 0.722653 -0.269439
v -1.000000 0.722653 -0.269439
v -1.000000 1.000000 -0.666667
v -1.000000 1.000000 -1.000000
v 1.000000 -0.666667 1.000000
v 1.000000 -1.000000 1.000000
v -1.000000 -1.000000 1.000000
v -1.000000 -0.666667 1.000000
v -1.000000 -1.000000 -1.000000
v 1.000000 1.000000 -1.000000
v 1.000000 -1.000000 -1.000000
v 1.000000 -0.666667 0.666667
v 1.000000 1.000000 -0.666667
v 1.000000 -0.333333 0.333333
v 1.000000 -0.333333 0.666667
v 1.000000 -0.000000 0.000000
v 1.000000 -0.000000 0.333333
v 1.000000 0.333333 -0.333333
v 1.000000 0.333333 0.000000
v 1.000000 0.666667 -0.666667
v 1.000000 0.666667 -0.333333
v -1.000000 -0.666667 0.666667
v -1.000000 -0.333333 0.666667
v -1.000000 -0.333333 0.333333
v -1.000000 0.000000 0.333333
v -1.000000 -0.000000 -0.000000
v -1.000000 0.333333 -0.000000
v -1.000000 0.333333 -0.333333
v -1.000000 0.666667 -0.333333
v -1.000000 0.666667 -0.666667
v -1.000000 0.106754 -0.054360
v 1.000000 0.106754 -0.054360
v -0.900000 -0.805942 -0.911348
v -1.000000 -0.905942 0.945640
v 1.000000 -0.905942 0.945640
v 0.900000 -0.805942 -0.911348
v -0.900000 -1.016486 -0.845640
v -0.900000 -1.016486 0.845640
v 0.900000 -1.016486 0.845640
v 0.900000 -1.016486 -0.845640
v -1.000000 0.945640 -0.911348
v -1.000000 -0.905942 -0.911348
v 1.000000 0.945640 -0.911348
v 1.000000 -0.905942 -0.911348
v 0.900000 0.845640 -1.000000
v -0.900000 -0.805942 -1.000000
v -1.000000 1.000000 -1.000000
v -1.000000 -1.000000 -1.000000
v 1.000000 -1.000000 -1.000000
v 1.000000 1.000000 -1.000000
v 0.900000 -0.805942 -1.000000
v -0.900000 0.845640 -1.000000
v -0.900000 0.845640 -1.000000
v 0.900000 0.845640 -1.000000
v -0.900000 -0.805942 -1.000000
v 0.900000 -0.805942 -1.000000
vn -0.0000 -1.0000 -0.0000
vn -0.0000 -0.0000 1.0000
vn -1.0000 -0.0000 -0.0000
vn -0.0000 1.0000 -0.0000
vn -0.0000 -0.0000 -1.0000
vn 1.0000 -0.0000 -0.0000
vt 0.576538 0.534872
vt 0.576538 0.576538
vt 0.576538 0.173462
vt 0.576538 0.215128
vt 0.375000 0.750000
vt 0.416667 0.750000
vt 0.416667 1.000000
vt 0.375000 1.000000
vt 0.416667 0.000000
vt 0.416667 0.041667
vt 0.583333 0.166667
vt 0.583333 0.208333
vt 0.541667 0.125000
vt 0.541667 0.625000
vt 0.416667 0.708333
vt 0.458333 0.708333
vt 0.458333 0.041667
vt 0.458333 0.666667
vt 0.500000 0.666667
vt 0.500000 0.083333
vt 0.458333 0.083333
vt 0.618205 0.215128
vt 0.618205 0.534872
vt 0.500000 0.125000
vt 0.500000 0.625000
vt 0.541667 0.166667
vt 0.541667 0.583333
vt 0.583333 0.583333
vt 0.875000 0.500000
vt 0.875000 0.541667
vt 0.625000 0.541667
vt 0.625000 0.500000
vt 0.625000 0.208333
vt 0.583333 0.541667
vt 0.625000 0.250000
vt 0.618205 0.243205
vt 0.381795 0.743205
vt 0.409872 0.743205
vt 0.409872 0.006795
vt 0.381795 0.006795
vt 0.375000 0.000000
vt 0.381795 0.243205
vt 0.375000 0.250000
vt 0.618205 0.506795
vt 0.381795 0.506795
vt 0.375000 0.500000
vt 0.409872 0.701538
vt 0.451538 0.701538
vt 0.451538 0.659872
vt 0.493205 0.659872
vt 0.493205 0.618205
vt 0.534872 0.618205
vt 0.534872 0.576538
vt 0.409872 0.048462
vt 0.451538 0.090128
vt 0.451538 0.048462
vt 0.493205 0.131795
vt 0.493205 0.090128
vt 0.534872 0.173462
vt 0.534872 0.131795
vt 0.381795 0.051488
vt 0.381795 0.698512
vt 0.381795 0.248512
vt 0.381795 0.501488
vt 0.394563 0.256384
vt 0.605437 0.256384
vt 0.605437 0.493615
vt 0.394563 0.493616
vt 0.605437 0.256384
vt 0.605705 0.262500
vt 0.605705 0.487500
vt 0.399257 0.262500
vt 0.399257 0.487500
vt 0.394563 0.493616
vt 0.605437 0.493615
vt 0.394563 0.493616
s 0
g Cube.001_Steel_-_Satin
usemtl Steel_-_Satin
f 18/1/1 19/2/1 27/3/1 28/4/1
f 68/5/2 67/6/2 70/7/2 69/8/2
f 89/13/1 81/14/1 49/14/1 50/13/1
f 74/15/2 77/16/2 85/17/2 84/10/2
f 76/18/2 79/19/2 87/20/2 86/21/2
f 18/1/5 28/4/5 9/22/5 10/23/5
f 88/24/2 78/25/2 81/14/2 89/13/2
f 90/26/2 80/27/2 83/28/2 91/11/2
f 65/33/2 92/12/2 82/34/2 75/31/2
f 80/27/5 90/26/5 39/26/5 34/27/5
f 74/15/5 84/10/5 36/10/5 31/15/5
f 72/32/5 66/35/5 29/35/5 30/32/5
f 82/34/5 92/12/5 40/12/5 35/34/5
f 78/25/5 88/24/5 38/24/5 33/25/5
f 87/20/1 79/19/1 46/19/1 45/20/1
f 76/18/5 86/21/5 37/21/5 32/18/5
f 65/33/1 75/31/1 48/31/1 47/33/1
f 91/11/1 83/28/1 51/28/1 52/11/1
f 85/17/1 77/16/1 44/16/1 43/17/1
f 70/7/1 67/6/1 41/6/1 42/7/1
f 103/36/3 9/22/3 65/33/3 66/35/3
f 97/37/6 8/38/6 67/6/6 68/5/6
f 7/39/3 96/40/3 69/41/3 70/9/3
f 104/42/3 103/36/3 66/35/3 71/43/3
f 105/44/6 106/45/6 73/46/6 72/32/6
f 8/38/6 11/47/6 74/15/6 67/6/6
f 96/40/3 104/42/3 71/43/3 69/41/3
f 106/45/6 97/37/6 68/5/6 73/46/6
f 10/23/6 105/44/6 72/32/6 75/31/6
f 13/48/6 12/49/6 76/18/6 77/16/6
f 15/50/6 14/51/6 78/25/6 79/19/6
f 17/52/6 16/53/6 80/27/6 81/14/6
f 19/2/6 18/1/6 82/34/6 83/28/6
f 20/54/3 7/39/3 70/9/3 84/10/3
f 22/55/3 21/56/3 85/17/3 86/21/3
f 24/57/3 23/58/3 87/20/3 88/24/3
f 26/59/3 25/60/3 89/13/3 90/26/3
f 28/4/3 27/3/3 91/11/3 92/12/3
f 27/3/3 26/59/3 90/26/3 91/11/3
f 25/60/3 24/57/3 88/24/3 89/13/3
f 23/58/3 22/55/3 86/21/3 87/20/3
f 21/56/3 20/54/3 84/10/3 85/17/3
f 16/53/6 19/2/6 83/28/6 80/27/6
f 14/51/6 17/52/6 81/14/6 78/25/6
f 12/49/6 15/50/6 79/19/6 76/18/6
f 11/47/6 13/48/6 77/16/6 74/15/6
f 18/1/6 10/23/6 75/31/6 82/34/6
f 9/22/3 28/4/3 92/12/3 65/33/3
f 26/59/5 27/3/5 19/2/5 16/53/5
f 16/53/1 17/52/1 25/60/1 26/59/1
f 24/57/5 25/60/5 17/52/5 14/51/5
f 14/51/1 15/50/1 23/58/1 24/57/1
f 22/55/5 23/58/5 15/50/5 12/49/5
f 12/49/1 13/48/1 21/56/1 22/55/1
f 20/54/5 21/56/5 13/48/5 11/47/5
f 11/47/1 8/38/1 7/39/1 20/54/1
f 8/38/5 97/37/5 96/40/5 7/39/5
f 9/22/1 103/36/1 105/44/1 10/23/1
f 1/61/5 4/62/5 101/62/5 100/61/5
f 24/57/2 14/51/2 94/51/2 93/57/2
f 1/61/4 2/63/4 104/42/4 96/40/4
f 5/64/4 4/62/4 97/37/4 106/45/4
f 4/62/4 1/61/4 96/40/4 97/37/4
f 2/63/4 5/64/4 106/45/4 104/42/4
f 2/63/6 1/61/6 100/61/6 99/63/6
f 5/64/2 2/63/2 99/63/2 102/64/2
f 4/62/3 5/64/3 102/64/3 101/62/3
f 95/65/2 3/66/2 103/36/2 104/42/2
f 6/67/2 98/68/2 106/45/2 105/44/2
f 3/66/2 6/67/2 105/44/2 103/36/2
f 98/68/2 95/65/2 104/42/2 106/45/2
f 6/67/1 3/66/1 115/69/1 116/67/1
f 114/70/5 109/35/5 112/32/5 107/71/5
f 112/32/5 111/46/5 110/43/5 109/35/5 114/70/5 108/72/5 113/73/5 107/71/5
f 3/66/6 95/65/6 117/65/6 115/66/6
f 117/65/4 95/65/4 98/68/4 118/74/4
f 98/68/3 6/67/3 116/75/3 118/76/3
g Cube.001_Material
usemtl Material
f 70/9/3 42/9/3 54/9/3 36/10/3 84/10/3
f 91/11/3 52/11/3 64/11/3 40/12/3 92/12/3
f 36/10/4 54/9/4 53/6/4 31/15/4
f 34/27/6 61/14/6 49/14/6 81/14/6 80/27/6
f 29/29/4 59/30/4 60/31/4 30/32/4
f 37/21/4 55/17/4 56/16/4 32/18/4
f 33/25/4 38/24/4 57/20/4 58/19/4
f 39/26/4 62/13/4 61/14/4 34/27/4
f 40/12/4 64/11/4 63/28/4 35/34/4
f 79/19/6 78/25/6 33/25/6 58/19/6 46/19/6
f 32/18/6 56/16/6 44/16/6 77/16/6 76/18/6
f 87/20/3 45/20/3 57/20/3 38/24/3 88/24/3
f 65/33/3 47/33/3 59/33/3 29/35/3 66/35/3
f 30/32/6 60/31/6 48/31/6 75/31/6 72/32/6
f 89/13/3 50/13/3 62/13/3 39/26/3 90/26/3
f 35/34/6 63/28/6 51/28/6 83/28/6 82/34/6
f 85/17/3 43/17/3 55/17/3 37/21/3 86/21/3
f 31/15/6 53/6/6 41/6/6 67/6/6 74/15/6
f 47/33/2 48/31/2 60/31/2 59/33/2
f 50/13/2 49/14/2 61/14/2 62/13/2
f 45/20/2 46/19/2 58/19/2 57/20/2
f 52/11/2 51/28/2 63/28/2 64/11/2
f 43/17/2 44/16/2 56/16/2 55/17/2
f 42/7/2 41/6/2 53/6/2 54/7/2
