# Blender 5.1.1
# www.blender.org
mtllib flag_stand.mtl
g flag_stand_Cube
v 1.441911 0.260036 0.203005 1.0000 1.0000 1.0000
v -1.441911 0.260036 0.203005 1.0000 1.0000 1.0000
v -0.754374 3.316535 0.754374 1.0000 1.0000 1.0000
v 0.754374 3.316535 0.754374 1.0000 1.0000 1.0000
v -0.754374 0.843052 -1.680211 1.0000 1.0000 1.0000
v 0.754374 0.843052 -1.680211 1.0000 1.0000 1.0000
v 0.754374 3.316535 -1.000000 1.0000 1.0000 1.0000
v -0.754374 3.316535 -1.000000 1.0000 1.0000 1.0000
v 1.441911 0.260036 -1.179960 1.0000 1.0000 1.0000
v -1.000000 0.260036 -1.179960 1.0000 1.0000 1.0000
v 0.168728 3.779634 1.000000 1.0000 1.0000 1.0000
v -0.168728 3.779634 1.000000 1.0000 1.0000 1.0000
v 0.754374 0.280280 -1.944059 1.0000 1.0000 1.0000
v -0.754374 0.280280 -1.944059 1.0000 1.0000 1.0000
v 0.754374 4.316535 0.754374 1.0000 1.0000 1.0000
v -0.754374 4.316535 0.754374 1.0000 1.0000 1.0000
v -0.168728 3.507515 1.000000 1.0000 1.0000 1.0000
v 1.000000 2.751687 -0.597176 1.0000 1.0000 1.0000
v -1.000000 2.751687 -0.597176 1.0000 1.0000 1.0000
v 0.168728 3.507515 1.000000 1.0000 1.0000 1.0000
v 0.754374 3.045906 -1.297194 1.0000 1.0000 1.0000
v -0.754374 3.045906 -1.297194 1.0000 1.0000 1.0000
v -0.754374 2.167887 -1.032678 1.0000 1.0000 1.0000
v 0.754374 2.167887 -1.032678 1.0000 1.0000 1.0000
v 0.754374 2.750638 -0.878482 1.0000 1.0000 1.0000
v -0.754374 2.750638 -0.878482 1.0000 1.0000 1.0000
v 0.754374 2.729880 -1.135722 1.0000 1.0000 1.0000
v -0.754374 2.729880 -1.135722 1.0000 1.0000 1.0000
v 0.754374 2.145243 -1.296957 1.0000 1.0000 1.0000
v -0.754374 2.145243 -1.296957 1.0000 1.0000 1.0000
v 0.754374 1.555780 -1.202686 1.0000 1.0000 1.0000
v -0.754374 1.555780 -1.202686 1.0000 1.0000 1.0000
v 0.754374 1.528296 -1.479770 1.0000 1.0000 1.0000
v -0.754374 1.528296 -1.479770 1.0000 1.0000 1.0000
v 0.754374 0.856353 -1.402669 1.0000 1.0000 1.0000
v -0.754374 0.850316 -1.404022 1.0000 1.0000 1.0000
v 0.754374 0.278900 -1.627814 1.0000 1.0000 1.0000
v -0.754374 0.278900 -1.627814 1.0000 1.0000 1.0000
v 0.929143 4.316535 -1.070857 1.0000 1.0000 1.0000
v 1.000000 4.316535 -0.929143 1.0000 1.0000 1.0000
v -0.929143 4.316535 -1.070857 1.0000 1.0000 1.0000
v -1.000000 4.316535 -0.929143 1.0000 1.0000 1.0000
v -0.825231 4.316535 -1.070857 1.0000 1.0000 1.0000
v -0.754374 4.316535 -0.929143 1.0000 1.0000 1.0000
v 0.825231 4.316535 -1.070857 1.0000 1.0000 1.0000
v 0.754374 4.281107 -0.929143 1.0000 1.0000 1.0000
v 0.929143 4.316535 -1.381994 1.0000 1.0000 1.0000
v 1.000000 4.245678 -1.396922 1.0000 1.0000 1.0000
v 0.929143 4.247540 -1.468988 1.0000 1.0000 1.0000
v 0.825231 4.316535 -1.381994 1.0000 1.0000 1.0000
v 0.825231 4.247540 -1.468988 1.0000 1.0000 1.0000
v 0.754374 4.245678 -1.396922 1.0000 1.0000 1.0000
v -0.929143 4.316535 -1.381994 1.0000 1.0000 1.0000
v -0.929143 4.247540 -1.468988 1.0000 1.0000 1.0000
v -1.000000 4.245678 -1.396922 1.0000 1.0000 1.0000
v -0.825231 4.316535 -1.381994 1.0000 1.0000 1.0000
v -0.754374 4.245678 -1.396922 1.0000 1.0000 1.0000
v -0.825231 4.247540 -1.468988 1.0000 1.0000 1.0000
v 0.825231 4.149239 -1.491980 1.0000 1.0000 1.0000
v 0.825230 4.011503 -1.525303 1.0000 1.0000 1.0000
v 0.754374 4.080245 -1.435627 1.0000 1.0000 1.0000
v 1.000000 4.080244 -1.435627 1.0000 1.0000 1.0000
v 0.929143 4.011503 -1.525303 1.0000 1.0000 1.0000
v 0.929143 4.149239 -1.491980 1.0000 1.0000 1.0000
v -0.754374 4.080245 -1.435627 1.0000 1.0000 1.0000
v -0.825231 4.011503 -1.525303 1.0000 1.0000 1.0000
v -0.825231 4.149239 -1.491980 1.0000 1.0000 1.0000
v -0.929143 4.149239 -1.491980 1.0000 1.0000 1.0000
v -0.929143 4.011503 -1.525303 1.0000 1.0000 1.0000
v -1.000000 4.080245 -1.435627 1.0000 1.0000 1.0000
v 0.929139 0.148985 -2.490932 1.0000 1.0000 1.0000
v 0.999996 0.080244 -2.435671 1.0000 1.0000 1.0000
v 0.825227 0.148986 -2.490932 1.0000 1.0000 1.0000
v 0.754370 0.080245 -2.435671 1.0000 1.0000 1.0000
v -0.825234 0.148986 -2.490932 1.0000 1.0000 1.0000
v -0.754378 0.080245 -2.435671 1.0000 1.0000 1.0000
v -0.929147 0.148986 -2.490932 1.0000 1.0000 1.0000
v -1.000004 0.080245 -2.435671 1.0000 1.0000 1.0000
v 0.845109 4.080245 -1.146002 1.0000 1.0000 1.0000
v 0.754374 4.076792 -1.056075 1.0000 1.0000 1.0000
v 0.909265 4.080244 -1.146002 1.0000 1.0000 1.0000
v 1.000000 4.076792 -1.056075 1.0000 1.0000 1.0000
v -0.845109 4.080245 -1.146002 1.0000 1.0000 1.0000
v -0.754374 4.076792 -1.056075 1.0000 1.0000 1.0000
v -0.909265 4.080245 -1.146002 1.0000 1.0000 1.0000
v -1.000000 4.076792 -1.056075 1.0000 1.0000 1.0000
v -1.000000 4.170979 -1.348514 1.0000 1.0000 1.0000
v -0.909265 3.992219 -1.300620 1.0000 1.0000 1.0000
v -0.909265 4.080245 -1.187879 1.0000 1.0000 1.0000
v 0.754374 4.170979 -1.348514 1.0000 1.0000 1.0000
v 0.845109 3.992218 -1.300620 1.0000 1.0000 1.0000
v 0.845109 4.080245 -1.187879 1.0000 1.0000 1.0000
v 0.909265 4.080244 -1.187879 1.0000 1.0000 1.0000
v 0.909265 3.992218 -1.300620 1.0000 1.0000 1.0000
v 1.000000 4.170979 -1.348514 1.0000 1.0000 1.0000
v -0.845109 4.080245 -1.187879 1.0000 1.0000 1.0000
v -0.845109 3.992219 -1.300620 1.0000 1.0000 1.0000
v -0.754374 4.170979 -1.348514 1.0000 1.0000 1.0000
v 0.845105 0.168270 -2.256607 1.0000 1.0000 1.0000
v 0.754370 0.080245 -2.371160 1.0000 1.0000 1.0000
v -0.754378 0.080245 -2.371160 1.0000 1.0000 1.0000
v -0.845113 0.168270 -2.256607 1.0000 1.0000 1.0000
v -0.909269 0.168270 -2.256607 1.0000 1.0000 1.0000
v -1.000004 0.080245 -2.371160 1.0000 1.0000 1.0000
v 0.999996 0.080244 -2.371160 1.0000 1.0000 1.0000
v 0.909261 0.168270 -2.256608 1.0000 1.0000 1.0000
v -1.000000 2.751687 0.729933 1.0000 1.0000 1.0000
v -1.000000 4.316535 1.000000 1.0000 1.0000 1.0000
v 1.000000 4.316535 1.000000 1.0000 1.0000 1.0000
v 1.000000 2.751687 0.729933 1.0000 1.0000 1.0000
v -0.168728 3.507515 1.238811 1.0000 1.0000 1.0000
v -0.168728 3.779634 1.238811 1.0000 1.0000 1.0000
v 0.168728 3.779634 1.238811 1.0000 1.0000 1.0000
v 0.168728 3.507515 1.238811 1.0000 1.0000 1.0000
v 0.168728 3.779634 1.238811 1.0000 1.0000 1.0000
v 0.168728 3.930464 1.431951 1.0000 1.0000 1.0000
v -0.168728 3.930464 1.431951 1.0000 1.0000 1.0000
v -0.168728 3.779634 1.238811 1.0000 1.0000 1.0000
v 0.168728 3.336212 1.431951 1.0000 1.0000 1.0000
v 0.168728 3.507515 1.238811 1.0000 1.0000 1.0000
v -0.168728 3.507515 1.238811 1.0000 1.0000 1.0000
v -0.168728 3.336212 1.431951 1.0000 1.0000 1.0000
v 0.168728 3.930464 1.646166 1.0000 1.0000 1.0000
v 0.168728 3.760870 1.839305 1.0000 1.0000 1.0000
v -0.168728 3.760870 1.839305 1.0000 1.0000 1.0000
v -0.168728 3.930464 1.646166 1.0000 1.0000 1.0000
v 0.168728 3.529352 1.839305 1.0000 1.0000 1.0000
v 0.168728 3.336212 1.646166 1.0000 1.0000 1.0000
v -0.168728 3.336212 1.646166 1.0000 1.0000 1.0000
v -0.168728 3.529352 1.839305 1.0000 1.0000 1.0000
v -1.441911 0.041109 -2.000000 1.0000 1.0000 1.0000
v -1.441911 0.041109 0.380475 1.0000 1.0000 1.0000
v 1.000000 2.970614 -1.314804 1.0000 1.0000 1.0000
v 1.441911 0.041109 -2.000000 1.0000 1.0000 1.0000
v -1.000000 2.970614 -1.314804 1.0000 1.0000 1.0000
v 1.000000 2.970614 1.000000 1.0000 1.0000 1.0000
v 1.441911 0.041109 0.380475 1.0000 1.0000 1.0000
v -1.000000 2.970614 1.000000 1.0000 1.0000 1.0000
v 1.000000 2.751687 -0.597176 1.0000 1.0000 1.0000
v 1.000000 0.260036 -1.179960 1.0000 1.0000 1.0000
v -1.000000 2.751687 -0.597176 1.0000 1.0000 1.0000
v -1.441911 0.260036 -1.179960 1.0000 1.0000 1.0000
v 0.993781 4.594550 0.999093 1.0000 1.0000 1.0000
v -1.006219 4.594550 0.999093 1.0000 1.0000 1.0000
v 0.748155 4.594550 0.753466 1.0000 1.0000 1.0000
v -0.760593 4.594550 0.753466 1.0000 1.0000 1.0000
v 0.748154 4.588750 -0.061832 1.0000 1.0000 1.0000
v 0.993781 4.594550 -0.061832 1.0000 1.0000 1.0000
v -1.006219 4.594550 -0.061832 1.0000 1.0000 1.0000
v -0.760593 4.594550 -0.061832 1.0000 1.0000 1.0000
vn 1.0000 -0.0000 -0.0000
vn -0.0000 -1.0000 -0.0000
vn -0.0000 -0.2277 0.9737
vn -0.0000 -0.0000 -1.0000
vn -0.0000 0.2277 -0.9737
vn 0.9997 0.0224 -0.0000
vn -1.0000 -0.0000 -0.0000
vn -0.0000 1.0000 0.0044
vn -0.0000 -0.1803 -0.9836
vn -0.0000 1.0000 -0.0000
vn -0.0020 0.9993 -0.0371
vn -0.0000 0.2069 -0.9784
vn -0.0000 -0.2069 0.9784
vn -0.0000 -0.2099 -0.9777
vn -0.0000 0.9968 -0.0804
vn -0.0000 0.9963 -0.0854
vn -0.0000 -0.1579 -0.9875
vn -0.0000 0.9951 -0.0987
vn 0.0007 -0.1125 -0.9937
vn -0.0000 -0.0925 -0.9957
vn 0.5465 0.6561 -0.5204
vn -0.5465 0.6561 -0.5204
vn -0.7078 0.1661 -0.6866
vn 0.7078 0.1661 -0.6866
vn -0.0000 0.7835 -0.6214
vn -0.1001 0.9873 0.1234
vn 0.7058 0.1614 -0.6898
vn -0.7058 0.1614 -0.6898
vn -0.0000 0.2351 -0.9720
vn -0.5011 0.8619 -0.0784
vn 0.5011 0.8619 -0.0784
vn -0.6198 0.7839 -0.0357
vn -0.0000 -0.6265 -0.7794
vn 0.7043 0.1722 -0.6887
vn -0.7043 0.1722 -0.6887
vn -0.0792 0.9443 -0.3194
vn -0.9998 -0.0218 0.0004
vn -0.0000 0.2425 -0.9701
vn -0.8826 -0.3705 0.2893
vn 0.8826 -0.3705 0.2893
vn -0.0000 -0.9993 -0.0384
vn 0.3365 -0.9064 -0.2554
vn -0.3365 -0.9064 -0.2554
vn -0.0000 -0.7882 0.6154
vn -0.0000 -0.7929 0.6093
vn -0.7034 -0.1724 0.6895
vn 0.7034 -0.1724 0.6895
vn -0.0000 -0.2425 0.9701
vn -0.0000 -0.0000 1.0000
vn -0.0000 0.7881 -0.6155
vn -0.0000 -0.7481 -0.6635
vn -0.0000 0.7514 0.6598
vn -0.0000 -0.7071 0.7071
vn 0.9610 0.0137 0.2762
vn -0.9610 0.0137 0.2762
vn 0.9870 0.1609 -0.0000
vn -0.9870 0.1609 -0.0000
vn -0.0103 0.9999 -0.0031
vn -0.0000 0.0033 1.0000
vn -0.0000 -0.0033 -1.0000
vn -0.0000 0.9523 -0.3052
vn -0.9998 -0.0224 -0.0000
vn -0.0000 0.9662 -0.2579
vt 0.577694 0.817113
vt 0.593605 0.817113
vt 0.125000 0.500000
vt 0.375000 0.500000
vt 0.375000 0.750000
vt 0.125000 0.750000
vt 0.387801 0.523698
vt 0.533498 0.524123
vt 0.533498 0.225877
vt 0.387801 0.226302
vt 0.844297 0.719297
vt 0.655703 0.719297
vt 0.388985 0.280703
vt 0.388985 0.469297
vt 0.375000 0.250000
vt 0.550702 0.280703
vt 0.546299 0.250000
vt 0.844297 0.506643
vt 0.571739 0.490334
vt 0.426662 0.473634
vt 0.467580 0.478344
vt 0.505077 0.482661
vt 0.539263 0.486596
vt 0.388985 0.280703
vt 0.550701 0.280703
vt 0.577908 0.280703
vt 0.602485 0.493874
vt 0.655703 0.500000
vt 0.844297 0.500000
vt 0.421856 0.280703
vt 0.521964 0.280703
vt 0.491713 0.280703
vt 0.458533 0.280703
vt 0.546299 0.500000
vt 0.533498 0.725923
vt 0.387801 0.726347
vt 0.387801 0.023653
vt 0.533498 0.024077
vt 0.546299 0.750000
vt 0.546299 1.000000
vt 0.375000 1.000000
vt 0.632201 0.497295
vt 0.604203 0.280703
vt 0.625000 0.280703
vt 0.633857 0.500000
vt 0.620857 0.500000
vt 0.629656 0.499834
vt 0.646846 0.500000
vt 0.642453 0.499642
vt 0.651021 0.499461
vt 0.625000 0.258857
vt 0.620966 0.258857
vt 0.621170 0.250000
vt 0.625000 0.271846
vt 0.621170 0.280703
vt 0.620966 0.271846
vt 0.636143 0.499080
vt 0.631750 0.498721
vt 0.640089 0.498203
vt 0.611183 0.500000
vt 0.619522 0.499481
vt 0.623722 0.499648
vt 0.611183 0.280703
vt 0.611183 0.271846
vt 0.615218 0.271846
vt 0.615218 0.258857
vt 0.611183 0.258857
vt 0.611183 0.250000
vt 0.658426 0.504742
vt 0.625000 0.505314
vt 0.633857 0.500000
vt 0.875000 0.505905
vt 0.853154 0.500000
vt 0.866143 0.500000
vt 0.875000 0.500000
vt 0.853154 0.500000
vt 0.631750 0.498721
vt 0.619522 0.499482
vt 0.611183 0.258857
vt 0.613364 0.249896
vt 0.611183 0.261342
vt 0.611183 0.261342
vt 0.642612 0.498602
vt 0.629411 0.498867
vt 0.629411 0.498867
vt 0.621861 0.499336
vt 0.621861 0.499336
vt 0.614367 0.500188
vt 0.611183 0.269361
vt 0.614790 0.280703
vt 0.610981 0.499982
vt 0.639841 0.498157
vt 0.629411 0.498867
vt 0.621861 0.499336
vt 0.610947 0.280703
vt 0.610980 0.250015
vt 0.611183 0.261342
vt 0.611183 0.269361
vt 0.629411 0.498866
vt 0.625000 0.750000
vt 0.634513 0.280703
vt 0.546299 0.000000
vt 0.625000 0.000000
vt 0.625000 0.245571
vt 0.577694 0.932887
vt 0.593605 0.932887
vt 0.625000 1.000000
vt 0.593605 0.817113
vt 0.593605 0.817113
vt 0.577694 0.817113
vt 0.588631 0.932887
vt 0.588631 0.817113
vt 0.582668 0.817113
vt 0.582668 0.932887
vt 0.375000 0.000000
vt 0.875000 0.750000
s 0
g flag_stand_Material
usemtl Material
f 131/3/2 134/4/2 137/5/2 132/6/2
f 140/7/3 139/8/3 141/9/3 10/10/3
f 16/11/4 15/12/4 4/12/4 3/11/4
f 14/13/5 13/14/5 134/4/5 131/15/5
f 22/16/5 14/13/5 131/15/5 135/17/5
f 16/11/6 44/18/6 150/18/6 146/11/6
f 21/19/7 13/14/7 37/14/7 6/14/7 35/20/7 33/21/7 31/22/7 29/23/7 24/19/7
f 14/13/1 22/16/1 23/25/1 30/31/1 32/32/1 34/33/1 36/30/1 5/13/1 38/24/1
f 13/14/5 21/19/5 133/34/5 134/4/5
f 110/35/12 1/36/12 2/37/12 107/38/12
f 137/5/13 136/39/13 138/40/13 132/41/13
f 40/70/36 46/69/36 147/69/36 148/70/36
f 46/69/37 15/12/37 145/12/37 147/69/37
f 44/18/1 16/11/1 3/11/1 8/29/1
f 46/69/7 7/28/7 4/12/7 15/12/7
f 87/80/39 88/81/39 89/82/39
f 102/98/45 103/82/45 104/68/45 101/63/45
f 80/92/7 21/19/7 24/19/7 27/27/7 25/42/7 7/28/7 46/69/7
f 21/19/5 80/92/5 82/91/5 133/34/5
f 109/100/1 136/39/1 133/34/1 82/91/1 40/70/1
f 22/16/1 84/95/1 44/101/1 8/44/1 26/43/1 28/26/1 23/25/1
f 86/96/5 84/95/5 22/16/5 135/17/5
f 138/102/7 108/103/7 42/104/7 86/96/7 135/17/7
f 17/105/49 12/106/49 108/107/49 138/40/49
f 12/106/49 11/2/49 109/100/49 108/107/49
f 11/2/49 20/1/49 136/39/49 109/100/49
f 20/1/49 17/105/49 138/40/49 136/39/49
f 113/2/10 112/106/10 118/106/10 115/108/10
f 111/105/10 114/1/10 120/110/10 121/105/10
f 2/37/7 142/10/7 131/15/7 132/115/7
f 139/8/54 140/7/54 134/4/54 133/34/54
f 10/10/55 141/9/55 135/17/55 131/15/55
f 1/36/56 110/35/56 136/39/56 137/5/56
f 9/7/1 1/36/1 137/5/1 134/4/1
f 107/38/57 2/37/57 132/115/57 138/102/57
f 110/35/1 18/8/1 133/34/1 136/39/1
f 19/9/7 107/38/7 138/102/7 135/17/7
f 142/10/10 2/37/10 1/36/10 9/7/10
f 18/8/2 110/35/2 107/38/2 19/9/2
f 145/12/10 146/11/10 144/116/10 143/100/10
f 147/69/58 145/12/58 143/100/58 148/70/58
f 146/11/10 150/18/10 149/72/10 144/116/10
f 109/100/6 40/70/6 148/70/6 143/100/6
f 108/107/59 109/100/59 143/100/59 144/107/59
f 15/12/60 16/11/60 146/11/60 145/12/60
f 44/18/61 42/72/61 149/72/61 150/18/61
f 42/104/62 108/103/62 144/103/62 149/104/62
f 131/15/63 142/10/63 10/10/63
f 134/4/63 140/7/63 9/7/63
g flag_stand_dark_grey
usemtl dark_grey
f 20/1/1 11/2/1 113/2/1 114/1/1
f 13/14/8 14/13/8 38/24/8 37/14/8
f 7/28/10 8/29/10 3/11/10 4/12/10
f 5/13/11 36/30/11 35/20/11 6/14/11
f 27/27/15 28/26/15 26/43/15 25/42/15
f 29/23/16 30/31/16 23/25/16 24/19/16
f 33/21/18 34/33/18 32/32/18 31/22/18
f 47/45/21 48/46/21 49/47/21
f 50/48/22 51/49/22 52/50/22
f 53/51/22 54/52/22 55/53/22
f 56/54/21 57/55/21 58/56/21
f 59/57/23 60/58/23 61/59/23
f 62/60/24 63/61/24 64/62/24
f 65/63/24 66/64/24 67/65/24
f 68/66/23 69/67/23 70/68/23
f 53/51/25 56/54/25 58/56/25 54/52/25
f 50/48/25 47/45/25 49/47/25 51/49/25
f 46/69/26 40/70/26 39/71/26 45/48/26
f 42/72/10 44/18/10 43/73/10 41/74/10
f 48/46/27 62/60/27 64/62/27 49/47/27
f 51/49/28 59/57/28 61/59/28 52/50/28
f 57/55/27 65/63/27 67/65/27 58/56/27
f 54/52/28 68/66/28 70/68/28 55/53/28
f 63/61/29 60/58/29 59/57/29 64/62/29
f 66/64/29 69/67/29 68/66/29 67/65/29
f 55/75/30 42/72/30 41/74/30 53/74/30
f 47/45/31 39/71/31 40/70/31 48/46/31
f 52/50/32 46/69/32 45/48/32 50/48/32
f 56/76/31 43/73/31 44/18/31 57/29/31
f 72/60/33 74/59/33 73/77/33 71/78/33
f 76/63/33 78/68/33 77/79/33 75/64/33
f 71/78/34 63/61/34 62/60/34 72/60/34
f 65/63/34 76/63/34 75/64/34 66/64/34
f 78/68/35 70/68/35 69/67/35 77/79/35
f 60/58/35 73/77/35 74/59/35 61/59/35
f 45/48/10 39/71/10 47/45/10 50/48/10
f 41/74/10 43/73/10 56/76/10 53/74/10
f 64/62/5 59/57/5 51/49/5 49/47/5
f 58/56/5 67/65/5 68/66/5 54/52/5
f 60/58/38 63/61/38 71/78/38 73/77/38
f 69/67/38 66/64/38 75/64/38 77/79/38
f 90/83/39 91/84/39 92/85/39
f 93/86/40 94/87/40 95/88/40
f 96/89/40 97/89/40 98/90/40
f 82/91/41 80/92/41 79/93/41 81/94/41
f 84/95/41 86/96/41 85/97/41 83/98/41
f 95/88/42 82/91/42 81/94/42 93/86/42
f 86/96/43 87/80/43 89/82/43 85/97/43
f 80/92/43 90/83/43 92/85/43 79/93/43
f 83/98/42 96/89/42 98/90/42 84/95/42
f 93/86/44 92/85/44 91/84/44 94/87/44
f 96/89/44 89/82/44 88/81/44 97/89/44
f 106/86/45 99/99/45 100/59/45 105/60/45
f 90/83/46 100/59/46 99/99/46 91/84/46
f 105/60/47 95/88/47 94/87/47 106/86/47
f 87/80/46 104/68/46 103/82/46 88/81/46
f 101/63/47 98/90/47 97/89/47 102/98/47
f 81/94/2 79/93/2 92/85/2 93/86/2
f 52/50/7 61/59/7 90/83/7 80/92/7 46/69/7
f 40/70/1 82/91/1 95/88/1 62/60/1 48/46/1
f 83/98/2 85/97/2 89/82/2 96/89/2
f 98/90/1 65/63/1 57/55/1 44/101/1 84/95/1
f 86/96/7 42/104/7 55/53/7 70/68/7 87/80/7
f 97/89/48 88/81/48 103/82/48 102/98/48
f 87/80/7 70/68/7 78/68/7 104/68/7
f 94/87/48 91/84/48 99/99/48 106/86/48
f 90/83/7 61/59/7 74/59/7 100/59/7
f 62/60/1 95/88/1 105/60/1 72/60/1
f 65/63/1 98/90/1 101/63/1 76/63/1
f 105/60/2 100/59/2 74/59/2 72/60/2
f 101/63/2 104/68/2 78/68/2 76/63/2
f 12/106/7 17/105/7 111/105/7 112/106/7
f 17/105/2 20/1/2 114/1/2 111/105/2
f 11/2/10 12/106/10 112/106/10 113/2/10
f 115/108/50 118/106/50 117/106/50 116/109/50
f 119/110/51 122/105/51 121/105/51 120/110/51
f 123/109/52 126/106/52 125/111/52 124/112/52
f 127/113/53 130/114/53 129/105/53 128/110/53
f 127/113/1 128/110/1 119/110/1 120/110/1 114/1/1 113/2/1 115/108/1 116/109/1 123/109/1 124/112/1
f 117/106/10 126/106/10 123/109/10 116/109/10
f 125/111/7 126/106/7 117/106/7 118/106/7 112/106/7 111/105/7 121/105/7 122/105/7 129/105/7 130/114/7
f 119/110/2 128/110/2 129/105/2 122/105/2
f 127/113/49 124/112/49 125/111/49 130/114/49
g flag_stand_yellow
usemtl yellow
f 23/25/9 28/26/9 27/27/9 24/19/9
f 25/42/14 26/43/14 8/44/14 7/28/14
f 31/22/17 32/32/17 30/31/17 29/23/17
f 35/20/19 36/30/19 34/33/19 33/21/19
f 37/14/20 38/24/20 5/13/20 6/14/20
