# Split from 'Forest Pack FonSoul.obj' (Low-Poly Mini Forest Pack FonSoul), object 'Tree.002', recentered to local origin
g forest_tree_3_obj_0
v -0.863389 12.951392 1.371066
v -0.343060 12.951392 1.470298
v -0.231771 13.179651 0.966758
v -0.784743 12.073846 0.538554
v -0.880902 12.429999 1.462893
v -0.708413 13.179651 0.693022
v -0.479436 12.878460 0.294314
v -0.887525 7.074181 -0.188138
v -0.848258 8.431857 0.754790
v -0.848258 8.511388 0.064296
v -0.002793 12.878460 0.568045
v -0.216708 12.073846 0.538554
v -0.113927 7.074181 -0.188138
v -0.153193 8.431857 0.754790
v -0.113927 6.932657 0.572402
v -0.147313 7.460302 -0.506753
v -0.854138 7.460302 -0.506753
v -0.784743 12.008849 1.102854
v -1.425084 16.370338 5.164294
v -1.687093 16.328953 5.320105
v -1.476773 16.343056 5.373824
v -0.153193 8.511388 0.064296
v -0.854138 8.158049 -0.393823
v -0.887525 6.932657 0.572402
v -0.397500 12.310205 -6.253099
v -0.603951 12.236865 -6.446080
v -0.603951 12.310205 -6.253099
v 0.400725 19.837820 -0.761979
v 0.310861 19.832933 -1.080278
v 0.196774 19.828890 -0.876134
v 0.392652 -0.024499 -0.868402
v -1.394103 0.024499 0.917685
v -1.394103 -0.024499 -0.868402
v -0.216708 12.008849 1.102854
v -0.360574 12.429999 1.562129
v -0.147313 8.158049 -0.393823
v -1.035850 13.469008 4.817813
v -1.098548 13.181796 5.113887
v -1.504701 13.172477 5.018836
v -1.442002 13.459689 4.722762
v -1.635404 16.356236 5.110572
v 0.417371 15.652766 -1.274530
v 0.514812 19.841864 -0.966123
v 0.901170 15.662908 -1.002057
v 0.636912 15.817060 -0.538579
v 0.153111 15.806918 -0.811052
v -0.194585 8.771248 -4.734994
v -0.806867 8.771248 -4.734994
v -0.806867 8.296715 -5.121915
v -0.397500 12.236865 -6.446080
v -0.194585 8.296715 -5.121915
v -1.007449 3.752114 0.096801
v -1.007449 3.787217 -0.916036
v 0.005998 3.787217 -0.916036
v 0.005998 3.752114 0.096801
v 0.392652 0.024499 0.917685
v 0.143180 16.644648 -1.225271
v -1.909802 16.082943 2.152472
v -4.496936 15.946650 -1.204236
v 0.180705 15.694344 -4.712419
v -5.129642 20.052685 1.289756
v 2.119992 17.440115 -6.980439
v 0.607905 20.941780 -8.199994
v 6.032601 20.515017 -3.368310
v 5.219188 16.811657 -1.555597
v 4.422614 19.836088 2.158141
v -5.689603 20.780815 -4.433965
v -3.993222 17.243805 -5.710275
v 5.283275 23.317160 -1.320962
v 2.108136 23.744860 -6.895116
v 1.686210 26.233276 -3.628923
v 1.175696 23.052465 3.622348
v -0.201898 25.957489 0.933276
v -4.538051 23.316599 1.103377
v -3.961793 23.744522 -5.396787
v -1.516397 26.427999 -2.346105
v -0.618081 19.425926 4.535041
v 1.073825 16.549950 3.353057
v -1.482236 15.104708 4.901633
v 0.931933 15.119040 5.457919
v -0.517390 14.838489 7.636029
v -3.435445 14.222793 5.563533
v 0.680928 17.592878 7.498582
v -5.289513 15.033684 4.851146
v -6.032601 17.130825 5.957785
v -4.214889 17.093594 1.824252
v -2.662135 15.003624 1.973803
v -0.621917 17.203951 1.702353
v -2.616082 17.570871 8.937188
v -3.360320 15.232788 8.207555
v -3.134944 19.013741 1.850405
v -5.816405 18.910486 4.802768
v -4.059659 20.730751 4.400889
v 0.558219 19.414871 3.311072
v -1.012685 21.015877 4.627917
v 0.159278 19.559549 7.166161
v -3.780461 19.247822 8.088095
v -2.716321 21.070332 6.037356
v 1.766860 17.329157 4.212863
v 1.017779 15.404939 3.463458
v -0.797128 10.576358 -4.910119
v 1.133239 10.048605 -6.370610
v 1.953647 10.751143 -3.971284
v -1.463077 10.480305 -2.770448
v 2.514972 12.925763 -5.970647
v -3.191049 11.573608 -2.121289
v -2.837220 14.004374 -1.745759
v -4.956435 12.407699 -5.399675
v -3.823197 10.073475 -5.661500
v -2.831506 11.463655 -8.143750
v 1.604579 14.201947 -2.732919
v 0.632613 12.064180 -1.714036
v -4.318017 13.885511 -6.903810
v -3.656941 15.296631 -3.231065
v -2.933087 16.382225 -5.435273
v -0.896302 13.583632 -8.937188
v -0.876710 15.842652 -7.648206
v 1.879508 14.808187 -6.521177
v 0.173350 15.866883 -2.994584
v -0.825944 16.731956 -5.623750
v 0.614425 11.541410 -8.523343
v -0.386930 9.782862 -7.668863
vt 0.367187 0.371094
vt 0.308534 0.556465
vt 0.315540 0.650652
vt 0.288988 0.649749
vt 0.255253 0.555507
vt 0.275487 0.649507
vt 0.242163 0.617979
vt 0.295905 0.744359
vt 0.189293 0.679736
vt 0.202663 0.742683
vt 0.149382 0.741725
vt 0.136012 0.678778
vt 0.109421 0.741007
vt 0.255944 0.743641
vt 0.242574 0.680693
vt 0.136112 0.804193
vt 0.189393 0.805151
vt 0.176484 0.867626
vt 0.096331 0.803478
vt 0.109882 0.866429
vt 0.295955 0.807067
vt 0.349237 0.808024
vt 0.336327 0.870500
vt 0.242674 0.806109
vt 0.276410 0.900351
vt 0.216445 0.868345
vt 0.236629 0.899636
vt 0.296366 0.869781
vt 0.136523 0.866908
vt 0.123434 0.929380
vt 0.335866 0.745077
vt 0.349137 0.682609
vt 0.375827 0.745795
vt 0.388917 0.683324
vt 0.348725 0.619894
vt 0.368682 0.589324
vt 0.202202 0.617260
vt 0.142057 0.585251
vt 0.162241 0.616542
vn -0.0759 0.9144 0.3977
vn -0.9940 0.0142 -0.1089
vn -0.1616 0.9459 0.2815
vn -0.8116 0.1354 -0.5684
vn -0.9996 0.0268 0.0031
vn 0.9089 0.2657 0.3213
vn -0.0000 -0.2905 -0.9569
vn 0.9997 0.0256 0.0048
vn -0.0000 -0.6365 -0.7713
vn -0.9788 -0.2035 -0.0234
vn -0.0934 0.9900 0.1059
vn -0.0000 0.7918 -0.6107
vn -0.0000 -0.1208 0.9927
vn -0.0000 0.9348 -0.3552
vn -0.0418 0.9991 -0.0035
vn -0.0000 -0.9996 0.0274
vn -0.0000 -0.7370 0.6759
vn -0.1405 -0.6617 0.7365
vn 0.9360 0.0303 0.3506
vn 0.9961 0.0141 -0.0873
vn -0.9995 0.0290 -0.0095
vn 0.9663 -0.2558 -0.0295
vn 0.9530 0.0902 0.2893
vn -0.2394 -0.1059 0.9651
vn -0.9694 -0.0321 -0.2433
vn 0.2223 0.1450 -0.9641
vn 0.4892 0.0527 -0.8706
vn 0.8696 0.0782 0.4875
vn -0.4890 0.0194 0.8721
vn -0.8686 0.0009 -0.4955
vn -0.4185 0.5502 0.7226
vn 0.8684 -0.0023 0.4959
vn 0.4173 -0.5458 -0.7266
vn -0.8673 -0.0005 -0.4977
vn -0.0000 0.3942 0.9190
vn -0.9983 0.0364 -0.0447
vn -0.0000 -0.3186 -0.9479
vn 0.9986 0.0492 -0.0187
vn -0.0000 0.9902 0.1399
vn 0.9999 0.0073 -0.0089
vn -0.0000 -0.9840 -0.1783
vn -0.9999 0.0017 -0.0106
vn -0.9993 0.0362 0.0013
vn -0.0000 0.2162 -0.9763
vn 0.9993 0.0367 0.0068
vn -0.0000 -0.1479 0.9890
vn 0.9998 0.0176 0.0020
vn -0.0000 0.1320 -0.9913
vn -0.9998 0.0176 0.0020
vn -0.0000 -0.0968 0.9953
vn -0.0000 0.2151 0.9766
vn 0.9949 0.1010 0.0035
vn -0.0000 -0.0125 -0.9999
vn -0.9947 0.1026 -0.0028
vn 0.9793 0.0027 0.2023
vn -0.0248 -0.9791 0.2021
vn -0.9834 0.0303 -0.1788
vn 0.0277 0.9890 -0.1452
vn 0.1480 -0.9862 -0.0740
vn 0.1447 -0.9543 0.2616
vn -0.6999 -0.4465 0.5575
vn 0.6661 0.0280 -0.7454
vn 0.9597 -0.0787 0.2699
vn -0.9784 -0.1939 0.0711
vn -0.5134 0.0626 -0.8559
vn 0.7161 0.5967 -0.3621
vn 0.5328 0.6970 0.4800
vn -0.3119 0.5615 0.7664
vn -0.7279 0.6854 -0.0194
vn -0.1510 0.7768 -0.6113
vn -0.1777 0.8052 -0.5658
vn -0.4853 0.8169 0.3117
vn 0.1009 0.9897 0.1016
vn 0.5031 0.8248 0.2581
vn -0.2073 0.5019 -0.8397
vn -0.5135 0.0207 -0.8578
vn -0.8693 0.4923 -0.0447
vn -0.9758 0.1836 0.1188
vn -0.3563 0.3899 0.8491
vn 0.6858 0.4226 0.5925
vn 0.9574 0.0479 0.2848
vn 0.7694 0.4980 -0.4000
vn 0.6647 -0.0080 -0.7470
vn -0.9092 -0.3618 -0.2058
vn -0.5638 0.1486 0.8125
vn -0.5832 -0.3098 0.7509
vn -0.2573 -0.4929 0.8311
vn 0.4253 0.0174 0.9049
vn 0.4313 -0.1141 0.8950
vn 0.6778 -0.4922 0.5462
vn 0.7714 -0.4083 -0.4880
vn -0.1752 -0.3904 -0.9038
vn -0.2700 -0.9168 -0.2941
vn 0.1764 -0.9827 -0.0562
vn 0.0311 -0.9992 -0.0270
vn -0.1146 -0.7374 -0.6656
vn 0.0488 -0.9635 0.2631
vn 0.3941 -0.8598 -0.3248
vn 0.0307 -0.9937 -0.1076
vn 0.3424 -0.9158 -0.2100
vn 0.8059 -0.3259 0.4943
vn -0.9100 -0.1118 -0.3992
vn -0.0309 -0.0941 -0.9951
vn 0.3974 -0.1275 0.9088
vn -0.6550 -0.0271 0.7551
vn -0.6495 0.5005 -0.5724
vn 0.1835 0.7256 -0.6632
vn 0.7333 0.6780 0.0504
vn 0.1050 0.7157 0.6905
vn -0.6428 0.6926 0.3272
vn -0.5960 0.7284 0.3381
vn 0.3218 0.8777 0.3550
vn -0.0821 0.9871 -0.1374
vn -0.0348 0.8231 -0.5668
vn -0.7993 0.3924 0.4551
vn -0.6506 -0.0688 0.7563
vn 0.1534 0.5291 0.8346
vn 0.3856 0.2523 0.8875
vn 0.8501 0.5222 0.0684
vn 0.2826 0.4612 -0.8411
vn -0.0349 0.0332 -0.9988
vn -0.6870 0.3947 -0.6101
vn -0.9059 -0.1476 -0.3970
vn 0.1407 -0.3355 0.9315
vn 0.9154 0.2900 0.2793
vn 0.9314 -0.1707 0.3215
vn 0.9333 -0.3589 -0.0113
vn 0.7165 0.1179 -0.6876
vn 0.7247 -0.0138 -0.6889
vn 0.3769 -0.4494 -0.8100
vn -0.6362 -0.5138 -0.5755
vn -0.7374 -0.5006 0.4535
vn -0.0574 -0.9321 0.3577
vn 0.0382 -0.9894 -0.1402
vn 0.1129 -0.9935 -0.0112
vn -0.4810 -0.8144 0.3248
vn 0.3747 -0.9194 -0.1193
vn -0.2996 -0.9168 -0.2640
vn -0.0394 -0.9553 0.2932
vn 0.0711 -0.9972 -0.0226
vn 0.8953 -0.4039 -0.1879
vn -0.8736 0.0524 0.4838
vn -0.7978 -0.3308 -0.5040
vn 0.9627 0.0003 0.2706
vn 0.1882 0.3515 0.9171
vn -0.8645 0.5013 -0.0370
vn -0.4262 0.4511 -0.7841
vn 0.4756 0.4328 -0.7658
vn 0.5882 0.8076 0.0421
vn -0.1591 0.9054 0.3937
vn -0.1225 0.9280 0.3519
vn 0.4548 0.8111 -0.3677
vn -0.1846 0.9015 -0.3914
vn -0.4881 0.6275 -0.6066
vn -0.1477 0.7043 0.6943
vn 0.1929 0.3120 0.9303
vn 0.7362 0.6578 0.1587
vn 0.9287 0.3496 0.1233
vn 0.5660 0.2602 -0.7822
vn -0.4976 0.1334 -0.8571
vn -0.8066 -0.2128 -0.5514
vn -0.9145 0.4044 0.0092
vn -0.8684 0.0187 0.4955
vn 0.8272 -0.1138 0.5503
vn 0.7781 0.0805 -0.6230
vn 0.8333 -0.3395 -0.4363
vn 0.5781 -0.5986 -0.5544
vn -0.0995 -0.2678 -0.9583
vn -0.0920 -0.3923 -0.9152
vn -0.3908 -0.7277 -0.5637
vn -0.8320 -0.4416 0.3357
vn -0.0871 -0.1397 0.9864
vn 0.2698 -0.7553 0.5973
vn -0.0604 -0.9616 0.2676
vn 0.0872 -0.9539 0.2873
vn -0.0213 -0.5351 0.8445
vn 0.1624 -0.9867 0.0063
vn -0.3685 -0.8305 0.4177
vn -0.9769 0.0942 -0.1916
vn -0.9997 0.0256 0.0048
vn 0.9996 0.0268 0.0031
vn 0.9450 -0.0322 0.3256
vn 0.9995 0.0290 -0.0095
vn -0.9961 0.0141 -0.0873
vn 0.4955 -0.1001 -0.8628
vn 0.9630 0.0993 0.2505
vn -0.2243 -0.1065 0.9687
vn -0.9707 -0.0334 -0.2379
vn 0.2358 0.1444 -0.9610
vn 0.4860 0.0529 -0.8724
vn 0.8769 0.0770 0.4744
vn -0.4909 0.0196 0.8710
vn -0.8729 0.0016 -0.4878
vn -0.4157 0.5507 0.7238
vn 0.8669 -0.0010 0.4986
vn 0.4200 -0.5454 -0.7254
vn -0.8686 0.0006 -0.4955
vn -0.9986 0.0492 -0.0187
vn 0.9983 0.0364 -0.0447
vn 0.9999 0.0017 -0.0106
vn -0.9999 0.0073 -0.0089
vn -0.9993 0.0367 0.0068
vn 0.9993 0.0362 0.0013
vn 0.9947 0.1026 -0.0028
vn -0.9949 0.1010 0.0035
vn 0.9789 -0.0033 0.2041
vn -0.0377 -0.9795 0.1979
vn -0.9853 0.0031 -0.1706
vn 0.0125 0.9886 -0.1503
f 1/1/1 2/1/1 3/1/1
f 1/1/2 4/1/2 5/1/2
f 1/1/3 3/1/3 6/1/3
f 7/1/4 4/1/4 6/1/4
f 8/1/5 9/1/5 10/1/5
f 2/1/6 11/1/6 3/1/6
f 12/1/7 4/1/7 7/1/7
f 13/1/8 14/1/8 15/1/8
f 16/1/9 8/1/9 17/1/9
f 18/1/10 5/1/10 4/1/10
f 19/1/11 20/1/11 21/1/11
f 22/1/12 23/1/12 10/1/12
f 15/1/13 9/1/13 24/1/13
f 25/1/14 26/1/14 27/1/14
f 28/1/15 29/1/15 30/1/15
f 31/1/16 32/1/16 33/1/16
f 34/1/17 35/1/17 18/1/17
f 35/1/18 5/1/18 18/1/18
f 35/1/19 11/1/19 2/1/19
f 36/1/20 13/1/20 16/1/20
f 23/1/21 8/1/21 10/1/21
f 12/1/22 11/1/22 34/1/22
f 37/1/23 21/1/23 38/1/23
f 39/1/24 21/1/24 20/1/24
f 40/1/25 20/1/25 41/1/25
f 40/1/26 19/1/26 37/1/26
f 42/1/27 43/1/27 44/1/27
f 45/1/28 43/1/28 28/1/28
f 46/1/29 28/1/29 30/1/29
f 46/1/30 29/1/30 42/1/30
f 46/1/31 3/1/31 45/1/31
f 45/1/32 11/1/32 44/1/32
f 42/1/33 11/1/33 7/1/33
f 46/1/34 7/1/34 6/1/34
f 47/1/35 27/1/35 48/1/35
f 48/1/36 26/1/36 49/1/36
f 49/1/37 50/1/37 51/1/37
f 47/1/38 50/1/38 25/1/38
f 48/1/39 36/1/39 47/1/39
f 47/1/40 16/1/40 51/1/40
f 51/1/41 17/1/41 49/1/41
f 48/1/42 17/1/42 23/1/42
f 52/1/43 8/1/43 53/1/43
f 53/1/44 13/1/44 54/1/44
f 55/1/45 13/1/45 15/1/45
f 55/1/46 24/1/46 52/1/46
f 34/1/47 22/1/47 12/1/47
f 12/1/48 10/1/48 4/1/48
f 4/1/49 9/1/49 18/1/49
f 18/1/50 14/1/50 34/1/50
f 52/1/51 56/1/51 55/1/51
f 55/1/52 31/1/52 54/1/52
f 54/1/53 33/1/53 53/1/53
f 52/1/54 33/1/54 32/1/54
f 37/1/55 35/1/55 2/1/55
f 39/1/56 35/1/56 38/1/56
f 40/1/57 5/1/57 39/1/57
f 40/1/58 2/1/58 1/1/58
f 57/2/59 58/3/59 59/4/59
f 57/5/60 59/6/60 60/7/60
f 59/4/61 58/3/61 61/8/61
f 62/9/62 63/10/62 64/11/62
f 65/12/63 64/11/63 66/13/63
f 59/4/64 61/8/64 67/14/64
f 68/15/65 67/14/65 63/10/65
f 69/16/66 70/17/66 71/18/66
f 72/19/67 69/16/67 73/20/67
f 74/21/68 72/22/68 73/23/68
f 75/24/69 74/21/69 76/25/69
f 70/17/70 75/24/70 71/26/70
f 71/26/71 75/24/71 76/27/71
f 76/25/72 74/21/72 73/28/72
f 73/20/73 71/29/73 76/30/73
f 73/20/74 69/16/74 71/29/74
f 63/10/75 75/24/75 70/17/75
f 63/10/76 67/14/76 75/24/76
f 67/14/77 74/21/77 75/24/77
f 67/14/78 61/8/78 74/21/78
f 77/31/79 72/22/79 74/21/79
f 66/13/80 69/16/80 72/19/80
f 66/13/81 64/11/81 69/16/81
f 64/11/82 70/17/82 69/16/82
f 64/11/83 63/10/83 70/17/83
f 68/15/84 59/4/84 67/14/84
f 61/8/85 77/31/85 74/21/85
f 61/8/86 58/3/86 77/31/86
f 58/3/87 78/32/87 77/31/87
f 77/31/88 66/33/88 72/22/88
f 77/31/89 78/32/89 66/33/89
f 78/32/90 65/34/90 66/33/90
f 65/12/91 62/9/91 64/11/91
f 62/9/92 68/15/92 63/10/92
f 60/7/93 59/6/93 68/15/93
f 58/35/94 57/36/94 78/32/94
f 57/36/95 65/34/95 78/32/95
f 62/9/96 60/37/96 68/15/96
f 57/38/97 60/39/97 65/12/97
f 60/39/98 62/9/98 65/12/98
f 79/2/99 80/3/99 81/4/99
f 79/5/100 81/6/100 82/7/100
f 81/4/101 80/3/101 83/8/101
f 84/9/102 85/10/102 86/11/102
f 87/12/103 86/11/103 88/13/103
f 81/4/104 83/8/104 89/14/104
f 90/15/105 89/14/105 85/10/105
f 91/16/106 92/17/106 93/18/106
f 94/19/107 91/16/107 95/20/107
f 96/21/108 94/22/108 95/23/108
f 97/24/109 96/21/109 98/25/109
f 92/17/110 97/24/110 93/26/110
f 93/26/111 97/24/111 98/27/111
f 98/25/112 96/21/112 95/28/112
f 95/20/113 93/29/113 98/30/113
f 95/20/114 91/16/114 93/29/114
f 85/10/115 97/24/115 92/17/115
f 85/10/116 89/14/116 97/24/116
f 89/14/117 96/21/117 97/24/117
f 89/14/118 83/8/118 96/21/118
f 99/31/119 94/22/119 96/21/119
f 88/13/120 91/16/120 94/19/120
f 88/13/121 86/11/121 91/16/121
f 86/11/122 92/17/122 91/16/122
f 86/11/123 85/10/123 92/17/123
f 90/15/124 81/4/124 89/14/124
f 83/8/125 99/31/125 96/21/125
f 83/8/126 80/3/126 99/31/126
f 80/3/127 100/32/127 99/31/127
f 99/31/128 88/33/128 94/22/128
f 99/31/129 100/32/129 88/33/129
f 100/32/130 87/34/130 88/33/130
f 87/12/131 84/9/131 86/11/131
f 84/9/132 90/15/132 85/10/132
f 82/7/133 81/6/133 90/15/133
f 80/35/134 79/36/134 100/32/134
f 79/36/135 87/34/135 100/32/135
f 84/9/136 82/37/136 90/15/136
f 79/38/137 82/39/137 87/12/137
f 82/39/138 84/9/138 87/12/138
f 101/2/139 102/3/139 103/4/139
f 101/5/140 103/6/140 104/7/140
f 103/4/141 102/3/141 105/8/141
f 106/9/142 107/10/142 108/11/142
f 109/12/143 108/11/143 110/13/143
f 103/4/144 105/8/144 111/14/144
f 112/15/145 111/14/145 107/10/145
f 113/16/146 114/17/146 115/18/146
f 116/19/147 113/16/147 117/20/147
f 118/21/148 116/22/148 117/23/148
f 119/24/149 118/21/149 120/25/149
f 114/17/150 119/24/150 115/26/150
f 115/26/151 119/24/151 120/27/151
f 120/25/152 118/21/152 117/28/152
f 117/20/153 115/29/153 120/30/153
f 117/20/154 113/16/154 115/29/154
f 107/10/155 119/24/155 114/17/155
f 107/10/156 111/14/156 119/24/156
f 111/14/157 118/21/157 119/24/157
f 111/14/158 105/8/158 118/21/158
f 121/31/159 116/22/159 118/21/159
f 110/13/160 113/16/160 116/19/160
f 110/13/161 108/11/161 113/16/161
f 108/11/162 114/17/162 113/16/162
f 108/11/163 107/10/163 114/17/163
f 112/15/164 103/4/164 111/14/164
f 105/8/165 121/31/165 118/21/165
f 105/8/166 102/3/166 121/31/166
f 102/3/167 122/32/167 121/31/167
f 121/31/168 110/33/168 116/22/168
f 121/31/169 122/32/169 110/33/169
f 122/32/170 109/34/170 110/33/170
f 109/12/171 106/9/171 108/11/171
f 106/9/172 112/15/172 107/10/172
f 104/7/173 103/6/173 112/15/173
f 102/35/174 101/36/174 122/32/174
f 101/36/175 109/34/175 122/32/175
f 106/9/176 104/37/176 112/15/176
f 101/38/177 104/39/177 109/12/177
f 104/39/178 106/9/178 109/12/178
f 1/1/179 6/1/179 4/1/179
f 8/1/180 24/1/180 9/1/180
f 13/1/181 22/1/181 14/1/181
f 16/1/9 13/1/9 8/1/9
f 19/1/11 41/1/11 20/1/11
f 22/1/12 36/1/12 23/1/12
f 15/1/13 14/1/13 9/1/13
f 25/1/14 50/1/14 26/1/14
f 28/1/15 43/1/15 29/1/15
f 31/1/16 56/1/16 32/1/16
f 35/1/182 34/1/182 11/1/182
f 36/1/183 22/1/183 13/1/183
f 23/1/184 17/1/184 8/1/184
f 12/1/185 7/1/185 11/1/185
f 37/1/186 19/1/186 21/1/186
f 39/1/187 38/1/187 21/1/187
f 40/1/188 39/1/188 20/1/188
f 40/1/189 41/1/189 19/1/189
f 42/1/190 29/1/190 43/1/190
f 45/1/191 44/1/191 43/1/191
f 46/1/192 45/1/192 28/1/192
f 46/1/193 30/1/193 29/1/193
f 46/1/194 6/1/194 3/1/194
f 45/1/195 3/1/195 11/1/195
f 42/1/196 44/1/196 11/1/196
f 46/1/197 42/1/197 7/1/197
f 47/1/35 25/1/35 27/1/35
f 48/1/198 27/1/198 26/1/198
f 49/1/37 26/1/37 50/1/37
f 47/1/199 51/1/199 50/1/199
f 48/1/39 23/1/39 36/1/39
f 47/1/200 36/1/200 16/1/200
f 51/1/41 16/1/41 17/1/41
f 48/1/201 49/1/201 17/1/201
f 52/1/202 24/1/202 8/1/202
f 53/1/44 8/1/44 13/1/44
f 55/1/203 54/1/203 13/1/203
f 55/1/46 15/1/46 24/1/46
f 34/1/47 14/1/47 22/1/47
f 12/1/48 22/1/48 10/1/48
f 4/1/49 10/1/49 9/1/49
f 18/1/50 9/1/50 14/1/50
f 52/1/51 32/1/51 56/1/51
f 55/1/204 56/1/204 31/1/204
f 54/1/53 31/1/53 33/1/53
f 52/1/205 53/1/205 33/1/205
f 37/1/206 38/1/206 35/1/206
f 39/1/207 5/1/207 35/1/207
f 40/1/208 1/1/208 5/1/208
f 40/1/209 37/1/209 2/1/209
