# Split from 'Forest Pack FonSoul.obj' (Low-Poly Mini Forest Pack FonSoul), object 'Mushroom', recentered to local origin
g forest_mushroom_1_obj_0
v -0.177157 0.036224 -0.157894
v 0.138633 0.036224 0.157896
v -0.177157 0.036224 0.157896
v 0.283969 0.279944 -0.303230
v 0.107910 1.563760 0.127172
v 0.283969 0.279944 0.303232
v -0.322493 0.279944 0.303232
v 0.138633 0.036224 -0.157894
v -0.322493 0.279944 -0.303230
v -0.146435 1.563760 -0.127173
v -0.146435 1.563760 0.127172
v 0.107910 1.563760 -0.127173
v 0.722952 1.387103 0.000000
v 0.456140 1.601634 0.449846
v 0.511205 1.387103 0.511206
v 0.000000 1.387103 0.722952
v -0.435497 1.601634 0.449846
v -0.511204 1.387103 0.511206
v -0.511204 1.387104 -0.511204
v -0.620162 1.601634 0.004026
v -0.435497 1.601634 -0.441792
v 0.511205 1.387104 -0.511204
v 0.640805 1.601634 0.004026
v 0.010321 1.601634 0.634510
v -0.722952 1.387103 0.000000
v 0.000000 1.387104 -0.722952
v 0.010321 1.601634 -0.626457
v 0.456140 1.601634 -0.441792
v 0.448904 1.742879 -0.003964
v 0.028078 1.742879 0.416862
v -0.269491 1.742879 0.293606
v -0.392748 1.742879 -0.003964
v -0.269491 1.742879 -0.301533
v 0.028078 1.742879 -0.424790
v 0.325647 1.742879 -0.301533
v 0.325647 1.742879 0.293606
v -0.115343 1.807907 0.187237
v -0.192769 1.807907 0.000315
v -0.115343 1.807907 -0.186607
v 0.258502 1.807907 -0.186607
v 0.335927 1.807907 0.000315
v 0.071579 1.807907 0.264664
v 0.071579 1.807907 -0.264032
v 0.258502 1.807907 0.187237
v -0.658123 1.171723 0.004816
v -0.471005 1.171723 0.456558
v -0.019262 1.171724 -0.634045
v -0.471005 1.171723 -0.446926
v 0.432481 1.171723 -0.446926
v 0.619598 1.171723 0.004816
v -0.019262 1.171723 0.643677
v 0.432480 1.171723 0.456558
vt 0.891500 0.323916
vt 0.891380 0.324036
vt 0.891500 0.324036
vt 0.891380 0.323916
vt 0.040202 0.438045
vn -0.0000 -1.0000 -0.0000
vn 0.9907 0.1359 -0.0000
vn -0.0000 -0.5122 0.8589
vn 0.8589 -0.5122 -0.0000
vn -0.8589 -0.5122 -0.0000
vn -0.0000 -0.5122 -0.8589
vn -0.0000 1.0000 -0.0000
vn -0.9907 0.1359 -0.0000
vn -0.0000 0.1359 -0.9907
vn -0.0000 0.1359 0.9907
vn 0.8729 0.3275 0.3616
vn -0.3554 0.3708 0.8580
vn -0.8426 0.4103 -0.3490
vn 0.8690 0.3395 -0.3600
vn 0.3598 0.3408 0.8686
vn -0.8470 0.3993 0.3509
vn -0.3511 0.3981 -0.8475
vn 0.3557 0.3691 -0.8586
vn 0.5818 0.7768 -0.2410
vn 0.2250 0.8088 0.5433
vn -0.5103 0.8336 0.2114
vn -0.2259 0.8071 -0.5454
vn 0.2366 0.7859 -0.5713
vn 0.5696 0.7873 0.2360
vn -0.2151 0.8271 0.5192
vn -0.5207 0.8261 -0.2157
vn -0.1462 0.9241 0.3530
vn -0.3043 0.9442 -0.1261
vn 0.4831 0.8524 -0.2001
vn 0.1778 0.8856 0.4292
vn -0.3092 0.9423 0.1281
vn -0.1402 0.9305 -0.3385
vn 0.1692 0.8969 -0.4086
vn 0.4941 0.8450 0.2047
vn -0.8920 -0.2602 0.3695
vn -0.3615 -0.3279 -0.8728
vn 0.3534 -0.3838 -0.8531
vn 0.8473 -0.3987 0.3509
vn -0.3660 -0.2925 0.8835
vn -0.8881 -0.2755 -0.3679
vn 0.8419 -0.4118 -0.3487
vn 0.3584 -0.3505 0.8653
f 1/1/1 2/2/1 3/3/1
f 4/4/2 5/2/2 6/2/2
f 3/3/3 6/2/3 7/3/3
f 8/4/4 6/2/4 2/2/4
f 1/1/5 7/3/5 9/1/5
f 1/1/6 4/4/6 8/4/6
f 5/2/7 10/1/7 11/3/7
f 9/1/8 11/3/8 10/1/8
f 9/1/9 12/4/9 4/4/9
f 7/3/10 5/2/10 11/3/10
f 13/5/11 14/5/11 15/5/11
f 16/5/12 17/5/12 18/5/12
f 19/5/13 20/5/13 21/5/13
f 22/5/14 23/5/14 13/5/14
f 15/5/15 24/5/15 16/5/15
f 25/5/16 17/5/16 20/5/16
f 26/5/17 21/5/17 27/5/17
f 22/5/18 27/5/18 28/5/18
f 28/5/19 29/5/19 23/5/19
f 14/5/20 30/5/20 24/5/20
f 20/5/21 31/5/21 32/5/21
f 27/5/22 33/5/22 34/5/22
f 28/5/23 34/5/23 35/5/23
f 23/5/24 36/5/24 14/5/24
f 24/5/25 31/5/25 17/5/25
f 21/5/26 32/5/26 33/5/26
f 30/5/27 37/5/27 31/5/27
f 33/5/28 38/5/28 39/5/28
f 29/5/29 40/5/29 41/5/29
f 36/5/30 42/5/30 30/5/30
f 31/5/31 38/5/31 32/5/31
f 34/5/32 39/5/32 43/5/32
f 35/5/33 43/5/33 40/5/33
f 29/5/34 44/5/34 36/5/34
f 42/5/7 41/5/7 43/5/7
f 43/5/7 39/5/7 42/5/7
f 39/5/7 38/5/7 42/5/7
f 38/5/7 37/5/7 42/5/7
f 42/5/7 44/5/7 41/5/7
f 41/5/7 40/5/7 43/5/7
f 18/5/35 45/5/35 46/5/35
f 19/5/36 47/5/36 48/5/36
f 26/5/37 49/5/37 47/5/37
f 15/5/38 50/5/38 13/5/38
f 18/5/39 51/5/39 16/5/39
f 25/5/40 48/5/40 45/5/40
f 13/5/41 49/5/41 22/5/41
f 16/5/42 52/5/42 15/5/42
f 50/5/1 51/5/1 45/5/1
f 45/5/1 48/5/1 47/5/1
f 47/5/1 49/5/1 50/5/1
f 50/5/1 52/5/1 51/5/1
f 51/5/1 46/5/1 45/5/1
f 45/5/1 47/5/1 50/5/1
f 1/1/1 8/4/1 2/2/1
f 4/4/2 12/4/2 5/2/2
f 3/3/3 2/2/3 6/2/3
f 8/4/4 4/4/4 6/2/4
f 1/1/5 3/3/5 7/3/5
f 1/1/6 9/1/6 4/4/6
f 5/2/7 12/4/7 10/1/7
f 9/1/8 7/3/8 11/3/8
f 9/1/9 10/1/9 12/4/9
f 7/3/10 6/2/10 5/2/10
f 13/5/11 23/5/11 14/5/11
f 16/5/12 24/5/12 17/5/12
f 19/5/13 25/5/13 20/5/13
f 22/5/14 28/5/14 23/5/14
f 15/5/15 14/5/15 24/5/15
f 25/5/16 18/5/16 17/5/16
f 26/5/17 19/5/17 21/5/17
f 22/5/18 26/5/18 27/5/18
f 28/5/19 35/5/19 29/5/19
f 14/5/20 36/5/20 30/5/20
f 20/5/21 17/5/21 31/5/21
f 27/5/22 21/5/22 33/5/22
f 28/5/23 27/5/23 34/5/23
f 23/5/24 29/5/24 36/5/24
f 24/5/25 30/5/25 31/5/25
f 21/5/26 20/5/26 32/5/26
f 30/5/27 42/5/27 37/5/27
f 33/5/28 32/5/28 38/5/28
f 29/5/29 35/5/29 40/5/29
f 36/5/30 44/5/30 42/5/30
f 31/5/31 37/5/31 38/5/31
f 34/5/32 33/5/32 39/5/32
f 35/5/33 34/5/33 43/5/33
f 29/5/34 41/5/34 44/5/34
f 18/5/35 25/5/35 45/5/35
f 19/5/36 26/5/36 47/5/36
f 26/5/37 22/5/37 49/5/37
f 15/5/38 52/5/38 50/5/38
f 18/5/39 46/5/39 51/5/39
f 25/5/40 19/5/40 48/5/40
f 13/5/41 50/5/41 49/5/41
f 16/5/42 51/5/42 52/5/42
