# Split from 'Forest Pack FonSoul.obj' (Low-Poly Mini Forest Pack FonSoul), object 'Tree', recentered to local origin
g forest_tree_5_obj_0
v -2.297036 12.637729 5.395699
v -1.085730 12.898515 1.213432
v -2.282695 12.257505 5.599761
v -0.300998 9.277518 0.229507
v -0.283139 10.799448 -0.295982
v -0.371911 10.529034 0.525841
v -1.851216 12.272974 5.598259
v -0.457656 12.898515 1.213432
v -1.131526 10.799448 -0.295982
v -1.242389 9.277518 0.229507
v -1.220298 10.529034 0.525841
v -1.865558 12.653196 5.394195
v -0.492646 13.616790 1.870598
v -0.510823 14.512698 1.403092
v -1.050740 13.616790 1.870598
v -0.394927 10.446549 -1.186639
v 0.932420 16.047482 -5.237015
v 1.160953 16.018459 -5.345489
v 0.990947 16.018459 -5.404792
v -2.068337 14.669190 6.182823
v -2.231150 14.608705 6.339546
v -2.065837 14.614631 6.338966
v -1.199242 9.809272 -1.509666
v -1.242389 8.986480 -0.665763
v -1.250024 10.446549 -1.186639
v -0.300998 8.986480 -0.665763
v -0.674489 20.098030 1.154137
v -0.868897 20.095062 0.959748
v -0.868897 20.098030 1.154137
v -1.811267 0.012407 0.632737
v 0.267881 -0.012672 -1.446258
v 0.267881 0.012407 0.632737
v -0.344144 9.809272 -1.509666
v -0.401189 13.444566 0.757615
v -1.029261 13.444566 0.757615
v -1.032563 14.512698 1.403092
v -0.283757 6.419594 0.165070
v -1.811267 -0.012672 -1.446258
v -1.259629 6.419594 0.165070
v -1.259629 6.493610 1.138131
v -0.283757 6.493610 1.138131
v -0.674489 20.095062 0.959748
v -2.233649 14.663264 6.183402
v 0.426170 11.337430 -4.425941
v 0.994361 11.337430 -4.227738
v 1.140056 10.929439 -4.645401
v 0.571866 10.929439 -4.843605
v 1.102424 16.047482 -5.177712
v -0.738007 17.730980 0.634040
v -5.198906 17.174011 -1.614387
v -1.337474 17.038864 -5.436143
v 3.610168 16.788685 0.230469
v -4.522115 21.110291 -5.940467
v 6.674766 18.519745 2.474159
v 8.007009 21.991894 0.336845
v 2.658940 21.568726 8.063835
v 0.300563 17.896584 7.234566
v -4.423621 20.895519 6.674118
v 2.538074 21.832287 -7.416359
v 4.337405 18.325089 -5.361840
v 0.016223 24.347252 7.348900
v 6.567022 24.771343 2.469718
v 2.446576 27.238785 2.341507
v -6.648558 24.084785 2.614677
v -3.469289 26.965324 0.462624
v -4.216876 24.346695 -5.190392
v 3.950816 24.771011 -5.280006
v 0.453054 27.431870 -1.683487
v -8.007010 20.488815 0.385491
v -6.325717 17.637081 2.446388
v 1.241903 12.172786 -4.789688
v -1.672114 11.808953 -6.258445
v 0.715482 11.648577 -8.713966
v 4.082284 11.557246 -5.053314
v -1.230010 14.380271 -9.084389
v 6.084188 12.688033 -3.587661
v 6.954456 14.956164 -4.983825
v 3.460908 14.679737 0.063713
v 1.920333 12.280963 -0.477997
v -1.165671 14.239975 -0.844101
v 3.381953 14.851903 -10.048492
v 4.557340 12.560878 -8.706413
v 1.734594 16.494766 -0.403306
v 6.013805 16.771801 -3.590561
v 3.322185 18.383621 -3.674317
v -2.619078 16.323315 -3.495873
v -0.542268 18.204987 -4.901673
v -1.030618 16.494404 -8.594414
v 4.304807 16.771580 -8.652962
v 2.019944 18.509747 -6.303581
v -3.506467 13.974301 -4.952057
v -2.408187 12.111447 -3.605796
v -1.725718 13.625100 5.717858
v -0.902867 13.821414 3.500045
v 1.063007 13.864511 5.009110
v -1.203318 12.995078 7.662293
v 0.784846 16.000729 3.865089
v -2.208144 13.414266 9.305436
v -1.449279 15.139099 10.048493
v -5.282660 14.507107 7.894654
v -4.718287 13.024646 6.521820
v -4.998370 14.710879 4.489356
v 1.814305 16.089966 7.128570
v 1.279800 14.187658 7.837044
v -5.350625 15.994127 6.809639
v -2.758092 16.293877 9.657082
v -3.155465 17.662582 7.891755
v -3.537944 16.678516 3.468201
v -2.612609 18.033054 5.032264
v 0.174871 17.401253 4.250495
v 0.656861 17.163536 8.075440
v -1.435832 18.237370 6.787270
v -2.277207 15.308654 2.499984
v -2.878774 13.713387 3.195969
vt 0.367187 0.371094
vt 0.308534 0.556465
vt 0.315540 0.650652
vt 0.288988 0.649749
vt 0.255253 0.555507
vt 0.275487 0.649507
vt 0.242163 0.617979
vt 0.295905 0.744359
vt 0.189293 0.679736
vt 0.202663 0.742683
vt 0.149382 0.741725
vt 0.136012 0.678778
vt 0.109421 0.741007
vt 0.255944 0.743641
vt 0.242574 0.680693
vt 0.136112 0.804193
vt 0.189393 0.805151
vt 0.176484 0.867626
vt 0.096331 0.803478
vt 0.109882 0.866429
vt 0.295955 0.807067
vt 0.349237 0.808024
vt 0.336327 0.870500
vt 0.242674 0.806109
vt 0.276410 0.900351
vt 0.216445 0.868345
vt 0.236629 0.899636
vt 0.296366 0.869781
vt 0.136523 0.866908
vt 0.123434 0.929380
vt 0.335866 0.745077
vt 0.349137 0.682609
vt 0.375827 0.745795
vt 0.388917 0.683324
vt 0.348725 0.619894
vt 0.368682 0.589324
vt 0.202202 0.617260
vt 0.142057 0.585251
vt 0.162241 0.616542
vn -0.9402 -0.1879 -0.2840
vn 0.9928 0.0286 0.1167
vn -0.0000 -0.9900 -0.1412
vn -0.9947 0.0399 -0.0943
vn 0.9267 -0.2281 0.2987
vn -0.0000 0.4626 0.8866
vn -0.0000 0.9297 -0.3684
vn 0.0531 0.9869 -0.1522
vn -0.0327 0.9434 0.3302
vn -0.9957 -0.0358 -0.0858
vn -0.0000 -0.7160 -0.6981
vn -0.0000 -0.2304 0.9731
vn -0.0000 0.9999 -0.0153
vn -0.0000 -0.9999 0.0121
vn 0.9974 0.0705 0.0177
vn -0.9905 0.1035 0.0908
vn 0.9982 0.0575 -0.0187
vn 0.9958 -0.0307 0.0866
vn -0.9997 0.0095 -0.0208
vn -0.0000 0.2430 -0.9700
vn -0.9963 0.0853 -0.0065
vn -0.0000 -0.0777 0.9970
vn 0.9963 0.0857 -0.0010
vn -0.0000 0.0445 0.9990
vn 0.9936 0.0376 0.1066
vn -0.0000 0.0304 -0.9995
vn -0.9996 0.0293 -0.0004
vn -0.0163 0.3628 -0.9317
vn 0.9955 0.0713 0.0629
vn 0.0141 -0.3004 0.9537
vn -0.9995 0.0221 0.0237
vn -0.9969 0.0594 -0.0523
vn -0.0000 0.3700 -0.9290
vn 0.9941 0.0044 0.1088
vn -0.0000 -0.2787 0.9604
vn -0.0851 0.9660 0.2441
vn 0.9120 -0.0851 0.4013
vn -0.0000 -0.9479 -0.3185
vn -0.8945 0.1434 -0.4234
vn -0.9318 0.0369 -0.3611
vn 0.3266 -0.1301 -0.9362
vn 0.9456 0.0433 0.3224
vn -0.3231 0.1942 0.9262
vn 1.0000 0.0060 -0.0005
vn -0.0000 -0.3079 -0.9514
vn -1.0000 0.0061 -0.0020
vn -0.0000 0.3103 0.9506
vn -0.0337 0.9660 0.2564
vn 0.0703 -0.9919 0.1061
vn -0.1984 -0.9714 0.1304
vn -0.6005 -0.5425 -0.5875
vn 0.8208 0.0360 0.5701
vn -0.1820 -0.1039 0.9778
vn -0.1731 -0.2533 -0.9518
vn 0.8137 0.0803 -0.5757
vn 0.3988 0.6969 0.5960
vn -0.3792 0.7848 0.4903
vn -0.7298 0.6520 -0.2055
vn -0.0474 0.7804 -0.6235
vn 0.5100 0.8427 -0.1722
vn 0.4644 0.8653 -0.1885
vn -0.3052 0.8788 -0.3667
vn -0.0725 0.9939 0.0836
vn -0.1765 0.8871 0.4266
vn 0.7629 0.5929 -0.2576
vn 0.8166 0.0266 -0.5766
vn -0.0399 0.6000 -0.7990
vn -0.2221 0.2400 -0.9450
vn -0.8456 0.4729 -0.2476
vn -0.5083 0.5196 0.6868
vn -0.1980 0.0634 0.9782
vn 0.4525 0.6001 0.6597
vn 0.8225 -0.0103 0.5687
vn 0.1152 -0.4574 -0.8818
vn -0.8679 0.1884 -0.4596
vn -0.7919 -0.3849 -0.4741
vn -0.7979 -0.5825 -0.1550
vn -0.8692 0.0222 0.4939
vn -0.8556 -0.1453 0.4969
vn -0.4557 -0.5940 0.6629
vn 0.5482 -0.5030 0.6682
vn 0.8472 -0.4734 -0.2410
vn 0.2179 -0.9480 -0.2321
vn 0.0585 -0.9899 0.1291
vn 0.0237 -0.9995 0.0213
vn 0.5667 -0.8103 -0.1489
vn -0.2064 -0.9768 0.0570
vn 0.3032 -0.9087 0.2870
vn 0.0611 -0.9904 0.1241
vn -0.1954 -0.9683 0.1556
vn -0.6272 -0.5247 -0.5756
vn -0.1732 -0.2524 -0.9520
vn 0.1108 -0.4594 -0.8813
vn 0.2252 -0.9466 -0.2308
vn 0.0696 -0.9956 -0.0623
vn 0.0031 -0.9511 -0.3090
vn 0.5804 -0.3244 -0.7469
vn -0.4608 -0.1723 0.8706
vn -0.9566 -0.2750 -0.0963
vn 0.9533 -0.0364 -0.2997
vn 0.6472 0.0996 0.7558
vn -0.6605 0.5141 0.5472
vn -0.6700 0.7096 -0.2181
vn -0.0106 0.7590 -0.6510
vn 0.4577 0.8891 -0.0024
vn 0.0753 0.7962 0.6004
vn 0.0814 0.8266 0.5569
vn 0.1573 0.9633 -0.2176
vn -0.2742 0.9590 0.0722
vn -0.6017 0.7986 -0.0108
vn 0.2360 0.5411 0.8072
vn 0.6584 0.0472 0.7512
vn 0.6631 0.7476 -0.0371
vn 0.8495 0.4471 -0.2802
vn 0.0492 0.6063 -0.7937
vn -0.8286 0.4271 -0.3620
vn -0.9899 -0.1104 -0.0892
vn -0.6980 0.4010 0.5933
vn -0.4507 -0.2173 0.8658
vn 0.9578 -0.2844 -0.0409
vn 0.3058 0.3741 -0.8755
vn 0.4352 -0.1896 -0.8801
vn 0.1599 -0.4448 -0.8812
vn -0.5933 0.0227 -0.8047
vn -0.5636 -0.1425 -0.8137
vn -0.5929 -0.6580 -0.4642
vn -0.4906 -0.6853 0.5383
vn 0.4274 -0.5097 0.7467
vn 0.4278 -0.9011 0.0702
vn 0.0643 -0.9959 -0.0643
vn 0.1669 -0.9798 -0.1106
vn 0.3652 -0.8239 0.4335
vn 0.0994 -0.9385 -0.3308
vn -0.0743 -0.9762 0.2036
vn -0.9278 0.2754 -0.2516
vn 0.0350 -0.9902 -0.1351
vn 0.9232 0.2082 0.3231
vn -1.0000 -0.0047 0.0015
vn 0.9932 -0.0481 -0.1056
vn 0.9956 0.0582 0.0728
vn -0.9965 0.0770 -0.0312
vn -0.9963 0.0857 -0.0010
vn 0.9963 0.0853 -0.0065
vn 0.9996 0.0293 -0.0004
vn -0.9986 0.0255 -0.0473
vn 0.9955 0.0936 0.0168
vn -0.9976 -0.0001 0.0699
vn -0.9935 0.0799 -0.0810
vn 0.9929 -0.0032 0.1192
vn -0.0000 0.9642 0.2652
vn 0.9158 -0.1211 0.3829
vn 0.1017 -0.9511 -0.2916
vn -0.8930 0.1241 -0.4327
vn -0.9410 0.0433 -0.3357
vn 0.9542 0.0369 0.2968
vn 1.0000 0.0061 -0.0020
vn -1.0000 0.0060 -0.0005
vn -0.0000 0.9646 0.2638
f 1/1/1 2/1/1 3/1/1
f 4/1/2 5/1/2 6/1/2
f 7/1/3 2/1/3 8/1/3
f 9/1/4 10/1/4 11/1/4
f 12/1/5 8/1/5 13/1/5
f 14/1/6 15/1/6 13/1/6
f 16/1/7 9/1/7 5/1/7
f 17/1/8 18/1/8 19/1/8
f 20/1/9 21/1/9 22/1/9
f 23/1/10 24/1/10 25/1/10
f 23/1/11 26/1/11 24/1/11
f 10/1/12 6/1/12 11/1/12
f 27/1/13 28/1/13 29/1/13
f 30/1/14 31/1/14 32/1/14
f 26/1/15 33/1/15 16/1/15
f 25/1/16 10/1/16 9/1/16
f 16/1/17 4/1/17 26/1/17
f 34/1/18 13/1/18 8/1/18
f 35/1/19 15/1/19 36/1/19
f 37/1/20 38/1/20 39/1/20
f 39/1/21 30/1/21 40/1/21
f 40/1/22 32/1/22 41/1/22
f 37/1/23 32/1/23 31/1/23
f 29/1/24 14/1/24 27/1/24
f 42/1/25 14/1/25 34/1/25
f 42/1/26 35/1/26 28/1/26
f 28/1/27 36/1/27 29/1/27
f 1/1/28 20/1/28 12/1/28
f 12/1/29 22/1/29 7/1/29
f 7/1/30 21/1/30 3/1/30
f 1/1/31 21/1/31 43/1/31
f 9/1/32 2/1/32 35/1/32
f 9/1/33 34/1/33 5/1/33
f 5/1/34 8/1/34 6/1/34
f 6/1/35 2/1/35 11/1/35
f 44/1/36 16/1/36 45/1/36
f 45/1/37 33/1/37 46/1/37
f 47/1/38 33/1/38 23/1/38
f 44/1/39 23/1/39 25/1/39
f 44/1/40 19/1/40 47/1/40
f 47/1/41 18/1/41 46/1/41
f 45/1/42 18/1/42 48/1/42
f 45/1/43 17/1/43 44/1/43
f 37/1/44 4/1/44 41/1/44
f 37/1/45 24/1/45 26/1/45
f 39/1/46 10/1/46 24/1/46
f 41/1/47 10/1/47 40/1/47
f 12/1/48 15/1/48 1/1/48
f 49/2/49 50/3/49 51/4/49
f 49/5/50 51/6/50 52/7/50
f 51/4/51 50/3/51 53/8/51
f 54/9/52 55/10/52 56/11/52
f 57/12/53 56/11/53 58/13/53
f 51/4/54 53/8/54 59/14/54
f 60/15/55 59/14/55 55/10/55
f 61/16/56 62/17/56 63/18/56
f 64/19/57 61/16/57 65/20/57
f 66/21/58 64/22/58 65/23/58
f 67/24/59 66/21/59 68/25/59
f 62/17/60 67/24/60 63/26/60
f 63/26/61 67/24/61 68/27/61
f 68/25/62 66/21/62 65/28/62
f 65/20/63 63/29/63 68/30/63
f 65/20/64 61/16/64 63/29/64
f 55/10/65 67/24/65 62/17/65
f 55/10/66 59/14/66 67/24/66
f 59/14/67 66/21/67 67/24/67
f 59/14/68 53/8/68 66/21/68
f 69/31/69 64/22/69 66/21/69
f 58/13/70 61/16/70 64/19/70
f 58/13/71 56/11/71 61/16/71
f 56/11/72 62/17/72 61/16/72
f 56/11/73 55/10/73 62/17/73
f 60/15/74 51/4/74 59/14/74
f 53/8/75 69/31/75 66/21/75
f 53/8/76 50/3/76 69/31/76
f 50/3/77 70/32/77 69/31/77
f 69/31/78 58/33/78 64/22/78
f 69/31/79 70/32/79 58/33/79
f 70/32/80 57/34/80 58/33/80
f 57/12/81 54/9/81 56/11/81
f 54/9/82 60/15/82 55/10/82
f 52/7/83 51/6/83 60/15/83
f 50/35/84 49/36/84 70/32/84
f 49/36/85 57/34/85 70/32/85
f 54/9/86 52/37/86 60/15/86
f 49/38/87 52/39/87 57/12/87
f 52/39/88 54/9/88 57/12/88
f 71/2/89 72/3/89 73/4/89
f 71/5/90 73/6/90 74/7/90
f 73/4/91 72/3/91 75/8/91
f 76/9/52 77/10/52 78/11/52
f 79/12/53 78/11/53 80/13/53
f 73/4/92 75/8/92 81/14/92
f 82/15/55 81/14/55 77/10/55
f 83/16/56 84/17/56 85/18/56
f 86/19/57 83/16/57 87/20/57
f 88/21/58 86/22/58 87/23/58
f 89/24/59 88/21/59 90/25/59
f 84/17/60 89/24/60 85/26/60
f 85/26/61 89/24/61 90/27/61
f 90/25/62 88/21/62 87/28/62
f 87/20/63 85/29/63 90/30/63
f 87/20/64 83/16/64 85/29/64
f 77/10/65 89/24/65 84/17/65
f 77/10/66 81/14/66 89/24/66
f 81/14/67 88/21/67 89/24/67
f 81/14/68 75/8/68 88/21/68
f 91/31/69 86/22/69 88/21/69
f 80/13/70 83/16/70 86/19/70
f 80/13/71 78/11/71 83/16/71
f 78/11/72 84/17/72 83/16/72
f 78/11/73 77/10/73 84/17/73
f 82/15/93 73/4/93 81/14/93
f 75/8/75 91/31/75 88/21/75
f 75/8/76 72/3/76 91/31/76
f 72/3/77 92/32/77 91/31/77
f 91/31/78 80/33/78 86/22/78
f 91/31/79 92/32/79 80/33/79
f 92/32/80 79/34/80 80/33/80
f 79/12/81 76/9/81 78/11/81
f 76/9/82 82/15/82 77/10/82
f 74/7/94 73/6/94 82/15/94
f 72/35/84 71/36/84 92/32/84
f 71/36/85 79/34/85 92/32/85
f 76/9/86 74/37/86 82/15/86
f 71/38/87 74/39/87 79/12/87
f 74/39/88 76/9/88 79/12/88
f 93/2/95 94/3/95 95/4/95
f 93/5/96 95/6/96 96/7/96
f 95/4/97 94/3/97 97/8/97
f 98/9/98 99/10/98 100/11/98
f 101/12/99 100/11/99 102/13/99
f 95/4/100 97/8/100 103/14/100
f 104/15/101 103/14/101 99/10/101
f 105/16/102 106/17/102 107/18/102
f 108/19/103 105/16/103 109/20/103
f 110/21/104 108/22/104 109/23/104
f 111/24/105 110/21/105 112/25/105
f 106/17/106 111/24/106 107/26/106
f 107/26/107 111/24/107 112/27/107
f 112/25/108 110/21/108 109/28/108
f 109/20/109 107/29/109 112/30/109
f 109/20/110 105/16/110 107/29/110
f 99/10/111 111/24/111 106/17/111
f 99/10/112 103/14/112 111/24/112
f 103/14/113 110/21/113 111/24/113
f 103/14/114 97/8/114 110/21/114
f 113/31/115 108/22/115 110/21/115
f 102/13/116 105/16/116 108/19/116
f 102/13/117 100/11/117 105/16/117
f 100/11/118 106/17/118 105/16/118
f 100/11/119 99/10/119 106/17/119
f 104/15/120 95/4/120 103/14/120
f 97/8/121 113/31/121 110/21/121
f 97/8/122 94/3/122 113/31/122
f 94/3/123 114/32/123 113/31/123
f 113/31/124 102/33/124 108/22/124
f 113/31/125 114/32/125 102/33/125
f 114/32/126 101/34/126 102/33/126
f 101/12/127 98/9/127 100/11/127
f 98/9/128 104/15/128 99/10/128
f 96/7/129 95/6/129 104/15/129
f 94/35/130 93/36/130 114/32/130
f 93/36/131 101/34/131 114/32/131
f 98/9/132 96/37/132 104/15/132
f 93/38/133 96/39/133 101/12/133
f 96/39/134 98/9/134 101/12/134
f 1/1/135 15/1/135 2/1/135
f 7/1/136 3/1/136 2/1/136
f 12/1/137 7/1/137 8/1/137
f 14/1/6 36/1/6 15/1/6
f 16/1/7 25/1/7 9/1/7
f 17/1/8 48/1/8 18/1/8
f 20/1/9 43/1/9 21/1/9
f 23/1/11 33/1/11 26/1/11
f 10/1/12 4/1/12 6/1/12
f 27/1/13 42/1/13 28/1/13
f 30/1/14 38/1/14 31/1/14
f 25/1/138 24/1/138 10/1/138
f 16/1/139 5/1/139 4/1/139
f 34/1/140 14/1/140 13/1/140
f 35/1/141 2/1/141 15/1/141
f 37/1/20 31/1/20 38/1/20
f 39/1/142 38/1/142 30/1/142
f 40/1/22 30/1/22 32/1/22
f 37/1/143 41/1/143 32/1/143
f 29/1/24 36/1/24 14/1/24
f 42/1/144 27/1/144 14/1/144
f 42/1/26 34/1/26 35/1/26
f 28/1/145 35/1/145 36/1/145
f 1/1/28 43/1/28 20/1/28
f 12/1/146 20/1/146 22/1/146
f 7/1/30 22/1/30 21/1/30
f 1/1/147 3/1/147 21/1/147
f 9/1/148 11/1/148 2/1/148
f 9/1/33 35/1/33 34/1/33
f 5/1/149 34/1/149 8/1/149
f 6/1/35 8/1/35 2/1/35
f 44/1/150 25/1/150 16/1/150
f 45/1/151 16/1/151 33/1/151
f 47/1/152 46/1/152 33/1/152
f 44/1/153 47/1/153 23/1/153
f 44/1/154 17/1/154 19/1/154
f 47/1/41 19/1/41 18/1/41
f 45/1/155 46/1/155 18/1/155
f 45/1/43 48/1/43 17/1/43
f 37/1/156 26/1/156 4/1/156
f 37/1/45 39/1/45 24/1/45
f 39/1/157 40/1/157 10/1/157
f 41/1/47 4/1/47 10/1/47
f 12/1/158 13/1/158 15/1/158
