# Split from 'Forest Pack FonSoul.obj' (Low-Poly Mini Forest Pack FonSoul), object 'Bush.002', recentered to local origin
g forest_bush_3_obj_0
v -3.207020 -0.076338 -2.024481
v -3.495580 0.491945 1.575594
v -3.538920 2.069370 -0.018204
v 3.063181 2.321881 -2.775068
v 1.340630 4.289537 -2.487329
v 2.899217 3.877242 0.237600
v 3.538920 -0.002485 0.290959
v -0.527139 2.449390 3.265537
v -1.660135 4.193629 -3.366617
v -0.169182 1.716777 -3.866312
v 0.311104 5.299541 2.307753
v 1.091087 5.576685 -0.757833
v 0.038121 5.749238 0.686537
v -1.977814 4.344981 2.855642
v -1.599966 5.659336 1.628533
v -2.979612 4.848841 -0.089403
v -0.369191 5.240994 -2.091570
v -1.069279 5.557128 -0.236164
v -2.741793 2.130358 2.700422
v -2.043478 -0.034644 3.881571
v 1.202486 0.051056 -3.881571
vt 0.265439 0.538599
vt 0.282978 0.539744
vt 0.270008 0.658567
vt 0.199582 0.576623
vt 0.208414 0.656442
vt 0.173218 0.655228
vt 0.164386 0.575409
vt 0.146821 0.654317
vt 0.243611 0.657657
vt 0.234779 0.577837
vt 0.164452 0.734440
vt 0.199648 0.735654
vt 0.191121 0.814875
vt 0.138174 0.733533
vt 0.147126 0.813356
vt 0.270041 0.738083
vt 0.305237 0.739297
vt 0.296710 0.818518
vt 0.234845 0.736869
vt 0.257129 0.856371
vt 0.217518 0.815785
vt 0.230852 0.855464
vt 0.270313 0.817607
vt 0.164724 0.813964
vt 0.156077 0.893181
vt 0.296405 0.659478
vt 0.305171 0.580267
vt 0.322802 0.660389
vt 0.331449 0.581173
vt 0.234507 0.498313
vt 0.256520 0.538292
vt 0.208110 0.497403
vt 0.181713 0.496492
vn -0.9936 -0.0929 -0.0650
vn 0.6958 0.6529 -0.2992
vn 0.6306 0.1145 0.7676
vn -0.9035 0.2098 -0.3738
vn 0.2549 0.3363 -0.9066
vn 0.3977 0.8992 0.1825
vn -0.1207 0.6958 0.7081
vn -0.7596 0.5470 0.3520
vn -0.3524 0.8914 -0.2849
vn -0.0713 0.9830 -0.1694
vn -0.0236 0.9840 -0.1766
vn -0.3538 0.9230 -0.1513
vn -0.1024 0.9912 -0.0835
vn 0.0919 0.9634 0.2518
vn 0.3113 0.7833 -0.5380
vn 0.1937 0.6528 -0.7324
vn -0.3801 0.8655 -0.3261
vn -0.9016 0.1713 -0.3972
vn -0.8922 0.2831 0.3519
vn 0.1076 0.2881 0.9515
vn 0.6452 0.0661 0.7612
vn 0.6000 0.7685 0.2221
vn 0.7366 0.5891 -0.3322
vn -0.4692 -0.1056 -0.8767
vn -0.9421 0.1965 0.2718
vn -0.9318 0.2449 0.2677
vn -0.8439 0.0202 0.5361
vn -0.2497 0.0183 0.9682
vn -0.2800 0.3886 0.8778
vn 0.5375 -0.1211 0.8345
vn 0.9863 0.1622 -0.0301
vn 0.2418 0.3443 -0.9072
vn -0.3641 -0.2917 -0.8845
vn -0.4755 -0.8740 0.0999
vn 0.2718 0.2324 -0.9339
vn 0.7865 -0.4272 -0.4459
vn 0.0091 -0.9999 0.0053
vn 0.0190 -0.9995 -0.0235
f 1/1/1 2/2/1 3/3/1
f 4/4/2 5/5/2 6/6/2
f 7/7/3 6/6/3 8/8/3
f 1/1/4 3/3/4 9/9/4
f 10/10/5 9/9/5 5/5/5
f 11/11/6 12/12/6 13/13/6
f 14/14/7 11/11/7 15/15/7
f 16/16/8 14/17/8 15/18/8
f 17/19/9 16/16/9 18/20/9
f 12/12/10 17/19/10 13/21/10
f 13/21/11 17/19/11 18/22/11
f 18/20/12 16/16/12 15/23/12
f 15/15/13 13/24/13 18/25/13
f 15/15/14 11/11/14 13/24/14
f 5/5/15 17/19/15 12/12/15
f 5/5/16 9/9/16 17/19/16
f 9/9/17 16/16/17 17/19/17
f 9/9/18 3/3/18 16/16/18
f 19/26/19 14/17/19 16/16/19
f 8/8/20 11/11/20 14/14/20
f 8/8/21 6/6/21 11/11/21
f 6/6/22 12/12/22 11/11/22
f 6/6/23 5/5/23 12/12/23
f 10/10/24 1/1/24 9/9/24
f 3/3/25 19/26/25 16/16/25
f 3/3/26 2/2/26 19/26/26
f 2/2/27 20/27/27 19/26/27
f 19/26/28 8/28/28 14/17/28
f 19/26/29 20/27/29 8/28/29
f 20/27/30 7/29/30 8/28/30
f 7/7/31 4/4/31 6/6/31
f 4/4/32 10/10/32 5/5/32
f 21/30/33 1/31/33 10/10/33
f 2/2/34 1/1/34 20/27/34
f 4/4/35 21/32/35 10/10/35
f 21/33/36 4/4/36 7/7/36
f 1/1/37 7/7/37 20/27/37
f 1/1/38 21/30/38 7/7/38
