# Split from 'Forest Pack FonSoul.obj' (Low-Poly Mini Forest Pack FonSoul), object 'Tree.004', recentered to local origin
g forest_tree_1_obj_0
v 0.624889 12.363504 -0.117649
v 0.297308 13.229445 -0.704978
v 0.544374 13.611250 -0.254082
v -0.318937 13.229445 -0.458786
v -0.068644 13.484527 0.502811
v -0.114706 13.611250 -0.130986
v 0.576139 15.557226 0.445679
v 0.247770 16.376190 0.632001
v 0.167889 15.864185 0.736417
v -0.011511 15.557226 0.445679
v -0.060261 12.363504 -0.117649
v 0.051519 16.762062 0.382648
v -0.172073 16.376190 0.310809
v 0.669657 15.146511 0.486125
v -0.043234 15.081371 0.477403
v -0.075268 13.988465 0.509436
v 0.639896 13.988465 0.509436
v 0.513109 16.762062 0.382648
v 0.513109 16.762062 -0.078941
v 0.576139 15.557226 -0.141971
v -0.043234 15.081371 -0.173695
v 0.051519 16.762062 -0.078941
v 4.068737 19.940422 0.240257
v 4.240059 19.896717 0.063449
v 4.068737 19.940422 0.063449
v 0.193911 20.000000 0.063450
v 0.370718 20.000000 0.240258
v 0.370718 20.000000 0.063450
v -2.262241 19.907896 3.306550
v -2.226049 19.860498 3.549378
v -2.122265 19.908617 3.414565
v -1.515907 20.086647 -3.853671
v -1.418098 20.053822 -4.081438
v -1.581406 20.050079 -4.013778
v 0.669657 15.146511 -0.182418
v -0.075268 13.988465 -0.205728
v 0.639896 13.988465 -0.205728
v 1.191816 -0.006544 -0.757625
v -0.627188 0.006544 1.061333
v -0.627188 -0.006544 -0.757625
v -1.805697 17.030075 2.446524
v -0.251955 15.864185 0.415225
v -2.030365 16.651775 2.739519
v 1.111967 14.640875 0.494847
v -0.060261 12.444181 0.562735
v 0.633272 13.484527 0.502811
v 0.624889 12.444181 0.562735
v -0.011511 15.557226 -0.141971
v 1.111967 14.640875 -0.191140
v 3.066631 16.652771 -0.112453
v 3.497997 16.347229 -0.112453
v 4.240059 19.896717 0.240257
v 3.497997 16.347229 0.416161
v 3.066631 16.652771 0.416161
v -1.221722 16.170738 -2.902020
v -1.352600 20.090389 -3.921331
v -1.390875 15.898651 -3.322481
v -0.901619 15.903683 -3.522568
v -0.732464 16.175770 -3.102106
v -0.446465 13.724661 -0.856439
v 0.149719 13.724661 -1.094615
v 0.302740 14.216633 -0.711587
v -0.293444 14.216633 -0.473410
v 0.616972 10.060690 0.835335
v -0.052343 10.060690 0.835335
v -0.052343 10.055517 0.166040
v 0.616972 10.055517 0.166040
v -1.386702 17.030857 2.768820
v -1.611370 16.652557 3.061815
v -2.366024 19.859777 3.441363
v -0.202219 4.285408 0.392076
v 1.191816 0.006544 1.061333
v 0.766848 4.285408 0.392076
v 0.766848 4.307594 -0.576736
v -0.202219 4.307594 -0.576736
v 0.193911 20.000000 0.240258
v 0.323704 18.195879 -0.994455
v 5.187504 17.793974 -4.432642
v 6.389444 17.548365 1.715354
v -1.967968 17.162619 3.759341
v 8.777752 21.547606 -1.255859
v -5.980202 18.732063 5.762901
v -4.839590 22.021654 8.407760
v -8.777752 21.777147 -1.463318
v -6.503539 18.325525 -3.548273
v -3.100843 21.342070 -8.121424
v 5.799257 22.029375 6.961870
v 2.805853 18.612900 7.639078
v -6.511049 24.520288 -3.777501
v -5.982959 24.730629 5.779991
v -3.351284 27.219599 1.589170
v 2.037403 24.465784 -8.143610
v 2.059977 27.133009 -3.569826
v 7.848736 24.642466 -1.284591
v 2.891899 24.806147 7.320699
v 1.647154 27.463057 1.729080
v 5.005995 21.057066 -8.407760
v 2.071691 18.272701 -7.844246
vt 0.367187 0.371094
vt 0.308534 0.556465
vt 0.315540 0.650652
vt 0.288988 0.649749
vt 0.255253 0.555507
vt 0.275487 0.649507
vt 0.242163 0.617979
vt 0.295905 0.744359
vt 0.189293 0.679736
vt 0.202663 0.742683
vt 0.149382 0.741725
vt 0.136012 0.678778
vt 0.109421 0.741007
vt 0.255944 0.743641
vt 0.242574 0.680693
vt 0.136112 0.804193
vt 0.189393 0.805151
vt 0.176484 0.867626
vt 0.096331 0.803478
vt 0.109882 0.866429
vt 0.295955 0.807067
vt 0.349237 0.808024
vt 0.336327 0.870500
vt 0.242674 0.806109
vt 0.276410 0.900351
vt 0.216445 0.868345
vt 0.236629 0.899636
vt 0.296366 0.869781
vt 0.136523 0.866908
vt 0.123434 0.929380
vt 0.335866 0.745077
vt 0.349137 0.682609
vt 0.375827 0.745795
vt 0.388917 0.683324
vt 0.348725 0.619894
vt 0.368682 0.589324
vt 0.202202 0.617260
vt 0.142057 0.585251
vt 0.162241 0.616542
vn 0.8756 0.0037 -0.4829
vn -0.9182 0.3703 0.1408
vn 0.6111 0.0655 0.7889
vn -0.0000 -0.6877 0.7260
vn -0.0000 -0.5613 -0.8276
vn -0.3349 -0.4303 -0.8383
vn -0.5953 0.2001 0.7782
vn -0.0149 0.0297 0.9994
vn -0.0000 0.0201 0.9998
vn 0.6242 0.0733 0.7778
vn -0.0000 0.5427 0.8399
vn 0.9986 0.0522 -0.0000
vn -0.9996 0.0293 -0.0000
vn -0.8652 0.5014 -0.0000
vn 0.2472 0.9690 -0.0000
vn -0.0000 1.0000 -0.0000
vn -0.1694 0.9622 0.2131
vn -0.0983 0.9782 -0.1832
vn -0.0149 0.0297 -0.9994
vn -0.0000 0.0201 -0.9998
vn -0.0000 -1.0000 0.0072
vn -0.7941 0.0008 -0.6078
vn 0.0032 0.0200 0.9998
vn -1.0000 -0.0080 0.0009
vn 1.0000 -0.0080 0.0009
vn -0.0000 0.0522 -0.9986
vn -0.0000 0.0575 0.9983
vn 0.0032 0.0200 -0.9998
vn 0.8102 -0.5862 -0.0000
vn -0.9053 0.0554 -0.4212
vn -0.7872 -0.6167 -0.0000
vn 0.0305 0.0431 -0.9986
vn 0.9788 -0.2046 -0.0000
vn 0.0126 0.0496 0.9987
vn -0.9566 0.2916 -0.0000
vn -0.0000 -0.0131 0.9999
vn -0.9975 -0.0140 0.0697
vn -0.1808 -0.1729 -0.9682
vn 0.9694 -0.2455 -0.0000
vn 0.3662 0.2456 0.8975
vn -0.9315 0.0177 0.3633
vn -0.3716 -0.1692 -0.9129
vn 0.9185 0.0638 -0.3903
vn -0.2839 -0.6437 -0.7106
vn 0.8991 -0.0718 -0.4318
vn 0.1422 0.6323 0.7616
vn -0.9110 -0.0366 0.4109
vn -0.2339 -0.7718 -0.5913
vn 0.9219 0.0147 -0.3872
vn 0.2229 0.7994 0.5580
vn -0.9303 0.0118 0.3666
vn -0.0000 0.1136 0.9935
vn -1.0000 -0.0034 0.0004
vn -0.0000 -0.1220 -0.9925
vn 1.0000 -0.0033 -0.0000
vn 0.5780 0.3165 -0.7522
vn 0.7619 0.0478 0.6459
vn -0.5937 -0.2308 0.7709
vn -0.8002 0.0516 -0.5976
vn -0.0207 0.0933 0.9954
vn -0.9978 0.0665 -0.0000
vn -0.0000 0.0665 -0.9978
vn 0.9750 0.2220 -0.0000
vn -0.0000 0.1545 0.9880
vn 0.9952 0.0979 0.0022
vn -0.0000 0.0419 -0.9991
vn -0.9951 0.0987 -0.0007
vn 0.1436 0.9717 -0.1877
vn 0.7943 -0.0000 0.6076
vn -0.1574 -0.9656 0.2069
vn -0.0000 0.0439 0.9990
vn -0.9990 0.0439 -0.0000
vn -0.0000 0.0439 -0.9990
vn 0.9990 0.0439 -0.0000
vn 0.0164 0.0232 0.9996
vn -0.5321 0.8467 -0.0000
vn 0.0118 0.0276 -0.9995
vn 0.5817 -0.8134 -0.0000
vn -0.9997 0.0260 0.0006
vn -0.0000 -0.0765 0.9971
vn 0.9997 0.0260 -0.0002
vn -0.0000 0.1282 -0.9918
vn -0.0969 -0.9951 -0.0208
vn -0.0078 -0.9764 -0.2160
vn 0.7817 -0.5981 -0.1767
vn -0.9287 0.0246 0.3699
vn -0.7597 -0.1138 -0.6403
vn 0.8967 -0.2818 0.3415
vn 0.1342 0.0782 0.9879
vn -0.6694 0.7426 0.0206
vn -0.2437 0.8383 -0.4877
vn 0.4957 0.7492 -0.4393
vn 0.5058 0.8174 0.2758
vn -0.0885 0.8798 0.4669
vn -0.0560 0.8969 0.4386
vn 0.4036 0.9146 -0.0255
vn -0.0467 0.9967 -0.0657
vn -0.2715 0.9145 -0.3001
vn -0.1339 0.6603 0.7390
vn 0.1346 0.0129 0.9908
vn 0.6650 0.6484 0.3707
vn 0.9088 0.2757 0.3132
vn 0.6155 0.5776 -0.5363
vn -0.3634 0.5926 -0.7189
vn -0.7562 0.0767 -0.6498
vn -0.7590 0.6505 0.0276
vn -0.9281 -0.0318 0.3710
vn 0.6942 -0.5069 0.5110
vn 0.8491 0.2506 -0.4650
vn 0.8075 -0.4373 -0.3959
vn 0.5118 -0.6524 -0.5589
vn -0.0336 0.0481 -0.9983
vn -0.0404 -0.1572 -0.9867
vn -0.3457 -0.6442 -0.6822
vn -0.8127 -0.5783 0.0709
vn -0.1778 -0.5784 0.7961
vn 0.1022 -0.9665 0.2355
vn -0.1097 -0.9932 -0.0391
vn -0.0135 -0.9998 -0.0147
vn -0.1112 -0.8782 0.4652
vn 0.0518 -0.9808 -0.1882
vn -0.3375 -0.9394 0.0600
vn -0.7943 -0.0000 -0.6076
vn -0.9424 -0.1674 0.2897
vn 0.9928 0.0523 -0.1079
vn -0.8936 0.0699 -0.4434
vn -0.5647 -0.3691 0.7382
vn 0.0126 0.0496 -0.9987
vn 0.0305 0.0431 0.9986
vn -0.9946 0.1040 -0.0000
vn -0.0000 0.1271 -0.9919
vn 0.9929 -0.0115 -0.1185
vn 0.3648 0.2457 0.8981
vn -0.9270 0.0213 0.3744
vn -0.3739 -0.1690 -0.9119
vn 0.9123 0.0590 -0.4052
vn 0.9066 0.0447 -0.4196
vn 0.3132 0.5359 0.7840
vn -0.8969 0.1125 0.4277
vn -0.2358 -0.7720 -0.5903
vn 0.9234 0.0184 -0.3834
vn 0.2205 0.7991 0.5594
vn -0.9320 0.0077 0.3624
vn -1.0000 -0.0033 -0.0000
vn 1.0000 -0.0034 0.0004
vn 0.5785 0.3164 -0.7518
vn 0.7805 0.0599 0.6222
vn -0.5930 -0.2309 0.7714
vn -0.8173 0.0402 -0.5748
vn -0.0000 0.0665 0.9978
vn -0.0207 0.0933 -0.9954
vn 0.9951 0.0987 -0.0007
vn -0.9952 0.0979 0.0022
vn 0.1430 0.9716 -0.1883
vn 0.7941 -0.0008 0.6078
vn -0.1579 -0.9656 0.2064
vn 0.0118 0.0276 0.9995
vn 0.0164 0.0232 -0.9996
vn -0.9997 0.0260 -0.0002
vn 0.9997 0.0260 0.0006
f 1/1/1 2/1/1 3/1/1
f 4/1/2 5/1/2 6/1/2
f 7/1/3 8/1/3 9/1/3
f 10/1/4 7/1/4 9/1/4
f 11/1/5 2/1/5 1/1/5
f 11/1/6 4/1/6 2/1/6
f 8/1/7 12/1/7 13/1/7
f 14/1/8 15/1/8 16/1/8
f 17/1/9 14/1/9 16/1/9
f 18/1/10 8/1/10 7/1/10
f 18/1/11 12/1/11 8/1/11
f 19/1/12 7/1/12 20/1/12
f 21/1/13 16/1/13 15/1/13
f 22/1/14 13/1/14 12/1/14
f 23/1/15 24/1/15 25/1/15
f 26/1/16 27/1/16 28/1/16
f 29/1/17 30/1/17 31/1/17
f 32/1/18 33/1/18 34/1/18
f 21/1/19 35/1/19 36/1/19
f 35/1/20 37/1/20 36/1/20
f 38/1/21 39/1/21 40/1/21
f 41/1/22 42/1/22 43/1/22
f 44/1/23 14/1/23 17/1/23
f 5/1/24 11/1/24 45/1/24
f 1/1/25 46/1/25 47/1/25
f 19/1/26 48/1/26 22/1/26
f 45/1/27 46/1/27 5/1/27
f 49/1/28 37/1/28 35/1/28
f 37/1/29 44/1/29 17/1/29
f 13/1/30 48/1/30 42/1/30
f 10/1/31 42/1/31 48/1/31
f 50/1/32 24/1/32 51/1/32
f 51/1/33 52/1/33 53/1/33
f 54/1/34 52/1/34 23/1/34
f 54/1/35 25/1/35 50/1/35
f 16/1/36 46/1/36 17/1/36
f 16/1/37 6/1/37 5/1/37
f 36/1/38 3/1/38 6/1/38
f 17/1/39 3/1/39 37/1/39
f 55/1/40 56/1/40 32/1/40
f 55/1/41 34/1/41 57/1/41
f 57/1/42 33/1/42 58/1/42
f 59/1/43 33/1/43 56/1/43
f 60/1/44 2/1/44 4/1/44
f 61/1/45 3/1/45 2/1/45
f 62/1/46 6/1/46 3/1/46
f 60/1/47 6/1/47 63/1/47
f 61/1/48 57/1/48 58/1/48
f 61/1/49 59/1/49 62/1/49
f 62/1/50 55/1/50 63/1/50
f 60/1/51 55/1/51 57/1/51
f 64/1/52 45/1/52 65/1/52
f 66/1/53 45/1/53 11/1/53
f 66/1/54 1/1/54 67/1/54
f 67/1/55 47/1/55 64/1/55
f 41/1/56 31/1/56 68/1/56
f 68/1/57 30/1/57 69/1/57
f 43/1/58 30/1/58 70/1/58
f 41/1/59 70/1/59 29/1/59
f 7/1/60 15/1/60 14/1/60
f 48/1/61 15/1/61 10/1/61
f 20/1/62 21/1/62 48/1/62
f 7/1/63 35/1/63 20/1/63
f 71/1/64 72/1/64 73/1/64
f 73/1/65 38/1/65 74/1/65
f 74/1/66 40/1/66 75/1/66
f 71/1/67 40/1/67 39/1/67
f 41/1/68 8/1/68 13/1/68
f 68/1/69 9/1/69 8/1/69
f 43/1/70 9/1/70 69/1/70
f 76/1/71 18/1/71 27/1/71
f 26/1/72 12/1/72 76/1/72
f 28/1/73 22/1/73 26/1/73
f 27/1/74 19/1/74 28/1/74
f 54/1/75 44/1/75 53/1/75
f 50/1/76 14/1/76 54/1/76
f 50/1/77 49/1/77 35/1/77
f 51/1/78 44/1/78 49/1/78
f 71/1/79 66/1/79 75/1/79
f 73/1/80 65/1/80 71/1/80
f 73/1/81 67/1/81 64/1/81
f 75/1/82 67/1/82 74/1/82
f 77/2/83 78/3/83 79/4/83
f 77/5/84 79/6/84 80/7/84
f 79/4/85 78/3/85 81/8/85
f 82/9/86 83/10/86 84/11/86
f 85/12/87 84/11/87 86/13/87
f 79/4/88 81/8/88 87/14/88
f 88/15/89 87/14/89 83/10/89
f 89/16/90 90/17/90 91/18/90
f 92/19/91 89/16/91 93/20/91
f 94/21/92 92/22/92 93/23/92
f 95/24/93 94/21/93 96/25/93
f 90/17/94 95/24/94 91/26/94
f 91/26/95 95/24/95 96/27/95
f 96/25/96 94/21/96 93/28/96
f 93/20/97 91/29/97 96/30/97
f 93/20/98 89/16/98 91/29/98
f 83/10/99 95/24/99 90/17/99
f 83/10/100 87/14/100 95/24/100
f 87/14/101 94/21/101 95/24/101
f 87/14/102 81/8/102 94/21/102
f 97/31/103 92/22/103 94/21/103
f 86/13/104 89/16/104 92/19/104
f 86/13/105 84/11/105 89/16/105
f 84/11/106 90/17/106 89/16/106
f 84/11/107 83/10/107 90/17/107
f 88/15/108 79/4/108 87/14/108
f 81/8/109 97/31/109 94/21/109
f 81/8/110 78/3/110 97/31/110
f 78/3/111 98/32/111 97/31/111
f 97/31/112 86/33/112 92/22/112
f 97/31/113 98/32/113 86/33/113
f 98/32/114 85/34/114 86/33/114
f 85/12/115 82/9/115 84/11/115
f 82/9/116 88/15/116 83/10/116
f 80/7/117 79/6/117 88/15/117
f 78/35/118 77/36/118 98/32/118
f 77/36/119 85/34/119 98/32/119
f 82/9/120 80/37/120 88/15/120
f 77/38/121 80/39/121 85/12/121
f 80/39/122 82/9/122 85/12/122
f 19/1/12 18/1/12 7/1/12
f 21/1/13 36/1/13 16/1/13
f 23/1/15 52/1/15 24/1/15
f 26/1/16 76/1/16 27/1/16
f 29/1/17 70/1/17 30/1/17
f 32/1/18 56/1/18 33/1/18
f 38/1/21 72/1/21 39/1/21
f 41/1/123 13/1/123 42/1/123
f 5/1/124 4/1/124 11/1/124
f 1/1/125 3/1/125 46/1/125
f 19/1/26 20/1/26 48/1/26
f 45/1/27 47/1/27 46/1/27
f 37/1/29 49/1/29 44/1/29
f 13/1/126 22/1/126 48/1/126
f 10/1/127 9/1/127 42/1/127
f 50/1/128 25/1/128 24/1/128
f 51/1/33 24/1/33 52/1/33
f 54/1/129 53/1/129 52/1/129
f 54/1/35 23/1/35 25/1/35
f 16/1/36 5/1/36 46/1/36
f 16/1/130 36/1/130 6/1/130
f 36/1/131 37/1/131 3/1/131
f 17/1/132 46/1/132 3/1/132
f 55/1/133 59/1/133 56/1/133
f 55/1/134 32/1/134 34/1/134
f 57/1/135 34/1/135 33/1/135
f 59/1/136 58/1/136 33/1/136
f 60/1/44 61/1/44 2/1/44
f 61/1/137 62/1/137 3/1/137
f 62/1/138 63/1/138 6/1/138
f 60/1/139 4/1/139 6/1/139
f 61/1/140 60/1/140 57/1/140
f 61/1/141 58/1/141 59/1/141
f 62/1/142 59/1/142 55/1/142
f 60/1/143 63/1/143 55/1/143
f 64/1/52 47/1/52 45/1/52
f 66/1/144 65/1/144 45/1/144
f 66/1/54 11/1/54 1/1/54
f 67/1/145 1/1/145 47/1/145
f 41/1/146 29/1/146 31/1/146
f 68/1/147 31/1/147 30/1/147
f 43/1/148 69/1/148 30/1/148
f 41/1/149 43/1/149 70/1/149
f 7/1/150 10/1/150 15/1/150
f 48/1/61 21/1/61 15/1/61
f 20/1/151 35/1/151 21/1/151
f 7/1/63 14/1/63 35/1/63
f 71/1/64 39/1/64 72/1/64
f 73/1/152 72/1/152 38/1/152
f 74/1/66 38/1/66 40/1/66
f 71/1/153 75/1/153 40/1/153
f 41/1/154 68/1/154 8/1/154
f 68/1/155 69/1/155 9/1/155
f 43/1/156 42/1/156 9/1/156
f 76/1/71 12/1/71 18/1/71
f 26/1/72 22/1/72 12/1/72
f 28/1/73 19/1/73 22/1/73
f 27/1/74 18/1/74 19/1/74
f 54/1/157 14/1/157 44/1/157
f 50/1/76 35/1/76 14/1/76
f 50/1/158 51/1/158 49/1/158
f 51/1/78 53/1/78 44/1/78
f 71/1/159 65/1/159 66/1/159
f 73/1/80 64/1/80 65/1/80
f 73/1/160 74/1/160 67/1/160
f 75/1/82 66/1/82 67/1/82
