# Split from 'Forest Pack FonSoul.obj' (Low-Poly Mini Forest Pack FonSoul), object 'Bush.001', recentered to local origin
g forest_bush_2_obj_0
v 2.552448 -0.019268 -1.063076
v -0.051170 1.084876 -3.833744
v 1.637032 2.591885 -2.695324
v -0.068090 2.126248 3.833744
v 0.575569 4.240211 2.658504
v -2.241329 3.780470 1.989422
v -2.063381 0.118753 2.029308
v -2.537196 2.430040 -1.781300
v 2.631574 3.703325 0.413296
v 2.319165 1.415113 2.045196
v -2.631574 5.446734 -0.343075
v -0.531605 5.967334 1.770172
v -0.877329 6.310483 0.422684
v -1.354821 4.398048 -2.593609
v -0.592543 5.944915 -1.432450
v 1.769241 5.066965 -2.051827
v 1.332551 4.920470 0.853870
v 0.536886 5.994052 -0.208420
v -1.032690 2.582324 -3.661522
v -1.757978 0.278122 -3.536167
v 1.886203 -0.130336 3.357990
vt 0.288988 0.649749
vt 0.315540 0.650652
vt 0.295905 0.744359
vt 0.189293 0.679736
vt 0.202663 0.742683
vt 0.149382 0.741725
vt 0.136012 0.678778
vt 0.109421 0.741007
vt 0.255944 0.743641
vt 0.242574 0.680693
vt 0.136112 0.804193
vt 0.189393 0.805151
vt 0.176484 0.867626
vt 0.096331 0.803478
vt 0.109882 0.866429
vt 0.295955 0.807067
vt 0.349237 0.808024
vt 0.336327 0.870500
vt 0.242674 0.806109
vt 0.276410 0.900351
vt 0.216445 0.868345
vt 0.236629 0.899636
vt 0.296366 0.869781
vt 0.136523 0.866908
vt 0.123434 0.929380
vt 0.335866 0.745077
vt 0.349137 0.682609
vt 0.375827 0.745795
vt 0.388917 0.683324
vt 0.242163 0.617979
vt 0.275487 0.649507
vt 0.202202 0.617260
vt 0.162241 0.616542
vn 0.6690 -0.2110 -0.7127
vn -0.2769 0.5299 0.8016
vn -0.9944 -0.0473 0.0950
vn 0.9335 0.1149 -0.3397
vn 0.7350 0.3243 0.5955
vn -0.5298 0.7794 0.3344
vn -0.4715 0.6661 -0.5779
vn 0.0114 0.5967 -0.8024
vn 0.7224 0.6766 0.1427
vn 0.5188 0.8508 0.0835
vn 0.3931 0.7773 0.4912
vn 0.2678 0.9207 -0.2840
vn 0.1422 0.9751 -0.1703
vn -0.3462 0.9090 -0.2323
vn 0.5974 0.6349 0.4899
vn 0.6786 0.5466 0.4907
vn 0.7019 0.6982 0.1407
vn 0.9487 0.0311 -0.3146
vn 0.0393 0.5117 -0.8582
vn -0.7907 0.2431 -0.5619
vn -0.9908 -0.0821 0.1071
vn -0.6522 0.5610 0.5099
vn -0.2665 0.3002 0.9159
vn 0.9927 -0.0620 0.1031
vn 0.3312 0.2208 -0.9174
vn 0.3221 0.3139 -0.8932
vn -0.1720 0.0005 -0.9851
vn -0.7709 0.2157 -0.5994
vn -0.7716 0.2102 -0.6004
vn -0.9534 -0.2956 -0.0608
vn -0.6573 -0.0237 0.7532
vn 0.6262 0.2244 0.7466
vn 0.9779 -0.1520 0.1435
vn 0.2702 -0.7799 -0.5647
vn 0.6231 0.3976 0.6736
vn -0.3105 -0.4459 0.8395
vn -0.0509 -0.9982 -0.0314
vn -0.0519 -0.9981 -0.0329
f 1/1/1 2/2/1 3/3/1
f 4/4/2 5/5/2 6/6/2
f 7/7/3 6/6/3 8/8/3
f 1/1/4 3/3/4 9/9/4
f 10/10/5 9/9/5 5/5/5
f 11/11/6 12/12/6 13/13/6
f 14/14/7 11/11/7 15/15/7
f 16/16/8 14/17/8 15/18/8
f 17/19/9 16/16/9 18/20/9
f 12/12/10 17/19/10 13/21/10
f 13/21/11 17/19/11 18/22/11
f 18/20/12 16/16/12 15/23/12
f 15/15/13 13/24/13 18/25/13
f 15/15/14 11/11/14 13/24/14
f 5/5/15 17/19/15 12/12/15
f 5/5/16 9/9/16 17/19/16
f 9/9/17 16/16/17 17/19/17
f 9/9/18 3/3/18 16/16/18
f 19/26/19 14/17/19 16/16/19
f 8/8/20 11/11/20 14/14/20
f 8/8/21 6/6/21 11/11/21
f 6/6/22 12/12/22 11/11/22
f 6/6/23 5/5/23 12/12/23
f 10/10/24 1/1/24 9/9/24
f 3/3/25 19/26/25 16/16/25
f 3/3/26 2/2/26 19/26/26
f 2/2/27 20/27/27 19/26/27
f 19/26/28 8/28/28 14/17/28
f 19/26/29 20/27/29 8/28/29
f 20/27/30 7/29/30 8/28/30
f 7/7/31 4/4/31 6/6/31
f 4/4/32 10/10/32 5/5/32
f 21/30/33 1/31/33 10/10/33
f 2/2/34 1/1/34 20/27/34
f 4/4/35 21/32/35 10/10/35
f 21/33/36 4/4/36 7/7/36
f 1/1/37 7/7/37 20/27/37
f 1/1/38 21/30/38 7/7/38
