# Split from 'Forest Pack FonSoul.obj' (Low-Poly Mini Forest Pack FonSoul), object 'Bush', recentered to local origin
g forest_bush_1_obj_0
v -2.876483 0.044802 0.591858
v -0.971807 1.290021 3.156128
v -2.360904 3.169730 2.017704
v 1.020060 1.752999 -3.559544
v 0.156663 4.069686 -2.848919
v 2.876483 3.741857 -1.218308
v 2.693018 0.136292 -0.657486
v 2.127089 2.969080 2.268791
v -2.631032 3.988089 -1.526436
v -1.850295 1.547597 -2.590431
v 2.539083 5.620533 0.259479
v 1.261481 5.940460 -2.146981
v 1.125657 6.795985 -0.913841
v 0.617023 5.172542 3.477962
v -0.063884 6.594976 2.102585
v -2.070444 5.493495 2.076744
v -1.809347 6.139838 -2.007767
v -0.679680 6.938549 -0.184071
v -0.136830 2.616942 3.559543
v 0.896296 -0.003769 3.345646
v -1.026200 0.021630 -3.257767
vt 0.288988 0.649749
vt 0.315540 0.650652
vt 0.295905 0.744359
vt 0.189293 0.679736
vt 0.202663 0.742683
vt 0.149382 0.741725
vt 0.136012 0.678778
vt 0.109421 0.741007
vt 0.255944 0.743641
vt 0.242574 0.680693
vt 0.136112 0.804193
vt 0.189393 0.805151
vt 0.176484 0.867626
vt 0.096331 0.803478
vt 0.109882 0.866429
vt 0.295955 0.807067
vt 0.349237 0.808024
vt 0.336327 0.870500
vt 0.242674 0.806109
vt 0.276410 0.900351
vt 0.216445 0.868345
vt 0.236629 0.899636
vt 0.296366 0.869781
vt 0.136523 0.866908
vt 0.123434 0.929380
vt 0.335866 0.745077
vt 0.349137 0.682609
vt 0.375827 0.745795
vt 0.388917 0.683324
vt 0.242163 0.617979
vt 0.275487 0.649507
vt 0.202202 0.617260
vt 0.162241 0.616542
vn -0.7507 -0.1677 0.6390
vn 0.5035 0.4194 -0.7554
vn 0.9783 -0.0177 0.2063
vn -0.9879 0.1164 0.1022
vn -0.4213 0.2458 -0.8730
vn 0.7486 0.5805 -0.3203
vn 0.5700 0.6956 0.4372
vn -0.3241 0.5728 0.7529
vn -0.6555 0.7513 0.0770
vn 0.0277 0.8227 -0.5677
vn -0.0729 0.9294 -0.3619
vn -0.4680 0.8467 0.2532
vn 0.1242 0.9856 0.1146
vn 0.4890 0.8361 0.2486
vn -0.0188 0.3610 -0.9324
vn -0.4274 -0.0389 -0.9032
vn -0.9344 0.3561 -0.0034
vn -0.9873 0.1208 0.1031
vn -0.4415 0.1584 0.8831
vn 0.8099 0.2691 0.5211
vn 0.9772 0.0088 0.2120
vn 0.8157 0.4410 -0.3744
vn 0.5156 0.0169 -0.8566
vn -0.9220 -0.1371 -0.3621
vn -0.5608 0.0491 0.8265
vn -0.5512 0.0948 0.8290
vn -0.2096 -0.1613 0.9644
vn 0.5058 -0.1220 0.8540
vn 0.4780 0.1174 0.8705
vn 0.8914 -0.2270 0.3922
vn 0.8270 -0.1273 -0.5476
vn -0.3261 0.1641 -0.9310
vn -0.8644 -0.2859 -0.4137
vn -0.4783 -0.5962 0.6448
vn -0.3261 0.2254 -0.9181
vn 0.4523 -0.6424 -0.6186
vn 0.0095 -0.9995 -0.0307
vn 0.0199 -0.9997 0.0156
f 1/1/1 2/2/1 3/3/1
f 4/4/2 5/5/2 6/6/2
f 7/7/3 6/6/3 8/8/3
f 1/1/4 3/3/4 9/9/4
f 10/10/5 9/9/5 5/5/5
f 11/11/6 12/12/6 13/13/6
f 14/14/7 11/11/7 15/15/7
f 16/16/8 14/17/8 15/18/8
f 17/19/9 16/16/9 18/20/9
f 12/12/10 17/19/10 13/21/10
f 13/21/11 17/19/11 18/22/11
f 18/20/12 16/16/12 15/23/12
f 15/15/13 13/24/13 18/25/13
f 15/15/14 11/11/14 13/24/14
f 5/5/15 17/19/15 12/12/15
f 5/5/16 9/9/16 17/19/16
f 9/9/17 16/16/17 17/19/17
f 9/9/18 3/3/18 16/16/18
f 19/26/19 14/17/19 16/16/19
f 8/8/20 11/11/20 14/14/20
f 8/8/21 6/6/21 11/11/21
f 6/6/22 12/12/22 11/11/22
f 6/6/23 5/5/23 12/12/23
f 10/10/24 1/1/24 9/9/24
f 3/3/25 19/26/25 16/16/25
f 3/3/26 2/2/26 19/26/26
f 2/2/27 20/27/27 19/26/27
f 19/26/28 8/28/28 14/17/28
f 19/26/29 20/27/29 8/28/29
f 20/27/30 7/29/30 8/28/30
f 7/7/31 4/4/31 6/6/31
f 4/4/32 10/10/32 5/5/32
f 21/30/33 1/31/33 10/10/33
f 2/2/34 1/1/34 20/27/34
f 4/4/35 21/32/35 10/10/35
f 21/33/36 4/4/36 7/7/36
f 1/1/37 7/7/37 20/27/37
f 1/1/38 21/30/38 7/7/38
