# Split from 'Forest Pack FonSoul.obj' (Low-Poly Mini Forest Pack FonSoul), object 'rock', recentered to local origin
g forest_rock_1_obj_0
v 2.317292 -0.043084 -2.217046
v 0.214483 -0.061850 3.569788
v -2.583010 -0.043359 0.913664
v 1.471851 -0.049348 3.209490
v 1.715926 3.386617 2.800448
v -3.264546 1.353585 0.719691
v -2.683877 0.835613 -1.081155
v -1.486581 1.463962 3.344183
v -2.024131 2.962796 -0.727212
v -0.138986 2.660331 -2.837877
v 3.264546 2.254765 -3.569788
v 3.145886 3.669672 -0.530870
v 2.784111 1.128423 2.285731
v 1.669401 1.316645 -3.510473
vt 0.716561 0.714916
vt 0.716561 0.713698
vt 0.730418 0.713698
vt 0.726356 0.637697
vt 0.716561 0.636834
vt 0.726356 0.635974
vt 0.726356 0.640686
vt 0.716561 0.639825
vt 0.726356 0.638963
vt 0.726356 0.703464
vt 0.716561 0.702601
vt 0.726356 0.701741
vt 0.716561 0.641953
vt 0.726356 0.642814
vt 0.716561 0.643675
vt 0.726356 0.706453
vt 0.716561 0.705592
vt 0.726356 0.704730
vt 0.716561 0.757160
vt 0.716561 0.755942
vt 0.730418 0.755942
vt 0.716561 0.671847
vt 0.726356 0.672708
vt 0.716561 0.673570
vt 0.716561 0.729826
vt 0.716561 0.728608
vt 0.730418 0.728608
vt 0.716561 0.732311
vt 0.716561 0.731093
vt 0.730418 0.731093
vt 0.716561 0.644942
vt 0.726356 0.645803
vt 0.716561 0.646664
vt 0.730418 0.716182
vt 0.730418 0.717401
vt 0.716561 0.717401
vt 0.730418 0.734796
vt 0.716561 0.733577
vt 0.730418 0.733577
vt 0.730418 0.718667
vt 0.730418 0.719885
vt 0.716561 0.719885
vt 0.730418 0.737280
vt 0.716561 0.737280
vt 0.716561 0.736062
vt 0.716561 0.647931
vt 0.726356 0.648792
vt 0.716561 0.649655
vt 0.716561 0.674836
vt 0.726356 0.675698
vt 0.716561 0.676559
vt 0.716561 0.650920
vt 0.726356 0.651783
vt 0.716561 0.652644
vt 0.716561 0.680816
vt 0.726356 0.681676
vt 0.716561 0.682537
vt 0.716561 0.739765
vt 0.716561 0.738547
vt 0.730418 0.738547
vt 0.716561 0.742251
vt 0.730418 0.741033
vt 0.730418 0.742251
vt 0.726356 0.628728
vt 0.716561 0.627867
vt 0.726356 0.627005
vt 0.716561 0.734796
vt 0.716561 0.741033
vn -0.0026 -1.0000 -0.0042
vn 0.2734 0.0945 0.9573
vn -0.8794 -0.4504 -0.1540
vn -0.5757 -0.5528 0.6025
vn -0.6830 0.3210 -0.6561
vn 0.9955 -0.0651 0.0692
vn 0.0475 0.1977 0.9791
vn 0.0101 -0.9999 0.0004
vn 0.9251 -0.3797 0.0029
vn 0.7054 -0.7004 0.1091
vn -0.1767 0.2400 -0.9546
vn -0.7821 -0.3062 0.5427
vn -0.5631 0.7487 0.3500
vn -0.8662 0.3310 -0.3745
vn 0.8614 0.3171 0.3967
vn 0.5367 0.0621 0.8415
vn 0.3093 -0.5739 -0.7583
vn -0.2432 -0.8921 -0.3808
vn -0.2709 -0.7281 -0.6297
vn -0.4625 -0.1889 -0.8662
vn -0.1364 0.9903 0.0256
vn 0.0174 0.9067 -0.4215
vn -0.4342 0.8253 0.3611
vn -0.1221 0.9613 -0.2468
f 1/1/1 2/2/1 3/3/1
f 2/4/2 4/5/2 5/6/2
f 3/7/3 6/8/3 7/9/3
f 8/10/4 3/11/4 2/12/4
f 7/13/5 9/14/5 10/15/5
f 11/16/6 12/17/6 13/18/6
f 2/19/7 5/20/7 8/21/7
f 1/22/8 4/23/8 2/24/8
f 13/25/9 1/26/9 11/27/9
f 1/28/10 13/29/10 4/30/10
f 11/31/11 14/32/11 10/33/11
f 8/34/12 6/35/12 3/36/12
f 8/37/13 9/38/13 6/39/13
f 7/40/14 6/41/14 9/42/14
f 13/43/15 12/44/15 5/45/15
f 5/46/16 4/47/16 13/48/16
f 14/49/17 11/50/17 1/51/17
f 1/52/18 3/53/18 7/54/18
f 1/55/19 7/56/19 14/57/19
f 14/58/20 7/59/20 10/60/20
f 12/61/21 9/62/21 5/63/21
f 11/64/22 10/65/22 12/66/22
f 8/37/23 5/67/23 9/38/23
f 12/61/24 10/68/24 9/62/24
