# Split from 'Forest Pack FonSoul.obj' (Low-Poly Mini Forest Pack FonSoul), object 'Tree.003', recentered to local origin
g forest_tree_2_obj_0
v -1.543660 10.401978 1.667558
v -0.984017 10.401978 1.667558
v -1.436082 10.992943 2.122613
v -0.929725 10.992943 2.052509
v -1.465684 11.456324 1.908804
v -0.984017 10.512877 1.119013
v -0.959327 11.456324 1.838700
v -1.008798 11.621910 1.359119
v -1.518880 11.621910 1.359119
v -1.518880 11.317970 0.949478
v -1.543660 10.512877 1.119013
v -1.008798 11.317970 0.949478
v 0.532701 20.047794 -3.429354
v 0.750756 20.047794 -3.442124
v 0.635343 20.047794 -3.544768
v -1.513379 15.481091 -1.436591
v -1.270982 14.733764 -1.658345
v -1.479531 14.296683 -1.211623
v -1.048146 14.296683 -1.211623
v -1.035727 16.421173 5.579286
v -0.852450 16.421356 5.731081
v -0.868537 16.432484 5.563947
v -1.341065 19.964346 -0.950741
v -1.186612 19.951929 -0.796788
v -1.186612 19.964346 -0.950741
v -1.070634 15.446950 -1.043738
v -1.479531 14.553729 -0.865182
v -1.048146 14.553729 -0.865182
v -1.262225 15.136815 -1.611884
v -1.070634 15.478011 -1.428895
v -0.813428 14.765197 -1.481102
v -0.318459 -0.005241 -0.442387
v -2.209218 0.005241 1.448341
v -2.209218 -0.005241 -0.442387
v 0.604453 16.214060 -3.711533
v -0.946692 15.136815 -1.331260
v -1.457044 15.446950 -1.043738
v 0.363469 16.430433 -3.440569
v 0.919988 16.214060 -3.430909
v 0.679004 16.430433 -3.159945
v 0.648112 20.047794 -3.326712
v -0.533376 12.957479 5.196571
v -0.489511 12.714815 5.548374
v -0.916593 12.703074 5.593525
v -1.019641 16.410046 5.746420
v -0.960458 12.945738 5.241722
v -0.790486 4.753829 0.719265
v -1.737191 4.753829 0.719265
v -1.737191 4.822929 -0.224916
v -0.790486 4.822929 -0.224916
v -0.318459 0.005241 1.448341
v -1.341065 19.951929 -0.796788
v -0.840726 17.735098 -1.864923
v 0.299174 16.832077 -6.159486
v 3.594913 16.685734 -2.929275
v -0.093759 16.876995 2.172960
v 3.839028 20.977715 -6.158261
v -1.323367 19.002954 5.107383
v 0.626847 22.765533 5.940441
v -5.794318 22.407290 1.723460
v -5.652966 18.251007 -0.315573
v -5.604386 21.300026 -4.909548
v 5.794318 22.011757 0.191080
v 4.263116 18.344269 2.247117
v -5.404008 25.299536 -0.947648
v -0.976586 25.836258 4.639473
v -1.212581 28.349276 0.674053
v -2.639310 24.513245 -7.522253
v -0.499972 27.708889 -4.948491
v 3.496766 24.564037 -5.998511
v 4.524411 25.381704 1.517860
v 1.582711 28.296803 -1.545293
v -1.331090 20.422686 -8.768597
v -2.843303 17.467278 -6.859663
v -0.710525 14.084642 5.595509
v -3.016583 13.789060 4.851411
v -1.392173 13.632278 2.817560
v 1.362378 13.539829 5.136648
v -2.940053 15.832520 2.722755
v 2.999715 14.475628 5.950521
v 3.530154 16.296190 4.806787
v 1.431720 16.220652 8.768596
v 0.214158 14.258851 8.600716
v -2.089236 15.895413 8.599749
v 0.387628 16.143471 1.556549
v 1.367421 14.278481 2.455647
v 0.124545 17.720608 8.562053
v 2.986747 17.827610 5.848260
v 0.999784 19.180672 6.018045
v -3.404902 17.564882 6.799672
v -1.985146 19.053671 5.537340
v -2.724046 17.575659 2.996681
v 1.226216 17.738031 2.408660
v -0.220592 19.242701 4.270180
v -4.227282 15.616262 5.911982
v -3.300078 14.103649 6.810596
vt 0.367187 0.371094
vt 0.308534 0.556465
vt 0.315540 0.650652
vt 0.288988 0.649749
vt 0.255253 0.555507
vt 0.275487 0.649507
vt 0.242163 0.617979
vt 0.295905 0.744359
vt 0.189293 0.679736
vt 0.202663 0.742683
vt 0.149382 0.741725
vt 0.136012 0.678778
vt 0.109421 0.741007
vt 0.255944 0.743641
vt 0.242574 0.680693
vt 0.136112 0.804193
vt 0.189393 0.805151
vt 0.176484 0.867626
vt 0.096331 0.803478
vt 0.109882 0.866429
vt 0.295955 0.807067
vt 0.349237 0.808024
vt 0.336327 0.870500
vt 0.242674 0.806109
vt 0.276410 0.900351
vt 0.216445 0.868345
vt 0.236629 0.899636
vt 0.296366 0.869781
vt 0.136523 0.866908
vt 0.123434 0.929380
vt 0.335866 0.745077
vt 0.349137 0.682609
vt 0.375827 0.745795
vt 0.388917 0.683324
vt 0.348725 0.619894
vt 0.368682 0.589324
vt 0.202202 0.617260
vt 0.142057 0.585251
vt 0.162241 0.616542
vn -0.0000 -0.6101 0.7923
vn 0.1146 -0.5496 0.8275
vn -0.9803 0.0277 0.1958
vn 0.9966 -0.0809 -0.0164
vn 0.0446 0.9457 0.3219
vn -0.0000 0.9575 0.2884
vn -0.9995 0.0266 -0.0197
vn -0.9953 0.0013 0.0967
vn 0.9981 0.0184 -0.0584
vn -0.0000 1.0000 -0.0000
vn 0.9931 0.0942 -0.0699
vn -0.8482 -0.1221 -0.5155
vn -0.0000 -0.7148 -0.6994
vn -0.0607 0.9955 0.0721
vn -0.0000 0.9968 0.0804
vn -0.0000 0.1960 0.9806
vn -0.0000 -0.2061 -0.9785
vn -0.4615 0.1115 -0.8801
vn 0.0186 0.4644 -0.8854
vn 0.3268 -0.5889 -0.7392
vn -0.0000 -1.0000 0.0055
vn 0.2252 -0.8762 -0.4260
vn 0.6643 0.0276 -0.7469
vn 0.9478 0.3100 0.0742
vn 0.9369 0.3484 0.0281
vn -0.9878 0.0541 0.1463
vn 0.9162 -0.3217 0.2387
vn -0.7325 0.0355 -0.6798
vn 0.6643 0.0271 -0.7470
vn 0.7467 0.0370 0.6641
vn -0.6643 0.0288 0.7469
vn -0.7748 0.0890 -0.6259
vn -0.3106 0.8841 0.3492
vn 0.7473 0.0002 0.6645
vn 0.9935 0.1000 -0.0549
vn 0.0939 -0.0384 0.9948
vn -0.9951 -0.0307 0.0937
vn -0.1072 0.0943 -0.9898
vn 0.0705 -0.8983 0.4336
vn 0.9918 0.0044 -0.1278
vn -0.0554 0.9147 -0.4004
vn -0.9902 0.0209 0.1379
vn -0.0000 -0.1656 0.9862
vn -0.9994 0.0334 0.0024
vn -0.0000 0.2299 -0.9732
vn 0.9994 0.0331 0.0067
vn 0.9999 0.0086 -0.0064
vn -0.0000 0.6044 0.7967
vn -0.9999 0.0086 -0.0064
vn -0.0000 -0.5872 -0.8094
vn -0.0000 0.1518 0.9884
vn -0.9951 0.0988 -0.0005
vn -0.0000 0.0450 -0.9990
vn 0.9953 0.0970 0.0071
vn -0.0000 0.1060 -0.9944
vn -0.9893 0.0224 0.1438
vn -0.0000 -0.0547 0.9985
vn 0.9997 0.0256 0.0021
vn -0.1927 -0.9693 0.1527
vn -0.2623 -0.9526 -0.1539
vn 0.5924 -0.5056 -0.6273
vn -0.5501 0.1016 0.8289
vn -0.9995 -0.0217 -0.0250
vn 0.9379 -0.2411 -0.2496
vn 0.7463 0.0600 0.6629
vn -0.6334 0.6361 0.4408
vn -0.6261 0.6984 -0.3468
vn 0.2003 0.5297 -0.8242
vn 0.7780 0.6042 -0.1721
vn 0.3433 0.8024 0.4881
vn 0.3619 0.8238 0.4364
vn 0.4862 0.7612 -0.4291
vn -0.0788 0.9893 -0.1227
vn -0.5387 0.8267 -0.1624
vn 0.4494 0.5371 0.7138
vn 0.7448 0.0180 0.6670
vn 0.8991 0.4046 -0.1669
vn 0.9456 0.1040 -0.3081
vn 0.2232 0.3487 -0.9103
vn -0.8126 0.4302 -0.3932
vn -0.9946 0.0935 -0.0441
vn -0.6826 0.5434 0.4887
vn -0.5503 0.0653 0.8324
vn 0.9235 -0.3835 0.0037
vn 0.4422 0.0820 -0.8932
vn 0.4488 -0.3830 -0.8074
vn 0.0687 -0.5659 -0.8216
vn -0.6687 0.0126 -0.7434
vn -0.6788 -0.1205 -0.7243
vn -0.8394 -0.4487 -0.3067
vn -0.7159 -0.3270 0.6169
vn 0.3843 -0.3850 0.8391
vn 0.3047 -0.9177 0.2547
vn -0.2265 -0.9635 0.1425
vn -0.0791 -0.9932 0.0850
vn 0.2373 -0.7367 0.6332
vn -0.1610 -0.9710 -0.1766
vn -0.3923 -0.8152 0.4262
vn 0.0810 -0.9867 0.1408
vn -0.2058 -0.9566 0.2063
vn -0.6915 -0.5086 -0.5131
vn 0.8828 0.0370 0.4683
vn -0.0424 -0.0591 0.9974
vn -0.2993 -0.2502 -0.9208
vn 0.7173 0.0416 -0.6955
vn 0.5004 0.6653 0.5540
vn -0.3120 0.7697 0.5569
vn -0.7721 0.6206 -0.1365
vn -0.1312 0.7187 -0.6829
vn 0.5220 0.8028 -0.2881
vn 0.4734 0.8278 -0.3012
vn -0.3675 0.8464 -0.3855
vn -0.0542 0.9958 0.0731
vn -0.1123 0.8780 0.4653
vn 0.7467 0.5343 -0.3961
vn 0.7191 -0.0068 -0.6949
vn -0.1464 0.5250 -0.8384
vn -0.3404 0.1870 -0.9215
vn -0.8823 0.4438 -0.1567
vn -0.4033 0.5050 0.7631
vn -0.0558 0.0883 0.9945
vn 0.5552 0.5676 0.6080
vn 0.8837 -0.0047 0.4680
vn -0.0146 -0.4404 -0.8977
vn -0.9177 0.1701 -0.3589
vn -0.8587 -0.3539 -0.3706
vn -0.8425 -0.5376 -0.0356
vn -0.7841 0.0491 0.6187
vn -0.7733 -0.1023 0.6258
vn -0.3695 -0.5196 0.7704
vn 0.6344 -0.4477 0.6302
vn 0.8142 -0.4598 -0.3543
vn 0.1876 -0.9471 -0.2606
vn 0.0717 -0.9831 0.1682
vn 0.0173 -0.9985 0.0525
vn 0.5638 -0.7965 -0.2184
vn -0.2261 -0.9660 0.1256
vn 0.3557 -0.8846 0.3015
vn -0.9974 0.0705 0.0143
vn 0.9969 0.0298 -0.0733
vn 0.3226 -0.8742 -0.3628
vn -0.9995 -0.0250 0.0186
vn 0.9179 0.0999 0.3841
vn -0.7467 0.0370 -0.6641
vn 0.7607 0.0355 0.6482
vn -0.7425 0.0118 -0.6697
vn -0.3106 0.8841 0.3493
vn 0.7473 0.0001 0.6644
vn 0.9906 0.1049 -0.0883
vn 0.1061 -0.0386 0.9936
vn -0.9943 -0.0318 0.1020
vn -0.0973 0.0941 -0.9908
vn 0.0601 -0.8989 0.4339
vn 0.9922 -0.0010 -0.1244
vn -0.0674 0.9140 -0.4001
vn -0.9890 0.0050 0.1477
vn -0.9994 0.0331 0.0067
vn 0.9994 0.0334 0.0024
vn -0.9953 0.0970 0.0071
vn 0.9951 0.0988 -0.0005
vn 0.0180 0.1070 -0.9941
vn -0.9997 0.0256 0.0021
f 1/1/1 2/1/1 3/1/1
f 2/1/2 4/1/2 3/1/2
f 5/1/3 1/1/3 3/1/3
f 6/1/4 4/1/4 2/1/4
f 7/1/5 8/1/5 5/1/5
f 8/1/6 9/1/6 5/1/6
f 10/1/7 11/1/7 9/1/7
f 11/1/8 5/1/8 9/1/8
f 7/1/9 6/1/9 12/1/9
f 13/1/10 14/1/10 15/1/10
f 8/1/11 7/1/11 12/1/11
f 16/1/12 17/1/12 18/1/12
f 17/1/13 19/1/13 18/1/13
f 20/1/14 21/1/14 22/1/14
f 23/1/15 24/1/15 25/1/15
f 26/1/16 27/1/16 28/1/16
f 10/1/17 6/1/17 11/1/17
f 29/1/18 17/1/18 16/1/18
f 30/1/19 29/1/19 16/1/19
f 17/1/20 31/1/20 19/1/20
f 32/1/21 33/1/21 34/1/21
f 35/1/22 31/1/22 17/1/22
f 29/1/23 30/1/23 36/1/23
f 36/1/24 26/1/24 31/1/24
f 36/1/25 30/1/25 26/1/25
f 16/1/26 27/1/26 37/1/26
f 31/1/27 28/1/27 19/1/27
f 38/1/28 15/1/28 35/1/28
f 35/1/29 14/1/29 39/1/29
f 40/1/30 14/1/30 41/1/30
f 40/1/31 13/1/31 38/1/31
f 38/1/32 17/1/32 29/1/32
f 40/1/33 29/1/33 36/1/33
f 40/1/34 31/1/34 39/1/34
f 42/1/35 21/1/35 43/1/35
f 44/1/36 21/1/36 45/1/36
f 46/1/37 45/1/37 20/1/37
f 46/1/38 22/1/38 42/1/38
f 44/1/39 4/1/39 43/1/39
f 42/1/40 4/1/40 7/1/40
f 46/1/41 7/1/41 5/1/41
f 46/1/42 3/1/42 44/1/42
f 47/1/43 1/1/43 48/1/43
f 48/1/44 11/1/44 49/1/44
f 49/1/45 6/1/45 50/1/45
f 47/1/46 6/1/46 2/1/46
f 12/1/47 28/1/47 8/1/47
f 8/1/48 27/1/48 9/1/48
f 9/1/49 18/1/49 10/1/49
f 10/1/50 19/1/50 12/1/50
f 48/1/51 51/1/51 47/1/51
f 48/1/52 34/1/52 33/1/52
f 50/1/53 34/1/53 49/1/53
f 47/1/54 32/1/54 50/1/54
f 30/1/55 23/1/55 25/1/55
f 37/1/56 23/1/56 16/1/56
f 26/1/57 52/1/57 37/1/57
f 30/1/58 24/1/58 26/1/58
f 53/2/59 54/3/59 55/4/59
f 53/5/60 55/6/60 56/7/60
f 55/4/61 54/3/61 57/8/61
f 58/9/62 59/10/62 60/11/62
f 61/12/63 60/11/63 62/13/63
f 55/4/64 57/8/64 63/14/64
f 64/15/65 63/14/65 59/10/65
f 65/16/66 66/17/66 67/18/66
f 68/19/67 65/16/67 69/20/67
f 70/21/68 68/22/68 69/23/68
f 71/24/69 70/21/69 72/25/69
f 66/17/70 71/24/70 67/26/70
f 67/26/71 71/24/71 72/27/71
f 72/25/72 70/21/72 69/28/72
f 69/20/73 67/29/73 72/30/73
f 69/20/74 65/16/74 67/29/74
f 59/10/75 71/24/75 66/17/75
f 59/10/76 63/14/76 71/24/76
f 63/14/77 70/21/77 71/24/77
f 63/14/78 57/8/78 70/21/78
f 73/31/79 68/22/79 70/21/79
f 62/13/80 65/16/80 68/19/80
f 62/13/81 60/11/81 65/16/81
f 60/11/82 66/17/82 65/16/82
f 60/11/83 59/10/83 66/17/83
f 64/15/84 55/4/84 63/14/84
f 57/8/85 73/31/85 70/21/85
f 57/8/86 54/3/86 73/31/86
f 54/3/87 74/32/87 73/31/87
f 73/31/88 62/33/88 68/22/88
f 73/31/89 74/32/89 62/33/89
f 74/32/90 61/34/90 62/33/90
f 61/12/91 58/9/91 60/11/91
f 58/9/92 64/15/92 59/10/92
f 56/7/93 55/6/93 64/15/93
f 54/35/94 53/36/94 74/32/94
f 53/36/95 61/34/95 74/32/95
f 58/9/96 56/37/96 64/15/96
f 53/38/97 56/39/97 61/12/97
f 56/39/98 58/9/98 61/12/98
f 75/2/99 76/3/99 77/4/99
f 75/5/100 77/6/100 78/7/100
f 77/4/101 76/3/101 79/8/101
f 80/9/102 81/10/102 82/11/102
f 83/12/103 82/11/103 84/13/103
f 77/4/104 79/8/104 85/14/104
f 86/15/105 85/14/105 81/10/105
f 87/16/106 88/17/106 89/18/106
f 90/19/107 87/16/107 91/20/107
f 92/21/108 90/22/108 91/23/108
f 93/24/109 92/21/109 94/25/109
f 88/17/110 93/24/110 89/26/110
f 89/26/111 93/24/111 94/27/111
f 94/25/112 92/21/112 91/28/112
f 91/20/113 89/29/113 94/30/113
f 91/20/114 87/16/114 89/29/114
f 81/10/115 93/24/115 88/17/115
f 81/10/116 85/14/116 93/24/116
f 85/14/117 92/21/117 93/24/117
f 85/14/118 79/8/118 92/21/118
f 95/31/119 90/22/119 92/21/119
f 84/13/120 87/16/120 90/19/120
f 84/13/121 82/11/121 87/16/121
f 82/11/122 88/17/122 87/16/122
f 82/11/123 81/10/123 88/17/123
f 86/15/124 77/4/124 85/14/124
f 79/8/125 95/31/125 92/21/125
f 79/8/126 76/3/126 95/31/126
f 76/3/127 96/32/127 95/31/127
f 95/31/128 84/33/128 90/22/128
f 95/31/129 96/32/129 84/33/129
f 96/32/130 83/34/130 84/33/130
f 83/12/131 80/9/131 82/11/131
f 80/9/132 86/15/132 81/10/132
f 78/7/133 77/6/133 86/15/133
f 76/35/134 75/36/134 96/32/134
f 75/36/135 83/34/135 96/32/135
f 80/9/136 78/37/136 86/15/136
f 75/38/137 78/39/137 83/12/137
f 78/39/138 80/9/138 83/12/138
f 11/1/139 1/1/139 5/1/139
f 7/1/140 4/1/140 6/1/140
f 13/1/10 41/1/10 14/1/10
f 20/1/14 45/1/14 21/1/14
f 23/1/15 52/1/15 24/1/15
f 26/1/16 37/1/16 27/1/16
f 10/1/17 12/1/17 6/1/17
f 32/1/21 51/1/21 33/1/21
f 35/1/141 39/1/141 31/1/141
f 16/1/142 18/1/142 27/1/142
f 31/1/143 26/1/143 28/1/143
f 38/1/144 13/1/144 15/1/144
f 35/1/29 15/1/29 14/1/29
f 40/1/145 39/1/145 14/1/145
f 40/1/31 41/1/31 13/1/31
f 38/1/146 35/1/146 17/1/146
f 40/1/147 38/1/147 29/1/147
f 40/1/148 36/1/148 31/1/148
f 42/1/149 22/1/149 21/1/149
f 44/1/150 43/1/150 21/1/150
f 46/1/151 44/1/151 45/1/151
f 46/1/152 20/1/152 22/1/152
f 44/1/153 3/1/153 4/1/153
f 42/1/154 43/1/154 4/1/154
f 46/1/155 42/1/155 7/1/155
f 46/1/156 5/1/156 3/1/156
f 47/1/43 2/1/43 1/1/43
f 48/1/157 1/1/157 11/1/157
f 49/1/45 11/1/45 6/1/45
f 47/1/158 50/1/158 6/1/158
f 12/1/47 19/1/47 28/1/47
f 8/1/48 28/1/48 27/1/48
f 9/1/49 27/1/49 18/1/49
f 10/1/50 18/1/50 19/1/50
f 48/1/51 33/1/51 51/1/51
f 48/1/159 49/1/159 34/1/159
f 50/1/53 32/1/53 34/1/53
f 47/1/160 51/1/160 32/1/160
f 30/1/161 16/1/161 23/1/161
f 37/1/162 52/1/162 23/1/162
f 26/1/57 24/1/57 52/1/57
f 30/1/58 25/1/58 24/1/58
