# Split from 'Forest Pack FonSoul.obj' (Low-Poly Mini Forest Pack FonSoul), object 'Mushroom.001', recentered to local origin
g forest_mushroom_3_obj_0
v -0.182532 -0.107735 -0.125604
v 0.030060 -0.121362 0.122937
v -0.200402 -0.106466 0.105050
v 0.135178 0.004671 0.237270
v 0.069372 1.549750 -0.087361
v 0.054979 1.550491 0.098413
v -0.307416 0.033277 0.202916
v 0.169497 0.002235 -0.205691
v -0.273097 0.030841 -0.240044
v 0.047930 -0.122630 -0.107714
v -0.116248 1.590827 -0.101769
v -0.130641 1.591689 0.084006
v 0.624240 1.281235 0.048452
v 0.378245 1.542192 0.422197
v 0.407178 1.290219 0.476031
v -0.048404 1.308845 0.624759
v -0.394445 1.573687 0.362224
v -0.475631 1.326202 0.407510
v -0.407178 1.323138 -0.476031
v -0.524517 1.578868 -0.036864
v -0.334530 1.571004 -0.411109
v 0.438160 1.539510 -0.351134
v 0.568232 1.534706 0.047952
v -0.020509 1.558495 0.552371
v -0.624240 1.332122 -0.048451
v 0.048403 1.304512 -0.624759
v 0.064223 1.554702 -0.541283
v 0.475631 1.287155 -0.407510
v 0.354004 1.905145 -0.262704
v 0.449000 1.917832 0.028764
v 0.019022 1.896617 0.397161
v -0.349075 1.872496 -0.033181
v -0.210320 1.874030 -0.306506
v 0.080905 1.886243 -0.401578
v 0.310246 1.913282 0.302089
v -0.254078 1.880683 0.258287
v -0.041968 2.182271 0.131135
v -0.087354 2.184079 -0.008117
v -0.021063 2.181335 -0.138701
v 0.248549 2.170346 -0.117774
v 0.293934 2.168538 0.021478
v 0.088507 2.176970 0.197482
v 0.118073 2.175647 -0.184123
v 0.227643 2.171282 0.152061
v -0.478108 1.074510 0.385219
v 0.012188 1.054216 -0.580588
v -0.414062 1.071643 -0.441438
v 0.411909 1.037977 -0.377328
v 0.550950 1.032438 0.049277
v -0.078387 1.058271 0.588481
v -0.617149 1.080049 -0.041386
v 0.347862 1.040844 0.449329
vt 0.891221 0.324217
vt 0.891584 0.323854
vt 0.891221 0.323854
vt 0.891584 0.324217
vt 0.861274 0.014765
vn -0.0645 -0.9979 0.0005
vn 0.9953 0.0585 0.0769
vn -0.1005 -0.6212 0.7772
vn 0.7386 -0.6713 0.0609
vn -0.8123 -0.5802 -0.0597
vn 0.0197 -0.6290 -0.7772
vn 0.2158 0.9764 0.0122
vn -0.9913 0.1065 -0.0774
vn 0.0823 0.0813 -0.9933
vn -0.0589 0.0826 0.9948
vn 0.8762 0.1948 0.4407
vn -0.4234 0.2956 0.8563
vn -0.8303 0.3557 -0.4290
vn 0.9313 0.2052 -0.3011
vn 0.3104 0.2326 0.9217
vn -0.8907 0.3461 0.2948
vn -0.2822 0.3196 -0.9045
vn 0.4463 0.2577 -0.8570
vn 0.9124 0.2685 -0.3090
vn 0.3021 0.3683 0.8793
vn -0.8267 0.4905 0.2758
vn -0.3011 0.3831 -0.8732
vn 0.4152 0.3030 -0.8578
vn 0.8544 0.2950 0.4278
vn -0.3901 0.4503 0.8032
vn -0.7917 0.4624 -0.3993
vn -0.3961 0.5790 0.7126
vn -0.6911 0.6244 -0.3640
vn 0.8241 0.5021 -0.2621
vn 0.2371 0.5239 0.8181
vn -0.7544 0.6153 0.2286
vn -0.2250 0.6036 -0.7649
vn 0.3945 0.5565 -0.7313
vn 0.7775 0.4831 0.4027
vn 0.0407 0.9992 -0.0003
vn 0.0408 0.9992 -0.0003
vn -0.9507 -0.0181 0.3096
vn -0.3125 -0.1210 -0.9422
vn 0.4354 -0.2172 -0.8736
vn 0.8607 -0.2521 0.4423
vn -0.4544 -0.0741 0.8877
vn -0.8914 -0.0377 -0.4517
vn 0.9143 -0.2703 -0.3015
vn 0.2994 -0.1717 0.9386
vn -0.0407 -0.9992 0.0003
vn 0.9953 0.0585 0.0768
vn 0.2151 0.9765 0.0128
vn -0.9913 0.1065 -0.0773
vn 0.0944 0.0785 -0.9924
vn -0.0716 0.0856 0.9938
vn 0.8762 0.1945 0.4409
vn 0.9313 0.2055 -0.3009
vn 0.9133 0.2814 -0.2943
vn 0.2740 0.3412 0.8992
vn -0.8415 0.4731 0.2610
vn -0.2678 0.4106 -0.8716
vn 0.4385 0.3302 -0.8359
vn 0.8522 0.2871 0.4374
vn -0.4311 0.4176 0.7999
vn -0.7819 0.4723 -0.4069
vn -0.3432 0.5998 0.7228
vn -0.7022 0.6183 -0.3530
vn 0.8244 0.4862 -0.2898
vn 0.2798 0.5480 0.7883
vn -0.7396 0.6252 0.2492
vn -0.2737 0.5853 -0.7632
vn 0.3542 0.5323 -0.7689
vn 0.7797 0.4935 0.3854
f 1/1/1 2/2/1 3/3/1
f 4/2/2 5/4/2 6/2/2
f 3/3/3 4/2/3 7/3/3
f 2/2/4 8/4/4 4/2/4
f 3/3/5 9/1/5 1/1/5
f 1/1/6 8/4/6 10/4/6
f 6/2/7 11/1/7 12/3/7
f 7/3/8 11/1/8 9/1/8
f 9/1/9 5/4/9 8/4/9
f 7/3/10 6/2/10 12/3/10
f 13/5/11 14/5/11 15/5/11
f 16/5/12 17/5/12 18/5/12
f 19/5/13 20/5/13 21/5/13
f 13/5/14 22/5/14 23/5/14
f 15/5/15 24/5/15 16/5/15
f 18/5/16 20/5/16 25/5/16
f 26/5/17 21/5/17 27/5/17
f 28/5/18 27/5/18 22/5/18
f 23/5/19 29/5/19 30/5/19
f 14/5/20 31/5/20 24/5/20
f 17/5/21 32/5/21 20/5/21
f 27/5/22 33/5/22 34/5/22
f 22/5/23 34/5/23 29/5/23
f 23/5/24 35/5/24 14/5/24
f 24/5/25 36/5/25 17/5/25
f 21/5/26 32/5/26 33/5/26
f 31/5/27 37/5/27 36/5/27
f 33/5/28 38/5/28 39/5/28
f 30/5/29 40/5/29 41/5/29
f 35/5/30 42/5/30 31/5/30
f 36/5/31 38/5/31 32/5/31
f 34/5/32 39/5/32 43/5/32
f 29/5/33 43/5/33 40/5/33
f 30/5/34 44/5/34 35/5/34
f 42/5/35 41/5/35 43/5/35
f 43/5/35 39/5/35 42/5/35
f 39/5/35 38/5/35 42/5/35
f 38/5/36 37/5/36 42/5/36
f 42/5/35 44/5/35 41/5/35
f 41/5/35 40/5/35 43/5/35
f 25/5/37 45/5/37 18/5/37
f 19/5/38 46/5/38 47/5/38
f 26/5/39 48/5/39 46/5/39
f 15/5/40 49/5/40 13/5/40
f 18/5/41 50/5/41 16/5/41
f 25/5/42 47/5/42 51/5/42
f 28/5/43 49/5/43 48/5/43
f 16/5/44 52/5/44 15/5/44
f 49/5/45 50/5/45 51/5/45
f 51/5/45 47/5/45 46/5/45
f 46/5/45 48/5/45 49/5/45
f 49/5/45 52/5/45 50/5/45
f 50/5/45 45/5/45 51/5/45
f 51/5/45 46/5/45 49/5/45
f 1/1/1 10/4/1 2/2/1
f 4/2/46 8/4/46 5/4/46
f 3/3/3 2/2/3 4/2/3
f 2/2/4 10/4/4 8/4/4
f 3/3/5 7/3/5 9/1/5
f 1/1/6 9/1/6 8/4/6
f 6/2/47 5/4/47 11/1/47
f 7/3/48 12/3/48 11/1/48
f 9/1/49 11/1/49 5/4/49
f 7/3/50 4/2/50 6/2/50
f 13/5/51 23/5/51 14/5/51
f 16/5/12 24/5/12 17/5/12
f 19/5/13 25/5/13 20/5/13
f 13/5/52 28/5/52 22/5/52
f 15/5/15 14/5/15 24/5/15
f 18/5/16 17/5/16 20/5/16
f 26/5/17 19/5/17 21/5/17
f 28/5/18 26/5/18 27/5/18
f 23/5/53 22/5/53 29/5/53
f 14/5/54 35/5/54 31/5/54
f 17/5/55 36/5/55 32/5/55
f 27/5/56 21/5/56 33/5/56
f 22/5/57 27/5/57 34/5/57
f 23/5/58 30/5/58 35/5/58
f 24/5/59 31/5/59 36/5/59
f 21/5/60 20/5/60 32/5/60
f 31/5/61 42/5/61 37/5/61
f 33/5/62 32/5/62 38/5/62
f 30/5/63 29/5/63 40/5/63
f 35/5/64 44/5/64 42/5/64
f 36/5/65 37/5/65 38/5/65
f 34/5/66 33/5/66 39/5/66
f 29/5/67 34/5/67 43/5/67
f 30/5/68 41/5/68 44/5/68
f 25/5/37 51/5/37 45/5/37
f 19/5/38 26/5/38 46/5/38
f 26/5/39 28/5/39 48/5/39
f 15/5/40 52/5/40 49/5/40
f 18/5/41 45/5/41 50/5/41
f 25/5/42 19/5/42 47/5/42
f 28/5/43 13/5/43 49/5/43
f 16/5/44 50/5/44 52/5/44
