# Split from 'Forest Pack FonSoul.obj' (Low-Poly Mini Forest Pack FonSoul), object 'Mushroom.002', recentered to local origin
g forest_mushroom_2_obj_0
v 0.060744 1.542540 0.279980
v 0.124507 -0.007887 0.195435
v 0.120719 0.033472 -0.047195
v 0.417711 1.413591 0.308289
v 0.061591 1.533289 0.334254
v -0.036664 1.523793 0.390032
v -0.100801 0.032925 -0.043829
v -0.097012 -0.008433 0.198801
v -0.393661 1.411588 0.320618
v -0.037511 1.533045 0.335758
v -0.038360 1.542296 0.281487
v 0.005167 1.487438 -0.124651
v 0.011192 1.542418 0.280733
v 0.062438 1.524038 0.388527
v 0.018881 1.337741 0.753556
v 0.012887 1.523916 0.389279
v -0.304036 1.469839 -0.021183
v 0.328085 1.355340 0.650088
v -0.293406 1.353806 0.659533
v 0.317456 1.471373 -0.030626
v -0.098907 0.012246 0.077486
v 0.013748 -0.008160 0.197117
v 0.122613 0.012792 0.074120
v 0.009959 0.033198 -0.045511
v 0.010369 -0.137352 -0.046251
v 0.095992 -0.137140 -0.047552
v -0.075253 -0.137563 -0.044950
v -0.073790 -0.153549 0.048832
v -0.072325 -0.169535 0.142615
v 0.013298 -0.169323 0.141314
v 0.098921 -0.169112 0.140013
v 0.097456 -0.153126 0.046231
v -0.228136 1.572158 0.620898
v -0.236496 1.663405 0.085593
v 0.006659 1.677245 0.004227
v 0.260595 1.573364 0.613472
v 0.017442 1.559525 0.694838
v 0.252237 1.664611 0.078167
v 0.331075 1.619172 0.344685
v -0.306976 1.617598 0.354380
v -0.147005 1.651409 0.541588
v -0.199668 1.681762 0.363554
v 0.173884 1.713167 0.179045
v 0.179468 1.652215 0.536627
v -0.152588 1.712362 0.184006
v 0.009838 1.721606 0.129652
v 0.017042 1.642970 0.590979
v 0.226548 1.682814 0.357079
v -0.090889 1.744779 0.507525
v -0.094609 1.785394 0.269257
v 0.122930 1.785931 0.265951
v 0.158022 1.765705 0.384581
v -0.125980 1.765004 0.388895
v 0.126651 1.745316 0.504219
v 0.013621 1.791554 0.233040
v 0.018421 1.739156 0.540436
v 0.071849 1.822960 0.455849
v 0.018668 1.819933 0.473645
v -0.035045 1.822696 0.457474
v -0.036874 1.842654 0.340391
v 0.070022 1.842918 0.338768
v 0.087265 1.832979 0.397061
v -0.052289 1.832635 0.399182
v 0.016309 1.845681 0.322596
v 0.167739 0.163843 -0.221122
v 0.075043 2.499712 0.048632
v 0.167739 0.163843 0.151627
v 0.075043 2.499712 -0.118128
v 0.614387 2.314493 -0.034748
v 0.075043 2.499712 -0.034748
v -0.075043 2.499712 0.048632
v -0.167739 0.163843 -0.221122
v -0.167739 0.163843 0.151627
v -0.075043 2.499712 -0.118128
v -0.614387 2.314493 -0.034748
v -0.075043 2.499712 -0.034748
v 0.000000 2.314493 -0.709335
v 0.000000 2.499712 -0.118128
v 0.000000 2.314493 0.639839
v 0.000000 2.499712 0.048632
v -0.470606 2.314493 -0.557632
v 0.470605 2.314493 0.488137
v -0.470606 2.314493 0.488137
v 0.470605 2.314493 -0.557632
v -0.167739 0.163843 -0.034748
v 0.000000 0.163843 0.151627
v 0.167739 0.163843 -0.034748
v 0.000000 0.163843 -0.221122
v 0.000000 -0.090930 -0.178823
v 0.129670 -0.090930 -0.178823
v -0.129671 -0.090930 -0.178823
v -0.129671 -0.090930 -0.034748
v -0.129671 -0.090930 0.109328
v 0.000000 -0.090930 0.109328
v 0.129670 -0.090930 0.109328
v 0.129670 -0.090930 -0.034748
v -0.370078 2.630616 0.376442
v -0.370078 2.630616 -0.445938
v 0.000000 2.630616 -0.565235
v 0.370077 2.630616 0.376442
v 0.000000 2.630616 0.495739
v 0.370077 2.630616 -0.445938
v 0.483146 2.630616 -0.034748
v -0.483146 2.630616 -0.034748
v -0.245116 2.728750 0.239796
v -0.320646 2.728750 -0.034878
v 0.249307 2.728750 -0.309553
v 0.249307 2.728750 0.239796
v -0.245116 2.728750 -0.309553
v 0.002096 2.728750 -0.389242
v 0.002096 2.728750 0.319487
v 0.324835 2.728750 -0.034878
v -0.159020 2.859470 0.166508
v -0.159020 2.859470 -0.199541
v 0.170430 2.859469 -0.199541
v 0.220758 2.859469 -0.016515
v -0.209347 2.859470 -0.016515
v 0.170430 2.859469 0.166508
v 0.005705 2.859469 -0.252640
v 0.005705 2.859470 0.219609
v 0.088859 2.963054 0.073282
v 0.007917 2.963054 0.099373
v -0.073027 2.963054 0.073282
v -0.073027 2.963054 -0.106588
v 0.088859 2.963054 -0.106588
v 0.113589 2.963054 -0.016653
v -0.097757 2.963054 -0.016653
v 0.007917 2.963054 -0.132681
v 0.087148 -0.095348 -0.169325
v 0.106808 0.862795 -0.495357
v 0.107136 -0.027391 -0.025476
v 0.097867 0.832392 -0.559713
v 0.328760 0.754064 -0.514810
v 0.102337 0.847594 -0.527534
v 0.042814 0.868847 -0.489324
v -0.055894 -0.081819 -0.155842
v -0.035908 -0.013861 -0.011991
v 0.033873 0.838445 -0.553680
v -0.195171 0.803618 -0.465421
v 0.038342 0.853646 -0.521503
v 0.030621 0.655854 -0.750452
v 0.065869 0.835419 -0.556696
v 0.102966 0.901829 -0.229782
v 0.074812 0.865821 -0.492342
v -0.161903 0.702490 -0.672992
v 0.295491 0.855193 -0.307241
v -0.105827 0.893150 -0.269411
v 0.239415 0.664533 -0.710823
v -0.045902 -0.047840 -0.083917
v 0.035615 -0.020626 -0.018734
v 0.097143 -0.061369 -0.097400
v 0.015626 -0.088584 -0.162584
v 0.013018 -0.179605 -0.098940
v 0.068307 -0.184834 -0.104151
v -0.042273 -0.174375 -0.093727
v -0.034547 -0.148108 -0.038126
v -0.026821 -0.121841 0.017475
v 0.028468 -0.127070 0.012265
v 0.083759 -0.132300 0.007052
v 0.076033 -0.158567 -0.048549
v -0.062900 0.991240 -0.375273
v -0.133159 0.920833 -0.529413
v -0.106999 0.841307 -0.692644
v 0.044401 0.804633 -0.753557
v 0.252692 0.961391 -0.405021
v 0.101292 0.998065 -0.344108
v 0.208594 0.811458 -0.722393
v 0.278853 0.881865 -0.568252
v -0.015067 0.999318 -0.451256
v -0.062000 0.952287 -0.554222
v 0.166290 0.879224 -0.683132
v 0.195748 0.979379 -0.471128
v -0.044524 0.899163 -0.663259
v 0.056610 0.874665 -0.703949
v 0.094614 1.003877 -0.430439
v 0.213223 0.926256 -0.580166
v 0.020215 1.033143 -0.507280
v 0.000587 0.966406 -0.648544
v 0.141061 0.953120 -0.661785
v 0.172333 0.984459 -0.593176
v -0.011057 1.001804 -0.575889
v 0.160689 1.019856 -0.520521
v 0.067977 0.950082 -0.675657
v 0.093299 1.036180 -0.493408
v 0.122891 1.046292 -0.572460
v 0.089778 1.054313 -0.559137
v 0.053866 1.052820 -0.565954
v 0.038500 1.037421 -0.599666
v 0.044221 1.020027 -0.635368
v 0.128614 1.028898 -0.608162
v 0.113246 1.013499 -0.641874
v 0.077335 1.012006 -0.648691
vt 0.891479 0.324085
vt 0.891479 0.324075
vt 0.919690 0.118908
vt 0.919690 0.113281
vt 0.891469 0.324075
vt 0.908435 0.107654
vt 0.908435 0.113281
vt 0.908435 0.118908
vt 0.914062 0.118908
vt 0.919690 0.107654
vt 0.914062 0.107654
vt 0.890789 0.323837
vt 0.891551 0.323837
vt 0.891551 0.324600
vn 0.9991 0.0416 -0.0085
vn -0.3249 -0.9331 -0.1540
vn -0.9991 0.0366 0.0218
vn -0.0154 0.2113 -0.9773
vn 0.3246 -0.9315 -0.1639
vn 0.0045 -0.9909 0.1343
vn -0.0047 -0.8905 -0.4550
vn 0.3374 -0.9386 -0.0715
vn -0.3377 -0.9092 -0.2435
vn 0.0947 -0.8802 -0.4650
vn -0.0949 -0.9846 0.1471
vn 0.0154 -0.1244 0.9921
vn 0.9999 0.0025 -0.0152
vn 0.0001 0.9858 0.1680
vn -0.9999 -0.0025 0.0152
vn -0.0152 0.3272 -0.9448
vn 0.9889 0.1481 0.0098
vn 0.0152 -0.0043 0.9999
vn -0.9889 0.1432 0.0399
vn -0.2679 0.2450 0.9318
vn -0.8988 0.4055 -0.1666
vn -0.2948 0.5384 -0.7895
vn 0.2949 0.2463 0.9232
vn 0.2680 0.5397 -0.7980
vn 0.8989 0.3272 0.2915
vn 0.8913 0.4099 -0.1938
vn -0.8912 0.3228 0.3187
vn -0.5094 0.8106 0.2889
vn 0.1482 0.9312 -0.3331
vn 0.5236 0.8065 0.2747
vn -0.1619 0.9316 -0.3254
vn 0.1629 0.7695 0.6176
vn -0.1470 0.7708 0.6199
vn -0.5139 0.8578 0.0114
vn 0.5193 0.8545 -0.0079
vn -0.2352 0.4548 0.8590
vn -0.7346 0.6740 -0.0778
vn 0.7479 0.6547 -0.1096
vn -0.7555 0.5711 0.3209
vn 0.2081 0.8066 -0.5533
vn 0.7819 0.5474 0.2983
vn -0.2268 0.8105 -0.5400
vn 0.2611 0.4461 0.8561
vn 0.2165 0.6217 0.7527
vn -0.1953 0.6253 0.7555
vn -0.6715 0.7393 -0.0501
vn 0.6799 0.7293 -0.0768
vn -0.6656 0.6777 0.3124
vn 0.1970 0.8364 -0.5114
vn 0.6854 0.6665 0.2933
vn -0.2152 0.8386 -0.5004
vn 0.9992 0.0397 -0.0000
vn -0.3248 -0.9458 -0.0000
vn -0.9992 0.0397 -0.0000
vn -0.0000 0.0440 -0.9990
vn 0.3248 -0.9458 -0.0000
vn -0.0000 -0.9543 0.2990
vn -0.0000 -0.9543 -0.2990
vn 0.3362 -0.9373 0.0924
vn -0.3362 -0.9373 -0.0924
vn 0.0996 -0.9458 -0.3090
vn -0.0996 -0.9458 0.3090
vn -0.0000 0.0440 0.9990
vn 0.0154 -0.1680 0.9857
vn 0.0028 -0.9998 0.0215
vn -0.0001 -0.9858 -0.1680
vn 0.0006 0.9927 -0.1205
vn -0.5469 -0.8267 -0.1324
vn -0.0000 0.1638 -0.9865
vn 0.9890 0.1478 -0.0000
vn -0.0000 0.1638 0.9865
vn -0.9890 0.1478 -0.0000
vn -0.2815 0.3980 0.8731
vn -0.8952 0.3716 -0.2461
vn -0.2815 0.3980 -0.8731
vn 0.2815 0.3980 0.8731
vn 0.2815 0.3980 -0.8731
vn 0.8952 0.3716 0.2461
vn 0.8952 0.3716 -0.2461
vn -0.8952 0.3716 0.2461
vn -0.5117 0.8475 0.1407
vn 0.1555 0.8620 -0.4825
vn 0.5213 0.8412 0.1434
vn -0.1546 0.8637 -0.4797
vn 0.1554 0.8623 0.4820
vn -0.1545 0.8640 0.4792
vn -0.5119 0.8474 -0.1408
vn 0.5215 0.8411 -0.1434
vn -0.2471 0.5926 0.7667
vn -0.7317 0.6513 -0.2012
vn 0.7511 0.6270 -0.2065
vn -0.7589 0.6168 0.2087
vn 0.2185 0.7022 -0.6777
vn 0.7786 0.5899 0.2141
vn -0.2166 0.7082 -0.6720
vn 0.2491 0.5836 0.7729
vn 0.2066 0.7394 0.6408
vn -0.2052 0.7434 0.6366
vn -0.6688 0.7203 -0.1839
vn 0.6828 0.7061 -0.1877
vn -0.6686 0.7205 0.1838
vn 0.2068 0.7386 -0.6416
vn 0.6825 0.7064 0.1877
vn -0.2055 0.7426 -0.6374
vn -0.0000 1.0000 -0.0000
vn 0.9922 -0.0580 -0.1105
vn -0.3640 -0.8216 0.4387
vn -0.9887 0.1294 0.0762
vn -0.1226 -0.3837 -0.9153
vn 0.2798 -0.8825 0.3780
vn -0.0052 -0.7330 0.6802
vn -0.0797 -0.9864 0.1438
vn 0.3030 -0.8367 0.4562
vn -0.3864 -0.8520 0.3532
vn 0.0181 -0.9924 0.1219
vn -0.1023 -0.7118 0.6949
vn 0.1265 0.4631 0.8772
vn 0.2634 0.6726 0.6915
vn -0.9339 -0.3547 -0.0459
vn 0.0317 0.9813 0.1900
vn 0.0406 -0.9837 -0.1753
vn -0.9820 0.1829 0.0465
vn 0.0846 -0.1674 0.9822
vn -0.0151 -0.0407 -0.9991
vn -0.1157 -0.2706 -0.9557
vn 0.9869 0.0404 -0.1562
vn 0.1303 0.5656 0.8143
vn -0.9737 0.2259 0.0286
vn -0.1524 0.7550 0.6378
vn -0.9014 0.3144 -0.2976
vn -0.3701 0.0149 -0.9289
vn 0.4055 0.7022 0.5852
vn 0.1879 -0.0379 -0.9815
vn 0.9345 0.3552 -0.0233
vn 0.8731 0.1466 -0.4649
vn -0.8401 0.5230 0.1440
vn -0.4520 0.8712 -0.1919
vn 0.1324 0.5575 -0.8196
vn 0.5721 0.7697 -0.2833
vn -0.1747 0.5892 -0.7889
vn 0.2525 0.9665 0.0455
vn -0.0549 0.9959 0.0713
vn -0.4872 0.7518 -0.4444
vn 0.5365 0.6481 -0.5405
vn -0.1230 0.8819 0.4550
vn -0.7214 0.5700 -0.3933
vn 0.7467 0.4069 -0.5262
vn -0.6988 0.7153 -0.0082
vn 0.1633 0.3249 -0.9316
vn 0.8247 0.5491 -0.1354
vn -0.2670 0.3735 -0.8884
vn 0.3693 0.8300 0.4181
vn 0.3175 0.9183 0.2363
vn -0.0910 0.9587 0.2694
vn -0.6538 0.6337 -0.4135
vn 0.6848 0.4926 -0.5371
vn -0.6077 0.7897 -0.0837
vn 0.1579 0.3741 -0.9139
vn 0.7313 0.6519 -0.2004
vn -0.2501 0.4181 -0.8733
vn 0.0445 0.9009 -0.4318
vn -0.3348 -0.9403 -0.0613
vn 0.3346 -0.9076 -0.2537
vn 0.1042 -0.9841 0.1441
vn -0.1045 -0.8807 -0.4620
vn -0.3362 -0.9373 0.0924
vn 0.3362 -0.9373 -0.0924
vn 0.0996 -0.9458 0.3090
vn -0.0996 -0.9458 -0.3090
vn 0.6827 0.7061 -0.1877
vn -0.6686 0.7205 0.1839
vn -0.3634 -0.7737 0.5190
vn 0.2800 -0.9150 0.2904
vn 0.0951 -0.7305 0.6763
vn -0.1793 -0.9737 0.1405
vn 0.5365 0.6481 -0.5406
f 1/1/1 2/2/1 3/1/1
f 1/3/2 4/4/2 5/4/2
f 6/5/3 7/5/3 8/5/3
f 7/5/4 1/1/4 3/1/4
f 6/6/5 9/7/5 10/7/5
f 11/8/6 12/9/6 13/9/6
f 14/10/7 15/11/7 16/11/7
f 11/8/8 9/7/8 17/8/8
f 14/10/9 4/4/9 18/10/9
f 6/6/10 15/11/10 19/6/10
f 1/3/11 12/9/11 20/3/11
f 6/5/12 2/2/12 14/2/12
f 21/12/13 8/12/13 7/12/13
f 22/12/14 2/13/14 8/12/14
f 23/12/15 3/14/15 2/13/15
f 24/12/14 7/12/14 3/14/14
f 25/12/14 26/12/14 27/12/14
f 28/12/15 27/12/15 29/12/15
f 30/12/14 29/12/14 31/12/14
f 32/12/13 31/12/13 26/12/13
f 2/2/16 29/5/16 8/5/16
f 8/5/17 27/5/17 7/5/17
f 7/5/18 26/5/18 3/1/18
f 3/1/19 31/5/19 2/2/19
f 15/11/20 33/6/20 19/6/20
f 9/7/21 34/8/21 17/8/21
f 12/9/22 34/8/22 35/9/22
f 15/11/23 36/10/23 37/11/23
f 12/9/24 38/3/24 20/3/24
f 4/4/25 36/10/25 18/10/25
f 4/4/26 38/3/26 39/4/26
f 9/7/27 33/6/27 40/7/27
f 40/7/28 41/6/28 42/7/28
f 35/9/29 43/3/29 38/3/29
f 39/4/30 44/10/30 36/10/30
f 35/9/31 45/8/31 46/9/31
f 37/11/32 44/10/32 47/11/32
f 37/11/33 41/6/33 33/6/33
f 40/7/34 45/8/34 34/8/34
f 39/4/35 43/3/35 48/4/35
f 47/11/36 49/6/36 41/6/36
f 42/7/37 50/8/37 45/8/37
f 48/4/38 51/3/38 52/4/38
f 41/6/39 53/7/39 42/7/39
f 46/9/40 51/3/40 43/3/40
f 44/10/41 52/4/41 54/10/41
f 46/9/42 50/8/42 55/9/42
f 47/11/43 54/10/43 56/11/43
f 56/11/44 57/10/44 58/11/44
f 56/11/45 59/6/45 49/6/45
f 53/7/46 60/8/46 50/8/46
f 52/4/47 61/3/47 62/4/47
f 53/7/48 59/6/48 63/7/48
f 55/9/49 61/3/49 51/3/49
f 52/4/50 57/10/50 54/10/50
f 55/9/51 60/8/51 64/9/51
f 64/9/14 58/11/14 62/4/14
f 60/8/14 63/7/14 64/9/14
f 63/7/14 59/6/14 58/11/14
f 58/11/14 57/10/14 62/4/14
f 62/4/14 61/3/14 64/9/14
f 63/7/14 58/11/14 64/9/14
f 65/1/52 66/2/52 67/2/52
f 68/3/53 69/4/53 70/4/53
f 71/5/54 72/5/54 73/5/54
f 65/1/55 74/5/55 68/1/55
f 71/6/56 75/7/56 76/7/56
f 74/8/57 77/9/57 78/9/57
f 66/10/58 79/11/58 80/11/58
f 74/8/59 75/7/59 81/8/59
f 66/10/60 69/4/60 82/10/60
f 71/6/61 79/11/61 83/6/61
f 68/3/62 77/9/62 84/3/62
f 71/5/63 67/2/63 66/2/63
f 85/12/14 73/12/14 72/12/14
f 86/12/64 67/13/64 73/12/64
f 87/12/13 65/14/13 67/13/13
f 88/12/65 72/12/65 65/14/65
f 89/12/66 90/12/66 91/12/66
f 92/12/14 91/12/14 93/12/14
f 94/12/67 93/12/67 95/12/67
f 96/12/68 95/12/68 90/12/68
f 67/2/69 93/5/69 73/5/69
f 73/5/70 91/5/70 72/5/70
f 72/5/71 90/5/71 65/1/71
f 67/2/72 90/5/72 95/5/72
f 79/11/73 97/6/73 83/6/73
f 75/7/74 98/8/74 81/8/74
f 77/9/75 98/8/75 99/9/75
f 79/11/76 100/10/76 101/11/76
f 77/9/77 102/3/77 84/3/77
f 69/4/78 100/10/78 82/10/78
f 69/4/79 102/3/79 103/4/79
f 75/7/80 97/6/80 104/7/80
f 104/7/81 105/6/81 106/7/81
f 99/9/82 107/3/82 102/3/82
f 103/4/83 108/10/83 100/10/83
f 99/9/84 109/8/84 110/9/84
f 101/11/85 108/10/85 111/11/85
f 101/11/86 105/6/86 97/6/86
f 104/7/87 109/8/87 98/8/87
f 103/4/88 107/3/88 112/4/88
f 111/11/89 113/6/89 105/6/89
f 106/7/90 114/8/90 109/8/90
f 112/4/91 115/3/91 116/4/91
f 106/7/92 113/6/92 117/7/92
f 110/9/93 115/3/93 107/3/93
f 112/4/94 118/10/94 108/10/94
f 110/9/95 114/8/95 119/9/95
f 111/11/96 118/10/96 120/11/96
f 120/11/97 121/10/97 122/11/97
f 120/11/98 123/6/98 113/6/98
f 117/7/99 124/8/99 114/8/99
f 116/4/100 125/3/100 126/4/100
f 117/7/101 123/6/101 127/7/101
f 119/9/102 125/3/102 115/3/102
f 116/4/103 121/10/103 118/10/103
f 119/9/104 124/8/104 128/9/104
f 128/9/105 122/11/105 126/4/105
f 124/8/105 127/7/105 128/9/105
f 127/7/105 123/6/105 122/11/105
f 122/11/105 121/10/105 126/4/105
f 126/4/105 125/3/105 128/9/105
f 127/7/105 122/11/105 128/9/105
f 129/1/106 130/2/106 131/2/106
f 132/3/107 133/4/107 134/4/107
f 135/5/108 136/5/108 137/5/108
f 129/1/109 138/5/109 132/1/109
f 135/6/110 139/7/110 140/7/110
f 138/8/111 141/9/111 142/9/111
f 130/10/112 143/11/112 144/11/112
f 138/8/113 139/7/113 145/8/113
f 130/10/114 133/4/114 146/10/114
f 135/6/115 143/11/115 147/6/115
f 132/3/116 141/9/116 148/3/116
f 135/5/117 131/2/117 130/2/117
f 149/12/14 137/12/14 136/12/14
f 150/12/118 131/13/118 137/12/118
f 151/12/119 129/14/119 131/13/119
f 152/12/120 136/12/120 129/14/120
f 153/12/121 154/12/121 155/12/121
f 156/12/122 155/12/122 157/12/122
f 158/12/123 157/12/123 159/12/123
f 160/12/124 159/12/124 154/12/124
f 137/5/125 159/5/125 157/5/125
f 137/5/126 155/5/126 136/5/126
f 136/5/127 154/5/127 129/1/127
f 131/2/128 154/5/128 159/5/128
f 143/11/129 161/6/129 147/6/129
f 145/8/130 162/7/130 163/8/130
f 141/9/131 163/8/131 164/9/131
f 143/11/132 165/10/132 166/11/132
f 141/9/133 167/3/133 148/3/133
f 133/4/134 165/10/134 146/10/134
f 148/3/135 168/4/135 133/4/135
f 139/7/136 161/6/136 162/7/136
f 162/7/137 169/6/137 170/7/137
f 164/9/138 171/3/138 167/3/138
f 168/4/139 172/10/139 165/10/139
f 164/9/140 173/8/140 174/9/140
f 166/11/141 172/10/141 175/11/141
f 166/11/142 169/6/142 161/6/142
f 162/7/143 173/8/143 163/8/143
f 167/3/144 176/4/144 168/4/144
f 175/11/145 177/6/145 169/6/145
f 170/7/146 178/8/146 173/8/146
f 176/4/147 179/3/147 180/4/147
f 170/7/148 177/6/148 181/7/148
f 174/9/149 179/3/149 171/3/149
f 176/4/150 182/10/150 172/10/150
f 174/9/151 178/8/151 183/9/151
f 175/11/152 182/10/152 184/11/152
f 184/11/153 185/10/153 186/11/153
f 184/11/154 187/6/154 177/6/154
f 178/8/155 188/7/155 189/8/155
f 179/3/156 190/4/156 180/4/156
f 181/7/157 187/6/157 188/7/157
f 183/9/158 191/3/158 179/3/158
f 180/4/159 185/10/159 182/10/159
f 183/9/160 189/8/160 192/9/160
f 192/9/161 186/11/161 190/4/161
f 189/8/161 188/7/161 192/9/161
f 188/7/161 187/6/161 186/11/161
f 186/11/161 185/10/161 190/4/161
f 190/4/161 191/3/161 192/9/161
f 188/7/161 186/11/161 192/9/161
f 1/1/1 14/2/1 2/2/1
f 1/3/162 20/3/162 4/4/162
f 6/5/3 11/5/3 7/5/3
f 7/5/4 11/5/4 1/1/4
f 6/6/163 19/6/163 9/7/163
f 11/8/164 17/8/164 12/9/164
f 14/10/165 18/10/165 15/11/165
f 11/8/5 10/7/5 9/7/5
f 14/10/2 5/4/2 4/4/2
f 6/6/7 16/11/7 15/11/7
f 1/3/6 13/9/6 12/9/6
f 6/5/12 8/5/12 2/2/12
f 2/2/16 31/5/16 29/5/16
f 8/5/17 29/5/17 27/5/17
f 7/5/18 27/5/18 26/5/18
f 3/1/19 26/5/19 31/5/19
f 15/11/20 37/11/20 33/6/20
f 9/7/21 40/7/21 34/8/21
f 12/9/22 17/8/22 34/8/22
f 15/11/23 18/10/23 36/10/23
f 12/9/24 35/9/24 38/3/24
f 4/4/25 39/4/25 36/10/25
f 4/4/26 20/3/26 38/3/26
f 9/7/27 19/6/27 33/6/27
f 40/7/28 33/6/28 41/6/28
f 35/9/29 46/9/29 43/3/29
f 39/4/30 48/4/30 44/10/30
f 35/9/31 34/8/31 45/8/31
f 37/11/32 36/10/32 44/10/32
f 37/11/33 47/11/33 41/6/33
f 40/7/34 42/7/34 45/8/34
f 39/4/35 38/3/35 43/3/35
f 47/11/36 56/11/36 49/6/36
f 42/7/37 53/7/37 50/8/37
f 48/4/38 43/3/38 51/3/38
f 41/6/39 49/6/39 53/7/39
f 46/9/40 55/9/40 51/3/40
f 44/10/41 48/4/41 52/4/41
f 46/9/42 45/8/42 50/8/42
f 47/11/43 44/10/43 54/10/43
f 56/11/44 54/10/44 57/10/44
f 56/11/45 58/11/45 59/6/45
f 53/7/46 63/7/46 60/8/46
f 52/4/47 51/3/47 61/3/47
f 53/7/48 49/6/48 59/6/48
f 55/9/49 64/9/49 61/3/49
f 52/4/50 62/4/50 57/10/50
f 55/9/51 50/8/51 60/8/51
f 65/1/52 68/1/52 66/2/52
f 68/3/166 84/3/166 69/4/166
f 71/5/54 74/5/54 72/5/54
f 65/1/55 72/5/55 74/5/55
f 71/6/167 83/6/167 75/7/167
f 74/8/168 81/8/168 77/9/168
f 66/10/169 82/10/169 79/11/169
f 74/8/56 76/7/56 75/7/56
f 66/10/53 70/4/53 69/4/53
f 71/6/58 80/11/58 79/11/58
f 68/3/57 78/9/57 77/9/57
f 71/5/63 73/5/63 67/2/63
f 67/2/69 95/5/69 93/5/69
f 73/5/70 93/5/70 91/5/70
f 72/5/71 91/5/71 90/5/71
f 67/2/72 65/1/72 90/5/72
f 79/11/73 101/11/73 97/6/73
f 75/7/74 104/7/74 98/8/74
f 77/9/75 81/8/75 98/8/75
f 79/11/76 82/10/76 100/10/76
f 77/9/77 99/9/77 102/3/77
f 69/4/78 103/4/78 100/10/78
f 69/4/79 84/3/79 102/3/79
f 75/7/80 83/6/80 97/6/80
f 104/7/81 97/6/81 105/6/81
f 99/9/82 110/9/82 107/3/82
f 103/4/83 112/4/83 108/10/83
f 99/9/84 98/8/84 109/8/84
f 101/11/85 100/10/85 108/10/85
f 101/11/86 111/11/86 105/6/86
f 104/7/87 106/7/87 109/8/87
f 103/4/88 102/3/88 107/3/88
f 111/11/89 120/11/89 113/6/89
f 106/7/90 117/7/90 114/8/90
f 112/4/91 107/3/91 115/3/91
f 106/7/92 105/6/92 113/6/92
f 110/9/93 119/9/93 115/3/93
f 112/4/94 116/4/94 118/10/94
f 110/9/95 109/8/95 114/8/95
f 111/11/96 108/10/96 118/10/96
f 120/11/97 118/10/97 121/10/97
f 120/11/98 122/11/98 123/6/98
f 117/7/99 127/7/99 124/8/99
f 116/4/170 115/3/170 125/3/170
f 117/7/171 113/6/171 123/6/171
f 119/9/102 128/9/102 125/3/102
f 116/4/103 126/4/103 121/10/103
f 119/9/104 114/8/104 124/8/104
f 129/1/106 132/1/106 130/2/106
f 132/3/172 148/3/172 133/4/172
f 135/5/108 138/5/108 136/5/108
f 129/1/109 136/5/109 138/5/109
f 135/6/173 147/6/173 139/7/173
f 138/8/174 145/8/174 141/9/174
f 130/10/175 146/10/175 143/11/175
f 138/8/110 140/7/110 139/7/110
f 130/10/107 134/4/107 133/4/107
f 135/6/112 144/11/112 143/11/112
f 132/3/111 142/9/111 141/9/111
f 135/5/117 137/5/117 131/2/117
f 137/5/125 131/2/125 159/5/125
f 137/5/126 157/5/126 155/5/126
f 136/5/127 155/5/127 154/5/127
f 131/2/128 129/1/128 154/5/128
f 143/11/129 166/11/129 161/6/129
f 145/8/130 139/7/130 162/7/130
f 141/9/131 145/8/131 163/8/131
f 143/11/132 146/10/132 165/10/132
f 141/9/133 164/9/133 167/3/133
f 133/4/134 168/4/134 165/10/134
f 148/3/135 167/3/135 168/4/135
f 139/7/136 147/6/136 161/6/136
f 162/7/137 161/6/137 169/6/137
f 164/9/138 174/9/138 171/3/138
f 168/4/139 176/4/139 172/10/139
f 164/9/140 163/8/140 173/8/140
f 166/11/141 165/10/141 172/10/141
f 166/11/142 175/11/142 169/6/142
f 162/7/143 170/7/143 173/8/143
f 167/3/176 171/3/176 176/4/176
f 175/11/145 184/11/145 177/6/145
f 170/7/146 181/7/146 178/8/146
f 176/4/147 171/3/147 179/3/147
f 170/7/148 169/6/148 177/6/148
f 174/9/149 183/9/149 179/3/149
f 176/4/150 180/4/150 182/10/150
f 174/9/151 173/8/151 178/8/151
f 175/11/152 172/10/152 182/10/152
f 184/11/153 182/10/153 185/10/153
f 184/11/154 186/11/154 187/6/154
f 178/8/155 181/7/155 188/7/155
f 179/3/156 191/3/156 190/4/156
f 181/7/157 177/6/157 187/6/157
f 183/9/158 192/9/158 191/3/158
f 180/4/159 190/4/159 185/10/159
f 183/9/160 178/8/160 189/8/160
