# Split from 'Forest Pack FonSoul.obj' (Low-Poly Mini Forest Pack FonSoul), object 'Tree.001', recentered to local origin
g forest_tree_4_obj_0
v -0.216101 15.215361 0.107489
v -0.219123 14.214508 -0.191321
v -0.208598 14.637163 0.260008
v 0.317868 14.214508 -0.191321
v 0.620277 6.858952 -2.064695
v -0.322863 10.617387 -1.400664
v -0.521531 6.858952 -2.064695
v 0.370378 11.176159 -2.505201
v -0.322863 10.779710 -2.127222
v -0.271632 11.176159 -2.505201
v 0.370378 11.802591 -2.364634
v -0.276667 12.050982 -1.684874
v 0.375413 12.050982 -1.684874
v 0.299842 15.215361 0.107489
v 0.307344 14.637163 0.260008
v -0.521531 6.759822 -3.202189
v 0.421609 10.779710 -2.127222
v 0.620277 6.759822 -3.202189
v 0.421609 10.617387 -1.400664
v 0.185289 15.451672 -7.402876
v -0.086543 15.365711 -7.660757
v -0.086543 15.451672 -7.402876
v -0.068560 19.722389 4.545595
v 0.167306 19.727585 4.781404
v 0.167306 19.722389 4.545595
v -0.959845 -0.000133 -0.419809
v 1.058591 -0.000133 -2.438250
v 1.058591 -0.000133 -0.419809
v -0.276667 11.811482 -1.078367
v 0.375413 11.811482 -1.078367
v -0.271632 11.802591 -2.364634
v 0.307344 16.393166 4.531732
v -0.208598 16.393166 4.531732
v 0.307344 16.089371 4.948755
v -0.208598 16.089371 4.948755
v 0.317868 14.411737 -0.690779
v -0.219123 14.411737 -0.690779
v 0.291402 15.440974 -0.455263
v -0.169686 12.571212 -6.384936
v 0.268432 12.571212 -6.384936
v 0.268432 12.246171 -6.678698
v -0.169686 12.246171 -6.678698
v 0.185289 15.365711 -7.660757
v 0.693212 4.032860 -0.797041
v -0.594466 4.032860 -0.797041
v -0.594466 3.781039 -2.059858
v 0.693212 3.781039 -2.059858
v -0.959845 -0.000133 -2.438250
v -0.192656 15.440974 -0.455263
v 0.922794 20.549549 -0.133715
v 0.932037 20.638485 -0.355547
v 1.122848 20.638485 -0.355547
v 1.126174 20.549549 -0.133715
v -0.125310 17.700462 2.563600
v -2.384539 17.033234 7.362570
v -4.958979 16.871334 2.759172
v 0.038638 16.571632 -2.316267
v -5.707277 21.748749 6.270918
v 2.139714 18.645370 -5.558668
v 0.608466 22.804874 -7.210680
v 6.085559 22.297935 -0.645395
v 5.173440 17.898846 1.919714
v 4.210792 21.491463 7.143755
v -6.085559 22.613670 -1.716513
v -4.272991 18.412182 -3.562811
v 5.231788 25.626503 2.245676
v 2.124311 26.134552 -5.438872
v 1.567901 29.090454 -0.854361
v 0.776532 25.312080 9.308443
v -0.562014 28.762856 5.595758
v -5.084429 25.625835 5.988993
v -4.251480 26.134151 -3.125372
v -1.813710 29.321758 1.054975
v -1.124459 21.004246 10.649534
v 0.680072 17.587975 8.935350
v 0.246164 13.284081 -7.069861
v -1.328507 12.726422 -8.756209
v 0.886909 12.883962 -9.856611
v 2.287429 13.147099 -6.554976
v -0.615916 14.633925 -10.649534
v 3.169280 14.156506 -5.109717
v 3.858455 15.881478 -5.917532
v 0.320142 15.274187 -3.301279
v -0.342416 13.399812 -3.971064
v -2.535912 14.476318 -5.011465
v 2.676297 15.467598 -10.220122
v 3.381545 13.943540 -8.960646
v -0.917725 16.392666 -4.082174
v 2.703698 17.069210 -5.242590
v 0.743919 17.937065 -5.986700
v -3.092950 15.832585 -7.224486
v -1.548428 17.409199 -7.740301
v -0.815917 16.162987 -10.326948
v 2.766620 16.927261 -9.102080
v 0.484123 17.909657 -8.093634
v -3.100775 14.070151 -8.363424
v -2.492425 12.844054 -7.131457
v -0.068560 19.727585 4.781404
vt 0.367187 0.371094
vt 0.308534 0.556465
vt 0.315540 0.650652
vt 0.288988 0.649749
vt 0.255253 0.555507
vt 0.275487 0.649507
vt 0.242163 0.617979
vt 0.295905 0.744359
vt 0.189293 0.679736
vt 0.202663 0.742683
vt 0.149382 0.741725
vt 0.136012 0.678778
vt 0.109421 0.741007
vt 0.255944 0.743641
vt 0.242574 0.680693
vt 0.136112 0.804193
vt 0.189393 0.805151
vt 0.176484 0.867626
vt 0.096331 0.803478
vt 0.109882 0.866429
vt 0.295955 0.807067
vt 0.349237 0.808024
vt 0.336327 0.870500
vt 0.242674 0.806109
vt 0.276410 0.900351
vt 0.216445 0.868345
vt 0.236629 0.899636
vt 0.296366 0.869781
vt 0.136523 0.866908
vt 0.123434 0.929380
vt 0.335866 0.745077
vt 0.349137 0.682609
vt 0.375827 0.745795
vt 0.388917 0.683324
vt 0.348725 0.619894
vt 0.368682 0.589324
vt 0.202202 0.617260
vt 0.142057 0.585251
vt 0.162241 0.616542
vn -0.9996 -0.0055 0.0284
vn -0.0000 -0.7299 0.6835
vn -0.0000 -0.1740 0.9847
vn -0.0000 -0.6900 -0.7238
vn -0.0000 0.9393 -0.3432
vn 0.9998 0.0153 0.0090
vn -0.9987 0.0505 -0.0044
vn -0.0000 0.2583 -0.9661
vn 0.9986 0.0508 0.0113
vn -0.0000 0.9487 -0.3162
vn -0.0000 0.9998 -0.0220
vn -0.0000 -1.0000 -0.0000
vn -0.0000 -0.2606 0.9655
vn 0.9993 0.0349 0.0138
vn -0.9994 0.0337 0.0075
vn -0.9937 0.0245 -0.1090
vn 0.9937 0.0245 -0.1090
vn -0.0000 0.0042 -1.0000
vn 0.9987 0.0419 0.0305
vn -0.9937 0.1122 -0.0025
vn -0.9914 0.1060 0.0772
vn -0.0000 -0.9552 0.2959
vn 0.9999 0.0117 -0.0048
vn -1.0000 -0.0000 -0.0000
vn 0.9997 0.0209 0.0083
vn -0.0000 0.3881 -0.9216
vn -0.9997 0.0209 0.0083
vn -0.0000 -0.3463 0.9381
vn -0.0000 0.2231 -0.9748
vn -0.0000 0.9822 0.1878
vn 0.9996 0.0179 -0.0198
vn -0.0000 -0.9687 -0.2484
vn -0.9997 0.0055 -0.0243
vn 0.9996 0.0258 -0.0086
vn -0.0000 0.3332 0.9429
vn -0.9996 0.0198 -0.0219
vn -0.0000 -0.3003 -0.9539
vn -0.0000 0.4093 0.9124
vn -0.9997 0.0237 -0.0021
vn -0.0000 -0.3581 -0.9337
vn 0.9997 0.0237 -0.0047
vn -0.0000 0.0996 -0.9950
vn -0.9959 0.0886 -0.0177
vn -0.0000 0.0931 0.9957
vn 0.9954 0.0962 -0.0000
vn 0.9998 0.0161 0.0064
vn -1.0000 0.0027 0.0011
vn -0.0000 0.9663 -0.2573
vn -0.9766 0.2105 0.0437
vn -0.0000 0.0192 -0.9998
vn -0.0000 0.0452 0.9990
vn 0.9847 -0.1560 -0.0773
vn -0.0000 0.9282 0.3721
vn 0.1665 -0.9843 -0.0585
vn 0.1736 -0.9582 0.2275
vn -0.7759 -0.4427 0.4495
vn 0.7687 0.0292 -0.6390
vn 0.9715 -0.0693 0.2267
vn -0.9848 -0.1713 0.0281
vn -0.6342 0.0650 -0.7704
vn 0.7730 0.5717 -0.2748
vn 0.6065 0.6795 0.4129
vn -0.3643 0.6130 0.7011
vn -0.7712 0.6357 -0.0350
vn -0.1989 0.8125 -0.5480
vn -0.2271 0.8337 -0.5033
vn -0.5376 0.8061 0.2474
vn 0.1180 0.9890 0.0892
vn 0.5615 0.7960 0.2259
vn -0.2853 0.5482 -0.7862
vn -0.6346 0.0215 -0.7725
vn -0.8946 0.4432 -0.0570
vn -0.9846 0.1628 0.0643
vn -0.4260 0.4350 0.7933
vn 0.7654 0.4042 0.5008
vn 0.9704 0.0422 0.2379
vn 0.8263 0.4749 -0.3027
vn 0.7675 -0.0084 -0.6410
vn -0.9295 -0.3222 -0.1794
vn -0.6682 0.1602 0.7266
vn -0.6800 -0.3273 0.6561
vn -0.3005 -0.5498 0.7794
vn 0.5479 0.0186 0.8364
vn 0.5528 -0.1216 0.8244
vn 0.7529 -0.4692 0.4614
vn 0.8371 -0.3945 -0.3790
vn -0.2529 -0.4361 -0.8636
vn -0.3157 -0.9134 -0.2569
vn 0.1990 -0.9791 -0.0424
vn 0.0347 -0.9992 -0.0220
vn -0.1593 -0.7816 -0.6031
vn 0.0640 -0.9718 0.2270
vn 0.4397 -0.8584 -0.2641
vn 0.1563 -0.9720 0.1755
vn -0.0965 -0.9881 0.1197
vn -0.3194 -0.6048 -0.7295
vn 0.5711 0.1498 0.8071
vn -0.4796 -0.1400 0.8663
vn 0.1904 -0.2648 -0.9453
vn 0.9386 0.2049 -0.2776
vn 0.0752 0.7414 0.6668
vn -0.6277 0.7154 0.3070
vn -0.7049 0.5401 -0.4598
vn 0.0521 0.7717 -0.6339
vn 0.4132 0.9102 -0.0267
vn 0.3729 0.9260 -0.0580
vn -0.2875 0.8285 -0.4806
vn -0.2363 0.9715 0.0165
vn -0.4321 0.8470 0.3098
vn 0.7129 0.7011 -0.0142
vn 0.9492 0.1522 -0.2754
vn 0.1429 0.5962 -0.7900
vn 0.0726 0.2150 -0.9739
vn -0.7735 0.3464 -0.5308
vn -0.7757 0.4320 0.4600
vn -0.5184 0.0232 0.8549
vn 0.1178 0.6528 0.7483
vn 0.5797 0.1043 0.8082
vn 0.4611 -0.4287 -0.7769
vn -0.6835 0.0640 -0.7271
vn -0.5265 -0.4917 -0.6935
vn -0.6100 -0.6915 -0.3869
vn -0.9777 -0.1108 0.1782
vn -0.9422 -0.2745 0.1920
vn -0.5608 -0.6615 0.4978
vn 0.3607 -0.4243 0.8306
vn 0.9373 -0.3414 0.0705
vn 0.4209 -0.9008 -0.1068
vn 0.1521 -0.9720 0.1794
vn 0.1568 -0.9854 0.0666
vn 0.6929 -0.7168 0.0778
vn -0.0728 -0.9971 0.0234
vn 0.3164 -0.8574 0.4058
vn -0.9986 0.0508 0.0113
vn 0.9987 0.0505 -0.0044
vn 0.9994 0.0337 0.0075
vn -0.9993 0.0349 0.0138
vn -0.9987 0.0445 -0.0237
vn 0.9987 0.0445 -0.0237
vn 1.0000 -0.0000 -0.0000
vn -0.9999 -0.0117 0.0048
vn 0.9997 0.0055 -0.0243
vn -0.9996 0.0179 -0.0198
vn 0.9996 0.0198 -0.0219
vn -0.9996 0.0258 -0.0086
vn -0.9997 0.0237 -0.0047
vn 0.9997 0.0237 -0.0021
vn -0.9954 0.0962 -0.0000
vn 0.9959 0.0886 -0.0177
vn 0.9996 0.0267 -0.0043
vn -0.9991 0.0323 -0.0287
f 1/1/1 2/1/1 3/1/1
f 4/1/2 3/1/2 2/1/2
f 5/1/3 6/1/3 7/1/3
f 8/1/4 9/1/4 10/1/4
f 11/1/5 12/1/5 13/1/5
f 4/1/6 14/1/6 15/1/6
f 7/1/7 9/1/7 16/1/7
f 16/1/8 17/1/8 18/1/8
f 5/1/9 17/1/9 19/1/9
f 20/1/10 21/1/10 22/1/10
f 23/1/11 24/1/11 25/1/11
f 26/1/12 27/1/12 28/1/12
f 19/1/13 29/1/13 6/1/13
f 19/1/14 13/1/14 30/1/14
f 6/1/15 12/1/15 9/1/15
f 9/1/16 31/1/16 10/1/16
f 11/1/17 17/1/17 8/1/17
f 25/1/18 32/1/18 33/1/18
f 25/1/19 34/1/19 32/1/19
f 25/1/20 33/1/20 24/1/20
f 24/1/21 33/1/21 35/1/21
f 35/1/22 15/1/22 34/1/22
f 32/1/23 15/1/23 14/1/23
f 33/1/24 3/1/24 35/1/24
f 4/1/25 13/1/25 36/1/25
f 36/1/26 12/1/26 37/1/26
f 2/1/27 12/1/27 29/1/27
f 2/1/28 30/1/28 4/1/28
f 37/1/29 38/1/29 36/1/29
f 39/1/30 11/1/30 40/1/30
f 40/1/31 8/1/31 41/1/31
f 41/1/32 10/1/32 42/1/32
f 39/1/33 10/1/33 31/1/33
f 40/1/34 43/1/34 20/1/34
f 40/1/35 22/1/35 39/1/35
f 39/1/36 21/1/36 42/1/36
f 41/1/37 21/1/37 43/1/37
f 44/1/38 7/1/38 45/1/38
f 46/1/39 7/1/39 16/1/39
f 46/1/40 18/1/40 47/1/40
f 47/1/41 5/1/41 44/1/41
f 47/1/42 48/1/42 46/1/42
f 46/1/43 26/1/43 45/1/43
f 45/1/44 28/1/44 44/1/44
f 47/1/45 28/1/45 27/1/45
f 36/1/46 14/1/46 4/1/46
f 1/1/47 37/1/47 2/1/47
f 33/1/48 14/1/48 1/1/48
f 49/1/49 50/1/49 51/1/49
f 38/1/50 51/1/50 52/1/50
f 14/1/51 50/1/51 1/1/51
f 38/1/52 53/1/52 14/1/52
f 51/1/53 53/1/53 52/1/53
f 54/2/54 55/3/54 56/4/54
f 54/5/55 56/6/55 57/7/55
f 56/4/56 55/3/56 58/8/56
f 59/9/57 60/10/57 61/11/57
f 62/12/58 61/11/58 63/13/58
f 56/4/59 58/8/59 64/14/59
f 65/15/60 64/14/60 60/10/60
f 66/16/61 67/17/61 68/18/61
f 69/19/62 66/16/62 70/20/62
f 71/21/63 69/22/63 70/23/63
f 72/24/64 71/21/64 73/25/64
f 67/17/65 72/24/65 68/26/65
f 68/26/66 72/24/66 73/27/66
f 73/25/67 71/21/67 70/28/67
f 70/20/68 68/29/68 73/30/68
f 70/20/69 66/16/69 68/29/69
f 60/10/70 72/24/70 67/17/70
f 60/10/71 64/14/71 72/24/71
f 64/14/72 71/21/72 72/24/72
f 64/14/73 58/8/73 71/21/73
f 74/31/74 69/22/74 71/21/74
f 63/13/75 66/16/75 69/19/75
f 63/13/76 61/11/76 66/16/76
f 61/11/77 67/17/77 66/16/77
f 61/11/78 60/10/78 67/17/78
f 65/15/79 56/4/79 64/14/79
f 58/8/80 74/31/80 71/21/80
f 58/8/81 55/3/81 74/31/81
f 55/3/82 75/32/82 74/31/82
f 74/31/83 63/33/83 69/22/83
f 74/31/84 75/32/84 63/33/84
f 75/32/85 62/34/85 63/33/85
f 62/12/86 59/9/86 61/11/86
f 59/9/87 65/15/87 60/10/87
f 57/7/88 56/6/88 65/15/88
f 55/35/89 54/36/89 75/32/89
f 54/36/90 62/34/90 75/32/90
f 59/9/91 57/37/91 65/15/91
f 54/38/92 57/39/92 62/12/92
f 57/39/93 59/9/93 62/12/93
f 76/2/94 77/3/94 78/4/94
f 76/5/95 78/6/95 79/7/95
f 78/4/96 77/3/96 80/8/96
f 81/9/97 82/10/97 83/11/97
f 84/12/98 83/11/98 85/13/98
f 78/4/99 80/8/99 86/14/99
f 87/15/100 86/14/100 82/10/100
f 88/16/101 89/17/101 90/18/101
f 91/19/102 88/16/102 92/20/102
f 93/21/103 91/22/103 92/23/103
f 94/24/104 93/21/104 95/25/104
f 89/17/105 94/24/105 90/26/105
f 90/26/106 94/24/106 95/27/106
f 95/25/107 93/21/107 92/28/107
f 92/20/108 90/29/108 95/30/108
f 92/20/109 88/16/109 90/29/109
f 82/10/110 94/24/110 89/17/110
f 82/10/111 86/14/111 94/24/111
f 86/14/112 93/21/112 94/24/112
f 86/14/113 80/8/113 93/21/113
f 96/31/114 91/22/114 93/21/114
f 85/13/115 88/16/115 91/19/115
f 85/13/116 83/11/116 88/16/116
f 83/11/117 89/17/117 88/16/117
f 83/11/118 82/10/118 89/17/118
f 87/15/119 78/4/119 86/14/119
f 80/8/120 96/31/120 93/21/120
f 80/8/121 77/3/121 96/31/121
f 77/3/122 97/32/122 96/31/122
f 96/31/123 85/33/123 91/22/123
f 96/31/124 97/32/124 85/33/124
f 97/32/125 84/34/125 85/33/125
f 84/12/126 81/9/126 83/11/126
f 81/9/127 87/15/127 82/10/127
f 79/7/128 78/6/128 87/15/128
f 77/35/129 76/36/129 97/32/129
f 76/36/130 84/34/130 97/32/130
f 81/9/131 79/37/131 87/15/131
f 76/38/132 79/39/132 84/12/132
f 79/39/133 81/9/133 84/12/133
f 4/1/2 15/1/2 3/1/2
f 5/1/3 19/1/3 6/1/3
f 8/1/4 17/1/4 9/1/4
f 11/1/5 31/1/5 12/1/5
f 7/1/134 6/1/134 9/1/134
f 16/1/8 9/1/8 17/1/8
f 5/1/135 18/1/135 17/1/135
f 20/1/10 43/1/10 21/1/10
f 23/1/11 98/1/11 24/1/11
f 26/1/12 48/1/12 27/1/12
f 19/1/13 30/1/13 29/1/13
f 19/1/136 17/1/136 13/1/136
f 6/1/137 29/1/137 12/1/137
f 9/1/138 12/1/138 31/1/138
f 11/1/139 13/1/139 17/1/139
f 35/1/22 3/1/22 15/1/22
f 32/1/140 34/1/140 15/1/140
f 33/1/141 1/1/141 3/1/141
f 4/1/25 30/1/25 13/1/25
f 36/1/26 13/1/26 12/1/26
f 2/1/27 37/1/27 12/1/27
f 2/1/28 29/1/28 30/1/28
f 37/1/29 49/1/29 38/1/29
f 39/1/30 31/1/30 11/1/30
f 40/1/142 11/1/142 8/1/142
f 41/1/32 8/1/32 10/1/32
f 39/1/143 42/1/143 10/1/143
f 40/1/144 41/1/144 43/1/144
f 40/1/35 20/1/35 22/1/35
f 39/1/145 22/1/145 21/1/145
f 41/1/37 42/1/37 21/1/37
f 44/1/38 5/1/38 7/1/38
f 46/1/146 45/1/146 7/1/146
f 46/1/40 16/1/40 18/1/40
f 47/1/147 18/1/147 5/1/147
f 47/1/42 27/1/42 48/1/42
f 46/1/148 48/1/148 26/1/148
f 45/1/44 26/1/44 28/1/44
f 47/1/149 44/1/149 28/1/149
f 36/1/150 38/1/150 14/1/150
f 1/1/151 49/1/151 37/1/151
f 33/1/48 32/1/48 14/1/48
f 49/1/49 1/1/49 50/1/49
f 38/1/50 49/1/50 51/1/50
f 14/1/51 53/1/51 50/1/51
f 38/1/52 52/1/52 53/1/52
f 51/1/53 50/1/53 53/1/53
