# Split from 'Forest Pack FonSoul.obj' (Low-Poly Mini Forest Pack FonSoul), object 'rock.001', recentered to local origin
g forest_rock_2_obj_0
v -2.268767 1.451647 0.929643
v -1.137643 1.760898 2.710895
v -0.701269 2.768932 1.701665
v 0.207133 0.946723 -2.948985
v -2.373275 0.037249 -0.060072
v -1.129342 2.068363 -1.786292
v 0.871125 0.000564 1.106889
v 2.177913 0.078989 2.496934
v -0.703928 0.063145 2.985404
v -0.154027 -0.007888 -2.693560
v 2.027959 0.041011 -1.878573
v 0.210158 2.621495 -1.735873
v 0.899615 1.875723 -2.985404
v 2.373275 1.740482 -2.141669
v 0.883599 2.316732 2.916555
v 1.771341 2.295870 1.409984
vt 0.722665 0.637940
vt 0.721370 0.637171
vt 0.721633 0.638203
vt 0.812283 0.690822
vt 0.811366 0.690278
vt 0.810822 0.691194
vt 0.789851 0.677495
vt 0.788935 0.676951
vt 0.788391 0.677867
vt 0.772111 0.666955
vt 0.772483 0.668415
vt 0.773027 0.667499
vt 0.813608 0.692849
vt 0.813236 0.691389
vt 0.812692 0.692305
vt 0.773436 0.668982
vt 0.774897 0.668610
vt 0.773981 0.668065
vt 0.747402 0.652637
vt 0.746106 0.651867
vt 0.746368 0.652900
vt 0.763142 0.661989
vt 0.761846 0.661219
vt 0.762110 0.662252
vt 0.745153 0.651301
vt 0.743857 0.650531
vt 0.744120 0.651564
vt 0.749650 0.653973
vt 0.748354 0.653203
vt 0.748618 0.654236
vt 0.751899 0.655309
vt 0.750604 0.654540
vt 0.750867 0.655572
vt 0.814561 0.693415
vt 0.815477 0.693960
vt 0.816021 0.693044
vt 0.816974 0.693609
vt 0.816429 0.694525
vt 0.817345 0.695070
vt 0.819215 0.696180
vt 0.818843 0.694720
vt 0.818299 0.695636
vt 0.756396 0.657981
vt 0.755101 0.657211
vt 0.755364 0.658244
vt 0.796784 0.682853
vt 0.797328 0.681937
vt 0.796412 0.681393
vt 0.821629 0.696375
vt 0.820168 0.696747
vt 0.821084 0.697291
vt 0.823498 0.697486
vt 0.822038 0.697858
vt 0.822954 0.698402
vt 0.790260 0.678977
vt 0.791176 0.679522
vt 0.791721 0.678605
vt 0.793046 0.680632
vt 0.793590 0.679716
vt 0.792673 0.679171
vt 0.754147 0.656645
vt 0.752852 0.655876
vt 0.753115 0.656908
vt 0.811738 0.691738
vt 0.789307 0.678411
vt 0.815105 0.692499
vt 0.817890 0.694154
vt 0.795868 0.682309
vt 0.790805 0.678061
vt 0.792129 0.680087
vn -0.6974 0.6349 0.3326
vn -0.7153 -0.1433 -0.6840
vn 0.0130 -0.9989 0.0442
vn -0.7586 0.1154 -0.6413
vn 0.3336 -0.3594 -0.8715
vn -0.2852 0.7456 -0.6023
vn -0.0134 -0.9999 0.0058
vn 0.0526 -0.9986 0.0069
vn 0.2911 0.8836 -0.3668
vn -0.8450 -0.2632 0.4654
vn -0.8280 -0.1230 0.5471
vn 0.4681 -0.2273 -0.8540
vn -0.1343 0.1246 0.9831
vn 0.0240 -0.9997 -0.0042
vn -0.2659 0.7371 0.6213
vn 0.9674 -0.1671 0.1901
vn 0.8007 0.3756 0.4666
vn 0.1987 0.9746 0.1036
vn 0.3624 0.9283 -0.0837
vn -0.3736 0.9172 -0.1384
vn -0.9049 0.2869 -0.3145
vn -0.4614 0.3114 -0.8308
vn -0.0179 -0.9997 0.0183
vn 0.3646 -0.3063 -0.8794
vn 0.1669 -0.0876 0.9821
vn 0.9859 0.1636 -0.0352
vn 0.1888 0.9820 0.0079
vn -0.6174 0.7824 -0.0814
f 1/1/1 2/2/1 3/3/1
f 4/4/2 5/5/2 6/6/2
f 7/7/3 8/8/3 9/9/3
f 4/10/4 10/11/4 5/12/4
f 11/13/5 10/14/5 4/15/5
f 12/16/6 13/17/6 6/18/6
f 5/19/7 10/20/7 7/21/7
f 7/22/8 11/23/8 8/24/8
f 14/25/9 13/26/9 12/27/9
f 9/28/10 1/29/10 5/30/10
f 9/31/11 2/32/11 1/33/11
f 13/34/12 14/35/12 11/36/12
f 15/37/13 2/38/13 9/39/13
f 10/40/14 11/41/14 7/42/14
f 2/43/15 15/44/15 3/45/15
f 11/46/16 14/47/16 16/48/16
f 15/49/17 8/50/17 16/51/17
f 15/52/18 16/53/18 3/54/18
f 16/55/19 14/56/19 12/57/19
f 3/58/20 12/59/20 6/60/20
f 6/61/21 5/62/21 1/63/21
f 4/4/22 6/6/22 13/64/22
f 7/7/23 9/9/23 5/65/23
f 13/34/24 11/36/24 4/66/24
f 15/37/25 9/39/25 8/67/25
f 11/46/26 16/48/26 8/68/26
f 16/55/27 12/57/27 3/69/27
f 3/58/28 6/60/28 1/70/28
