# Split from 'Forest Pack FonSoul.obj' (Low-Poly Mini Forest Pack FonSoul), object 'rock.002', recentered to local origin
g forest_rock_3_obj_0
v -1.395455 0.473945 2.487318
v -2.070348 2.178396 1.591456
v -2.511537 0.395608 -0.299062
v -0.179735 2.707736 0.758181
v -1.517630 1.702278 2.410784
v 1.132794 2.619577 -1.306253
v 0.032590 2.761576 -2.149858
v -1.127617 0.303836 -2.396844
v 1.192762 0.621298 -2.487318
v 2.511537 1.310152 0.125121
v 2.398026 0.040288 0.225234
v -1.075168 -0.006298 1.462744
v -2.234671 2.086289 -1.269231
v 1.842460 0.043551 -1.107431
v -1.079039 0.053826 -1.300630
vt 0.799606 0.684530
vt 0.800151 0.683614
vt 0.801067 0.684159
vt 0.723234 0.639154
vt 0.724266 0.638891
vt 0.724529 0.639924
vt 0.727163 0.640613
vt 0.726130 0.640875
vt 0.725867 0.639843
vt 0.738976 0.648507
vt 0.740008 0.648243
vt 0.740271 0.649277
vt 0.802936 0.685269
vt 0.802392 0.686185
vt 0.801476 0.685641
vt 0.803888 0.685835
vt 0.804806 0.686380
vt 0.804262 0.687296
vt 0.832300 0.703955
vt 0.831384 0.703411
vt 0.831928 0.702494
vt 0.765391 0.663325
vt 0.764359 0.663588
vt 0.764095 0.662555
vt 0.727731 0.641826
vt 0.728764 0.641564
vt 0.729027 0.642596
vt 0.704676 0.627250
vt 0.703643 0.627515
vt 0.703381 0.626481
vt 0.776222 0.670637
vt 0.775306 0.670092
vt 0.775850 0.669176
vt 0.806674 0.687490
vt 0.806130 0.688406
vt 0.805214 0.687862
vt 0.807627 0.688056
vt 0.808544 0.688601
vt 0.807999 0.689517
vt 0.729980 0.643163
vt 0.731013 0.642900
vt 0.731275 0.643932
vt 0.809497 0.689167
vt 0.810413 0.689711
vt 0.809869 0.690628
vt 0.705244 0.628466
vt 0.706277 0.628202
vt 0.706539 0.629235
vt 0.732229 0.644499
vt 0.733261 0.644236
vt 0.733524 0.645268
vt 0.823907 0.698968
vt 0.825368 0.698597
vt 0.824823 0.699513
vt 0.826320 0.699162
vt 0.826693 0.700623
vt 0.825775 0.700078
vt 0.829105 0.700817
vt 0.827645 0.701189
vt 0.828189 0.700273
vt 0.794542 0.680282
vt 0.794914 0.681742
vt 0.793998 0.681198
vt 0.830431 0.702844
vt 0.829514 0.702300
vt 0.830059 0.701384
vt 0.824451 0.698052
vt 0.827237 0.699707
vt 0.828561 0.701733
vt 0.795458 0.680826
vn -0.9136 -0.1669 0.3707
vn -0.0158 0.8598 0.5103
vn 0.1081 0.9938 0.0263
vn -0.0558 0.1259 -0.9905
vn 0.8987 -0.1137 -0.4237
vn 0.1764 -0.8689 0.4624
vn 0.4515 0.5518 0.7012
vn -0.9806 0.1894 0.0502
vn -0.8412 -0.0501 0.5384
vn 0.5845 0.4258 -0.6907
vn -0.8256 -0.1730 -0.5371
vn -0.4196 0.2847 -0.8619
vn 0.8110 0.3155 -0.4926
vn 0.9166 0.1188 -0.3818
vn -0.2457 -0.9691 -0.0207
vn -0.5117 -0.8283 0.2283
vn -0.3534 -0.9153 -0.1931
vn -0.0021 -0.9998 -0.0217
vn 0.0229 -0.9183 -0.3953
vn 0.4984 0.1032 0.8608
vn -0.2866 0.9580 -0.0032
vn 0.4934 0.8240 0.2785
vn 0.0109 -0.9999 -0.0070
vn 0.1234 -0.9663 -0.2259
vn 0.5139 0.0217 0.8576
vn -0.2758 0.9611 -0.0151
f 1/1/1 2/2/1 3/3/1
f 4/4/2 2/5/2 5/6/2
f 6/7/3 7/8/3 4/9/3
f 8/10/4 7/11/4 9/12/4
f 9/13/5 10/14/5 11/15/5
f 12/16/6 11/17/6 1/18/6
f 10/19/7 4/20/7 5/21/7
f 3/22/8 2/23/8 13/24/8
f 1/25/9 5/26/9 2/27/9
f 6/28/10 9/29/10 7/30/10
f 13/31/11 8/32/11 3/33/11
f 13/34/12 7/35/12 8/36/12
f 6/37/13 10/38/13 9/39/13
f 14/40/14 9/41/14 11/42/14
f 15/43/15 12/44/15 3/45/15
f 1/46/16 3/47/16 12/48/16
f 3/49/17 8/50/17 15/51/17
f 14/52/18 12/53/18 15/54/18
f 15/55/19 9/56/19 14/57/19
f 1/58/20 10/59/20 5/60/20
f 13/61/21 4/62/21 7/63/21
f 10/64/22 6/65/22 4/66/22
f 14/52/23 11/67/23 12/53/23
f 15/55/24 8/68/24 9/56/24
f 1/58/25 11/69/25 10/59/25
f 13/61/26 2/70/26 4/62/26
