# Blender 5.1.1
# www.blender.org

g scaffold_box_scaffold_box
v 1.075000 2.325000 0.964662
v 1.075000 2.325000 1.250000
v -0.964662 2.325000 1.250000
v -0.964662 2.325000 1.075000
v 0.964661 2.325000 1.075000
v -1.075000 2.325000 -0.964662
v -1.075000 2.325000 -1.250000
v 0.964662 2.325000 -1.250000
v 0.964662 2.325000 -1.075000
v -0.964660 2.325000 -1.075000
v 1.075000 0.175000 1.075000
v 1.250000 0.175000 1.075000
v 1.250000 0.175000 -0.964660
v 1.075000 0.175000 -0.964660
v 1.250000 0.000000 1.250000
v 1.250000 2.500000 1.250000
v -1.250000 2.500000 1.250000
v -1.250000 0.000000 1.250000
v -1.075000 0.175000 1.250000
v -1.075000 2.214662 1.250000
v 0.964660 0.175000 1.250000
v 1.075000 0.285340 1.250000
v 1.250000 2.214662 1.075000
v 1.250000 2.325000 -1.075000
v 1.250000 0.285340 -1.075000
v 1.250000 2.325000 0.964662
v 1.250000 0.000000 -1.250000
v 1.250000 2.500000 -1.250000
v -0.964660 0.175000 -1.075000
v -0.964660 0.175000 -1.250000
v 1.075000 2.214662 -1.250000
v 1.075000 2.214662 -1.075000
v -1.075000 0.285340 -1.250000
v -1.075000 0.285340 -1.075000
v 1.075000 0.175000 -1.250000
v -1.250000 2.500000 -1.250000
v -1.250000 0.000000 -1.250000
v 0.964661 0.175000 -1.075000
v -1.075000 0.175000 0.964661
v 0.964660 0.175000 1.075000
v -0.964662 0.175000 1.075000
v 1.075000 2.214662 1.075000
v 1.075000 0.285340 1.075000
v 1.075000 0.285340 -1.075000
v -1.075000 2.325000 1.075000
v -1.250000 2.325000 1.075000
v -1.250000 2.325000 -0.964662
v -1.075000 2.500000 1.075000
v -1.075000 2.500000 -0.964661
v -1.250000 0.285340 1.075000
v -1.250000 0.175000 0.964660
v -1.250000 0.175000 -1.075000
v -1.250000 2.214662 -1.075000
v -1.075000 0.175000 -1.075000
v -1.075000 0.000000 0.964661
v -1.075000 0.000000 -1.075000
v 0.964661 0.000000 -1.075000
v 1.075000 2.325000 -1.075000
v 1.075000 2.500000 -1.075000
v -0.964660 2.500000 -1.075000
v -1.075000 2.214662 -1.075000
v -0.964662 0.000000 1.075000
v 1.075000 0.000000 -0.964660
v 1.075000 0.000000 1.075000
v 0.964661 2.500000 1.075000
v -1.075000 2.214662 1.075000
v -1.075000 0.285340 1.075000
v 1.075000 2.500000 0.964662
vn -0.0000 -1.0000 -0.0000
vn -0.0000 1.0000 -0.0000
vn -0.0000 -0.0000 1.0000
vn 1.0000 -0.0000 -0.0000
vn 0.7071 -0.7071 -0.0000
vn -0.7071 0.7071 -0.0000
vn -0.0000 -0.0000 -1.0000
vn -1.0000 -0.0000 -0.0000
vn -0.7071 -0.0000 -0.7071
vn 0.7071 -0.0000 0.7071
vn -0.0000 -0.7071 0.7071
vn -0.7071 -0.7071 -0.0000
vn 0.7071 0.7071 -0.0000
vn -0.0000 0.7071 -0.7071
vn 0.7071 -0.0000 -0.7071
vn -0.7071 -0.0000 0.7071
vn -0.0000 -0.7071 -0.7071
vn -0.0000 0.7071 0.7071
vt -4.079321 0.350000
vt -0.000000 4.429323
vt -0.220677 4.650000
vt -0.000000 5.000000
vt -4.079323 5.000000
vt -4.079323 4.650000
vt -4.300000 0.570677
vt -4.300000 0.000000
vt -0.220677 -0.000000
vt -0.220677 0.350000
vt -4.079321 5.000000
vt -0.000000 4.650000
vt -4.079321 4.650000
vt -4.650000 5.000000
vt -0.220679 4.650000
vt 0.350000 5.000000
vt -0.000000 4.429321
vt 0.350000 -0.000000
vt 0.000000 0.350000
vt -4.079323 0.350000
vt -4.650000 0.000000
vt -4.300000 4.650000
vt 4.254321 0.175000
vt 0.395677 4.475000
vt 0.175000 4.254323
vt -0.175000 4.825000
vt -0.175000 -0.175000
vt 0.175000 0.175000
vt 4.825000 -0.175000
vt 4.475000 0.395679
vt 4.825000 4.825000
vt 4.475000 4.475000
vt 0.312087 0.000000
vt 6.081119 -0.000000
vt 0.312087 0.350000
vt 6.081119 0.350000
vt 0.000000 0.000000
vt 5.769033 0.000000
vt 5.769033 0.350000
vt 4.475000 0.175000
vt 4.475000 4.254321
vt 4.254321 4.475000
vt 0.175000 4.475000
vt 0.175000 0.395677
vt 0.395677 0.175000
vt 0.350000 0.570679
vt 0.350000 4.429321
vt 0.000000 0.570679
vt 0.570679 4.650000
vt 4.650000 0.570677
vt 4.429323 0.350000
vt 5.000000 0.350000
vt 5.000000 4.429321
vt 4.650000 4.429321
vt 0.570677 0.350000
vt 0.570677 -0.000000
vt 4.429321 0.350000
vt 4.650000 -0.000000
vt 4.650000 0.570679
vt 0.570677 4.650000
vt 0.350000 4.429323
vt 4.429321 5.000000
vt 4.429321 4.650000
vt -0.000000 0.570677
vt 0.350000 4.650000
vt 0.350000 0.570677
vt 0.350000 0.350000
vt -4.650000 4.429323
vt -4.650000 0.350000
vt -4.300000 0.570679
vt -4.300000 0.350000
vt -0.220679 0.000000
vt -0.220679 0.350000
vt -4.300000 4.429323
vt 5.000000 0.570679
vt 5.000000 4.650000
vt 4.650000 4.650000
vt 4.650000 0.350000
vt 0.570679 0.000000
vt 0.570679 0.350000
vt 5.000000 4.429323
vt 4.650000 4.429323
vt 4.429323 5.000000
vt 4.429323 4.650000
vt 5.000000 5.000000
vt 5.000000 0.000000
vt 0.312086 0.350000
vt -1.818982 -2.150000
vt -1.818982 -2.500000
vt 2.039662 -2.150000
vt 2.260339 -2.500000
vt 2.260339 -1.929323
vt -1.818982 2.150000
vt -2.039661 1.929323
vt -2.039661 2.500000
vt 2.039662 2.500000
vt 2.039662 2.150000
s 1
usemtl Steel_-_Satin
f 10/1/1 1/2/1 5/3/1
f 5/3/1 1/2/1 2/4/1
f 5/3/1 2/4/1 3/5/1
f 3/5/1 4/6/1 5/3/1
f 5/3/1 6/7/1 10/1/1
f 10/1/1 6/7/1 7/8/1
f 10/1/1 7/8/1 8/9/1
f 8/9/1 9/10/1 10/1/1
f 12/4/2 13/11/2 11/12/2
f 11/12/2 13/11/2 14/13/2
f 16/14/3 22/15/3 15/16/3
f 15/16/3 22/15/3 21/17/3
f 15/16/3 21/17/3 18/18/3
f 18/18/3 21/17/3 19/19/3
f 18/18/3 19/19/3 20/20/3
f 17/21/3 3/7/3 16/14/3
f 16/14/3 3/7/3 2/22/3
f 16/14/3 2/22/3 22/15/3
f 3/7/3 17/21/3 20/20/3
f 20/20/3 17/21/3 18/18/3
f 3/7/3 20/20/3 21/17/3
f 21/17/3 22/15/3 3/7/3
f 13/23/4 26/24/4 23/25/4
f 23/25/4 26/24/4 16/26/4
f 23/25/4 16/26/4 15/27/4
f 12/28/4 15/27/4 13/23/4
f 13/23/4 15/27/4 27/29/4
f 13/23/4 27/29/4 25/30/4
f 25/30/4 27/29/4 28/31/4
f 25/30/4 28/31/4 24/32/4
f 24/32/4 28/31/4 26/24/4
f 26/24/4 28/31/4 16/26/4
f 15/27/4 12/28/4 23/25/4
f 13/23/4 25/30/4 26/24/4
f 30/33/5 31/34/5 29/35/5
f 29/35/5 31/34/5 32/36/5
f 8/37/6 33/38/6 9/19/6
f 9/19/6 33/38/6 34/39/6
f 35/40/7 27/29/7 30/41/7
f 30/41/7 27/29/7 37/31/7
f 30/41/7 37/31/7 33/42/7
f 33/42/7 37/31/7 36/26/7
f 33/42/7 36/26/7 7/43/7
f 7/43/7 36/26/7 8/44/7
f 8/44/7 36/26/7 28/27/7
f 8/44/7 28/27/7 31/45/7
f 31/45/7 28/27/7 27/29/7
f 31/45/7 27/29/7 35/40/7
f 8/44/7 31/45/7 30/41/7
f 33/42/7 8/44/7 30/41/7
f 29/46/2 38/47/2 30/48/2
f 30/48/2 38/47/2 35/12/2
f 35/12/2 38/47/2 14/49/2
f 14/49/2 38/47/2 41/50/2
f 41/50/2 38/47/2 39/51/2
f 41/50/2 39/51/2 19/52/2
f 19/52/2 21/53/2 41/50/2
f 41/50/2 21/53/2 40/54/2
f 32/55/8 31/56/8 44/57/8
f 44/57/8 31/56/8 35/58/8
f 44/57/8 35/58/8 14/59/8
f 14/59/8 42/60/8 44/57/8
f 44/57/8 42/60/8 1/61/8
f 1/61/8 42/60/8 2/16/8
f 2/16/8 42/60/8 22/62/8
f 22/62/8 42/60/8 43/63/8
f 46/12/1 47/64/1 45/65/1
f 45/65/1 47/64/1 6/66/1
f 48/65/4 45/12/4 49/46/4
f 49/46/4 45/12/4 6/64/4
f 47/24/8 46/32/8 17/31/8
f 17/31/8 46/32/8 50/30/8
f 17/31/8 50/30/8 18/29/8
f 18/29/8 50/30/8 51/23/8
f 18/29/8 51/23/8 37/27/8
f 37/27/8 51/23/8 52/28/8
f 37/27/8 52/28/8 53/25/8
f 51/23/8 50/30/8 47/24/8
f 51/23/8 47/24/8 53/25/8
f 53/25/8 47/24/8 36/26/8
f 53/25/8 36/26/8 37/27/8
f 17/31/8 36/26/8 47/24/8
f 39/2/2 54/19/2 51/47/2
f 51/47/2 54/19/2 52/67/2
f 39/61/4 55/2/4 54/67/4
f 54/67/4 55/2/4 56/19/4
f 53/68/3 52/69/3 34/70/3
f 34/70/3 52/69/3 54/71/3
f 34/70/3 54/71/3 29/1/3
f 29/1/3 54/71/3 56/8/3
f 29/1/3 56/8/3 57/72/3
f 57/72/3 38/73/3 29/1/3
f 34/70/3 29/1/3 9/3/3
f 9/3/3 29/1/3 32/2/3
f 9/3/3 32/2/3 58/12/3
f 58/12/3 32/2/3 24/65/3
f 24/65/3 32/2/3 25/46/3
f 25/46/3 32/2/3 44/48/3
f 58/12/3 59/4/3 9/3/3
f 9/3/3 59/4/3 60/11/3
f 9/3/3 60/11/3 10/13/3
f 34/70/3 61/74/3 53/68/3
f 57/33/9 55/34/9 38/35/9
f 38/35/9 55/34/9 39/36/9
f 63/38/10 14/39/10 62/37/10
f 62/37/10 14/39/10 41/19/10
f 63/75/8 64/76/8 14/59/8
f 14/59/8 64/76/8 11/77/8
f 48/52/7 4/50/7 45/78/7
f 45/78/7 4/50/7 66/51/7
f 45/78/7 66/51/7 46/58/7
f 46/58/7 66/51/7 50/79/7
f 50/79/7 66/51/7 67/80/7
f 48/52/7 65/81/7 4/50/7
f 4/50/7 65/81/7 5/82/7
f 66/51/7 4/50/7 40/47/7
f 40/47/7 4/50/7 43/49/7
f 40/47/7 43/49/7 11/65/7
f 11/65/7 43/49/7 12/16/7
f 12/16/7 43/49/7 23/83/7
f 23/83/7 43/49/7 42/84/7
f 11/65/7 64/12/7 40/47/7
f 40/47/7 64/12/7 62/64/7
f 40/47/7 62/64/7 41/66/7
f 13/33/11 23/34/11 14/35/11
f 14/35/11 23/34/11 42/36/11
f 62/66/1 64/65/1 15/4/1
f 15/4/1 64/65/1 63/63/1
f 15/4/1 63/63/1 27/85/1
f 27/85/1 63/63/1 57/54/1
f 27/85/1 57/54/1 37/86/1
f 37/86/1 57/54/1 56/78/1
f 37/86/1 56/78/1 55/55/1
f 57/54/1 63/63/1 62/66/1
f 15/4/1 18/37/1 62/66/1
f 62/66/1 18/37/1 55/55/1
f 62/66/1 55/55/1 57/54/1
f 18/37/1 37/86/1 55/55/1
f 28/37/2 68/61/2 16/4/2
f 16/4/2 68/61/2 65/60/2
f 16/4/2 65/60/2 17/85/2
f 17/85/2 65/60/2 48/77/2
f 17/85/2 48/77/2 49/59/2
f 36/86/2 60/57/2 28/37/2
f 28/37/2 60/57/2 59/67/2
f 28/37/2 59/67/2 68/61/2
f 60/57/2 36/86/2 49/59/2
f 49/59/2 36/86/2 17/85/2
f 60/57/2 49/59/2 65/60/2
f 65/60/2 68/61/2 60/57/2
f 21/33/12 20/34/12 40/35/12
f 40/35/12 20/34/12 66/36/12
f 3/37/13 22/38/13 4/19/13
f 4/19/13 22/38/13 43/39/13
f 59/19/8 58/67/8 68/2/8
f 68/2/8 58/67/8 1/61/8
f 26/37/14 25/38/14 1/19/14
f 1/19/14 25/38/14 44/39/14
f 1/2/1 58/19/1 26/61/1
f 26/61/1 58/19/1 24/67/1
f 60/33/15 68/34/15 10/35/15
f 10/35/15 68/34/15 1/36/15
f 65/37/16 49/38/16 5/19/16
f 5/19/16 49/38/16 6/39/16
f 39/87/17 51/33/17 61/36/17
f 61/36/17 51/33/17 53/34/17
f 47/37/18 50/38/18 6/19/18
f 6/19/18 50/38/18 67/39/18
f 34/88/4 33/89/4 61/90/4
f 61/90/4 33/89/4 7/91/4
f 61/90/4 7/91/4 6/92/4
f 6/92/4 67/93/4 61/90/4
f 61/90/4 67/93/4 39/94/4
f 39/94/4 67/93/4 19/95/4
f 19/95/4 67/93/4 20/96/4
f 20/96/4 67/93/4 66/97/4
