# Blender 5.1.1
# www.blender.org
mtllib tree_2.mtl
g trunk_2_obj_0.002
v -1.513500 -19.452253 -4.648457
v 2.746120 -12.002256 -1.852204
v 2.746780 -12.009624 -1.851595
v -1.524300 -19.447407 -4.689106
v 2.782770 -15.451097 -2.537183
v 2.793480 -15.431602 -2.552890
v 2.697030 -11.685856 -1.907720
v -2.142800 -25.453516 -2.289450
v 2.722660 -11.754618 -1.874326
v 2.723820 -11.757715 -1.872830
v 2.780720 -15.451570 -2.534258
v -2.114000 -25.457561 -2.321597
v -1.506600 -19.447025 -4.723703
v 3.039640 -13.086819 -1.803623
v 3.042700 -13.089886 -1.804747
v 3.128070 -13.175795 -1.836236
v -2.067900 -25.464422 -2.334273
v 3.127950 -21.098013 -2.222986
v 3.129040 -21.117008 -2.239077
v 2.729380 -12.260960 -1.887867
v 2.702200 -12.348554 -1.930595
v 2.730050 -12.251254 -1.886470
v 3.129090 -21.117809 -2.239755
v 3.132400 -13.176038 -1.837698
v 2.769300 -20.956022 -2.227682
v 3.127890 -21.096855 -2.222003
v -2.022100 -25.471548 -2.322751
v 3.157510 -13.177485 -1.846185
v 2.667660 -11.607140 -1.945945
v -1.994000 -25.476294 -2.291401
v 2.600630 -11.623200 -2.042118
v 2.666620 -11.607393 -1.947448
v 2.586810 -11.671594 -2.064003
v 2.599800 -11.626117 -2.043440
v 3.008200 -20.958002 -2.048093
v 2.788190 -14.995796 -2.555617
v 2.607290 -12.713414 -2.082375
v -1.994400 -25.476728 -2.252104
v 2.616970 -12.434139 -2.055856
v 3.008200 -12.923913 -1.787767
v 2.601020 -12.394366 -2.076748
v 3.008200 -12.963301 -1.789051
v 2.679960 -12.420194 -1.965526
v 2.619910 -12.433486 -2.051628
v 2.682200 -12.412972 -1.962007
v 2.959300 -21.200441 -2.337172
v 2.977280 -21.166534 -2.357459
v -2.023200 -25.472681 -2.219957
v 3.062250 -21.186754 -2.301479
v 3.063480 -21.186592 -2.299877
v 3.066640 -21.186167 -2.295732
v 3.067490 -21.186060 -2.294611
v 2.656870 -15.233567 -2.317322
v 2.656820 -15.231482 -2.317920
v 3.128160 -12.713871 -1.821304
v 3.166360 -12.716259 -1.834221
v 2.654270 -15.101040 -2.355404
v 3.036200 -12.801025 -1.793203
v 3.127270 -12.714714 -1.821033
v 2.654260 -15.100639 -2.356280
v 2.654210 -15.097841 -2.362490
v -2.069300 -25.465822 -2.207281
v 3.035700 -12.803227 -1.793107
v 2.974340 -21.166393 -2.360368
v 2.660010 -15.393007 -2.362683
v 2.660030 -15.394315 -2.363797
v 2.717480 -14.993865 -2.455029
v 2.659930 -15.388859 -2.361497
v 2.947870 -21.210304 -2.334110
v 2.728740 -15.463298 -2.460013
v -2.068600 -25.465122 -2.270777
v 2.587950 -11.728559 -2.141855
v 2.592420 -11.955821 -2.183662
v 3.136590 -14.267549 -1.874480
v 2.949140 -21.209211 -2.334448
v 2.588040 -11.733150 -2.142696
v 2.953150 -21.205750 -2.335521
v 2.592580 -11.963874 -2.182581
v 2.597910 -12.235430 -2.146271
v 3.255790 -12.735001 -1.864930
v 3.242960 -12.721004 -1.860155
v 2.598080 -12.244374 -2.142360
v 3.241810 -12.720927 -1.859764
v 3.659400 0.025301 -2.295661
v 2.769300 -20.954250 -2.388372
v 3.236380 -14.332640 -1.910179
v 3.228130 -14.357882 -1.908217
v 3.155900 -20.952820 -2.518264
v 3.008200 -20.952272 -2.567961
v 3.228470 -14.359211 -1.908372
v 3.235710 -14.387575 -1.911735
v 3.235800 -13.181964 -1.872686
v 3.239390 -13.178830 -1.873792
v 7.394200 -18.748285 0.811833
v 3.250520 -13.169072 -1.877224
v -1.478400 -19.459599 -4.617135
v 7.363300 -18.754974 0.774457
v 3.155900 -20.957453 -2.097790
v 7.400000 -18.744453 0.854178
v 2.590960 -11.879622 -2.348272
v 7.378500 -18.744797 0.885376
v -1.467300 -19.451256 -4.738951
v 7.337900 -18.749186 0.893428
v 3.250350 -13.182799 -1.877615
v 3.372180 -14.592582 -2.115496
v 3.372210 -14.590908 -2.116838
v 3.045700 -20.959248 -2.116510
v 3.001830 -12.941044 -1.790466
v -1.421400 -19.458364 -4.729128
v 7.293700 -18.756086 0.875351
v 3.003030 -12.945249 -1.790202
v 2.860500 -20.957453 -2.097790
v 2.917680 -12.838412 -1.815466
v -1.386300 -19.465811 -4.697809
v 7.262800 -18.762674 0.837976
v 3.449500 -14.226664 -2.177818
v 2.898110 -21.103920 -2.446465
v 3.379040 -14.241795 -2.263090
v 6.554600 -25.414999 -6.183362
v 6.514200 -25.422279 -6.158141
v 3.378330 -14.277835 -2.275878
v 2.898750 -21.103642 -2.446402
v 7.257000 -18.766609 0.795630
v 3.378320 -14.278104 -2.275970
v 2.705300 -14.996797 -2.437621
v 3.467900 -14.214247 -2.043073
v 7.278501 -18.766266 0.764432
v -1.375500 -19.470558 -4.657159
v 2.705410 -14.996775 -2.437780
v 6.595900 -25.410620 -6.181614
v 2.924890 -21.097876 -2.442428
v 2.715850 -15.466203 -2.441584
v 2.946480 -21.126270 -2.430350
v 2.714090 -15.463940 -2.439129
v 6.622500 -25.410929 -6.153615
v 2.946800 -21.126747 -2.429535
v 2.973940 -21.165813 -2.361382
v 3.399400 -14.215341 -1.943879
v 2.816630 -20.976616 -2.116792
v -1.393100 -19.470940 -4.622561
v 2.819380 -20.975460 -2.116439
v 7.319200 -18.761776 0.756381
v 6.624100 -25.415810 -6.109966
v 2.816630 -20.976665 -2.116782
v 2.800370 -21.114185 -2.090446
v 2.799100 -20.972294 -2.121555
v -1.432400 -19.466806 -4.607314
v 2.752100 -21.023529 -2.490541
v 2.800200 -21.115627 -2.090172
v 2.714900 -20.958155 -2.215704
v 7.328500 -18.755529 0.824854
v -1.440200 -19.369637 0.159746
v 2.860500 -20.952820 -2.518264
v 2.716100 -20.956858 -2.333397
v 2.937440 -21.015230 -2.503071
v 2.894460 -15.000032 -2.591326
v 2.894040 -15.000026 -2.591186
v -1.393300 -19.382204 0.147607
v 2.944160 -15.118370 -2.606811
v 2.700490 -21.011374 -2.374911
v 2.700000 -21.011772 -2.377805
v 2.700570 -21.012926 -2.376608
v 2.894510 -15.000154 -2.591347
v -1.449900 -19.458982 -4.673132
v -1.480900 -19.361593 0.146834
v 2.700570 -21.012934 -2.376618
v 2.872930 -21.012709 -2.457120
v 2.734950 -21.030397 -2.428154
v 2.914040 -21.011772 -2.466791
v 2.943740 -15.119831 -2.606657
v 2.702380 -21.011532 -2.376913
v 2.751190 -21.015553 -2.428510
v 2.899360 -15.277385 -2.590102
v -1.499700 -19.361233 0.114036
v 2.905570 -20.995674 -2.460903
v 3.374970 -14.449134 -2.229832
v 2.802300 -20.968899 -2.429636
v -1.489500 -19.368689 0.073751
v 2.924260 -21.092659 -2.443951
v 2.924790 -21.097044 -2.442669
v 2.605800 0.029204 -2.649839
v 3.375010 -14.447008 -2.230409
v 2.893700 -15.297467 -2.587993
v 2.926000 -20.989256 -2.497164
v 2.891170 -15.300858 -2.587111
v 3.379210 -14.234349 -2.163811
v 3.379300 -14.230230 -2.109113
v -1.454200 -19.381033 0.041413
v 2.772710 -21.066137 -2.445798
v 2.735310 -21.030735 -2.428327
v 2.773070 -21.066175 -2.445899
v 2.847210 -21.073021 -2.465376
v 2.751770 -21.015541 -2.428650
v 2.793060 -21.014565 -2.438349
v -1.407200 -19.393602 0.029374
v 3.247100 -20.954250 -2.388372
v 3.247100 -20.956022 -2.227682
v 5.045700 -25.508766 2.324421
v -1.366500 -19.401646 0.042286
v 5.037700 -25.515247 2.277347
v 5.028300 -25.504780 2.361967
v 2.940600 -20.989578 -2.467866
v 6.600100 -25.423279 -6.067346
v -1.347700 -19.402006 0.075084
v 3.097800 -20.971107 -2.229248
v 2.847810 -21.073383 -2.465150
v 6.559800 -25.430555 -6.042125
v -1.357900 -19.394550 0.115369
v 6.518400 -25.434938 -6.043874
v 6.491900 -25.434629 -6.071872
v 2.904000 -20.986492 -2.267840
v 5.000000 -17.129333 2.358569
v 4.993700 -17.135818 2.311895
v -1.423700 -19.381618 0.094510
v 6.490300 -25.429747 -6.115520
v 4.992200 -25.504932 2.375767
v 4.981700 -17.125353 2.396515
v 4.951200 -25.509163 2.360519
v 3.055260 -20.990576 -2.362071
v 3.054660 -20.990633 -2.362211
v 3.053340 -20.990740 -2.362513
v 4.945900 -17.125517 2.411414
v 6.557200 -25.422779 -6.112743
v 2.815050 -21.241787 -2.129955
v 2.815230 -21.246628 -2.135549
v 2.816290 -21.247158 -2.137165
v 4.906100 -17.129761 2.397467
v 3.334240 -12.891950 -1.983837
v 3.333800 -12.889447 -1.983099
v 2.914690 -20.987942 -2.283397
v 2.914680 -20.987930 -2.283377
v 3.312280 -12.765540 -1.946801
v 2.904740 -20.986589 -2.268921
v 2.860300 -21.023075 -2.531839
v 4.877600 -17.136349 2.359892
v 3.311470 -12.765103 -1.945616
v 4.871300 -17.142933 2.313216
v 2.792800 -21.133980 -2.093725
v 2.793060 -21.135246 -2.094149
v 2.814640 -21.239763 -2.129273
v 2.939040 -20.991220 -2.318815
v 4.921000 -25.515739 2.321944
v 4.889600 -17.146816 2.275171
v 3.270200 -14.229526 -1.918133
v 4.925400 -17.146652 2.260372
v 2.814600 -20.972300 -2.121055
v 2.815820 -20.974888 -2.118493
v 4.913000 -25.522219 2.274870
v 3.250760 -14.232538 -1.926087
v 2.815800 -20.974888 -2.118523
v 2.808480 -20.973635 -2.128860
v 4.930400 -25.526207 2.237324
v 2.922450 -20.988987 -2.294689
v 2.922740 -20.989021 -2.295099
v 2.838140 -20.977629 -2.171987
v 2.817880 -20.974901 -2.142525
v 4.965200 -17.142506 2.274319
v 3.252590 -14.507108 -1.941224
v 3.253510 -14.508613 -1.942600
v 3.305610 -14.593807 -2.020704
v 4.966500 -25.526054 2.223525
v 3.307110 -14.593803 -2.022844
v 3.308640 -14.593800 -2.025014
v 3.266130 -14.232266 -1.947976
v 4.935600 -17.136084 2.335893
v 5.007400 -25.521822 2.238872
v 3.047000 -20.967319 -2.572927
v -2.115100 -25.458694 -2.218803
v 3.171000 -20.954275 -2.567683
v 3.317340 -14.231323 -2.020869
v 4.979300 -25.515493 2.299645
v 2.776530 -14.979605 -2.539407
v -2.143200 -25.453949 -2.250252
v 3.250600 -20.955202 -2.483588
v 2.776560 -14.979644 -2.539448
v 3.305460 -13.055170 -1.950293
v 3.255400 -20.969748 -2.352641
v 3.183500 -20.992256 -2.224981
v 3.306330 -13.050199 -1.951309
v 3.347630 -12.969096 -2.006438
v 3.119930 -21.022671 -2.177503
v 3.119970 -21.040560 -2.197592
v 3.119710 -21.022554 -2.177152
v 3.114990 -21.020115 -2.169885
v 3.160480 -21.026415 -2.220667
v 3.116250 -21.014095 -2.186109
v 3.116030 -21.013916 -2.185897
v 3.106410 -21.006296 -2.176713
v 2.937500 -20.959703 -2.075213
v 3.371580 -14.593521 -2.114687
v 3.363060 -14.230515 -2.085994
v 3.119050 -21.020607 -2.179580
v 3.325810 -14.231170 -2.032938
v 3.117110 -21.020185 -2.188746
v 3.118870 -21.020580 -2.179140
v 2.872800 -21.275352 -2.223081
v 2.873590 -21.274662 -2.226843
v 2.875010 -21.273439 -2.228890
v 2.871620 -21.274763 -2.221284
v 3.056020 -20.990517 -2.361900
v 3.081570 -20.991068 -2.332685
v 3.076110 -20.988846 -2.357301
v 3.060740 -20.990128 -2.360816
v 3.111660 -21.003397 -2.196842
v 3.111570 -21.003448 -2.196492
v 2.938750 -20.991228 -2.467814
v 2.946660 -20.990534 -2.466336
v 2.938770 -20.991228 -2.467814
v 2.980510 -20.996836 -2.379191
v 2.732271 -10.398045 -1.798749
v 2.727878 -10.397183 -1.804965
v 2.710148 -10.393701 -1.830080
v 2.709147 -10.393506 -1.831483
v 2.634845 -10.378923 -1.936644
v 2.661151 -10.384084 -1.899423
v 2.686921 -10.389139 -1.862964
v 2.633904 -10.378736 -1.937984
v 2.574347 -10.367052 -2.022243
v 2.573549 -10.366895 -2.023378
v 2.561118 -10.364456 -2.040960
v 3.008200 -10.406865 -1.706209
v 3.030555 -10.405301 -1.713679
v 2.730925 -10.278418 -2.585200
v 2.803388 -10.273319 -2.609632
v 3.106354 -10.400005 -1.738997
v 3.179628 -10.394885 -1.763469
v 3.030966 -10.405272 -1.713815
v 3.105619 -10.400055 -1.738752
v 3.210949 -10.392698 -1.773926
v 3.080643 -10.261247 -2.654239
v 3.008200 -10.258916 -2.678635
v 3.285656 -10.267831 -2.585268
v 3.284307 -10.387567 -1.798451
v 3.273679 -10.388310 -1.794896
v 3.272738 -10.388375 -1.794580
v 2.560982 -10.356993 -2.090038
v 2.560791 -10.346360 -2.159942
v 2.560285 -10.318767 -2.341374
v 2.605017 -10.308187 -2.405310
v 2.934821 -10.404517 -1.730834
v 2.964690 -10.261976 -2.663975
v 2.930330 -10.264391 -2.652403
v 2.930008 -10.264415 -2.652291
v 2.930295 -10.264393 -2.652387
v 3.330349 -10.276694 -2.521421
v 3.455617 -10.347451 -2.040663
v 3.455948 -10.329263 -2.160161
v 3.456449 -10.301695 -2.341297
v 3.456061 -10.323204 -2.199975
v 3.456285 -10.310817 -2.281364
v 3.456259 -10.312232 -2.272061
v 3.456282 -10.310805 -2.281432
v 2.723094 -10.280269 -2.574012
v 2.858571 -10.402081 -1.756400
v 3.377430 -10.365760 -1.930113
v 3.397569 -10.361046 -1.958576
v 3.397976 -10.360951 -1.959149
v 3.410299 -10.358064 -1.976578
v 2.645651 -10.298579 -2.463367
v 2.723074 -10.280272 -2.573984
v 3.376758 -10.365918 -1.929154
v 3.330409 -10.376772 -1.863628
v 2.727380 -10.397084 -1.805674
vn -0.8182 -0.0135 -0.5747
vn -0.8178 -0.0135 -0.5753
vn -0.8183 -0.0262 0.5742
vn -0.1364 -0.9874 -0.0806
vn -0.8181 -0.0262 0.5745
vn -0.8184 -0.0262 0.5741
vn 0.0418 -0.6441 0.7638
vn 0.9570 0.2148 -0.1951
vn 0.0361 -0.6446 0.7636
vn -0.8180 -0.0262 0.5746
vn -0.8200 -0.0262 0.5718
vn -0.8180 -0.0262 0.5747
vn -0.1361 -0.9873 -0.0816
vn -0.8188 -0.0261 0.5735
vn 0.3309 -0.6077 -0.7219
vn 0.3311 -0.6076 -0.7220
vn 0.3309 -0.6076 -0.7220
vn -0.8182 -0.0262 0.5744
vn -0.3189 -0.0098 -0.9477
vn 0.7828 -0.2461 -0.5716
vn 0.3186 -0.0307 0.9474
vn -0.3176 -0.0098 -0.9482
vn 0.5336 -0.6244 -0.5704
vn 0.5340 -0.6243 -0.5701
vn 0.3184 -0.0307 0.9474
vn -0.1519 -0.9883 -0.0136
vn 0.3336 -0.6063 -0.7219
vn -0.1515 -0.9884 -0.0124
vn -0.1506 -0.9885 -0.0126
vn -0.1505 -0.9885 -0.0126
vn -0.1507 -0.9885 -0.0126
vn 0.6534 -0.7570 -0.0003
vn 0.6531 -0.7572 0.0072
vn -0.1517 -0.9884 -0.0115
vn 0.3172 -0.0308 0.9479
vn 0.3185 -0.0307 0.9474
vn 0.3183 -0.0307 0.9475
vn -0.1518 -0.9883 -0.0135
vn 0.7527 0.5865 0.2991
vn 0.6535 -0.7570 0.0001
vn 0.2078 -0.3891 -0.8975
vn 0.2069 -0.3887 -0.8978
vn -0.8181 -0.0135 -0.5749
vn -0.4718 -0.7677 0.4336
vn -0.9998 -0.0196 -0.0002
vn -0.0000 -0.9999 -0.0110
vn 0.3186 -0.0098 -0.9479
vn -0.2509 -0.7478 -0.6147
vn -0.4702 -0.7671 0.4365
vn -0.9998 -0.0196 -0.0008
vn -0.9997 -0.0208 0.0120
vn -0.9998 -0.0196 -0.0003
vn -0.4701 -0.7671 0.4366
vn -0.9998 -0.0199 0.0020
vn -0.6274 0.2051 0.7512
vn 0.7289 0.1995 -0.6550
vn -0.9998 -0.0196 0.0015
vn -0.9998 -0.0195 0.0048
vn -0.6267 0.2039 0.7521
vn -0.4697 -0.7670 0.4371
vn 0.3189 -0.0307 0.9473
vn -0.7624 0.5877 0.2709
vn -0.7625 0.5867 0.2726
vn -0.7625 0.5850 0.2762
vn 0.3189 -0.0306 0.9473
vn -0.9998 -0.0197 -0.0002
vn -0.9998 -0.0199 -0.0003
vn -0.9998 -0.0199 -0.0020
vn -0.9998 -0.0196 -0.0001
vn 0.3185 -0.0310 0.9474
vn -0.4701 -0.7670 0.4367
vn 0.3216 -0.0283 0.9464
vn -0.4688 -0.7672 0.4378
vn 0.3191 -0.0307 0.9472
vn 0.3193 -0.0314 0.9471
vn 0.3193 -0.0309 0.9472
vn -0.0843 -0.6190 -0.7808
vn -0.0911 -0.6216 -0.7780
vn -0.8236 -0.0139 -0.5670
vn -0.8183 -0.0135 -0.5747
vn -0.0531 0.9903 -0.1284
vn -0.3189 -0.0307 0.9473
vn -0.1374 -0.9872 -0.0808
vn -0.3188 -0.0307 0.9473
vn -0.3191 -0.0310 0.9472
vn -0.3204 -0.0320 0.9467
vn 0.7340 0.2142 -0.6445
vn 0.2025 -0.2479 -0.9474
vn 0.1994 -0.2513 -0.9472
vn 0.5358 -0.6239 -0.5689
vn -0.3369 0.5763 0.7446
vn -0.5330 -0.7582 -0.3756
vn -0.7875 0.2038 0.5817
vn -0.8182 -0.0135 -0.5748
vn -0.7869 0.2045 0.5822
vn -0.7877 0.2033 0.5815
vn 0.5856 -0.7577 0.2882
vn -0.8184 -0.0135 -0.5745
vn -0.7878 -0.6146 -0.0399
vn -0.2088 0.2056 0.9561
vn -0.2271 0.1805 0.9570
vn -0.2084 0.2077 0.9558
vn -0.7254 -0.6336 -0.2692
vn -0.2071 0.2062 0.9563
vn -0.2308 -0.7555 -0.6132
vn 0.2221 -0.6322 0.7423
vn -0.7875 -0.6151 -0.0390
vn -0.7874 -0.6152 -0.0388
vn 0.1235 -0.9897 0.0727
vn 0.1230 -0.9896 0.0739
vn -0.7917 -0.6090 -0.0483
vn 0.1240 -0.9895 0.0746
vn 0.1223 -0.9898 0.0734
vn -0.2336 0.5986 -0.7663
vn -0.2397 0.6048 -0.7594
vn 0.1219 -0.9897 0.0749
vn -0.9446 -0.2632 0.1961
vn -0.1353 -0.9875 -0.0814
vn 0.1238 -0.9895 0.0746
vn -0.2165 0.3607 0.9072
vn 0.1226 -0.9896 0.0752
vn 0.1994 0.2503 -0.9474
vn -0.7253 -0.6336 -0.2692
vn -0.7265 -0.6318 -0.2700
vn -0.1375 -0.9872 -0.0808
vn -0.8780 -0.3511 0.3254
vn 0.6140 -0.2519 -0.7480
vn 0.1226 -0.9897 0.0736
vn 0.1231 -0.9896 0.0739
vn -0.0535 0.9903 -0.1281
vn -0.0506 0.9905 -0.1282
vn -0.0538 0.9903 -0.1281
vn -0.0527 0.9905 -0.1268
vn -0.5321 -0.7582 -0.3768
vn 0.6138 -0.2515 -0.7483
vn -0.1365 -0.9874 -0.0803
vn -0.0520 0.9905 -0.1275
vn -0.1367 -0.9875 -0.0790
vn -0.5583 0.5977 -0.5754
vn -0.5334 -0.7582 -0.3750
vn 0.1236 -0.9896 0.0735
vn -0.1355 -0.9876 -0.0798
vn -0.5706 0.6076 -0.5524
vn -0.1372 -0.9873 -0.0796
vn -0.2278 0.2268 -0.9469
vn -0.1358 -0.9875 -0.0800
vn -0.3186 -0.0098 -0.9478
vn -0.2280 0.2264 -0.9470
vn 0.7338 0.2138 -0.6449
vn 0.1998 -0.2527 -0.9467
vn -0.5586 0.5978 -0.5750
vn -0.3187 -0.0098 -0.9478
vn -0.3141 -0.0098 -0.9493
vn 0.7941 0.5858 -0.1618
vn -0.5585 0.5978 -0.5751
vn -0.5592 0.5987 -0.5735
vn -0.5584 0.5978 -0.5751
vn 0.6139 -0.2516 -0.7482
vn 0.2375 0.2234 -0.9454
vn 0.7942 0.5855 -0.1624
vn -0.1231 0.9896 -0.0744
vn -0.1230 0.9896 -0.0743
vn -0.5584 0.5979 -0.5750
vn 0.6165 -0.2557 -0.7447
vn -0.5593 0.5975 -0.5746
vn -0.8246 -0.2475 -0.5086
vn -0.8250 -0.2481 -0.5078
vn -0.7253 -0.6339 -0.2686
vn -0.1230 0.9896 -0.0740
vn -0.3184 -0.0098 -0.9479
vn -0.2308 -0.7554 -0.6132
vn 0.0961 0.5867 0.8041
vn -0.2536 -0.7553 -0.6043
vn -0.3189 -0.0098 -0.9478
vn -0.8248 -0.2476 -0.5083
vn -0.2269 0.2257 -0.9474
vn -0.8246 -0.2479 -0.5085
vn -0.2350 0.2350 -0.9431
vn -0.2324 0.2317 -0.9446
vn -0.7688 -0.6187 0.1620
vn 0.1997 -0.2500 -0.9474
vn -0.7692 -0.6182 0.1620
vn -0.7689 -0.6183 0.1628
vn -0.8228 -0.2473 -0.5116
vn -0.2278 0.2267 -0.9470
vn -0.5326 -0.7582 -0.3762
vn -0.8253 -0.2497 -0.5065
vn -0.2375 0.2365 -0.9421
vn -0.2280 0.2250 -0.9473
vn -0.2278 0.2267 -0.9469
vn 0.3162 -0.6167 -0.7209
vn -0.0861 -0.6192 -0.7805
vn -0.2280 0.2266 -0.9469
vn -0.2284 -0.9661 0.1203
vn -0.0873 -0.6198 -0.7799
vn 0.8369 0.2054 0.5073
vn -0.2264 -0.7567 -0.6134
vn 0.3980 -0.2472 -0.8835
vn 0.3998 -0.2458 -0.8830
vn -0.2416 -0.2712 0.9317
vn -0.2414 -0.2709 0.9318
vn 0.3996 -0.2460 -0.8831
vn -0.6249 0.2011 0.7543
vn 0.1994 -0.2514 -0.9471
vn 0.1993 -0.2513 -0.9472
vn 0.7464 0.6030 0.2816
vn 0.8182 -0.0135 -0.5747
vn -0.0530 0.9903 -0.1287
vn 0.0281 -0.6460 0.7628
vn 0.2024 -0.2548 -0.9456
vn -0.0532 0.9903 -0.1285
vn 0.1992 -0.2512 -0.9472
vn 0.9998 -0.0196 -0.0002
vn 0.9635 0.2149 -0.1599
vn -0.0536 0.9903 -0.1284
vn -0.0575 0.9901 -0.1280
vn -0.7883 -0.6140 -0.0406
vn 0.5317 -0.6222 -0.5746
vn 0.5329 -0.6235 -0.5721
vn 0.9998 -0.0196 -0.0018
vn -0.2289 -0.9661 0.1197
vn -0.2278 -0.9663 0.1202
vn -0.2277 -0.9663 0.1201
vn 0.9986 -0.0197 -0.0492
vn -0.2279 -0.9663 0.1198
vn -0.2280 -0.9661 0.1211
vn -0.0532 0.9903 -0.1282
vn -0.0737 0.9896 -0.1236
vn -0.0484 0.9905 -0.1291
vn -0.2283 -0.9661 0.1202
vn 0.1092 -0.9876 -0.1128
vn -0.2288 -0.9661 0.1196
vn -0.9451 -0.2615 0.1958
vn 0.1083 -0.9876 -0.1134
vn 0.1076 -0.9878 -0.1128
vn -0.2282 -0.9661 0.1210
vn 0.9998 -0.0196 -0.0026
vn 0.1076 -0.9876 -0.1144
vn 0.5393 -0.6287 0.5603
vn 0.2754 0.1045 0.9556
vn 0.1077 -0.9876 -0.1144
vn 0.2215 -0.6318 0.7428
vn 0.9635 0.2158 -0.1585
vn 0.1081 -0.9876 -0.1136
vn -0.2156 0.3603 0.9076
vn -0.2157 0.3603 0.9075
vn 0.1078 -0.9878 -0.1128
vn 0.1293 0.9250 -0.3574
vn 0.5393 -0.6285 0.5605
vn 0.1076 -0.9878 -0.1126
vn 0.1094 -0.9876 -0.1128
vn -0.7438 0.5133 0.4280
vn -0.7421 0.5133 0.4310
vn 0.9635 0.2143 -0.1604
vn 0.5390 -0.6283 0.5610
vn -0.2425 -0.2699 0.9319
vn -0.7419 0.5133 0.4314
vn 0.7514 0.5873 0.3007
vn 0.7521 0.5869 0.3000
vn 0.7520 0.5869 0.3001
vn 0.5391 -0.6284 0.5608
vn 0.2615 0.7222 0.6404
vn -0.8760 0.3826 -0.2936
vn 0.2630 0.7222 0.6398
vn -0.0532 0.9903 -0.1284
vn -0.7869 0.2046 0.5822
vn 0.0590 -0.9895 0.1317
vn -0.6453 0.1259 -0.7534
vn -0.9451 -0.2611 0.1964
vn -0.9454 -0.2585 0.1984
vn -0.6457 0.1262 -0.7531
vn -0.3238 0.5821 0.7458
vn -0.2787 -0.1333 -0.9511
vn -0.3235 0.5823 0.7458
vn -0.3241 0.5818 0.7460
vn 0.2200 -0.2715 0.9369
vn 0.2179 -0.2692 0.9381
vn -0.7967 0.2057 0.5683
vn 0.2217 -0.6319 0.7427
vn -0.7287 -0.6214 -0.2879
vn -0.2795 -0.1326 -0.9509
vn 0.2180 -0.2693 0.9380
vn 0.2183 -0.2696 0.9379
vn 0.2186 -0.2700 0.9377
vn 0.1515 0.9884 0.0125
vn 0.2150 0.9099 -0.3547
vn 0.1510 0.9884 0.0138
vn 0.7267 -0.5424 -0.4215
vn -0.2508 -0.7478 -0.6148
vn -0.3364 0.5775 0.7438
vn -0.6016 0.7332 -0.3170
vn -0.6092 0.7326 -0.3036
vn -0.0531 0.9903 -0.1282
vn -0.8217 0.1584 0.5474
vn 0.8624 -0.4113 0.2950
vn -0.3974 0.1994 0.8957
vn -0.6096 0.7326 -0.3028
vn -0.6096 0.7326 -0.3030
vn 0.6360 -0.1519 0.7566
vn -0.0565 0.9907 -0.1237
vn -0.0530 0.9903 -0.1283
vn 0.6374 -0.1531 0.7552
vn -0.0529 0.9903 -0.1281
vn -0.0529 0.9903 -0.1282
vn -0.3975 0.1995 0.8957
vn -0.3974 0.1995 0.8957
vn 0.1513 0.9884 0.0125
vn 0.1514 0.9884 0.0124
vn -0.7211 -0.2602 0.6421
vn -0.7210 -0.2590 0.6427
vn 0.2370 0.2239 -0.9454
vn 0.1516 0.9884 0.0128
vn 0.2766 0.1037 0.9554
vn -0.2133 0.3591 0.9086
vn -0.5449 0.2259 -0.8075
vn -0.2309 -0.7555 -0.6131
vn 0.3357 -0.6052 -0.7218
vn 0.7922 -0.2522 -0.5556
vn 0.7920 -0.2528 -0.5557
vn 0.3309 -0.6077 -0.7220
vn 0.5847 -0.7577 0.2897
vn 0.5848 -0.7577 0.2896
vn 0.1515 0.9884 0.0124
vn 0.1511 0.9884 0.0124
vn 0.1516 0.9884 0.0122
vn -0.0528 0.9903 -0.1285
vn -0.1231 0.9896 -0.0741
vn 0.0572 -0.9898 0.1308
vn 0.1504 0.9885 0.0139
vn -0.8247 -0.2478 -0.5083
vn 0.2194 -0.6307 0.7444
vn -0.1234 0.9896 -0.0741
vn 0.0588 -0.9896 0.1315
vn 0.1510 0.9884 0.0128
vn 0.1702 0.9799 -0.1036
vn -0.9510 -0.2610 0.1657
vn 0.7263 -0.5424 -0.4223
vn 0.0598 -0.9897 0.1303
vn 0.1514 0.9884 0.0116
vn 0.7261 -0.5424 -0.4227
vn -0.7625 0.5873 0.2714
vn 0.0543 -0.9903 0.1283
vn 0.0585 -0.9897 0.1306
vn -0.5461 0.2245 -0.8071
vn 0.8625 -0.4114 0.2946
vn 0.0598 -0.9898 0.1297
vn 0.0581 -0.9899 0.1295
vn 0.8625 -0.4115 0.2945
vn -0.2085 0.2077 0.9557
vn 0.0581 -0.9898 0.1297
vn 0.6369 -0.1527 0.7556
vn -0.1232 0.9896 -0.0743
vn 0.0589 -0.9897 0.1305
vn -0.8185 -0.0135 -0.5744
vn -0.1232 0.9896 -0.0741
vn 0.0574 -0.9896 0.1315
vn -0.0313 0.6149 -0.7880
vn -0.1234 0.9896 -0.0739
vn -0.1232 0.9896 -0.0740
vn 0.0533 -0.9903 0.1284
vn -0.0319 0.6147 -0.7881
vn -0.2082 0.2073 0.9559
vn 0.5558 0.7331 0.3919
vn -0.7292 -0.6210 -0.2874
vn 0.0529 -0.9904 0.1276
vn -0.5535 0.5936 0.5841
vn 0.5562 0.7331 0.3914
vn -0.2352 0.6027 -0.7625
vn -0.2330 0.5983 -0.7667
vn 0.0545 -0.9903 0.1282
vn 0.4890 0.7445 -0.4546
vn -0.2338 0.5987 -0.7661
vn 0.0522 -0.9902 0.1293
vn -0.7301 -0.6204 -0.2865
vn 0.0959 0.5866 0.8042
vn 0.4880 0.7445 -0.4555
vn -0.2494 -0.7478 -0.6153
vn -0.5535 0.5936 0.5842
vn 0.8107 0.5843 0.0356
vn 0.0529 -0.9904 0.1274
vn -0.6792 0.7339 0.0012
vn 0.3181 -0.6158 -0.7208
vn 0.8107 0.5845 0.0352
vn 0.0528 -0.9904 0.1274
vn 0.3180 -0.6159 -0.7208
vn -0.3186 -0.0307 0.9474
vn 0.3168 -0.6165 -0.7209
vn 0.8369 0.2052 0.5075
vn 0.0521 -0.9902 0.1293
vn 0.7367 -0.6201 -0.2697
vn 0.7367 -0.6207 -0.2682
vn 0.7911 -0.2539 -0.5565
vn 0.7367 -0.6207 -0.2683
vn 0.7367 -0.6207 -0.2681
vn 0.9571 0.2199 -0.1889
vn 0.2736 0.1056 0.9560
vn 0.5850 -0.7577 0.2892
vn 0.7577 0.5934 0.2716
vn 0.8182 -0.0262 0.5743
vn 0.8182 -0.0262 0.5744
vn -0.8081 -0.0135 -0.5888
vn 0.8181 -0.0262 0.5744
vn 0.8180 -0.0262 0.5746
vn -0.8762 0.3827 -0.2929
vn -0.8721 0.0915 0.4807
vn -0.8762 0.3828 -0.2927
vn 0.8176 -0.0262 0.5752
vn 0.9569 0.2179 -0.1922
vn 0.9569 0.2179 -0.1921
vn 0.8181 -0.0262 0.5745
vn 0.9569 0.2175 -0.1926
vn -0.6448 0.1254 -0.7540
vn 0.8170 -0.0262 0.5760
vn -0.2791 -0.1329 -0.9510
vn 0.8186 -0.0262 0.5738
vn -0.7256 -0.6334 -0.2690
vn 0.7462 0.6031 0.2818
vn 0.8183 -0.0262 0.5743
vn 0.7460 0.6033 0.2821
vn 0.7465 0.6029 0.2815
vn 0.5396 -0.6278 0.5610
vn 0.5389 -0.6285 0.5608
vn 0.5114 -0.6640 0.5455
vn 0.8625 -0.4114 0.2947
vn 0.8183 -0.0265 0.5741
vn 0.7466 0.6027 0.2817
vn 0.8178 -0.0258 0.5749
vn 0.2401 0.7324 0.6371
vn 0.7527 0.5977 0.2762
vn 0.2404 0.7324 0.6370
vn 0.7463 0.6028 0.2823
vn -0.3363 0.5774 0.7440
vn 0.9566 0.2185 -0.1926
vn 0.7553 0.5960 0.2725
vn -0.3367 0.5767 0.7443
vn 0.7462 0.6033 0.2814
vn 0.1518 0.9883 0.0133
vn 0.1395 0.9902 -0.0017
vn -0.3364 0.5769 0.7444
vn 0.1521 0.9883 0.0141
vn 0.5454 -0.2681 0.7942
vn -0.9451 -0.2610 0.1966
vn -0.9450 -0.2607 0.1976
vn 0.8183 -0.0262 0.5742
vn 0.8172 -0.0262 0.5758
vn 0.5458 -0.2678 0.7940
vn -0.7254 -0.6337 -0.2687
vn 0.5459 -0.2676 0.7940
vn 0.8184 -0.0262 0.5740
vn -0.2308 -0.7555 -0.6131
vn 0.2617 0.7222 0.6403
vn 0.5457 -0.2676 0.7941
vn 0.2655 0.7221 0.6388
vn 0.5532 -0.2682 0.7887
vn 0.5459 -0.2676 0.7939
vn 0.5457 -0.2669 0.7943
vn 0.7797 -0.2508 -0.5737
vn -0.7967 0.2059 0.5682
vn -0.7962 0.2066 0.5687
vn -0.7963 0.2065 0.5686
vn 0.3319 -0.6074 -0.7218
vn -0.9509 -0.2617 0.1653
vn 0.7823 -0.2474 -0.5717
vn 0.7826 -0.2472 -0.5713
vn 0.7812 -0.2492 -0.5725
vn -0.9509 -0.2618 0.1652
vn 0.5337 -0.6244 -0.5704
vn -0.9509 -0.2616 0.1654
vn 0.9569 0.2178 -0.1923
vn -0.7252 -0.6338 -0.2691
vn -0.2324 -0.7556 -0.6124
vn -0.2312 -0.7555 -0.6130
vn 0.6535 -0.7569 -0.0019
vn 0.6534 -0.7570 -0.0017
vn 0.6534 -0.7570 0.0013
vn -0.7259 -0.6331 -0.2688
vn 0.5387 -0.6280 0.5617
vn 0.0357 -0.6448 0.7635
vn 0.0350 -0.6451 0.7633
vn 0.1524 0.9882 0.0125
vn 0.1434 0.9895 0.0178
vn -0.1295 0.9851 0.1134
vn -0.1087 0.9876 0.1132
vn 0.7431 0.6058 0.2843
vn -0.0452 0.9905 -0.1298
vn -0.0534 0.9903 -0.1282
vn -0.1083 0.9876 0.1134
vn -0.1024 0.9879 0.1164
vn -0.1074 0.9876 0.1147
vn -0.1049 0.9880 0.1132
vn -0.1082 0.9877 0.1132
vn 0.9569 0.2178 -0.1922
vn 0.9566 0.2191 -0.1923
vn -0.0510 0.9904 -0.1286
vn -0.1082 0.9877 0.1131
vn -0.1082 0.9877 0.1129
vn -0.1036 0.9871 0.1218
vn -0.1086 0.9876 0.1137
vn -0.1086 0.9875 0.1139
vn -0.1082 0.9876 0.1137
vn -0.2278 0.2272 -0.9468
vn -0.0534 0.9902 -0.1288
vn 0.1991 -0.2511 -0.9472
vn -0.0000 -0.0253 -0.9997
vn 0.1520 0.9883 0.0124
vn -0.0000 0.9978 0.0668
vn -0.1087 0.9876 0.1136
vn -0.1080 0.9877 0.1134
vn -0.1093 0.9874 0.1142
vn 0.8168 -0.0262 0.5764
vn 0.8208 -0.0263 0.5706
vn -0.8123 -0.0136 -0.5831
vn 0.9987 -0.0196 -0.0465
vn -0.3166 -0.0098 -0.9485
vn -0.4107 -0.0087 -0.9117
vn 0.3199 -0.0307 0.9470
vn 0.3190 -0.0307 0.9473
vn 0.8183 -0.0135 -0.5747
vn 0.3189 -0.0098 -0.9478
vn 0.3188 -0.0307 0.9473
vn 0.3173 -0.0307 0.9478
vn 0.3169 -0.0307 0.9480
vn 0.3187 -0.0307 0.9474
vn -0.8195 -0.0262 0.5724
vn -0.8183 -0.0262 0.5741
vn -0.8156 -0.0263 0.5780
vn -0.8198 -0.0262 0.5720
vn 0.0188 -0.9884 -0.1504
vt 0.519727 0.208476
vt 0.517106 0.000000
vt 0.520373 0.207755
vt 0.520496 0.207741
vt 0.105810 0.326242
vt 0.104573 0.322625
vt 0.161674 0.001993
vt 0.939271 0.000059
vt 0.940739 -0.000000
vt 0.940141 0.002812
vt 0.105800 0.326614
vt 0.105534 0.335874
vt 0.925845 0.204739
vt 0.925829 0.204718
vt 0.921714 0.005783
vt 0.895229 0.727763
vt 0.895271 0.727796
vt 0.724970 0.911400
vt 0.089545 0.395599
vt 0.098336 0.349981
vt 0.091233 0.395729
vt 0.922912 0.004775
vt 0.926231 0.205242
vt 0.085661 0.395299
vt 0.094193 0.348554
vt 0.098272 0.349959
vt 0.089484 0.395595
vt 0.084812 0.395234
vt 0.093586 0.346571
vt 0.094157 0.348435
vt 0.085610 0.395296
vt 0.098437 0.319663
vt 0.100579 0.307785
vt 0.099662 0.318369
vt 0.938138 0.001171
vt 0.103561 0.319667
vt 0.155907 0.000924
vt 0.099844 0.318430
vt 0.103663 0.319965
vt 0.891105 0.720843
vt 0.891314 0.720899
vt 0.724538 0.907852
vt 0.892639 0.720558
vt 0.891897 0.723924
vt 0.890968 0.720806
vt 0.519339 0.403300
vt 0.515793 0.224847
vt 0.519934 0.224932
vt 0.522174 0.403056
vt 0.891920 0.724247
vt 0.724772 0.909679
vt 0.891916 0.724194
vt 0.660549 0.615071
vt 0.654973 0.555818
vt 0.663424 0.614616
vt 0.515807 0.213613
vt 0.511328 0.000125
vt 0.515906 0.213483
vt 0.894198 0.717629
vt 0.892668 0.720368
vt 0.892645 0.720408
vt 0.627391 0.346286
vt 0.650986 0.516082
vt 0.649598 0.550409
vt 0.654831 0.543747
vt 0.653855 0.543984
vt 0.903249 0.633957
vt 0.902838 0.635495
vt 0.900633 0.633548
vt 0.724353 0.906612
vt 0.901582 0.636292
vt 0.901302 0.631059
vt 0.902662 0.632263
vt 0.898603 0.634833
vt 0.898016 0.633140
vt 0.999829 0.791456
vt 0.999717 0.791351
vt 0.999682 0.791318
vt 0.899683 0.630805
vt 0.650593 0.546901
vt 0.650482 0.547004
vt 0.653686 0.544025
vt 0.898430 0.631599
vt 0.663175 0.554416
vt 0.663128 0.554413
vt 0.623092 0.317078
vt 0.899963 0.636038
vt 1.000000 0.791617
vt 0.909527 0.272390
vt 0.910575 0.272030
vt 0.901489 0.592675
vt 0.899642 0.587335
vt 0.523611 0.207370
vt 0.922695 0.204676
vt 0.922643 0.204666
vt 0.085324 0.337098
vt 0.108389 0.217550
vt 0.110937 0.212790
vt 0.000000 0.799653
vt 0.000000 0.793753
vt 0.003563 0.804352
vt 0.503297 0.404750
vt 0.507052 0.000306
vt 0.509231 0.404833
vt 0.940933 0.446364
vt 0.944045 0.446735
vt 0.939368 0.612748
vt 0.920258 0.005685
vt 0.108623 0.217485
vt 0.110901 0.212864
vt 0.108656 0.217475
vt 0.922373 0.204618
vt 0.918575 0.205272
vt 0.001586 0.026789
vt 0.003211 0.026833
vt 0.110553 0.206754
vt 0.492694 0.252833
vt 0.492691 0.252843
vt 0.321635 0.084983
vt 0.150362 0.000000
vt 0.110514 0.206537
vt 0.110543 0.206592
vt 0.918418 0.205267
vt 0.654523 0.512226
vt 0.633158 0.345120
vt 0.083068 0.395209
vt 0.000000 0.026681
vt 0.091547 0.335283
vt 0.091328 0.343801
vt 0.091323 0.343977
vt 0.658440 0.542870
vt 0.654701 0.513624
vt 0.654309 0.513045
vt 0.091644 0.334991
vt 0.094881 0.325135
vt 0.095081 0.324827
vt 0.654319 0.513008
vt 0.922448 0.204632
vt 0.657875 0.543007
vt 0.658023 0.543059
vt 0.658485 0.543219
vt 0.944376 0.270750
vt 0.948697 0.435369
vt 0.948651 0.435385
vt 0.948601 0.435429
vt 0.524897 0.225010
vt 0.530958 0.342819
vt 0.524890 0.225011
vt 0.529719 0.402108
vt 0.524167 0.225104
vt 0.532401 0.401771
vt 0.527708 0.210070
vt 0.524489 0.207367
vt 0.522568 0.000073
vt 0.700165 0.186298
vt 0.699902 0.185751
vt 0.704882 0.184158
vt 0.015080 0.804111
vt 0.009319 0.806054
vt 0.117857 0.303190
vt 0.115025 0.305878
vt 0.117795 0.302513
vt 0.942145 0.004453
vt 0.942516 0.002712
vt 0.118090 0.301717
vt 0.117850 0.302363
vt 0.165472 0.002801
vt 0.492238 0.254195
vt 0.488132 0.254763
vt 0.018636 0.799269
vt 0.018636 0.793369
vt 0.893134 0.440491
vt 0.893145 0.440511
vt 0.892365 0.441757
vt 0.893393 0.441293
vt 0.697746 0.180184
vt 0.877127 -0.000000
vt 0.697817 0.180240
vt 0.945681 0.183877
vt 0.944248 0.183866
vt 0.942516 -0.000000
vt 0.908925 0.001144
vt 0.910323 0.000000
vt 0.910322 0.254020
vt 0.906923 0.249988
vt 0.906888 0.249946
vt 0.942516 0.181460
vt 0.942382 0.181447
vt 0.941012 0.005565
vt 0.524384 0.207279
vt 0.944044 0.445955
vt 0.945527 0.446446
vt 0.948349 0.622280
vt 0.697068 0.180123
vt 0.697747 0.180183
vt 0.699909 0.176557
vt 0.020527 0.791483
vt 0.020693 0.793081
vt 0.018703 0.791689
vt 0.619289 0.019319
vt 0.699931 0.176519
vt 0.018636 0.787307
vt 0.020790 0.788571
vt 0.938144 0.181031
vt 0.938027 0.181018
vt 0.939545 0.005627
vt 0.945205 0.622411
vt 0.944044 0.623050
vt 0.945167 0.622413
vt 0.946627 0.188509
vt 0.945419 0.189590
vt 0.944835 0.186727
vt 0.943986 0.189579
vt 0.942878 0.188478
vt 0.942516 0.186709
vt 0.943040 0.184947
vt 0.616472 0.046557
vt 0.515777 0.224847
vt 0.032513 0.787078
vt 0.032513 0.786968
vt 0.032563 0.787012
vt 0.938308 0.004613
vt 0.947151 0.186747
vt 0.916771 0.270762
vt 0.919937 0.540433
vt 0.915217 0.270750
vt 0.515775 0.224843
vt 0.615158 0.046370
vt 0.020695 0.793096
vt 0.022048 0.795012
vt 0.022097 0.795006
vt 0.937767 0.002912
vt 0.032563 0.787012
vt 0.916995 0.000909
vt 0.918418 -0.000000
vt 0.918383 0.224333
vt 0.946791 0.184981
vt 0.027238 0.792959
vt 0.028736 0.793575
vt 0.027411 0.794537
vt 0.027413 0.794559
vt 0.026797 0.797109
vt 0.026756 0.797040
vt 0.942615 0.000002
vt 0.942715 0.000003
vt 0.914572 0.219654
vt 0.026731 0.797136
vt 0.724809 0.272304
vt 0.725011 0.270750
vt 0.898797 0.432445
vt 0.896568 0.432737
vt 0.896568 0.432737
vt 0.941978 0.001014
vt 0.896443 0.436939
vt 0.898195 0.437094
vt 0.896536 0.439910
vt 0.514387 0.403726
vt 0.896583 0.441439
vt 0.897198 0.441057
vt 0.319835 0.085234
vt 0.893586 0.441303
vt 0.893424 0.441294
vt 0.896621 0.432803
vt 0.896393 0.435381
vt 0.515585 0.214376
vt 0.513849 0.220358
vt 0.513833 0.220413
vt 0.511328 0.403989
vt 0.513030 0.403843
vt 0.318314 0.085344
vt 0.896630 0.432703
vt 0.895820 0.434837
vt 0.914086 0.219058
vt 0.483292 0.255120
vt 0.665169 0.516116
vt 0.667046 0.519097
vt 0.663450 0.518554
vt 0.664456 0.519673
vt 0.918418 0.224376
vt 0.896390 0.442895
vt 0.897375 0.442419
vt 0.724559 0.627680
vt 0.666284 0.521706
vt 0.020528 0.791468
vt 0.723064 0.270750
vt 0.661066 0.514927
vt 0.721570 0.271085
vt 0.003556 0.788911
vt 0.009317 0.786968
vt 0.015073 0.788670
vt 0.724559 0.274050
vt 0.895807 0.434852
vt 0.896394 0.435403
vt 0.883578 0.223646
vt 0.879983 0.222689
vt 0.887760 0.002627
vt 0.883641 0.223663
vt 0.888999 0.001661
vt 0.724353 0.626083
vt 0.894460 0.436393
vt 0.946859 0.000070
vt 0.894459 0.436407
vt 0.897377 0.442276
vt 0.897441 0.442338
vt 0.894217 0.439200
vt 0.902325 0.228582
vt 0.902217 0.228648
vt 0.895266 0.002862
vt 0.945804 0.271203
vt 0.023767 0.786968
vt 0.025198 0.786968
vt 0.024415 0.789855
vt 0.944376 0.439106
vt 0.879590 0.269007
vt 0.879983 0.270750
vt 0.710510 0.194056
vt 0.020806 0.788553
vt 0.491286 0.246394
vt 0.491268 0.246313
vt 0.323023 0.084694
vt 0.004248 0.026788
vt 0.724353 0.275326
vt 0.894204 0.439215
vt 0.707371 0.185954
vt 0.706133 0.187988
vt 0.492121 0.403421
vt 0.501091 0.000227
vt 0.500372 0.404402
vt 0.700166 0.186298
vt 0.926255 0.205272
vt 0.701613 0.181243
vt 0.487541 0.240769
vt 0.495713 0.000000
vt 0.891592 0.000000
vt 0.892907 0.001059
vt 0.895522 0.237780
vt 0.699883 0.185710
vt 0.698140 0.182087
vt 0.697576 0.180356
vt 0.948395 0.622278
vt 0.724353 0.632349
vt 0.894217 0.717596
vt 0.724541 0.630805
vt 0.487584 0.240834
vt 0.022580 0.788072
vt 0.022500 0.791641
vt 0.022097 0.789858
vt 0.489811 0.402953
vt 0.490121 0.403016
vt 0.490123 0.403016
vt 0.483425 0.794292
vt 0.026731 0.789857
vt 0.026252 0.791641
vt 0.023635 0.792744
vt 0.700810 0.187637
vt 0.704263 0.190718
vt 0.704325 0.190739
vt 0.704306 0.190733
vt 0.025066 0.792744
vt 0.921027 0.002890
vt 0.902325 0.247631
vt 0.907562 0.002286
vt 0.902589 0.247611
vt 0.026332 0.788071
vt 0.919093 0.004520
vt 0.918665 0.002733
vt 0.994624 0.791223
vt 0.901525 0.948758
vt 0.990775 0.791194
vt 0.994706 0.791223
vt 0.919143 0.001005
vt 0.918516 0.271491
vt 0.925067 0.535010
vt 0.921796 0.000095
vt 0.922961 0.001260
vt 0.934440 0.180622
vt 0.895602 0.237728
vt 0.920337 -0.000000
vt 0.915217 0.544852
vt 0.917685 0.542542
vt 0.919840 0.540523
vt 0.923386 0.003050
vt 0.990701 0.791194
vt 0.166483 0.059808
vt 0.165086 0.059553
vt 0.891592 0.240374
vt 0.990513 0.791303
vt 0.621796 0.316616
vt 0.659897 0.554259
vt 0.659434 0.554719
vt 0.028736 0.790246
vt 0.029844 0.786968
vt 0.030548 0.791754
vt 0.659390 0.554730
vt 0.656457 0.555452
vt 0.620345 0.316834
vt 0.915217 0.612057
vt 0.915161 0.611958
vt 0.915217 0.270750
vt 0.028623 0.789197
vt 0.906215 0.249645
vt 0.936099 0.615373
vt 0.936654 0.613672
vt 0.938471 0.615501
vt 0.911677 0.609077
vt 0.906523 0.602264
vt 0.912319 0.271503
vt 0.906172 0.249621
vt 0.902657 0.247649
vt 0.914091 0.271015
vt 0.619289 0.317653
vt 0.654936 0.555804
vt 0.651142 0.554328
vt 0.906381 0.601997
vt 0.702506 0.175497
vt 0.702460 0.175509
vt 0.622530 0.020551
vt 0.620978 0.019584
vt 0.117199 0.307825
vt 0.117211 0.307742
vt 0.318314 0.179264
vt 0.936099 0.445955
vt 0.936226 0.445964
vt 0.901599 0.592994
vt 0.700037 0.176146
vt 0.700008 0.176154
vt 0.692836 0.185154
vt 0.935906 0.540979
vt 0.929776 0.270766
vt 0.936099 0.540950
vt 0.939936 0.446245
vt 0.937904 0.612669
vt 0.697678 0.180253
vt 0.618049 0.046693
vt 0.619289 0.046721
vt 0.700371 0.186725
vt 0.032513 0.787084
vt 0.032426 0.786970
vt 0.032426 0.786968
vt 0.931820 0.541852
vt 0.928613 0.271028
vt 0.931972 0.541575
vt 0.891095 0.230912
vt 0.888752 0.227892
vt 0.891592 0.230624
vt 0.520628 0.225559
vt 0.032426 0.787440
vt 0.919795 0.272651
vt 0.928613 0.530720
vt 0.700379 0.186741
vt 0.928476 0.530886
vt 0.697355 0.180456
vt 0.697604 0.180973
vt 0.890461 0.000655
vt 0.888057 0.227223
vt 0.699953 0.191957
vt 0.695296 0.189052
vt 0.888023 0.227187
vt 0.887286 0.226416
vt 0.693513 0.181743
vt 0.924917 0.535168
vt 0.724810 0.629486
vt 0.022097 0.786968
vt 0.030548 0.787080
vt 0.030531 0.787077
vt 0.899567 0.233125
vt 0.899691 0.232980
vt 0.894314 0.002152
vt 0.938986 0.181113
vt 0.026903 0.789906
vt 0.027292 0.786968
vt 0.026731 0.788335
vt 0.656722 0.516645
vt 0.655809 0.516385
vt 0.656306 0.515984
vt 0.940494 0.613878
vt 0.934401 0.180642
vt 0.940846 0.615631
vt 0.697677 0.180253
vt 0.316665 0.178687
vt 0.931207 0.270750
vt 0.937577 0.618256
vt 0.936451 0.617126
vt 0.105812 0.221026
vt 0.903054 0.951236
vt 0.900537 0.951594
vt 0.902706 0.949621
vt 0.898132 0.447831
vt 0.930461 0.544319
vt 0.527982 0.221268
vt 0.940291 0.617332
vt 0.662484 0.518280
vt 0.939043 0.618332
vt 0.660270 0.517652
vt 0.898738 0.451792
vt 0.725014 0.630805
vt 0.659766 0.517509
vt 0.902445 0.952991
vt 0.934401 0.190288
vt 0.932950 0.000511
vt 0.934401 0.000952
vt 0.724353 0.271125
vt 0.520626 0.225558
vt 0.898369 0.953570
vt 0.898016 0.951954
vt 0.944376 0.443229
vt 0.940474 0.444843
vt 0.937558 0.271289
vt 0.899969 0.948978
vt 0.939764 0.446224
vt 0.938859 0.270750
vt 0.930057 0.188963
vt 0.936099 0.271658
vt 0.898630 0.950201
vt 0.931684 -0.000000
vt 0.891592 -0.000000
vt 0.901881 0.228855
vt 0.936099 0.445955
vt 0.901106 0.954214
vt 0.926255 0.187430
vt 0.101040 0.396976
vt 0.099068 0.396639
vt 0.899550 0.954433
vt 0.709337 0.188830
vt 0.914010 0.218948
vt 0.915702 0.001789
vt 0.911079 0.214738
vt 0.910323 0.214388
vt 0.894501 0.727211
vt 0.894530 0.727233
vt 0.708108 0.185881
vt 0.708101 0.185869
vt 0.879983 0.002546
vt 0.527284 0.402414
vt 0.522644 0.402997
vt 0.664159 0.551586
vt 0.662101 0.547135
vt 0.664759 0.549859
vt 0.667530 0.613967
vt 0.670296 0.614996
vt 0.527067 0.792263
vt 0.522643 0.402997
vt 0.914277 0.610418
vt 0.911783 0.609218
vt 0.910323 0.254021
vt 0.658152 0.508169
vt 0.655273 0.509464
vt 0.655223 0.509486
vt 0.897364 0.728504
vt 0.898016 0.729186
vt 0.658332 0.508218
vt 0.658242 0.508193
vt 0.662037 0.546995
vt 0.879564 0.001271
vt 0.898797 0.586162
vt 0.707945 0.185632
vt 0.032194 0.789557
vt 0.032144 0.789229
vt 0.032194 0.786968
vt 0.032141 0.789214
vt 0.031632 0.788621
vt 0.928613 0.547675
vt 0.878473 0.000298
vt 0.707780 0.186231
vt 0.707770 0.186225
vt 0.708029 0.185965
vt 0.708025 0.185950
vt 0.032426 0.787310
vt 0.032194 0.787250
vt 0.032426 0.786968
vt 0.675088 0.616779
vt 0.677807 0.617791
vt 0.709243 0.187691
vt 0.707904 0.186204
vt 0.878561 0.267504
vt 0.662072 0.509259
vt 0.638580 0.346654
vt 0.662110 0.509292
vt 0.709473 0.185871
vt 0.994933 0.791174
vt 0.708321 0.186116
vt 0.891902 0.723999
vt 0.890925 0.720794
vt 0.315016 0.178132
vt 0.118901 0.297145
vt 0.994841 0.791171
vt 0.700177 0.191992
vt 0.702387 0.197082
vt 0.706212 0.199156
vt 0.707370 0.186656
vt 0.707370 0.186668
vt 0.704350 0.190748
vt 0.705000 0.190968
vt 0.704503 0.190799
vt 0.709315 0.198002
vt 0.699299 0.192569
vt 0.030548 0.788416
vt 0.031632 0.786968
vt 0.031632 0.792075
vt 0.031632 0.793000
vt 0.705364 0.190309
vt 0.701908 0.189919
vt 0.897377 0.442276
vt 0.897413 0.442507
vt 0.699923 0.191895
vt 0.699924 0.191895
vt 0.698966 0.191084
vt 0.673076 0.616030
vt 0.674349 0.616504
vt 0.674324 0.616495
vt 0.664139 0.551642
vt 0.673117 0.616045
vt 0.487405 0.402466
vt 0.488909 0.254378
vt 0.486076 0.402197
vt 0.487075 0.254479
vt 0.482089 0.401389
vt 0.514375 0.403727
vt 0.514374 0.403727
vt 0.080584 0.395173
vt 0.074137 0.395080
vt 0.667113 0.614033
vt 0.667076 0.614038
vt 0.511328 0.000208
vt 0.511328 0.404863
vt 0.664652 0.614421
vt 0.660520 0.615075
vt 0.657592 0.615539
vt 0.657576 0.615541
vt 0.651116 0.554276
vt 0.649707 0.551414
vt 0.656699 0.615680
vt 0.102939 0.397300
vt 0.100621 0.347393
vt 0.092887 0.395857
vt 0.102616 0.345132
vt 0.094315 0.395967
vt 0.102706 0.345030
vt 0.094379 0.395972
vt 0.105452 0.336142
vt 0.095486 0.396058
vt 0.095518 0.396060
vt 0.095800 0.396082
s 0
usemtl color_8273816.001
f 6/1/1 153/2/1 5/3/1
f 5/3/2 153/2/2 11/4/2
f 20/5/3 21/6/3 112/7/3
f 4/8/4 13/9/4 164/10/4
f 20/5/5 112/7/5 22/11/5
f 3/12/6 22/11/6 112/7/6
f 19/13/7 23/14/7 209/15/7
f 18/16/8 26/17/8 198/18/8
f 314/19/5 29/20/5 315/21/5
f 209/15/9 207/22/9 18/23/9
f 318/24/10 31/25/10 32/26/10 317/27/10
f 317/27/11 32/26/11 29/20/11 314/19/11
f 320/28/12 33/29/12 34/30/12 319/31/12
f 41/32/10 37/33/10 39/34/10
f 4/8/13 164/10/13 1/35/13
f 43/36/5 37/33/5 25/37/5
f 39/34/14 37/33/14 44/38/14
f 44/38/10 37/33/10 43/36/10
f 25/37/10 21/6/10 45/39/10
f 77/40/15 46/41/15 266/42/15
f 47/43/16 49/44/16 46/41/16
f 75/45/17 77/40/17 266/42/17
f 45/39/18 43/36/18 25/37/18
f 324/46/19 157/47/19 36/48/19 323/49/19
f 52/50/20 200/51/20 51/52/20
f 325/53/21 55/54/21 326/55/21
f 183/56/22 89/57/22 185/58/22
f 46/41/23 136/59/23 137/60/23
f 47/43/24 46/41/24 64/61/24
f 35/62/21 74/63/21 42/64/21
f 28/65/25 24/66/25 74/63/25
f 27/67/26 30/68/26 71/69/26
f 266/42/27 261/70/27 75/45/27
f 30/68/28 38/71/28 71/69/28
f 12/72/29 17/73/29 71/69/29
f 27/67/30 71/69/30 17/73/30
f 71/69/31 62/74/31 268/75/31
f 38/71/32 77/76/32 75/77/32
f 38/71/33 75/77/33 69/78/33
f 8/79/34 12/72/34 71/69/34
f 15/80/35 14/81/35 74/63/35
f 14/81/36 42/64/36 74/63/36
f 24/66/37 16/82/37 74/63/37
f 16/82/21 15/80/21 74/63/21
f 273/83/38 71/69/38 268/75/38
f 232/84/39 236/85/39 212/86/39
f 48/87/30 62/74/30 71/69/30
f 46/88/40 77/76/40 30/68/40
f 199/89/41 195/90/41 82/91/41
f 48/87/34 71/69/34 38/71/34
f 199/89/42 82/91/42 41/92/42
f 11/4/43 153/2/43 70/93/43
f 52/94/44 51/95/44 209/15/44
f 100/96/45 61/97/45 37/33/45
f 25/37/45 37/33/45 53/98/45
f 89/99/46 88/100/46 153/101/46
f 332/102/47 88/103/47 330/104/47
f 28/105/48 92/106/48 245/107/48
f 210/108/49 209/15/49 51/95/49
f 60/109/50 37/33/50 61/97/50
f 53/98/51 37/33/51 54/110/51
f 54/110/52 37/33/52 57/111/52
f 49/112/53 47/113/53 210/108/53
f 57/111/54 37/33/54 60/109/54
f 1/114/55 96/115/55 54/110/55
f 53/98/45 68/116/45 25/37/45
f 124/117/56 121/118/56 97/119/56
f 85/120/45 25/37/45 66/121/45
f 68/116/57 65/122/57 25/37/57
f 65/122/58 66/121/58 25/37/58
f 54/110/59 57/111/59 1/114/59
f 64/123/60 210/108/60 47/113/60
f 91/124/61 35/62/61 98/125/61
f 320/28/45 336/126/45 33/29/45
f 60/109/62 61/97/62 4/127/62
f 100/96/45 73/128/45 76/129/45
f 100/96/52 76/129/52 72/130/52
f 4/127/63 1/114/63 60/109/63
f 57/111/64 60/109/64 1/114/64
f 104/131/61 74/63/61 86/132/61
f 87/133/65 86/132/65 74/63/65
f 78/134/66 100/96/66 79/135/66
f 73/128/67 100/96/67 78/134/67
f 79/135/45 100/96/45 37/33/45
f 79/135/68 37/33/68 82/136/68
f 41/32/69 82/136/69 37/33/69
f 90/137/70 74/63/70 91/124/70
f 35/62/61 91/124/61 74/63/61
f 51/95/71 50/138/71 210/108/71
f 74/63/72 90/137/72 87/133/72
f 50/138/73 49/112/73 210/108/73
f 28/65/61 74/63/61 92/139/61
f 104/131/74 92/139/74 74/63/74
f 93/140/75 92/139/75 104/131/75
f 95/141/76 93/140/76 104/131/76
f 142/142/77 290/143/77 105/144/77
f 142/142/78 105/144/78 106/145/78
f 125/146/79 100/147/79 129/148/79
f 339/149/1 67/150/1 100/147/1 338/151/1
f 66/152/80 134/153/80 85/154/80
f 231/155/81 233/156/81 107/157/81
f 25/158/46 85/159/46 153/101/46
f 40/160/82 113/161/82 108/162/82
f 114/163/83 164/10/83 109/164/83
f 113/161/84 112/7/84 42/165/84
f 111/166/85 113/161/85 42/165/85
f 108/162/86 113/161/86 111/166/86
f 35/167/82 42/165/82 112/7/82
f 118/168/87 116/169/87 121/118/87
f 112/170/46 153/101/46 35/171/46
f 117/172/88 122/173/88 133/174/88
f 131/175/89 133/174/89 122/173/89
f 64/61/90 46/41/90 137/60/90
f 139/176/91 218/177/91 141/178/91
f 127/179/92 123/180/92 260/181/92
f 242/182/93 218/183/93 144/184/93
f 129/148/94 100/147/94 67/150/94
f 242/182/95 144/184/95 145/185/95
f 145/185/96 149/186/96 242/182/96
f 5/187/97 11/188/97 128/189/97
f 85/154/80 132/190/80 153/2/80
f 70/93/98 153/2/98 132/190/98
f 215/191/99 210/192/99 137/193/99
f 141/178/100 146/194/100 139/176/100
f 139/176/101 146/194/101 144/195/101
f 144/195/102 146/194/102 145/196/102
f 189/197/103 190/198/103 148/199/103
f 145/196/104 268/200/104 149/201/104
f 148/199/105 234/202/105 192/203/105
f 132/204/106 134/205/106 140/206/106
f 215/191/107 137/193/107 136/207/107
f 131/208/108 215/191/108 133/209/108
f 94/210/109 99/211/109 151/212/109
f 99/211/110 101/213/110 151/212/110
f 133/209/111 215/191/111 136/207/111
f 103/214/112 110/215/112 151/212/112
f 110/215/113 115/216/113 151/212/113
f 36/48/114 157/47/114 102/217/114
f 156/218/115 102/217/115 157/47/115
f 103/214/116 151/212/116 101/213/116
f 160/219/117 161/220/117 162/221/117
f 140/206/118 147/222/118 164/10/118
f 151/212/119 97/223/119 94/210/119
f 152/224/120 10/225/120 165/226/120
f 115/216/121 123/180/121 151/212/121
f 163/227/122 109/228/122 156/218/122
f 148/199/123 168/229/123 161/230/123
f 166/231/124 161/230/124 168/229/124
f 147/222/125 96/232/125 164/10/125
f 166/233/126 162/221/126 161/220/126
f 114/234/127 109/235/127 170/236/127
f 142/237/128 97/223/128 151/212/128
f 123/180/129 127/179/129 151/212/129
f 194/238/130 148/239/130 193/240/130
f 172/241/131 193/240/131 148/239/131
f 148/239/132 161/242/132 172/241/132
f 171/243/133 172/241/133 161/242/133
f 127/179/134 262/244/134 263/245/134
f 114/234/135 170/236/135 173/246/135
f 128/189/136 140/206/136 164/10/136
f 160/247/137 171/243/137 161/242/137
f 114/163/138 128/189/138 164/10/138
f 12/248/139 8/249/139 154/250/139
f 127/179/140 260/181/140 262/244/140
f 151/212/141 127/179/141 142/237/141
f 1/35/142 164/10/142 96/232/142
f 162/251/143 166/252/143 12/248/143
f 102/253/144 164/10/144 13/9/144
f 194/254/145 177/255/145 167/256/145
f 109/164/146 164/10/146 102/253/146
f 324/46/147 343/257/147 157/47/147
f 169/258/148 167/256/148 175/259/148
f 94/260/87 121/118/87 116/169/87
f 94/260/149 97/119/149 121/118/149
f 122/173/150 179/261/150 180/262/150
f 171/263/151 154/250/151 172/264/151
f 173/265/152 170/266/152 89/57/152
f 170/266/153 159/267/153 89/57/153
f 331/268/152 89/57/152 159/267/152 341/269/152
f 94/260/154 116/169/154 99/270/154
f 154/250/155 160/271/155 12/248/155
f 160/271/156 162/251/156 12/248/156
f 166/252/157 168/272/157 12/248/157
f 183/273/158 114/234/158 173/246/158
f 109/228/159 163/227/159 159/267/159
f 99/270/160 116/169/160 126/274/160
f 126/275/161 116/276/161 187/277/161
f 186/278/162 187/277/162 116/276/162
f 177/255/163 172/264/163 154/250/163
f 159/279/164 170/236/164 109/235/164
f 160/271/165 154/250/165 171/263/165
f 155/280/166 184/281/166 120/282/166
f 120/282/167 180/262/167 179/261/167
f 168/229/168 148/199/168 190/198/168
f 118/283/169 186/278/169 116/276/169
f 89/57/170 183/56/170 173/265/170
f 191/284/171 148/199/171 192/203/171
f 101/285/172 138/286/172 103/287/172
f 191/284/173 189/197/173 148/199/173
f 185/58/19 89/57/19 6/1/19
f 153/2/174 6/1/174 89/57/174
f 155/280/175 169/258/175 184/281/175
f 153/101/46 196/288/46 197/289/46
f 98/290/46 153/101/46 197/289/46
f 35/171/46 153/101/46 98/290/46
f 25/158/46 153/101/46 112/170/46
f 12/248/176 168/272/176 17/291/176
f 175/259/177 184/281/177 169/258/177
f 190/292/178 17/291/178 168/272/178
f 193/293/179 172/264/179 177/255/179
f 259/294/180 260/295/180 123/296/180
f 131/175/181 122/173/181 180/262/181
f 259/294/182 123/296/182 258/297/182
f 115/298/183 258/297/183 123/296/183
f 131/175/184 180/262/184 215/299/184
f 190/292/185 189/300/185 17/291/185
f 290/301/186 127/179/186 263/245/186
f 120/282/187 215/299/187 180/262/187
f 189/300/188 191/302/188 17/291/188
f 306/303/189 175/259/189 202/304/189
f 191/302/190 192/305/190 17/291/190
f 92/306/191 93/307/191 245/308/191
f 290/143/192 142/142/192 127/309/192
f 175/259/193 167/256/193 177/255/193
f 199/310/194 204/311/194 214/312/194
f 193/293/145 177/255/145 194/254/145
f 106/145/195 176/313/195 142/142/195
f 203/314/196 143/315/196 277/316/196
f 192/203/197 234/202/197 206/317/197
f 182/318/198 97/119/198 176/319/198
f 142/320/199 176/319/199 97/119/199
f 68/116/200 96/115/200 65/122/200
f 147/321/201 65/122/201 96/115/201
f 124/117/202 97/119/202 182/318/202
f 96/115/203 53/98/203 54/110/203
f 196/288/46 153/101/46 88/100/46
f 133/174/204 27/322/204 117/172/204
f 206/323/205 117/172/205 27/322/205
f 107/157/206 288/324/206 205/325/206
f 348/326/207 196/327/207 345/328/207
f 205/325/208 230/329/208 107/157/208
f 26/330/209 18/23/209 207/22/209
f 206/323/210 27/322/210 192/305/210
f 289/331/211 107/157/211 233/156/211
f 17/291/212 192/305/212 27/322/212
f 105/332/213 197/333/213 196/327/213
f 212/334/214 213/335/214 229/336/214
f 211/337/215 255/338/215 289/331/215
f 255/338/215 246/339/215 289/331/215
f 233/156/216 211/337/216 289/331/216
f 64/340/217 137/193/217 210/192/217
f 136/59/218 30/341/218 133/342/218
f 27/343/219 133/342/219 30/341/219
f 105/332/220 196/327/220 106/344/220
f 195/345/221 199/310/221 214/312/221
f 178/346/222 188/347/222 214/312/222
f 188/347/223 195/345/223 214/312/223
f 351/348/213 118/168/213 121/118/213 350/349/213
f 350/349/224 352/350/224 84/351/224
f 214/312/225 158/352/225 152/353/225
f 174/354/226 178/346/226 214/312/226
f 241/355/227 205/325/227 221/356/227
f 219/357/228 220/358/228 205/325/228
f 220/358/229 221/356/229 205/325/229
f 165/359/230 174/354/230 214/312/230
f 207/22/231 209/15/231 223/360/231
f 152/353/232 165/359/232 214/312/232
f 225/361/233 248/362/233 224/363/233
f 208/364/225 158/352/225 214/312/225
f 209/15/234 210/108/234 223/360/234
f 176/319/213 106/344/213 196/327/213
f 215/365/235 120/366/235 223/360/235
f 214/312/236 204/311/236 208/364/236
f 299/367/123 252/368/123 226/369/123
f 176/319/237 196/327/237 182/318/237
f 124/117/213 182/318/213 196/327/213
f 210/108/238 215/365/238 223/360/238
f 296/370/239 299/367/239 38/71/239
f 223/360/235 120/366/235 119/371/235
f 158/372/240 3/373/240 152/224/240
f 135/374/241 143/375/241 223/360/241
f 134/205/242 66/376/242 147/222/242
f 213/335/243 228/377/243 229/336/243
f 135/374/244 223/360/244 130/378/244
f 29/379/245 165/226/245 7/380/245
f 9/381/246 7/380/246 165/226/246
f 203/382/247 207/22/247 223/360/247
f 231/155/248 107/157/248 230/329/248
f 225/383/249 48/87/249 226/369/249
f 203/382/250 223/360/250 143/375/250
f 119/371/251 130/378/251 223/360/251
f 29/20/252 32/26/252 165/384/252
f 174/385/253 165/384/253 32/26/253
f 212/334/254 229/336/254 232/386/254
f 225/383/255 224/387/255 48/87/255
f 96/115/256 68/116/256 53/98/256
f 32/26/257 31/25/257 174/385/257
f 217/388/258 212/86/258 236/85/258
f 217/388/259 236/85/259 80/389/259
f 80/389/260 81/390/260 217/388/260
f 155/391/16 179/392/16 234/393/16
f 226/369/261 48/87/261 299/367/261
f 83/394/262 56/395/262 222/396/262
f 31/397/263 34/398/263 174/399/263
f 217/388/264 81/390/264 222/396/264
f 148/239/265 194/238/265 234/400/265
f 238/401/266 242/182/266 149/186/266
f 235/402/267 237/403/267 265/404/267
f 76/405/268 73/406/268 188/407/268
f 239/408/269 240/409/269 248/362/269
f 224/363/270 248/362/270 240/409/270
f 188/407/271 178/410/271 76/405/271
f 227/411/272 59/412/272 58/413/272
f 73/406/273 78/414/273 188/407/273
f 227/411/274 222/396/274 59/412/274
f 55/54/275 59/412/275 222/396/275
f 224/415/276 240/416/276 48/417/276
f 62/418/277 48/417/277 240/416/277
f 58/419/278 63/420/278 227/421/278
f 147/222/279 140/206/279 134/205/279
f 14/422/280 15/423/280 237/403/280
f 79/424/281 195/90/281 78/414/281
f 79/424/42 82/91/42 195/90/42
f 62/418/282 239/425/282 238/426/282
f 62/418/283 238/426/283 149/201/283
f 239/425/284 62/418/284 240/416/284
f 231/155/285 154/427/285 233/156/285
f 230/329/286 154/427/286 231/155/286
f 233/156/287 154/427/287 211/337/287
f 44/428/288 204/429/288 39/430/288
f 24/431/289 245/107/289 243/432/289
f 247/433/290 141/178/290 246/339/290
f 129/148/291 13/434/291 125/146/291
f 4/435/292 125/146/292 13/434/292
f 253/436/293 230/329/293 205/325/293
f 246/437/294 250/438/294 247/439/294
f 45/440/295 208/441/295 43/442/295
f 249/443/296 86/444/296 244/445/296
f 272/446/297 13/434/297 67/150/297
f 129/148/298 67/150/298 13/434/298
f 246/437/95 251/447/95 250/438/95
f 208/448/299 20/449/299 158/372/299
f 24/431/289 28/105/289 245/107/289
f 253/436/300 205/325/300 254/450/300
f 241/355/301 254/450/301 205/325/301
f 22/451/302 3/373/302 158/372/302
f 251/452/303 246/339/303 256/453/303
f 255/338/304 256/453/304 246/339/304
f 244/445/305 86/444/305 110/454/305
f 87/455/306 110/454/306 86/444/306
f 241/355/307 202/456/307 177/457/307
f 241/355/308 177/457/308 254/450/308
f 115/298/309 90/458/309 91/459/309
f 115/298/309 91/459/309 258/297/309
f 115/298/309 110/454/309 90/458/309
f 87/455/310 90/458/310 110/454/310
f 102/217/311 156/218/311 109/228/311
f 146/194/312 256/453/312 150/460/312
f 2/461/313 152/224/313 3/373/313
f 9/381/314 165/226/314 10/225/314
f 184/281/315 119/462/315 120/282/315
f 256/453/312 255/338/312 150/460/312
f 211/337/312 150/460/312 255/338/312
f 117/463/316 206/317/316 234/202/316
f 117/464/317 234/393/317 122/465/317
f 279/466/318 213/335/318 276/467/318
f 257/468/319 276/467/319 213/335/319
f 122/465/320 234/393/320 179/392/320
f 11/188/321 70/469/321 140/206/321
f 140/206/322 70/469/322 132/204/322
f 150/460/323 211/337/323 154/427/323
f 167/470/265 234/400/265 194/238/265
f 230/329/324 253/436/324 177/457/324
f 154/427/325 230/329/325 177/457/325
f 155/471/326 234/400/326 169/472/326
f 167/470/326 169/472/326 234/400/326
f 264/473/327 249/474/327 244/475/327
f 265/404/328 245/107/328 257/476/328
f 141/178/329 247/433/329 146/194/329
f 179/261/330 155/280/330 120/282/330
f 65/477/331 147/222/331 66/376/331
f 244/475/332 138/286/332 264/473/332
f 213/478/333 265/404/333 257/476/333
f 251/452/334 146/194/334 250/479/334
f 247/433/335 250/479/335 146/194/335
f 108/162/336 111/166/336 235/480/336
f 199/481/337 39/430/337 204/429/337
f 265/404/338 222/482/338 227/483/338
f 146/194/339 251/452/339 256/453/339
f 43/442/340 204/429/340 44/428/340
f 125/484/341 4/127/341 61/97/341
f 266/485/342 271/486/342 261/487/342
f 243/432/343 245/107/343 265/404/343
f 184/281/344 267/488/344 119/462/344
f 45/440/345 21/489/345 208/441/345
f 243/432/346 265/404/346 237/403/346
f 61/490/80 100/147/80 125/146/80
f 235/402/347 265/404/347 227/483/347
f 204/429/348 43/442/348 208/441/348
f 268/200/349 145/196/349 146/194/349
f 213/478/350 212/491/350 265/404/350
f 22/451/351 158/372/351 20/449/351
f 291/492/352 126/275/352 187/277/352
f 217/493/353 222/482/353 265/404/353
f 132/190/354 85/154/354 134/153/354
f 293/494/355 138/286/355 126/275/355
f 212/491/356 217/493/356 265/404/356
f 267/488/357 269/495/357 130/496/357
f 270/497/358 264/473/358 138/286/358
f 293/494/359 270/497/359 138/286/359
f 252/368/360 261/487/360 271/486/360
f 130/496/361 119/462/361 267/488/361
f 62/418/362 149/201/362 268/200/362
f 126/275/363 138/286/363 101/285/363
f 243/432/364 237/403/364 15/423/364
f 266/485/365 200/498/365 271/486/365
f 146/499/366 273/500/366 268/501/366
f 99/502/367 126/275/367 101/285/367
f 275/503/368 102/217/368 272/446/368
f 13/434/369 272/446/369 102/217/369
f 271/486/370 216/504/370 218/505/370
f 269/506/371 274/507/371 135/508/371
f 36/48/372 102/217/372 275/503/372
f 248/509/373 252/368/373 271/486/373
f 15/423/374 16/510/374 243/432/374
f 138/286/375 244/475/375 103/287/375
f 269/506/376 135/508/376 130/511/376
f 16/510/377 24/431/377 243/432/377
f 150/512/378 273/500/378 146/499/378
f 143/513/379 135/508/379 274/507/379
f 218/505/380 242/514/380 271/486/380
f 8/515/381 273/500/381 150/512/381
f 103/516/305 244/445/305 110/454/305
f 257/468/382 95/517/382 276/467/382
f 242/514/380 248/509/380 271/486/380
f 273/83/28 8/79/28 71/69/28
f 143/513/383 274/507/383 277/518/383
f 198/519/384 271/486/384 200/498/384
f 95/517/385 257/468/385 93/307/385
f 154/520/381 8/515/381 150/512/381
f 340/521/386 354/522/386 113/161/386
f 257/468/387 245/308/387 93/307/387
f 201/523/360 216/504/360 271/486/360
f 277/316/388 278/524/388 203/314/388
f 198/519/389 201/523/389 271/486/389
f 183/273/390 185/525/390 114/234/390
f 128/526/391 114/234/391 185/525/391
f 279/466/392 228/377/392 213/335/392
f 128/526/393 185/525/393 6/527/393
f 128/526/394 6/527/394 5/528/394
f 23/529/395 19/530/395 200/51/395
f 152/224/396 2/461/396 10/225/396
f 140/206/397 128/189/397 11/188/397
f 281/531/398 283/532/398 198/533/398
f 359/534/43 360/535/43 272/446/43
f 228/536/399 279/537/399 280/538/399
f 333/539/400 80/389/400 362/540/400
f 360/535/401 181/541/401 353/542/401
f 264/473/402 270/497/402 104/131/402
f 104/131/403 86/132/403 249/474/403
f 178/410/404 34/398/404 33/543/404
f 178/410/404 33/543/404 72/544/404
f 139/545/405 144/184/405 218/183/405
f 178/410/406 174/399/406 34/398/406
f 98/125/400 260/546/400 259/547/400
f 259/547/407 258/548/407 98/125/407
f 282/549/408 281/550/408 198/18/408
f 26/17/409 282/549/409 198/18/409
f 258/548/410 91/124/410 98/125/410
f 198/18/411 200/51/411 19/530/411
f 178/410/412 72/544/412 76/405/412
f 98/125/413 263/551/413 262/552/413
f 195/90/414 188/407/414 78/414/414
f 262/552/415 260/546/415 98/125/415
f 248/509/416 225/383/416 252/368/416
f 280/538/400 276/553/400 270/497/400
f 201/554/417 198/533/417 283/532/417
f 199/89/42 41/92/42 39/555/42
f 249/474/418 264/473/418 104/131/418
f 201/554/419 283/532/419 284/556/419
f 201/554/420 284/556/420 107/157/420
f 284/557/421 283/558/421 285/559/421
f 285/559/422 281/560/422 282/561/422
f 281/560/423 285/559/423 283/558/423
f 20/562/424 208/441/424 21/489/424
f 104/131/400 270/497/400 276/553/400
f 95/141/425 104/131/425 276/553/425
f 107/157/426 284/556/426 288/324/426
f 276/553/427 280/538/427 279/537/427
f 25/37/3 112/7/3 21/6/3
f 289/331/428 216/563/428 107/157/428
f 286/564/429 287/565/429 292/566/429
f 201/554/430 107/157/430 216/563/430
f 284/556/431 295/567/431 288/324/431
f 126/275/352 291/492/352 293/494/352
f 246/339/432 141/178/432 289/331/432
f 294/568/433 286/569/433 292/570/433
f 295/567/434 292/566/434 287/565/434
f 289/331/435 141/178/435 218/177/435
f 287/565/436 288/324/436 295/567/436
f 187/277/400 280/538/400 291/492/400
f 358/571/399 280/538/399 187/277/399 346/572/399
f 285/573/437 294/574/437 292/566/437
f 292/566/438 295/567/438 285/573/438
f 289/331/439 218/177/439 216/563/439
f 284/556/440 285/573/440 295/567/440
f 207/575/441 203/314/441 278/524/441
f 248/362/442 242/182/442 238/401/442
f 248/362/443 238/401/443 239/408/443
f 290/576/444 263/551/444 197/577/444
f 98/125/444 197/577/444 263/551/444
f 105/578/445 290/576/445 197/577/445
f 278/524/446 288/324/446 287/565/446
f 226/369/447 252/368/447 225/383/447
f 285/573/448 26/579/448 207/575/448
f 278/524/448 285/573/448 207/575/448
f 291/492/444 280/538/444 293/494/444
f 270/497/449 293/494/449 280/538/449
f 298/580/450 69/78/450 261/487/450
f 55/54/451 222/396/451 56/395/451
f 282/581/452 26/579/452 285/573/452
f 83/394/453 222/396/453 81/390/453
f 287/565/454 286/564/454 278/524/454
f 285/573/455 278/524/455 294/574/455
f 286/564/456 294/574/456 278/524/456
f 49/44/457 50/582/457 266/42/457
f 235/480/458 227/421/458 63/420/458
f 235/480/459 63/420/459 40/160/459
f 235/480/460 40/160/460 108/162/460
f 69/583/461 75/45/461 261/70/461
f 266/42/16 46/41/16 49/44/16
f 237/584/462 235/480/462 111/166/462
f 50/582/463 51/52/463 200/51/463
f 200/51/464 52/50/464 23/529/464
f 200/51/465 266/42/465 50/582/465
f 111/166/466 42/165/466 237/584/466
f 30/341/467 136/59/467 46/41/467
f 42/165/468 14/585/468 237/584/468
f 19/530/469 18/16/469 198/18/469
f 297/586/470 252/368/470 296/370/470
f 298/580/471 261/487/471 297/586/471
f 252/368/472 297/586/472 261/487/472
f 296/370/473 38/71/473 297/586/473
f 69/78/474 298/580/474 38/71/474
f 297/586/475 38/71/475 298/580/475
f 38/71/474 30/68/474 77/76/474
f 296/370/476 252/368/476 299/367/476
f 48/87/477 38/71/477 299/367/477
f 18/23/478 19/13/478 209/15/478
f 23/14/479 52/94/479 209/15/479
f 241/355/480 307/587/480 202/456/480
f 254/450/481 177/457/481 253/436/481
f 220/358/482 219/357/482 267/588/482
f 269/589/483 267/588/483 219/357/483
f 205/325/484 305/590/484 304/591/484
f 219/357/485 205/325/485 300/592/485
f 302/593/486 303/594/486 205/325/486
f 300/592/487 274/595/487 269/589/487
f 269/589/488 219/357/488 300/592/488
f 300/592/489 303/594/489 274/595/489
f 220/358/490 267/588/490 221/356/490
f 184/596/491 221/356/491 267/588/491
f 205/597/492 304/598/492 301/599/492
f 302/600/493 205/597/493 301/599/493
f 305/590/206 205/325/206 288/324/206
f 300/592/494 205/325/494 303/594/494
f 301/601/491 278/524/491 277/316/491
f 301/601/495 277/316/495 302/593/495
f 303/594/496 302/593/496 277/316/496
f 304/591/497 305/590/497 278/524/497
f 301/601/498 304/591/498 278/524/498
f 288/324/499 278/524/499 305/590/499
f 277/316/500 274/595/500 303/594/500
f 177/255/501 202/304/501 175/259/501
f 309/602/502 241/355/502 221/356/502
f 308/603/503 202/304/503 307/604/503
f 308/603/504 306/303/504 202/304/504
f 241/355/505 309/602/505 307/587/505
f 306/605/506 308/606/506 184/596/506
f 175/607/507 306/605/507 184/596/507
f 307/587/508 184/596/508 308/606/508
f 221/356/509 184/596/509 307/587/509
f 307/587/507 309/602/507 221/356/507
f 236/85/400 361/608/400 362/540/400 80/389/400
f 280/538/444 358/571/444 357/609/444 228/536/444
f 228/536/510 357/609/510 356/610/510 229/611/510
f 232/84/410 229/611/410 356/610/410 355/612/410
f 232/84/511 355/612/511 361/608/511 236/85/511
f 272/446/512 360/535/512 353/542/512 275/503/512
f 121/118/513 124/117/513 352/350/513 350/349/513
f 118/168/213 351/348/213 349/613/213 186/614/213
f 124/117/213 196/327/213 348/326/213 352/350/213
f 186/614/213 349/613/213 347/615/213 187/616/213
f 187/616/213 347/615/213 346/617/213
f 156/218/514 157/47/514 343/257/514 344/618/514
f 163/227/515 156/218/515 344/618/515 342/619/515
f 159/267/147 163/227/147 342/619/147 341/269/147
f 67/150/43 339/149/43 359/534/43 272/446/43
f 100/96/45 72/130/45 337/620/45 338/621/45
f 72/130/52 33/29/52 336/126/52 337/620/52
f 83/394/516 81/390/516 334/622/516 335/623/516
f 80/389/517 333/539/517 334/622/517 81/390/517
f 196/327/518 88/103/518 332/102/518 345/328/518
f 88/103/519 89/624/519 331/625/519 330/104/519
f 56/395/520 83/394/520 335/623/520 329/626/520
f 58/413/21 59/412/21 328/627/21 327/628/21
f 56/395/25 329/626/25 326/55/25 55/54/25
f 59/412/521 55/54/521 325/53/521 328/627/521
f 36/48/43 275/503/43 353/542/43 323/49/43
f 58/413/522 327/628/522 322/629/522 63/630/522
f 40/631/523 63/630/523 322/629/523 321/632/523
f 113/161/82 40/160/82 321/633/82 340/521/82
f 34/30/524 31/25/524 318/24/524 319/31/524
f 7/634/10 316/635/10 315/21/10 29/20/10
f 7/634/525 9/636/525 313/637/525 316/635/525
f 10/638/526 312/639/526 313/637/526 9/636/526
f 2/640/3 363/641/3 312/639/3 10/638/3
f 2/640/527 3/12/527 311/642/527 363/641/527
f 112/7/5 310/643/5 311/642/5 3/12/5
f 112/7/386 113/161/386 354/522/386 310/643/386
f 332/102/528 345/328/528 348/326/528 352/350/528 350/349/528 351/348/528 349/613/528 347/615/528 346/572/528 358/571/528 357/609/528 356/610/528 355/612/528 361/608/528 362/540/528 333/539/528 334/622/528 335/623/528 329/626/528 326/55/528 325/53/528 328/627/528 327/628/528 322/629/528 321/633/528 340/521/528 354/522/528 310/643/528 311/642/528 363/641/528 312/639/528 313/637/528 316/635/528 315/21/528 314/19/528 317/27/528 318/24/528 319/31/528 320/28/528 336/126/528 337/620/528 338/151/528 339/149/528 359/534/528 360/535/528 353/542/528 323/49/528 324/46/528 343/257/528 344/618/528 342/619/528 341/269/528 331/625/528 330/104/528
g leaves_2_obj_0.003
v 3.508500 -29.090443 -7.252433
v 6.378600 -28.563251 -3.991125
v 3.761500 -29.128996 -2.093544
v 8.437500 -25.188011 -0.908940
v 7.250300 -23.958223 -2.933911
v -1.700000 -26.392370 -3.832191
v 3.314700 -23.953953 -3.849369
v 8.260501 -19.389242 2.664482
v 7.310400 -16.585445 3.914358
v 3.174190 -24.032864 -3.862449
v -1.110800 -25.149549 -2.057786
v 7.675701 -25.032606 1.024190
v 3.117300 -24.091513 -3.930970
v 6.387290 -24.002247 0.379096
v 6.663340 -25.104280 0.133006
v 0.497650 -19.821558 -1.870778
v 0.532100 -20.289845 -2.185637
v 0.883830 -19.803150 -1.800540
v 2.467170 -23.121635 -0.830073
v 2.220590 -23.243563 -0.813816
v 2.210500 -23.177111 -0.643963
v 6.388730 -23.831631 0.328823
v 4.827700 -22.611462 -2.541645
v 1.395300 -27.181368 -3.555469
v 6.039200 -26.328371 1.721452
v 5.298800 -24.757669 -4.940153
v 5.629900 -26.266075 -6.625869
v 1.364000 -25.912998 -1.222649
v 6.760340 -25.223345 -0.027956
v 1.836430 -17.512823 -2.523514
v 2.060140 -17.553051 -2.406060
v 0.540660 -16.931547 -2.952814
v 5.080600 -22.649921 2.617245
v -1.556800 -24.589277 -3.912524
v 5.012810 -23.454779 -3.484085
v 5.313790 -23.207380 -2.540842
v 0.709100 -19.222549 -4.493216
v 5.558840 -23.213238 -2.089919
v 3.833800 -24.199993 -5.941358
v 6.434080 -25.388319 -3.774142
v 3.755510 -23.929813 -4.337452
v 7.037000 -16.548841 0.593259
v 2.062900 -19.496794 -2.585222
v 1.907820 -19.335993 -2.167034
v 6.771270 -25.577557 -0.712811
v 2.168140 -19.139811 -2.138941
v 6.941340 -25.746843 -1.888298
v 4.923300 -25.071278 -5.395856
v -0.712400 -21.503567 -5.094090
v 3.229500 -25.101786 -5.832689
v 5.812340 -25.240160 -4.714336
v 2.280550 -18.676882 -2.197083
v 3.281650 -24.512470 -5.131112
v -1.767900 -20.505753 -3.846718
v 2.044120 -17.680134 -2.440922
v -2.170500 -19.324825 -3.180363
v -0.975090 -19.526020 -2.621846
v 2.550000 -25.412092 -6.356541
v 2.959300 -25.474285 1.990681
v -1.658500 -19.846098 -5.272835
v 5.743200 -22.427660 -0.081870
v 1.595700 -22.995489 -1.352705
v 4.940890 -22.628679 -0.232764
v 2.679200 -22.907030 -2.691311
v -1.204350 -18.339436 -3.123900
v -1.327060 -18.844856 -3.060416
v -1.134580 -18.068735 -3.050792
v 3.593390 -23.189091 -2.382811
v 3.832260 -22.826601 -1.819872
v 8.600000 -23.653292 0.857980
v 2.363850 -24.186626 -3.224275
v 4.909920 -22.623966 -0.864441
v -1.212560 -19.327448 -2.942348
v 0.590300 -16.509031 -3.019022
v 6.956540 -25.724745 -1.927307
v 5.754800 -23.042679 -2.252179
v 1.679490 -25.929766 -2.796599
v 1.865250 -25.560747 -3.097471
v 1.650480 -25.927956 -2.644110
v 2.275550 -24.522877 -3.366669
v 6.437561 -25.417435 -3.762022
v 2.206200 -23.272152 -0.790499
v 2.175170 -23.350651 -0.770143
v 5.137480 -22.786047 0.019387
v 6.232230 -23.702248 0.249204
v 5.678310 -23.244722 -0.045422
v 5.925760 -23.474466 -0.661431
v 4.549600 -19.401239 3.753016
v 2.569900 -21.104942 0.332233
v 5.437010 -23.073568 -1.003924
v 1.874000 -25.871412 -1.852719
v -1.897100 -19.361427 0.140735
v 2.112540 -25.615728 -1.006850
v 2.321760 -24.133108 -0.256585
v 1.032600 -16.568254 2.354552
v 2.235740 -25.014492 -0.566847
v 3.048170 -24.269674 -4.267374
v 0.642300 -25.006470 -4.223741
v 3.072000 -24.044588 -4.008227
v 0.439610 -16.943014 -2.975742
v -3.120600 -16.521027 -1.930588
v -0.612780 -17.736073 -3.089329
v 2.569900 -14.805326 0.401662
v 4.107200 -19.342016 -1.620558
vn 0.1994 -0.9798 -0.0171
vn -0.4336 0.8301 -0.3505
vn -0.6144 -0.3154 0.7233
vn -0.1223 -0.5600 0.8194
vn 0.8163 -0.1361 -0.5613
vn -0.9622 0.0879 0.2579
vn -0.6448 -0.7639 0.0259
vn 0.8876 0.1232 0.4438
vn 0.8876 0.1233 0.4438
vn 0.4822 0.1748 -0.8585
vn -0.2434 0.9544 -0.1727
vn 0.7165 0.5839 -0.3818
vn 0.9342 0.3491 -0.0731
vn 0.4691 0.5163 -0.7166
vn 0.8876 0.1233 0.4437
vn -0.4143 -0.6751 0.6104
vn 0.4690 0.5163 -0.7166
vn 0.4999 -0.7300 0.4661
vn -0.3822 -0.2734 0.8827
vn 0.2435 -0.9544 0.1727
vn 0.6143 0.3154 -0.7233
vn 0.4856 -0.8610 0.1515
vn 0.2447 -0.2760 -0.9295
vn 0.8164 -0.1361 -0.5613
vn -0.7963 0.4910 -0.3533
vn 0.1521 0.7512 -0.6423
vn 0.9700 -0.2402 -0.0367
vn -0.2549 -0.8488 0.4633
vn 0.4821 0.1747 -0.8585
vn 0.2368 -0.1775 -0.9552
vn 0.1462 -0.7888 -0.5970
vn -0.7165 -0.5839 0.3818
vn 0.8180 0.0539 -0.5727
vn 0.8180 0.0540 -0.5727
vn -0.1522 -0.7512 0.6423
vn 0.7517 -0.3160 -0.5788
vn 0.4336 -0.8301 0.3505
vn 0.2963 0.0664 -0.9528
vn -0.8165 -0.4976 -0.2928
vn -0.2970 0.6887 0.6614
vn -0.1249 0.9915 -0.0355
vn -0.4690 -0.5163 0.7166
vn 0.7164 0.5839 -0.3818
vn 0.7963 -0.4910 0.3533
vn -0.9701 0.2401 0.0367
vn -0.4336 0.8301 -0.3506
vn -0.4335 0.8301 -0.3506
vn 0.4142 0.6751 -0.6104
vn 0.4143 0.6750 -0.6105
vn -0.2447 0.2760 0.9295
vn 0.2970 -0.6887 -0.6614
vn 0.4900 -0.8265 -0.2771
vn 0.4901 -0.8264 -0.2772
vn -0.8180 -0.0540 0.5727
vn -0.8180 -0.0540 0.5726
vn 0.1249 -0.9915 0.0355
vn 0.8913 0.2985 -0.3413
vn -0.1994 0.9798 0.0171
vn 0.9298 -0.3207 0.1807
vn -0.0892 0.9588 0.2698
vn 0.9298 -0.3207 0.1806
vn 0.4325 0.8733 -0.2242
vn 0.3199 0.8436 -0.4312
vn -0.2434 0.9544 -0.1726
vn -0.4900 0.8265 0.2770
vn -0.5159 0.4004 0.7573
vn -0.5160 0.4003 0.7573
vn 0.9623 0.0018 -0.2719
vn -0.2970 0.6888 0.6614
vn -0.9298 0.3207 -0.1807
vn 0.1461 0.0325 0.9887
vn 0.1167 -0.9143 0.3878
vn 0.4130 -0.8136 -0.4093
vn 0.9622 -0.0879 -0.2579
vn 0.4143 0.6751 -0.6105
vn 0.1248 -0.9915 0.0356
vn -0.3643 -0.9311 0.0197
vn 0.3137 -0.9298 0.1926
vn -0.3210 -0.7604 0.5645
vn 0.0021 -0.5908 0.8068
vn 0.6448 0.7640 -0.0259
vn -0.9623 -0.0018 0.2719
vn -0.7031 0.1957 0.6836
vn -0.4821 -0.1747 0.8585
vn -0.2368 0.1775 0.9552
vn 0.2681 -0.3150 0.9104
vn 0.6448 0.7639 -0.0259
vn -0.7158 0.4127 0.5633
vn 0.0208 -0.2314 0.9726
vn -0.3199 -0.8436 0.4312
vn -0.4900 0.8266 0.2770
vn -0.8913 -0.2986 0.3413
vn -0.8164 0.1361 0.5613
vn 0.5159 -0.4004 -0.7573
vn -0.2969 0.6888 0.6613
vn 0.2369 -0.1775 -0.9552
vn -0.3137 0.9298 -0.1925
vn -0.6367 0.6824 0.3592
vn 0.1224 0.5600 -0.8194
vn 0.3822 0.2734 -0.8827
vn 0.3823 0.2734 -0.8827
vn -0.0021 0.5909 -0.8068
vn -0.1461 -0.0324 -0.9887
vn -0.2681 0.3150 -0.9105
vn -0.9342 -0.3491 0.0731
vn -0.4998 0.7300 -0.4661
vn -0.1167 0.9143 -0.3878
vn -0.4130 0.8136 0.4093
vn -0.8876 -0.1232 -0.4437
vn -0.1462 0.7888 0.5970
vn 0.7158 -0.4127 -0.5633
vn -0.0209 0.2315 -0.9726
vn 0.3643 0.9311 -0.0197
vn 0.3210 0.7604 -0.5645
vn 0.7031 -0.1957 -0.6836
vt 0.214532 0.729538
vt 0.373820 0.785749
vt 0.325788 0.892350
vt 0.771407 0.673315
vt 0.768163 0.739525
vt 0.733822 0.681452
vt 0.733092 0.677508
vt 0.724683 0.665181
vt 0.674042 0.586322
vt 0.917543 0.670015
vt 0.956344 0.726553
vt 0.912181 0.721027
vt 0.945822 0.846161
vt 0.925746 0.843817
vt 0.950801 0.832655
vt 0.338732 0.680879
vt 0.339827 0.557767
vt 0.389436 0.609339
vt 0.427768 0.383877
vt 0.421848 0.375930
vt 0.427768 0.372047
vt 0.373820 0.729538
vt 0.435673 0.790332
vt 0.374371 0.787534
vt 0.214532 0.907169
vt 0.081388 0.680517
vt 0.077026 0.686941
vt -0.000000 0.689793
vt 0.083387 0.719980
vt 0.049262 0.317995
vt 0.012286 0.371365
vt 0.050371 0.308141
vt 0.730360 0.767144
vt 0.730223 0.784924
vt 0.706915 0.738155
vt 0.766532 0.809932
vt 0.703104 0.848542
vt 0.692515 0.823977
vt 0.018436 0.801652
vt 0.511809 0.036995
vt 0.593205 -0.000000
vt 0.616407 0.112785
vt 0.125686 0.389740
vt 0.087692 0.723218
vt 0.301914 0.133530
vt 0.214532 0.076119
vt 0.223764 -0.000000
vt 0.027908 0.371052
vt 0.962216 0.150798
vt 0.947791 0.161613
vt 0.910742 0.139832
vt 0.910433 0.112464
vt 0.654114 0.652550
vt 0.706348 0.686777
vt 0.954263 0.171870
vt 0.300717 0.188294
vt 0.910433 0.369205
vt 0.976331 0.388498
vt 0.920697 0.414487
vt 0.369809 0.501219
vt 0.400193 0.436579
vt 0.359806 0.478135
vt 0.963445 -0.000000
vt 0.371387 0.413544
vt 0.347974 0.519782
vt 0.338731 0.557950
vt 0.676006 0.616760
vt 0.693649 0.647290
vt 0.721808 0.856152
vt 0.744202 0.915213
vt 0.963445 0.186164
vt 0.817236 0.880015
vt 0.878202 0.844338
vt 0.878202 0.971251
vt 0.000000 0.085198
vt 0.055425 0.309100
vt 0.116643 0.220742
vt 0.092243 0.294722
vt 0.670336 0.347131
vt 0.693386 0.232513
vt 0.675319 0.411636
vt 0.447165 0.099542
vt 0.351650 0.240795
vt 0.322022 0.062052
vt 0.125749 0.307826
vt 0.447165 0.789543
vt 0.561578 0.929374
vt 0.447165 0.976627
vt 0.214532 0.445032
vt -0.000000 0.491925
vt 0.118924 0.483520
vt 0.150988 0.483520
vt 0.833084 0.832655
vt 0.766532 0.933580
vt 0.717168 0.923910
vt 0.596924 0.693471
vt 0.559739 0.675012
vt 0.580649 0.659616
vt 0.247562 0.234780
vt 0.295537 0.318116
vt 0.219240 0.207042
vt 0.309530 0.345367
vt 0.577226 0.640232
vt 0.624811 0.789543
vt 0.624811 0.935372
vt 0.561578 0.926170
vt 0.098817 0.433021
vt 0.116643 0.463030
vt 0.080123 0.430951
vt 0.116643 0.426058
vt 0.878202 0.942681
vt 0.934503 0.910260
vt 0.654115 0.802527
vt 0.968020 0.734468
vt 0.968020 0.824883
vt 0.912181 0.792623
vt 0.964737 0.557206
vt 0.912181 0.478744
vt 0.965744 0.486215
vt 0.779404 0.764277
vt 0.735081 0.776123
vt 0.955171 0.572598
vt 0.953323 0.583039
vt 0.730982 0.686545
vt 0.680704 0.462931
vt 0.670893 0.426187
vt 0.898087 0.734324
vt 0.912181 0.680488
vt 0.889395 0.789011
vt 0.884066 0.832655
vt 0.967475 0.642825
vt 0.866411 0.560955
vt 0.828200 0.613997
vt 0.849038 0.478744
vt 0.127002 0.619213
vt 0.168706 0.573933
vt 0.143143 0.675222
vt 0.125251 0.619496
vt 0.935843 0.925791
vt 0.950801 0.937856
vt 0.962574 0.310268
vt 0.957560 0.313394
vt 0.910433 0.186164
vt 0.400193 0.729538
vt 0.509356 0.600921
vt 0.458206 0.669834
vt 0.447166 0.509467
vt 0.447166 0.669271
vt 0.093477 0.653189
vt 0.516922 0.672828
vt 0.523140 0.621192
vt 0.557504 0.585899
vt 0.600797 0.478744
vt 0.584618 0.642297
vt 0.547731 0.549186
vt 0.654115 0.623347
vt 0.976331 0.468392
vt 0.629191 0.789543
vt 0.740581 0.779127
vt 0.782584 0.802527
vt 0.248030 0.223170
vt 0.246253 0.225456
vt 0.962607 0.727573
vt 0.967475 0.734468
vt 0.305506 0.470585
vt 0.306837 0.323677
vt 0.219742 0.533370
vt 0.327854 0.609057
vt 0.801571 0.561188
vt 0.811679 0.616561
vt 0.795453 0.625691
vt 0.817236 0.618718
vt 0.332684 0.324780
vt 0.770942 0.659282
vt 0.680706 -0.000000
vt 0.784746 0.103514
vt 0.421489 0.374533
vt 0.419513 0.372086
vt 0.093711 0.805029
vt 0.210811 0.801652
vt 0.210811 0.956129
vt 0.400193 0.397969
vt 0.419513 0.372047
vt 0.419513 0.416992
vt 0.865860 0.796943
vt 0.665706 0.332853
vt 0.638933 0.306497
vt 0.910433 0.342077
vt 0.940553 0.340380
vt 0.784746 0.389620
vt 0.920590 0.369205
vt 0.278885 0.217152
vt 0.312288 0.162936
vt 0.510959 0.587559
vt 0.297812 0.114770
vt 0.307630 0.135787
vt 0.895435 0.081084
vt 0.784746 0.221502
vt 0.794015 -0.000000
vt 0.895435 0.367517
vt 0.794015 0.463460
vt 0.910433 0.472576
vt 0.551879 0.542266
vt 0.586381 0.743745
vt 0.533354 0.574075
vt 0.244678 0.230469
vt 0.731057 0.676760
vt 0.546776 0.610392
vt 0.322021 0.372047
vt 0.817236 0.609529
vt 0.447165 0.291133
vt 0.927457 0.449860
vt 0.929005 0.441856
vt 0.419513 0.394728
vt 0.423012 0.383877
vt 0.422659 0.395920
vt 0.423012 0.399941
vt 0.860120 0.634434
vt 0.245553 0.226080
vt 0.028342 0.374890
vt 0.435673 0.922820
vt 0.373820 0.943907
vt 0.888854 0.711313
vt 0.870891 0.644188
vt 0.057762 0.411310
vt 0.912181 0.504229
vt 0.000000 0.477231
vt 0.069418 0.427718
vt 0.910433 0.009118
vt 0.938103 0.600420
vt 0.912181 0.642825
vt 0.526150 0.275436
vt 0.616407 0.385798
vt 0.511814 0.478744
vt 0.093711 0.930802
vt 0.000000 1.000000
vt 0.000000 0.801652
vt 0.654114 0.478744
vt 0.447165 0.263171
vt 0.214532 0.372047
vt 0.363822 0.379117
vt 0.616407 0.222133
vt 0.096763 0.000000
vt 0.116643 0.305627
vt 0.109365 0.296618
s 0
usemtl color_15277357.001
f 364/644/529 365/645/529 366/646/529
f 434/647/530 431/648/530 373/649/530
f 373/649/530 376/650/530 434/647/530
f 376/650/530 460/651/530 434/647/530
f 421/652/530 434/647/530 460/651/530
f 375/653/531 377/654/531 378/655/531
f 379/656/532 380/657/532 381/658/532
f 367/659/533 403/660/533 368/661/533
f 382/662/530 383/663/530 384/664/530
f 369/665/534 374/666/534 397/667/534
f 366/646/535 387/668/535 364/644/535
f 392/669/536 378/670/536 388/671/536
f 378/670/537 377/672/537 388/671/537
f 393/673/538 437/674/538 394/675/538
f 399/676/539 439/677/539 398/678/539
f 390/679/540 389/680/540 414/681/540
f 396/682/537 388/671/537 377/672/537
f 372/683/541 371/684/541 405/685/541
f 394/675/542 400/686/542 393/673/542
f 396/682/543 377/672/543 385/687/543
f 391/688/544 374/689/544 369/690/544
f 395/691/545 393/673/545 400/686/545
f 406/692/546 407/693/546 381/694/546
f 406/692/546 381/694/546 380/695/546
f 402/696/539 404/697/539 398/678/539
f 406/692/546 409/698/546 407/693/546
f 459/699/547 374/689/547 391/688/547
f 410/700/548 367/701/548 408/702/548
f 368/661/549 389/703/549 402/704/549
f 411/705/549 402/704/549 389/703/549
f 380/695/550 412/706/550 406/692/550
f 411/705/551 413/707/551 402/704/551
f 414/708/533 368/661/533 403/660/533
f 444/709/552 403/660/552 367/659/552
f 413/710/553 416/711/553 402/696/553
f 411/712/554 390/679/554 413/713/554
f 414/708/549 389/703/549 368/661/549
f 415/714/555 409/698/555 406/692/555
f 417/715/556 412/716/556 380/717/556
f 394/675/557 405/718/557 418/719/557
f 467/720/558 415/721/558 418/719/558
f 379/722/559 452/723/559 420/724/559
f 366/725/560 422/726/560 387/727/560
f 406/728/561 400/686/561 415/721/561
f 389/680/554 390/679/554 411/712/554
f 394/675/562 418/719/562 400/686/562
f 366/729/563 388/730/563 422/731/563
f 418/719/561 415/721/561 400/686/561
f 406/728/564 412/732/564 400/686/564
f 388/671/565 366/733/565 365/734/565
f 412/732/566 423/735/566 400/686/566
f 417/715/567 423/736/567 412/716/567
f 421/737/554 416/738/554 413/713/554
f 413/713/554 390/679/554 421/737/554
f 398/739/540 386/740/540 399/741/540
f 382/742/568 426/743/568 425/744/568
f 424/745/568 425/744/568 426/743/568
f 386/740/540 401/746/540 399/741/540
f 424/747/569 427/748/569 425/749/569
f 429/750/558 419/751/558 428/752/558
f 436/753/558 419/751/558 429/750/558
f 417/754/570 380/657/570 420/755/570
f 379/656/570 420/755/570 380/657/570
f 403/756/571 390/679/571 414/681/571
f 367/757/572 433/758/572 375/759/572
f 429/760/573 423/761/573 417/762/573
f 432/763/574 386/764/574 431/648/574
f 423/761/573 429/760/573 428/765/573
f 423/761/573 428/765/573 430/766/573
f 404/697/530 370/767/530 386/764/530
f 370/767/575 373/649/575 431/648/575
f 419/768/559 436/769/559 420/724/559
f 432/770/576 427/771/576 435/772/576
f 424/773/577 435/772/577 427/771/577
f 433/774/578 377/654/578 375/653/578
f 461/775/579 441/776/579 369/777/579
f 438/778/580 444/779/580 367/780/580
f 410/781/581 438/778/581 367/780/581
f 417/754/582 420/755/582 436/782/582
f 417/754/583 436/782/583 429/783/583
f 440/784/584 442/785/584 369/786/584
f 367/659/585 368/661/585 433/787/585
f 426/788/586 382/789/586 396/790/586
f 384/791/586 396/790/586 382/789/586
f 392/669/587 388/671/587 408/792/587
f 386/740/586 432/793/586 435/794/586
f 450/795/588 433/796/588 439/797/588
f 448/798/588 433/796/588 450/795/588
f 438/778/589 410/781/589 365/734/589
f 365/734/587 408/792/587 388/671/587
f 368/799/590 439/797/590 433/796/590
f 408/792/587 365/734/587 410/781/587
f 408/702/548 367/701/548 375/800/548
f 368/799/591 402/801/591 439/797/591
f 402/696/592 398/678/592 439/677/592
f 401/802/593 450/803/593 439/677/593
f 399/676/593 401/802/593 439/677/593
f 374/689/594 446/804/594 425/744/594
f 445/805/595 425/744/595 446/804/595
f 377/654/578 433/774/578 385/806/578
f 448/807/578 385/806/578 433/774/578
f 403/660/596 444/709/596 390/808/596
f 447/809/597 424/745/597 426/743/597
f 365/810/596 390/808/596 444/709/596
f 438/811/596 365/810/596 444/709/596
f 387/812/598 440/813/598 441/814/598
f 387/812/598 441/814/598 421/652/598
f 387/812/598 442/815/598 440/813/598
f 449/816/599 424/745/599 447/809/599
f 443/817/598 421/652/598 441/814/598
f 434/647/598 421/652/598 443/817/598
f 371/818/600 451/819/600 452/723/600
f 383/663/598 445/820/598 384/664/598
f 445/820/598 446/821/598 384/664/598
f 452/822/601 467/823/601 371/824/601
f 449/825/602 453/826/602 424/827/602
f 453/828/603 435/772/603 424/773/603
f 419/768/559 420/724/559 452/723/559
f 452/723/559 379/722/559 381/829/559
f 381/829/559 407/830/559 452/723/559
f 391/831/604 369/786/604 442/785/604
f 454/832/604 391/831/604 442/785/604
f 452/723/605 455/833/605 419/768/605
f 454/832/606 456/834/606 391/831/606
f 451/819/607 455/833/607 452/723/607
f 374/689/594 457/835/594 446/804/594
f 374/689/547 459/699/547 457/835/547
f 459/699/608 391/688/608 456/836/608
f 396/790/609 447/837/609 426/788/609
f 422/726/610 456/836/610 387/727/610
f 442/838/610 387/727/610 454/839/610
f 455/840/611 458/841/611 464/842/611
f 455/840/612 451/843/612 458/841/612
f 451/843/613 372/844/613 458/841/613
f 459/699/610 456/836/610 422/726/610
f 454/839/610 387/727/610 456/836/610
f 451/843/614 371/845/614 372/844/614
f 396/790/615 385/846/615 448/798/615
f 404/847/554 386/740/554 398/739/554
f 450/795/615 449/848/615 448/798/615
f 449/848/615 396/790/615 448/798/615
f 447/837/615 396/790/615 449/848/615
f 422/726/610 384/849/610 457/835/610
f 446/804/610 457/835/610 384/849/610
f 370/767/592 404/697/592 462/850/592
f 457/835/610 459/699/610 422/726/610
f 449/848/615 450/795/615 453/851/615
f 384/849/616 422/726/616 396/852/616
f 450/795/615 401/746/615 453/851/615
f 386/740/615 453/851/615 401/746/615
f 440/853/579 369/777/579 441/776/579
f 422/726/617 388/854/617 396/852/617
f 378/855/618 392/856/618 375/800/618
f 408/702/618 375/800/618 392/856/618
f 453/851/615 386/740/615 435/794/615
f 462/850/619 373/649/619 370/767/619
f 462/857/620 460/858/620 376/859/620
f 376/859/621 373/860/621 462/857/621
f 461/775/622 443/861/622 441/776/622
f 425/744/623 445/805/623 383/862/623
f 425/744/568 383/862/568 382/742/568
f 463/863/624 437/674/624 395/691/624
f 393/673/558 395/691/558 437/674/558
f 397/667/625 425/864/625 427/865/625
f 397/667/626 374/666/626 425/864/626
f 395/691/627 400/686/627 463/863/627
f 423/735/627 463/863/627 400/686/627
f 432/770/577 431/866/577 427/771/577
f 427/771/628 434/867/628 461/775/628
f 443/861/629 461/775/629 434/867/629
f 431/866/628 434/867/628 427/771/628
f 463/863/624 465/868/624 437/674/624
f 461/775/630 397/869/630 427/771/630
f 461/775/631 369/777/631 397/869/631
f 419/751/632 464/870/632 428/752/632
f 430/871/632 428/752/632 464/870/632
f 465/868/632 430/871/632 464/870/632
f 465/868/632 464/870/632 437/674/632
f 419/872/633 455/840/633 464/842/633
f 462/850/539 404/697/539 402/696/539
f 416/711/574 421/652/574 460/651/574
f 416/711/553 460/651/553 402/696/553
f 462/850/553 402/696/553 460/651/553
f 431/648/530 386/764/530 370/767/530
f 465/873/634 423/761/634 430/766/634
f 463/874/634 423/761/634 465/873/634
f 466/875/635 437/876/635 464/877/635
f 458/878/636 466/879/636 464/880/636
f 421/652/637 364/881/637 387/812/637
f 466/875/638 458/882/638 372/683/638
f 365/810/639 364/883/639 390/808/639
f 421/884/640 390/808/640 364/883/640
f 467/885/559 452/723/559 407/830/559
f 466/875/641 372/683/641 405/685/641
f 405/685/642 437/876/642 466/875/642
f 405/718/643 371/886/643 467/720/643
f 437/674/557 405/718/557 394/675/557
f 467/720/557 418/719/557 405/718/557
f 467/720/558 407/887/558 409/888/558
f 409/888/558 415/721/558 467/720/558
g trunk_2_base_obj_0.007
v 2.357000 0.020476 -1.857887
v 2.605800 0.016574 -1.503809
v 3.008200 0.015083 -1.368517
v 3.410700 0.016574 -1.503809
v 3.659400 0.020476 -1.857887
v 3.659400 0.025301 -2.295661
v 3.410700 0.029204 -2.649839
v 3.008200 0.030695 -2.785131
v 2.605800 0.029204 -2.649839
v 2.357000 0.025301 -2.295661
v 2.732271 -10.398045 -1.798749
v 2.727878 -10.397183 -1.804965
v 2.710148 -10.393701 -1.830080
v 2.709147 -10.393506 -1.831483
v 2.634845 -10.378923 -1.936644
v 2.661151 -10.384084 -1.899423
v 2.686921 -10.389139 -1.862964
v 2.633904 -10.378736 -1.937984
v 2.574347 -10.367052 -2.022243
v 2.573549 -10.366895 -2.023378
v 2.561118 -10.364456 -2.040960
v 3.008200 -10.406865 -1.706209
v 3.030555 -10.405301 -1.713679
v 2.730925 -10.278418 -2.585200
v 2.803388 -10.273319 -2.609632
v 3.106354 -10.400005 -1.738997
v 3.179628 -10.394885 -1.763469
v 3.030966 -10.405272 -1.713815
v 3.105619 -10.400055 -1.738752
v 3.210949 -10.392698 -1.773926
v 3.080643 -10.261247 -2.654239
v 3.008200 -10.258916 -2.678635
v 3.285656 -10.267831 -2.585268
v 3.284307 -10.387567 -1.798451
v 3.273679 -10.388310 -1.794896
v 3.272738 -10.388375 -1.794580
v 2.560982 -10.356993 -2.090038
v 2.560791 -10.346360 -2.159942
v 2.560285 -10.318767 -2.341374
v 2.605017 -10.308187 -2.405310
v 2.934821 -10.404517 -1.730834
v 2.964690 -10.261976 -2.663975
v 2.930330 -10.264391 -2.652403
v 2.930008 -10.264415 -2.652291
v 2.930295 -10.264393 -2.652387
v 3.330349 -10.276694 -2.521421
v 3.455617 -10.347451 -2.040663
v 3.455948 -10.329263 -2.160161
v 3.456449 -10.301695 -2.341297
v 3.456061 -10.323204 -2.199975
v 3.456285 -10.310817 -2.281364
v 3.456259 -10.312232 -2.272061
v 3.456282 -10.310805 -2.281432
v 2.723094 -10.280269 -2.574012
v 2.858571 -10.402081 -1.756400
v 3.377430 -10.365760 -1.930113
v 3.397569 -10.361046 -1.958576
v 3.397976 -10.360951 -1.959149
v 3.410299 -10.358064 -1.976578
v 2.645651 -10.298579 -2.463367
v 2.723074 -10.280272 -2.573984
v 3.376758 -10.365918 -1.929154
v 3.330409 -10.376772 -1.863628
v 2.727380 -10.397084 -1.805674
vn -0.8181 -0.0262 0.5745
vn -0.8157 -0.0263 0.5779
vn -0.8180 -0.0262 0.5746
vn -0.8196 -0.0262 0.5723
vn 0.3187 -0.0307 0.9474
vn 0.3186 -0.0307 0.9474
vn 0.3173 -0.0307 0.9478
vn 0.3184 -0.0307 0.9474
vn 0.3170 -0.0307 0.9479
vn -0.0000 0.9999 0.0110
vn 0.3189 -0.0098 -0.9478
vn 0.3190 -0.0307 0.9473
vn 0.3188 -0.0307 0.9473
vn 0.3199 -0.0307 0.9470
vn -0.9998 -0.0196 -0.0003
vn -0.3189 -0.0307 0.9473
vn -0.3186 -0.0098 -0.9478
vn -0.4144 -0.0087 -0.9100
vn -0.3164 -0.0098 -0.9486
vn 0.8183 -0.0135 -0.5747
vn 0.9998 -0.0196 -0.0002
vn -0.9998 -0.0196 -0.0002
vn -0.8181 -0.0135 -0.5749
vn -0.3186 -0.0307 0.9474
vn 0.8181 -0.0262 0.5745
vn 0.8168 -0.0262 0.5764
vn 0.8183 -0.0262 0.5742
vn 0.8182 -0.0262 0.5744
vn 0.8208 -0.0263 0.5706
vn -0.8183 -0.0262 0.5742
vn -0.8183 -0.0262 0.5741
vn 0.9998 -0.0196 -0.0001
vn 0.8182 -0.0262 0.5743
vn 0.8182 -0.0135 -0.5747
vn -0.8182 -0.0135 -0.5747
vn -0.3187 -0.0098 -0.9478
vn 0.3186 -0.0098 -0.9479
vn -0.3189 -0.0098 -0.9477
vn -0.8180 -0.0262 0.5747
vn -0.8200 -0.0262 0.5717
vt 0.095800 0.396082
vt 0.030829 0.784767
vt 0.095518 0.396060
vt 0.094379 0.395972
vt 0.094315 0.395967
vt 0.092887 0.395857
vt 0.091233 0.395729
vt 0.085610 0.395296
vt 0.085661 0.395299
vt 0.015104 0.781851
vt 0.656699 0.615680
vt 0.657576 0.615541
vt 0.685649 0.881776
vt 0.657592 0.615539
vt 0.660520 0.615075
vt 0.660549 0.615071
vt 0.664652 0.614421
vt 0.701363 0.878597
vt 0.663424 0.614616
vt 0.673505 0.903004
vt 0.675011 0.891098
vt 0.716145 0.882777
vt 0.712212 0.913950
vt 0.696500 0.917127
vt 0.722852 0.904626
vt 0.724353 0.892719
vt 0.509231 0.404833
vt 0.511328 0.404863
vt 0.511328 0.794239
vt 0.667530 0.613967
vt 0.667113 0.614033
vt 0.667076 0.614038
vt 0.080584 0.395173
vt 0.083068 0.395209
vt 0.000000 0.779335
vt 0.101040 0.396976
vt 0.102939 0.397300
vt 0.041172 0.786968
vt 0.513030 0.403843
vt 0.514374 0.403727
vt 0.511328 0.792604
vt 0.514375 0.403727
vt 0.514387 0.403726
vt 0.681714 0.912947
vt 0.500372 0.404402
vt 0.503297 0.404750
vt 0.499679 0.794508
vt 0.486076 0.402197
vt 0.483425 0.794292
vt 0.468774 0.793674
vt 0.482089 0.401389
vt 0.487405 0.402466
vt 0.490123 0.403016
vt 0.492121 0.403421
vt 0.489811 0.402953
vt 0.074137 0.395080
vt 0.522174 0.403056
vt 0.522643 0.402997
vt 0.527067 0.792263
vt 0.099068 0.396639
vt 0.673117 0.616045
vt 0.674324 0.616495
vt 0.674349 0.616504
vt 0.675088 0.616779
vt 0.673076 0.616030
vt 0.670296 0.614996
vt 0.529719 0.402108
vt 0.541964 0.792463
vt 0.527284 0.402414
vt 0.095486 0.396058
vt 0.522644 0.402997
vt 0.490121 0.403016
vt 0.677807 0.617791
vt 0.532401 0.401771
vt 0.511328 0.403989
vt 0.519339 0.403300
vt 0.084812 0.395234
vt 0.089484 0.395595
vt 0.089545 0.395599
s 0
usemtl color_8273816.001
f 478/889/644 469/890/644 479/891/644
f 480/892/645 469/890/645 481/893/645
f 484/894/646 469/890/646 483/895/646
f 487/896/647 486/897/647 468/898/647
f 489/899/648 490/900/648 470/901/648
f 495/902/649 496/903/649 470/901/649
f 496/903/650 493/904/650 470/901/650
f 497/905/651 471/906/651 494/907/651
f 495/902/652 470/901/652 490/900/652
f 468/908/653 469/909/653 472/910/653
f 475/911/653 476/912/653 474/913/653
f 473/914/653 468/908/653 472/910/653
f 498/915/654 499/916/654 475/917/654
f 501/918/655 471/906/655 502/919/655
f 497/905/656 503/920/656 471/906/656
f 503/920/657 502/919/657 471/906/657
f 505/921/658 504/922/658 477/923/658
f 508/924/659 489/925/659 470/926/659
f 509/927/660 510/928/660 475/929/660
f 510/928/661 512/930/661 475/929/661
f 512/930/662 511/931/662 475/929/662
f 477/932/653 473/914/653 476/912/653
f 468/908/653 473/914/653 477/932/653
f 513/933/663 500/934/663 474/935/663
f 515/936/664 473/937/664 472/938/664 514/939/664
f 517/940/664 473/937/664 515/936/664
f 520/941/664 516/942/664 473/937/664
f 519/943/664 473/937/664 517/940/664
f 506/944/665 505/921/665 477/923/665
f 471/906/653 472/910/653 469/909/653
f 470/901/653 471/906/653 469/909/653
f 491/945/666 521/946/666 476/947/666
f 473/914/653 474/913/653 476/912/653
f 478/889/667 522/948/667 469/890/667
f 523/949/668 524/950/668 472/910/668
f 525/951/669 472/910/669 524/950/669
f 526/952/670 472/910/670 525/951/670
f 529/953/671 472/910/671 530/954/671
f 523/949/672 472/910/672 529/953/672
f 507/955/666 477/956/666 527/957/666
f 531/958/673 469/890/673 480/892/673
f 531/958/647 479/891/647 469/890/647
f 484/894/674 481/893/674 469/890/674
f 477/956/666 476/947/666 528/959/666 527/957/666
f 473/937/675 519/943/675 518/960/675
f 472/910/676 526/952/676 514/961/676
f 473/937/677 516/942/677 513/933/677 474/935/677
f 470/926/667 469/890/667 522/948/667 508/924/667
f 477/956/678 507/955/678 506/962/678
f 471/906/671 501/918/671 530/954/671 472/910/671
f 475/929/679 499/963/679 509/927/679
f 474/935/680 500/934/680 498/915/680 475/917/680
f 470/901/649 493/904/649 494/907/649 471/906/649
f 476/947/660 475/929/660 511/931/660 492/964/660
f 476/947/681 492/964/681 491/945/681
f 468/898/665 477/923/665 504/922/665 488/965/665
f 468/898/682 488/965/682 487/896/682
f 468/898/646 486/897/646 485/966/646
f 468/898/644 482/967/644 483/895/644 469/890/644
f 468/898/683 485/966/683 482/967/683
