# Blender 5.1.1
# www.blender.org
mtllib baja2.mtl
g Cube_Cube.002
v -0.288117 -0.120697 -0.939402
v -0.184707 1.050186 -0.731928
v 0.961585 -0.120697 -0.939402
v -0.256156 0.648690 -0.949493
v 0.873754 0.571728 -0.920876
v -0.288117 -0.128663 0.000000
v -0.184707 1.072574 0.000000
v 0.961585 -0.128663 0.000000
v -0.288117 0.648690 0.000000
v 1.152532 0.612601 0.000000
v 2.243156 0.085222 0.000000
v -1.971347 0.648690 -0.952502
v -2.080844 0.049228 -0.952502
v -2.033333 0.648690 0.000000
v -2.142829 0.049228 0.000000
v -0.288117 0.456876 -1.013965
v -0.288117 0.197758 -1.064473
v 0.961585 0.429691 -1.013965
v 0.961585 0.182604 -1.064473
v 2.026767 0.348918 -0.982153
v 2.026767 0.137575 -0.982153
v 2.287297 0.348918 0.000000
v 2.287297 0.137575 0.000000
v -2.087354 0.456876 -1.016975
v -2.087354 0.197758 -1.016975
v -2.149339 0.456876 0.000000
v -2.149339 0.197758 0.000000
v -0.184707 1.072574 -0.614259
v -0.288117 0.648690 -0.774586
v -0.288117 -0.128663 -0.774586
v 1.009382 0.612601 -0.774586
v 0.961585 -0.128663 -0.774586
v 2.118531 0.085222 -0.774586
v -2.033333 0.648690 -0.774586
v -2.142829 0.049228 -0.774586
v -2.149339 0.456876 -0.774586
v -2.149339 0.197758 -0.774586
v 2.162672 0.137575 -0.774586
v 2.162672 0.348918 -0.774586
v -0.197790 0.994953 -0.830918
v 0.476152 0.988344 -0.830918
v -0.229752 0.994953 0.000000
v 0.641481 0.988344 0.000000
v 0.611780 0.988344 -0.643618
v -0.229752 0.994953 -0.643618
v -0.288117 0.648690 -0.332905
v -0.288117 -0.128663 -0.332905
v -2.033333 0.648690 -0.332905
v -2.142829 0.049228 -0.332905
v -2.149339 0.456876 -0.332905
v -2.149339 0.197758 -0.332905
v 2.269022 0.137575 -0.332905
v 2.269022 0.348918 -0.332905
v -0.184707 1.072574 -0.263998
v 1.126296 0.612601 -0.332905
v 0.961585 -0.128663 -0.332905
v 2.224881 0.085222 -0.332905
v 0.628716 0.988344 -0.276616
v -0.229752 0.994953 -0.276616
v 1.310113 0.085222 -0.332905
v 1.326132 0.085222 0.000000
v 1.216887 0.085222 -0.774586
v 1.580392 0.441829 -1.147387
v 1.346450 0.378827 -1.147387
v 1.217628 0.246797 -1.147387
v 1.161102 0.113683 -1.147387
v 1.912152 0.283138 -1.147387
v 1.801035 0.398833 -1.147387
v 1.518152 0.559769 -0.774586
v 1.570960 0.505828 -0.901325
v 1.565849 0.409791 -1.148873
v 1.786491 0.366794 -1.148873
v 1.373199 0.352728 -1.147460
v 1.244376 0.220698 -1.147460
v 2.000275 0.132722 -0.984019
v 1.885660 0.278286 -1.149253
v 1.565849 0.409791 -0.815606
v 1.786491 0.366794 -0.815606
v 1.373199 0.352728 -0.814193
v 1.244376 0.220698 -0.814193
v 1.983109 0.085222 -0.774586
v 1.885660 0.278286 -0.815987
v 1.968222 0.085222 -0.332905
v -1.220831 0.309492 -1.153939
v -1.469600 0.242874 -1.146018
v -1.617891 0.035569 -1.125280
v -0.799374 -0.059531 -1.099646
v -0.828825 0.041522 -1.125280
v -0.976696 0.228605 -1.146018
v -0.613730 -0.097433 0.000000
v -0.613730 -0.090865 -0.950041
v -0.568156 0.648690 -0.958360
v -0.353758 0.648690 0.000000
v -0.614873 0.456876 -1.022833
v -0.614873 0.197758 -1.064473
v -0.353758 0.648690 -0.889402
v -0.613730 -0.097433 -0.774586
v -0.353758 0.648690 -0.332905
v -0.613730 -0.097433 -0.332905
v -1.838660 0.020054 0.000000
v -1.838660 0.021360 -0.990062
v -1.844102 0.456876 -1.056190
v -1.844102 0.197758 -1.064473
v -1.946726 0.648690 -0.889402
v -1.838660 0.020054 -0.774586
v -1.946726 0.648690 -0.332905
v -1.838660 0.020054 -0.332905
v -1.741879 0.648690 -0.991717
v -1.946726 0.648690 0.000000
v -1.155018 0.648690 -0.975038
v -1.170814 0.328136 0.000000
v -1.226195 -0.038689 0.000000
v -1.226195 -0.034753 -0.827161
v -1.229487 0.456876 -1.039511
v -1.170814 0.648690 -0.889402
v -1.226195 -0.038689 -0.774586
v -0.353758 0.328136 0.000000
v -1.226195 -0.038689 -0.332905
v -1.220831 0.283803 -1.153939
v -1.454849 0.222403 -1.146018
v -0.992517 0.210275 -1.146018
v -0.833099 -0.059531 -1.099646
v -0.862470 0.034679 -1.125280
v -1.620600 0.001382 -0.840047
v -1.220831 0.283803 -0.899105
v -1.454849 0.222403 -0.891183
v -0.992517 0.210275 -0.891183
v -0.829581 -0.071089 -0.814202
v -0.862470 0.034679 -0.870445
v -0.768687 -0.082570 -0.774586
v -1.715356 0.008227 -0.774586
v -0.353758 0.442052 0.000000
v -0.353758 0.442052 -0.889402
v -1.170814 0.442052 -0.889402
v -1.946726 0.442052 -0.889402
v -1.946726 0.442052 -0.332905
v -1.946726 0.442052 0.000000
v -0.353758 0.328136 -0.332905
v -0.353758 0.328136 -0.889402
v -1.170814 0.328136 -0.889402
v -1.946726 0.328136 -0.889402
v -1.946726 0.328136 -0.332905
v -1.946726 0.328136 0.000000
v 0.317287 1.050186 -0.731928
v 0.427200 1.022309 -0.776550
v 0.378365 1.042021 -0.744998
v 0.533467 1.042945 0.000000
v 0.406134 1.072574 0.000000
v 0.471894 1.063896 0.000000
v 0.405565 1.072574 -0.614259
v 0.530855 1.038125 -0.626266
v 0.470962 1.062484 -0.617776
v 0.405994 1.072574 -0.263998
v 0.532478 1.041028 -0.268724
v 0.471563 1.063334 -0.265383
v 1.866674 0.469362 -0.890507
v 1.926639 0.444856 -0.904881
v 1.894050 0.456941 -0.918782
v 1.900585 0.460168 -0.894119
v 2.186809 0.479249 0.000000
v 2.133843 0.508839 0.000000
v 2.162954 0.498734 0.000000
v 2.003794 0.509340 -0.774586
v 2.062680 0.478606 -0.774586
v 2.036886 0.498693 -0.774586
v 2.110324 0.509362 -0.332905
v 2.168535 0.479249 -0.332905
v 2.144679 0.498727 -0.332905
v -0.288117 -0.120697 0.939402
v -0.184707 1.050186 0.731928
v 0.961585 -0.120697 0.939402
v -0.256156 0.648690 0.949493
v 0.873754 0.571728 0.920876
v -1.971347 0.648690 0.952502
v -2.080844 0.049228 0.952502
v -0.288117 0.456876 1.013965
v -0.288117 0.197758 1.064473
v 0.961585 0.429691 1.013965
v 0.961585 0.182604 1.064473
v 2.026767 0.348918 0.982153
v 2.026767 0.137575 0.982153
v -2.087354 0.456876 1.016975
v -2.087354 0.197758 1.016975
v -0.184707 1.072574 0.614259
v -0.288117 0.648690 0.774586
v -0.288117 -0.128663 0.774586
v 1.009382 0.612601 0.774586
v 0.961585 -0.128663 0.774586
v 2.118531 0.085222 0.774586
v -2.033333 0.648690 0.774586
v -2.142829 0.049228 0.774586
v -2.149339 0.456876 0.774586
v -2.149339 0.197758 0.774586
v 2.162672 0.137575 0.774586
v 2.162672 0.348918 0.774586
v -0.197790 0.994953 0.830918
v 0.476152 0.988344 0.830918
v 0.611780 0.988344 0.643618
v -0.229752 0.994953 0.643618
v -0.288117 0.648690 0.332905
v -0.288117 -0.128663 0.332905
v -2.033333 0.648690 0.332905
v -2.142829 0.049228 0.332905
v -2.149339 0.456876 0.332905
v -2.149339 0.197758 0.332905
v 2.269022 0.137575 0.332905
v 2.269022 0.348918 0.332905
v -0.184707 1.072574 0.263998
v 1.126296 0.612601 0.332905
v 0.961585 -0.128663 0.332905
v 2.224881 0.085222 0.332905
v 0.628716 0.988344 0.276616
v -0.229752 0.994953 0.276616
v 1.310113 0.085222 0.332905
v 1.216887 0.085222 0.774586
v 1.580392 0.441829 1.147387
v 1.346450 0.378827 1.147387
v 1.217628 0.246797 1.147387
v 1.161102 0.113683 1.147387
v 1.912152 0.283138 1.147387
v 1.801035 0.398833 1.147387
v 1.518152 0.559769 0.774586
v 1.570960 0.505828 0.901325
v 1.565849 0.409791 1.148873
v 1.786491 0.366794 1.148873
v 1.373199 0.352728 1.147460
v 1.244376 0.220698 1.147460
v 2.000275 0.132722 0.984019
v 1.885660 0.278286 1.149253
v 1.565849 0.409791 0.815606
v 1.786491 0.366794 0.815606
v 1.373199 0.352728 0.814193
v 1.244376 0.220698 0.814193
v 1.983109 0.085222 0.774586
v 1.885660 0.278286 0.815987
v 1.968222 0.085222 0.332905
v -1.220831 0.309492 1.153939
v -1.469600 0.242874 1.146018
v -1.617891 0.035569 1.125280
v -0.799374 -0.059531 1.099646
v -0.828825 0.041522 1.125280
v -0.976696 0.228605 1.146018
v -0.613730 -0.090865 0.950041
v -0.568156 0.648690 0.958360
v -0.614873 0.456876 1.022833
v -0.614873 0.197758 1.064473
v -0.353758 0.648690 0.889402
v -0.613730 -0.097433 0.774586
v -0.353758 0.648690 0.332905
v -0.613730 -0.097433 0.332905
v -1.838660 0.021360 0.990062
v -1.844102 0.456876 1.056190
v -1.844102 0.197758 1.064473
v -1.946726 0.648690 0.889402
v -1.838660 0.020054 0.774586
v -1.946726 0.648690 0.332905
v -1.838660 0.020054 0.332905
v -1.741879 0.648690 0.991717
v -1.155018 0.648690 0.975038
v -1.226195 -0.034753 0.827161
v -1.229487 0.456876 1.039511
v -1.170814 0.648690 0.889402
v -1.226195 -0.038689 0.774586
v -1.226195 -0.038689 0.332905
v -1.220831 0.283803 1.153939
v -1.454849 0.222403 1.146018
v -0.992517 0.210275 1.146018
v -0.833099 -0.059531 1.099646
v -0.862470 0.034679 1.125280
v -1.620600 0.001382 0.840047
v -1.220831 0.283803 0.899105
v -1.454849 0.222403 0.891183
v -0.992517 0.210275 0.891183
v -0.829581 -0.071089 0.814202
v -0.862470 0.034679 0.870445
v -0.768687 -0.082570 0.774586
v -1.715356 0.008227 0.774586
v -0.353758 0.442052 0.889402
v -1.170814 0.442052 0.889402
v -1.946726 0.442052 0.889402
v -1.946726 0.442052 0.332905
v -0.353758 0.328136 0.332905
v -0.353758 0.328136 0.889402
v -1.170814 0.328136 0.889402
v -1.946726 0.328136 0.889402
v -1.946726 0.328136 0.332905
v 0.317287 1.050186 0.731928
v 0.427200 1.022309 0.776550
v 0.378365 1.042021 0.744998
v 0.405565 1.072574 0.614259
v 0.530855 1.038125 0.626266
v 0.470962 1.062484 0.617776
v 0.405994 1.072574 0.263998
v 0.532478 1.041028 0.268724
v 0.471563 1.063334 0.265383
v 1.866674 0.469362 0.890507
v 1.926639 0.444856 0.904881
v 1.894050 0.456941 0.918782
v 1.900585 0.460168 0.894119
v 2.003794 0.509340 0.774586
v 2.062680 0.478606 0.774586
v 2.036886 0.498693 0.774586
v 2.110324 0.509362 0.332905
v 2.168535 0.479249 0.332905
v 2.144679 0.498727 0.332905
vn 0.0297 0.4307 -0.9020
vn -0.1806 -0.3922 -0.9020
vn -0.0000 -1.0000 -0.0000
vn -0.0000 1.0000 -0.0000
vn -0.0955 -0.9954 -0.0000
vn -1.0000 -0.0000 -0.0000
vn -0.9990 -0.0438 -0.0000
vn 0.7638 -0.6440 -0.0419
vn 0.9985 -0.0000 -0.0548
vn -0.1507 0.3909 -0.9080
vn -0.1755 0.0157 -0.9844
vn -0.0023 -0.3732 -0.9277
vn 0.0033 0.1957 -0.9807
vn 0.8366 -0.0000 -0.5478
vn -0.9688 -0.0000 -0.2478
vn -0.8124 0.5316 -0.2396
vn 0.0264 0.3093 -0.9506
vn -0.1052 -0.9943 -0.0199
vn -0.9541 -0.1029 -0.2814
vn 0.0973 0.9307 -0.3527
vn -0.0000 -0.9988 -0.0483
vn -0.9600 0.2229 -0.1694
vn -0.8581 0.4976 -0.1265
vn 0.5298 0.6749 -0.5135
vn 0.5957 0.8023 -0.0381
vn -0.9861 0.1662 -0.0000
vn 0.0280 0.2751 -0.9610
vn 0.6267 0.7723 -0.1037
vn 0.9722 -0.0000 -0.2341
vn 0.7519 -0.6340 -0.1810
vn -0.4585 -0.3388 -0.8216
vn -0.3425 0.1736 -0.9233
vn 0.8217 -0.0000 -0.5700
vn -0.2663 0.3455 -0.8999
vn 0.0126 0.8838 -0.4676
vn 0.6836 -0.5764 -0.4476
vn 0.5144 -0.8575 -0.0124
vn 0.5770 -0.8145 -0.0609
vn 0.0083 0.0426 -0.9991
vn -0.0014 0.0014 -1.0000
vn 0.6688 -0.7338 -0.1191
vn 0.1742 -0.6758 -0.7162
vn -0.0103 0.0247 -0.9996
vn 0.0415 0.0446 -0.9981
vn -0.0019 0.0008 -1.0000
vn 0.7157 -0.6984 -0.0000
vn -0.6659 -0.7461 -0.0000
vn -0.8238 -0.5618 -0.0752
vn -0.1913 -0.9815 -0.0000
vn 0.2840 -0.9588 -0.0000
vn 0.9005 -0.4258 -0.0883
vn 0.0318 -0.9707 -0.2381
vn 0.0043 -0.1529 -0.9882
vn -0.0926 -0.9948 -0.0425
vn 0.0134 0.1750 -0.9845
vn 0.0264 0.3136 -0.9492
vn -0.0016 -0.3670 -0.9302
vn -0.0000 -0.0000 1.0000
vn -0.0927 -0.9944 -0.0499
vn 0.2280 0.1208 -0.9661
vn -0.1116 -0.9924 -0.0517
vn 0.0706 0.4850 -0.8717
vn -0.0273 0.4698 -0.8824
vn -0.2175 0.0431 -0.9751
vn 0.5117 -0.2548 -0.8205
vn 0.0300 -0.0108 -0.9995
vn -0.0302 -0.0097 -0.9995
vn 0.0251 -0.2468 -0.9687
vn 0.0417 -0.0819 -0.9958
vn -0.0694 -0.0500 -0.9963
vn -0.4715 -0.3551 -0.8072
vn -0.8036 -0.5952 -0.0000
vn 0.2538 -0.9673 -0.0000
vn 0.7749 -0.6310 -0.0361
vn -0.9548 -0.2973 -0.0001
vn -0.3065 -0.9519 -0.0000
vn -0.1067 -0.9930 -0.0515
vn -0.0914 -0.9902 -0.1052
vn -0.0883 -0.9960 -0.0102
vn -0.0090 -0.9928 -0.1191
vn -0.0183 -0.2478 -0.9686
vn 1.0000 -0.0000 -0.0000
vn -0.8557 0.5175 -0.0000
vn 0.2598 0.9167 -0.3036
vn 0.1066 0.9631 -0.2472
vn 0.3598 0.9330 -0.0061
vn 0.1460 0.9893 -0.0014
vn 0.3329 0.9430 -0.0052
vn 0.1352 0.9908 -0.0012
vn -0.0000 0.9824 -0.1869
vn 0.3859 0.8674 -0.3141
vn 0.0046 0.8617 -0.5074
vn 0.4645 0.8854 -0.0148
vn 0.4989 0.8665 -0.0163
vn 0.2383 0.9528 -0.1878
vn 0.4222 0.8777 -0.2267
vn 0.3619 0.7128 -0.6008
vn 0.2155 0.8235 -0.5248
vn 0.6162 0.7733 -0.1496
vn 0.3001 0.9511 -0.0729
vn 0.6321 0.7741 -0.0347
vn 0.3106 0.9504 -0.0188
vn 0.1071 0.9141 -0.3910
vn 0.5126 0.7074 -0.4866
vn 0.1504 0.9503 -0.2726
vn 0.5501 0.6622 -0.5089
vn 0.1047 0.9945 -0.0070
vn 0.7912 0.6100 -0.0434
vn 0.7779 0.5998 -0.1873
vn 0.1038 0.9943 -0.0263
vn -0.8649 0.5019 -0.0000
vn 0.0297 0.4307 0.9020
vn -0.1806 -0.3922 0.9020
vn 0.7638 -0.6440 0.0419
vn 0.9985 -0.0000 0.0548
vn -0.1507 0.3909 0.9080
vn -0.1755 0.0157 0.9844
vn -0.0023 -0.3732 0.9277
vn 0.0033 0.1957 0.9807
vn 0.8366 -0.0000 0.5478
vn -0.9688 -0.0000 0.2478
vn -0.8124 0.5316 0.2396
vn 0.0264 0.3093 0.9506
vn -0.1052 -0.9943 0.0199
vn -0.9541 -0.1029 0.2814
vn 0.0973 0.9307 0.3527
vn -0.0000 -0.9988 0.0483
vn -0.9600 0.2229 0.1694
vn -0.8581 0.4976 0.1265
vn 0.5298 0.6749 0.5135
vn 0.5957 0.8023 0.0381
vn 0.0280 0.2751 0.9610
vn 0.6267 0.7723 0.1037
vn 0.9722 -0.0000 0.2341
vn 0.7519 -0.6340 0.1810
vn -0.4585 -0.3388 0.8216
vn -0.3425 0.1736 0.9233
vn 0.8217 -0.0000 0.5700
vn -0.2663 0.3455 0.8999
vn 0.0126 0.8838 0.4676
vn 0.6836 -0.5764 0.4476
vn 0.5144 -0.8575 0.0124
vn 0.5770 -0.8145 0.0609
vn 0.0083 0.0426 0.9991
vn -0.0014 0.0014 1.0000
vn 0.6688 -0.7338 0.1191
vn 0.1742 -0.6758 0.7162
vn -0.0103 0.0247 0.9996
vn 0.0415 0.0446 0.9981
vn -0.0019 0.0008 1.0000
vn -0.8238 -0.5618 0.0752
vn 0.9005 -0.4258 0.0883
vn 0.0318 -0.9707 0.2381
vn 0.0043 -0.1529 0.9882
vn -0.0926 -0.9948 0.0425
vn 0.0134 0.1750 0.9845
vn 0.0264 0.3136 0.9492
vn -0.0016 -0.3670 0.9302
vn -0.0000 -0.0000 -1.0000
vn -0.0927 -0.9944 0.0499
vn 0.2280 0.1208 0.9661
vn -0.1116 -0.9924 0.0517
vn 0.0706 0.4850 0.8717
vn -0.0273 0.4698 0.8824
vn -0.2175 0.0431 0.9751
vn 0.5117 -0.2548 0.8205
vn 0.0300 -0.0108 0.9995
vn -0.0302 -0.0097 0.9995
vn 0.0251 -0.2468 0.9687
vn 0.0417 -0.0819 0.9958
vn -0.0694 -0.0500 0.9963
vn -0.4715 -0.3551 0.8072
vn 0.7749 -0.6310 0.0361
vn -0.9548 -0.2973 0.0001
vn -0.1067 -0.9930 0.0515
vn -0.0914 -0.9902 0.1052
vn -0.0883 -0.9960 0.0102
vn -0.0090 -0.9928 0.1191
vn -0.0183 -0.2478 0.9686
vn 0.2598 0.9167 0.3036
vn 0.1066 0.9631 0.2472
vn 0.3598 0.9330 0.0061
vn 0.1460 0.9893 0.0014
vn 0.3329 0.9430 0.0052
vn 0.1352 0.9908 0.0012
vn -0.0000 0.9824 0.1869
vn 0.3859 0.8674 0.3141
vn 0.0046 0.8617 0.5074
vn 0.4645 0.8854 0.0148
vn 0.4989 0.8665 0.0163
vn 0.2383 0.9528 0.1878
vn 0.4222 0.8777 0.2267
vn 0.3619 0.7128 0.6008
vn 0.2155 0.8235 0.5248
vn 0.6162 0.7733 0.1496
vn 0.3001 0.9511 0.0729
vn 0.6321 0.7741 0.0347
vn 0.3106 0.9504 0.0188
vn 0.1071 0.9141 0.3910
vn 0.5126 0.7074 0.4866
vn 0.1504 0.9503 0.2726
vn 0.5501 0.6622 0.5089
vn 0.1047 0.9945 0.0070
vn 0.7912 0.6100 0.0434
vn 0.7779 0.5998 0.1873
vn 0.1038 0.9943 0.0263
vt 0.469156 0.250000
vt 0.500000 0.250000
vt 0.500000 0.500000
vt 0.469156 0.500000
vt 0.427489 0.250000
vt 0.375000 0.250000
vt 0.375000 0.250000
vt 0.427489 0.250000
vt 0.375000 0.500000
vt 0.500000 0.250000
vt 0.469156 0.250000
vt 0.427489 0.500000
vt 0.427489 0.500000
vt 0.469156 0.500000
vt 0.469156 0.500000
vt 0.427489 0.500000
vt 0.500000 0.500000
vt 0.375000 0.500000
vt 0.602110 0.250000
vt 0.602110 0.250000
vt 0.625000 0.250000
vt 0.602110 0.500000
vt 0.602110 0.500000
vt 0.500000 0.250000
vt 0.000000 0.000000
vt 0.427489 0.250000
vt 0.375000 0.250000
vt 0.615638 0.500000
vt 0.614682 0.500000
vt 0.623989 0.497272
vt 0.625000 0.500000
vt 0.625000 0.469507
vt 0.625000 0.473737
vt 0.616427 0.500000
vt 0.625000 0.500000
vt 0.625000 0.473899
vt 0.616948 0.500000
vt 0.625000 0.473952
vt 0.500000 0.500000
vt 0.442477 0.442477
vt 0.442477 0.442477
vt 0.494724 0.500000
vt 0.494759 0.500000
vt 0.494727 0.500000
vt 0.494851 0.500000
vt 0.494851 0.500000
s 0
f 16/1/1 4/2/1 5/3/1 18/4/1
f 103/5/2 101/6/2 13/7/2 25/8/2
f 47/7/3 56/9/3 8/9/3 6/7/3
f 106/2/4 104/2/4 34/2/4 48/2/4 14/2/4 109/2/4
f 107/7/5 100/7/5 15/7/5 49/7/5
f 104/2/4 108/10/4 12/2/4 34/2/4
f 51/8/6 27/8/6 26/11/6 50/11/6 36/11/6 37/8/6
f 49/7/7 15/7/7 27/8/7 51/8/7 37/8/7 35/7/7
f 57/9/8 52/12/8 23/13/8 11/9/8
f 52/12/9 53/14/9 22/15/9 23/13/9
f 108/10/10 102/11/10 24/11/10 12/2/10
f 102/11/11 103/5/11 25/8/11 24/11/11
f 1/7/12 17/8/12 19/16/12 3/9/12
f 17/8/13 16/1/13 18/4/13 19/16/13
f 21/13/14 20/14/14 39/14/14 38/13/14
f 24/11/15 25/8/15 37/8/15 36/11/15
f 12/2/16 24/11/16 36/11/16 34/2/16
f 114/1/17 102/11/17 108/10/17 110/2/17 92/2/17 94/1/17
f 101/6/18 105/7/18 35/7/18 13/7/18
f 25/8/19 13/7/19 35/7/19 37/8/19
f 5/3/20 31/17/20 69/17/20 70/3/20
f 1/7/21 3/9/21 32/9/21 30/7/21
f 60/9/3 62/18/3 81/9/3 83/9/3
f 40/19/22 4/2/22 29/2/22 45/20/22
f 2/21/23 40/19/23 45/20/23 28/21/23
f 5/3/24 41/22/24 44/23/24 31/17/24
f 55/3/25 58/22/25 43/22/25 10/3/25
f 46/24/26 9/2/26 42/20/26 59/20/26 45/20/26 29/2/26
f 4/2/27 40/19/27 41/22/27 5/3/27
f 31/17/28 44/23/28 58/22/28 55/3/28
f 61/9/3 60/9/3 83/9/3 57/9/3 11/9/3
f 38/13/29 39/14/29 53/14/29 52/12/29
f 33/9/30 38/13/30 52/12/30 57/9/30
f 105/7/5 107/7/5 49/7/5 35/7/5
f 30/7/3 32/9/3 56/9/3 47/7/3
f 19/25/31 66/25/31 3/25/31
f 65/25/32 66/25/32 19/25/32 18/25/32
f 67/25/33 20/14/33 21/13/33
f 64/25/34 65/25/34 18/25/34 5/25/34
f 63/25/35 64/25/35 5/3/35 70/3/35
f 38/25/36 33/25/36 21/25/36
f 8/9/37 56/9/37 60/9/37 61/9/37
f 56/9/38 32/9/38 62/18/38 60/9/38
f 63/25/39 68/25/39 72/25/39 71/25/39
f 65/25/40 64/25/40 73/25/40 74/25/40
f 3/25/41 66/25/41 62/18/41 32/9/41
f 67/25/42 21/13/42 75/13/42 76/25/42
f 73/25/43 64/25/43 63/25/43 71/25/43
f 67/25/44 76/25/44 72/25/44 68/25/44
f 65/25/45 74/25/45 66/25/45
f 74/25/46 73/25/46 79/25/46 80/25/46
f 72/25/47 76/25/47 82/25/47 78/25/47
f 76/25/48 75/13/48 81/13/48 82/25/48
f 71/25/49 72/25/49 78/25/49 77/25/49
f 73/25/50 71/25/50 77/25/50 79/25/50
f 74/25/51 80/25/51 62/18/51 66/25/51
f 81/13/52 75/13/52 21/13/52 33/25/52
f 83/9/3 81/9/3 33/9/3 57/9/3
f 78/25/53 82/25/53 81/9/53 62/18/53 80/25/53 79/25/53 77/25/53
f 30/7/5 47/7/5 99/7/5 97/7/5
f 9/2/4 46/24/4 98/24/4 93/2/4
f 1/7/54 30/7/54 97/7/54 91/7/54
f 46/24/4 29/2/4 96/2/4 98/24/4
f 16/1/55 17/8/55 95/26/55 94/1/55
f 4/2/56 16/1/56 94/1/56 92/2/56
f 29/2/4 4/2/4 92/2/4 96/2/4
f 47/7/5 6/7/5 90/7/5 99/7/5
f 17/8/57 1/7/57 91/7/57 95/26/57
f 116/27/5 118/7/5 107/7/5 105/7/5 131/7/5
f 115/2/58 104/2/58 135/2/58 134/2/58
f 113/7/59 116/27/59 131/7/59 124/7/59
f 115/2/4 110/2/4 108/10/4 104/2/4
f 118/7/5 112/7/5 100/7/5 107/7/5
f 95/26/60 88/25/60 89/25/60 94/1/60
f 99/7/5 90/7/5 112/7/5 118/7/5
f 96/2/4 92/2/4 110/2/4 115/2/4
f 96/2/58 115/2/58 134/2/58 133/2/58
f 91/7/61 97/7/61 130/27/61 128/7/61
f 97/7/5 99/7/5 118/7/5 116/27/5 130/27/5
f 94/1/62 89/25/62 84/25/62 114/1/62
f 114/1/63 84/25/63 85/25/63 102/11/63
f 102/11/64 85/25/64 86/25/64 103/5/64
f 91/7/65 87/25/65 88/25/65 95/26/65
f 84/25/66 89/25/66 121/25/66 119/25/66
f 85/25/67 84/25/67 119/25/67 120/25/67
f 88/25/68 87/25/68 122/25/68 123/25/68
f 88/25/69 123/25/69 121/25/69 89/25/69
f 85/25/70 120/25/70 86/25/70
f 103/5/71 86/25/71 101/6/71
f 121/25/72 123/25/72 129/25/72 127/25/72
f 120/25/73 119/25/73 125/25/73 126/25/73
f 86/25/74 120/25/74 126/25/74 124/25/74
f 123/25/75 122/25/75 128/25/75 129/25/75
f 119/25/76 121/25/76 127/25/76 125/25/76
f 91/7/77 128/25/77 122/25/77 87/25/77
f 128/7/78 130/27/78 116/27/78 113/7/78
f 124/7/79 131/7/79 105/7/79 101/6/79
f 101/6/80 86/25/80 124/7/80
f 128/7/81 113/7/81 124/25/81 126/25/81 125/25/81 127/25/81 129/25/81
f 134/2/58 135/2/58 141/2/58 140/2/58
f 136/2/82 137/2/82 143/2/82 142/2/82
f 50/11/83 26/11/83 14/2/83 48/2/83 34/2/83 36/11/83
f 104/2/82 106/2/82 136/2/82 135/2/82
f 106/2/82 109/2/82 137/2/82 136/2/82
f 93/2/6 98/24/6 96/2/6 133/2/6 139/2/6 138/24/6 117/2/6 132/2/6
f 133/2/58 134/2/58 140/2/58 139/2/58
f 135/2/82 136/2/82 142/2/82 141/2/82
f 151/28/84 145/29/84 146/30/84 152/31/84
f 152/31/85 146/30/85 144/32/85 150/33/85
f 154/34/86 151/28/86 152/31/86 155/35/86
f 155/35/87 152/31/87 150/33/87 153/36/87
f 147/37/88 154/34/88 155/35/88 149/35/88
f 149/35/89 155/35/89 153/36/89 148/38/89
f 144/32/90 2/21/90 28/21/90 150/33/90
f 41/22/91 145/29/91 151/28/91 44/23/91
f 40/19/92 2/21/92 144/32/92 146/30/92 145/29/92 41/22/92
f 153/36/4 54/21/4 7/21/4 148/38/4
f 58/22/93 154/34/93 147/37/93 43/22/93
f 44/23/94 151/28/94 154/34/94 58/22/94
f 150/33/4 28/21/4 54/21/4 153/36/4
f 156/3/95 159/39/95 158/40/95
f 159/39/96 157/3/96 158/41/96
f 164/42/97 157/43/97 159/3/97 165/3/97
f 165/3/98 159/3/98 156/3/98 163/3/98
f 167/44/99 164/42/99 165/3/99 168/17/99
f 168/17/100 165/3/100 163/3/100 166/17/100
f 160/45/101 167/46/101 168/17/101 162/3/101
f 162/3/102 168/17/102 166/17/102 161/3/102
f 70/3/103 69/17/103 163/3/103 156/3/103
f 67/25/104 68/25/104 158/40/104 157/43/104 20/14/104
f 68/25/105 63/25/105 70/3/105 156/3/105 158/40/105
f 20/14/106 157/43/106 164/42/106 39/14/106
f 55/3/107 10/3/107 161/3/107 166/17/107
f 53/14/108 167/46/108 160/45/108 22/15/108
f 39/14/109 164/42/109 167/44/109 53/14/109
f 31/17/110 55/3/110 166/17/110 163/3/110 69/17/110
f 142/2/4 143/2/4 111/2/4 117/2/4 138/24/4 139/2/4 140/2/4 141/2/4
f 59/20/111 42/20/111 7/21/111 54/21/111 28/21/111 45/20/111
f 176/1/112 178/4/112 173/3/112 172/2/112
f 253/5/113 183/8/113 175/7/113 251/6/113
f 201/7/3 6/7/3 8/9/3 210/9/3
f 256/2/4 109/2/4 14/2/4 202/2/4 190/2/4 254/2/4
f 257/7/5 203/7/5 15/7/5 100/7/5
f 254/2/4 190/2/4 174/2/4 258/10/4
f 205/8/6 193/8/6 192/11/6 204/11/6 26/11/6 27/8/6
f 203/7/7 191/7/7 193/8/7 205/8/7 27/8/7 15/7/7
f 211/9/114 11/9/114 23/13/114 206/12/114
f 206/12/115 23/13/115 22/15/115 207/14/115
f 258/10/116 174/2/116 182/11/116 252/11/116
f 252/11/117 182/11/117 183/8/117 253/5/117
f 169/7/118 171/9/118 179/16/118 177/8/118
f 177/8/119 179/16/119 178/4/119 176/1/119
f 181/13/120 194/13/120 195/14/120 180/14/120
f 182/11/121 192/11/121 193/8/121 183/8/121
f 174/2/122 190/2/122 192/11/122 182/11/122
f 261/1/123 245/1/123 244/2/123 259/2/123 258/10/123 252/11/123
f 251/6/124 175/7/124 191/7/124 255/7/124
f 183/8/125 193/8/125 191/7/125 175/7/125
f 173/3/126 223/3/126 222/17/126 187/17/126
f 169/7/127 186/7/127 188/9/127 171/9/127
f 214/9/3 236/9/3 234/9/3 215/18/3
f 196/19/128 199/20/128 185/2/128 172/2/128
f 170/21/129 184/21/129 199/20/129 196/19/129
f 173/3/130 187/17/130 198/23/130 197/22/130
f 209/3/131 10/3/131 43/22/131 212/22/131
f 200/24/26 185/2/26 199/20/26 213/20/26 42/20/26 9/2/26
f 172/2/132 173/3/132 197/22/132 196/19/132
f 187/17/133 209/3/133 212/22/133 198/23/133
f 61/9/3 11/9/3 211/9/3 236/9/3 214/9/3
f 194/13/134 206/12/134 207/14/134 195/14/134
f 189/9/135 211/9/135 206/12/135 194/13/135
f 255/7/5 191/7/5 203/7/5 257/7/5
f 186/7/3 201/7/3 210/9/3 188/9/3
f 179/25/136 171/25/136 219/25/136
f 218/25/137 178/25/137 179/25/137 219/25/137
f 220/25/138 181/13/138 180/14/138
f 217/25/139 173/25/139 178/25/139 218/25/139
f 216/25/140 223/3/140 173/3/140 217/25/140
f 194/25/141 181/25/141 189/25/141
f 8/9/142 61/9/142 214/9/142 210/9/142
f 210/9/143 214/9/143 215/18/143 188/9/143
f 216/25/144 224/25/144 225/25/144 221/25/144
f 218/25/145 227/25/145 226/25/145 217/25/145
f 171/25/146 188/9/146 215/18/146 219/25/146
f 220/25/147 229/25/147 228/13/147 181/13/147
f 226/25/148 224/25/148 216/25/148 217/25/148
f 220/25/149 221/25/149 225/25/149 229/25/149
f 218/25/150 219/25/150 227/25/150
f 227/25/46 233/25/46 232/25/46 226/25/46
f 225/25/47 231/25/47 235/25/47 229/25/47
f 229/25/151 235/25/151 234/13/151 228/13/151
f 224/25/49 230/25/49 231/25/49 225/25/49
f 226/25/50 232/25/50 230/25/50 224/25/50
f 227/25/152 219/25/152 215/18/152 233/25/152
f 234/13/153 189/25/153 181/13/153 228/13/153
f 236/9/3 211/9/3 189/9/3 234/9/3
f 231/25/154 230/25/154 232/25/154 233/25/154 215/18/154 234/9/154 235/25/154
f 186/7/5 248/7/5 250/7/5 201/7/5
f 9/2/4 93/2/4 249/24/4 200/24/4
f 169/7/155 243/7/155 248/7/155 186/7/155
f 200/24/4 249/24/4 247/2/4 185/2/4
f 176/1/156 245/1/156 246/26/156 177/8/156
f 172/2/157 244/2/157 245/1/157 176/1/157
f 185/2/4 247/2/4 244/2/4 172/2/4
f 201/7/5 250/7/5 90/7/5 6/7/5
f 177/8/158 246/26/158 243/7/158 169/7/158
f 263/27/5 277/7/5 255/7/5 257/7/5 264/7/5
f 262/2/159 279/2/159 280/2/159 254/2/159
f 260/7/160 270/7/160 277/7/160 263/27/160
f 262/2/4 254/2/4 258/10/4 259/2/4
f 264/7/5 257/7/5 100/7/5 112/7/5
f 246/26/161 245/1/161 242/25/161 241/25/161
f 250/7/5 264/7/5 112/7/5 90/7/5
f 247/2/4 262/2/4 259/2/4 244/2/4
f 247/2/159 278/2/159 279/2/159 262/2/159
f 243/7/162 274/7/162 276/27/162 248/7/162
f 248/7/5 276/27/5 263/27/5 264/7/5 250/7/5
f 245/1/163 261/1/163 237/25/163 242/25/163
f 261/1/164 252/11/164 238/25/164 237/25/164
f 252/11/165 253/5/165 239/25/165 238/25/165
f 243/7/166 246/26/166 241/25/166 240/25/166
f 237/25/167 265/25/167 267/25/167 242/25/167
f 238/25/168 266/25/168 265/25/168 237/25/168
f 241/25/169 269/25/169 268/25/169 240/25/169
f 241/25/170 242/25/170 267/25/170 269/25/170
f 238/25/171 239/25/171 266/25/171
f 253/5/172 251/6/172 239/25/172
f 267/25/72 273/25/72 275/25/72 269/25/72
f 266/25/73 272/25/73 271/25/73 265/25/73
f 239/25/173 270/25/173 272/25/173 266/25/173
f 269/25/174 275/25/174 274/25/174 268/25/174
f 265/25/76 271/25/76 273/25/76 267/25/76
f 243/7/175 240/25/175 268/25/175 274/25/175
f 274/7/176 260/7/176 263/27/176 276/27/176
f 270/7/177 251/6/177 255/7/177 277/7/177
f 251/6/178 270/7/178 239/25/178
f 274/7/179 275/25/179 273/25/179 271/25/179 272/25/179 270/25/179 260/7/179
f 279/2/159 284/2/159 285/2/159 280/2/159
f 281/2/82 286/2/82 143/2/82 137/2/82
f 204/11/83 192/11/83 190/2/83 202/2/83 14/2/83 26/11/83
f 254/2/82 280/2/82 281/2/82 256/2/82
f 256/2/82 281/2/82 137/2/82 109/2/82
f 93/2/6 132/2/6 117/2/6 282/24/6 283/2/6 278/2/6 247/2/6 249/24/6
f 278/2/159 283/2/159 284/2/159 279/2/159
f 280/2/82 285/2/82 286/2/82 281/2/82
f 291/28/180 292/31/180 289/30/180 288/29/180
f 292/31/181 290/33/181 287/32/181 289/30/181
f 294/34/182 295/35/182 292/31/182 291/28/182
f 295/35/183 293/36/183 290/33/183 292/31/183
f 147/37/184 149/35/184 295/35/184 294/34/184
f 149/35/185 148/38/185 293/36/185 295/35/185
f 287/32/186 290/33/186 184/21/186 170/21/186
f 197/22/187 198/23/187 291/28/187 288/29/187
f 196/19/188 197/22/188 288/29/188 289/30/188 287/32/188 170/21/188
f 293/36/4 148/38/4 7/21/4 208/21/4
f 212/22/189 43/22/189 147/37/189 294/34/189
f 198/23/190 212/22/190 294/34/190 291/28/190
f 290/33/4 293/36/4 208/21/4 184/21/4
f 296/3/191 298/40/191 299/39/191
f 299/39/192 298/41/192 297/3/192
f 301/42/193 302/3/193 299/3/193 297/43/193
f 302/3/194 300/3/194 296/3/194 299/3/194
f 304/44/195 305/17/195 302/3/195 301/42/195
f 305/17/196 303/17/196 300/3/196 302/3/196
f 160/45/197 162/3/197 305/17/197 304/46/197
f 162/3/198 161/3/198 303/17/198 305/17/198
f 223/3/199 296/3/199 300/3/199 222/17/199
f 220/25/200 180/14/200 297/43/200 298/40/200 221/25/200
f 221/25/201 298/40/201 296/3/201 223/3/201 216/25/201
f 180/14/202 195/14/202 301/42/202 297/43/202
f 209/3/203 303/17/203 161/3/203 10/3/203
f 207/14/204 22/15/204 160/45/204 304/46/204
f 195/14/205 207/14/205 304/44/205 301/42/205
f 187/17/206 222/17/206 300/3/206 303/17/206 209/3/206
f 286/2/4 285/2/4 284/2/4 283/2/4 282/24/4 117/2/4 111/2/4 143/2/4
f 213/20/111 199/20/111 184/21/111 208/21/111 7/21/111 42/20/111
