# Blender 5.1.1
# www.blender.org
mtllib coati2.mtl
g body_body
v -1.749536 0.480185 -0.055873
v -1.501812 0.391596 -0.541157
v 1.423851 -0.112859 -0.055873
v 1.423851 -0.112859 -0.365731
v 0.646469 -0.256199 -0.055873
v 0.407135 0.403656 -0.073665
v 0.421404 -0.256199 -0.055873
v -1.000065 -0.183319 -0.541157
v -1.000065 0.365269 -0.055873
v -1.000065 0.300897 -0.541157
v -1.000065 -0.256199 -0.055873
v -0.802213 -0.256199 -0.055873
v -0.802213 0.393028 -0.055873
v -1.749536 0.480185 -0.295104
v 1.423851 -0.112859 -0.223640
v 0.646469 -0.256199 -0.295104
v 0.421404 -0.256199 -0.381418
v -1.000065 -0.256199 -0.295104
v -1.000065 0.365269 -0.295104
v -0.802213 -0.256199 -0.461361
v -1.304525 0.480185 -0.055873
v -1.310287 0.480185 -0.295104
v -1.307452 0.480185 -0.177384
v -1.749536 0.480185 -0.178798
v -1.000065 0.365269 -0.191517
v -1.307452 0.480185 -0.177384
v 0.186202 0.568226 -0.073665
v 0.019268 0.635552 -0.055873
v 0.126576 0.605001 -0.055873
v 0.070697 0.625754 -0.055873
v -0.448833 0.668835 -0.055873
v -0.576739 0.620738 -0.055873
v -0.493421 0.664343 -0.055873
v -0.540238 0.646738 -0.055873
v 1.481239 0.015479 -0.055873
v 1.445167 0.097417 -0.055873
v 1.486374 0.048747 -0.055873
v 1.473171 0.078738 -0.055873
v 1.442364 0.085323 -0.376425
v 1.481239 0.015479 -0.365731
v 1.471769 0.072691 -0.371078
v 1.485999 0.047126 -0.367164
v 1.481239 0.015479 -0.223640
v 1.445167 0.097417 -0.228888
v 1.486374 0.048747 -0.224343
v 1.473171 0.078738 -0.226264
v 0.240569 -0.183319 -0.727585
v 0.364189 -0.183319 -0.667011
v 0.334084 -0.183319 -0.647907
v 0.283164 -0.183319 -0.715319
v 0.328412 -0.183319 -0.693147
v 0.392332 0.193036 -0.676072
v 0.261297 0.193036 -0.726433
v 0.352911 0.193036 -0.697524
v 0.304949 0.193036 -0.715957
v 0.496131 -0.183319 -0.543272
v 0.590391 -0.179059 -0.496740
v 0.560563 -0.183319 -0.459589
v 0.540567 -0.182071 -0.513861
v 0.599846 0.193036 -0.536524
v 0.696901 0.186211 -0.497012
v 0.647585 0.191037 -0.511964
v 0.695608 0.346548 -0.055873
v 0.598283 0.369335 -0.055873
v 0.646469 0.311456 -0.055873
v 0.646748 0.359987 -0.055873
v 0.695622 0.346543 -0.291029
v 0.598394 0.369320 -0.313541
v 0.646785 0.359981 -0.299311
v 0.292200 0.410415 -0.385871
v 0.407135 0.403656 -0.308823
v 0.468119 0.386770 -0.363502
v -0.802213 0.393028 -0.410237
v -0.689577 0.409735 -0.447777
v -0.840595 0.387643 -0.429108
v 0.013348 0.570562 -0.334778
v 0.019268 0.635552 -0.263434
v 0.132653 0.526638 -0.340175
v 0.186202 0.568226 -0.254684
v 0.054910 0.566911 -0.341976
v 0.070697 0.625754 -0.260305
v 0.098129 0.550879 -0.343701
v 0.126576 0.605001 -0.262456
v -0.530829 0.571177 -0.409559
v -0.576739 0.620738 -0.347212
v -0.445618 0.603355 -0.393571
v -0.448833 0.668835 -0.323002
v -0.506908 0.587129 -0.396360
v -0.540238 0.646738 -0.338568
v -0.476515 0.598575 -0.390644
v -0.493421 0.664343 -0.329706
v -0.746327 0.193036 -0.870424
v -0.831052 0.208758 -0.829252
v -0.778134 0.195142 -0.867832
v -0.809145 0.200897 -0.852762
v -0.741866 -0.183319 -0.836648
v -0.649633 -0.183319 -0.869523
v -0.717748 -0.183319 -0.825119
v -0.716152 -0.183319 -0.856339
v -0.682393 -0.183319 -0.868372
v -1.620138 0.155990 -0.055873
v -1.356157 -0.077202 -0.055873
v -1.578583 0.084473 -0.055873
v -1.513824 0.015043 -0.055873
v -1.435718 -0.041730 -0.055873
v -1.185104 -0.100734 -0.541157
v -1.425682 0.158904 -0.541157
v -1.259286 -0.056035 -0.541157
v -1.331055 0.009004 -0.541157
v -1.389486 0.084480 -0.541157
v -1.620171 0.156073 -0.295104
v -1.355552 -0.077382 -0.295104
v -1.578558 0.084510 -0.295104
v -1.513656 0.015014 -0.295104
v -1.435347 -0.041835 -0.295104
v 0.261297 0.193036 -0.726433
v 0.392332 0.193036 -0.676072
v 0.352907 0.193069 -0.697486
v 0.304975 0.193058 -0.715921
v 0.468119 0.386770 -0.363502
v 0.342145 0.393028 -0.386596
v -0.731612 0.393028 -0.456748
v -0.840595 0.387643 -0.429108
v -0.831052 0.208758 -0.829252
v -0.746327 0.193036 -0.870424
v -0.778157 0.195164 -0.867793
v -0.809133 0.200924 -0.852721
v 0.171933 0.578854 -0.055873
v 0.421404 0.393028 -0.055873
v 0.059204 0.583410 -0.336537
v 0.014825 0.587504 -0.329463
v 0.105967 0.566043 -0.338345
v 0.142875 0.540305 -0.335057
v 0.342145 0.393028 -0.386596
v 0.171933 0.578854 -0.269320
v 0.421404 0.393028 -0.330452
v -0.515909 0.602198 -0.392580
v -0.542769 0.584123 -0.406698
v -0.481064 0.615300 -0.385949
v -0.446426 0.620422 -0.388427
v -0.731612 0.393028 -0.456748
v -1.501812 0.391596 0.429411
v 1.423851 -0.112859 0.253985
v 0.407135 0.403656 -0.038081
v -1.000065 -0.183319 0.429411
v -1.000065 0.300897 0.429411
v -1.749536 0.480185 0.183358
v 1.423851 -0.112859 0.111894
v 0.646469 -0.256199 0.183358
v 0.421404 -0.256199 0.269672
v -1.000065 -0.256199 0.183358
v -1.000065 0.365269 0.183358
v -0.802213 -0.256199 0.349615
v -1.310287 0.480185 0.183358
v -1.307452 0.480185 0.065638
v -1.749536 0.480185 0.067052
v -1.000065 0.365269 0.079771
v -1.307452 0.480185 0.065638
v 0.186202 0.568226 -0.038081
v 1.442364 0.085323 0.264679
v 1.481239 0.015479 0.253985
v 1.471769 0.072691 0.259332
v 1.485999 0.047126 0.255418
v 1.481239 0.015479 0.111894
v 1.445167 0.097417 0.117142
v 1.486374 0.048747 0.112597
v 1.473171 0.078738 0.114518
v 0.240569 -0.183319 0.615839
v 0.364189 -0.183319 0.555265
v 0.334084 -0.183319 0.536161
v 0.283164 -0.183319 0.603573
v 0.328412 -0.183319 0.581401
v 0.392332 0.193036 0.564326
v 0.261297 0.193036 0.614687
v 0.352911 0.193036 0.585778
v 0.304949 0.193036 0.604211
v 0.496131 -0.183319 0.431525
v 0.590391 -0.179059 0.384994
v 0.560563 -0.183319 0.347843
v 0.540567 -0.182071 0.402115
v 0.599846 0.193036 0.424777
v 0.696901 0.186211 0.385266
v 0.647585 0.191037 0.400218
v 0.695622 0.346543 0.179283
v 0.598394 0.369320 0.201795
v 0.646785 0.359981 0.187565
v 0.292200 0.410415 0.274125
v 0.407135 0.403656 0.197077
v 0.468119 0.386770 0.251756
v -0.802213 0.393028 0.298491
v -0.689577 0.409735 0.336031
v -0.840595 0.387643 0.317362
v 0.013348 0.570562 0.223032
v 0.019268 0.635552 0.151688
v 0.132653 0.526638 0.228429
v 0.186202 0.568226 0.142938
v 0.054910 0.566911 0.230230
v 0.070697 0.625754 0.148559
v 0.098129 0.550879 0.231955
v 0.126576 0.605001 0.150710
v -0.530829 0.571177 0.297813
v -0.576739 0.620738 0.235466
v -0.445618 0.603355 0.281825
v -0.448833 0.668835 0.211255
v -0.506908 0.587129 0.284613
v -0.540238 0.646738 0.226822
v -0.476515 0.598575 0.278898
v -0.493421 0.664343 0.217960
v -0.746327 0.193036 0.758678
v -0.831052 0.208758 0.717506
v -0.778134 0.195142 0.756086
v -0.809145 0.200897 0.741016
v -0.741866 -0.183319 0.724902
v -0.649633 -0.183319 0.757777
v -0.717748 -0.183319 0.713373
v -0.716152 -0.183319 0.744593
v -0.682393 -0.183319 0.756626
v -1.185104 -0.100734 0.429411
v -1.425682 0.158904 0.429411
v -1.259286 -0.056035 0.429411
v -1.331055 0.009004 0.429411
v -1.389486 0.084480 0.429411
v -1.620171 0.156073 0.183358
v -1.355552 -0.077382 0.183358
v -1.578558 0.084510 0.183358
v -1.513656 0.015014 0.183358
v -1.435347 -0.041835 0.183358
v 0.261297 0.193036 0.614687
v 0.392332 0.193036 0.564326
v 0.352907 0.193069 0.585740
v 0.304975 0.193058 0.604175
v 0.468119 0.386770 0.251756
v 0.342145 0.393028 0.274850
v -0.731612 0.393028 0.345002
v -0.840595 0.387643 0.317362
v -0.831052 0.208758 0.717506
v -0.746327 0.193036 0.758678
v -0.778157 0.195164 0.756047
v -0.809133 0.200924 0.740975
v 0.059204 0.583410 0.224791
v 0.014825 0.587504 0.217717
v 0.105967 0.566043 0.226599
v 0.142875 0.540305 0.223311
v 0.342145 0.393028 0.274850
v 0.171933 0.578854 0.157574
v 0.421404 0.393028 0.218706
v -0.515909 0.602198 0.280834
v -0.542769 0.584123 0.294952
v -0.481064 0.615300 0.274202
v -0.446426 0.620422 0.276681
v -0.731612 0.393028 0.345002
vn 0.1813 -0.9834 -0.0000
vn 0.3487 0.9372 -0.0045
vn -0.0000 -1.0000 -0.0000
vn -0.0000 -0.0000 1.0000
vn 0.1512 0.9203 -0.3608
vn -0.0000 1.0000 -0.0000
vn 0.3516 0.9362 -0.0040
vn 0.5549 0.8319 -0.0000
vn 0.9152 0.4029 -0.0000
vn 0.9883 -0.1525 -0.0000
vn 0.4845 0.8727 -0.0611
vn 0.8972 0.4412 -0.0173
vn 0.9886 -0.1507 -0.0004
vn 0.9129 -0.4082 -0.0000
vn 0.5340 -0.0524 -0.8439
vn 0.3992 -0.0307 -0.9164
vn 0.2550 -0.0137 -0.9669
vn 0.0571 -0.9974 -0.0440
vn 0.0779 -0.9956 -0.0516
vn 0.1894 0.9819 -0.0000
vn 0.2653 0.9642 -0.0000
vn 0.3052 -0.0862 -0.9484
vn 0.5001 -0.1308 -0.8560
vn 0.3242 0.7422 -0.5865
vn 0.2807 0.7551 -0.5925
vn 0.1558 -0.0541 -0.9863
vn 0.2112 -0.9137 -0.3473
vn 0.6092 -0.1091 -0.7855
vn 0.1437 -0.9595 -0.2424
vn 0.2553 0.8686 -0.4247
vn 0.3154 0.9490 -0.0000
vn 0.0988 0.8349 -0.5415
vn 0.2850 0.8191 -0.4979
vn 0.4303 0.7198 -0.5448
vn 0.3901 0.7197 -0.5743
vn -0.2648 0.7149 -0.6472
vn -0.1475 0.7293 -0.6681
vn -0.0606 0.7755 -0.6285
vn 0.1318 0.7982 -0.5878
vn -0.4444 0.6154 -0.6510
vn 0.1328 0.9911 -0.0000
vn -0.7106 0.7036 -0.0000
vn -0.1389 0.9903 -0.0000
vn 0.1872 0.9823 -0.0000
vn 0.0709 0.9975 -0.0000
vn 0.4994 0.8664 -0.0000
vn 0.3482 0.9374 -0.0000
vn -0.5802 0.8145 -0.0000
vn -0.1002 0.9950 -0.0000
vn -0.3520 0.9360 -0.0000
vn -0.0584 -0.0154 -0.9982
vn -0.3913 -0.0919 -0.9157
vn -0.6778 -0.1489 -0.7200
vn -0.8103 -0.0776 -0.5809
vn 0.1490 0.0154 -0.9887
vn -0.2253 -0.9442 -0.2403
vn 0.0221 -0.9805 -0.1952
vn -0.4071 -0.9134 -0.0003
vn -0.5877 -0.8091 -0.0004
vn -0.7311 -0.6823 -0.0003
vn -0.8646 -0.5025 -0.0001
vn -0.4475 -0.8587 -0.2496
vn -0.5797 -0.7137 -0.3932
vn -0.6625 -0.5636 -0.4934
vn -0.7262 -0.3870 -0.5682
vn -0.9288 -0.3707 -0.0000
vn -0.4492 -0.8934 -0.0002
vn -0.0000 -0.0000 -1.0000
vn -0.4232 -0.8751 -0.2347
vn -0.7388 -0.2727 -0.6164
vn -0.0017 1.0000 0.0043
vn 0.1741 0.8240 -0.5391
vn 0.3551 0.7453 -0.5643
vn 0.3255 0.7316 -0.5990
vn 0.2387 0.7466 -0.6210
vn 0.1397 0.8010 -0.5821
vn 0.0666 0.9933 -0.0940
vn 0.0409 0.9586 -0.2820
vn -0.1008 0.9022 -0.4194
vn 0.0487 0.8797 -0.4731
vn -0.0795 0.9895 -0.1207
vn -0.2503 0.9049 -0.3443
vn 0.0194 0.8793 -0.4759
vn -0.1018 0.8410 -0.5313
vn -0.2280 0.8393 -0.4936
vn 0.5974 0.8020 -0.0000
vn -0.1266 0.3234 -0.9378
vn 0.0728 0.2968 -0.9522
vn 0.2314 0.2009 -0.9519
vn 0.0928 0.4534 -0.8865
vn 0.2264 0.3816 -0.8962
vn 0.0733 0.2859 -0.9555
vn -0.1184 0.2602 -0.9583
vn 0.1418 0.2884 -0.9469
vn 0.1012 0.1466 -0.9840
vn 0.0613 0.2862 -0.9562
vn 0.3487 0.9372 0.0045
vn 0.1512 0.9203 0.3608
vn 0.3516 0.9362 0.0040
vn 0.4845 0.8727 0.0611
vn 0.8972 0.4412 0.0173
vn 0.9886 -0.1507 0.0004
vn 0.5340 -0.0524 0.8439
vn 0.3992 -0.0307 0.9164
vn 0.2550 -0.0137 0.9669
vn 0.0571 -0.9974 0.0440
vn 0.0779 -0.9956 0.0516
vn 0.3052 -0.0862 0.9484
vn 0.5001 -0.1308 0.8560
vn 0.3242 0.7422 0.5865
vn 0.2807 0.7551 0.5925
vn 0.1558 -0.0541 0.9863
vn 0.2112 -0.9137 0.3473
vn 0.6092 -0.1091 0.7855
vn 0.1437 -0.9595 0.2424
vn 0.2553 0.8686 0.4247
vn 0.0988 0.8349 0.5415
vn 0.2850 0.8191 0.4979
vn 0.4303 0.7198 0.5448
vn 0.3901 0.7197 0.5743
vn -0.2648 0.7149 0.6472
vn -0.1475 0.7293 0.6681
vn -0.0606 0.7755 0.6285
vn 0.1318 0.7982 0.5878
vn -0.4444 0.6154 0.6510
vn -0.0584 -0.0154 0.9982
vn -0.3913 -0.0919 0.9157
vn -0.6778 -0.1489 0.7200
vn -0.8103 -0.0776 0.5809
vn 0.1490 0.0154 0.9887
vn -0.2253 -0.9442 0.2403
vn 0.0221 -0.9805 0.1952
vn -0.4071 -0.9134 0.0003
vn -0.5877 -0.8091 0.0004
vn -0.7311 -0.6823 0.0003
vn -0.8646 -0.5025 0.0001
vn -0.4475 -0.8587 0.2496
vn -0.5797 -0.7137 0.3932
vn -0.6625 -0.5636 0.4934
vn -0.7262 -0.3870 0.5682
vn -0.4492 -0.8934 0.0002
vn -0.4232 -0.8751 0.2347
vn -0.7388 -0.2727 0.6164
vn -0.0017 1.0000 -0.0043
vn 0.1741 0.8240 0.5391
vn 0.3551 0.7453 0.5643
vn 0.3255 0.7317 0.5989
vn 0.2387 0.7465 0.6211
vn 0.1397 0.8010 0.5821
vn 0.0666 0.9933 0.0940
vn 0.0409 0.9586 0.2820
vn -0.1008 0.9022 0.4194
vn 0.0487 0.8797 0.4731
vn -0.0795 0.9895 0.1207
vn -0.2503 0.9049 0.3443
vn 0.0194 0.8791 0.4763
vn -0.1018 0.8412 0.5311
vn -0.2280 0.8393 0.4936
vn -0.1266 0.3234 0.9378
vn 0.0728 0.2968 0.9522
vn 0.2314 0.2009 0.9519
vn 0.0928 0.4534 0.8865
vn 0.2264 0.3816 0.8962
vn 0.0733 0.2859 0.9555
vn -0.1184 0.2602 0.9583
vn 0.1418 0.2884 0.9469
vn 0.1012 0.1466 0.9840
vn 0.0613 0.2862 0.9562
vt 0.304924 0.626757
vt 0.375000 0.626757
vt 0.375000 0.750000
vt 0.304924 0.750000
vt 0.828932 0.626757
vt 0.840849 0.626757
vt 0.841750 0.687402
vt 0.828932 0.680121
vt 0.286627 0.626757
vt 0.286627 0.750000
vt 0.187153 0.626757
vt 0.187153 0.750000
vt 0.375000 0.937847
vt 0.625000 0.937847
vt 0.625000 0.953932
vt 0.375000 0.953932
vt 0.375000 0.838373
vt 0.625000 0.838373
vt 0.171068 0.626757
vt 0.171068 0.750000
vt 0.828932 0.500000
vt 0.875000 0.500000
vt 0.875000 0.626757
vt 0.625000 1.000000
vt 0.625000 0.967680
vt 0.842680 0.750000
vt 0.828932 0.750000
vt 0.625000 0.839335
vt 0.625000 0.844193
vt 0.625000 0.851784
vt 0.625000 0.925962
vt 0.625000 0.932485
vt 0.625000 0.936801
vt 0.625000 0.937847
vt 0.630146 0.626757
vt 0.628431 0.751715
vt 0.623652 0.750880
vt 0.627658 0.625122
vt 0.584509 0.750250
vt 0.583702 0.626185
vt 0.544548 0.750000
vt 0.544548 0.626757
vt 0.628583 0.498209
vt 0.623500 0.497073
vt 0.582958 0.498904
vt 0.544548 0.500000
vt 0.375000 0.500000
vt 0.279671 0.500000
vt 0.283920 0.500000
vt 0.286627 0.525871
vt 0.286627 0.509769
vt 0.286627 0.525871
vt 0.286627 0.522712
vt 0.625000 0.415109
vt 0.375000 0.415895
vt 0.374618 0.413262
vt 0.624703 0.412965
vt 0.375054 0.408915
vt 0.625042 0.409258
vt 0.375000 0.404671
vt 0.625000 0.405377
vt 0.301621 0.500000
vt 0.304736 0.500000
vt 0.304924 0.527505
vt 0.304924 0.517277
vt 0.625211 0.815871
vt 0.623676 0.820076
vt 0.601463 0.820076
vt 0.625000 0.820076
vt 0.698985 0.626757
vt 0.698994 0.750000
vt 0.695076 0.750000
vt 0.695076 0.625562
vt 0.690976 0.750106
vt 0.691081 0.626757
vt 0.625227 0.434250
vt 0.375000 0.434160
vt 0.376444 0.429924
vt 0.623975 0.429924
vt 0.375000 0.426621
vt 0.625000 0.427206
vt 0.698114 0.501363
vt 0.695076 0.500000
vt 0.690863 0.499886
vt 0.290895 0.500000
vt 0.309160 0.500000
vt 0.375000 0.820076
vt 0.625000 0.823994
vt 0.725645 0.626226
vt 0.731199 0.626512
vt 0.726784 0.651041
vt 0.718746 0.650473
vt 0.721777 0.626244
vt 0.713645 0.650324
vt 0.720703 0.626530
vt 0.713373 0.650506
vt 0.719817 0.626757
vt 0.712820 0.641229
vt 0.805111 0.626702
vt 0.806113 0.626733
vt 0.812847 0.645152
vt 0.812555 0.645616
vt 0.801980 0.626664
vt 0.807818 0.645863
vt 0.797580 0.626699
vt 0.800962 0.646508
vt 0.808543 0.626344
vt 0.812847 0.642296
vt 0.709575 0.626757
vt 0.713373 0.750000
vt 0.812847 0.750000
vt 0.815967 0.626757
vt 0.726784 0.750000
vt 0.718565 0.750000
vt 0.800962 0.750000
vt 0.713373 0.750000
vt 0.807942 0.750000
vt 0.185161 0.500000
vt 0.187153 0.507087
vt 0.187153 0.516197
vt 0.187153 0.501356
vt 0.187153 0.516197
vt 0.187153 0.500000
vt 0.625000 0.317052
vt 0.375000 0.317605
vt 0.375069 0.314494
vt 0.626476 0.314397
vt 0.374639 0.311276
vt 0.625190 0.311125
vt 0.375000 0.310161
vt 0.625000 0.309808
vt 0.375000 0.296068
vt 0.625000 0.296068
vt 0.171068 0.500000
vt 0.192605 0.500000
vt 0.141296 0.626757
vt 0.141246 0.750000
vt 0.134313 0.750000
vt 0.134287 0.626401
vt 0.125000 0.750000
vt 0.125000 0.622259
vt 0.375000 0.127741
vt 0.375000 0.000000
vt 0.424736 0.000000
vt 0.425433 0.124762
vt 0.462767 0.000000
vt 0.462808 0.123243
vt 0.147859 0.500000
vt 0.138054 0.499329
vt 0.125000 0.500000
vt 0.388758 0.252827
vt 0.438085 0.252324
vt 0.483457 0.250000
vt 0.625000 0.000000
vt 0.625000 0.123243
vt 0.462767 1.000000
vt 0.428045 0.998997
vt 0.397902 0.995853
vt 0.380657 0.990208
vt 0.375000 0.983754
vt 0.375000 0.272859
vt 0.381674 0.263723
vt 0.625000 0.250000
vt 0.719623 0.500000
vt 0.710967 0.508192
vt 0.713373 0.506411
vt 0.715743 0.500014
vt 0.711632 0.507430
vt 0.713373 0.506396
vt 0.715744 0.500000
vt 0.815192 0.500000
vt 0.809986 0.506347
vt 0.812847 0.502876
vt 0.813908 0.500026
vt 0.808543 0.626344
vt 0.810398 0.500987
vt 0.812847 0.502864
vt 0.813910 0.500000
vt 0.713343 0.742755
vt 0.713367 0.741936
vt 0.727835 0.626313
vt 0.732748 0.626479
vt 0.724370 0.626327
vt 0.723239 0.626504
vt 0.722315 0.626722
vt 0.713350 0.658132
vt 0.712884 0.649093
vt 0.802891 0.626683
vt 0.803925 0.626693
vt 0.800225 0.626665
vt 0.796503 0.626675
vt 0.806173 0.626388
s 0
f 16/1/1 15/2/1 3/3/1 5/4/1
f 19/5/2 22/6/2 26/7/2 25/8/2
f 17/9/3 16/1/3 5/4/3 7/10/3
f 20/11/3 17/9/3 7/10/3 12/12/3
f 12/13/4 13/14/4 9/15/4 11/16/4
f 7/17/4 129/18/4 13/14/4 12/13/4
f 18/19/3 20/11/3 12/12/3 11/20/3
f 10/21/5 2/22/5 14/23/5 22/6/5 19/5/5
f 1/24/6 21/25/6 23/25/6 24/24/6
f 25/8/7 26/7/7 21/26/7 9/27/7
f 13/14/4 129/18/4 128/18/4 29/28/4 30/29/4 28/30/4 31/31/4 33/32/4 34/33/4 32/34/4
f 44/35/8 36/36/8 38/37/8 46/38/8
f 46/38/9 38/37/9 37/39/9 45/40/9
f 45/40/10 37/39/10 35/41/10 43/42/10
f 39/43/11 44/35/11 46/38/11 41/44/11
f 41/44/12 46/38/12 45/40/12 42/45/12
f 42/45/13 45/40/13 43/42/13 40/46/13
f 15/2/14 43/42/14 35/41/14 3/3/14
f 4/47/14 40/46/14 43/42/14 15/2/14
f 47/48/3 50/49/3 49/50/3
f 50/49/3 51/51/3 49/52/3
f 51/51/3 48/53/3 49/52/3
f 52/54/15 48/55/15 51/56/15 54/57/15
f 54/57/16 51/56/16 50/58/16 55/59/16
f 55/59/17 50/58/17 47/60/17 53/61/17
f 56/62/18 59/63/18 58/64/18
f 59/63/19 57/65/19 58/64/19
f 63/66/4 66/67/4 65/68/4
f 66/67/4 64/69/4 65/68/4
f 68/70/20 64/71/20 66/72/20 69/73/20
f 69/73/21 66/72/21 63/74/21 67/75/21
f 61/76/22 57/77/22 59/78/22 62/79/22
f 62/79/23 59/78/23 56/80/23 60/81/23
f 60/82/24 68/70/24 69/73/24 62/83/24
f 62/83/25 69/73/25 67/75/25 61/84/25
f 57/77/26 61/76/26 39/43/26 41/44/26 42/45/26 40/46/26 4/47/26
f 49/50/27 48/85/27 56/62/27 58/64/27 16/1/27 17/9/27
f 48/55/28 52/54/28 60/81/28 56/80/28
f 58/64/29 57/86/29 4/47/29 15/2/29 16/1/29
f 39/43/30 61/84/30 67/75/30 44/35/30
f 44/35/31 67/75/31 63/74/31 36/36/31
f 3/3/4 35/41/4 37/39/4 38/37/4 36/36/4 63/66/4 65/68/4 5/87/4
f 5/87/4 65/68/4 64/88/4 129/18/4 7/17/4
f 130/89/32 131/90/32 77/91/32 81/92/32
f 132/93/33 130/89/33 81/92/33 83/94/33
f 133/95/34 132/93/34 83/94/34 135/96/34
f 134/97/35 133/95/35 135/96/35 136/98/35
f 137/99/36 138/100/36 85/101/36 89/102/36
f 139/103/37 137/99/37 89/102/37 91/104/37
f 140/105/38 139/103/38 91/104/38 87/106/38
f 131/90/39 140/105/39 87/106/39 77/91/39
f 138/100/40 141/107/40 73/108/40 85/101/40
f 68/70/41 72/109/41 136/98/41 129/110/41 64/71/41
f 73/108/42 13/111/42 32/111/42 85/101/42
f 73/108/43 75/112/43 19/5/43 25/8/43 9/27/43 13/111/43
f 77/91/44 28/113/44 30/114/44 81/92/44
f 77/91/45 87/106/45 31/115/45 28/113/45
f 83/94/46 29/116/46 128/110/46 135/96/46
f 81/92/47 30/114/47 29/116/47 83/94/47
f 85/101/48 32/111/48 34/111/48 89/102/48
f 91/104/49 33/117/49 31/115/49 87/106/49
f 89/102/50 34/111/50 33/117/50 91/104/50
f 96/118/3 99/119/3 98/120/3
f 99/119/3 100/121/3 98/122/3
f 100/121/3 97/123/3 98/122/3
f 92/124/51 97/125/51 100/126/51 94/127/51
f 94/127/52 100/126/52 99/128/52 95/129/52
f 95/129/53 99/128/53 96/130/53 93/131/53
f 8/132/54 10/133/54 93/131/54 96/130/54
f 97/125/55 92/124/55 53/61/55 47/60/55
f 8/134/56 96/118/56 98/120/56 20/11/56 18/19/56
f 98/120/57 97/135/57 47/48/57 49/50/57 17/9/57 20/11/57
f 112/136/58 102/137/58 105/138/58 115/139/58
f 115/139/59 105/138/59 104/140/59 114/141/59
f 114/142/60 104/143/60 103/144/60 113/145/60
f 113/145/61 103/144/61 101/146/61 111/147/61
f 106/148/62 112/136/62 115/139/62 108/149/62
f 108/149/63 115/139/63 114/141/63 109/150/63
f 109/151/64 114/142/64 113/145/64 110/152/64
f 110/152/65 113/145/65 111/147/65 107/153/65
f 101/146/66 1/154/66 14/155/66 111/147/66
f 11/16/4 9/15/4 21/25/4 1/24/4 101/156/4 103/157/4 104/158/4 105/159/4 102/160/4
f 112/136/67 18/19/67 11/20/67 102/137/67
f 106/161/68 108/162/68 109/151/68 110/152/68 107/153/68 2/163/68 10/133/68 8/132/68
f 106/148/69 8/134/69 18/19/69 112/136/69
f 111/147/70 14/155/70 2/163/70 107/153/70
f 116/164/71 117/165/71 118/166/71 119/167/71
f 120/109/72 117/165/72 116/164/72 121/97/72
f 60/82/73 52/168/73 117/165/73 120/109/73 72/109/73 68/70/73
f 52/168/74 54/169/74 118/166/74 117/165/74
f 54/169/75 55/170/75 119/167/75 118/166/75
f 55/170/76 53/164/76 116/164/76 119/167/76
f 134/97/77 136/98/77 72/109/77 120/109/77 121/97/77
f 124/171/78 125/172/78 126/173/78 127/174/78
f 122/175/79 125/172/79 124/171/79 123/112/79
f 116/164/80 53/164/80 92/176/80 125/176/80 122/175/80 141/175/80 134/97/80 121/97/80
f 73/108/81 141/107/81 122/107/81 123/112/81 75/112/81
f 124/171/82 93/171/82 10/21/82 19/5/82 75/112/82 123/112/82
f 92/176/83 94/177/83 126/173/83 125/172/83
f 94/177/84 95/178/84 127/174/84 126/173/84
f 95/178/85 93/171/85 124/171/85 127/174/85
f 14/23/6 1/24/6 24/24/6 23/25/6 26/7/6 22/6/6
f 6/179/86 27/180/86 128/110/86 129/110/86
f 80/181/87 76/182/87 131/90/87 130/89/87
f 82/183/88 80/181/88 130/89/88 132/93/88
f 78/184/89 82/183/89 132/93/89 133/95/89
f 70/185/90 78/184/90 133/95/90 134/97/90
f 79/186/86 71/187/86 136/98/86 135/96/86
f 88/188/91 84/189/91 138/100/91 137/99/91
f 90/190/92 88/188/92 137/99/92 139/103/92
f 86/191/93 90/190/93 139/103/93 140/105/93
f 76/182/94 86/191/94 140/105/94 131/90/94
f 84/189/95 74/192/95 141/107/95 138/100/95
f 71/187/86 6/179/86 129/110/86 136/98/86
f 74/192/96 70/185/96 134/97/96 141/107/96
f 27/180/86 79/186/86 135/96/86 128/110/86
f 149/1/1 5/4/1 3/3/1 148/2/1
f 152/5/97 157/8/97 158/7/97 154/6/97
f 150/9/3 7/10/3 5/4/3 149/1/3
f 153/11/3 12/12/3 7/10/3 150/9/3
f 151/19/3 11/20/3 12/12/3 153/11/3
f 146/21/98 152/5/98 154/6/98 147/23/98 142/22/98
f 1/24/6 156/24/6 155/25/6 21/25/6
f 157/8/99 9/27/99 21/26/99 158/7/99
f 165/35/8 167/38/8 38/37/8 36/36/8
f 167/38/9 166/40/9 37/39/9 38/37/9
f 166/40/10 164/42/10 35/41/10 37/39/10
f 160/43/100 162/44/100 167/38/100 165/35/100
f 162/44/101 163/45/101 166/40/101 167/38/101
f 163/45/102 161/46/102 164/42/102 166/40/102
f 148/2/14 3/3/14 35/41/14 164/42/14
f 143/47/14 148/2/14 164/42/14 161/46/14
f 168/48/3 170/50/3 171/49/3
f 171/49/3 170/52/3 172/51/3
f 172/51/3 170/52/3 169/53/3
f 173/54/103 175/57/103 172/56/103 169/55/103
f 175/57/104 176/59/104 171/58/104 172/56/104
f 176/59/105 174/61/105 168/60/105 171/58/105
f 177/62/106 179/64/106 180/63/106
f 180/63/107 179/64/107 178/65/107
f 185/70/20 186/73/20 66/72/20 64/71/20
f 186/73/21 184/75/21 63/74/21 66/72/21
f 182/76/108 183/79/108 180/78/108 178/77/108
f 183/79/109 181/81/109 177/80/109 180/78/109
f 181/82/110 183/83/110 186/73/110 185/70/110
f 183/83/111 182/84/111 184/75/111 186/73/111
f 178/77/112 143/47/112 161/46/112 163/45/112 162/44/112 160/43/112 182/76/112
f 170/50/113 150/9/113 149/1/113 179/64/113 177/62/113 169/85/113
f 169/55/114 177/80/114 181/81/114 173/54/114
f 179/64/115 149/1/115 148/2/115 143/47/115 178/86/115
f 160/43/116 165/35/116 184/75/116 182/84/116
f 165/35/31 36/36/31 63/74/31 184/75/31
f 240/89/117 198/92/117 194/91/117 241/90/117
f 242/93/118 200/94/118 198/92/118 240/89/118
f 243/95/119 245/96/119 200/94/119 242/93/119
f 244/97/120 246/98/120 245/96/120 243/95/120
f 247/99/121 206/102/121 202/101/121 248/100/121
f 249/103/122 208/104/122 206/102/122 247/99/122
f 250/105/123 204/106/123 208/104/123 249/103/123
f 241/90/124 194/91/124 204/106/124 250/105/124
f 248/100/125 202/101/125 190/108/125 251/107/125
f 185/70/41 64/71/41 129/110/41 246/98/41 189/109/41
f 190/108/42 202/101/42 32/111/42 13/111/42
f 190/108/43 13/111/43 9/27/43 157/8/43 152/5/43 192/112/43
f 194/91/44 198/92/44 30/114/44 28/113/44
f 194/91/45 28/113/45 31/115/45 204/106/45
f 200/94/46 245/96/46 128/110/46 29/116/46
f 198/92/47 200/94/47 29/116/47 30/114/47
f 202/101/48 206/102/48 34/111/48 32/111/48
f 208/104/49 204/106/49 31/115/49 33/117/49
f 206/102/50 208/104/50 33/117/50 34/111/50
f 213/118/3 215/120/3 216/119/3
f 216/119/3 215/122/3 217/121/3
f 217/121/3 215/122/3 214/123/3
f 209/124/126 211/127/126 217/126/126 214/125/126
f 211/127/127 212/129/127 216/128/127 217/126/127
f 212/129/128 210/131/128 213/130/128 216/128/128
f 145/132/129 213/130/129 210/131/129 146/133/129
f 214/125/130 168/60/130 174/61/130 209/124/130
f 145/134/131 151/19/131 153/11/131 215/120/131 213/118/131
f 215/120/132 153/11/132 150/9/132 170/50/132 168/48/132 214/135/132
f 224/136/133 227/139/133 105/138/133 102/137/133
f 227/139/134 226/141/134 104/140/134 105/138/134
f 226/142/135 225/145/135 103/144/135 104/143/135
f 225/145/136 223/147/136 101/146/136 103/144/136
f 218/148/137 220/149/137 227/139/137 224/136/137
f 220/149/138 221/150/138 226/141/138 227/139/138
f 221/151/139 222/152/139 225/145/139 226/142/139
f 222/152/140 219/153/140 223/147/140 225/145/140
f 101/146/66 223/147/66 147/155/66 1/154/66
f 224/136/141 102/137/141 11/20/141 151/19/141
f 218/161/4 145/132/4 146/133/4 142/163/4 219/153/4 222/152/4 221/151/4 220/162/4
f 218/148/142 224/136/142 151/19/142 145/134/142
f 223/147/143 219/153/143 142/163/143 147/155/143
f 228/164/144 231/167/144 230/166/144 229/165/144
f 232/109/145 233/97/145 228/164/145 229/165/145
f 181/82/146 185/70/146 189/109/146 232/109/146 229/165/146 173/168/146
f 173/168/147 229/165/147 230/166/147 175/169/147
f 175/169/148 230/166/148 231/167/148 176/170/148
f 176/170/149 231/167/149 228/164/149 174/164/149
f 244/97/150 233/97/150 232/109/150 189/109/150 246/98/150
f 236/171/151 239/174/151 238/173/151 237/172/151
f 234/175/152 235/112/152 236/171/152 237/172/152
f 228/164/153 233/97/153 244/97/153 251/175/153 234/175/153 237/176/153 209/176/153 174/164/153
f 190/108/154 192/112/154 235/112/154 234/107/154 251/107/154
f 236/171/155 235/112/155 192/112/155 152/5/155 146/21/155 210/171/155
f 209/176/156 237/172/156 238/173/156 211/177/156
f 211/177/157 238/173/157 239/174/157 212/178/157
f 212/178/158 239/174/158 236/171/158 210/171/158
f 147/23/6 154/6/6 158/7/6 155/25/6 156/24/6 1/24/6
f 144/179/86 129/110/86 128/110/86 159/180/86
f 197/181/159 240/89/159 241/90/159 193/182/159
f 199/183/160 242/93/160 240/89/160 197/181/160
f 195/184/161 243/95/161 242/93/161 199/183/161
f 187/185/162 244/97/162 243/95/162 195/184/162
f 196/186/86 245/96/86 246/98/86 188/187/86
f 205/188/163 247/99/163 248/100/163 201/189/163
f 207/190/164 249/103/164 247/99/164 205/188/164
f 203/191/165 250/105/165 249/103/165 207/190/165
f 193/182/166 241/90/166 250/105/166 203/191/166
f 201/189/167 248/100/167 251/107/167 191/192/167
f 188/187/86 246/98/86 129/110/86 144/179/86
f 191/192/168 251/107/168 244/97/168 187/185/168
f 159/180/86 128/110/86 245/96/86 196/186/86
g wing_wing
v -1.749536 0.480185 -0.055873
v -1.749536 0.480185 -0.295104
v -1.310287 0.480185 -0.295104
v -1.933850 0.651119 -0.295104
v -1.634018 0.651119 -0.295104
v -1.307452 0.480185 -0.177384
v -1.749536 0.480185 -0.178798
v -1.671627 0.651119 -0.178798
v -1.933850 0.651119 -0.178798
v -1.634018 0.702837 -0.295104
v -1.671627 0.702837 -0.178798
v -1.671627 0.651119 -0.055873
v -1.933850 0.651119 -0.055873
v -1.933850 0.702837 -0.055873
v -1.671627 0.702837 -0.055873
v -1.933850 0.651119 -0.914863
v -1.634018 0.651119 -0.914863
v -1.933850 0.851087 -0.914863
v -1.634018 0.753666 -0.914863
v -2.167553 0.727616 -0.295104
v -2.167553 0.727616 -0.178798
v -2.167553 0.779334 -0.295104
v -2.167553 0.779334 -0.178798
v -2.167553 0.779334 -0.055873
v -2.167553 0.727616 -0.055873
v -2.167553 0.727616 -0.914863
v -2.167553 0.927584 -0.914863
v -1.634018 0.702837 -0.859254
v -2.167553 0.779334 -0.830818
v -1.749536 0.480185 0.183358
v -1.310287 0.480185 0.183358
v -1.933850 0.651119 0.183358
v -1.634018 0.651119 0.183358
v -1.307452 0.480185 0.065638
v -1.749536 0.480185 0.067052
v -1.671627 0.651119 0.067052
v -1.933850 0.651119 0.067052
v -1.634018 0.702837 0.183358
v -1.671627 0.702837 0.067052
v -1.933850 0.651119 0.803117
v -1.634018 0.651119 0.803117
v -1.933850 0.851087 0.803117
v -1.634018 0.753666 0.803117
v -2.167553 0.727616 0.183358
v -2.167553 0.727616 0.067052
v -2.167553 0.779334 0.183358
v -2.167553 0.779334 0.067052
v -2.167553 0.727616 0.803117
v -2.167553 0.927584 0.803117
v -1.634018 0.702837 0.747508
v -2.167553 0.779334 0.719072
vn -0.0000 -0.0000 -1.0000
vn -0.0020 0.0009 1.0000
vn -0.0000 -1.0000 -0.0000
vn -0.6800 -0.7332 -0.0000
vn 0.4440 0.8936 0.0660
vn -0.3111 -0.9504 -0.0000
vn 0.9515 -0.0000 0.3077
vn -0.0000 -0.0000 1.0000
vn 1.0000 -0.0000 -0.0000
vn -1.0000 -0.0000 -0.0000
vn 0.1442 0.9892 0.0274
vn 0.1549 0.5680 0.8084
vn -0.0020 0.0009 -1.0000
vn 0.4440 0.8936 -0.0660
vn 0.9515 -0.0000 -0.3077
vn 0.1442 0.9892 -0.0274
vn 0.1549 0.5680 -0.8084
vt 0.840849 0.626757
vt 0.875000 0.626757
vt 0.625000 1.000000
vt 0.625000 0.967680
s 0
f 254/193/169 253/194/169 255/194/169 256/193/169
f 258/195/170 257/196/170 259/196/170 260/195/170
f 260/195/171 259/196/171 263/196/171 264/195/171
f 252/195/172 258/195/172 260/195/172 255/194/172 253/194/172
f 256/193/173 259/196/173 257/196/173 254/193/173
f 260/195/174 264/195/174 276/195/174 272/195/174
f 259/196/175 256/193/175 261/193/175 262/196/175
f 256/193/171 255/194/171 267/194/171 268/193/171
f 264/195/176 263/196/176 266/196/176 265/195/176
f 259/196/177 262/196/177 266/196/177 263/196/177
f 271/194/178 272/195/178 276/195/178 275/195/178 274/195/178 273/194/178 280/194/178 278/194/178 277/194/178
f 261/193/177 256/193/177 268/193/177 270/193/177 279/193/177
f 268/193/169 267/194/169 277/194/169 278/194/169 269/194/169 270/193/169
f 255/194/174 260/195/174 272/195/174 271/194/174
f 267/194/174 255/194/174 271/194/174 277/194/174
f 264/195/176 265/195/176 275/195/176 276/195/176
f 262/196/179 261/193/179 279/193/179 280/194/179 273/194/179 274/195/179 275/195/179 265/195/179 266/196/179
f 280/194/180 279/193/180 270/193/180 269/194/180 278/194/180
f 282/193/176 284/193/176 283/194/176 281/194/176
f 286/195/181 288/195/181 287/196/181 285/196/181
f 288/195/171 264/195/171 263/196/171 287/196/171
f 252/195/172 281/194/172 283/194/172 288/195/172 286/195/172
f 284/193/182 282/193/182 285/196/182 287/196/182
f 288/195/174 296/195/174 276/195/174 264/195/174
f 287/196/183 290/196/183 289/193/183 284/193/183
f 284/193/171 292/193/171 291/194/171 283/194/171
f 287/196/177 263/196/177 266/196/177 290/196/177
f 295/194/178 299/194/178 300/194/178 302/194/178 297/194/178 298/195/178 275/195/178 276/195/178 296/195/178
f 289/193/177 301/193/177 294/193/177 292/193/177 284/193/177
f 292/193/176 294/193/176 293/194/176 300/194/176 299/194/176 291/194/176
f 283/194/174 295/194/174 296/195/174 288/195/174
f 291/194/174 299/194/174 295/194/174 283/194/174
f 290/196/184 266/196/184 265/195/184 275/195/184 298/195/184 297/194/184 302/194/184 301/193/184 289/193/184
f 302/194/185 300/194/185 293/194/185 294/193/185 301/193/185
g bumper_bumper
v 1.798665 0.054487 -0.055873
v 1.836259 0.032782 -0.055873
v 1.836259 -0.010628 -0.055873
v 1.798665 -0.032332 -0.055873
v 1.761071 -0.010628 -0.055873
v 1.761071 0.032782 -0.055873
v 1.774420 0.054487 -0.299556
v 1.810153 0.032782 -0.311238
v 1.810153 -0.010628 -0.311238
v 1.774420 -0.032332 -0.299556
v 1.738687 -0.010628 -0.287875
v 1.738687 0.032782 -0.287875
v 1.727959 0.032782 -0.325531
v 1.758991 0.054487 -0.346750
v 1.727959 -0.010628 -0.325531
v 1.758991 -0.032332 -0.346750
v 1.790024 -0.010628 -0.367970
v 1.790024 0.032782 -0.367970
v 1.596988 0.032782 -0.505646
v 1.628021 0.054487 -0.526866
v 1.596988 -0.010628 -0.505646
v 1.628021 -0.032332 -0.526866
v 1.659053 -0.010628 -0.548086
v 1.659053 0.032782 -0.548086
v 1.640052 -0.182087 -0.276017
v 1.631885 -0.141084 -0.264335
v 1.629621 -0.170719 -0.323211
v 1.624632 -0.133180 -0.301991
v 0.940402 -0.180550 -0.242936
v 0.932236 -0.139547 -0.231254
v 0.929971 -0.169182 -0.290130
v 0.924982 -0.131642 -0.268910
v 1.774420 0.054487 0.187810
v 1.810153 0.032782 0.199492
v 1.810153 -0.010628 0.199492
v 1.774420 -0.032332 0.187810
v 1.738687 -0.010628 0.176129
v 1.738687 0.032782 0.176129
v 1.727959 0.032782 0.213784
v 1.758991 0.054487 0.235004
v 1.727959 -0.010628 0.213784
v 1.758991 -0.032332 0.235004
v 1.790024 -0.010628 0.256224
v 1.790024 0.032782 0.256224
v 1.596988 0.032782 0.393900
v 1.628021 0.054487 0.415120
v 1.596988 -0.010628 0.393900
v 1.628021 -0.032332 0.415120
v 1.659053 -0.010628 0.436340
v 1.659053 0.032782 0.436340
v 1.640052 -0.182087 0.164271
v 1.631885 -0.141084 0.152589
v 1.629621 -0.170719 0.211465
v 1.624632 -0.133180 0.190245
v 0.940402 -0.180550 0.131190
v 0.932236 -0.139547 0.119508
v 0.929971 -0.169182 0.178384
v 0.924982 -0.131642 0.157164
vn 0.5028 0.8629 -0.0507
vn 0.9948 -0.0000 -0.1017
vn 0.5028 -0.8629 -0.0507
vn -0.5030 -0.8629 0.0493
vn -0.0000 -0.0000 1.0000
vn -0.9954 -0.0000 0.0960
vn -0.5030 0.8629 0.0493
vn 0.9424 -0.0000 -0.3344
vn 0.8088 -0.0000 -0.5881
vn -0.4912 0.2898 -0.8214
vn -0.4860 0.8610 0.1498
vn 0.4796 0.8620 -0.1641
vn 0.4796 -0.8620 -0.1641
vn -0.9617 -0.0000 0.2740
vn -0.5644 -0.0000 -0.8255
vn -0.4045 -0.8659 0.2941
vn -0.4045 0.8659 0.2941
vn 0.4045 0.8659 -0.2941
vn 0.4045 -0.8659 -0.2941
vn -0.8088 -0.0000 0.5881
vn 0.0118 0.9791 0.2033
vn 0.6880 -0.6738 -0.2696
vn 0.3248 -0.1220 0.9379
vn -0.7242 0.6462 0.2407
vn -0.9630 -0.2241 0.1498
vn 0.0450 -0.2654 0.9631
vn -0.0131 -0.9728 -0.2314
vn -0.0402 0.4876 -0.8721
vn 0.5028 0.8629 0.0507
vn 0.9948 -0.0000 0.1017
vn 0.5028 -0.8629 0.0507
vn -0.5030 -0.8629 -0.0493
vn -0.9954 -0.0000 -0.0960
vn -0.5030 0.8629 -0.0493
vn 0.9424 -0.0000 0.3344
vn 0.8088 -0.0000 0.5881
vn -0.4912 0.2898 0.8214
vn -0.4860 0.8610 -0.1498
vn 0.4796 0.8620 0.1641
vn 0.4796 -0.8620 0.1641
vn -0.9617 -0.0000 -0.2740
vn -0.5644 -0.0000 0.8255
vn -0.4045 -0.8659 -0.2941
vn -0.4045 0.8659 -0.2941
vn 0.4045 0.8659 0.2941
vn 0.4045 -0.8659 0.2941
vn -0.8088 -0.0000 -0.5881
vn 0.0118 0.9791 -0.2033
vn 0.6880 -0.6738 0.2696
vn 0.3248 -0.1220 -0.9379
vn -0.7242 0.6462 -0.2407
vn -0.9630 -0.2241 -0.1498
vn 0.0450 -0.2654 -0.9631
vn -0.0131 -0.9728 0.2314
vn -0.0402 0.4876 0.8721
vt 1.000000 0.683032
vt 1.000000 1.000000
vt 0.833333 1.000000
vt 0.833333 0.683032
vt 0.666667 1.000000
vt 0.666667 0.683032
vt 0.500000 1.000000
vt 0.500000 0.683032
vt 0.333333 1.000000
vt 0.333333 0.683032
vt 0.457846 0.370000
vt 0.250000 0.490000
vt 0.042154 0.370000
vt 0.042154 0.130000
vt 0.250000 0.010000
vt 0.457846 0.130000
vt 0.166667 1.000000
vt 0.166667 0.683032
vt -0.000000 1.000000
vt -0.000000 0.683032
s 0
f 309/197/186 303/198/186 304/199/186 310/200/186
f 310/200/187 304/199/187 305/201/187 311/202/187
f 311/202/188 305/201/188 306/203/188 312/204/188
f 312/204/189 306/203/189 307/205/189 313/206/189
f 304/207/190 303/208/190 308/209/190 307/210/190 306/211/190 305/212/190
f 313/206/191 307/205/191 308/213/191 314/214/191
f 314/214/192 308/213/192 303/215/192 309/216/192
f 310/200/193 311/202/193 319/202/193 320/200/193
f 320/200/194 319/202/194 325/202/194 326/200/194
f 317/206/195 318/204/195 329/204/195 330/206/195
f 314/214/196 309/216/196 316/216/196 315/214/196
f 309/197/197 310/200/197 320/200/197 316/197/197
f 311/202/198 312/204/198 318/204/198 319/202/198
f 313/206/199 314/214/199 315/214/199 317/206/199
f 321/214/200 322/197/200 326/200/200 325/202/200 324/204/200 323/206/200
f 318/204/201 317/206/201 323/206/201 324/204/201
f 315/214/202 316/216/202 322/216/202 321/214/202
f 316/197/203 320/200/203 326/200/203 322/197/203
f 319/202/204 318/204/204 324/204/204 325/202/204
f 317/206/205 315/214/205 321/214/205 323/206/205
f 328/206/206 330/206/206 334/206/206 332/206/206
f 318/204/207 312/204/207 327/204/207 329/204/207
f 312/204/208 313/206/208 328/206/208 327/204/208
f 313/206/209 317/206/209 330/206/209 328/206/209
f 331/204/210 332/206/210 334/206/210 333/204/210
f 327/204/211 328/206/211 332/206/211 331/204/211
f 329/204/212 327/204/212 331/204/212 333/204/212
f 330/206/213 329/204/213 333/204/213 334/206/213
f 335/197/214 336/200/214 304/199/214 303/198/214
f 336/200/215 337/202/215 305/201/215 304/199/215
f 337/202/216 338/204/216 306/203/216 305/201/216
f 338/204/217 339/206/217 307/205/217 306/203/217
f 339/206/218 340/214/218 308/213/218 307/205/218
f 340/214/219 335/216/219 303/215/219 308/213/219
f 336/200/220 346/200/220 345/202/220 337/202/220
f 346/200/221 352/200/221 351/202/221 345/202/221
f 343/206/222 356/206/222 355/204/222 344/204/222
f 340/214/223 341/214/223 342/216/223 335/216/223
f 335/197/224 342/197/224 346/200/224 336/200/224
f 337/202/225 345/202/225 344/204/225 338/204/225
f 339/206/226 343/206/226 341/214/226 340/214/226
f 347/214/227 349/206/227 350/204/227 351/202/227 352/200/227 348/197/227
f 344/204/228 350/204/228 349/206/228 343/206/228
f 341/214/229 347/214/229 348/216/229 342/216/229
f 342/197/230 348/197/230 352/200/230 346/200/230
f 345/202/231 351/202/231 350/204/231 344/204/231
f 343/206/232 349/206/232 347/214/232 341/214/232
f 354/206/233 358/206/233 360/206/233 356/206/233
f 344/204/234 355/204/234 353/204/234 338/204/234
f 338/204/235 353/204/235 354/206/235 339/206/235
f 339/206/236 354/206/236 356/206/236 343/206/236
f 357/204/237 359/204/237 360/206/237 358/206/237
f 353/204/238 357/204/238 358/206/238 354/206/238
f 355/204/239 359/204/239 357/204/239 353/204/239
f 356/206/240 360/206/240 359/204/240 355/204/240
g windows
v 0.407135 0.403656 -0.073665
v 0.186202 0.568226 -0.073665
v 0.292200 0.410415 -0.385871
v 0.407135 0.403656 -0.308823
v -0.689577 0.409735 -0.447777
v 0.013348 0.570562 -0.334778
v 0.132653 0.526638 -0.340175
v 0.186202 0.568226 -0.254684
v 0.054910 0.566911 -0.341976
v 0.098129 0.550879 -0.343701
v -0.530829 0.571177 -0.409559
v -0.445618 0.603355 -0.393571
v -0.506908 0.587129 -0.396360
v -0.476515 0.598575 -0.390644
v 0.407135 0.403656 -0.038081
v 0.186202 0.568226 -0.038081
v 0.292200 0.410415 0.274125
v 0.407135 0.403656 0.197077
v -0.689577 0.409735 0.336031
v 0.013348 0.570562 0.223032
v 0.132653 0.526638 0.228429
v 0.186202 0.568226 0.142938
v 0.054910 0.566911 0.230230
v 0.098129 0.550879 0.231955
v -0.530829 0.571177 0.297813
v -0.445618 0.603355 0.281825
v -0.506908 0.587129 0.284613
v -0.476515 0.598575 0.278898
vn 0.0879 0.2916 -0.9525
vn 0.5974 0.8020 -0.0000
vn 0.0879 0.2916 0.9525
vt 0.722315 0.626722
vt 0.806173 0.626388
vt 0.803925 0.626693
vt 0.802891 0.626683
vt 0.800225 0.626665
vt 0.796503 0.626675
vt 0.732748 0.626479
vt 0.727835 0.626313
vt 0.724370 0.626327
vt 0.723239 0.626504
vt 0.713343 0.742755
vt 0.712884 0.649093
vt 0.713350 0.658132
vt 0.713367 0.741936
s 0
f 363/217/241 365/218/241 371/219/241 373/220/241 374/221/241 372/222/241 366/223/241 369/224/241 370/225/241 367/226/241
f 361/227/242 364/228/242 368/229/242 362/230/242
f 377/217/243 381/226/243 384/225/243 383/224/243 380/223/243 386/222/243 388/221/243 387/220/243 385/219/243 379/218/243
f 375/227/242 376/230/242 382/229/242 378/228/242
