# Blender 5.1.1
# www.blender.org
mtllib pro-buggy.mtl
g body_Cube
v 4.312742 1.477217 -1.842843
v 4.312742 0.344897 -1.842843
v 2.389880 1.942557 -2.382304
v 4.312742 0.344897 -1.842843
v 4.682620 0.497392 -1.267615
v 4.682620 1.797522 -1.537692
v 1.824802 2.251391 -2.029984
v 2.389880 0.000000 -1.724561
v -0.790046 1.942557 -2.382304
v -0.790046 0.000000 -2.382304
v -0.676934 2.250521 -2.027087
v -0.790046 0.000000 -1.724561
v 0.985258 3.033970 -1.777422
v -0.676898 3.156948 -1.779288
v 4.682620 0.344897 -0.759266
v 4.682620 1.797522 -0.759266
v 2.294306 2.236040 -0.984910
v 2.389880 0.000000 -0.766416
v -0.790046 0.000000 -0.766416
v 1.348684 3.180107 -1.001139
v -0.790046 3.407914 -1.002685
v -4.899785 2.142419 -0.991710
v -4.753781 2.142419 -2.174896
v -4.548163 0.849139 -1.724561
v -4.429012 2.685029 -1.002685
v -4.429012 2.550030 -1.859817
v -4.548163 0.849139 -0.766416
v -0.790046 1.032355 -2.479484
v 1.915994 1.056838 -2.479484
v 2.389880 1.454572 -2.436106
v 3.865883 0.264745 -1.968210
v 2.006154 0.000000 -2.382304
v 3.810934 1.110700 -2.008987
v 3.215852 1.442130 -2.183712
v 3.865883 0.264745 -1.968210
v 4.312742 0.344897 -1.842843
v 4.312742 0.344897 -1.842843
v 4.312742 0.344897 -1.842843
v 3.732013 0.264745 -1.782080
v 3.536250 1.969971 -1.856294
v 3.351311 1.798591 -2.112574
v 2.306121 1.068859 -1.647790
v 2.508154 1.323225 -1.692812
v 3.688647 0.922978 -1.681087
v 3.170816 1.313206 -1.611357
v 4.312742 1.477217 1.760558
v 4.312742 0.344897 1.760558
v 2.389880 1.942557 2.300020
v 4.312742 0.344897 1.760558
v 4.682620 0.497392 1.185330
v 4.682620 1.797522 1.455407
v 1.881229 2.229206 1.925628
v 2.389880 0.000000 1.642276
v -0.790046 1.942557 2.300020
v -0.790046 0.000000 2.300020
v -0.699962 2.228514 1.923321
v -0.790046 0.000000 1.642276
v 0.995280 3.055423 1.660339
v -0.699933 3.180557 1.661825
v 4.682620 0.344897 0.676981
v 4.682620 1.797522 0.676981
v 2.294306 2.236040 0.902626
v 2.389880 0.000000 0.684131
v -0.790046 0.000000 0.684131
v 1.348684 3.180107 0.918854
v -0.790046 3.407914 0.920400
v -4.899785 2.142419 0.909426
v -4.753781 2.142419 2.092611
v -4.548163 0.849139 1.642276
v -4.429012 2.685029 0.920400
v -4.429012 2.550030 1.777532
v -4.548163 0.849139 0.684131
v -0.790046 1.032355 2.397199
v 1.915994 1.056838 2.397199
v 2.389880 1.454572 2.353821
v 3.865883 0.264745 1.885925
v 2.006154 0.000000 2.300020
v 3.810934 1.110700 1.926702
v 3.215852 1.442130 2.101427
v 3.865883 0.264745 1.885925
v 4.312742 0.344897 1.760558
v 4.312742 0.344897 1.760558
v 4.312742 0.344897 1.760558
v 3.732013 0.264745 1.699795
v 3.536250 1.969971 1.774009
v 3.351311 1.798591 2.030289
v 2.306121 1.068859 1.565506
v 2.508154 1.323225 1.610527
v 3.688647 0.922978 1.598802
v 3.170816 1.313206 1.529073
v 2.151371 2.239062 -2.014451
v -0.790046 2.142419 -2.174896
v 1.260562 3.060223 -1.752035
v -0.790046 3.272915 -1.859817
v 2.151371 2.239062 1.932166
v -0.790046 2.142419 2.092611
v 1.260562 3.060223 1.669750
v -0.790046 3.272915 1.777532
v 2.389880 2.142419 -0.991710
v 2.222261 2.142419 -2.174896
v 1.252303 3.272915 -1.002685
v 1.154770 3.139347 -1.859817
v 2.389880 2.142419 0.909426
v 2.222261 2.142419 2.092611
v 1.252303 3.272915 0.920400
v 1.154770 3.139347 1.777532
vn -0.0005 0.1078 -0.9942
vn 0.7817 -0.0688 -0.6199
vn -0.0000 -1.0000 -0.0000
vn 0.3079 0.6286 -0.7141
vn -1.0000 -0.0000 -0.0000
vn -0.2204 -0.9754 -0.0000
vn -0.0000 1.0000 -0.0000
vn -0.0000 0.7201 -0.6939
vn 0.0664 0.9852 -0.1581
vn -0.0003 1.0000 0.0056
vn -0.0280 -0.2551 -0.9665
vn 0.1442 0.9895 -0.0062
vn 0.1897 -0.9766 -0.1016
vn 1.0000 -0.0000 -0.0000
vn -0.9717 -0.2267 -0.0663
vn -0.7476 0.6570 -0.0970
vn -0.1926 0.9693 -0.1527
vn -0.0367 0.3855 -0.9220
vn 0.0004 -0.0926 -0.9957
vn 0.2941 0.0415 -0.9549
vn 0.1468 -0.9835 0.1056
vn 0.1962 -0.9773 0.0794
vn 0.1515 -0.9752 0.1611
vn 0.8851 0.0680 -0.4604
vn -0.4809 -0.7953 -0.3691
vn 0.6685 -0.6936 -0.2683
vn 0.0291 -0.9803 -0.1955
vn -0.8884 -0.0398 -0.4573
vn 0.0213 0.0733 -0.9971
vn -0.0671 0.1252 -0.9899
vn 0.1139 -0.2602 -0.9588
vn -0.0198 0.1504 -0.9884
vn -0.0005 0.1078 0.9942
vn 0.7817 -0.0688 0.6199
vn -0.6820 -0.7314 0.0061
vn 0.3079 0.6286 0.7141
vn -0.0000 0.7201 0.6939
vn 0.0664 0.9852 0.1581
vn -0.0737 -0.9973 0.0064
vn -0.0280 -0.2551 0.9665
vn 0.1442 0.9895 0.0062
vn 0.1897 -0.9766 0.1016
vn -0.9717 -0.2267 0.0663
vn -0.7476 0.6570 0.0970
vn -0.1926 0.9693 0.1527
vn -0.0367 0.3855 0.9220
vn 0.0004 -0.0926 0.9957
vn 0.2941 0.0415 0.9549
vn 0.1468 -0.9835 -0.1056
vn 0.1962 -0.9773 -0.0794
vn 0.1515 -0.9752 -0.1611
vn 0.8851 0.0680 0.4604
vn -0.4809 -0.7953 0.3691
vn 0.6685 -0.6936 0.2683
vn 0.0291 -0.9803 0.1955
vn -0.8884 -0.0398 0.4573
vn 0.0213 0.0733 0.9971
vn -0.0671 0.1252 0.9899
vn 0.1139 -0.2602 0.9588
vn -0.0198 0.1504 0.9884
vn 1.0000 -0.0000 0.0062
vn 0.1488 0.9889 -0.0000
vn 0.1488 -0.9889 -0.0000
vn -0.9650 -0.2624 -0.0000
vn -0.7553 0.6553 -0.0000
vn -0.1948 0.9808 -0.0000
vn 0.0660 0.9978 -0.0000
vn -0.0004 0.8030 -0.5959
vn -0.0412 -0.5855 -0.8097
vn -0.3707 -0.1028 -0.9230
vn 0.7007 0.1900 -0.6877
vn -0.0003 0.8893 0.4574
vn -0.0558 -0.7880 0.6131
vn -0.4796 -0.2458 0.8423
vn 0.8376 0.1457 0.5264
vn 0.7047 0.7027 -0.0979
vn 0.6936 0.6950 -0.1896
vn 0.6528 0.7456 -0.1336
vn 0.7047 0.7027 0.0979
vn 0.6936 0.6950 0.1896
vn 0.6528 0.7456 0.1336
vn 0.6936 0.7203 -0.0000
vn 0.6998 0.7144 -0.0000
vt 0.375000 0.500000
vt 0.312198 0.500000
vt 0.261011 0.500000
vt 0.257860 0.500000
vt 0.625000 0.500000
vt 0.875000 0.500000
vt 0.875000 0.581700
vt 0.625000 0.581700
vt 0.375000 0.581700
vt 0.375000 0.250000
vt 0.500000 0.250000
vt 0.625000 0.250000
vt 0.625000 0.331700
vt 0.500000 0.331700
vt 0.375000 0.331700
vt 0.375000 0.918300
vt 0.625000 0.918300
vt 0.625000 1.000000
vt 0.507860 1.000000
vt 0.375000 1.000000
vt 0.375000 0.623343
vt 0.125000 0.691902
vt 0.125000 0.750000
vt 0.625000 0.373343
vt 0.625000 0.373343
vt 0.625000 0.331700
vt 0.625000 0.331700
vt 0.625000 0.331700
vt 0.375000 0.373343
vt 0.625000 0.623343
vt 0.875000 0.623343
vt 0.375000 0.876657
vt 0.625000 0.876657
vt 0.125000 0.500000
vt 0.285626 0.683698
vt 0.327816 0.606138
vt 0.375000 0.625000
vt 0.375000 0.750000
vt 0.000000 0.000000
vt 0.625000 0.331700
vt 0.625000 0.331700
vt 0.625000 0.331700
vt 0.147843 0.970294
vt 0.444238 1.000000
vt 0.444238 0.108315
vt -0.000000 -0.000000
vt 0.070785 0.516728
vt 0.625000 0.336629
vt 0.625000 0.373343
vt 0.625000 0.373343
vt 0.625000 0.337816
vt 0.625000 0.336629
vt 0.625000 0.373343
s 0
usemtl Material
f 3/1/1 30/2/1 29/3/1 28/4/1 9/1/1
f 2/5/2 1/6/2 6/7/2 5/8/2
f 32/1/3 8/9/3 12/9/3 10/1/3
f 1/10/4 41/11/4 3/12/4 100/13/4 40/14/4 6/15/4
f 12/16/5 92/17/5 9/18/5 28/19/5 10/20/5
f 12/9/6 19/21/6 27/21/6 24/9/6
f 31/22/7 2/23/7 4/23/7 35/22/7
f 100/13/8 3/12/8 9/12/8 92/13/8
f 101/24/9 102/13/9 94/13/9 21/25/9
f 52/26/10 7/27/10 11/13/10 56/28/10
f 92/17/11 12/16/11 24/16/11 23/17/11
f 6/15/12 40/14/12 100/13/12 99/25/12 16/29/12
f 8/9/13 5/8/13 15/30/13 18/21/13
f 8/9/3 18/21/3 19/21/3 12/9/3
f 5/8/14 6/7/14 16/31/14 15/30/14
f 27/32/15 22/33/15 23/17/15 24/16/15
f 23/17/16 22/33/16 25/33/16 26/17/16
f 21/25/17 94/13/17 26/13/17 25/25/17
f 94/13/18 92/13/18 23/13/18 26/13/18
f 28/4/19 29/3/19 32/34/19 10/34/19
f 31/22/20 33/35/20 34/36/20 30/2/20 3/1/20 41/37/20 1/38/20 2/23/20
f 4/23/7 2/23/7 36/23/7 37/23/7
f 35/22/21 4/23/21 38/23/21 39/22/21
f 5/39/22 8/39/22 39/39/22
f 5/39/23 39/39/23 38/39/23
f 32/34/24 29/3/24 42/3/24 8/34/24
f 34/36/25 33/35/25 44/35/25 45/36/25
f 29/3/26 30/2/26 43/2/26 42/3/26
f 30/2/27 34/36/27 45/36/27 43/2/27
f 33/35/28 31/22/28 39/22/28 44/35/28
f 42/39/29 45/39/29 8/39/29
f 45/39/30 39/39/30 8/39/30
f 45/39/31 42/39/31 43/39/31
f 45/39/32 44/39/32 39/39/32
f 58/13/35 13/40/35 7/27/35 52/26/35
f 59/41/39 14/42/39 13/40/39 58/13/39
f 56/28/61 11/13/61 14/42/61 59/41/61
f 103/25/62 61/29/62 16/29/62 99/25/62
f 61/31/14 60/30/14 15/30/14 16/31/14
f 60/30/63 63/21/63 18/21/63 15/30/63
f 63/21/3 64/21/3 19/21/3 18/21/3
f 64/21/6 72/21/6 27/21/6 19/21/6
f 72/32/64 67/33/64 22/33/64 27/32/64
f 67/33/65 70/33/65 25/33/65 22/33/65
f 70/25/66 66/25/66 21/25/66 25/25/66
f 66/25/67 105/24/67 101/24/67 21/25/67
f 11/13/68 7/27/68 100/13/68 92/13/68
f 13/40/69 14/42/69 94/13/69 102/13/69
f 7/27/70 13/40/70 102/13/70 100/13/70
f 14/42/71 11/13/71 92/13/71 94/13/71
f 91/48/76 17/49/76 99/25/76 100/13/76
f 20/50/77 93/51/77 102/13/77 101/24/77
f 93/51/78 91/48/78 100/13/78 102/13/78
f 65/53/82 20/50/82 101/24/82 105/24/82
f 17/49/83 62/25/83 103/25/83 99/25/83
usemtl Material.001
f 48/1/33 54/1/33 73/4/33 74/3/33 75/2/33
f 47/5/34 50/8/34 51/7/34 46/6/34
f 77/1/3 55/1/3 57/9/3 53/9/3
f 46/10/36 51/15/36 85/14/36 104/13/36 48/12/36 86/11/36
f 57/16/5 55/20/5 73/19/5 54/18/5 96/17/5
f 57/9/6 69/9/6 72/21/6 64/21/6
f 76/22/7 47/23/7 49/23/7 80/22/7
f 104/13/37 96/13/37 54/12/37 48/12/37
f 105/24/38 66/25/38 98/13/38 106/13/38
f 96/17/40 68/17/40 69/16/40 57/16/40
f 51/43/41 61/44/41 103/45/41 104/46/41 85/47/41
f 53/9/42 63/21/42 60/30/42 50/8/42
f 53/9/3 57/9/3 64/21/3 63/21/3
f 50/8/14 60/30/14 61/31/14 51/7/14
f 72/32/43 69/16/43 68/17/43 67/33/43
f 68/17/44 71/17/44 70/33/44 67/33/44
f 66/25/45 70/25/45 71/13/45 98/13/45
f 98/13/46 71/13/46 68/13/46 96/13/46
f 73/4/47 55/34/47 77/34/47 74/3/47
f 76/22/48 47/23/48 46/38/48 86/37/48 48/1/48 75/2/48 79/36/48 78/35/48
f 49/23/7 47/23/7 81/23/7 82/23/7
f 80/22/49 84/22/49 83/23/49 49/23/49
f 50/39/50 84/39/50 53/39/50
f 50/39/51 83/39/51 84/39/51
f 77/34/52 53/34/52 87/3/52 74/3/52
f 79/36/53 90/36/53 89/35/53 78/35/53
f 74/3/54 87/3/54 88/2/54 75/2/54
f 75/2/55 88/2/55 90/36/55 79/36/55
f 78/35/56 89/35/56 84/22/56 76/22/56
f 87/39/57 53/39/57 90/39/57
f 90/39/58 53/39/58 84/39/58
f 90/39/59 88/39/59 87/39/59
f 90/39/60 84/39/60 89/39/60
f 56/28/72 96/13/72 104/13/72 52/26/72
f 58/13/73 106/13/73 98/13/73 59/41/73
f 52/26/74 104/13/74 106/13/74 58/13/74
f 59/41/75 98/13/75 96/13/75 56/28/75
f 95/52/79 104/13/79 103/25/79 62/25/79
f 65/53/80 105/24/80 106/13/80 97/51/80
f 97/51/81 106/13/81 104/13/81 95/52/81
g widnshield_Cube.004
v 1.824802 2.251391 -2.029984
v -0.676934 2.250521 -2.027087
v 0.985258 3.033970 -1.777422
v -0.676898 3.156948 -1.779288
v 1.881229 2.229206 1.925628
v -0.699962 2.228514 1.923321
v 0.995280 3.055423 1.660339
v -0.699933 3.180557 1.661825
v 2.294306 2.236040 -0.984910
v 1.348684 3.180107 -1.001139
v 2.294306 2.236040 0.902626
v 1.348684 3.180107 0.918854
v 2.151371 2.239062 -2.014451
v 1.260562 3.060223 -1.752035
v 2.151371 2.239062 1.932166
v 1.260562 3.060223 1.669750
v 2.225549 2.164495 -0.984910
v 2.082614 2.167516 -2.014451
v 1.279927 3.108561 -1.001139
v 1.191805 2.988678 -1.752035
v 2.225549 2.164495 0.902626
v 2.082614 2.167516 1.932166
v 1.279927 3.108561 0.918854
v 1.191805 2.988678 1.669750
vn 0.0206 0.2636 -0.9644
vn -0.0012 0.3060 -0.9520
vn -0.0009 0.3048 0.9524
vn 0.0204 0.2648 0.9641
vn -1.0000 -0.0000 -0.0062
vn 0.0737 0.9973 -0.0064
vn 0.6820 0.7314 -0.0061
vn 0.0003 -1.0000 -0.0056
vn 0.6607 0.7453 -0.0895
vn 0.7065 0.7077 -0.0000
vn 0.6607 0.7453 0.0895
vn 0.6950 0.6928 0.1922
vn 0.6950 0.6928 -0.1922
vn -0.6607 -0.7453 0.0895
vn -0.7065 -0.7077 -0.0000
vn -0.6607 -0.7453 -0.0895
vn -0.6950 -0.6928 -0.1922
vn -0.6950 -0.6928 0.1922
vn -0.7208 0.6927 -0.0260
vn -0.7210 0.6929 -0.0000
vn -0.7208 0.6927 0.0260
vn -0.1527 0.1467 -0.9773
vn 0.7173 -0.6893 -0.1016
vn 0.7210 -0.6929 -0.0000
vn -0.1527 0.1467 0.9773
vn 0.7173 -0.6893 0.1016
vt 0.000000 0.000000
s 0
usemtl Material
f 109/54/84 108/54/84 110/54/84
f 109/54/85 107/54/85 108/54/85
f 113/54/86 112/54/86 111/54/86
f 113/54/87 114/54/87 112/54/87
f 112/54/88 114/54/88 110/54/88 108/54/88
f 114/54/89 113/54/89 109/54/89 110/54/89
f 113/54/90 111/54/90 107/54/90 109/54/90
f 111/54/91 112/54/91 108/54/91 107/54/91
f 119/54/92 120/54/92 115/54/92
f 117/54/93 116/54/93 118/54/93
f 121/54/94 117/54/94 122/54/94
f 116/54/93 117/54/93 115/54/93
f 122/54/95 117/54/95 118/54/95
f 120/54/96 116/54/96 115/54/96
f 124/54/97 123/54/97 126/54/97
f 127/54/98 129/54/98 125/54/98
f 128/54/99 130/54/99 127/54/99
f 125/54/98 123/54/98 127/54/98
f 130/54/100 129/54/100 127/54/100
f 126/54/101 123/54/101 125/54/101
f 120/54/102 126/54/102 125/54/102 116/54/102
f 116/54/103 125/54/103 129/54/103 118/54/103
f 118/54/104 129/54/104 130/54/104 122/54/104
f 119/54/105 124/54/105 126/54/105 120/54/105
f 115/54/106 123/54/106 124/54/106 119/54/106
f 117/54/107 127/54/107 123/54/107 115/54/107
f 122/54/108 130/54/108 128/54/108 121/54/108
f 121/54/109 128/54/109 127/54/109 117/54/109
