# Blender 5.1.1
# www.blender.org
mtllib baja.mtl
g body.001_Cube.002
v -0.288117 -0.120697 -0.939402
v -0.184707 1.050186 -0.731928
v 0.961585 -0.120697 -0.939402
v -0.219041 0.676637 -0.912129
v 0.803809 0.606872 -0.885931
v -0.288117 -0.128663 0.000000
v -0.184707 1.072574 0.000000
v 0.961585 -0.128663 0.000000
v -0.288117 0.648690 0.000000
v 1.152532 0.612601 0.000000
v 2.243156 0.085222 0.000000
v -1.971347 0.648690 -0.952502
v -2.080844 0.049228 -0.952502
v -2.033333 0.648690 0.000000
v -2.142829 0.049228 0.000000
v -0.288117 0.456876 -1.013965
v -0.288117 0.197758 -1.064473
v 0.961585 0.429691 -1.013965
v 0.961585 0.182604 -1.064473
v 2.026767 0.348918 -0.982153
v 2.026767 0.137575 -0.982153
v 2.287297 0.260408 0.000000
v 2.287297 0.137575 0.000000
v -2.112387 0.437145 -0.997859
v -2.137704 0.197758 -1.016975
v -2.149339 0.456876 0.000000
v -2.199689 0.197758 0.000000
v -0.184707 1.072574 -0.614259
v -0.288117 0.648690 -0.774586
v -0.288117 -0.128663 -0.774586
v 0.961639 0.612601 -0.852943
v 0.961585 -0.128663 -0.774586
v 2.118531 0.085222 -0.774586
v -2.033333 0.648690 -0.774586
v -2.142829 0.049228 -0.774586
v -2.164595 0.437145 -0.793702
v -2.199689 0.197758 -0.774586
v 2.127637 0.161315 -0.751506
v 2.127637 0.320107 -0.751506
v -0.170552 0.964274 -0.813052
v 0.510943 0.958112 -0.788181
v -0.229752 0.994953 0.000000
v 0.641481 0.988344 0.000000
v 0.564037 0.988344 -0.721974
v -0.229752 0.994953 -0.643618
v -0.288117 0.648690 -0.332905
v -0.288117 -0.128663 -0.332905
v -2.033333 0.648690 -0.332905
v -2.142829 0.049228 -0.332905
v -2.149339 0.456876 -0.332905
v -2.199689 0.197758 -0.332905
v 2.228430 0.161315 -0.332905
v 2.227894 0.236668 -0.335132
v -0.184707 1.072574 -0.263998
v 1.126296 0.612601 -0.332905
v 0.961585 -0.128663 -0.332905
v 2.224881 0.085222 -0.332905
v 0.628716 0.988344 -0.276616
v -0.229752 0.994953 -0.276616
v 1.310113 0.085222 -0.332905
v 1.326132 0.085222 0.000000
v 1.216887 0.085222 -0.774586
v 1.581733 0.457213 -1.147313
v 1.313204 0.384896 -1.147313
v 1.165337 0.233347 -1.147313
v 1.161102 0.113683 -1.147387
v 1.962541 0.275061 -1.147313
v 1.834996 0.407861 -1.147313
v 1.518152 0.559769 -0.774586
v 1.570960 0.505828 -0.901325
v 1.565040 0.420438 -1.149019
v 1.818302 0.371085 -1.149019
v 1.343907 0.354939 -1.147397
v 1.196040 0.203389 -1.147397
v 2.000275 0.132722 -0.984019
v 1.932132 0.269491 -1.149456
v 1.565849 0.409791 -0.815606
v 1.786491 0.366794 -0.815606
v 1.373199 0.352728 -0.814193
v 1.244376 0.220698 -0.814193
v 1.983109 0.085222 -0.774586
v 1.885660 0.278286 -0.815987
v 1.968222 0.085222 -0.332905
v -1.233670 0.347412 -1.163156
v -1.533376 0.267153 -1.153613
v -1.712029 0.017402 -1.128628
v -0.725916 -0.097171 -1.097745
v -0.761397 0.024574 -1.128628
v -0.939545 0.249963 -1.153613
v -0.613730 -0.097433 0.000000
v -0.613730 -0.090865 -0.950041
v -0.568156 0.648690 -0.958360
v -0.353758 0.648690 0.000000
v -0.614873 0.456876 -1.022833
v -0.614873 0.197758 -1.064473
v -0.353758 0.648690 -0.889402
v -0.613730 -0.097433 -0.774586
v -0.353758 0.648690 -0.332905
v -0.613730 -0.097433 -0.332905
v -1.838660 0.020054 0.000000
v -1.838660 0.021360 -0.990062
v -1.844102 0.456876 -1.056190
v -1.844102 0.197758 -1.064473
v -1.946726 0.648690 -0.889402
v -1.838660 0.020054 -0.774586
v -1.946726 0.648690 -0.332905
v -1.838660 0.020054 -0.332905
v -1.741879 0.648690 -0.991717
v -1.946726 0.648690 0.000000
v -1.155018 0.648690 -0.975038
v -1.168745 0.328136 0.000000
v -1.226195 -0.038689 0.000000
v -1.226195 -0.034753 -0.827161
v -1.229487 0.456876 -1.039511
v -1.170814 0.648690 -0.889402
v -1.226195 -0.038689 -0.774586
v -0.461210 0.328136 0.000000
v -1.226195 -0.038689 -0.332905
v -1.233670 0.316463 -1.163156
v -1.515603 0.242491 -1.153613
v -0.958607 0.227879 -1.153613
v -0.766547 -0.097171 -1.097745
v -0.801932 0.016329 -1.128628
v -1.715294 -0.023785 -0.784992
v -1.220831 0.283803 -0.899105
v -1.454849 0.222403 -0.891183
v -0.992517 0.210275 -0.891183
v -0.829581 -0.071089 -0.814202
v -0.862470 0.034679 -0.870445
v -0.768687 -0.082570 -0.774586
v -1.715356 0.008227 -0.774586
v -0.353758 0.442052 0.000000
v -0.353758 0.442052 -0.889402
v -1.170814 0.442052 -0.889402
v -1.946726 0.442052 -0.889402
v -1.946726 0.442052 -0.332905
v -1.946726 0.442052 0.000000
v -0.461210 0.328136 -0.345512
v -0.461210 0.328136 -0.818333
v -1.168745 0.328136 -0.818333
v -1.840653 0.328136 -0.818333
v -1.840653 0.328136 -0.345512
v -1.840653 0.328136 0.000000
v 0.317287 1.050186 -0.731928
v 0.427200 1.022309 -0.758578
v 0.378365 1.042021 -0.744998
v 0.533467 1.042945 0.000000
v 0.406134 1.072574 0.000000
v 0.471894 1.063896 0.000000
v 0.405565 1.072574 -0.614259
v 0.530855 1.038125 -0.626266
v 0.470962 1.062484 -0.617776
v 0.405994 1.072574 -0.263998
v 0.532478 1.041028 -0.268724
v 0.471563 1.063334 -0.265383
v 1.866674 0.469362 -0.890507
v 1.926639 0.444856 -0.904881
v 1.894050 0.456941 -0.918782
v 1.900585 0.460168 -0.894119
v 2.186809 0.479249 0.000000
v 2.133843 0.508839 0.000000
v 2.162954 0.498734 0.000000
v 2.003794 0.509340 -0.774586
v 2.062680 0.478606 -0.774586
v 2.036886 0.498693 -0.774586
v 2.110324 0.509362 -0.332905
v 2.168535 0.479249 -0.332905
v 2.144679 0.498727 -0.332905
v -0.197790 0.994953 -0.830918
v -0.256156 0.648690 -0.949493
v 0.526195 0.988344 -0.804304
v 0.873754 0.571728 -0.920876
v -0.219041 0.676637 -0.912129
v 0.803809 0.606872 -0.885931
v -0.170552 0.964274 -0.813052
v 0.510943 0.958112 -0.788181
v -0.219041 0.676637 0.000000
v 0.803809 0.606872 0.000000
v -0.170552 0.964274 0.000000
v 0.510943 0.958112 0.000000
v 1.968222 0.085222 0.000000
v -2.149339 0.231362 0.000000
v -2.164595 0.251198 -0.793702
v -2.112387 0.252319 -0.997859
v 2.245403 0.236668 0.000000
v 2.269022 0.137575 -0.332905
v 2.245403 0.161315 0.000000
v 2.269022 0.260408 -0.332905
v 2.162672 0.348918 -0.774586
v 2.162672 0.137575 -0.774586
v -2.087354 0.456876 -1.016975
v -2.149339 0.456876 -0.774586
v -2.149339 0.231362 -0.774586
v -2.087354 0.232693 -1.016975
v -0.288117 -0.120697 0.939402
v -0.184707 1.050186 0.731928
v 0.961585 -0.120697 0.939402
v -0.219041 0.676637 0.912129
v 0.803809 0.606872 0.885931
v -1.971347 0.648690 0.952502
v -2.080844 0.049228 0.952502
v -0.288117 0.456876 1.013965
v -0.288117 0.197758 1.064473
v 0.961585 0.429691 1.013965
v 0.961585 0.182604 1.064473
v 2.026767 0.348918 0.982153
v 2.026767 0.137575 0.982153
v -2.112387 0.437145 0.997859
v -2.137704 0.197758 1.016975
v -0.184707 1.072574 0.614259
v -0.288117 0.648690 0.774586
v -0.288117 -0.128663 0.774586
v 0.961639 0.612601 0.852943
v 0.961585 -0.128663 0.774586
v 2.118531 0.085222 0.774586
v -2.033333 0.648690 0.774586
v -2.142829 0.049228 0.774586
v -2.164595 0.437145 0.793702
v -2.199689 0.197758 0.774586
v 2.127637 0.161315 0.751506
v 2.127637 0.320107 0.751506
v -0.170552 0.964274 0.813052
v 0.510943 0.958112 0.788181
v 0.564037 0.988344 0.721974
v -0.229752 0.994953 0.643618
v -0.288117 0.648690 0.332905
v -0.288117 -0.128663 0.332905
v -2.033333 0.648690 0.332905
v -2.142829 0.049228 0.332905
v -2.149339 0.456876 0.332905
v -2.199689 0.197758 0.332905
v 2.228430 0.161315 0.332905
v 2.227894 0.236668 0.335132
v -0.184707 1.072574 0.263998
v 1.126296 0.612601 0.332905
v 0.961585 -0.128663 0.332905
v 2.224881 0.085222 0.332905
v 0.628716 0.988344 0.276616
v -0.229752 0.994953 0.276616
v 1.310113 0.085222 0.332905
v 1.216887 0.085222 0.774586
v 1.581733 0.457213 1.147313
v 1.313204 0.384896 1.147313
v 1.165337 0.233347 1.147313
v 1.161102 0.113683 1.147387
v 1.962541 0.275061 1.147313
v 1.834996 0.407861 1.147313
v 1.518152 0.559769 0.774586
v 1.570960 0.505828 0.901325
v 1.565040 0.420438 1.149019
v 1.818302 0.371085 1.149019
v 1.343907 0.354939 1.147397
v 1.196040 0.203389 1.147397
v 2.000275 0.132722 0.984019
v 1.932132 0.269491 1.149456
v 1.565849 0.409791 0.815606
v 1.786491 0.366794 0.815606
v 1.373199 0.352728 0.814193
v 1.244376 0.220698 0.814193
v 1.983109 0.085222 0.774586
v 1.885660 0.278286 0.815987
v 1.968222 0.085222 0.332905
v -1.233670 0.347412 1.163156
v -1.533376 0.267153 1.153613
v -1.712029 0.017402 1.128628
v -0.725916 -0.097171 1.097745
v -0.761397 0.024574 1.128628
v -0.939545 0.249963 1.153613
v -0.613730 -0.090865 0.950041
v -0.568156 0.648690 0.958360
v -0.614873 0.456876 1.022833
v -0.614873 0.197758 1.064473
v -0.353758 0.648690 0.889402
v -0.613730 -0.097433 0.774586
v -0.353758 0.648690 0.332905
v -0.613730 -0.097433 0.332905
v -1.838660 0.021360 0.990062
v -1.844102 0.456876 1.056190
v -1.844102 0.197758 1.064473
v -1.946726 0.648690 0.889402
v -1.838660 0.020054 0.774586
v -1.946726 0.648690 0.332905
v -1.838660 0.020054 0.332905
v -1.741879 0.648690 0.991717
v -1.155018 0.648690 0.975038
v -1.226195 -0.034753 0.827161
v -1.229487 0.456876 1.039511
v -1.170814 0.648690 0.889402
v -1.226195 -0.038689 0.774586
v -1.226195 -0.038689 0.332905
v -1.233670 0.316463 1.163156
v -1.515603 0.242491 1.153613
v -0.958607 0.227879 1.153613
v -0.766547 -0.097171 1.097745
v -0.801932 0.016329 1.128628
v -1.715294 -0.023785 0.784992
v -1.220831 0.283803 0.899105
v -1.454849 0.222403 0.891183
v -0.992517 0.210275 0.891183
v -0.829581 -0.071089 0.814202
v -0.862470 0.034679 0.870445
v -0.768687 -0.082570 0.774586
v -1.715356 0.008227 0.774586
v -0.353758 0.442052 0.889402
v -1.170814 0.442052 0.889402
v -1.946726 0.442052 0.889402
v -1.946726 0.442052 0.332905
v -0.461210 0.328136 0.345512
v -0.461210 0.328136 0.818333
v -1.168745 0.328136 0.818333
v -1.840653 0.328136 0.818333
v -1.840653 0.328136 0.345512
v 0.317287 1.050186 0.731928
v 0.427200 1.022309 0.758578
v 0.378365 1.042021 0.744998
v 0.405565 1.072574 0.614259
v 0.530855 1.038125 0.626266
v 0.470962 1.062484 0.617776
v 0.405994 1.072574 0.263998
v 0.532478 1.041028 0.268724
v 0.471563 1.063334 0.265383
v 1.866674 0.469362 0.890507
v 1.926639 0.444856 0.904881
v 1.894050 0.456941 0.918782
v 1.900585 0.460168 0.894119
v 2.003794 0.509340 0.774586
v 2.062680 0.478606 0.774586
v 2.036886 0.498693 0.774586
v 2.110324 0.509362 0.332905
v 2.168535 0.479249 0.332905
v 2.144679 0.498727 0.332905
v -0.197790 0.994953 0.830918
v -0.256156 0.648690 0.949493
v 0.526195 0.988344 0.804304
v 0.873754 0.571728 0.920876
v -0.219041 0.676637 0.912129
v 0.803809 0.606872 0.885931
v -0.170552 0.964274 0.813052
v 0.510943 0.958112 0.788181
v -2.164595 0.251198 0.793702
v -2.112387 0.252319 0.997859
v 2.269022 0.137575 0.332905
v 2.269022 0.260408 0.332905
v 2.162672 0.348918 0.774586
v 2.162672 0.137575 0.774586
v -2.087354 0.456876 1.016975
v -2.149339 0.456876 0.774586
v -2.149339 0.231362 0.774586
v -2.087354 0.232693 1.016975
vn 0.0297 0.4307 -0.9020
vn -0.1637 -0.4141 -0.8954
vn -0.0000 -1.0000 -0.0000
vn -0.0000 1.0000 -0.0000
vn -0.0955 -0.9954 -0.0000
vn -0.5551 0.8318 -0.0000
vn -0.9339 -0.3575 -0.0000
vn 0.7638 -0.6440 -0.0419
vn 0.9987 0.0028 -0.0515
vn -0.1507 0.3909 -0.9080
vn -0.1743 0.0169 -0.9846
vn -0.0023 -0.3732 -0.9277
vn 0.0033 0.1957 -0.9807
vn 0.8366 -0.0000 -0.5478
vn -0.9688 -0.0000 -0.2478
vn -0.8124 0.5316 -0.2396
vn 0.0264 0.3093 -0.9506
vn -0.1052 -0.9943 -0.0199
vn -0.8816 -0.3939 -0.2600
vn 0.1190 0.8840 -0.4520
vn -0.0000 -0.9988 -0.0483
vn -0.9600 0.2229 -0.1694
vn -0.8581 0.4976 -0.1265
vn 0.4908 0.6447 -0.5861
vn -0.9861 0.1662 -0.0000
vn 0.9722 -0.0000 -0.2341
vn 0.7519 -0.6340 -0.1810
vn -0.4585 -0.3388 -0.8216
vn -0.4010 0.1297 -0.9068
vn 0.9320 -0.0000 -0.3624
vn -0.2946 0.3430 -0.8919
vn 0.0030 0.8962 -0.4437
vn 0.6836 -0.5764 -0.4476
vn 0.5144 -0.8575 -0.0124
vn 0.5770 -0.8145 -0.0609
vn 0.0083 0.0426 -0.9991
vn -0.0014 0.0014 -1.0000
vn 0.6688 -0.7338 -0.1191
vn 0.1792 -0.7207 -0.6697
vn -0.0103 0.0247 -0.9996
vn 0.0415 0.0446 -0.9981
vn -0.0021 0.0007 -1.0000
vn 0.7141 -0.6968 -0.0674
vn -0.6643 -0.7439 -0.0729
vn -0.8486 -0.5113 -0.1359
vn -0.1912 -0.9811 -0.0309
vn 0.2837 -0.9584 -0.0313
vn 0.9468 -0.2878 -0.1442
vn 0.0318 -0.9707 -0.2381
vn 0.0043 -0.1529 -0.9882
vn -0.0926 -0.9948 -0.0425
vn 0.0134 0.1750 -0.9845
vn 0.0264 0.3136 -0.9492
vn -0.0016 -0.3670 -0.9302
vn -0.0000 -0.0000 1.0000
vn -0.0365 -0.9128 0.4069
vn 0.2826 0.1366 -0.9495
vn -0.1116 -0.9924 -0.0517
vn 0.0847 0.5695 -0.8176
vn -0.0431 0.5647 -0.8241
vn -0.2896 0.0703 -0.9546
vn 0.6959 -0.1837 -0.6942
vn 0.0300 -0.0108 -0.9995
vn -0.0302 -0.0097 -0.9995
vn 0.0251 -0.2468 -0.9687
vn 0.0417 -0.0819 -0.9958
vn -0.0694 -0.0500 -0.9963
vn -0.7101 -0.2921 -0.6406
vn -0.7874 -0.5999 -0.1420
vn 0.2475 -0.9600 -0.1308
vn 0.6918 -0.7089 -0.1373
vn -0.9167 -0.3569 -0.1798
vn -0.3017 -0.9479 -0.1026
vn -0.0351 -0.9963 0.0788
vn -0.0914 -0.9902 -0.1052
vn -0.3226 -0.9379 0.1274
vn -0.1608 -0.9798 -0.1190
vn -0.0481 -0.2732 -0.9608
vn -0.0000 0.5293 0.8484
vn 0.7319 0.6815 -0.0000
vn -0.8557 0.5175 -0.0000
vn 1.0000 -0.0000 -0.0000
vn -1.0000 -0.0000 -0.0000
vn 0.2915 0.8921 -0.3452
vn 0.1066 0.9631 -0.2472
vn 0.3598 0.9330 -0.0061
vn 0.1460 0.9893 -0.0014
vn 0.3329 0.9430 -0.0052
vn 0.1352 0.9908 -0.0012
vn -0.0000 0.9824 -0.1869
vn 0.2983 0.9172 -0.2643
vn 0.0178 0.8340 -0.5515
vn 0.4645 0.8854 -0.0148
vn 0.5940 0.8028 -0.0520
vn 0.2383 0.9528 -0.1878
vn 0.4222 0.8777 -0.2267
vn 0.3619 0.7128 -0.6008
vn 0.2155 0.8235 -0.5248
vn 0.6162 0.7733 -0.1496
vn 0.3001 0.9511 -0.0729
vn 0.6321 0.7741 -0.0347
vn 0.3106 0.9504 -0.0188
vn 0.1071 0.9141 -0.3910
vn 0.5611 0.7238 -0.4016
vn 0.1560 0.9631 -0.2193
vn 0.5501 0.6622 -0.5089
vn 0.1047 0.9945 -0.0070
vn 0.9076 0.4168 -0.0498
vn 0.8561 0.4925 -0.1567
vn 0.1024 0.9944 -0.0275
vn -0.8649 0.5019 -0.0000
vn 0.6477 0.1475 -0.7475
vn -0.5126 -0.1940 -0.8364
vn 0.0685 0.7669 -0.6381
vn 0.0277 -0.4829 -0.8752
vn 0.0680 0.9977 -0.0000
vn 0.9861 -0.1662 -0.0000
vn -0.0090 -1.0000 -0.0000
vn -0.7680 -0.6404 -0.0000
vn -0.5571 0.8185 -0.1402
vn -0.1556 0.2243 -0.9620
vn 0.4987 0.8664 -0.0264
vn 0.4968 -0.8675 -0.0266
vn 0.5501 -0.0000 0.8351
vn 0.5012 0.8569 -0.1207
vn 0.4909 -0.8239 -0.2833
vn -0.6888 0.7032 -0.1761
vn -0.7816 -0.0000 0.6238
vn -0.6069 -0.0000 -0.7948
vn -0.6883 -0.7027 -0.1799
vn 0.9688 -0.0000 0.2478
vn -0.7274 0.6862 -0.0000
vn 0.0297 0.4307 0.9020
vn -0.1637 -0.4141 0.8954
vn 0.7638 -0.6440 0.0419
vn 0.9987 0.0028 0.0515
vn -0.1507 0.3909 0.9080
vn -0.1743 0.0169 0.9846
vn -0.0023 -0.3732 0.9277
vn 0.0033 0.1957 0.9807
vn 0.8366 -0.0000 0.5478
vn -0.9688 -0.0000 0.2478
vn -0.8124 0.5316 0.2396
vn 0.0264 0.3093 0.9506
vn -0.1052 -0.9943 0.0199
vn -0.8816 -0.3939 0.2600
vn 0.1190 0.8840 0.4520
vn -0.0000 -0.9988 0.0483
vn -0.9600 0.2229 0.1694
vn -0.8581 0.4976 0.1265
vn 0.4908 0.6447 0.5861
vn 0.9722 -0.0000 0.2341
vn 0.7519 -0.6340 0.1810
vn -0.4585 -0.3388 0.8216
vn -0.4010 0.1297 0.9068
vn 0.9320 -0.0000 0.3624
vn -0.2946 0.3430 0.8919
vn 0.0030 0.8962 0.4437
vn 0.6836 -0.5764 0.4476
vn 0.5144 -0.8575 0.0124
vn 0.5770 -0.8145 0.0609
vn 0.0083 0.0426 0.9991
vn -0.0014 0.0014 1.0000
vn 0.6688 -0.7338 0.1191
vn 0.1792 -0.7207 0.6697
vn -0.0103 0.0247 0.9996
vn 0.0415 0.0446 0.9981
vn -0.0021 0.0007 1.0000
vn 0.7141 -0.6968 0.0674
vn -0.6643 -0.7439 0.0729
vn -0.8486 -0.5113 0.1359
vn -0.1912 -0.9811 0.0309
vn 0.2837 -0.9584 0.0313
vn 0.9468 -0.2878 0.1442
vn 0.0318 -0.9707 0.2381
vn 0.0043 -0.1529 0.9882
vn -0.0926 -0.9948 0.0425
vn 0.0134 0.1750 0.9845
vn 0.0264 0.3136 0.9492
vn -0.0016 -0.3670 0.9302
vn -0.0000 -0.0000 -1.0000
vn -0.0365 -0.9128 -0.4069
vn 0.2826 0.1366 0.9495
vn -0.1116 -0.9924 0.0517
vn 0.0847 0.5695 0.8176
vn -0.0431 0.5647 0.8241
vn -0.2896 0.0703 0.9546
vn 0.6959 -0.1837 0.6942
vn 0.0300 -0.0108 0.9995
vn -0.0302 -0.0097 0.9995
vn 0.0251 -0.2468 0.9687
vn 0.0417 -0.0819 0.9958
vn -0.0694 -0.0500 0.9963
vn -0.7101 -0.2921 0.6406
vn -0.7874 -0.5999 0.1420
vn 0.2475 -0.9600 0.1308
vn 0.6918 -0.7089 0.1373
vn -0.9167 -0.3569 0.1798
vn -0.3017 -0.9479 0.1026
vn -0.0351 -0.9963 -0.0788
vn -0.0914 -0.9902 0.1052
vn -0.3226 -0.9379 -0.1274
vn -0.1608 -0.9798 0.1190
vn -0.0481 -0.2732 0.9608
vn -0.0000 0.5293 -0.8484
vn 0.2915 0.8921 0.3452
vn 0.1066 0.9631 0.2472
vn 0.3598 0.9330 0.0061
vn 0.1460 0.9893 0.0014
vn 0.3329 0.9430 0.0052
vn 0.1352 0.9908 0.0012
vn -0.0000 0.9824 0.1869
vn 0.2983 0.9172 0.2643
vn 0.0178 0.8340 0.5515
vn 0.4645 0.8854 0.0148
vn 0.5940 0.8028 0.0520
vn 0.2383 0.9528 0.1878
vn 0.4222 0.8777 0.2267
vn 0.3619 0.7128 0.6008
vn 0.2155 0.8235 0.5248
vn 0.6162 0.7733 0.1496
vn 0.3001 0.9511 0.0729
vn 0.6321 0.7741 0.0347
vn 0.3106 0.9504 0.0188
vn 0.1071 0.9141 0.3910
vn 0.5611 0.7238 0.4016
vn 0.1560 0.9631 0.2193
vn 0.5501 0.6622 0.5089
vn 0.1047 0.9945 0.0070
vn 0.9076 0.4168 0.0498
vn 0.8561 0.4925 0.1567
vn 0.1024 0.9944 0.0275
vn 0.6477 0.1475 0.7475
vn -0.5126 -0.1940 0.8364
vn 0.0685 0.7669 0.6381
vn 0.0277 -0.4829 0.8752
vn -0.5571 0.8185 0.1402
vn -0.1556 0.2243 0.9620
vn 0.4987 0.8664 0.0264
vn 0.4968 -0.8675 0.0266
vn 0.5501 -0.0000 -0.8351
vn 0.5012 0.8569 0.1207
vn 0.4909 -0.8239 0.2833
vn -0.6888 0.7032 0.1761
vn -0.7816 -0.0000 -0.6238
vn -0.6069 -0.0000 0.7948
vn -0.6883 -0.7027 0.1799
vn 0.9688 -0.0000 -0.2478
vt 0.469156 0.250000
vt 0.500000 0.250000
vt 0.500000 0.500000
vt 0.469156 0.500000
vt 0.427489 0.250000
vt 0.375000 0.250000
vt 0.375000 0.250000
vt 0.427489 0.250000
vt 0.375000 0.500000
vt 0.500000 0.250000
vt 0.432893 0.250000
vt 0.432893 0.250000
vt 0.427489 0.500000
vt 0.427489 0.500000
vt 0.435542 0.500000
vt 0.461026 0.500000
vt 0.461103 0.500000
vt 0.469156 0.250000
vt 0.433107 0.250000
vt 0.427489 0.500000
vt 0.469156 0.500000
vt 0.465983 0.250000
vt 0.436263 0.250000
vt 0.436082 0.250000
vt 0.465983 0.250000
vt 0.500000 0.500000
vt 0.375000 0.500000
vt 0.602110 0.250000
vt 0.602110 0.250000
vt 0.625000 0.250000
vt 0.602110 0.500000
vt 0.602110 0.500000
vt 0.500000 0.250000
vt 0.432443 0.500000
vt 0.464173 0.500000
vt 0.000000 0.000000
vt 0.427489 0.250000
vt 0.375000 0.250000
vt 0.615638 0.500000
vt 0.614682 0.500000
vt 0.623989 0.497272
vt 0.625000 0.500000
vt 0.625000 0.469507
vt 0.625000 0.473737
vt 0.616427 0.500000
vt 0.625000 0.500000
vt 0.625000 0.473899
vt 0.616948 0.500000
vt 0.625000 0.473952
vt 0.500000 0.500000
vt 0.442477 0.442477
vt 0.442477 0.442477
vt 0.494724 0.500000
vt 0.494759 0.500000
vt 0.494727 0.500000
vt 0.494851 0.500000
vt 0.494851 0.500000
vt 0.469156 0.500000
vt 0.593363 0.259844
vt 0.508739 0.257948
vt 0.507964 0.490197
vt 0.594251 0.488367
s 0
g body.001_Material
usemtl Material
f 16/1/1 170/2/1 172/3/1 18/4/1
f 103/5/2 101/6/2 13/7/2 25/8/2
f 106/2/4 104/2/4 34/2/4 48/2/4 14/2/4 109/2/4
f 107/7/5 100/7/5 15/7/5 49/7/5
f 104/2/4 108/10/4 12/2/4 34/2/4
f 51/8/6 27/8/6 182/11/6 193/12/6 37/8/6
f 49/7/7 15/7/7 27/8/7 51/8/7 37/8/7 35/7/7
f 57/9/8 186/13/8 23/14/8 11/9/8
f 108/10/10 102/18/10 191/18/10 12/2/10
f 102/18/11 103/5/11 194/19/11 191/18/11
f 1/7/12 17/8/12 19/20/12 3/9/12
f 17/8/13 16/1/13 18/4/13 19/20/13
f 21/14/14 20/21/14 189/21/14 190/14/14
f 12/2/16 191/18/16 192/18/16 34/2/16
f 114/1/17 102/18/17 108/10/17 110/2/17 92/2/17 94/1/17
f 101/6/18 105/7/18 35/7/18 13/7/18
f 25/8/19 13/7/19 35/7/19 37/8/19
f 172/3/20 31/26/20 69/26/20 70/3/20
f 1/7/21 3/9/21 32/9/21 30/7/21
f 169/28/22 170/2/22 29/2/22 45/29/22
f 2/30/23 169/28/23 45/29/23 28/30/23
f 172/3/24 171/31/24 44/32/24 31/26/24
f 33/9/27 190/14/27 186/13/27 57/9/27
f 105/7/5 107/7/5 49/7/5 35/7/5
f 19/36/28 66/36/28 3/36/28
f 65/36/29 66/36/29 19/36/29 18/36/29
f 67/36/30 20/21/30 21/14/30
f 64/36/31 65/36/31 18/36/31 172/36/31
f 63/36/32 64/36/32 172/3/32 70/3/32
f 190/36/33 33/36/33 21/36/33
f 63/36/36 68/36/36 72/36/36 71/36/36
f 65/36/37 64/36/37 73/36/37 74/36/37
f 3/36/38 66/36/38 62/27/38 32/9/38
f 67/36/39 21/14/39 75/14/39 76/36/39
f 73/36/40 64/36/40 63/36/40 71/36/40
f 67/36/41 76/36/41 72/36/41 68/36/41
f 65/36/42 74/36/42 66/36/42
f 74/36/43 73/36/43 79/36/43 80/36/43
f 72/36/44 76/36/44 82/36/44 78/36/44
f 76/36/45 75/14/45 81/14/45 82/36/45
f 71/36/46 72/36/46 78/36/46 77/36/46
f 73/36/47 71/36/47 77/36/47 79/36/47
f 74/36/48 80/36/48 62/27/48 66/36/48
f 81/14/49 75/14/49 21/14/49 33/36/49
f 83/9/3 81/9/3 33/9/3 57/9/3
f 9/2/4 46/33/4 98/33/4 93/2/4
f 1/7/51 30/7/51 97/7/51 91/7/51
f 46/33/4 29/2/4 96/2/4 98/33/4
f 16/1/52 17/8/52 95/37/52 94/1/52
f 170/2/53 16/1/53 94/1/53 92/2/53
f 29/2/4 170/2/4 92/2/4 96/2/4
f 17/8/54 1/7/54 91/7/54 95/37/54
f 115/2/55 104/2/55 135/2/55 134/2/55
f 115/2/4 110/2/4 108/10/4 104/2/4
f 95/37/57 88/36/57 89/36/57 94/1/57
f 96/2/4 92/2/4 110/2/4 115/2/4
f 96/2/55 115/2/55 134/2/55 133/2/55
f 91/7/58 97/7/58 130/38/58 128/7/58
f 94/1/59 89/36/59 84/36/59 114/1/59
f 114/1/60 84/36/60 85/36/60 102/18/60
f 102/18/61 85/36/61 86/36/61 103/5/61
f 91/7/62 87/36/62 88/36/62 95/37/62
f 84/36/63 89/36/63 121/36/63 119/36/63
f 85/36/64 84/36/64 119/36/64 120/36/64
f 88/36/65 87/36/65 122/36/65 123/36/65
f 88/36/66 123/36/66 121/36/66 89/36/66
f 85/36/67 120/36/67 86/36/67
f 103/5/68 86/36/68 101/6/68
f 121/36/69 123/36/69 129/36/69 127/36/69
f 120/36/70 119/36/70 125/36/70 126/36/70
f 86/36/71 120/36/71 126/36/71 124/36/71
f 123/36/72 122/36/72 128/36/72 129/36/72
f 119/36/73 121/36/73 127/36/73 125/36/73
f 91/7/74 128/36/74 122/36/74 87/36/74
f 124/7/76 131/7/76 105/7/76 101/6/76
f 101/6/77 86/36/77 124/7/77
f 50/18/81 26/18/81 14/2/81 48/2/81 34/2/81 192/18/81
f 104/2/82 106/2/82 136/2/82 135/2/82
f 106/2/82 109/2/82 137/2/82 136/2/82
f 93/2/83 98/33/83 96/2/83 133/2/83 132/2/83
f 151/39/84 145/40/84 146/41/84 152/42/84
f 152/42/85 146/41/85 144/43/85 150/44/85
f 154/45/86 151/39/86 152/42/86 155/46/86
f 155/46/87 152/42/87 150/44/87 153/47/87
f 147/48/88 154/45/88 155/46/88 149/46/88
f 149/46/89 155/46/89 153/47/89 148/49/89
f 144/43/90 2/30/90 28/30/90 150/44/90
f 171/31/91 145/40/91 151/39/91 44/32/91
f 169/28/92 2/30/92 144/43/92 146/41/92 145/40/92 171/31/92
f 153/47/4 54/30/4 7/30/4 148/49/4
f 58/31/93 154/45/93 147/48/93 43/31/93
f 44/32/94 151/39/94 154/45/94 58/31/94
f 150/44/4 28/30/4 54/30/4 153/47/4
f 156/3/95 159/50/95 158/51/95
f 159/50/96 157/3/96 158/52/96
f 164/53/97 157/54/97 159/3/97 165/3/97
f 165/3/98 159/3/98 156/3/98 163/3/98
f 167/55/99 164/53/99 165/3/99 168/26/99
f 168/26/100 165/3/100 163/3/100 166/26/100
f 160/56/101 167/57/101 168/26/101 162/3/101
f 162/3/102 168/26/102 166/26/102 161/3/102
f 70/3/103 69/26/103 163/3/103 156/3/103
f 67/36/104 68/36/104 158/51/104 157/54/104 20/21/104
f 68/36/105 63/36/105 70/3/105 156/3/105 158/51/105
f 20/21/106 157/54/106 164/53/106 189/21/106
f 55/3/107 10/3/107 161/3/107 166/26/107
f 188/21/108 167/57/108 160/56/108 22/58/108
f 189/21/109 164/53/109 167/55/109 188/21/109
f 31/26/110 55/3/110 166/26/110 163/3/110 69/26/110
f 59/29/111 42/29/111 7/30/111 54/30/111 28/30/111 45/29/111
f 40/59/112 4/60/112 170/2/112 169/28/112
f 5/61/113 41/62/113 171/31/113 172/3/113
f 4/60/114 5/61/114 172/3/114 170/2/114
f 41/62/115 40/59/115 169/28/115 171/31/115
f 174/36/116 173/36/116 177/36/116 178/36/116
f 173/36/117 175/36/117 179/36/117 177/36/117
f 176/36/118 180/36/118 179/36/118 175/36/118
f 174/36/119 178/36/119 180/36/119 176/36/119
f 181/9/3 83/9/3 57/9/3 11/9/3
f 193/12/120 194/19/120 25/8/120 37/8/120
f 193/12/83 182/11/83 26/18/83 50/18/83 192/18/83
f 194/19/121 103/5/121 25/8/121
f 52/15/122 187/15/122 23/14/122 186/13/122
f 185/17/123 53/16/123 188/21/123 22/58/123
f 39/35/124 38/34/124 190/14/124 189/21/124
f 38/34/125 52/15/125 186/13/125 190/14/125
f 53/16/126 39/35/126 189/21/126 188/21/126
f 24/22/127 36/25/127 192/18/127 191/18/127
f 36/25/128 183/24/128 193/12/128 192/18/128
f 184/23/129 24/22/129 191/18/129 194/19/129
f 183/24/130 184/23/130 194/19/130 193/12/130
f 194/36/131 191/36/131 192/36/131 193/36/131
f 202/1/133 204/4/133 335/3/133 333/2/133
f 279/5/134 209/8/134 201/7/134 277/6/134
f 282/2/4 109/2/4 14/2/4 228/2/4 216/2/4 280/2/4
f 283/7/5 229/7/5 15/7/5 100/7/5
f 280/2/4 216/2/4 200/2/4 284/10/4
f 231/8/6 219/8/6 348/12/6 182/11/6 27/8/6
f 229/7/7 217/7/7 219/8/7 231/8/7 27/8/7 15/7/7
f 237/9/135 11/9/135 23/14/135 342/13/135
f 284/10/137 200/2/137 346/18/137 278/18/137
f 278/18/138 346/18/138 349/19/138 279/5/138
f 195/7/139 197/9/139 205/20/139 203/8/139
f 203/8/140 205/20/140 204/4/140 202/1/140
f 207/14/141 345/14/141 344/21/141 206/21/141
f 200/2/143 216/2/143 347/18/143 346/18/143
f 287/1/144 271/1/144 270/2/144 285/2/144 284/10/144 278/18/144
f 277/6/145 201/7/145 217/7/145 281/7/145
f 209/8/146 219/8/146 217/7/146 201/7/146
f 335/3/147 249/3/147 248/26/147 213/26/147
f 195/7/148 212/7/148 214/9/148 197/9/148
f 332/28/149 225/29/149 211/2/149 333/2/149
f 196/30/150 210/30/150 225/29/150 332/28/150
f 335/3/151 213/26/151 224/32/151 334/31/151
f 215/9/153 237/9/153 342/13/153 345/14/153
f 281/7/5 217/7/5 229/7/5 283/7/5
f 205/36/154 197/36/154 245/36/154
f 244/36/155 204/36/155 205/36/155 245/36/155
f 246/36/156 207/14/156 206/21/156
f 243/36/157 335/36/157 204/36/157 244/36/157
f 242/36/158 249/3/158 335/3/158 243/36/158
f 345/36/159 207/36/159 215/36/159
f 242/36/162 250/36/162 251/36/162 247/36/162
f 244/36/163 253/36/163 252/36/163 243/36/163
f 197/36/164 214/9/164 241/27/164 245/36/164
f 246/36/165 255/36/165 254/14/165 207/14/165
f 252/36/166 250/36/166 242/36/166 243/36/166
f 246/36/167 247/36/167 251/36/167 255/36/167
f 244/36/168 245/36/168 253/36/168
f 253/36/169 259/36/169 258/36/169 252/36/169
f 251/36/170 257/36/170 261/36/170 255/36/170
f 255/36/171 261/36/171 260/14/171 254/14/171
f 250/36/172 256/36/172 257/36/172 251/36/172
f 252/36/173 258/36/173 256/36/173 250/36/173
f 253/36/174 245/36/174 241/27/174 259/36/174
f 260/14/175 215/36/175 207/14/175 254/14/175
f 262/9/3 237/9/3 215/9/3 260/9/3
f 9/2/4 93/2/4 275/33/4 226/33/4
f 195/7/177 269/7/177 274/7/177 212/7/177
f 226/33/4 275/33/4 273/2/4 211/2/4
f 202/1/178 271/1/178 272/37/178 203/8/178
f 333/2/179 270/2/179 271/1/179 202/1/179
f 211/2/4 273/2/4 270/2/4 333/2/4
f 203/8/180 272/37/180 269/7/180 195/7/180
f 288/2/181 305/2/181 306/2/181 280/2/181
f 288/2/4 280/2/4 284/10/4 285/2/4
f 272/37/183 271/1/183 268/36/183 267/36/183
f 273/2/4 288/2/4 285/2/4 270/2/4
f 273/2/181 304/2/181 305/2/181 288/2/181
f 269/7/184 300/7/184 302/38/184 274/7/184
f 271/1/185 287/1/185 263/36/185 268/36/185
f 287/1/186 278/18/186 264/36/186 263/36/186
f 278/18/187 279/5/187 265/36/187 264/36/187
f 269/7/188 272/37/188 267/36/188 266/36/188
f 263/36/189 291/36/189 293/36/189 268/36/189
f 264/36/190 292/36/190 291/36/190 263/36/190
f 267/36/191 295/36/191 294/36/191 266/36/191
f 267/36/192 268/36/192 293/36/192 295/36/192
f 264/36/193 265/36/193 292/36/193
f 279/5/194 277/6/194 265/36/194
f 293/36/195 299/36/195 301/36/195 295/36/195
f 292/36/196 298/36/196 297/36/196 291/36/196
f 265/36/197 296/36/197 298/36/197 292/36/197
f 295/36/198 301/36/198 300/36/198 294/36/198
f 291/36/199 297/36/199 299/36/199 293/36/199
f 269/7/200 266/36/200 294/36/200 300/36/200
f 296/7/202 277/6/202 281/7/202 303/7/202
f 277/6/203 296/7/203 265/36/203
f 230/18/81 347/18/81 216/2/81 228/2/81 14/2/81 26/18/81
f 280/2/82 306/2/82 307/2/82 282/2/82
f 282/2/82 307/2/82 137/2/82 109/2/82
f 93/2/83 132/2/83 304/2/83 273/2/83 275/33/83
f 317/39/206 318/42/206 315/41/206 314/40/206
f 318/42/207 316/44/207 313/43/207 315/41/207
f 320/45/208 321/46/208 318/42/208 317/39/208
f 321/46/209 319/47/209 316/44/209 318/42/209
f 147/48/210 149/46/210 321/46/210 320/45/210
f 149/46/211 148/49/211 319/47/211 321/46/211
f 313/43/212 316/44/212 210/30/212 196/30/212
f 334/31/213 224/32/213 317/39/213 314/40/213
f 332/28/214 334/31/214 314/40/214 315/41/214 313/43/214 196/30/214
f 319/47/4 148/49/4 7/30/4 234/30/4
f 238/31/215 43/31/215 147/48/215 320/45/215
f 224/32/216 238/31/216 320/45/216 317/39/216
f 316/44/4 319/47/4 234/30/4 210/30/4
f 322/3/217 324/51/217 325/50/217
f 325/50/218 324/52/218 323/3/218
f 327/53/219 328/3/219 325/3/219 323/54/219
f 328/3/220 326/3/220 322/3/220 325/3/220
f 330/55/221 331/26/221 328/3/221 327/53/221
f 331/26/222 329/26/222 326/3/222 328/3/222
f 160/56/223 162/3/223 331/26/223 330/57/223
f 162/3/224 161/3/224 329/26/224 331/26/224
f 249/3/225 322/3/225 326/3/225 248/26/225
f 246/36/226 206/21/226 323/54/226 324/51/226 247/36/226
f 247/36/227 324/51/227 322/3/227 249/3/227 242/36/227
f 206/21/228 344/21/228 327/53/228 323/54/228
f 235/3/229 329/26/229 161/3/229 10/3/229
f 343/21/230 22/58/230 160/56/230 330/57/230
f 344/21/231 343/21/231 330/55/231 327/53/231
f 213/26/232 248/26/232 326/3/232 329/26/232 235/3/232
f 239/29/111 225/29/111 210/30/111 234/30/111 7/30/111 42/29/111
f 222/59/233 332/28/233 333/2/233 198/60/233
f 199/61/234 335/3/234 334/31/234 223/62/234
f 198/60/235 333/2/235 335/3/235 199/61/235
f 223/62/236 334/31/236 332/28/236 222/59/236
f 337/36/116 178/36/116 177/36/116 336/36/116
f 336/36/117 177/36/117 179/36/117 338/36/117
f 339/36/118 338/36/118 179/36/118 180/36/118
f 337/36/119 339/36/119 180/36/119 178/36/119
f 181/9/3 11/9/3 237/9/3 262/9/3
f 348/12/237 219/8/237 209/8/237 349/19/237
f 348/12/83 347/18/83 230/18/83 26/18/83 182/11/83
f 349/19/238 209/8/238 279/5/238
f 232/15/239 342/13/239 23/14/239 187/15/239
f 185/17/240 22/58/240 343/21/240 233/16/240
f 221/35/241 344/21/241 345/14/241 220/34/241
f 220/34/242 345/14/242 342/13/242 232/15/242
f 233/16/243 343/21/243 344/21/243 221/35/243
f 208/22/244 346/18/244 347/18/244 218/25/244
f 218/25/245 347/18/245 348/12/245 340/24/245
f 341/23/246 349/19/246 346/18/246 208/22/246
f 340/24/247 348/12/247 349/19/247 341/23/247
f 349/36/248 348/36/248 347/36/248 346/36/248
g body.001_windows
usemtl windows
f 46/33/25 9/2/25 42/29/25 59/29/25 45/29/25 29/2/25
f 226/33/25 211/2/25 225/29/25 239/29/25 42/29/25 9/2/25
g body.001_black
usemtl black
f 47/7/3 56/9/3 8/9/3 6/7/3
f 52/15/9 53/16/9 185/17/9 187/15/9
f 60/9/3 62/27/3 81/9/3 83/9/3
f 61/9/3 60/9/3 83/9/3 181/9/3
f 38/34/26 39/35/26 53/16/26 52/15/26
f 30/7/3 32/9/3 56/9/3 47/7/3
f 8/9/34 56/9/34 60/9/34 61/9/34
f 56/9/35 32/9/35 62/27/35 60/9/35
f 78/36/50 82/36/50 81/9/50 62/27/50 80/36/50 79/36/50 77/36/50
f 30/7/5 47/7/5 99/7/5 97/7/5
f 47/7/5 6/7/5 90/7/5 99/7/5
f 116/38/5 118/7/5 107/7/5 105/7/5 131/7/5
f 113/7/56 116/38/56 131/7/56 124/7/56
f 118/7/5 112/7/5 100/7/5 107/7/5
f 99/7/5 90/7/5 112/7/5 118/7/5
f 97/7/5 99/7/5 118/7/5 116/38/5 130/38/5
f 128/7/75 130/38/75 116/38/75 113/7/75
f 128/7/78 113/7/78 124/36/78 126/36/78 125/36/78 127/36/78 129/36/78
f 227/7/3 6/7/3 8/9/3 236/9/3
f 232/15/136 187/15/136 185/17/136 233/16/136
f 240/9/3 262/9/3 260/9/3 241/27/3
f 61/9/3 181/9/3 262/9/3 240/9/3
f 220/34/152 232/15/152 233/16/152 221/35/152
f 212/7/3 227/7/3 236/9/3 214/9/3
f 8/9/160 61/9/160 240/9/160 236/9/160
f 236/9/161 240/9/161 241/27/161 214/9/161
f 257/36/176 256/36/176 258/36/176 259/36/176 241/27/176 260/9/176 261/36/176
f 212/7/5 274/7/5 276/7/5 227/7/5
f 227/7/5 276/7/5 90/7/5 6/7/5
f 289/38/5 303/7/5 281/7/5 283/7/5 290/7/5
f 286/7/182 296/7/182 303/7/182 289/38/182
f 290/7/5 283/7/5 100/7/5 112/7/5
f 276/7/5 290/7/5 112/7/5 90/7/5
f 274/7/5 302/38/5 289/38/5 290/7/5 276/7/5
f 300/7/201 286/7/201 289/38/201 302/38/201
f 300/7/204 301/36/204 299/36/204 297/36/204 298/36/204 296/36/204 286/7/204
g body.001_red_light
usemtl red_light
f 24/22/15 184/23/15 183/24/15 36/25/15
f 208/22/142 218/25/142 340/24/142 341/23/142
g body.001_brown
usemtl brown
f 134/2/79 135/2/79 141/2/79 140/2/79
f 136/2/80 137/2/80 143/2/80 142/2/80
f 133/2/79 134/2/79 140/2/79 139/2/79
f 135/2/80 136/2/80 142/2/80 141/2/80
f 142/2/4 143/2/4 111/2/4 117/2/4 138/33/4 139/2/4 140/2/4 141/2/4
f 132/2/132 133/2/132 139/2/132 138/33/132 117/2/132
f 305/2/205 310/2/205 311/2/205 306/2/205
f 307/2/80 312/2/80 143/2/80 137/2/80
f 304/2/205 309/2/205 310/2/205 305/2/205
f 306/2/80 311/2/80 312/2/80 307/2/80
f 312/2/4 311/2/4 310/2/4 309/2/4 308/33/4 117/2/4 111/2/4 143/2/4
f 132/2/132 117/2/132 308/33/132 309/2/132 304/2/132
g windows_Cube.001
v -0.219041 0.676637 -0.912129
v 0.803809 0.606872 -0.885931
v 1.152532 0.612601 0.000000
v 0.961639 0.612601 -0.852943
v -0.170552 0.964274 -0.813052
v 0.510943 0.958112 -0.788181
v 0.641481 0.988344 0.000000
v 0.564037 0.988344 -0.721974
v 1.126296 0.612601 -0.332905
v 0.628716 0.988344 -0.276616
v -0.219041 0.676637 0.912129
v 0.803809 0.606872 0.885931
v 0.961639 0.612601 0.852943
v -0.170552 0.964274 0.813052
v 0.510943 0.958112 0.788181
v 0.564037 0.988344 0.721974
v 1.126296 0.612601 0.332905
v 0.628716 0.988344 0.276616
vn 0.5957 0.8023 -0.0381
vn 0.0422 0.3089 -0.9502
vn 0.6178 0.7725 -0.1468
vn 0.5957 0.8023 0.0381
vn 0.0422 0.3089 0.9502
vn 0.6178 0.7725 0.1468
vt 0.500000 0.500000
vt 0.602110 0.500000
vt 0.508739 0.257948
vt 0.593363 0.259844
vt 0.594251 0.488367
vt 0.507964 0.490197
vt 0.500000 0.500000
vt 0.602110 0.500000
s 0
g windows_windows
usemtl windows
f 358/63/249 359/64/249 356/64/249 352/63/249
f 350/65/250 354/66/250 355/67/250 351/68/250
f 353/69/251 357/70/251 359/64/251 358/63/251
f 366/63/252 352/63/252 356/64/252 367/64/252
f 360/65/253 361/68/253 364/67/253 363/66/253
f 362/69/254 366/63/254 367/64/254 365/70/254
g bars_Cube.003
v -0.496191 0.018447 -0.780021
v -0.402595 0.018447 -0.780021
v -0.313995 1.118341 -0.592522
v -0.345885 1.151561 -0.592522
v -0.496191 0.741314 -0.780021
v -0.385747 1.151561 -0.592522
v -0.402595 0.741314 -0.780021
v -0.407591 1.063754 -0.656896
v -0.313995 1.063754 -0.592522
v -0.313995 1.063754 -0.656896
v -0.407591 1.063754 0.014004
v -0.407591 1.063754 -0.592522
v -0.313995 1.063754 0.014004
v -0.385747 1.151561 -0.656896
v -0.496191 0.018447 -0.845187
v -0.474347 0.018447 -0.867808
v -0.407591 1.107157 -0.706206
v -0.385747 1.122428 -0.723391
v -0.496191 0.741314 -0.845156
v -0.474347 0.741314 -0.867808
v -0.407591 1.063754 -0.721976
v -0.385747 1.063754 -0.744683
v -0.385747 1.151561 0.014004
v -0.407591 1.128838 0.014004
v -0.345885 1.151561 -0.656896
v -0.313995 1.118336 -0.656896
v -0.434485 0.018447 -0.867808
v -0.402595 0.018447 -0.834784
v -0.313995 1.100134 -0.698303
v -0.345885 1.122428 -0.723391
v -0.434485 0.741314 -0.867808
v -0.402595 0.741314 -0.834739
v -0.345885 1.063754 -0.744683
v -0.313995 1.063754 -0.711534
v -0.313995 1.118387 0.014004
v -0.345885 1.151561 0.014004
v -0.793550 1.020428 -0.656896
v -0.793550 1.020428 -0.592522
v -1.161980 0.767712 -0.656887
v -1.161980 0.767712 -0.592513
v -1.737800 0.237175 -0.656873
v -1.737800 0.237175 -0.592499
v -0.823712 1.053163 -0.656896
v -0.823712 1.053165 -0.592522
v -0.407591 1.128805 -0.609249
v -0.407591 1.114019 -0.592522
v -0.407591 1.128807 -0.575795
v -0.396007 1.140873 -0.592522
v -0.407591 1.114016 -0.656896
v -0.407591 1.128804 -0.640169
v -0.396008 1.140871 -0.656896
v -0.407591 1.122079 -0.672212
v -1.221915 0.832762 -0.640160
v -1.209045 0.818793 -0.656887
v -1.209045 0.818796 -0.592513
v -1.221915 0.832763 -0.609240
v -1.797735 0.302225 -0.640146
v -1.784924 0.288320 -0.656873
v -1.784925 0.288323 -0.592499
v -1.797735 0.302226 -0.609226
v -0.858582 1.054590 -0.656895
v -0.885800 1.055704 -0.640168
v -0.809546 1.085477 -0.640169
v -0.815994 1.070767 -0.656896
v -0.815994 1.070770 -0.592522
v -0.809546 1.042065 -0.609249
v -0.885800 1.055706 -0.609248
v -0.858582 1.054593 -0.592521
v -0.496191 0.018447 0.808029
v -0.402595 0.018447 0.808029
v -0.313995 1.118341 0.620529
v -0.345885 1.151561 0.620529
v -0.496191 0.741314 0.808029
v -0.385747 1.151561 0.620529
v -0.402595 0.741314 0.808029
v -0.407591 1.063754 0.684904
v -0.313995 1.063754 0.620529
v -0.313995 1.063754 0.684904
v -0.407591 1.063754 0.620529
v -0.385747 1.151561 0.684904
v -0.496191 0.018447 0.873195
v -0.474347 0.018447 0.895815
v -0.407591 1.107157 0.734214
v -0.385747 1.122428 0.751399
v -0.496191 0.741314 0.873164
v -0.474347 0.741314 0.895815
v -0.407591 1.063754 0.749984
v -0.385747 1.063754 0.772690
v -0.345885 1.151561 0.684904
v -0.313995 1.118336 0.684904
v -0.434485 0.018447 0.895815
v -0.402595 0.018447 0.862792
v -0.313995 1.100134 0.726310
v -0.345885 1.122428 0.751399
v -0.434485 0.741314 0.895815
v -0.402595 0.741314 0.862746
v -0.345885 1.063754 0.772690
v -0.313995 1.063754 0.739541
v -0.793550 1.020428 0.684904
v -0.793550 1.020428 0.620529
v -1.161980 0.767712 0.684895
v -1.161980 0.767712 0.620520
v -1.737800 0.237175 0.684881
v -1.737800 0.237175 0.620506
v -0.823712 1.053163 0.684904
v -0.823712 1.053165 0.620529
v -0.407591 1.128805 0.637256
v -0.407591 1.114019 0.620529
v -0.407591 1.128807 0.603802
v -0.396007 1.140873 0.620529
v -0.407591 1.114016 0.684904
v -0.407591 1.128804 0.668176
v -0.396008 1.140871 0.684904
v -0.407591 1.122079 0.700220
v -1.221915 0.832762 0.668168
v -1.209045 0.818793 0.684895
v -1.209045 0.818796 0.620520
v -1.221915 0.832763 0.637247
v -1.797735 0.302225 0.668154
v -1.784924 0.288320 0.684881
v -1.784925 0.288323 0.620506
v -1.797735 0.302226 0.637233
v -0.858582 1.054590 0.684903
v -0.885800 1.055704 0.668176
v -0.809546 1.085477 0.668176
v -0.815994 1.070767 0.684904
v -0.815994 1.070770 0.620529
v -0.809546 1.042065 0.637256
v -0.885800 1.055706 0.637255
v -0.858582 1.054593 0.620529
vn -0.0000 -0.0000 1.0000
vn -0.0000 -0.3567 0.9342
vn 1.0000 -0.0000 -0.0000
vn -0.0000 -1.0000 -0.0000
vn -0.7196 -0.0000 -0.6944
vn -0.6536 0.4201 -0.6296
vn -0.6990 0.2440 -0.6721
vn 0.7214 0.6925 -0.0000
vn -1.0000 -0.0000 -0.0000
vn -0.0000 1.0000 -0.0000
vn -0.9643 0.2650 -0.0000
vn 0.7196 -0.0000 -0.6944
vn 0.6907 0.6622 -0.2905
vn 0.7186 0.0669 -0.6922
vn 0.6990 0.2441 -0.6721
vn 0.7212 0.6928 -0.0000
vn -0.0000 0.9159 -0.4013
vn -0.0000 -0.0000 -1.0000
vn -0.0000 0.3411 -0.9400
vn 0.9643 -0.2650 -0.0000
vn -0.0000 0.3567 -0.9342
vn 0.1116 -0.9938 -0.0000
vn 0.6776 -0.7354 -0.0000
vn 0.5656 -0.8246 -0.0000
vn -0.9182 0.3961 -0.0000
vn -0.9151 0.3947 -0.0828
vn -0.4484 0.4867 -0.7497
vn -0.4484 0.4867 0.7497
vn -0.3003 0.7766 -0.5538
vn -0.0166 0.7764 -0.6301
vn -0.3849 0.5762 0.7210
vn -0.3850 0.5761 -0.7210
vn -0.1449 0.9033 -0.4038
vn -0.0807 0.7553 -0.6504
vn -0.7214 0.6925 -0.0000
vn -0.1313 0.8114 0.5696
vn -0.7212 0.6928 -0.0000
vn -0.6907 0.6622 -0.2904
vn -0.5528 0.8333 -0.0000
vn -0.6776 0.7354 -0.0000
vn -0.7354 -0.6776 -0.0000
vn -0.0862 0.8154 0.5724
vn -0.0000 -0.3567 -0.9342
vn -0.7196 -0.0000 0.6944
vn -0.6536 0.4201 0.6296
vn -0.6990 0.2440 0.6721
vn 0.7196 -0.0000 0.6944
vn 0.6907 0.6622 0.2905
vn 0.7186 0.0669 0.6922
vn 0.6990 0.2441 0.6721
vn -0.0000 0.9159 0.4013
vn -0.0000 0.3411 0.9400
vn -0.0000 0.3567 0.9342
vn -0.9151 0.3947 0.0828
vn -0.3003 0.7766 0.5538
vn -0.0166 0.7764 0.6301
vn -0.3849 0.5762 -0.7210
vn -0.3850 0.5761 0.7210
vn -0.1449 0.9033 0.4038
vn -0.0807 0.7553 0.6504
vn -0.1313 0.8114 -0.5696
vn -0.6907 0.6622 0.2904
vn -0.0862 0.8154 -0.5724
vt 0.375000 0.750000
vt 0.528602 0.750000
vt 0.528602 1.000000
vt 0.375000 1.000000
vt 0.606342 0.750000
vt 0.606342 1.000000
vt 0.617940 0.750000
vt 0.617941 0.750000
vt 0.528602 0.308346
vt 0.375000 0.308346
vt 0.375000 0.185582
vt 0.528602 0.185493
vt 0.606342 0.308346
vt 0.606342 0.185337
vt 0.625000 0.288898
vt 0.618635 0.170502
vt 0.710180 0.750000
vt 0.707455 0.752724
vt 0.375000 0.000000
vt 0.528602 0.000000
vt 0.816654 0.750000
vt 0.606342 0.000000
vt 0.528602 0.594174
vt 0.375000 0.594045
vt 0.346607 0.443213
vt 0.528602 0.414820
vt 0.667590 0.453088
vt 0.616147 0.611755
vt 0.606342 0.594401
vt 0.606342 0.414820
vt 0.681787 0.778393
vt 0.617951 0.750000
vt 0.816654 0.500000
vt 0.125000 0.564418
vt 0.183346 0.500000
vt 0.125000 0.750000
vt 0.625000 0.941654
vt 0.620172 1.000000
vt 0.620165 0.000000
vt 0.617808 0.000000
vt 0.620165 0.000000
vt 0.622729 0.000000
vt 0.617022 0.000000
vt 0.620164 0.000000
vt 0.622728 0.000000
vt 0.619689 0.052960
vt 0.617196 0.000000
vt 0.617210 0.000000
vt 0.617210 0.000000
vt 0.617197 0.000000
vt 0.620164 0.000000
vt 0.617038 0.000000
vt 0.617154 0.000000
vt 0.617155 0.000000
vt 0.617039 0.000000
vt 0.625000 0.000000
vt 0.620172 0.000000
vt 0.613298 0.000000
vt 0.613298 0.000000
s 0
g bars_metal
usemtl metal
f 369/71/255 374/72/255 372/73/255 368/74/255
f 374/72/256 377/75/256 375/76/256 372/73/256
f 377/75/257 393/77/257 370/78/257 376/75/257
f 379/76/258 376/75/258 380/75/258 378/76/258
f 387/79/259 383/80/259 382/81/259 386/82/259
f 389/83/260 387/79/260 386/82/260 388/84/260
f 385/85/261 389/83/261 388/84/261 384/86/261
f 392/87/262 371/88/262 370/78/262 393/77/262
f 368/89/263 372/90/263 386/82/263 382/81/263
f 392/87/264 381/91/264 373/91/264 371/88/264
f 372/90/265 375/92/265 388/84/265 386/82/265
f 375/76/258 377/75/258 376/75/258 379/76/258
f 399/93/266 395/94/266 394/95/266 398/96/266
f 397/97/267 392/87/267 393/77/267 396/98/267
f 401/99/268 399/93/268 398/96/268 400/100/268
f 396/98/269 401/99/269 400/100/269 397/97/269
f 371/88/270 403/101/270 402/102/270 370/78/270
f 397/97/271 385/103/271 381/91/271 392/87/271
f 401/99/257 396/98/257 393/77/257 377/75/257
f 376/75/257 370/78/257 402/102/257 380/75/257
f 371/88/264 373/91/264 390/91/264 403/101/264
f 383/80/272 387/79/272 398/96/272 394/95/272
f 395/94/257 399/93/257 374/72/257 369/71/257
f 382/104/258 383/105/258 394/95/258 395/94/258 369/71/258 368/106/258
f 389/83/273 385/85/273 397/97/273 400/100/273
f 399/93/274 401/99/274 377/75/274 374/72/274
f 387/79/275 389/83/275 400/100/275 398/96/275
f 380/75/255 402/102/255 403/101/255 390/107/255 391/108/255 378/76/255
f 375/76/276 379/76/276 405/76/276 404/76/276
f 406/76/277 407/76/277 409/76/277 408/76/277
f 404/76/278 405/76/278 407/76/278 406/76/278
f 412/109/279 413/110/279 414/111/279 415/112/279
f 416/113/280 417/114/280 418/115/280 419/116/280
f 421/117/281 425/118/281 424/114/281 420/114/281
f 426/119/282 422/120/282 423/109/282 427/109/282
f 429/114/283 430/121/283 431/122/283 428/123/283
f 433/109/284 434/109/284 435/124/284 432/125/284
f 422/120/285 435/124/285 434/109/285 423/109/285
f 428/123/286 421/117/286 420/114/286 429/114/286
f 432/125/287 413/110/287 412/109/287 433/109/287
f 416/113/288 431/122/288 430/121/288 417/114/288
f 373/126/289 381/126/289 418/115/289 417/114/289 412/109/289 415/112/289
f 412/109/290 417/114/290 430/121/290 433/109/290
f 390/126/291 373/126/291 415/112/291 414/111/291 391/127/291
f 414/111/263 413/110/263 379/92/263 378/92/263 391/127/263
f 379/92/255 413/110/255 432/125/255 411/128/255 405/92/255
f 381/126/292 385/85/292 384/86/292 419/116/292 418/115/292
f 375/92/263 416/113/263 419/116/263 384/86/263 388/84/263
f 416/113/272 375/92/272 404/92/272 410/129/272 431/122/272
f 434/109/293 429/114/293 420/114/293 423/109/293
f 421/117/272 406/92/272 408/92/272 425/118/272
f 423/109/294 420/114/294 424/114/294 427/109/294
f 428/123/272 410/129/272 404/92/272 406/92/272 421/117/272
f 405/92/255 411/128/255 435/124/255 422/120/255 407/92/255
f 407/92/255 422/120/255 426/119/255 409/92/255
f 424/114/295 425/118/295 408/92/295 409/92/295 426/119/295 427/109/295
f 428/123/272 431/122/272 410/129/272
f 429/114/296 434/109/296 433/109/296 430/121/296
f 432/125/255 435/124/255 411/128/255
f 437/71/272 436/74/272 440/73/272 442/72/272
f 442/72/297 440/73/297 443/76/297 445/75/297
f 445/75/257 444/75/257 438/78/257 457/77/257
f 446/76/258 378/76/258 380/75/258 444/75/258
f 453/79/298 452/82/298 448/81/298 449/80/298
f 455/83/299 454/84/299 452/82/299 453/79/299
f 451/85/300 450/86/300 454/84/300 455/83/300
f 456/87/262 457/77/262 438/78/262 439/88/262
f 436/89/263 448/81/263 452/82/263 440/90/263
f 456/87/264 439/88/264 441/91/264 447/91/264
f 440/90/265 452/82/265 454/84/265 443/92/265
f 443/76/258 446/76/258 444/75/258 445/75/258
f 463/93/301 462/96/301 458/95/301 459/94/301
f 461/97/302 460/98/302 457/77/302 456/87/302
f 465/99/303 464/100/303 462/96/303 463/93/303
f 460/98/304 461/97/304 464/100/304 465/99/304
f 439/88/270 438/78/270 402/102/270 403/101/270
f 461/97/305 456/87/305 447/91/305 451/103/305
f 465/99/257 445/75/257 457/77/257 460/98/257
f 444/75/257 380/75/257 402/102/257 438/78/257
f 439/88/264 403/101/264 390/91/264 441/91/264
f 449/80/255 458/95/255 462/96/255 453/79/255
f 459/94/257 437/71/257 442/72/257 463/93/257
f 448/104/258 436/106/258 437/71/258 459/94/258 458/95/258 449/105/258
f 455/83/306 464/100/306 461/97/306 451/85/306
f 463/93/274 442/72/274 445/75/274 465/99/274
f 453/79/307 462/96/307 464/100/307 455/83/307
f 443/76/276 466/76/276 467/76/276 446/76/276
f 468/76/277 470/76/277 471/76/277 469/76/277
f 466/76/278 468/76/278 469/76/278 467/76/278
f 474/109/279 477/112/279 476/111/279 475/110/279
f 478/113/308 481/116/308 480/115/308 479/114/308
f 483/117/282 482/114/282 486/114/282 487/118/282
f 488/119/281 489/109/281 485/109/281 484/120/281
f 491/114/309 490/123/309 493/122/309 492/121/309
f 495/109/310 494/125/310 497/124/310 496/109/310
f 484/120/311 485/109/311 496/109/311 497/124/311
f 490/123/312 491/114/312 482/114/312 483/117/312
f 494/125/313 495/109/313 474/109/313 475/110/313
f 478/113/314 479/114/314 492/121/314 493/122/314
f 441/126/289 477/112/289 474/109/289 479/114/289 480/115/289 447/126/289
f 474/109/315 495/109/315 492/121/315 479/114/315
f 390/126/291 391/127/291 476/111/291 477/112/291 441/126/291
f 476/111/263 391/127/263 378/92/263 446/92/263 475/110/263
f 446/92/272 467/92/272 473/128/272 494/125/272 475/110/272
f 447/126/316 480/115/316 481/116/316 450/86/316 451/85/316
f 443/92/263 454/84/263 450/86/263 481/116/263 478/113/263
f 478/113/255 493/122/255 472/129/255 466/92/255 443/92/255
f 496/109/293 485/109/293 482/114/293 491/114/293
f 483/117/255 487/118/255 470/92/255 468/92/255
f 485/109/294 489/109/294 486/114/294 482/114/294
f 490/123/255 483/117/255 468/92/255 466/92/255 472/129/255
f 467/92/272 469/92/272 484/120/272 497/124/272 473/128/272
f 469/92/272 471/92/272 488/119/272 484/120/272
f 486/114/295 489/109/295 488/119/295 471/92/295 470/92/295 487/118/295
f 490/123/255 472/129/255 493/122/255
f 491/114/317 492/121/317 495/109/317 496/109/317
f 494/125/272 473/128/272 497/124/272
g Cylinder_Cylinder
v -0.882426 0.663439 -0.493246
v -0.980125 0.814934 -0.095499
v -0.800157 0.716495 -0.483604
v -0.963067 0.825934 -0.093500
v -0.721048 0.767511 -0.455050
v -0.946665 0.836512 -0.087580
v -0.648142 0.814529 -0.408680
v -0.931548 0.846260 -0.077965
v -0.584239 0.855740 -0.346276
v -0.918299 0.854805 -0.065026
v -0.531795 0.889561 -0.270237
v -0.907425 0.861818 -0.049260
v -0.492825 0.914692 -0.183484
v -0.899345 0.867028 -0.031273
v -0.468828 0.930168 -0.089352
v -0.894369 0.870237 -0.011756
v -0.460725 0.935393 0.008542
v -0.892689 0.871321 0.008542
v -0.468828 0.930168 0.106436
v -0.894369 0.870237 0.028839
v -0.492825 0.914692 0.200567
v -0.899345 0.867028 0.048356
v -0.531795 0.889561 0.287320
v -0.907425 0.861818 0.066344
v -0.584239 0.855740 0.363359
v -0.918299 0.854805 0.082110
v -0.648142 0.814529 0.425763
v -0.931548 0.846260 0.095048
v -0.721048 0.767511 0.472133
v -0.946665 0.836512 0.104663
v -0.800157 0.716495 0.500688
v -0.963067 0.825934 0.110583
v -0.882426 0.663439 0.510329
v -0.980125 0.814933 0.112582
v -0.964696 0.610383 0.500688
v -0.997183 0.803933 0.110583
v -1.043804 0.559367 0.472133
v -1.013585 0.793355 0.104663
v -1.116711 0.512349 0.425763
v -1.028701 0.783607 0.095048
v -1.180614 0.471138 0.363359
v -1.041951 0.775062 0.082110
v -1.233058 0.437317 0.287320
v -1.052825 0.768049 0.066344
v -1.272027 0.412186 0.200567
v -1.060905 0.762839 0.048356
v -1.296024 0.396710 0.106436
v -1.065880 0.759630 0.028839
v -1.304127 0.391485 0.008542
v -1.067560 0.758546 0.008542
v -1.296024 0.396710 -0.089352
v -1.065880 0.759630 -0.011756
v -1.272027 0.412186 -0.183484
v -1.060905 0.762839 -0.031273
v -1.233058 0.437317 -0.270237
v -1.052825 0.768049 -0.049260
v -1.180614 0.471138 -0.346276
v -1.041951 0.775062 -0.065026
v -1.116711 0.512349 -0.408680
v -1.028701 0.783607 -0.077965
v -1.043804 0.559367 -0.455050
v -1.013585 0.793355 -0.087580
v -0.964696 0.610383 -0.483604
v -0.997183 0.803933 -0.093500
v -0.917653 0.898689 -0.483604
v -0.999923 0.845633 -0.493246
v -0.838545 0.949706 -0.455050
v -0.765639 0.996723 -0.408680
v -0.701735 1.037934 -0.346276
v -0.649292 1.071755 -0.270237
v -0.610322 1.096887 -0.183484
v -0.586325 1.112362 -0.089352
v -0.578222 1.117588 0.008542
v -0.586325 1.112362 0.106436
v -0.610322 1.096887 0.200567
v -0.649292 1.071755 0.287320
v -0.701735 1.037934 0.363359
v -0.765639 0.996723 0.425763
v -0.838545 0.949706 0.472133
v -0.917653 0.898689 0.500688
v -0.999923 0.845633 0.510329
v -1.082193 0.792578 0.500688
v -1.161301 0.741561 0.472133
v -1.234208 0.694544 0.425763
v -1.298111 0.653333 0.363359
v -1.350555 0.619512 0.287320
v -1.389524 0.594380 0.200567
v -1.413521 0.578905 0.106436
v -1.421624 0.573679 0.008542
v -1.413521 0.578905 -0.089352
v -1.389524 0.594380 -0.183484
v -1.350555 0.619512 -0.270237
v -1.298111 0.653333 -0.346276
v -1.234208 0.694544 -0.408680
v -1.161301 0.741561 -0.455050
v -1.082193 0.792578 -0.483604
v -0.962116 0.943691 -0.418369
v -1.033480 0.897668 -0.426732
v -0.893494 0.987945 -0.393599
v -0.830251 1.028730 -0.353375
v -0.774819 1.064479 -0.299243
v -0.729326 1.093817 -0.233284
v -0.695523 1.115617 -0.158030
v -0.674706 1.129041 -0.076376
v -0.667677 1.133574 0.008542
v -0.674706 1.129041 0.093459
v -0.695523 1.115617 0.175114
v -0.729326 1.093817 0.250367
v -0.774819 1.064479 0.316327
v -0.830251 1.028730 0.370459
v -0.893494 0.987945 0.410682
v -0.962116 0.943691 0.435452
v -1.033480 0.897668 0.443815
v -1.104845 0.851645 0.435452
v -1.173467 0.807391 0.410682
v -1.236710 0.766606 0.370459
v -1.292142 0.730858 0.316327
v -1.337634 0.701520 0.250367
v -1.371438 0.679720 0.175114
v -1.392254 0.666295 0.093459
v -1.399283 0.661762 0.008542
v -1.392254 0.666295 -0.076376
v -1.371438 0.679720 -0.158030
v -1.337634 0.701520 -0.233284
v -1.292142 0.730858 -0.299243
v -1.236710 0.766606 -0.353375
v -1.173467 0.807391 -0.393599
v -1.104845 0.851645 -0.418369
v -0.950987 0.876073 -0.281151
v -0.999413 0.844843 -0.286826
v -0.904421 0.906103 -0.264343
v -0.861506 0.933779 -0.237048
v -0.823891 0.958037 -0.200315
v -0.793021 0.977945 -0.155556
v -0.770082 0.992738 -0.104491
v -0.755957 1.001848 -0.049082
v -0.751187 1.004924 0.008542
v -0.755957 1.001848 0.066165
v -0.770082 0.992738 0.121574
v -0.793021 0.977945 0.172639
v -0.823891 0.958037 0.217398
v -0.861506 0.933779 0.254131
v -0.904421 0.906103 0.281426
v -0.950987 0.876073 0.298234
v -0.999413 0.844843 0.303910
v -1.047840 0.813613 0.298234
v -1.094406 0.783583 0.281426
v -1.137321 0.755907 0.254131
v -1.174936 0.731649 0.217398
v -1.205806 0.711741 0.172639
v -1.228745 0.696948 0.121574
v -1.242870 0.687838 0.066165
v -1.247640 0.684762 0.008542
v -1.242870 0.687838 -0.049082
v -1.228745 0.696948 -0.104491
v -1.205806 0.711741 -0.155556
v -1.174936 0.731649 -0.200315
v -1.137321 0.755907 -0.237048
v -1.094406 0.783583 -0.264343
v -1.047840 0.813613 -0.281151
v -0.920978 0.829540 -0.281151
v -0.969404 0.798310 -0.286826
v -0.793882 0.911504 -0.200315
v -0.831497 0.887246 -0.237048
v -0.763011 0.931412 -0.155556
v -0.721178 0.958390 0.008542
v -0.725947 0.955315 -0.049082
v -0.725947 0.955315 0.066165
v -0.793882 0.911504 0.217398
v -0.763011 0.931412 0.172639
v -0.831497 0.887246 0.254131
v -0.969404 0.798310 0.303910
v -0.920978 0.829540 0.298234
v -1.017831 0.767079 0.298234
v -1.144927 0.685115 0.217398
v -1.107311 0.709373 0.254131
v -1.175797 0.665207 0.172639
v -1.217631 0.638229 0.008542
v -1.212861 0.641305 0.066165
v -1.212861 0.641305 -0.049082
v -1.144927 0.685115 -0.200315
v -1.175797 0.665207 -0.155556
v -1.107311 0.709373 -0.237048
v -1.017831 0.767079 -0.281151
v -0.912898 0.763637 -0.135725
v -0.937014 0.748085 -0.138552
v -0.849604 0.804455 -0.095469
v -0.868336 0.792375 -0.113762
v -0.834230 0.814369 -0.073179
v -0.813397 0.827805 0.008542
v -0.815773 0.826273 -0.020155
v -0.815773 0.826273 0.037238
v -0.849604 0.804455 0.112552
v -0.834230 0.814369 0.090262
v -0.868336 0.792375 0.130845
v -0.937014 0.748085 0.155635
v -0.912898 0.763637 0.152809
v -0.961130 0.732532 0.152809
v -1.024424 0.691714 0.112552
v -1.005692 0.703794 0.130845
v -1.039798 0.681800 0.090262
v -1.060631 0.668364 0.008542
v -1.058256 0.669896 0.037238
v -1.058256 0.669896 -0.020155
v -1.024424 0.691714 -0.095469
v -1.039798 0.681800 -0.073179
v -1.005692 0.703794 -0.113762
v -0.961130 0.732532 -0.135725
v -0.942907 0.810171 -0.135725
v -0.967023 0.794618 -0.138552
v -0.919717 0.825126 -0.127355
v -0.898346 0.838908 -0.113762
v -0.879613 0.850989 -0.095469
v -0.864240 0.860903 -0.073179
v -0.852816 0.868270 -0.047748
v -0.845782 0.872806 -0.020155
v -0.843407 0.874338 0.008542
v -0.845782 0.872806 0.037238
v -0.852816 0.868270 0.064832
v -0.864240 0.860903 0.090262
v -0.879613 0.850989 0.112552
v -0.898346 0.838908 0.130845
v -0.919717 0.825126 0.144438
v -0.942907 0.810171 0.152809
v -0.967023 0.794618 0.155635
v -0.991140 0.779065 0.152809
v -1.014329 0.764110 0.144438
v -1.035701 0.750328 0.130845
v -1.054434 0.738247 0.112552
v -1.069807 0.728333 0.090262
v -1.081230 0.720966 0.064832
v -1.088265 0.716429 0.037238
v -1.090640 0.714898 0.008542
v -1.088265 0.716429 -0.020155
v -1.081230 0.720966 -0.047748
v -1.069807 0.728333 -0.073179
v -1.054434 0.738247 -0.095469
v -1.035701 0.750328 -0.113762
v -1.014329 0.764110 -0.127355
v -0.991140 0.779065 -0.135725
vn 0.0824 0.0531 -0.9952
vn 0.2440 0.1573 -0.9569
vn 0.3962 0.2555 -0.8819
vn 0.5331 0.3438 -0.7730
vn 0.6496 0.4189 -0.6344
vn 0.7412 0.4780 -0.4714
vn 0.8042 0.5186 -0.2903
vn 0.8364 0.5394 -0.0980
vn 0.8364 0.5394 0.0980
vn 0.8042 0.5186 0.2903
vn 0.7412 0.4780 0.4714
vn 0.6496 0.4189 0.6344
vn 0.5331 0.3438 0.7730
vn 0.3962 0.2555 0.8819
vn 0.2440 0.1573 0.9569
vn 0.0824 0.0531 0.9952
vn -0.0824 -0.0531 0.9952
vn -0.2440 -0.1573 0.9569
vn -0.3962 -0.2555 0.8819
vn -0.5331 -0.3438 0.7730
vn -0.6496 -0.4189 0.6344
vn -0.7412 -0.4780 0.4714
vn -0.8042 -0.5186 0.2903
vn -0.8364 -0.5394 0.0980
vn -0.8364 -0.5394 -0.0980
vn -0.8042 -0.5186 -0.2903
vn -0.7412 -0.4780 -0.4714
vn -0.6496 -0.4189 -0.6344
vn -0.5331 -0.3438 -0.7730
vn -0.3962 -0.2555 -0.8819
vn -0.5420 0.8404 -0.0000
vn -0.2440 -0.1573 -0.9569
vn -0.0824 -0.0531 -0.9952
vn 0.5420 -0.8404 -0.0000
vn -0.3395 0.6500 -0.6798
vn -0.2292 0.7212 -0.6537
vn -0.1252 0.7883 -0.6025
vn -0.0316 0.8486 -0.5281
vn 0.0480 0.8999 -0.4334
vn 0.1105 0.9403 -0.3220
vn 0.1536 0.9680 -0.1983
vn 0.1755 0.9822 -0.0670
vn 0.1755 0.9822 0.0670
vn 0.1536 0.9680 0.1983
vn 0.1105 0.9403 0.3220
vn 0.0480 0.8999 0.4334
vn -0.0316 0.8486 0.5281
vn -0.1252 0.7883 0.6025
vn -0.2292 0.7212 0.6537
vn -0.3395 0.6500 0.6798
vn -0.4521 0.5775 0.6798
vn -0.5625 0.5063 0.6537
vn -0.6664 0.4392 0.6025
vn -0.7600 0.3789 0.5281
vn -0.8396 0.3276 0.4334
vn -0.9021 0.2872 0.3220
vn -0.9452 0.2595 0.1983
vn -0.9671 0.2453 0.0670
vn -0.9671 0.2453 -0.0670
vn -0.9452 0.2595 -0.1983
vn -0.9021 0.2872 -0.3220
vn -0.8396 0.3276 -0.4334
vn -0.7600 0.3789 -0.5281
vn -0.6664 0.4392 -0.6025
vn -0.5625 0.5063 -0.6537
vn -0.4521 0.5775 -0.6798
vn -0.5279 0.7441 0.4095
vn -0.5943 0.7012 0.3938
vn -0.6570 0.6608 0.3629
vn -0.7133 0.6245 0.3181
vn -0.7613 0.5936 0.2610
vn -0.7989 0.5693 0.1940
vn -0.8249 0.5526 0.1194
vn -0.8381 0.5440 0.0403
vn -0.8381 0.5440 -0.0403
vn -0.8249 0.5526 -0.1194
vn -0.7989 0.5693 -0.1940
vn -0.7613 0.5936 -0.2610
vn -0.7133 0.6245 -0.3181
vn -0.6570 0.6608 -0.3629
vn -0.5943 0.7012 -0.3938
vn -0.5279 0.7441 -0.4095
vn -0.4601 0.7878 -0.4095
vn -0.3936 0.8307 -0.3938
vn -0.3310 0.8711 -0.3629
vn -0.2746 0.9074 -0.3181
vn -0.2267 0.9383 -0.2610
vn -0.1890 0.9626 -0.1940
vn -0.1631 0.9794 -0.1194
vn -0.1498 0.9879 -0.0403
vn -0.1498 0.9879 0.0403
vn -0.1631 0.9794 0.1194
vn -0.1890 0.9626 0.1940
vn -0.2267 0.9383 0.2610
vn -0.2746 0.9074 0.3181
vn -0.3310 0.8711 0.3629
vn -0.3936 0.8307 0.3938
vn -0.4601 0.7878 0.4095
vn -0.5939 0.7199 0.3592
vn -0.6510 0.6830 0.3311
vn -0.1640 -0.1057 0.9808
vn -0.7806 0.5995 0.1770
vn -0.8042 0.5842 0.1090
vn -0.8042 0.5842 -0.1090
vn -0.7806 0.5995 -0.1770
vn -0.4669 -0.3011 0.8315
vn -0.6510 0.6830 -0.3311
vn -0.5939 0.7199 -0.3592
vn -0.4108 0.8380 -0.3592
vn -0.3536 0.8748 -0.3311
vn -0.1640 -0.1057 -0.9808
vn -0.2241 0.9584 -0.1770
vn -0.2004 0.9736 -0.1090
vn 0.1640 0.1057 -0.9808
vn -0.2004 0.9736 0.1090
vn -0.2241 0.9584 0.1770
vn -0.3536 0.8748 0.3311
vn -0.4108 0.8380 0.3592
vn -0.5333 0.7590 0.3736
vn -0.7025 0.6499 0.2902
vn -0.7462 0.6217 0.2381
vn -0.8163 0.5765 0.0368
vn -0.8163 0.5765 -0.0368
vn -0.7462 0.6217 -0.2381
vn -0.7025 0.6499 -0.2902
vn -0.5333 0.7590 -0.3736
vn -0.4714 0.7989 -0.3736
vn -0.3022 0.9080 -0.2902
vn -0.2585 0.9362 -0.2381
vn -0.1884 0.9814 -0.0368
vn -0.1884 0.9814 0.0368
vn -0.2585 0.9362 0.2381
vn -0.3022 0.9080 0.2902
vn -0.4714 0.7989 0.3736
vn 0.6988 0.4506 -0.5556
vn 0.4669 0.3011 -0.8315
vn -0.8242 -0.5316 -0.1951
vn -0.8242 -0.5316 0.1951
vn -0.6988 -0.4506 0.5556
vn 0.6988 0.4506 0.5556
vn 0.8242 0.5316 0.1951
vn 0.8242 0.5316 -0.1951
vn -0.4669 -0.3011 -0.8315
vn -0.6988 -0.4506 -0.5556
vn 0.1640 0.1057 0.9808
vn 0.4669 0.3011 0.8315
vn -0.4315 0.7580 -0.4890
vn -0.3521 0.8092 -0.4702
vn -0.2774 0.8575 -0.4334
vn -0.2100 0.9009 -0.3799
vn -0.1528 0.9378 -0.3117
vn -0.1078 0.9668 -0.2316
vn -0.0768 0.9868 -0.1426
vn -0.0610 0.9970 -0.0482
vn -0.0610 0.9970 0.0482
vn -0.0768 0.9868 0.1426
vn -0.1078 0.9668 0.2316
vn -0.1528 0.9378 0.3117
vn -0.2100 0.9009 0.3799
vn -0.2774 0.8575 0.4334
vn -0.3521 0.8092 0.4702
vn -0.4315 0.7580 0.4890
vn -0.5125 0.7058 0.4890
vn -0.5919 0.6546 0.4702
vn -0.6667 0.6064 0.4334
vn -0.7340 0.5630 0.3799
vn -0.7912 0.5261 0.3117
vn -0.8362 0.4971 0.2316
vn -0.8672 0.4771 0.1426
vn -0.8830 0.4669 0.0482
vn -0.8830 0.4669 -0.0482
vn -0.8672 0.4771 -0.1426
vn -0.8362 0.4971 -0.2316
vn -0.7912 0.5261 -0.3117
vn -0.7340 0.5630 -0.3799
vn -0.6667 0.6064 -0.4334
vn -0.5919 0.6546 -0.4702
vn -0.5125 0.7058 -0.4890
vt 1.000000 0.500000
vt 1.000000 1.000000
vt 0.968750 1.000000
vt 0.968750 0.500000
vt 0.937500 1.000000
vt 0.937500 0.500000
vt 0.906250 1.000000
vt 0.906250 0.500000
vt 0.875000 1.000000
vt 0.875000 0.500000
vt 0.843750 1.000000
vt 0.843750 0.500000
vt 0.812500 1.000000
vt 0.812500 0.500000
vt 0.781250 1.000000
vt 0.781250 0.500000
vt 0.750000 1.000000
vt 0.750000 0.500000
vt 0.718750 1.000000
vt 0.718750 0.500000
vt 0.687500 1.000000
vt 0.687500 0.500000
vt 0.656250 1.000000
vt 0.656250 0.500000
vt 0.625000 1.000000
vt 0.625000 0.500000
vt 0.593750 1.000000
vt 0.593750 0.500000
vt 0.562500 1.000000
vt 0.562500 0.500000
vt 0.531250 1.000000
vt 0.531250 0.500000
vt 0.500000 1.000000
vt 0.500000 0.500000
vt 0.468750 1.000000
vt 0.468750 0.500000
vt 0.437500 1.000000
vt 0.437500 0.500000
vt 0.406250 1.000000
vt 0.406250 0.500000
vt 0.375000 1.000000
vt 0.375000 0.500000
vt 0.343750 1.000000
vt 0.343750 0.500000
vt 0.312500 1.000000
vt 0.312500 0.500000
vt 0.281250 1.000000
vt 0.281250 0.500000
vt 0.250000 1.000000
vt 0.250000 0.500000
vt 0.218750 1.000000
vt 0.218750 0.500000
vt 0.187500 1.000000
vt 0.187500 0.500000
vt 0.156250 1.000000
vt 0.156250 0.500000
vt 0.125000 1.000000
vt 0.125000 0.500000
vt 0.093750 1.000000
vt 0.093750 0.500000
vt 0.062500 1.000000
vt 0.062500 0.500000
vt 0.259708 0.298806
vt 0.250000 0.299762
vt 0.240292 0.298806
vt 0.230957 0.295974
vt 0.222354 0.291375
vt 0.214813 0.285187
vt 0.208625 0.277646
vt 0.204026 0.269043
vt 0.201195 0.259708
vt 0.200238 0.250000
vt 0.201194 0.240292
vt 0.204026 0.230957
vt 0.208625 0.222354
vt 0.214813 0.214813
vt 0.222354 0.208625
vt 0.230957 0.204026
vt 0.240292 0.201194
vt 0.250000 0.200238
vt 0.259708 0.201195
vt 0.269043 0.204026
vt 0.277646 0.208625
vt 0.285187 0.214813
vt 0.291375 0.222354
vt 0.295974 0.230957
vt 0.298806 0.240292
vt 0.299762 0.250000
vt 0.298806 0.259708
vt 0.295974 0.269043
vt 0.291375 0.277646
vt 0.285187 0.285187
vt 0.277646 0.291375
vt 0.269043 0.295974
vt 0.031250 1.000000
vt 0.031250 0.500000
vt 0.000000 1.000000
vt 0.000000 0.500000
vt 0.750000 0.490000
vt 0.796822 0.485388
vt 0.841844 0.471731
vt 0.883337 0.449553
vt 0.919706 0.419706
vt 0.949553 0.383337
vt 0.971731 0.341844
vt 0.985388 0.296822
vt 0.990000 0.250000
vt 0.985388 0.203178
vt 0.971731 0.158156
vt 0.949553 0.116663
vt 0.919706 0.080294
vt 0.883337 0.050447
vt 0.841844 0.028269
vt 0.796822 0.014612
vt 0.750000 0.010000
vt 0.703178 0.014612
vt 0.658156 0.028269
vt 0.616663 0.050447
vt 0.580294 0.080294
vt 0.550447 0.116663
vt 0.528269 0.158156
vt 0.514612 0.203178
vt 0.510000 0.250000
vt 0.514612 0.296822
vt 0.528269 0.341844
vt 0.550447 0.383337
vt 0.580294 0.419706
vt 0.616663 0.449553
vt 0.658156 0.471731
vt 0.703178 0.485388
vt 0.250000 0.458187
vt 0.290615 0.454187
vt 0.296822 0.485388
vt 0.250000 0.490000
vt 0.329670 0.442340
vt 0.341844 0.471731
vt 0.365663 0.423101
vt 0.383337 0.449553
vt 0.397210 0.397210
vt 0.419706 0.419706
vt 0.423101 0.365663
vt 0.449553 0.383337
vt 0.442340 0.329670
vt 0.471731 0.341844
vt 0.454187 0.290615
vt 0.485388 0.296822
vt 0.458187 0.250000
vt 0.490000 0.250000
vt 0.454187 0.209385
vt 0.485388 0.203178
vt 0.442340 0.170330
vt 0.471731 0.158156
vt 0.423101 0.134337
vt 0.449553 0.116663
vt 0.397211 0.102790
vt 0.419706 0.080294
vt 0.365663 0.076899
vt 0.383337 0.050447
vt 0.329670 0.057660
vt 0.341844 0.028269
vt 0.290615 0.045813
vt 0.296822 0.014612
vt 0.250000 0.041813
vt 0.250000 0.010000
vt 0.209385 0.045813
vt 0.203178 0.014612
vt 0.170330 0.057660
vt 0.158156 0.028269
vt 0.134337 0.076899
vt 0.116663 0.050447
vt 0.102790 0.102790
vt 0.080294 0.080294
vt 0.076899 0.134337
vt 0.050447 0.116663
vt 0.057660 0.170330
vt 0.028269 0.158156
vt 0.045813 0.209385
vt 0.014612 0.203178
vt 0.041813 0.250000
vt 0.010000 0.250000
vt 0.045813 0.290615
vt 0.014612 0.296822
vt 0.057660 0.329670
vt 0.028269 0.341844
vt 0.076899 0.365663
vt 0.050447 0.383337
vt 0.102790 0.397211
vt 0.080294 0.419706
vt 0.134337 0.423101
vt 0.116663 0.449553
vt 0.170330 0.442340
vt 0.158156 0.471731
vt 0.209385 0.454187
vt 0.203178 0.485388
vt 0.250000 0.391272
vt 0.277561 0.388557
vt 0.304062 0.380518
vt 0.328486 0.367463
vt 0.349894 0.349894
vt 0.367463 0.328486
vt 0.380518 0.304062
vt 0.388557 0.277561
vt 0.391271 0.250000
vt 0.388557 0.222439
vt 0.380518 0.195938
vt 0.367463 0.171514
vt 0.349894 0.150106
vt 0.328486 0.132537
vt 0.304062 0.119482
vt 0.277561 0.111443
vt 0.250000 0.108729
vt 0.222439 0.111443
vt 0.195938 0.119482
vt 0.171514 0.132537
vt 0.150106 0.150106
vt 0.132537 0.171514
vt 0.119482 0.195938
vt 0.111443 0.222439
vt 0.108729 0.250000
vt 0.111443 0.277561
vt 0.119482 0.304062
vt 0.132537 0.328486
vt 0.150106 0.349894
vt 0.171514 0.367463
vt 0.195938 0.380518
vt 0.222439 0.388557
vt 0.299747 0.299747
vt 0.308497 0.289086
vt 0.263725 0.319001
vt 0.276923 0.314998
vt 0.289086 0.308497
vt 0.180999 0.263725
vt 0.314998 0.276923
vt 0.319001 0.263725
vt 0.319001 0.236275
vt 0.314998 0.223077
vt 0.308497 0.210914
vt 0.250000 0.179647
vt 0.236275 0.180999
vt 0.289086 0.191503
vt 0.276923 0.185002
vt 0.263725 0.180999
vt 0.223077 0.185002
vt 0.210914 0.191503
vt 0.180999 0.236275
vt 0.200253 0.299747
vt 0.210914 0.308497
vt 0.191503 0.210914
vt 0.185002 0.223077
vt 0.185002 0.276923
vt 0.191503 0.289086
vt 0.223077 0.314998
vt 0.236275 0.319001
vt 0.250000 0.320353
vt 0.320353 0.250000
vt 0.299747 0.200253
vt 0.200253 0.200253
vt 0.179647 0.250000
s 0
g Cylinder_black
usemtl black
f 498/130/318 563/131/318 562/132/318 500/133/318
f 500/133/319 562/132/319 564/134/319 502/135/319
f 502/135/320 564/134/320 565/136/320 504/137/320
f 504/137/321 565/136/321 566/138/321 506/139/321
f 506/139/322 566/138/322 567/140/322 508/141/322
f 508/141/323 567/140/323 568/142/323 510/143/323
f 510/143/324 568/142/324 569/144/324 512/145/324
f 512/145/325 569/144/325 570/146/325 514/147/325
f 514/147/326 570/146/326 571/148/326 516/149/326
f 516/149/327 571/148/327 572/150/327 518/151/327
f 518/151/328 572/150/328 573/152/328 520/153/328
f 520/153/329 573/152/329 574/154/329 522/155/329
f 522/155/330 574/154/330 575/156/330 524/157/330
f 524/157/331 575/156/331 576/158/331 526/159/331
f 526/159/332 576/158/332 577/160/332 528/161/332
f 528/161/333 577/160/333 578/162/333 530/163/333
f 530/163/334 578/162/334 579/164/334 532/165/334
f 532/165/335 579/164/335 580/166/335 534/167/335
f 534/167/336 580/166/336 581/168/336 536/169/336
f 536/169/337 581/168/337 582/170/337 538/171/337
f 538/171/338 582/170/338 583/172/338 540/173/338
f 540/173/339 583/172/339 584/174/339 542/175/339
f 542/175/340 584/174/340 585/176/340 544/177/340
f 544/177/341 585/176/341 586/178/341 546/179/341
f 546/179/342 586/178/342 587/180/342 548/181/342
f 548/181/343 587/180/343 588/182/343 550/183/343
f 550/183/344 588/182/344 589/184/344 552/185/344
f 552/185/345 589/184/345 590/186/345 554/187/345
f 554/187/346 590/186/346 591/188/346 556/189/346
f 556/189/347 591/188/347 592/190/347 558/191/347
f 558/191/349 592/190/349 593/224/349 560/225/349
f 560/225/350 593/224/350 563/226/350 498/227/350
f 498/228/351 500/229/351 502/230/351 504/231/351 506/232/351 508/233/351 510/234/351 512/235/351 514/236/351 516/237/351 518/238/351 520/239/351 522/240/351 524/241/351 526/242/351 528/243/351 530/244/351 532/245/351 534/246/351 536/247/351 538/248/351 540/249/351 542/250/351 544/251/351 546/252/351 548/253/351 550/254/351 552/255/351 554/256/351 556/257/351 558/258/351 560/259/351
f 595/260/352 594/261/352 562/262/352 563/263/352
f 594/261/353 596/264/353 564/265/353 562/262/353
f 596/264/354 597/266/354 565/267/354 564/265/354
f 597/266/355 598/268/355 566/269/355 565/267/355
f 598/268/356 599/270/356 567/271/356 566/269/356
f 599/270/357 600/272/357 568/273/357 567/271/357
f 600/272/358 601/274/358 569/275/358 568/273/358
f 601/274/359 602/276/359 570/277/359 569/275/359
f 602/276/360 603/278/360 571/279/360 570/277/360
f 603/278/361 604/280/361 572/281/361 571/279/361
f 604/280/362 605/282/362 573/283/362 572/281/362
f 605/282/363 606/284/363 574/285/363 573/283/363
f 606/284/364 607/286/364 575/287/364 574/285/364
f 607/286/365 608/288/365 576/289/365 575/287/365
f 608/288/366 609/290/366 577/291/366 576/289/366
f 609/290/367 610/292/367 578/293/367 577/291/367
f 610/292/368 611/294/368 579/295/368 578/293/368
f 611/294/369 612/296/369 580/297/369 579/295/369
f 612/296/370 613/298/370 581/299/370 580/297/370
f 613/298/371 614/300/371 582/301/371 581/299/371
f 614/300/372 615/302/372 583/303/372 582/301/372
f 615/302/373 616/304/373 584/305/373 583/303/373
f 616/304/374 617/306/374 585/307/374 584/305/374
f 617/306/375 618/308/375 586/309/375 585/307/375
f 618/308/376 619/310/376 587/311/376 586/309/376
f 619/310/377 620/312/377 588/313/377 587/311/377
f 620/312/378 621/314/378 589/315/378 588/313/378
f 621/314/379 622/316/379 590/317/379 589/315/379
f 622/316/380 623/318/380 591/319/380 590/317/380
f 623/318/381 624/320/381 592/321/381 591/319/381
f 624/320/382 625/322/382 593/323/382 592/321/382
f 625/322/383 595/260/383 563/263/383 593/323/383
f 627/324/384 626/325/384 594/261/384 595/260/384
f 626/325/385 628/326/385 596/264/385 594/261/385
f 628/326/386 629/327/386 597/266/386 596/264/386
f 629/327/387 630/328/387 598/268/387 597/266/387
f 630/328/388 631/329/388 599/270/388 598/268/388
f 631/329/389 632/330/389 600/272/389 599/270/389
f 632/330/390 633/331/390 601/274/390 600/272/390
f 633/331/391 634/332/391 602/276/391 601/274/391
f 634/332/392 635/333/392 603/278/392 602/276/392
f 635/333/393 636/334/393 604/280/393 603/278/393
f 636/334/394 637/335/394 605/282/394 604/280/394
f 637/335/395 638/336/395 606/284/395 605/282/395
f 638/336/396 639/337/396 607/286/396 606/284/396
f 639/337/397 640/338/397 608/288/397 607/286/397
f 640/338/398 641/339/398 609/290/398 608/288/398
f 641/339/399 642/340/399 610/292/399 609/290/399
f 642/340/400 643/341/400 611/294/400 610/292/400
f 643/341/401 644/342/401 612/296/401 611/294/401
f 644/342/402 645/343/402 613/298/402 612/296/402
f 645/343/403 646/344/403 614/300/403 613/298/403
f 646/344/404 647/345/404 615/302/404 614/300/404
f 647/345/405 648/346/405 616/304/405 615/302/405
f 648/346/406 649/347/406 617/306/406 616/304/406
f 649/347/407 650/348/407 618/308/407 617/306/407
f 650/348/408 651/349/408 619/310/408 618/308/408
f 651/349/409 652/350/409 620/312/409 619/310/409
f 652/350/410 653/351/410 621/314/410 620/312/410
f 653/351/411 654/352/411 622/316/411 621/314/411
f 654/352/412 655/353/412 623/318/412 622/316/412
f 655/353/413 656/354/413 624/320/413 623/318/413
f 656/354/414 657/355/414 625/322/414 624/320/414
f 657/355/415 627/324/415 595/260/415 625/322/415
f 683/383/436 682/358/436 658/325/436 659/324/436
f 685/360/437 684/356/437 660/328/437 661/327/437
f 684/356/438 686/357/438 662/329/438 660/328/438
f 688/363/439 687/384/439 663/332/439 664/331/439
f 687/384/440 689/364/440 665/333/440 663/332/440
f 691/366/441 690/385/441 666/336/441 667/335/441
f 690/385/442 692/369/442 668/337/442 666/336/442
f 694/371/443 693/367/443 669/340/443 670/339/443
f 693/367/444 695/368/444 671/341/444 669/340/444
f 697/373/445 696/386/445 672/344/445 673/343/445
f 696/386/446 698/377/446 674/345/446 672/344/446
f 700/374/447 699/387/447 675/348/447 676/347/447
f 699/387/448 701/361/448 677/349/448 675/348/448
f 703/380/449 702/375/449 678/352/449 679/351/449
f 702/375/450 704/376/450 680/353/450 678/352/450
f 705/382/451 683/383/451 659/324/451 681/355/451
g Cylinder_metal
usemtl metal
f 501/192/348 499/193/348 561/194/348 559/195/348 557/196/348 555/197/348 553/198/348 551/199/348 549/200/348 547/201/348 545/202/348 543/203/348 541/204/348 539/205/348 537/206/348 535/207/348 533/208/348 531/209/348 529/210/348 527/211/348 525/212/348 523/213/348 521/214/348 519/215/348 517/216/348 515/217/348 513/218/348 511/219/348 509/220/348 507/221/348 505/222/348 503/223/348
f 710/356/322 711/357/322 686/357/322 684/356/322
f 706/358/416 708/359/416 628/326/416 626/325/416
f 708/359/417 709/360/417 629/327/417 628/326/417
f 731/361/418 651/349/418 677/349/418 701/361/418
f 654/352/329 653/351/329 679/351/329 678/352/329
f 711/357/419 712/362/419 632/330/419 631/329/419
f 712/362/420 713/363/420 633/331/420 632/330/420
f 626/325/334 627/324/334 659/324/334 658/325/334
f 709/360/321 710/356/321 684/356/321 685/360/321
f 715/364/421 716/365/421 636/334/421 635/333/421
f 716/365/422 717/366/422 637/335/422 636/334/422
f 637/335/423 717/366/423 691/366/423 667/335/423
f 722/367/334 723/368/334 695/368/334 693/367/334
f 719/369/424 720/370/424 640/338/424 639/337/424
f 720/370/425 721/371/425 641/339/425 640/338/425
f 639/337/346 638/336/346 666/336/346 668/337/346
f 721/371/333 722/367/333 693/367/333 694/371/333
f 723/368/426 724/372/426 644/342/426 643/341/426
f 724/372/427 725/373/427 645/343/427 644/342/427
f 649/347/428 729/374/428 700/374/428 676/347/428
f 734/375/346 735/376/346 704/376/346 702/375/346
f 727/377/429 728/378/429 648/346/429 647/345/429
f 728/378/430 729/374/430 649/347/430 648/346/430
f 715/364/431 635/333/431 665/333/431 689/364/431
f 638/336/345 637/335/345 667/335/345 666/336/345
f 731/361/432 732/379/432 652/350/432 651/349/432
f 732/379/433 733/380/433 653/351/433 652/350/433
f 651/349/326 650/348/326 675/348/326 677/349/326
f 733/380/345 734/375/345 702/375/345 703/380/345
f 735/376/434 736/381/434 656/354/434 655/353/434
f 736/381/435 737/382/435 657/355/435 656/354/435
f 707/383/318 706/358/318 682/358/318 683/383/318
f 737/382/350 707/383/350 683/383/350 705/382/350
f 655/353/330 654/352/330 678/352/330 680/353/330
f 642/340/350 641/339/350 670/339/350 669/340/350
f 719/369/452 639/337/452 668/337/452 692/369/452
f 653/351/453 733/380/453 703/380/453 679/351/453
f 725/373/337 726/386/337 696/386/337 697/373/337
f 643/341/318 642/340/318 669/340/318 671/341/318
f 630/328/337 629/327/337 661/327/337 660/328/337
f 706/358/454 626/325/454 658/325/454 682/358/454
f 726/386/338 727/377/338 698/377/338 696/386/338
f 641/339/455 721/371/455 694/371/455 670/339/455
f 713/363/325 714/384/325 687/384/325 688/363/325
f 631/329/338 630/328/338 660/328/338 662/329/338
f 627/324/333 657/355/333 681/355/333 659/324/333
f 735/376/456 655/353/456 680/353/456 704/376/456
f 714/384/326 715/364/326 689/364/326 687/384/326
f 629/327/457 709/360/457 685/360/457 661/327/457
f 646/344/321 645/343/321 673/343/321 672/344/321
f 723/368/458 643/341/458 671/341/458 695/368/458
f 657/355/459 737/382/459 705/382/459 681/355/459
f 729/374/341 730/387/341 699/387/341 700/374/341
f 647/345/322 646/344/322 672/344/322 674/345/322
f 634/332/341 633/331/341 664/331/341 663/332/341
f 711/357/460 631/329/460 662/329/460 686/357/460
f 730/387/342 731/361/342 701/361/342 699/387/342
f 645/343/461 725/373/461 697/373/461 673/343/461
f 717/366/329 718/385/329 690/385/329 691/366/329
f 635/333/342 634/332/342 663/332/342 665/333/342
f 718/385/330 719/369/330 692/369/330 690/385/330
f 633/331/462 713/363/462 688/363/462 664/331/462
f 650/348/325 649/347/325 676/347/325 675/348/325
f 727/377/463 647/345/463 674/345/463 698/377/463
f 499/193/464 501/192/464 706/358/464 707/383/464
f 501/192/465 503/223/465 708/359/465 706/358/465
f 503/223/466 505/222/466 709/360/466 708/359/466
f 505/222/467 507/221/467 710/356/467 709/360/467
f 507/221/468 509/220/468 711/357/468 710/356/468
f 509/220/469 511/219/469 712/362/469 711/357/469
f 511/219/470 513/218/470 713/363/470 712/362/470
f 513/218/471 515/217/471 714/384/471 713/363/471
f 515/217/472 517/216/472 715/364/472 714/384/472
f 517/216/473 519/215/473 716/365/473 715/364/473
f 519/215/474 521/214/474 717/366/474 716/365/474
f 521/214/475 523/213/475 718/385/475 717/366/475
f 523/213/476 525/212/476 719/369/476 718/385/476
f 525/212/477 527/211/477 720/370/477 719/369/477
f 527/211/478 529/210/478 721/371/478 720/370/478
f 529/210/479 531/209/479 722/367/479 721/371/479
f 531/209/480 533/208/480 723/368/480 722/367/480
f 533/208/481 535/207/481 724/372/481 723/368/481
f 535/207/482 537/206/482 725/373/482 724/372/482
f 537/206/483 539/205/483 726/386/483 725/373/483
f 539/205/484 541/204/484 727/377/484 726/386/484
f 541/204/485 543/203/485 728/378/485 727/377/485
f 543/203/486 545/202/486 729/374/486 728/378/486
f 545/202/487 547/201/487 730/387/487 729/374/487
f 547/201/488 549/200/488 731/361/488 730/387/488
f 549/200/489 551/199/489 732/379/489 731/361/489
f 551/199/490 553/198/490 733/380/490 732/379/490
f 553/198/491 555/197/491 734/375/491 733/380/491
f 555/197/492 557/196/492 735/376/492 734/375/492
f 557/196/493 559/195/493 736/381/493 735/376/493
f 559/195/494 561/194/494 737/382/494 736/381/494
f 561/194/495 499/193/495 707/383/495 737/382/495
