# Blender 5.1.1
# www.blender.org

g body
v -0.288117 -0.120697 -0.939402
v -0.184707 1.050186 -0.731928
v 0.961585 -0.120697 -0.939402
v -0.219041 0.676637 -0.912129
v 0.803809 0.606872 -0.885931
v -0.288117 -0.128663 0.000000
v -0.184707 1.072574 0.000000
v 0.961585 -0.128663 0.000000
v -0.288117 0.648690 0.000000
v 1.152532 0.612601 0.000000
v 2.243156 0.085222 0.000000
v -1.971347 0.648690 -0.952502
v -2.080844 0.049228 -0.952502
v -2.033333 0.648690 0.000000
v -2.142829 0.049228 0.000000
v -0.288117 0.456876 -1.013965
v -0.288117 0.197758 -1.064473
v 0.961585 0.429691 -1.013965
v 0.961585 0.182604 -1.064473
v 2.026767 0.348918 -0.982153
v 2.026767 0.137575 -0.982153
v 2.287297 0.260408 0.000000
v 2.287297 0.137575 0.000000
v -2.087354 0.456876 -1.016975
v -2.087354 0.197758 -1.016975
v -2.149339 0.456876 0.000000
v -2.149339 0.197758 0.000000
v -0.184707 1.072574 -0.614259
v -0.288117 0.648690 -0.774586
v -0.288117 -0.128663 -0.774586
v 0.961639 0.612601 -0.852943
v 0.961585 -0.128663 -0.774586
v 2.118531 0.085222 -0.774586
v -2.033333 0.648690 -0.774586
v -2.142829 0.049228 -0.774586
v -2.149339 0.456876 -0.774586
v -2.149339 0.197758 -0.774586
v 2.162672 0.137575 -0.774586
v 2.162672 0.348918 -0.774586
v -0.170552 0.964274 -0.813052
v 0.510943 0.958112 -0.788181
v -0.229752 0.994953 0.000000
v 0.641481 0.988344 0.000000
v 0.564037 0.988344 -0.721974
v -0.229752 0.994953 -0.643618
v -0.288117 0.648690 -0.332905
v -0.288117 -0.128663 -0.332905
v -2.033333 0.648690 -0.332905
v -2.142829 0.049228 -0.332905
v -2.149339 0.456876 -0.332905
v -2.149339 0.197758 -0.332905
v 2.269022 0.137575 -0.332905
v 2.269022 0.260408 -0.332905
v -0.184707 1.072574 -0.263998
v 1.126296 0.612601 -0.332905
v 0.961585 -0.128663 -0.332905
v 2.224881 0.085222 -0.332905
v 0.628716 0.988344 -0.276616
v -0.229752 0.994953 -0.276616
v 1.310113 0.085222 -0.332905
v 1.326132 0.085222 0.000000
v 1.216887 0.085222 -0.774586
v 1.581733 0.457213 -1.147313
v 1.313204 0.384896 -1.147313
v 1.165337 0.233347 -1.147313
v 1.161102 0.113683 -1.147387
v 1.962541 0.275061 -1.147313
v 1.834996 0.407861 -1.147313
v 1.518152 0.559769 -0.774586
v 1.570960 0.505828 -0.901325
v 1.565040 0.420438 -1.149019
v 1.818302 0.371085 -1.149019
v 1.343907 0.354939 -1.147397
v 1.196040 0.203389 -1.147397
v 2.000275 0.132722 -0.984019
v 1.932132 0.269491 -1.149456
v 1.565849 0.409791 -0.815606
v 1.786491 0.366794 -0.815606
v 1.373199 0.352728 -0.814193
v 1.244376 0.220698 -0.814193
v 1.983109 0.085222 -0.774586
v 1.885660 0.278286 -0.815987
v 1.968222 0.085222 -0.332905
v -1.233670 0.347412 -1.163156
v -1.533376 0.267153 -1.153613
v -1.712029 0.017402 -1.128628
v -0.725916 -0.097171 -1.097745
v -0.761397 0.024574 -1.128628
v -0.939545 0.249963 -1.153613
v -0.613730 -0.097433 0.000000
v -0.613730 -0.090865 -0.950041
v -0.568156 0.648690 -0.958360
v -0.353758 0.648690 0.000000
v -0.614873 0.456876 -1.022833
v -0.614873 0.197758 -1.064473
v -0.353758 0.648690 -0.889402
v -0.613730 -0.097433 -0.774586
v -0.353758 0.648690 -0.332905
v -0.613730 -0.097433 -0.332905
v -1.838660 0.020054 0.000000
v -1.838660 0.021360 -0.990062
v -1.844102 0.456876 -1.056190
v -1.844102 0.197758 -1.064473
v -1.946726 0.648690 -0.889402
v -1.838660 0.020054 -0.774586
v -1.946726 0.648690 -0.332905
v -1.838660 0.020054 -0.332905
v -1.741879 0.648690 -0.991717
v -1.946726 0.648690 0.000000
v -1.155018 0.648690 -0.975038
v -1.170814 0.328136 0.000000
v -1.226195 -0.038689 0.000000
v -1.226195 -0.034753 -0.827161
v -1.229487 0.456876 -1.039511
v -1.170814 0.648690 -0.889402
v -1.226195 -0.038689 -0.774586
v -0.353758 0.328136 0.000000
v -1.226195 -0.038689 -0.332905
v -1.233670 0.316463 -1.163156
v -1.515603 0.242491 -1.153613
v -0.958607 0.227879 -1.153613
v -0.766547 -0.097171 -1.097745
v -0.801932 0.016329 -1.128628
v -1.715294 -0.023785 -0.784992
v -1.220831 0.283803 -0.899105
v -1.454849 0.222403 -0.891183
v -0.992517 0.210275 -0.891183
v -0.829581 -0.071089 -0.814202
v -0.862470 0.034679 -0.870445
v -0.768687 -0.082570 -0.774586
v -1.715356 0.008227 -0.774586
v -0.353758 0.442052 0.000000
v -0.353758 0.442052 -0.889402
v -1.170814 0.442052 -0.889402
v -1.946726 0.442052 -0.889402
v -1.946726 0.442052 -0.332905
v -1.946726 0.442052 0.000000
v -0.353758 0.328136 -0.332905
v -0.353758 0.328136 -0.889402
v -1.170814 0.328136 -0.889402
v -1.946726 0.328136 -0.889402
v -1.946726 0.328136 -0.332905
v -1.946726 0.328136 0.000000
v 0.317287 1.050186 -0.731928
v 0.427200 1.022309 -0.758578
v 0.378365 1.042021 -0.744998
v 0.533467 1.042945 0.000000
v 0.406134 1.072574 0.000000
v 0.471894 1.063896 0.000000
v 0.405565 1.072574 -0.614259
v 0.530855 1.038125 -0.626266
v 0.470962 1.062484 -0.617776
v 0.405994 1.072574 -0.263998
v 0.532478 1.041028 -0.268724
v 0.471563 1.063334 -0.265383
v 1.866674 0.469362 -0.890507
v 1.926639 0.444856 -0.904881
v 1.894050 0.456941 -0.918782
v 1.900585 0.460168 -0.894119
v 2.186809 0.479249 0.000000
v 2.133843 0.508839 0.000000
v 2.162954 0.498734 0.000000
v 2.003794 0.509340 -0.774586
v 2.062680 0.478606 -0.774586
v 2.036886 0.498693 -0.774586
v 2.110324 0.509362 -0.332905
v 2.168535 0.479249 -0.332905
v 2.144679 0.498727 -0.332905
v -0.197790 0.994953 -0.830918
v -0.256156 0.648690 -0.949493
v 0.526195 0.988344 -0.804304
v 0.873754 0.571728 -0.920876
v -0.219041 0.676637 -0.912129
v 0.803809 0.606872 -0.885931
v -0.170552 0.964274 -0.813052
v 0.510943 0.958112 -0.788181
v -0.219041 0.676637 0.000000
v 0.803809 0.606872 0.000000
v -0.170552 0.964274 0.000000
v 0.510943 0.958112 0.000000
v -0.288117 -0.120697 0.939402
v -0.184707 1.050186 0.731928
v 0.961585 -0.120697 0.939402
v -0.219041 0.676637 0.912129
v 0.803809 0.606872 0.885931
v -1.971347 0.648690 0.952502
v -2.080844 0.049228 0.952502
v -0.288117 0.456876 1.013965
v -0.288117 0.197758 1.064473
v 0.961585 0.429691 1.013965
v 0.961585 0.182604 1.064473
v 2.026767 0.348918 0.982153
v 2.026767 0.137575 0.982153
v -2.087354 0.456876 1.016975
v -2.087354 0.197758 1.016975
v -0.184707 1.072574 0.614259
v -0.288117 0.648690 0.774586
v -0.288117 -0.128663 0.774586
v 0.961639 0.612601 0.852943
v 0.961585 -0.128663 0.774586
v 2.118531 0.085222 0.774586
v -2.033333 0.648690 0.774586
v -2.142829 0.049228 0.774586
v -2.149339 0.456876 0.774586
v -2.149339 0.197758 0.774586
v 2.162672 0.137575 0.774586
v 2.162672 0.348918 0.774586
v -0.170552 0.964274 0.813052
v 0.510943 0.958112 0.788181
v 0.564037 0.988344 0.721974
v -0.229752 0.994953 0.643618
v -0.288117 0.648690 0.332905
v -0.288117 -0.128663 0.332905
v -2.033333 0.648690 0.332905
v -2.142829 0.049228 0.332905
v -2.149339 0.456876 0.332905
v -2.149339 0.197758 0.332905
v 2.269022 0.137575 0.332905
v 2.269022 0.260408 0.332905
v -0.184707 1.072574 0.263998
v 1.126296 0.612601 0.332905
v 0.961585 -0.128663 0.332905
v 2.224881 0.085222 0.332905
v 0.628716 0.988344 0.276616
v -0.229752 0.994953 0.276616
v 1.310113 0.085222 0.332905
v 1.216887 0.085222 0.774586
v 1.581733 0.457213 1.147313
v 1.313204 0.384896 1.147313
v 1.165337 0.233347 1.147313
v 1.161102 0.113683 1.147387
v 1.962541 0.275061 1.147313
v 1.834996 0.407861 1.147313
v 1.518152 0.559769 0.774586
v 1.570960 0.505828 0.901325
v 1.565040 0.420438 1.149019
v 1.818302 0.371085 1.149019
v 1.343907 0.354939 1.147397
v 1.196040 0.203389 1.147397
v 2.000275 0.132722 0.984019
v 1.932132 0.269491 1.149456
v 1.565849 0.409791 0.815606
v 1.786491 0.366794 0.815606
v 1.373199 0.352728 0.814193
v 1.244376 0.220698 0.814193
v 1.983109 0.085222 0.774586
v 1.885660 0.278286 0.815987
v 1.968222 0.085222 0.332905
v -1.233670 0.347412 1.163156
v -1.533376 0.267153 1.153613
v -1.712029 0.017402 1.128628
v -0.725916 -0.097171 1.097745
v -0.761397 0.024574 1.128628
v -0.939545 0.249963 1.153613
v -0.613730 -0.090865 0.950041
v -0.568156 0.648690 0.958360
v -0.614873 0.456876 1.022833
v -0.614873 0.197758 1.064473
v -0.353758 0.648690 0.889402
v -0.613730 -0.097433 0.774586
v -0.353758 0.648690 0.332905
v -0.613730 -0.097433 0.332905
v -1.838660 0.021360 0.990062
v -1.844102 0.456876 1.056190
v -1.844102 0.197758 1.064473
v -1.946726 0.648690 0.889402
v -1.838660 0.020054 0.774586
v -1.946726 0.648690 0.332905
v -1.838660 0.020054 0.332905
v -1.741879 0.648690 0.991717
v -1.155018 0.648690 0.975038
v -1.226195 -0.034753 0.827161
v -1.229487 0.456876 1.039511
v -1.170814 0.648690 0.889402
v -1.226195 -0.038689 0.774586
v -1.226195 -0.038689 0.332905
v -1.233670 0.316463 1.163156
v -1.515603 0.242491 1.153613
v -0.958607 0.227879 1.153613
v -0.766547 -0.097171 1.097745
v -0.801932 0.016329 1.128628
v -1.715294 -0.023785 0.784992
v -1.220831 0.283803 0.899105
v -1.454849 0.222403 0.891183
v -0.992517 0.210275 0.891183
v -0.829581 -0.071089 0.814202
v -0.862470 0.034679 0.870445
v -0.768687 -0.082570 0.774586
v -1.715356 0.008227 0.774586
v -0.353758 0.442052 0.889402
v -1.170814 0.442052 0.889402
v -1.946726 0.442052 0.889402
v -1.946726 0.442052 0.332905
v -0.353758 0.328136 0.332905
v -0.353758 0.328136 0.889402
v -1.170814 0.328136 0.889402
v -1.946726 0.328136 0.889402
v -1.946726 0.328136 0.332905
v 0.317287 1.050186 0.731928
v 0.427200 1.022309 0.758578
v 0.378365 1.042021 0.744998
v 0.405565 1.072574 0.614259
v 0.530855 1.038125 0.626266
v 0.470962 1.062484 0.617776
v 0.405994 1.072574 0.263998
v 0.532478 1.041028 0.268724
v 0.471563 1.063334 0.265383
v 1.866674 0.469362 0.890507
v 1.926639 0.444856 0.904881
v 1.894050 0.456941 0.918782
v 1.900585 0.460168 0.894119
v 2.003794 0.509340 0.774586
v 2.062680 0.478606 0.774586
v 2.036886 0.498693 0.774586
v 2.110324 0.509362 0.332905
v 2.168535 0.479249 0.332905
v 2.144679 0.498727 0.332905
v -0.197790 0.994953 0.830918
v -0.256156 0.648690 0.949493
v 0.526195 0.988344 0.804304
v 0.873754 0.571728 0.920876
v -0.219041 0.676637 0.912129
v 0.803809 0.606872 0.885931
v -0.170552 0.964274 0.813052
v 0.510943 0.958112 0.788181
vn 0.0297 0.4307 -0.9020
vn -0.1806 -0.3922 -0.9020
vn -0.0000 -1.0000 -0.0000
vn -0.0000 1.0000 -0.0000
vn -0.0955 -0.9954 -0.0000
vn -1.0000 -0.0000 -0.0000
vn -0.9990 -0.0438 -0.0000
vn 0.7638 -0.6440 -0.0419
vn 0.9985 -0.0000 -0.0548
vn -0.1507 0.3909 -0.9080
vn -0.1755 0.0157 -0.9844
vn -0.0023 -0.3732 -0.9277
vn 0.0033 0.1957 -0.9807
vn 0.8366 -0.0000 -0.5478
vn -0.9688 -0.0000 -0.2478
vn -0.8124 0.5316 -0.2396
vn 0.0264 0.3093 -0.9506
vn -0.1052 -0.9943 -0.0199
vn -0.9541 -0.1029 -0.2814
vn 0.1190 0.8840 -0.4520
vn -0.0000 -0.9988 -0.0483
vn -0.9600 0.2229 -0.1694
vn -0.8581 0.4976 -0.1265
vn 0.4908 0.6447 -0.5861
vn -0.9861 0.1662 -0.0000
vn 0.9722 -0.0000 -0.2341
vn 0.7519 -0.6340 -0.1810
vn -0.4585 -0.3388 -0.8216
vn -0.4010 0.1297 -0.9068
vn 0.9320 -0.0000 -0.3624
vn -0.2946 0.3430 -0.8919
vn 0.0030 0.8962 -0.4437
vn 0.6836 -0.5764 -0.4476
vn 0.5144 -0.8575 -0.0124
vn 0.5770 -0.8145 -0.0609
vn 0.0083 0.0426 -0.9991
vn -0.0014 0.0014 -1.0000
vn 0.6688 -0.7338 -0.1191
vn 0.1792 -0.7207 -0.6697
vn -0.0103 0.0247 -0.9996
vn 0.0415 0.0446 -0.9981
vn -0.0021 0.0007 -1.0000
vn 0.7141 -0.6968 -0.0674
vn -0.6643 -0.7439 -0.0729
vn -0.8486 -0.5113 -0.1359
vn -0.1912 -0.9811 -0.0309
vn 0.2837 -0.9584 -0.0313
vn 0.9468 -0.2878 -0.1442
vn 0.0318 -0.9707 -0.2381
vn 0.0043 -0.1529 -0.9882
vn -0.0926 -0.9948 -0.0425
vn 0.0134 0.1750 -0.9845
vn 0.0264 0.3136 -0.9492
vn -0.0016 -0.3670 -0.9302
vn -0.0000 -0.0000 1.0000
vn -0.0365 -0.9128 0.4069
vn 0.2826 0.1366 -0.9495
vn -0.1116 -0.9924 -0.0517
vn 0.0847 0.5695 -0.8176
vn -0.0431 0.5647 -0.8241
vn -0.2896 0.0703 -0.9546
vn 0.6959 -0.1837 -0.6942
vn 0.0300 -0.0108 -0.9995
vn -0.0302 -0.0097 -0.9995
vn 0.0251 -0.2468 -0.9687
vn 0.0417 -0.0819 -0.9958
vn -0.0694 -0.0500 -0.9963
vn -0.7101 -0.2921 -0.6406
vn -0.7874 -0.5999 -0.1420
vn 0.2475 -0.9600 -0.1308
vn 0.6918 -0.7089 -0.1373
vn -0.9167 -0.3569 -0.1798
vn -0.3017 -0.9479 -0.1026
vn -0.0351 -0.9963 0.0788
vn -0.0914 -0.9902 -0.1052
vn -0.3226 -0.9379 0.1274
vn -0.1608 -0.9798 -0.1190
vn -0.0481 -0.2732 -0.9608
vn 1.0000 -0.0000 -0.0000
vn -0.8557 0.5175 -0.0000
vn 0.2915 0.8921 -0.3452
vn 0.1066 0.9631 -0.2472
vn 0.3598 0.9330 -0.0061
vn 0.1460 0.9893 -0.0014
vn 0.3329 0.9430 -0.0052
vn 0.1352 0.9908 -0.0012
vn -0.0000 0.9824 -0.1869
vn 0.2983 0.9172 -0.2643
vn 0.0178 0.8340 -0.5515
vn 0.4645 0.8854 -0.0148
vn 0.5940 0.8028 -0.0520
vn 0.2383 0.9528 -0.1878
vn 0.4222 0.8777 -0.2267
vn 0.3619 0.7128 -0.6008
vn 0.2155 0.8235 -0.5248
vn 0.6162 0.7733 -0.1496
vn 0.3001 0.9511 -0.0729
vn 0.6321 0.7741 -0.0347
vn 0.3106 0.9504 -0.0188
vn 0.1071 0.9141 -0.3910
vn 0.5611 0.7238 -0.4016
vn 0.1560 0.9631 -0.2193
vn 0.5501 0.6622 -0.5089
vn 0.1047 0.9945 -0.0070
vn 0.9076 0.4168 -0.0498
vn 0.8561 0.4925 -0.1567
vn 0.1024 0.9944 -0.0275
vn -0.8649 0.5019 -0.0000
vn 0.6477 0.1475 -0.7475
vn -0.5126 -0.1940 -0.8364
vn 0.0685 0.7669 -0.6381
vn 0.0277 -0.4829 -0.8752
vn 0.0680 0.9977 -0.0000
vn 0.9861 -0.1662 -0.0000
vn -0.0090 -1.0000 -0.0000
vn -0.7680 -0.6404 -0.0000
vn 0.0297 0.4307 0.9020
vn -0.1806 -0.3922 0.9020
vn 0.7638 -0.6440 0.0419
vn 0.9985 -0.0000 0.0548
vn -0.1507 0.3909 0.9080
vn -0.1755 0.0157 0.9844
vn -0.0023 -0.3732 0.9277
vn 0.0033 0.1957 0.9807
vn 0.8366 -0.0000 0.5478
vn -0.9688 -0.0000 0.2478
vn -0.8124 0.5316 0.2396
vn 0.0264 0.3093 0.9506
vn -0.1052 -0.9943 0.0199
vn -0.9541 -0.1029 0.2814
vn 0.1190 0.8840 0.4520
vn -0.0000 -0.9988 0.0483
vn -0.9600 0.2229 0.1694
vn -0.8581 0.4976 0.1265
vn 0.4908 0.6447 0.5861
vn 0.9722 -0.0000 0.2341
vn 0.7519 -0.6340 0.1810
vn -0.4585 -0.3388 0.8216
vn -0.4010 0.1297 0.9068
vn 0.9320 -0.0000 0.3624
vn -0.2946 0.3430 0.8919
vn 0.0030 0.8962 0.4437
vn 0.6836 -0.5764 0.4476
vn 0.5144 -0.8575 0.0124
vn 0.5770 -0.8145 0.0609
vn 0.0083 0.0426 0.9991
vn -0.0014 0.0014 1.0000
vn 0.6688 -0.7338 0.1191
vn 0.1792 -0.7207 0.6697
vn -0.0103 0.0247 0.9996
vn 0.0415 0.0446 0.9981
vn -0.0021 0.0007 1.0000
vn 0.7141 -0.6968 0.0674
vn -0.6643 -0.7439 0.0729
vn -0.8486 -0.5113 0.1359
vn -0.1912 -0.9811 0.0309
vn 0.2837 -0.9584 0.0313
vn 0.9468 -0.2878 0.1442
vn 0.0318 -0.9707 0.2381
vn 0.0043 -0.1529 0.9882
vn -0.0926 -0.9948 0.0425
vn 0.0134 0.1750 0.9845
vn 0.0264 0.3136 0.9492
vn -0.0016 -0.3670 0.9302
vn -0.0000 -0.0000 -1.0000
vn -0.0365 -0.9128 -0.4069
vn 0.2826 0.1366 0.9495
vn -0.1116 -0.9924 0.0517
vn 0.0847 0.5695 0.8176
vn -0.0431 0.5647 0.8241
vn -0.2896 0.0703 0.9546
vn 0.6959 -0.1837 0.6942
vn 0.0300 -0.0108 0.9995
vn -0.0302 -0.0097 0.9995
vn 0.0251 -0.2468 0.9687
vn 0.0417 -0.0819 0.9958
vn -0.0694 -0.0500 0.9963
vn -0.7101 -0.2921 0.6406
vn -0.7874 -0.5999 0.1420
vn 0.2475 -0.9600 0.1308
vn 0.6918 -0.7089 0.1373
vn -0.9167 -0.3569 0.1798
vn -0.3017 -0.9479 0.1026
vn -0.0351 -0.9963 -0.0788
vn -0.0914 -0.9902 0.1052
vn -0.3226 -0.9379 -0.1274
vn -0.1608 -0.9798 0.1190
vn -0.0481 -0.2732 0.9608
vn 0.2915 0.8921 0.3452
vn 0.1066 0.9631 0.2472
vn 0.3598 0.9330 0.0061
vn 0.1460 0.9893 0.0014
vn 0.3329 0.9430 0.0052
vn 0.1352 0.9908 0.0012
vn -0.0000 0.9824 0.1869
vn 0.2983 0.9172 0.2643
vn 0.0178 0.8340 0.5515
vn 0.4645 0.8854 0.0148
vn 0.5940 0.8028 0.0520
vn 0.2383 0.9528 0.1878
vn 0.4222 0.8777 0.2267
vn 0.3619 0.7128 0.6008
vn 0.2155 0.8235 0.5248
vn 0.6162 0.7733 0.1496
vn 0.3001 0.9511 0.0729
vn 0.6321 0.7741 0.0347
vn 0.3106 0.9504 0.0188
vn 0.1071 0.9141 0.3910
vn 0.5611 0.7238 0.4016
vn 0.1560 0.9631 0.2193
vn 0.5501 0.6622 0.5089
vn 0.1047 0.9945 0.0070
vn 0.9076 0.4168 0.0498
vn 0.8561 0.4925 0.1567
vn 0.1024 0.9944 0.0275
vn 0.6477 0.1475 0.7475
vn -0.5126 -0.1940 0.8364
vn 0.0685 0.7669 0.6381
vn 0.0277 -0.4829 0.8752
vt 0.469156 0.250000
vt 0.500000 0.250000
vt 0.500000 0.500000
vt 0.469156 0.500000
vt 0.427489 0.250000
vt 0.375000 0.250000
vt 0.375000 0.250000
vt 0.427489 0.250000
vt 0.375000 0.500000
vt 0.500000 0.250000
vt 0.469156 0.250000
vt 0.427489 0.500000
vt 0.427489 0.500000
vt 0.469156 0.500000
vt 0.469156 0.500000
vt 0.427489 0.500000
vt 0.500000 0.500000
vt 0.375000 0.500000
vt 0.602110 0.250000
vt 0.602110 0.250000
vt 0.625000 0.250000
vt 0.602110 0.500000
vt 0.602110 0.500000
vt 0.500000 0.250000
vt 0.000000 0.000000
vt 0.427489 0.250000
vt 0.375000 0.250000
vt 0.615638 0.500000
vt 0.614682 0.500000
vt 0.623989 0.497272
vt 0.625000 0.500000
vt 0.625000 0.469507
vt 0.625000 0.473737
vt 0.616427 0.500000
vt 0.625000 0.500000
vt 0.625000 0.473899
vt 0.616948 0.500000
vt 0.625000 0.473952
vt 0.500000 0.500000
vt 0.442477 0.442477
vt 0.442477 0.442477
vt 0.494724 0.500000
vt 0.494759 0.500000
vt 0.494727 0.500000
vt 0.494851 0.500000
vt 0.494851 0.500000
vt 0.593363 0.259844
vt 0.508739 0.257948
vt 0.507964 0.490197
vt 0.594251 0.488367
s 0
f 16/1/1 170/2/1 172/3/1 18/4/1
f 103/5/2 101/6/2 13/7/2 25/8/2
f 47/7/3 56/9/3 8/9/3 6/7/3
f 106/2/4 104/2/4 34/2/4 48/2/4 14/2/4 109/2/4
f 107/7/5 100/7/5 15/7/5 49/7/5
f 104/2/4 108/10/4 12/2/4 34/2/4
f 51/8/6 27/8/6 26/11/6 50/11/6 36/11/6 37/8/6
f 49/7/7 15/7/7 27/8/7 51/8/7 37/8/7 35/7/7
f 57/9/8 52/12/8 23/13/8 11/9/8
f 52/12/9 53/14/9 22/15/9 23/13/9
f 108/10/10 102/11/10 24/11/10 12/2/10
f 102/11/11 103/5/11 25/8/11 24/11/11
f 1/7/12 17/8/12 19/16/12 3/9/12
f 17/8/13 16/1/13 18/4/13 19/16/13
f 21/13/14 20/14/14 39/14/14 38/13/14
f 24/11/15 25/8/15 37/8/15 36/11/15
f 12/2/16 24/11/16 36/11/16 34/2/16
f 114/1/17 102/11/17 108/10/17 110/2/17 92/2/17 94/1/17
f 101/6/18 105/7/18 35/7/18 13/7/18
f 25/8/19 13/7/19 35/7/19 37/8/19
f 172/3/20 31/17/20 69/17/20 70/3/20
f 1/7/21 3/9/21 32/9/21 30/7/21
f 60/9/3 62/18/3 81/9/3 83/9/3
f 169/19/22 170/2/22 29/2/22 45/20/22
f 2/21/23 169/19/23 45/20/23 28/21/23
f 172/3/24 171/22/24 44/23/24 31/17/24
f 46/24/25 9/2/25 42/20/25 59/20/25 45/20/25 29/2/25
f 61/9/3 60/9/3 83/9/3 57/9/3 11/9/3
f 38/13/26 39/14/26 53/14/26 52/12/26
f 33/9/27 38/13/27 52/12/27 57/9/27
f 105/7/5 107/7/5 49/7/5 35/7/5
f 30/7/3 32/9/3 56/9/3 47/7/3
f 19/25/28 66/25/28 3/25/28
f 65/25/29 66/25/29 19/25/29 18/25/29
f 67/25/30 20/14/30 21/13/30
f 64/25/31 65/25/31 18/25/31 172/25/31
f 63/25/32 64/25/32 172/3/32 70/3/32
f 38/25/33 33/25/33 21/25/33
f 8/9/34 56/9/34 60/9/34 61/9/34
f 56/9/35 32/9/35 62/18/35 60/9/35
f 63/25/36 68/25/36 72/25/36 71/25/36
f 65/25/37 64/25/37 73/25/37 74/25/37
f 3/25/38 66/25/38 62/18/38 32/9/38
f 67/25/39 21/13/39 75/13/39 76/25/39
f 73/25/40 64/25/40 63/25/40 71/25/40
f 67/25/41 76/25/41 72/25/41 68/25/41
f 65/25/42 74/25/42 66/25/42
f 74/25/43 73/25/43 79/25/43 80/25/43
f 72/25/44 76/25/44 82/25/44 78/25/44
f 76/25/45 75/13/45 81/13/45 82/25/45
f 71/25/46 72/25/46 78/25/46 77/25/46
f 73/25/47 71/25/47 77/25/47 79/25/47
f 74/25/48 80/25/48 62/18/48 66/25/48
f 81/13/49 75/13/49 21/13/49 33/25/49
f 83/9/3 81/9/3 33/9/3 57/9/3
f 78/25/50 82/25/50 81/9/50 62/18/50 80/25/50 79/25/50 77/25/50
f 30/7/5 47/7/5 99/7/5 97/7/5
f 9/2/4 46/24/4 98/24/4 93/2/4
f 1/7/51 30/7/51 97/7/51 91/7/51
f 46/24/4 29/2/4 96/2/4 98/24/4
f 16/1/52 17/8/52 95/26/52 94/1/52
f 170/2/53 16/1/53 94/1/53 92/2/53
f 29/2/4 170/2/4 92/2/4 96/2/4
f 47/7/5 6/7/5 90/7/5 99/7/5
f 17/8/54 1/7/54 91/7/54 95/26/54
f 116/27/5 118/7/5 107/7/5 105/7/5 131/7/5
f 115/2/55 104/2/55 135/2/55 134/2/55
f 113/7/56 116/27/56 131/7/56 124/7/56
f 115/2/4 110/2/4 108/10/4 104/2/4
f 118/7/5 112/7/5 100/7/5 107/7/5
f 95/26/57 88/25/57 89/25/57 94/1/57
f 99/7/5 90/7/5 112/7/5 118/7/5
f 96/2/4 92/2/4 110/2/4 115/2/4
f 96/2/55 115/2/55 134/2/55 133/2/55
f 91/7/58 97/7/58 130/27/58 128/7/58
f 97/7/5 99/7/5 118/7/5 116/27/5 130/27/5
f 94/1/59 89/25/59 84/25/59 114/1/59
f 114/1/60 84/25/60 85/25/60 102/11/60
f 102/11/61 85/25/61 86/25/61 103/5/61
f 91/7/62 87/25/62 88/25/62 95/26/62
f 84/25/63 89/25/63 121/25/63 119/25/63
f 85/25/64 84/25/64 119/25/64 120/25/64
f 88/25/65 87/25/65 122/25/65 123/25/65
f 88/25/66 123/25/66 121/25/66 89/25/66
f 85/25/67 120/25/67 86/25/67
f 103/5/68 86/25/68 101/6/68
f 121/25/69 123/25/69 129/25/69 127/25/69
f 120/25/70 119/25/70 125/25/70 126/25/70
f 86/25/71 120/25/71 126/25/71 124/25/71
f 123/25/72 122/25/72 128/25/72 129/25/72
f 119/25/73 121/25/73 127/25/73 125/25/73
f 91/7/74 128/25/74 122/25/74 87/25/74
f 128/7/75 130/27/75 116/27/75 113/7/75
f 124/7/76 131/7/76 105/7/76 101/6/76
f 101/6/77 86/25/77 124/7/77
f 128/7/78 113/7/78 124/25/78 126/25/78 125/25/78 127/25/78 129/25/78
f 134/2/55 135/2/55 141/2/55 140/2/55
f 136/2/79 137/2/79 143/2/79 142/2/79
f 50/11/80 26/11/80 14/2/80 48/2/80 34/2/80 36/11/80
f 104/2/79 106/2/79 136/2/79 135/2/79
f 106/2/79 109/2/79 137/2/79 136/2/79
f 93/2/6 98/24/6 96/2/6 133/2/6 139/2/6 138/24/6 117/2/6 132/2/6
f 133/2/55 134/2/55 140/2/55 139/2/55
f 135/2/79 136/2/79 142/2/79 141/2/79
f 151/28/81 145/29/81 146/30/81 152/31/81
f 152/31/82 146/30/82 144/32/82 150/33/82
f 154/34/83 151/28/83 152/31/83 155/35/83
f 155/35/84 152/31/84 150/33/84 153/36/84
f 147/37/85 154/34/85 155/35/85 149/35/85
f 149/35/86 155/35/86 153/36/86 148/38/86
f 144/32/87 2/21/87 28/21/87 150/33/87
f 171/22/88 145/29/88 151/28/88 44/23/88
f 169/19/89 2/21/89 144/32/89 146/30/89 145/29/89 171/22/89
f 153/36/4 54/21/4 7/21/4 148/38/4
f 58/22/90 154/34/90 147/37/90 43/22/90
f 44/23/91 151/28/91 154/34/91 58/22/91
f 150/33/4 28/21/4 54/21/4 153/36/4
f 156/3/92 159/39/92 158/40/92
f 159/39/93 157/3/93 158/41/93
f 164/42/94 157/43/94 159/3/94 165/3/94
f 165/3/95 159/3/95 156/3/95 163/3/95
f 167/44/96 164/42/96 165/3/96 168/17/96
f 168/17/97 165/3/97 163/3/97 166/17/97
f 160/45/98 167/46/98 168/17/98 162/3/98
f 162/3/99 168/17/99 166/17/99 161/3/99
f 70/3/100 69/17/100 163/3/100 156/3/100
f 67/25/101 68/25/101 158/40/101 157/43/101 20/14/101
f 68/25/102 63/25/102 70/3/102 156/3/102 158/40/102
f 20/14/103 157/43/103 164/42/103 39/14/103
f 55/3/104 10/3/104 161/3/104 166/17/104
f 53/14/105 167/46/105 160/45/105 22/15/105
f 39/14/106 164/42/106 167/44/106 53/14/106
f 31/17/107 55/3/107 166/17/107 163/3/107 69/17/107
f 142/2/4 143/2/4 111/2/4 117/2/4 138/24/4 139/2/4 140/2/4 141/2/4
f 59/20/108 42/20/108 7/21/108 54/21/108 28/21/108 45/20/108
f 40/47/109 4/48/109 170/2/109 169/19/109
f 5/49/110 41/50/110 171/22/110 172/3/110
f 4/48/111 5/49/111 172/3/111 170/2/111
f 41/50/112 40/47/112 169/19/112 171/22/112
f 174/25/113 173/25/113 177/25/113 178/25/113
f 173/25/114 175/25/114 179/25/114 177/25/114
f 176/25/115 180/25/115 179/25/115 175/25/115
f 174/25/116 178/25/116 180/25/116 176/25/116
f 188/1/117 190/4/117 321/3/117 319/2/117
f 265/5/118 195/8/118 187/7/118 263/6/118
f 213/7/3 6/7/3 8/9/3 222/9/3
f 268/2/4 109/2/4 14/2/4 214/2/4 202/2/4 266/2/4
f 269/7/5 215/7/5 15/7/5 100/7/5
f 266/2/4 202/2/4 186/2/4 270/10/4
f 217/8/6 205/8/6 204/11/6 216/11/6 26/11/6 27/8/6
f 215/7/7 203/7/7 205/8/7 217/8/7 27/8/7 15/7/7
f 223/9/119 11/9/119 23/13/119 218/12/119
f 218/12/120 23/13/120 22/15/120 219/14/120
f 270/10/121 186/2/121 194/11/121 264/11/121
f 264/11/122 194/11/122 195/8/122 265/5/122
f 181/7/123 183/9/123 191/16/123 189/8/123
f 189/8/124 191/16/124 190/4/124 188/1/124
f 193/13/125 206/13/125 207/14/125 192/14/125
f 194/11/126 204/11/126 205/8/126 195/8/126
f 186/2/127 202/2/127 204/11/127 194/11/127
f 273/1/128 257/1/128 256/2/128 271/2/128 270/10/128 264/11/128
f 263/6/129 187/7/129 203/7/129 267/7/129
f 195/8/130 205/8/130 203/7/130 187/7/130
f 321/3/131 235/3/131 234/17/131 199/17/131
f 181/7/132 198/7/132 200/9/132 183/9/132
f 226/9/3 248/9/3 246/9/3 227/18/3
f 318/19/133 211/20/133 197/2/133 319/2/133
f 182/21/134 196/21/134 211/20/134 318/19/134
f 321/3/135 199/17/135 210/23/135 320/22/135
f 212/24/25 197/2/25 211/20/25 225/20/25 42/20/25 9/2/25
f 61/9/3 11/9/3 223/9/3 248/9/3 226/9/3
f 206/13/136 218/12/136 219/14/136 207/14/136
f 201/9/137 223/9/137 218/12/137 206/13/137
f 267/7/5 203/7/5 215/7/5 269/7/5
f 198/7/3 213/7/3 222/9/3 200/9/3
f 191/25/138 183/25/138 231/25/138
f 230/25/139 190/25/139 191/25/139 231/25/139
f 232/25/140 193/13/140 192/14/140
f 229/25/141 321/25/141 190/25/141 230/25/141
f 228/25/142 235/3/142 321/3/142 229/25/142
f 206/25/143 193/25/143 201/25/143
f 8/9/144 61/9/144 226/9/144 222/9/144
f 222/9/145 226/9/145 227/18/145 200/9/145
f 228/25/146 236/25/146 237/25/146 233/25/146
f 230/25/147 239/25/147 238/25/147 229/25/147
f 183/25/148 200/9/148 227/18/148 231/25/148
f 232/25/149 241/25/149 240/13/149 193/13/149
f 238/25/150 236/25/150 228/25/150 229/25/150
f 232/25/151 233/25/151 237/25/151 241/25/151
f 230/25/152 231/25/152 239/25/152
f 239/25/153 245/25/153 244/25/153 238/25/153
f 237/25/154 243/25/154 247/25/154 241/25/154
f 241/25/155 247/25/155 246/13/155 240/13/155
f 236/25/156 242/25/156 243/25/156 237/25/156
f 238/25/157 244/25/157 242/25/157 236/25/157
f 239/25/158 231/25/158 227/18/158 245/25/158
f 246/13/159 201/25/159 193/13/159 240/13/159
f 248/9/3 223/9/3 201/9/3 246/9/3
f 243/25/160 242/25/160 244/25/160 245/25/160 227/18/160 246/9/160 247/25/160
f 198/7/5 260/7/5 262/7/5 213/7/5
f 9/2/4 93/2/4 261/24/4 212/24/4
f 181/7/161 255/7/161 260/7/161 198/7/161
f 212/24/4 261/24/4 259/2/4 197/2/4
f 188/1/162 257/1/162 258/26/162 189/8/162
f 319/2/163 256/2/163 257/1/163 188/1/163
f 197/2/4 259/2/4 256/2/4 319/2/4
f 213/7/5 262/7/5 90/7/5 6/7/5
f 189/8/164 258/26/164 255/7/164 181/7/164
f 275/27/5 289/7/5 267/7/5 269/7/5 276/7/5
f 274/2/165 291/2/165 292/2/165 266/2/165
f 272/7/166 282/7/166 289/7/166 275/27/166
f 274/2/4 266/2/4 270/10/4 271/2/4
f 276/7/5 269/7/5 100/7/5 112/7/5
f 258/26/167 257/1/167 254/25/167 253/25/167
f 262/7/5 276/7/5 112/7/5 90/7/5
f 259/2/4 274/2/4 271/2/4 256/2/4
f 259/2/165 290/2/165 291/2/165 274/2/165
f 255/7/168 286/7/168 288/27/168 260/7/168
f 260/7/5 288/27/5 275/27/5 276/7/5 262/7/5
f 257/1/169 273/1/169 249/25/169 254/25/169
f 273/1/170 264/11/170 250/25/170 249/25/170
f 264/11/171 265/5/171 251/25/171 250/25/171
f 255/7/172 258/26/172 253/25/172 252/25/172
f 249/25/173 277/25/173 279/25/173 254/25/173
f 250/25/174 278/25/174 277/25/174 249/25/174
f 253/25/175 281/25/175 280/25/175 252/25/175
f 253/25/176 254/25/176 279/25/176 281/25/176
f 250/25/177 251/25/177 278/25/177
f 265/5/178 263/6/178 251/25/178
f 279/25/179 285/25/179 287/25/179 281/25/179
f 278/25/180 284/25/180 283/25/180 277/25/180
f 251/25/181 282/25/181 284/25/181 278/25/181
f 281/25/182 287/25/182 286/25/182 280/25/182
f 277/25/183 283/25/183 285/25/183 279/25/183
f 255/7/184 252/25/184 280/25/184 286/25/184
f 286/7/185 272/7/185 275/27/185 288/27/185
f 282/7/186 263/6/186 267/7/186 289/7/186
f 263/6/187 282/7/187 251/25/187
f 286/7/188 287/25/188 285/25/188 283/25/188 284/25/188 282/25/188 272/7/188
f 291/2/165 296/2/165 297/2/165 292/2/165
f 293/2/79 298/2/79 143/2/79 137/2/79
f 216/11/80 204/11/80 202/2/80 214/2/80 14/2/80 26/11/80
f 266/2/79 292/2/79 293/2/79 268/2/79
f 268/2/79 293/2/79 137/2/79 109/2/79
f 93/2/6 132/2/6 117/2/6 294/24/6 295/2/6 290/2/6 259/2/6 261/24/6
f 290/2/165 295/2/165 296/2/165 291/2/165
f 292/2/79 297/2/79 298/2/79 293/2/79
f 303/28/189 304/31/189 301/30/189 300/29/189
f 304/31/190 302/33/190 299/32/190 301/30/190
f 306/34/191 307/35/191 304/31/191 303/28/191
f 307/35/192 305/36/192 302/33/192 304/31/192
f 147/37/193 149/35/193 307/35/193 306/34/193
f 149/35/194 148/38/194 305/36/194 307/35/194
f 299/32/195 302/33/195 196/21/195 182/21/195
f 320/22/196 210/23/196 303/28/196 300/29/196
f 318/19/197 320/22/197 300/29/197 301/30/197 299/32/197 182/21/197
f 305/36/4 148/38/4 7/21/4 220/21/4
f 224/22/198 43/22/198 147/37/198 306/34/198
f 210/23/199 224/22/199 306/34/199 303/28/199
f 302/33/4 305/36/4 220/21/4 196/21/4
f 308/3/200 310/40/200 311/39/200
f 311/39/201 310/41/201 309/3/201
f 313/42/202 314/3/202 311/3/202 309/43/202
f 314/3/203 312/3/203 308/3/203 311/3/203
f 316/44/204 317/17/204 314/3/204 313/42/204
f 317/17/205 315/17/205 312/3/205 314/3/205
f 160/45/206 162/3/206 317/17/206 316/46/206
f 162/3/207 161/3/207 315/17/207 317/17/207
f 235/3/208 308/3/208 312/3/208 234/17/208
f 232/25/209 192/14/209 309/43/209 310/40/209 233/25/209
f 233/25/210 310/40/210 308/3/210 235/3/210 228/25/210
f 192/14/211 207/14/211 313/42/211 309/43/211
f 221/3/212 315/17/212 161/3/212 10/3/212
f 219/14/213 22/15/213 160/45/213 316/46/213
f 207/14/214 219/14/214 316/44/214 313/42/214
f 199/17/215 234/17/215 312/3/215 315/17/215 221/3/215
f 298/2/4 297/2/4 296/2/4 295/2/4 294/24/4 117/2/4 111/2/4 143/2/4
f 225/20/108 211/20/108 196/21/108 220/21/108 7/21/108 42/20/108
f 208/47/216 318/19/216 319/2/216 184/48/216
f 185/49/217 321/3/217 320/22/217 209/50/217
f 184/48/218 319/2/218 321/3/218 185/49/218
f 209/50/219 320/22/219 318/19/219 208/47/219
f 323/25/113 178/25/113 177/25/113 322/25/113
f 322/25/114 177/25/114 179/25/114 324/25/114
f 325/25/115 324/25/115 179/25/115 180/25/115
f 323/25/116 325/25/116 180/25/116 178/25/116
g windows
v -0.219041 0.676637 -0.912129
v 0.803809 0.606872 -0.885931
v 1.152532 0.612601 0.000000
v 0.961639 0.612601 -0.852943
v -0.170552 0.964274 -0.813052
v 0.510943 0.958112 -0.788181
v 0.641481 0.988344 0.000000
v 0.564037 0.988344 -0.721974
v 1.126296 0.612601 -0.332905
v 0.628716 0.988344 -0.276616
v -0.219041 0.676637 0.912129
v 0.803809 0.606872 0.885931
v 0.961639 0.612601 0.852943
v -0.170552 0.964274 0.813052
v 0.510943 0.958112 0.788181
v 0.564037 0.988344 0.721974
v 1.126296 0.612601 0.332905
v 0.628716 0.988344 0.276616
vn 0.5957 0.8023 -0.0381
vn 0.0422 0.3089 -0.9502
vn 0.6178 0.7725 -0.1468
vn 0.5957 0.8023 0.0381
vn 0.0422 0.3089 0.9502
vn 0.6178 0.7725 0.1468
vt 0.500000 0.500000
vt 0.602110 0.500000
vt 0.508739 0.257948
vt 0.593363 0.259844
vt 0.594251 0.488367
vt 0.507964 0.490197
vt 0.500000 0.500000
vt 0.602110 0.500000
s 0
f 334/51/220 335/52/220 332/52/220 328/51/220
f 326/53/221 330/54/221 331/55/221 327/56/221
f 329/57/222 333/58/222 335/52/222 334/51/222
f 342/51/223 328/51/223 332/52/223 343/52/223
f 336/53/224 337/56/224 340/55/224 339/54/224
f 338/57/225 342/51/225 343/52/225 341/58/225
g bars
v -0.496191 0.018447 -0.780021
v -0.402595 0.018447 -0.780021
v -0.313995 1.118341 -0.592522
v -0.345885 1.151561 -0.592522
v -0.496191 0.741314 -0.780021
v -0.385747 1.151561 -0.592522
v -0.402595 0.741314 -0.780021
v -0.407591 1.063754 -0.656896
v -0.313995 1.063754 -0.592522
v -0.313995 1.063754 -0.656896
v -0.407591 1.063754 0.014004
v -0.407591 1.063754 -0.592522
v -0.313995 1.063754 0.014004
v -0.385747 1.151561 -0.656896
v -0.496191 0.018447 -0.845187
v -0.474347 0.018447 -0.867808
v -0.407591 1.107157 -0.706206
v -0.385747 1.122428 -0.723391
v -0.496191 0.741314 -0.845156
v -0.474347 0.741314 -0.867808
v -0.407591 1.063754 -0.721976
v -0.385747 1.063754 -0.744683
v -0.385747 1.151561 0.014004
v -0.407591 1.128838 0.014004
v -0.345885 1.151561 -0.656896
v -0.313995 1.118336 -0.656896
v -0.434485 0.018447 -0.867808
v -0.402595 0.018447 -0.834784
v -0.313995 1.100134 -0.698303
v -0.345885 1.122428 -0.723391
v -0.434485 0.741314 -0.867808
v -0.402595 0.741314 -0.834739
v -0.345885 1.063754 -0.744683
v -0.313995 1.063754 -0.711534
v -0.313995 1.118387 0.014004
v -0.345885 1.151561 0.014004
v -0.793550 1.020428 -0.656896
v -0.793550 1.020428 -0.592522
v -1.161980 0.767712 -0.656887
v -1.161980 0.767712 -0.592513
v -1.737800 0.237175 -0.656873
v -1.737800 0.237175 -0.592499
v -0.823712 1.053163 -0.656896
v -0.823712 1.053165 -0.592522
v -0.407591 1.128805 -0.609249
v -0.407591 1.114019 -0.592522
v -0.407591 1.128807 -0.575795
v -0.396007 1.140873 -0.592522
v -0.407591 1.114016 -0.656896
v -0.407591 1.128804 -0.640169
v -0.396008 1.140871 -0.656896
v -0.407591 1.122079 -0.672212
v -1.221915 0.832762 -0.640160
v -1.209045 0.818793 -0.656887
v -1.209045 0.818796 -0.592513
v -1.221915 0.832763 -0.609240
v -1.797735 0.302225 -0.640146
v -1.784924 0.288320 -0.656873
v -1.784925 0.288323 -0.592499
v -1.797735 0.302226 -0.609226
v -0.858582 1.054590 -0.656895
v -0.885800 1.055704 -0.640168
v -0.809546 1.085477 -0.640169
v -0.815994 1.070767 -0.656896
v -0.815994 1.070770 -0.592522
v -0.809546 1.042065 -0.609249
v -0.885800 1.055706 -0.609248
v -0.858582 1.054593 -0.592521
v -0.496191 0.018447 0.808029
v -0.402595 0.018447 0.808029
v -0.313995 1.118341 0.620529
v -0.345885 1.151561 0.620529
v -0.496191 0.741314 0.808029
v -0.385747 1.151561 0.620529
v -0.402595 0.741314 0.808029
v -0.407591 1.063754 0.684904
v -0.313995 1.063754 0.620529
v -0.313995 1.063754 0.684904
v -0.407591 1.063754 0.620529
v -0.385747 1.151561 0.684904
v -0.496191 0.018447 0.873195
v -0.474347 0.018447 0.895815
v -0.407591 1.107157 0.734214
v -0.385747 1.122428 0.751399
v -0.496191 0.741314 0.873164
v -0.474347 0.741314 0.895815
v -0.407591 1.063754 0.749984
v -0.385747 1.063754 0.772690
v -0.345885 1.151561 0.684904
v -0.313995 1.118336 0.684904
v -0.434485 0.018447 0.895815
v -0.402595 0.018447 0.862792
v -0.313995 1.100134 0.726310
v -0.345885 1.122428 0.751399
v -0.434485 0.741314 0.895815
v -0.402595 0.741314 0.862746
v -0.345885 1.063754 0.772690
v -0.313995 1.063754 0.739541
v -0.793550 1.020428 0.684904
v -0.793550 1.020428 0.620529
v -1.161980 0.767712 0.684895
v -1.161980 0.767712 0.620520
v -1.737800 0.237175 0.684881
v -1.737800 0.237175 0.620506
v -0.823712 1.053163 0.684904
v -0.823712 1.053165 0.620529
v -0.407591 1.128805 0.637256
v -0.407591 1.114019 0.620529
v -0.407591 1.128807 0.603802
v -0.396007 1.140873 0.620529
v -0.407591 1.114016 0.684904
v -0.407591 1.128804 0.668176
v -0.396008 1.140871 0.684904
v -0.407591 1.122079 0.700220
v -1.221915 0.832762 0.668168
v -1.209045 0.818793 0.684895
v -1.209045 0.818796 0.620520
v -1.221915 0.832763 0.637247
v -1.797735 0.302225 0.668154
v -1.784924 0.288320 0.684881
v -1.784925 0.288323 0.620506
v -1.797735 0.302226 0.637233
v -0.858582 1.054590 0.684903
v -0.885800 1.055704 0.668176
v -0.809546 1.085477 0.668176
v -0.815994 1.070767 0.684904
v -0.815994 1.070770 0.620529
v -0.809546 1.042065 0.637256
v -0.885800 1.055706 0.637255
v -0.858582 1.054593 0.620529
vn -0.0000 -0.0000 1.0000
vn -0.0000 -0.3567 0.9342
vn 1.0000 -0.0000 -0.0000
vn -0.0000 -1.0000 -0.0000
vn -0.7196 -0.0000 -0.6944
vn -0.6536 0.4201 -0.6296
vn -0.6990 0.2440 -0.6721
vn 0.7214 0.6925 -0.0000
vn -1.0000 -0.0000 -0.0000
vn -0.0000 1.0000 -0.0000
vn -0.9643 0.2650 -0.0000
vn 0.7196 -0.0000 -0.6944
vn 0.6907 0.6622 -0.2905
vn 0.7186 0.0669 -0.6922
vn 0.6990 0.2441 -0.6721
vn 0.7212 0.6928 -0.0000
vn -0.0000 0.9159 -0.4013
vn -0.0000 -0.0000 -1.0000
vn -0.0000 0.3411 -0.9400
vn 0.9643 -0.2650 -0.0000
vn -0.0000 0.3567 -0.9342
vn 0.1116 -0.9938 -0.0000
vn 0.6776 -0.7354 -0.0000
vn 0.5656 -0.8246 -0.0000
vn -0.9182 0.3961 -0.0000
vn -0.9151 0.3947 -0.0828
vn -0.4484 0.4867 -0.7497
vn -0.4484 0.4867 0.7497
vn -0.3003 0.7766 -0.5538
vn -0.0166 0.7764 -0.6301
vn -0.3849 0.5762 0.7210
vn -0.3850 0.5761 -0.7210
vn -0.1449 0.9033 -0.4038
vn -0.0807 0.7553 -0.6504
vn -0.7214 0.6925 -0.0000
vn -0.1313 0.8114 0.5696
vn -0.7212 0.6928 -0.0000
vn -0.6907 0.6622 -0.2904
vn -0.5528 0.8333 -0.0000
vn -0.6776 0.7354 -0.0000
vn -0.7354 -0.6776 -0.0000
vn -0.0862 0.8154 0.5724
vn -0.0000 -0.3567 -0.9342
vn -0.7196 -0.0000 0.6944
vn -0.6536 0.4201 0.6296
vn -0.6990 0.2440 0.6721
vn 0.7196 -0.0000 0.6944
vn 0.6907 0.6622 0.2905
vn 0.7186 0.0669 0.6922
vn 0.6990 0.2441 0.6721
vn -0.0000 0.9159 0.4013
vn -0.0000 0.3411 0.9400
vn -0.0000 0.3567 0.9342
vn -0.9151 0.3947 0.0828
vn -0.3003 0.7766 0.5538
vn -0.0166 0.7764 0.6301
vn -0.3849 0.5762 -0.7210
vn -0.3850 0.5761 0.7210
vn -0.1449 0.9033 0.4038
vn -0.0807 0.7553 0.6504
vn -0.1313 0.8114 -0.5696
vn -0.6907 0.6622 0.2904
vn -0.0862 0.8154 -0.5724
vt 0.375000 0.750000
vt 0.528602 0.750000
vt 0.528602 1.000000
vt 0.375000 1.000000
vt 0.606342 0.750000
vt 0.606342 1.000000
vt 0.617940 0.750000
vt 0.617941 0.750000
vt 0.528602 0.308346
vt 0.375000 0.308346
vt 0.375000 0.185582
vt 0.528602 0.185493
vt 0.606342 0.308346
vt 0.606342 0.185337
vt 0.625000 0.288898
vt 0.618635 0.170502
vt 0.710180 0.750000
vt 0.707455 0.752724
vt 0.375000 0.000000
vt 0.528602 0.000000
vt 0.816654 0.750000
vt 0.606342 0.000000
vt 0.528602 0.594174
vt 0.375000 0.594045
vt 0.346607 0.443213
vt 0.528602 0.414820
vt 0.667590 0.453088
vt 0.616147 0.611755
vt 0.606342 0.594401
vt 0.606342 0.414820
vt 0.681787 0.778393
vt 0.617951 0.750000
vt 0.816654 0.500000
vt 0.125000 0.564418
vt 0.183346 0.500000
vt 0.125000 0.750000
vt 0.625000 0.941654
vt 0.620172 1.000000
vt 0.620165 0.000000
vt 0.617808 0.000000
vt 0.620165 0.000000
vt 0.622729 0.000000
vt 0.617022 0.000000
vt 0.620164 0.000000
vt 0.622728 0.000000
vt 0.619689 0.052960
vt 0.617196 0.000000
vt 0.617210 0.000000
vt 0.617210 0.000000
vt 0.617197 0.000000
vt 0.620164 0.000000
vt 0.617038 0.000000
vt 0.617154 0.000000
vt 0.617155 0.000000
vt 0.617039 0.000000
vt 0.625000 0.000000
vt 0.620172 0.000000
vt 0.613298 0.000000
vt 0.613298 0.000000
s 0
f 345/59/226 350/60/226 348/61/226 344/62/226
f 350/60/227 353/63/227 351/64/227 348/61/227
f 353/63/228 369/65/228 346/66/228 352/63/228
f 355/64/229 352/63/229 356/63/229 354/64/229
f 363/67/230 359/68/230 358/69/230 362/70/230
f 365/71/231 363/67/231 362/70/231 364/72/231
f 361/73/232 365/71/232 364/72/232 360/74/232
f 368/75/233 347/76/233 346/66/233 369/65/233
f 344/77/234 348/78/234 362/70/234 358/69/234
f 368/75/235 357/79/235 349/79/235 347/76/235
f 348/78/236 351/80/236 364/72/236 362/70/236
f 351/64/229 353/63/229 352/63/229 355/64/229
f 375/81/237 371/82/237 370/83/237 374/84/237
f 373/85/238 368/75/238 369/65/238 372/86/238
f 377/87/239 375/81/239 374/84/239 376/88/239
f 372/86/240 377/87/240 376/88/240 373/85/240
f 347/76/241 379/89/241 378/90/241 346/66/241
f 373/85/242 361/91/242 357/79/242 368/75/242
f 377/87/228 372/86/228 369/65/228 353/63/228
f 352/63/228 346/66/228 378/90/228 356/63/228
f 347/76/235 349/79/235 366/79/235 379/89/235
f 359/68/243 363/67/243 374/84/243 370/83/243
f 371/82/228 375/81/228 350/60/228 345/59/228
f 358/92/229 359/93/229 370/83/229 371/82/229 345/59/229 344/94/229
f 365/71/244 361/73/244 373/85/244 376/88/244
f 375/81/245 377/87/245 353/63/245 350/60/245
f 363/67/246 365/71/246 376/88/246 374/84/246
f 356/63/226 378/90/226 379/89/226 366/95/226 367/96/226 354/64/226
f 351/64/247 355/64/247 381/64/247 380/64/247
f 382/64/248 383/64/248 385/64/248 384/64/248
f 380/64/249 381/64/249 383/64/249 382/64/249
f 388/97/250 389/98/250 390/99/250 391/100/250
f 392/101/251 393/102/251 394/103/251 395/104/251
f 397/105/252 401/106/252 400/102/252 396/102/252
f 402/107/253 398/108/253 399/97/253 403/97/253
f 405/102/254 406/109/254 407/110/254 404/111/254
f 409/97/255 410/97/255 411/112/255 408/113/255
f 398/108/256 411/112/256 410/97/256 399/97/256
f 404/111/257 397/105/257 396/102/257 405/102/257
f 408/113/258 389/98/258 388/97/258 409/97/258
f 392/101/259 407/110/259 406/109/259 393/102/259
f 349/114/260 357/114/260 394/103/260 393/102/260 388/97/260 391/100/260
f 388/97/261 393/102/261 406/109/261 409/97/261
f 366/114/262 349/114/262 391/100/262 390/99/262 367/115/262
f 390/99/234 389/98/234 355/80/234 354/80/234 367/115/234
f 355/80/226 389/98/226 408/113/226 387/116/226 381/80/226
f 357/114/263 361/73/263 360/74/263 395/104/263 394/103/263
f 351/80/234 392/101/234 395/104/234 360/74/234 364/72/234
f 392/101/243 351/80/243 380/80/243 386/117/243 407/110/243
f 410/97/264 405/102/264 396/102/264 399/97/264
f 397/105/243 382/80/243 384/80/243 401/106/243
f 399/97/265 396/102/265 400/102/265 403/97/265
f 404/111/243 386/117/243 380/80/243 382/80/243 397/105/243
f 381/80/226 387/116/226 411/112/226 398/108/226 383/80/226
f 383/80/226 398/108/226 402/107/226 385/80/226
f 400/102/266 401/106/266 384/80/266 385/80/266 402/107/266 403/97/266
f 404/111/243 407/110/243 386/117/243
f 405/102/267 410/97/267 409/97/267 406/109/267
f 408/113/226 411/112/226 387/116/226
f 413/59/243 412/62/243 416/61/243 418/60/243
f 418/60/268 416/61/268 419/64/268 421/63/268
f 421/63/228 420/63/228 414/66/228 433/65/228
f 422/64/229 354/64/229 356/63/229 420/63/229
f 429/67/269 428/70/269 424/69/269 425/68/269
f 431/71/270 430/72/270 428/70/270 429/67/270
f 427/73/271 426/74/271 430/72/271 431/71/271
f 432/75/233 433/65/233 414/66/233 415/76/233
f 412/77/234 424/69/234 428/70/234 416/78/234
f 432/75/235 415/76/235 417/79/235 423/79/235
f 416/78/236 428/70/236 430/72/236 419/80/236
f 419/64/229 422/64/229 420/63/229 421/63/229
f 439/81/272 438/84/272 434/83/272 435/82/272
f 437/85/273 436/86/273 433/65/273 432/75/273
f 441/87/274 440/88/274 438/84/274 439/81/274
f 436/86/275 437/85/275 440/88/275 441/87/275
f 415/76/241 414/66/241 378/90/241 379/89/241
f 437/85/276 432/75/276 423/79/276 427/91/276
f 441/87/228 421/63/228 433/65/228 436/86/228
f 420/63/228 356/63/228 378/90/228 414/66/228
f 415/76/235 379/89/235 366/79/235 417/79/235
f 425/68/226 434/83/226 438/84/226 429/67/226
f 435/82/228 413/59/228 418/60/228 439/81/228
f 424/92/229 412/94/229 413/59/229 435/82/229 434/83/229 425/93/229
f 431/71/277 440/88/277 437/85/277 427/73/277
f 439/81/245 418/60/245 421/63/245 441/87/245
f 429/67/278 438/84/278 440/88/278 431/71/278
f 419/64/247 442/64/247 443/64/247 422/64/247
f 444/64/248 446/64/248 447/64/248 445/64/248
f 442/64/249 444/64/249 445/64/249 443/64/249
f 450/97/250 453/100/250 452/99/250 451/98/250
f 454/101/279 457/104/279 456/103/279 455/102/279
f 459/105/253 458/102/253 462/102/253 463/106/253
f 464/107/252 465/97/252 461/97/252 460/108/252
f 467/102/280 466/111/280 469/110/280 468/109/280
f 471/97/281 470/113/281 473/112/281 472/97/281
f 460/108/282 461/97/282 472/97/282 473/112/282
f 466/111/283 467/102/283 458/102/283 459/105/283
f 470/113/284 471/97/284 450/97/284 451/98/284
f 454/101/285 455/102/285 468/109/285 469/110/285
f 417/114/260 453/100/260 450/97/260 455/102/260 456/103/260 423/114/260
f 450/97/286 471/97/286 468/109/286 455/102/286
f 366/114/262 367/115/262 452/99/262 453/100/262 417/114/262
f 452/99/234 367/115/234 354/80/234 422/80/234 451/98/234
f 422/80/243 443/80/243 449/116/243 470/113/243 451/98/243
f 423/114/287 456/103/287 457/104/287 426/74/287 427/73/287
f 419/80/234 430/72/234 426/74/234 457/104/234 454/101/234
f 454/101/226 469/110/226 448/117/226 442/80/226 419/80/226
f 472/97/264 461/97/264 458/102/264 467/102/264
f 459/105/226 463/106/226 446/80/226 444/80/226
f 461/97/265 465/97/265 462/102/265 458/102/265
f 466/111/226 459/105/226 444/80/226 442/80/226 448/117/226
f 443/80/243 445/80/243 460/108/243 473/112/243 449/116/243
f 445/80/243 447/80/243 464/107/243 460/108/243
f 462/102/266 465/97/266 464/107/266 447/80/266 446/80/266 463/106/266
f 466/111/226 448/117/226 469/110/226
f 467/102/288 468/109/288 471/97/288 472/97/288
f 470/113/243 449/116/243 473/112/243
