# Blender 5.1.1
# www.blender.org
mtllib coati2.mtl
g body.003_body
v -1.726699 0.467126 -0.087436
v -1.447725 0.344471 -0.464398
v 1.423851 -0.112859 -0.055873
v 1.423851 -0.112859 -0.365731
v 0.646469 -0.256199 -0.055873
v 0.407135 0.403656 -0.055873
v 0.421404 -0.256199 -0.055873
v -1.036818 -0.126669 -0.464398
v -1.000065 0.435299 -0.055873
v -1.036818 0.270193 -0.464398
v -1.000065 -0.256199 -0.055873
v -0.802213 -0.256199 -0.055873
v -0.802213 0.393028 -0.055873
v -1.726699 0.467126 -0.263541
v 1.423851 -0.112859 -0.223640
v 0.646469 -0.256199 -0.295104
v 0.421404 -0.256199 -0.381418
v -1.000065 -0.256199 -0.295104
v -1.000065 0.365269 -0.295104
v -0.802213 -0.256199 -0.461361
v -1.304525 0.480185 -0.055873
v -1.310287 0.480185 -0.295104
v -1.307452 0.480185 -0.177384
v -1.749536 0.480185 -0.178798
v -1.000065 0.435299 -0.191517
v -1.307452 0.480185 -0.177384
v 0.186202 0.568226 -0.055873
v 0.019268 0.635552 -0.055873
v 0.126576 0.605001 -0.055873
v 0.070697 0.625754 -0.055873
v -0.448833 0.668835 -0.055873
v -0.576739 0.620738 -0.055873
v -0.493421 0.664343 -0.055873
v -0.540238 0.646738 -0.055873
v 1.481239 0.015479 -0.055873
v 1.445167 0.097417 -0.055873
v 1.486374 0.048747 -0.055873
v 1.473171 0.078738 -0.055873
v 1.442364 0.085323 -0.376425
v 1.481239 0.015479 -0.365731
v 1.471769 0.072691 -0.371078
v 1.485999 0.047126 -0.367164
v 1.481239 0.015479 -0.223640
v 1.445167 0.097417 -0.228888
v 1.486374 0.048747 -0.224343
v 1.473171 0.078738 -0.226264
v 0.240569 -0.183319 -0.727585
v 0.364189 -0.183319 -0.667011
v 0.334084 -0.183319 -0.647907
v 0.283164 -0.183319 -0.715319
v 0.328412 -0.183319 -0.693147
v 0.392332 0.193036 -0.676072
v 0.261297 0.193036 -0.726433
v 0.352911 0.193036 -0.697524
v 0.304949 0.193036 -0.715957
v 0.496131 -0.183319 -0.543272
v 0.590391 -0.179059 -0.496740
v 0.560563 -0.183319 -0.459589
v 0.540567 -0.182071 -0.513861
v 0.599846 0.193036 -0.536524
v 0.696901 0.186211 -0.497012
v 0.647585 0.191037 -0.511964
v 0.695608 0.346548 -0.055873
v 0.598283 0.369335 -0.055873
v 0.646469 0.311456 -0.055873
v 0.646748 0.359987 -0.055873
v 0.695622 0.346543 -0.291029
v 0.598394 0.369320 -0.313541
v 0.646785 0.359981 -0.299311
v 0.292200 0.410415 -0.385871
v 0.407135 0.403656 -0.308823
v 0.468119 0.386770 -0.363502
v -0.765500 0.406698 -0.371047
v -0.689577 0.409735 -0.447777
v -0.840595 0.387643 -0.429108
v 0.013348 0.570562 -0.334778
v -0.003869 0.623964 -0.242997
v 0.132653 0.526638 -0.340175
v 0.186202 0.568226 -0.254684
v 0.054910 0.566911 -0.341976
v 0.070697 0.625754 -0.260305
v 0.098129 0.550879 -0.343701
v 0.126576 0.605001 -0.262456
v -0.530829 0.571177 -0.409559
v -0.585384 0.588600 -0.320701
v -0.445618 0.603355 -0.393571
v -0.425695 0.653957 -0.296675
v -0.506908 0.587129 -0.396360
v -0.540238 0.646738 -0.338568
v -0.476515 0.598575 -0.390644
v -0.493421 0.664343 -0.329706
v -0.746327 0.193036 -0.870424
v -0.831052 0.208758 -0.829252
v -0.778134 0.195142 -0.867832
v -0.809145 0.200897 -0.852762
v -0.741866 -0.183319 -0.836648
v -0.649633 -0.183319 -0.869523
v -0.717748 -0.183319 -0.825119
v -0.716152 -0.183319 -0.856339
v -0.682393 -0.183319 -0.868372
v -1.609000 0.172247 -0.087436
v -1.356157 -0.077202 -0.055873
v -1.567441 0.100732 -0.087436
v -1.502679 0.031307 -0.087436
v -1.450071 -0.006941 -0.087436
v -1.168066 -0.068091 -0.464398
v -1.391533 0.172719 -0.464398
v -1.237256 -0.026401 -0.464398
v -1.303976 0.034062 -0.464398
v -1.358097 0.103972 -0.464398
v -1.609035 0.172327 -0.263541
v -1.355552 -0.077382 -0.295104
v -1.567426 0.100761 -0.263541
v -1.502527 0.031260 -0.263541
v -1.449794 -0.007013 -0.263541
v 0.261297 0.193036 -0.726433
v 0.392332 0.193036 -0.676072
v 0.352907 0.193069 -0.697486
v 0.304975 0.193058 -0.715921
v 0.468119 0.386770 -0.363502
v 0.342145 0.393028 -0.386596
v -0.731612 0.393028 -0.456748
v -0.840595 0.387643 -0.429108
v -0.831052 0.208758 -0.829252
v -0.746327 0.193036 -0.870424
v -0.778157 0.195164 -0.867793
v -0.809133 0.200924 -0.852721
v 0.171933 0.578854 -0.055873
v 0.421404 0.393028 -0.055873
v 0.059204 0.583410 -0.336537
v 0.014825 0.587504 -0.329463
v 0.105967 0.566043 -0.338345
v 0.142875 0.540305 -0.335057
v 0.342145 0.393028 -0.386596
v 0.171933 0.578854 -0.269320
v 0.421404 0.393028 -0.330452
v -0.515909 0.602198 -0.392580
v -0.542769 0.584123 -0.406698
v -0.481064 0.615300 -0.385949
v -0.446426 0.620422 -0.388427
v -0.731612 0.393028 -0.456748
v -1.501812 0.391596 -0.541157
v -1.000065 0.300897 -0.541157
v -1.000065 -0.183319 -0.541157
v -1.259286 -0.056035 -0.541157
v -1.185104 -0.100734 -0.541157
v -1.331055 0.009004 -0.541157
v -1.389486 0.084480 -0.541157
v -1.425682 0.158904 -0.541157
v -1.749536 0.480185 -0.055873
v -1.749536 0.480185 -0.295104
v -1.435718 -0.041730 -0.055873
v -1.435347 -0.041835 -0.295104
v -1.513656 0.015014 -0.295104
v -1.513824 0.015043 -0.055873
v -1.578558 0.084510 -0.295104
v -1.578583 0.084473 -0.055873
v -1.620171 0.156073 -0.295104
v -1.620138 0.155990 -0.055873
v -0.448833 0.668835 -0.323002
v -0.425695 0.653957 -0.055873
v -0.003870 0.623964 -0.055873
v 0.019268 0.635552 -0.263434
v -0.802213 0.393028 -0.410237
v -0.765500 0.406698 -0.055873
v -0.585384 0.588600 -0.055873
v -0.576739 0.620738 -0.347212
v -1.726699 0.467126 -0.024310
v -1.447725 0.344471 0.352652
v 1.423851 -0.112859 0.253985
v -1.036818 -0.126669 0.352652
v -1.036818 0.270193 0.352652
v -1.726699 0.467126 0.151795
v 1.423851 -0.112859 0.111894
v 0.646469 -0.256199 0.183358
v 0.421404 -0.256199 0.269672
v -1.000065 -0.256199 0.183358
v -1.000065 0.365269 0.183358
v -0.802213 -0.256199 0.349615
v -1.310287 0.480185 0.183358
v -1.307452 0.480185 0.065638
v -1.749536 0.480185 0.067052
v -1.000065 0.435299 0.079771
v -1.307452 0.480185 0.065638
v 1.442364 0.085323 0.264679
v 1.481239 0.015479 0.253985
v 1.471769 0.072691 0.259332
v 1.485999 0.047126 0.255418
v 1.481239 0.015479 0.111894
v 1.445167 0.097417 0.117142
v 1.486374 0.048747 0.112597
v 1.473171 0.078738 0.114518
v 0.240569 -0.183319 0.615839
v 0.364189 -0.183319 0.555265
v 0.334084 -0.183319 0.536161
v 0.283164 -0.183319 0.603573
v 0.328412 -0.183319 0.581401
v 0.392332 0.193036 0.564326
v 0.261297 0.193036 0.614687
v 0.352911 0.193036 0.585778
v 0.304949 0.193036 0.604211
v 0.496131 -0.183319 0.431525
v 0.590391 -0.179059 0.384994
v 0.560563 -0.183319 0.347843
v 0.540567 -0.182071 0.402115
v 0.599846 0.193036 0.424777
v 0.696901 0.186211 0.385266
v 0.647585 0.191037 0.400218
v 0.695622 0.346543 0.179283
v 0.598394 0.369320 0.201795
v 0.646785 0.359981 0.187565
v 0.292200 0.410415 0.274125
v 0.407135 0.403656 0.197077
v 0.468119 0.386770 0.251756
v -0.765500 0.406698 0.259301
v -0.689577 0.409735 0.336031
v -0.840595 0.387643 0.317362
v 0.013348 0.570562 0.223032
v -0.003869 0.623964 0.131250
v 0.132653 0.526638 0.228429
v 0.186202 0.568226 0.142938
v 0.054910 0.566911 0.230230
v 0.070697 0.625754 0.148559
v 0.098129 0.550879 0.231955
v 0.126576 0.605001 0.150710
v -0.530829 0.571177 0.297813
v -0.585384 0.588600 0.208955
v -0.445618 0.603355 0.281825
v -0.425695 0.653957 0.184929
v -0.506908 0.587129 0.284613
v -0.540238 0.646738 0.226822
v -0.476515 0.598575 0.278898
v -0.493421 0.664343 0.217960
v -0.746327 0.193036 0.758678
v -0.831052 0.208758 0.717506
v -0.778134 0.195142 0.756086
v -0.809145 0.200897 0.741016
v -0.741866 -0.183319 0.724902
v -0.649633 -0.183319 0.757777
v -0.717748 -0.183319 0.713373
v -0.716152 -0.183319 0.744593
v -0.682393 -0.183319 0.756626
v -1.609000 0.172247 -0.024310
v -1.567441 0.100732 -0.024310
v -1.502679 0.031307 -0.024310
v -1.450071 -0.006941 -0.024310
v -1.168066 -0.068091 0.352652
v -1.391533 0.172719 0.352652
v -1.237256 -0.026401 0.352652
v -1.303976 0.034062 0.352652
v -1.358097 0.103972 0.352652
v -1.609035 0.172327 0.151795
v -1.355552 -0.077382 0.183358
v -1.567426 0.100761 0.151795
v -1.502527 0.031260 0.151795
v -1.449794 -0.007013 0.151795
v 0.261297 0.193036 0.614687
v 0.392332 0.193036 0.564326
v 0.352907 0.193069 0.585740
v 0.304975 0.193058 0.604175
v 0.468119 0.386770 0.251756
v 0.342145 0.393028 0.274850
v -0.731612 0.393028 0.345002
v -0.840595 0.387643 0.317362
v -0.831052 0.208758 0.717506
v -0.746327 0.193036 0.758678
v -0.778157 0.195164 0.756047
v -0.809133 0.200924 0.740975
v 0.059204 0.583410 0.224791
v 0.014825 0.587504 0.217717
v 0.105967 0.566043 0.226599
v 0.142875 0.540305 0.223311
v 0.342145 0.393028 0.274850
v 0.171933 0.578854 0.157574
v 0.421404 0.393028 0.218706
v -0.515909 0.602198 0.280834
v -0.542769 0.584123 0.294952
v -0.481064 0.615300 0.274202
v -0.446426 0.620422 0.276681
v -0.731612 0.393028 0.345002
v -1.501812 0.391596 0.429411
v -1.000065 0.300897 0.429411
v -1.000065 -0.183319 0.429411
v -1.259286 -0.056035 0.429411
v -1.185104 -0.100734 0.429411
v -1.331055 0.009004 0.429411
v -1.389486 0.084480 0.429411
v -1.425682 0.158904 0.429411
v -1.749536 0.480185 0.183358
v -1.435347 -0.041835 0.183358
v -1.513656 0.015014 0.183358
v -1.578558 0.084510 0.183358
v -1.620171 0.156073 0.183358
v -0.448833 0.668835 0.211255
v 0.019268 0.635552 0.151688
v -0.802213 0.393028 0.298491
v -0.576739 0.620738 0.235466
vn 0.1813 -0.9834 -0.0000
vn 0.2329 0.9263 -0.2961
vn -0.0000 -1.0000 -0.0000
vn -0.0000 -0.0000 1.0000
vn 0.1512 0.9203 -0.3608
vn -0.0000 1.0000 -0.0000
vn 0.1451 0.9894 -0.0017
vn 0.5549 0.8319 -0.0000
vn 0.9152 0.4029 -0.0000
vn 0.9883 -0.1525 -0.0000
vn 0.4845 0.8727 -0.0611
vn 0.8972 0.4412 -0.0173
vn 0.9886 -0.1507 -0.0004
vn 0.9129 -0.4082 -0.0000
vn 0.5340 -0.0524 -0.8439
vn 0.3992 -0.0307 -0.9164
vn 0.2550 -0.0137 -0.9669
vn 0.0571 -0.9974 -0.0440
vn 0.0779 -0.9956 -0.0516
vn 0.1894 0.9819 -0.0000
vn 0.2653 0.9642 -0.0000
vn 0.3052 -0.0862 -0.9484
vn 0.5001 -0.1308 -0.8560
vn 0.3242 0.7422 -0.5865
vn 0.2807 0.7551 -0.5925
vn 0.1558 -0.0541 -0.9863
vn 0.2112 -0.9137 -0.3473
vn 0.6092 -0.1091 -0.7855
vn 0.1437 -0.9595 -0.2424
vn 0.2553 0.8686 -0.4247
vn 0.3154 0.9490 -0.0000
vn 0.0988 0.8349 -0.5415
vn 0.2850 0.8191 -0.4979
vn 0.4303 0.7198 -0.5448
vn 0.3901 0.7197 -0.5743
vn -0.2648 0.7149 -0.6472
vn -0.1475 0.7293 -0.6681
vn -0.0606 0.7755 -0.6285
vn 0.1318 0.7982 -0.5878
vn -0.4444 0.6154 -0.6510
vn 0.1328 0.9911 -0.0000
vn -0.7106 0.7036 -0.0000
vn 0.0681 0.9917 -0.1094
vn 0.1872 0.9823 -0.0000
vn 0.0709 0.9975 -0.0000
vn 0.4994 0.8664 -0.0000
vn 0.3482 0.9374 -0.0000
vn -0.5802 0.8145 -0.0000
vn -0.1002 0.9950 -0.0000
vn -0.3520 0.9360 -0.0000
vn -0.0584 -0.0154 -0.9982
vn -0.3913 -0.0919 -0.9157
vn -0.6778 -0.1489 -0.7200
vn -0.8103 -0.0776 -0.5809
vn 0.1490 0.0154 -0.9887
vn -0.2253 -0.9442 -0.2403
vn 0.0221 -0.9805 -0.1952
vn -0.4071 -0.9134 -0.0003
vn -0.5877 -0.8091 -0.0004
vn -0.7311 -0.6823 -0.0003
vn -0.8646 -0.5025 -0.0001
vn -0.4475 -0.8587 -0.2496
vn -0.5797 -0.7137 -0.3932
vn -0.6625 -0.5636 -0.4934
vn -0.7262 -0.3870 -0.5682
vn -0.9288 -0.3707 -0.0000
vn -0.4492 -0.8934 -0.0002
vn -0.0000 -0.0000 -1.0000
vn -0.4232 -0.8751 -0.2347
vn -0.7388 -0.2727 -0.6164
vn -0.0017 1.0000 0.0043
vn 0.1741 0.8240 -0.5391
vn 0.3551 0.7453 -0.5643
vn 0.3255 0.7316 -0.5990
vn 0.2387 0.7466 -0.6210
vn 0.1397 0.8010 -0.5821
vn 0.0666 0.9933 -0.0940
vn 0.0409 0.9586 -0.2820
vn -0.1008 0.9022 -0.4194
vn 0.0487 0.8797 -0.4731
vn -0.0795 0.9895 -0.1207
vn -0.2503 0.9049 -0.3443
vn 0.0194 0.8793 -0.4759
vn -0.1018 0.8410 -0.5313
vn -0.2280 0.8393 -0.4936
vn -0.1266 0.3234 -0.9378
vn 0.0728 0.2968 -0.9522
vn 0.2314 0.2009 -0.9519
vn 0.0928 0.4534 -0.8865
vn 0.5974 0.8020 -0.0000
vn 0.2264 0.3816 -0.8962
vn 0.0733 0.2859 -0.9555
vn -0.1184 0.2602 -0.9583
vn 0.1418 0.2884 -0.9469
vn 0.1012 0.1466 -0.9840
vn 0.0613 0.2862 -0.9562
vn -0.1604 -0.8876 -0.4319
vn -0.9019 -0.0000 -0.4319
vn 0.4655 0.7725 -0.4319
vn 0.6057 0.6683 -0.4319
vn 0.7132 0.5521 -0.4319
vn 0.8111 0.3945 -0.4319
vn 0.3676 0.8236 -0.4319
vn 0.8572 0.2805 -0.4319
vn -0.4964 -0.8681 -0.0000
vn -0.9240 -0.3823 -0.0013
vn -0.4984 -0.6866 0.5293
vn -0.4988 -0.6861 -0.5296
vn -0.6242 -0.5829 0.5202
vn -0.6244 -0.5824 -0.5205
vn -0.7531 -0.4379 0.4911
vn -0.7531 -0.4376 -0.4912
vn -0.8245 -0.3291 -0.4604
vn -0.8245 -0.3291 0.4604
vn 0.0879 0.2916 -0.9525
vn -0.0008 0.8703 0.4925
vn -0.4478 0.8941 -0.0000
vn 0.5409 0.8411 -0.0000
vn -0.6929 0.5605 0.4536
vn -0.3490 0.9371 -0.0000
vn -0.9657 0.2598 -0.0000
vn 0.2329 0.9263 0.2961
vn 0.1512 0.9203 0.3608
vn 0.1451 0.9894 0.0017
vn 0.4845 0.8727 0.0611
vn 0.8972 0.4412 0.0173
vn 0.9886 -0.1507 0.0004
vn 0.5340 -0.0524 0.8439
vn 0.3992 -0.0307 0.9164
vn 0.2550 -0.0137 0.9669
vn 0.0571 -0.9974 0.0440
vn 0.0779 -0.9956 0.0516
vn 0.3052 -0.0862 0.9484
vn 0.5001 -0.1308 0.8560
vn 0.3242 0.7422 0.5865
vn 0.2807 0.7551 0.5925
vn 0.1558 -0.0541 0.9863
vn 0.2112 -0.9137 0.3473
vn 0.6092 -0.1091 0.7855
vn 0.1437 -0.9595 0.2424
vn 0.2553 0.8686 0.4247
vn 0.0988 0.8349 0.5415
vn 0.2850 0.8191 0.4979
vn 0.4303 0.7198 0.5448
vn 0.3901 0.7197 0.5743
vn -0.2648 0.7149 0.6472
vn -0.1475 0.7293 0.6681
vn -0.0606 0.7755 0.6285
vn 0.1318 0.7982 0.5878
vn -0.4444 0.6154 0.6510
vn 0.0681 0.9917 0.1094
vn -0.0584 -0.0154 0.9982
vn -0.3913 -0.0919 0.9157
vn -0.6778 -0.1489 0.7200
vn -0.8103 -0.0776 0.5809
vn 0.1490 0.0154 0.9887
vn -0.2253 -0.9442 0.2403
vn 0.0221 -0.9805 0.1952
vn -0.4071 -0.9134 0.0003
vn -0.5877 -0.8091 0.0004
vn -0.7311 -0.6823 0.0003
vn -0.8646 -0.5025 0.0001
vn -0.4475 -0.8587 0.2496
vn -0.5797 -0.7137 0.3932
vn -0.6625 -0.5636 0.4934
vn -0.7262 -0.3870 0.5682
vn -0.4492 -0.8934 0.0002
vn -0.4232 -0.8751 0.2347
vn -0.7388 -0.2727 0.6164
vn -0.0017 1.0000 -0.0043
vn 0.1741 0.8240 0.5391
vn 0.3551 0.7453 0.5643
vn 0.3255 0.7317 0.5989
vn 0.2387 0.7465 0.6211
vn 0.1397 0.8010 0.5821
vn 0.0666 0.9933 0.0940
vn 0.0409 0.9586 0.2820
vn -0.1008 0.9022 0.4194
vn 0.0487 0.8797 0.4731
vn -0.0795 0.9895 0.1207
vn -0.2503 0.9049 0.3443
vn 0.0194 0.8791 0.4763
vn -0.1018 0.8412 0.5311
vn -0.2280 0.8393 0.4936
vn -0.1266 0.3234 0.9378
vn 0.0728 0.2968 0.9522
vn 0.2314 0.2009 0.9519
vn 0.0928 0.4534 0.8865
vn 0.2264 0.3816 0.8962
vn 0.0733 0.2859 0.9555
vn -0.1184 0.2602 0.9583
vn 0.1418 0.2884 0.9469
vn 0.1012 0.1466 0.9840
vn 0.0613 0.2862 0.9562
vn -0.1604 -0.8876 0.4319
vn -0.9019 -0.0000 0.4319
vn 0.4655 0.7725 0.4319
vn 0.6057 0.6683 0.4319
vn 0.7132 0.5521 0.4319
vn 0.8111 0.3945 0.4319
vn 0.3676 0.8236 0.4319
vn 0.8572 0.2805 0.4319
vn -0.9240 -0.3823 0.0013
vn -0.4984 -0.6866 -0.5293
vn -0.4988 -0.6861 0.5296
vn -0.6242 -0.5829 -0.5202
vn -0.6244 -0.5824 0.5205
vn -0.7531 -0.4379 -0.4911
vn -0.7531 -0.4376 0.4912
vn 0.0879 0.2916 0.9525
vn -0.0008 0.8703 -0.4925
vn -0.6929 0.5605 -0.4536
vt 0.304924 0.626757
vt 0.375000 0.626757
vt 0.375000 0.750000
vt 0.304924 0.750000
vt 0.828932 0.626757
vt 0.840849 0.626757
vt 0.841750 0.687402
vt 0.828932 0.680121
vt 0.286627 0.626757
vt 0.286627 0.750000
vt 0.187153 0.626757
vt 0.187153 0.750000
vt 0.375000 0.937847
vt 0.625000 0.937847
vt 0.625000 0.953932
vt 0.375000 0.953932
vt 0.375000 0.838373
vt 0.625000 0.838373
vt 0.171068 0.626757
vt 0.171068 0.750000
vt 0.828932 0.500000
vt 0.875000 0.500000
vt 0.875000 0.626757
vt 0.625000 1.000000
vt 0.625000 0.967680
vt 0.842680 0.750000
vt 0.828932 0.750000
vt 0.630146 0.626757
vt 0.628431 0.751715
vt 0.623652 0.750880
vt 0.627658 0.625122
vt 0.584509 0.750250
vt 0.583702 0.626185
vt 0.544548 0.750000
vt 0.544548 0.626757
vt 0.628583 0.498209
vt 0.623500 0.497073
vt 0.582958 0.498904
vt 0.544548 0.500000
vt 0.375000 0.500000
vt 0.279671 0.500000
vt 0.283920 0.500000
vt 0.286627 0.525871
vt 0.286627 0.509769
vt 0.286627 0.525871
vt 0.286627 0.522712
vt 0.625000 0.415109
vt 0.375000 0.415895
vt 0.374618 0.413262
vt 0.624703 0.412965
vt 0.375054 0.408915
vt 0.625042 0.409258
vt 0.375000 0.404671
vt 0.625000 0.405377
vt 0.301621 0.500000
vt 0.304736 0.500000
vt 0.304924 0.527505
vt 0.304924 0.517277
vt 0.625211 0.815871
vt 0.623676 0.820076
vt 0.601463 0.820076
vt 0.625000 0.820076
vt 0.698985 0.626757
vt 0.698994 0.750000
vt 0.695076 0.750000
vt 0.695076 0.625562
vt 0.690976 0.750106
vt 0.691081 0.626757
vt 0.625227 0.434250
vt 0.375000 0.434160
vt 0.376444 0.429924
vt 0.623975 0.429924
vt 0.375000 0.426621
vt 0.625000 0.427206
vt 0.698114 0.501363
vt 0.695076 0.500000
vt 0.690863 0.499886
vt 0.290895 0.500000
vt 0.309160 0.500000
vt 0.375000 0.820076
vt 0.625000 0.823994
vt 0.725645 0.626226
vt 0.731199 0.626512
vt 0.726784 0.651041
vt 0.718746 0.650473
vt 0.721777 0.626244
vt 0.713645 0.650324
vt 0.720703 0.626530
vt 0.713373 0.650506
vt 0.719817 0.626757
vt 0.712820 0.641229
vt 0.805111 0.626702
vt 0.806113 0.626733
vt 0.812847 0.645152
vt 0.812555 0.645616
vt 0.801980 0.626664
vt 0.807818 0.645863
vt 0.797580 0.626699
vt 0.800962 0.646508
vt 0.808543 0.626344
vt 0.812847 0.642296
vt 0.709575 0.626757
vt 0.713373 0.750000
vt 0.812847 0.652848
vt 0.812847 0.739842
vt 0.812847 0.738800
vt 0.812847 0.656175
vt 0.815967 0.626757
vt 0.812847 0.750000
vt 0.726784 0.750000
vt 0.718565 0.750000
vt 0.730450 0.661618
vt 0.797295 0.655997
vt 0.797295 0.740770
vt 0.730450 0.739237
vt 0.713373 0.750000
vt 0.807942 0.750000
vt 0.800962 0.750000
vt 0.185161 0.500000
vt 0.187153 0.507087
vt 0.187153 0.516197
vt 0.187153 0.501356
vt 0.187153 0.516197
vt 0.187153 0.500000
vt 0.625000 0.317052
vt 0.375000 0.317605
vt 0.375069 0.314494
vt 0.626476 0.314397
vt 0.374639 0.311276
vt 0.625190 0.311125
vt 0.375000 0.310161
vt 0.625000 0.309808
vt 0.375000 0.296068
vt 0.625000 0.296068
vt 0.171068 0.500000
vt 0.192605 0.500000
vt 0.141296 0.626757
vt 0.141246 0.750000
vt 0.134313 0.750000
vt 0.134287 0.626401
vt 0.131259 0.641563
vt 0.131268 0.733486
vt 0.124998 0.733146
vt 0.125002 0.639113
vt 0.374990 0.110888
vt 0.375010 0.016854
vt 0.424828 0.016461
vt 0.425342 0.108302
vt 0.462767 0.016260
vt 0.462808 0.106983
vt 0.147859 0.500000
vt 0.138054 0.499329
vt 0.125000 0.622259
vt 0.125000 0.500000
vt 0.388758 0.252827
vt 0.375000 0.127741
vt 0.425433 0.124762
vt 0.438085 0.252324
vt 0.462808 0.123243
vt 0.483457 0.250000
vt 0.610330 0.016260
vt 0.610330 0.106983
vt 0.462767 1.000000
vt 0.428045 0.998997
vt 0.397902 0.995853
vt 0.380657 0.990208
vt 0.375000 0.983754
vt 0.397206 0.275367
vt 0.402684 0.266735
vt 0.416685 0.258334
vt 0.455930 0.255796
vt 0.497484 0.254269
vt 0.601369 0.253908
vt 0.604385 0.292380
vt 0.396391 0.291614
vt 0.625000 0.123243
vt 0.625000 0.250000
vt 0.719623 0.500000
vt 0.710967 0.508192
vt 0.713373 0.506411
vt 0.715743 0.500014
vt 0.711632 0.507430
vt 0.713373 0.506396
vt 0.715744 0.500000
vt 0.815192 0.500000
vt 0.809986 0.506347
vt 0.812847 0.502876
vt 0.813908 0.500026
vt 0.808543 0.626344
vt 0.810398 0.500987
vt 0.812847 0.502864
vt 0.813910 0.500000
vt 0.753458 0.808215
vt 0.727835 0.626313
vt 0.732748 0.626479
vt 0.724370 0.626327
vt 0.723239 0.626504
vt 0.722315 0.626722
vt 0.713350 0.658132
vt 0.712884 0.649093
vt 0.802891 0.626683
vt 0.803925 0.626693
vt 0.800225 0.626665
vt 0.796503 0.626675
vt 0.806173 0.626388
vt 0.713343 0.742755
vt 0.713367 0.741936
vt 0.375000 0.272859
vt 0.381674 0.263723
vt 0.625000 0.000000
vt 0.125000 0.750000
vt 0.375000 0.000000
vt 0.424736 0.000000
vt 0.462767 0.000000
s 0
g body.003_Material.001
usemtl Material.001
f 19/5/2 22/6/2 26/7/2 25/8/2
f 12/13/4 13/14/4 9/15/4 11/16/4
f 7/17/4 129/18/4 13/14/4 12/13/4
f 143/21/5 142/22/5 151/23/5 22/6/5 19/5/5
f 150/24/6 21/25/6 23/25/6 24/24/6
f 25/8/7 26/7/7 21/26/7 9/27/7
f 44/28/8 36/29/8 38/30/8 46/31/8
f 46/31/9 38/30/9 37/32/9 45/33/9
f 45/33/10 37/32/10 35/34/10 43/35/10
f 39/36/11 44/28/11 46/31/11 41/37/11
f 41/37/12 46/31/12 45/33/12 42/38/12
f 42/38/13 45/33/13 43/35/13 40/39/13
f 4/40/14 40/39/14 43/35/14 15/2/14
f 47/41/3 50/42/3 49/43/3
f 50/42/3 51/44/3 49/45/3
f 51/44/3 48/46/3 49/45/3
f 52/47/15 48/48/15 51/49/15 54/50/15
f 54/50/16 51/49/16 50/51/16 55/52/16
f 55/52/17 50/51/17 47/53/17 53/54/17
f 56/55/18 59/56/18 58/57/18
f 59/56/19 57/58/19 58/57/19
f 63/59/4 66/60/4 65/61/4
f 66/60/4 64/62/4 65/61/4
f 68/63/20 64/64/20 66/65/20 69/66/20
f 69/66/21 66/65/21 63/67/21 67/68/21
f 61/69/22 57/70/22 59/71/22 62/72/22
f 62/72/23 59/71/23 56/73/23 60/74/23
f 60/75/24 68/63/24 69/66/24 62/76/24
f 62/76/25 69/66/25 67/68/25 61/77/25
f 57/70/26 61/69/26 39/36/26 41/37/26 42/38/26 40/39/26 4/40/26
f 49/43/27 48/78/27 56/55/27 58/57/27 16/1/27 17/9/27
f 48/48/28 52/47/28 60/74/28 56/73/28
f 58/57/29 57/79/29 4/40/29 15/2/29 16/1/29
f 39/36/30 61/77/30 67/68/30 44/28/30
f 44/28/31 67/68/31 63/67/31 36/29/31
f 3/3/4 35/34/4 37/32/4 38/30/4 36/29/4 63/59/4 65/61/4 5/80/4
f 5/80/4 65/61/4 64/81/4 129/18/4 7/17/4
f 68/63/41 72/102/41 136/91/41 129/103/41 64/64/41
f 164/101/43 75/108/43 19/5/43 25/8/43 9/27/43 13/109/43
f 96/119/3 99/120/3 98/121/3
f 99/120/3 100/122/3 98/123/3
f 100/122/3 97/124/3 98/123/3
f 92/125/51 97/126/51 100/127/51 94/128/51
f 94/128/52 100/127/52 99/129/52 95/130/52
f 95/130/53 99/129/53 96/131/53 93/132/53
f 144/133/54 143/134/54 93/132/54 96/131/54
f 97/126/55 92/125/55 53/54/55 47/53/55
f 144/135/56 96/119/56 98/121/56 20/11/56 18/19/56
f 98/121/57 97/136/57 47/41/57 49/43/57 17/9/57 20/11/57
f 112/137/58 102/138/58 152/139/58 153/140/58
f 146/151/62 112/137/62 153/140/62 145/152/62
f 145/152/63 153/140/63 154/153/63 147/154/63
f 147/155/64 154/156/64 156/157/64 148/158/64
f 148/158/65 156/157/65 158/159/65 149/160/65
f 11/16/4 9/15/4 21/25/4 150/24/4 159/163/4 157/164/4 155/165/4 152/166/4 102/167/4
f 146/151/69 144/135/69 18/19/69 112/137/69
f 158/159/70 151/176/70 142/177/70 149/160/70
f 116/178/71 117/179/71 118/180/71 119/181/71
f 120/102/72 117/179/72 116/178/72 121/90/72
f 60/75/73 52/182/73 117/179/73 120/102/73 72/102/73 68/63/73
f 52/182/74 54/183/74 118/180/74 117/179/74
f 54/183/75 55/184/75 119/181/75 118/180/75
f 55/184/76 53/178/76 116/178/76 119/181/76
f 134/90/77 136/91/77 72/102/77 120/102/77 121/90/77
f 124/185/78 125/186/78 126/187/78 127/188/78
f 122/189/79 125/186/79 124/185/79 123/108/79
f 116/178/80 53/178/80 92/190/80 125/190/80 122/189/80 141/189/80 134/90/80 121/90/80
f 164/101/81 141/100/81 122/100/81 123/108/81 75/108/81
f 124/185/82 93/185/82 143/21/82 19/5/82 75/108/82 123/108/82
f 92/190/83 94/191/83 126/187/83 125/186/83
f 94/191/84 95/192/84 127/188/84 126/187/84
f 95/192/85 93/185/85 124/185/85 127/188/85
f 151/23/6 150/24/6 24/193/6 23/25/6 26/25/6 22/6/6
f 10/174/97 2/173/97 142/177/97 143/134/97
f 8/175/98 10/174/98 143/134/98 144/133/98
f 108/169/99 106/168/99 146/208/99 145/209/99
f 109/170/100 108/169/100 145/209/100 147/155/100
f 110/171/101 109/170/101 147/155/101 148/158/101
f 107/172/102 110/171/102 148/158/102 149/160/102
f 106/168/103 8/175/103 144/133/103 146/208/103
f 2/173/104 107/172/104 149/160/104 142/177/104
f 14/162/105 1/161/105 150/210/105 151/176/105
f 105/142/106 115/141/106 153/140/106 152/139/106
f 115/141/107 114/144/107 154/153/107 153/140/107
f 104/143/108 105/142/108 152/139/108 155/211/108
f 114/145/109 113/148/109 156/157/109 154/156/109
f 103/147/110 104/146/110 155/212/110 157/213/110
f 113/148/111 111/150/111 158/159/111 156/157/111
f 101/149/112 103/147/112 157/213/112 159/214/112
f 1/161/113 101/149/113 159/214/113 150/210/113
f 111/150/114 14/162/114 151/176/114 158/159/114
f 87/113/116 77/112/116 163/84/116 160/99/116
f 178/5/122 183/8/122 184/7/122 180/6/122
f 282/21/123 178/5/123 180/6/123 289/23/123 281/22/123
f 150/24/6 182/24/6 181/25/6 21/25/6
f 183/8/124 9/27/124 21/26/124 184/7/124
f 190/28/8 192/31/8 38/30/8 36/29/8
f 192/31/9 191/33/9 37/32/9 38/30/9
f 191/33/10 189/35/10 35/34/10 37/32/10
f 185/36/125 187/37/125 192/31/125 190/28/125
f 187/37/126 188/38/126 191/33/126 192/31/126
f 188/38/127 186/39/127 189/35/127 191/33/127
f 170/40/14 174/2/14 189/35/14 186/39/14
f 193/41/3 195/43/3 196/42/3
f 196/42/3 195/45/3 197/44/3
f 197/44/3 195/45/3 194/46/3
f 198/47/128 200/50/128 197/49/128 194/48/128
f 200/50/129 201/52/129 196/51/129 197/49/129
f 201/52/130 199/54/130 193/53/130 196/51/130
f 202/55/131 204/57/131 205/56/131
f 205/56/132 204/57/132 203/58/132
f 210/63/20 211/66/20 66/65/20 64/64/20
f 211/66/21 209/68/21 63/67/21 66/65/21
f 207/69/133 208/72/133 205/71/133 203/70/133
f 208/72/134 206/74/134 202/73/134 205/71/134
f 206/75/135 208/76/135 211/66/135 210/63/135
f 208/76/136 207/77/136 209/68/136 211/66/136
f 203/70/137 170/40/137 186/39/137 188/38/137 187/37/137 185/36/137 207/69/137
f 195/43/138 176/9/138 175/1/138 204/57/138 202/55/138 194/78/138
f 194/48/139 202/73/139 206/74/139 198/47/139
f 204/57/140 175/1/140 174/2/140 170/40/140 203/79/140
f 185/36/141 190/28/141 209/68/141 207/77/141
f 190/28/31 36/29/31 63/67/31 209/68/31
f 210/63/41 64/64/41 129/103/41 275/91/41 214/102/41
f 296/101/151 13/109/151 9/27/151 183/8/151 178/5/151 217/108/151
f 238/119/3 240/121/3 241/120/3
f 241/120/3 240/123/3 242/122/3
f 242/122/3 240/123/3 239/124/3
f 234/125/152 236/128/152 242/127/152 239/126/152
f 236/128/153 237/130/153 241/129/153 242/127/153
f 237/130/154 235/132/154 238/131/154 241/129/154
f 283/133/155 238/131/155 235/132/155 282/134/155
f 239/126/156 193/53/156 199/54/156 234/125/156
f 283/135/157 177/19/157 179/11/157 240/121/157 238/119/157
f 240/121/158 179/11/158 176/9/158 195/43/158 193/41/158 239/136/158
f 253/137/159 290/140/159 152/139/159 102/138/159
f 285/151/163 284/152/163 290/140/163 253/137/163
f 284/152/164 286/154/164 291/153/164 290/140/164
f 286/155/165 287/158/165 292/157/165 291/156/165
f 287/158/166 288/160/166 293/159/166 292/157/166
f 285/151/168 253/137/168 177/19/168 283/135/168
f 293/159/169 288/160/169 281/177/169 289/176/169
f 257/178/170 260/181/170 259/180/170 258/179/170
f 261/102/171 262/90/171 257/178/171 258/179/171
f 206/75/172 210/63/172 214/102/172 261/102/172 258/179/172 198/182/172
f 198/182/173 258/179/173 259/180/173 200/183/173
f 200/183/174 259/180/174 260/181/174 201/184/174
f 201/184/175 260/181/175 257/178/175 199/178/175
f 273/90/176 262/90/176 261/102/176 214/102/176 275/91/176
f 265/185/177 268/188/177 267/187/177 266/186/177
f 263/189/178 264/108/178 265/185/178 266/186/178
f 257/178/179 262/90/179 273/90/179 280/189/179 263/189/179 266/190/179 234/190/179 199/178/179
f 296/101/180 217/108/180 264/108/180 263/100/180 280/100/180
f 265/185/181 264/108/181 217/108/181 178/5/181 282/21/181 235/185/181
f 234/190/182 266/186/182 267/187/182 236/191/182
f 236/191/183 267/187/183 268/188/183 237/192/183
f 237/192/184 268/188/184 265/185/184 235/185/184
f 289/23/6 180/6/6 184/25/6 181/25/6 182/193/6 150/24/6
f 172/174/195 282/134/195 281/177/195 169/173/195
f 171/175/196 283/133/196 282/134/196 172/174/196
f 249/169/197 284/209/197 285/208/197 247/168/197
f 250/170/198 286/155/198 284/209/198 249/169/198
f 251/171/199 287/158/199 286/155/199 250/170/199
f 248/172/200 288/160/200 287/158/200 251/171/200
f 247/168/201 285/208/201 283/133/201 171/175/201
f 169/173/202 281/177/202 288/160/202 248/172/202
f 173/162/105 289/176/105 150/210/105 168/161/105
f 246/142/203 152/139/203 290/140/203 256/141/203
f 256/141/204 290/140/204 291/153/204 255/144/204
f 245/143/205 155/211/205 152/139/205 246/142/205
f 255/145/206 291/156/206 292/157/206 254/148/206
f 244/147/207 157/213/207 155/212/207 245/146/207
f 254/148/208 292/157/208 293/159/208 252/150/208
f 243/149/209 159/214/209 157/213/209 244/147/209
f 168/161/114 150/210/114 159/214/114 243/149/114
f 252/150/113 293/159/113 289/176/113 173/162/113
f 229/113/211 294/99/211 295/84/211 219/112/211
g body.003_glass
usemtl glass
f 73/104/42 165/105/42 166/106/42 85/107/42
f 77/112/45 87/113/45 161/114/45 162/115/45
f 6/206/90 71/200/90 79/199/90 27/207/90
f 80/194/115 82/196/115 78/197/115 70/198/115 74/205/115 84/202/115 88/201/115 90/203/115 86/204/115 76/195/115
f 215/104/42 227/107/42 166/106/42 165/105/42
f 219/112/45 162/115/45 161/114/45 229/113/45
f 6/206/90 27/207/90 221/199/90 213/200/90
f 222/194/210 218/195/210 228/204/210 232/203/210 230/201/210 226/202/210 216/205/210 212/198/210 220/197/210 224/196/210
g body.003_black
usemtl black
f 16/1/1 15/2/1 3/3/1 5/4/1
f 17/9/3 16/1/3 5/4/3 7/10/3
f 20/11/3 17/9/3 7/10/3 12/12/3
f 18/19/3 20/11/3 12/12/3 11/20/3
f 15/2/14 43/35/14 35/34/14 3/3/14
f 115/141/59 105/142/59 104/143/59 114/144/59
f 114/145/60 104/146/60 103/147/60 113/148/60
f 113/148/61 103/147/61 101/149/61 111/150/61
f 101/149/66 1/161/66 14/162/66 111/150/66
f 112/137/67 18/19/67 11/20/67 102/138/67
f 106/168/68 108/169/68 109/170/68 110/171/68 107/172/68 2/173/68 10/174/68 8/175/68
f 175/1/1 5/4/1 3/3/1 174/2/1
f 176/9/3 7/10/3 5/4/3 175/1/3
f 179/11/3 12/12/3 7/10/3 176/9/3
f 177/19/3 11/20/3 12/12/3 179/11/3
f 174/2/14 3/3/14 35/34/14 189/35/14
f 256/141/160 255/144/160 245/143/160 246/142/160
f 255/145/161 254/148/161 244/147/161 245/146/161
f 254/148/162 252/150/162 243/149/162 244/147/162
f 243/149/66 252/150/66 173/162/66 168/161/66
f 253/137/167 102/138/167 11/20/167 177/19/167
f 247/168/4 171/175/4 172/174/4 169/173/4 248/172/4 251/171/4 250/170/4 249/169/4
g body.003_metal
usemtl metal
f 130/82/32 131/83/32 163/84/32 81/85/32
f 132/86/33 130/82/33 81/85/33 83/87/33
f 133/88/34 132/86/34 83/87/34 135/89/34
f 134/90/35 133/88/35 135/89/35 136/91/35
f 137/92/36 138/93/36 167/94/36 89/95/36
f 139/96/37 137/92/37 89/95/37 91/97/37
f 140/98/38 139/96/38 91/97/38 160/99/38
f 131/83/39 140/98/39 160/99/39 163/84/39
f 138/93/40 141/100/40 164/101/40 167/94/40
f 163/84/44 28/110/44 30/111/44 81/85/44
f 83/87/46 29/116/46 128/103/46 135/89/46
f 81/85/47 30/111/47 29/116/47 83/87/47
f 167/94/48 32/109/48 34/109/48 89/95/48
f 91/97/49 33/117/49 31/118/49 160/99/49
f 89/95/50 34/109/50 33/117/50 91/97/50
f 80/194/86 76/195/86 131/83/86 130/82/86
f 82/196/87 80/194/87 130/82/87 132/86/87
f 78/197/88 82/196/88 132/86/88 133/88/88
f 70/198/89 78/197/89 133/88/89 134/90/89
f 79/199/90 71/200/90 136/91/90 135/89/90
f 88/201/91 84/202/91 138/93/91 137/92/91
f 90/203/92 88/201/92 137/92/92 139/96/92
f 86/204/93 90/203/93 139/96/93 140/98/93
f 76/195/94 86/204/94 140/98/94 131/83/94
f 84/202/95 74/205/95 141/100/95 138/93/95
f 71/200/90 6/206/90 129/103/90 136/91/90
f 74/205/96 70/198/96 134/90/96 141/100/96
f 27/207/90 79/199/90 135/89/90 128/103/90
f 77/112/117 162/115/117 28/110/117 163/84/117
f 161/114/118 87/113/118 160/99/118 31/118/118
f 73/104/119 85/107/119 167/94/119 164/101/119
f 165/105/120 73/104/120 164/101/120 13/109/120
f 85/107/121 166/106/121 32/109/121 167/94/121
f 269/82/142 223/85/142 295/84/142 270/83/142
f 271/86/143 225/87/143 223/85/143 269/82/143
f 272/88/144 274/89/144 225/87/144 271/86/144
f 273/90/145 275/91/145 274/89/145 272/88/145
f 276/92/146 231/95/146 297/94/146 277/93/146
f 278/96/147 233/97/147 231/95/147 276/92/147
f 279/98/148 294/99/148 233/97/148 278/96/148
f 270/83/149 295/84/149 294/99/149 279/98/149
f 277/93/150 297/94/150 296/101/150 280/100/150
f 295/84/44 223/85/44 30/111/44 28/110/44
f 225/87/46 274/89/46 128/103/46 29/116/46
f 223/85/47 225/87/47 29/116/47 30/111/47
f 297/94/48 231/95/48 34/109/48 32/109/48
f 233/97/49 294/99/49 31/118/49 33/117/49
f 231/95/50 233/97/50 33/117/50 34/109/50
f 222/194/185 269/82/185 270/83/185 218/195/185
f 224/196/186 271/86/186 269/82/186 222/194/186
f 220/197/187 272/88/187 271/86/187 224/196/187
f 212/198/188 273/90/188 272/88/188 220/197/188
f 221/199/90 274/89/90 275/91/90 213/200/90
f 230/201/189 276/92/189 277/93/189 226/202/189
f 232/203/190 278/96/190 276/92/190 230/201/190
f 228/204/191 279/98/191 278/96/191 232/203/191
f 218/195/192 270/83/192 279/98/192 228/204/192
f 226/202/193 277/93/193 280/100/193 216/205/193
f 213/200/90 275/91/90 129/103/90 6/206/90
f 216/205/194 280/100/194 273/90/194 212/198/194
f 27/207/90 128/103/90 274/89/90 221/199/90
f 219/112/117 295/84/117 28/110/117 162/115/117
f 161/114/118 31/118/118 294/99/118 229/113/118
f 215/104/212 296/101/212 297/94/212 227/107/212
f 165/105/120 13/109/120 296/101/120 215/104/120
f 227/107/121 297/94/121 32/109/121 166/106/121
g wing_wing
v -1.749536 0.480185 -0.055873
v -1.749536 0.480185 -0.295104
v -1.310287 0.480185 -0.295104
v -1.933850 0.651119 -0.295104
v -1.634018 0.651119 -0.295104
v -1.307452 0.480185 -0.177384
v -1.749536 0.480185 -0.178798
v -1.671627 0.651119 -0.178798
v -1.933850 0.651119 -0.178798
v -1.634018 0.702837 -0.295104
v -1.671627 0.702837 -0.178798
v -1.671627 0.651119 -0.055873
v -1.933850 0.651119 -0.055873
v -1.933850 0.702837 -0.055873
v -1.671627 0.702837 -0.055873
v -1.933850 0.651119 -0.914863
v -1.634018 0.651119 -0.914863
v -1.933850 0.851087 -0.914863
v -1.634018 0.753666 -0.914863
v -2.167553 0.727616 -0.295104
v -2.167553 0.727616 -0.178798
v -2.167553 0.779334 -0.295104
v -2.167553 0.779334 -0.178798
v -2.167553 0.779334 -0.055873
v -2.167553 0.727616 -0.055873
v -2.167553 0.727616 -0.914863
v -2.167553 0.927584 -0.914863
v -1.634018 0.702837 -0.859254
v -2.167553 0.779334 -0.830818
v -1.749536 0.480185 0.183358
v -1.310287 0.480185 0.183358
v -1.933850 0.651119 0.183358
v -1.634018 0.651119 0.183358
v -1.307452 0.480185 0.065638
v -1.749536 0.480185 0.067052
v -1.671627 0.651119 0.067052
v -1.933850 0.651119 0.067052
v -1.634018 0.702837 0.183358
v -1.671627 0.702837 0.067052
v -1.933850 0.651119 0.803117
v -1.634018 0.651119 0.803117
v -1.933850 0.851087 0.803117
v -1.634018 0.753666 0.803117
v -2.167553 0.727616 0.183358
v -2.167553 0.727616 0.067052
v -2.167553 0.779334 0.183358
v -2.167553 0.779334 0.067052
v -2.167553 0.727616 0.803117
v -2.167553 0.927584 0.803117
v -1.634018 0.702837 0.747508
v -2.167553 0.779334 0.719072
vn -0.0000 -0.0000 -1.0000
vn -0.0020 0.0009 1.0000
vn -0.0000 -1.0000 -0.0000
vn -0.6800 -0.7332 -0.0000
vn 0.4440 0.8936 0.0660
vn -0.3111 -0.9504 -0.0000
vn 0.9515 -0.0000 0.3077
vn -0.0000 -0.0000 1.0000
vn 1.0000 -0.0000 -0.0000
vn -1.0000 -0.0000 -0.0000
vn 0.1442 0.9892 0.0274
vn 0.1549 0.5680 0.8084
vn -0.0020 0.0009 -1.0000
vn 0.4440 0.8936 -0.0660
vn 0.9515 -0.0000 -0.3077
vn 0.1442 0.9892 -0.0274
vn 0.1549 0.5680 -0.8084
vt 0.840849 0.626757
vt 0.875000 0.626757
vt 0.625000 1.000000
vt 0.625000 0.967680
s 0
g wing_black
usemtl black
f 300/215/213 299/216/213 301/216/213 302/215/213
f 304/217/214 303/218/214 305/218/214 306/217/214
f 298/217/216 304/217/216 306/217/216 301/216/216 299/216/216
f 302/215/217 305/218/217 303/218/217 300/215/217
f 310/217/220 309/218/220 312/218/220 311/217/220
f 310/217/220 311/217/220 321/217/220 322/217/220
f 328/215/220 330/215/220 329/216/220 327/216/220
f 332/217/225 334/217/225 333/218/225 331/218/225
f 298/217/216 327/216/216 329/216/216 334/217/216 332/217/216
f 330/215/226 328/215/226 331/218/226 333/218/226
g wing_metal
usemtl metal
f 306/217/215 305/218/215 309/218/215 310/217/215
f 306/217/218 310/217/218 322/217/218 318/217/218
f 305/218/219 302/215/219 307/215/219 308/218/219
f 302/215/215 301/216/215 313/216/215 314/215/215
f 305/218/221 308/218/221 312/218/221 309/218/221
f 317/216/222 318/217/222 322/217/222 321/217/222 320/217/222 319/216/222 326/216/222 324/216/222 323/216/222
f 307/215/221 302/215/221 314/215/221 316/215/221 325/215/221
f 314/215/213 313/216/213 323/216/213 324/216/213 315/216/213 316/215/213
f 301/216/218 306/217/218 318/217/218 317/216/218
f 313/216/218 301/216/218 317/216/218 323/216/218
f 308/218/223 307/215/223 325/215/223 326/216/223 319/216/223 320/217/223 321/217/223 311/217/223 312/218/223
f 326/216/224 325/215/224 316/215/224 315/216/224 324/216/224
f 334/217/215 310/217/215 309/218/215 333/218/215
f 334/217/218 342/217/218 322/217/218 310/217/218
f 333/218/227 336/218/227 335/215/227 330/215/227
f 330/215/215 338/215/215 337/216/215 329/216/215
f 333/218/221 309/218/221 312/218/221 336/218/221
f 341/216/222 345/216/222 346/216/222 348/216/222 343/216/222 344/217/222 321/217/222 322/217/222 342/217/222
f 335/215/221 347/215/221 340/215/221 338/215/221 330/215/221
f 338/215/220 340/215/220 339/216/220 346/216/220 345/216/220 337/216/220
f 329/216/218 341/216/218 342/217/218 334/217/218
f 337/216/218 345/216/218 341/216/218 329/216/218
f 336/218/228 312/218/228 311/217/228 321/217/228 344/217/228 343/216/228 348/216/228 347/215/228 335/215/228
f 348/216/229 346/216/229 339/216/229 340/215/229 347/215/229
g bumper_bumper
v 1.798665 0.054487 -0.055873
v 1.836259 0.032782 -0.055873
v 1.836259 -0.010628 -0.055873
v 1.798665 -0.032332 -0.055873
v 1.761071 -0.010628 -0.055873
v 1.761071 0.032782 -0.055873
v 1.774420 0.054487 -0.299556
v 1.810153 0.032782 -0.311238
v 1.810153 -0.010628 -0.311238
v 1.774420 -0.032332 -0.299556
v 1.738687 -0.010628 -0.287875
v 1.738687 0.032782 -0.287875
v 1.727959 0.032782 -0.325531
v 1.758991 0.054487 -0.346750
v 1.727959 -0.010628 -0.325531
v 1.758991 -0.032332 -0.346750
v 1.790024 -0.010628 -0.367970
v 1.790024 0.032782 -0.367970
v 1.596988 0.032782 -0.505646
v 1.628021 0.054487 -0.526866
v 1.596988 -0.010628 -0.505646
v 1.628021 -0.032332 -0.526866
v 1.659053 -0.010628 -0.548086
v 1.659053 0.032782 -0.548086
v 1.640052 -0.182087 -0.276017
v 1.631885 -0.141084 -0.264335
v 1.629621 -0.170719 -0.323211
v 1.624632 -0.133180 -0.301991
v 0.940402 -0.180550 -0.242936
v 0.932236 -0.139547 -0.231254
v 0.929971 -0.169182 -0.290130
v 0.924982 -0.131642 -0.268910
v 1.774420 0.054487 0.187810
v 1.810153 0.032782 0.199492
v 1.810153 -0.010628 0.199492
v 1.774420 -0.032332 0.187810
v 1.738687 -0.010628 0.176129
v 1.738687 0.032782 0.176129
v 1.727959 0.032782 0.213784
v 1.758991 0.054487 0.235004
v 1.727959 -0.010628 0.213784
v 1.758991 -0.032332 0.235004
v 1.790024 -0.010628 0.256224
v 1.790024 0.032782 0.256224
v 1.596988 0.032782 0.393900
v 1.628021 0.054487 0.415120
v 1.596988 -0.010628 0.393900
v 1.628021 -0.032332 0.415120
v 1.659053 -0.010628 0.436340
v 1.659053 0.032782 0.436340
v 1.640052 -0.182087 0.164271
v 1.631885 -0.141084 0.152589
v 1.629621 -0.170719 0.211465
v 1.624632 -0.133180 0.190245
v 0.940402 -0.180550 0.131190
v 0.932236 -0.139547 0.119508
v 0.929971 -0.169182 0.178384
v 0.924982 -0.131642 0.157164
vn 0.5028 0.8629 -0.0507
vn 0.9948 -0.0000 -0.1017
vn 0.5028 -0.8629 -0.0507
vn -0.5030 -0.8629 0.0493
vn -0.0000 -0.0000 1.0000
vn -0.9954 -0.0000 0.0960
vn -0.5030 0.8629 0.0493
vn 0.9424 -0.0000 -0.3344
vn 0.8088 -0.0000 -0.5881
vn -0.4912 0.2898 -0.8214
vn -0.4860 0.8610 0.1498
vn 0.4796 0.8620 -0.1641
vn 0.4796 -0.8620 -0.1641
vn -0.9617 -0.0000 0.2740
vn -0.5644 -0.0000 -0.8255
vn -0.4045 -0.8659 0.2941
vn -0.4045 0.8659 0.2941
vn 0.4045 0.8659 -0.2941
vn 0.4045 -0.8659 -0.2941
vn -0.8088 -0.0000 0.5881
vn 0.0118 0.9791 0.2033
vn 0.6880 -0.6738 -0.2696
vn 0.3248 -0.1220 0.9379
vn -0.7242 0.6462 0.2407
vn -0.9630 -0.2241 0.1498
vn 0.0450 -0.2654 0.9631
vn -0.0131 -0.9728 -0.2314
vn -0.0402 0.4876 -0.8721
vn 0.5028 0.8629 0.0507
vn 0.9948 -0.0000 0.1017
vn 0.5028 -0.8629 0.0507
vn -0.5030 -0.8629 -0.0493
vn -0.9954 -0.0000 -0.0960
vn -0.5030 0.8629 -0.0493
vn 0.9424 -0.0000 0.3344
vn 0.8088 -0.0000 0.5881
vn -0.4912 0.2898 0.8214
vn -0.4860 0.8610 -0.1498
vn 0.4796 0.8620 0.1641
vn 0.4796 -0.8620 0.1641
vn -0.9617 -0.0000 -0.2740
vn -0.5644 -0.0000 0.8255
vn -0.4045 -0.8659 -0.2941
vn -0.4045 0.8659 -0.2941
vn 0.4045 0.8659 0.2941
vn 0.4045 -0.8659 0.2941
vn -0.8088 -0.0000 -0.5881
vn 0.0118 0.9791 -0.2033
vn 0.6880 -0.6738 0.2696
vn 0.3248 -0.1220 -0.9379
vn -0.7242 0.6462 -0.2407
vn -0.9630 -0.2241 -0.1498
vn 0.0450 -0.2654 -0.9631
vn -0.0131 -0.9728 0.2314
vn -0.0402 0.4876 0.8721
vt 1.000000 0.683032
vt 1.000000 1.000000
vt 0.833333 1.000000
vt 0.833333 0.683032
vt 0.666667 1.000000
vt 0.666667 0.683032
vt 0.500000 1.000000
vt 0.500000 0.683032
vt 0.333333 1.000000
vt 0.333333 0.683032
vt 0.457846 0.370000
vt 0.250000 0.490000
vt 0.042154 0.370000
vt 0.042154 0.130000
vt 0.250000 0.010000
vt 0.457846 0.130000
vt 0.166667 1.000000
vt 0.166667 0.683032
vt -0.000000 1.000000
vt -0.000000 0.683032
s 0
g bumper_metal
usemtl metal
f 355/219/230 349/220/230 350/221/230 356/222/230
f 356/222/231 350/221/231 351/223/231 357/224/231
f 357/224/232 351/223/232 352/225/232 358/226/232
f 358/226/233 352/225/233 353/227/233 359/228/233
f 350/229/234 349/230/234 354/231/234 353/232/234 352/233/234 351/234/234
f 359/228/235 353/227/235 354/235/235 360/236/235
f 360/236/236 354/235/236 349/237/236 355/238/236
f 356/222/237 357/224/237 365/224/237 366/222/237
f 366/222/238 365/224/238 371/224/238 372/222/238
f 363/228/239 364/226/239 375/226/239 376/228/239
f 360/236/240 355/238/240 362/238/240 361/236/240
f 355/219/241 356/222/241 366/222/241 362/219/241
f 357/224/242 358/226/242 364/226/242 365/224/242
f 359/228/243 360/236/243 361/236/243 363/228/243
f 367/236/244 368/219/244 372/222/244 371/224/244 370/226/244 369/228/244
f 364/226/245 363/228/245 369/228/245 370/226/245
f 361/236/246 362/238/246 368/238/246 367/236/246
f 362/219/247 366/222/247 372/222/247 368/219/247
f 365/224/248 364/226/248 370/226/248 371/224/248
f 363/228/249 361/236/249 367/236/249 369/228/249
f 374/228/250 376/228/250 380/228/250 378/228/250
f 364/226/251 358/226/251 373/226/251 375/226/251
f 358/226/252 359/228/252 374/228/252 373/226/252
f 359/228/253 363/228/253 376/228/253 374/228/253
f 377/226/254 378/228/254 380/228/254 379/226/254
f 373/226/255 374/228/255 378/228/255 377/226/255
f 375/226/256 373/226/256 377/226/256 379/226/256
f 376/228/257 375/226/257 379/226/257 380/228/257
f 381/219/258 382/222/258 350/221/258 349/220/258
f 382/222/259 383/224/259 351/223/259 350/221/259
f 383/224/260 384/226/260 352/225/260 351/223/260
f 384/226/261 385/228/261 353/227/261 352/225/261
f 385/228/262 386/236/262 354/235/262 353/227/262
f 386/236/263 381/238/263 349/237/263 354/235/263
f 382/222/264 392/222/264 391/224/264 383/224/264
f 392/222/265 398/222/265 397/224/265 391/224/265
f 389/228/266 402/228/266 401/226/266 390/226/266
f 386/236/267 387/236/267 388/238/267 381/238/267
f 381/219/268 388/219/268 392/222/268 382/222/268
f 383/224/269 391/224/269 390/226/269 384/226/269
f 385/228/270 389/228/270 387/236/270 386/236/270
f 393/236/271 395/228/271 396/226/271 397/224/271 398/222/271 394/219/271
f 390/226/272 396/226/272 395/228/272 389/228/272
f 387/236/273 393/236/273 394/238/273 388/238/273
f 388/219/274 394/219/274 398/222/274 392/222/274
f 391/224/275 397/224/275 396/226/275 390/226/275
f 389/228/276 395/228/276 393/236/276 387/236/276
f 400/228/277 404/228/277 406/228/277 402/228/277
f 390/226/278 401/226/278 399/226/278 384/226/278
f 384/226/279 399/226/279 400/228/279 385/228/279
f 385/228/280 400/228/280 402/228/280 389/228/280
f 403/226/281 405/226/281 406/228/281 404/228/281
f 399/226/282 403/226/282 404/228/282 400/228/282
f 401/226/283 405/226/283 403/226/283 399/226/283
f 402/228/284 406/228/284 405/226/284 401/226/284
