# Blender 5.1.1
# www.blender.org
mtllib gila.mtl
g body.002_Cube
v 1.788503 -0.035533 -0.719749
v 1.055970 0.603531 -0.935533
v 1.936454 0.025465 -0.489657
v 0.829939 0.727065 -0.794605
v 0.961075 -0.173492 -0.672436
v -0.216001 0.603531 -0.935533
v -0.216001 -0.096715 -0.935533
v -0.170756 0.726717 -0.793446
v 0.494121 1.040097 -0.693580
v -0.170741 1.089288 -0.694327
v 1.936454 -0.035533 -0.286318
v 1.017740 0.720925 -0.376576
v 1.055970 -0.173492 -0.289178
v -0.216001 -0.173492 -0.289178
v 0.639492 1.098551 -0.383067
v -0.281442 1.122214 -0.346656
v -1.643394 0.769619 -0.555941
v -1.668592 0.699723 -0.717585
v -1.841465 0.205726 -0.264999
v 1.055970 0.408337 -0.957054
v 1.646371 -0.067593 -0.769895
v 0.814682 -0.096715 -0.935533
v 1.624391 0.270788 -0.786206
v 1.386359 0.403360 -0.856096
v 1.794792 -0.035533 -0.669788
v 1.592823 -0.067593 -0.695444
v 1.514518 0.614497 -0.725129
v 1.440542 0.545945 -0.827641
v 1.022466 0.254052 -0.641728
v 1.103280 0.355799 -0.659736
v 1.575477 0.195699 -0.655046
v 1.368345 0.351791 -0.627155
v 1.825115 -0.035533 0.721611
v 0.600939 1.135675 -0.383686
v 0.960566 0.722133 -0.788392
v -0.286420 0.615623 -0.785528
v 0.604243 1.050598 -0.683426
v -0.285022 1.058771 -0.721114
v 1.055970 0.683476 -0.379296
v 1.889530 -0.005034 -0.604703
v 1.703423 0.458639 -0.734854
v 1.825115 0.368661 -0.719749
v 1.838344 0.530610 -0.610493
v 1.934249 0.485354 -0.587962
v 1.838001 0.552500 -0.291024
v 1.973066 0.444317 -0.286318
v 1.926143 0.434509 -0.653506
v 1.841733 0.510015 -0.617192
v 0.600939 1.135675 0.000000
v -1.857996 0.166164 0.000000
v -0.216001 1.128267 0.000000
v -1.684915 0.754545 0.000000
v 1.936454 -0.035533 0.000000
v 1.017740 0.720925 0.000000
v 1.055970 -0.173492 0.000000
v -0.216001 -0.173492 0.000000
v 0.639492 1.098551 0.000000
v 1.055970 0.683476 0.000000
v 1.838001 0.552500 0.000000
v 1.973066 0.444403 0.000000
v -0.170756 0.726717 0.000000
v 0.494121 1.040097 0.000000
v -0.170741 1.089288 0.000000
v 0.829939 0.727065 0.000000
v -0.216001 -0.173492 -0.600831
v -0.286586 -0.016328 -0.660192
v -0.216001 -0.153262 -0.741758
v -0.143788 -0.173492 -0.672436
v -1.764055 0.614656 -0.789256
v -1.813999 0.704259 -0.804284
v -1.767218 0.166164 -0.600997
v -1.638778 0.281482 -0.667222
v 0.956588 0.692341 -0.840781
v 0.980208 0.695356 -0.832847
v 0.991230 0.683476 -0.836277
v 1.004786 0.681394 -0.848724
v 0.997199 0.673607 -0.862811
v 0.972467 0.683476 -0.852570
v 0.574934 1.072518 -0.713285
v 0.548312 1.073784 -0.719921
v 0.545509 1.083375 -0.726538
v 0.563765 1.084765 -0.710381
v 1.913538 0.307460 0.000000
v 1.965645 0.349533 0.000000
v 1.942429 0.045346 0.000000
v 1.895834 0.082947 0.000000
v 1.913054 0.316055 -0.286318
v 1.965162 0.353074 -0.286318
v 1.942640 0.048209 -0.286318
v 1.896048 0.085846 -0.286318
v 1.968462 0.392977 -0.506322
v 1.915222 0.347058 -0.457137
v 1.942614 0.096758 -0.433528
v 1.896652 0.124100 -0.402378
v -1.942668 0.577955 -0.478282
v -1.935270 0.710237 -0.560176
v -1.935279 0.710233 0.000000
v -1.980710 0.617512 0.000000
v -1.926958 0.619513 -0.755755
v -1.878035 0.702605 -0.821622
v -0.216001 0.319464 -0.965862
v -0.216001 0.159515 -0.965162
v 0.854442 0.169171 -0.965408
v 0.962752 0.330099 -0.965587
v 0.900584 0.250296 -0.901563
v -1.641372 0.767504 -0.645067
v -0.284152 1.117416 -0.436222
v -1.643394 0.769619 0.000000
v -0.281442 1.122214 0.000000
v -1.692143 0.223055 -0.698618
v -0.216001 -0.101179 -0.687636
v -0.283911 0.725233 -0.798736
v -1.692143 0.223055 -0.698618
v -0.216001 -0.101179 -0.687636
v -1.863644 0.683476 -0.852570
v -0.216001 0.683476 -0.852570
v -1.857996 0.166164 -0.289178
v -1.841465 0.205726 0.000000
v -1.980712 0.617518 -0.547799
v -1.942667 0.577950 0.000000
v -0.285744 1.085747 -0.643039
v -0.216001 0.683476 -0.852570
v -1.637673 0.734146 -0.642697
v -1.877817 0.702663 -0.821756
v -1.863644 0.683476 -0.852570
v -0.216001 1.189674 -0.383686
v -1.684915 0.815952 -0.605511
v -0.240746 1.096451 -0.723772
v -0.232065 1.118171 -0.697265
v -0.216001 1.140658 -0.694898
v -0.184045 1.133480 -0.726538
v -0.195970 1.115144 -0.712282
v -0.216001 1.104820 -0.735138
v -1.668521 0.752303 -0.697443
v -1.676866 0.731265 -0.722123
v -1.712605 0.753442 -0.740206
v -1.684915 0.775004 -0.697287
v 1.788503 -0.035533 0.719749
v 1.055970 0.603531 0.935533
v 1.936454 0.025465 0.489657
v 0.829939 0.727065 0.794605
v 0.961075 -0.173492 0.672436
v -0.216001 0.603531 0.935533
v -0.216001 -0.096715 0.935533
v -0.170756 0.726717 0.793446
v 0.494121 1.040097 0.693580
v -0.170741 1.089288 0.694327
v 1.936454 -0.035533 0.286318
v 1.017740 0.720925 0.376576
v 1.055970 -0.173492 0.289178
v -0.216001 -0.173492 0.289178
v 0.639492 1.098551 0.383067
v -0.281442 1.122214 0.346656
v -1.643394 0.769619 0.555941
v -1.668592 0.699723 0.717585
v -1.841465 0.205726 0.264999
v 1.055970 0.408337 0.957054
v 1.646371 -0.067593 0.769895
v 0.814682 -0.096715 0.935533
v 1.624391 0.270788 0.786206
v 1.386359 0.403360 0.856096
v 1.794792 -0.035533 0.669788
v 1.592823 -0.067593 0.695444
v 1.514518 0.614497 0.725129
v 1.440542 0.545945 0.827641
v 1.022466 0.254052 0.641728
v 1.103280 0.355799 0.659736
v 1.575477 0.195699 0.655046
v 1.368345 0.351791 0.627155
v 1.825115 -0.035533 -0.721611
v 0.600939 1.135675 0.383686
v 0.960566 0.722133 0.788392
v -0.286420 0.615623 0.785528
v 0.604243 1.050598 0.683426
v -0.285022 1.058771 0.721114
v 1.055970 0.683476 0.379296
v 1.889530 -0.005034 0.604703
v 1.703423 0.458639 0.734854
v 1.825115 0.368661 0.719749
v 1.838344 0.530610 0.610493
v 1.934249 0.485354 0.587962
v 1.838001 0.552500 0.291024
v 1.973066 0.444317 0.286318
v 1.926143 0.434509 0.653506
v 1.841733 0.510015 0.617192
v -0.216001 -0.173492 0.600831
v -0.286586 -0.016328 0.660192
v -0.216001 -0.153262 0.741758
v -0.143788 -0.173492 0.672436
v -1.764055 0.614656 0.789256
v -1.813999 0.704259 0.804284
v -1.767218 0.166164 0.600997
v -1.638778 0.281482 0.667222
v 0.956588 0.692341 0.840781
v 0.980208 0.695356 0.832847
v 0.991230 0.683476 0.836277
v 1.004786 0.681394 0.848724
v 0.997199 0.673607 0.862811
v 0.972467 0.683476 0.852570
v 0.574934 1.072518 0.713285
v 0.548312 1.073784 0.719921
v 0.545509 1.083375 0.726538
v 0.563765 1.084765 0.710381
v 1.913054 0.316055 0.286318
v 1.965162 0.353074 0.286318
v 1.942640 0.048209 0.286318
v 1.896048 0.085846 0.286318
v 1.968462 0.392977 0.506322
v 1.915222 0.347058 0.457137
v 1.942614 0.096758 0.433528
v 1.896652 0.124100 0.402378
v -1.942668 0.577955 0.478282
v -1.935270 0.710237 0.560176
v -1.926958 0.619513 0.755755
v -1.878035 0.702605 0.821622
v -0.216001 0.319464 0.965862
v -0.216001 0.159515 0.965162
v 0.854442 0.169171 0.965408
v 0.962752 0.330099 0.965587
v 0.900584 0.250296 0.901563
v -1.641372 0.767504 0.645067
v -0.284152 1.117416 0.436222
v -1.692143 0.223055 0.698618
v -0.216001 -0.101179 0.687636
v -0.283911 0.725233 0.798736
v -1.692143 0.223055 0.698618
v -0.216001 -0.101179 0.687636
v -1.863644 0.683476 0.852570
v -0.216001 0.683476 0.852570
v -1.857996 0.166164 0.289178
v -1.980712 0.617518 0.547799
v -0.285744 1.085747 0.643039
v -0.216001 0.683476 0.852570
v -1.637673 0.734146 0.642697
v -1.877817 0.702663 0.821756
v -1.863644 0.683476 0.852570
v -0.216001 1.189674 0.383686
v -1.684915 0.815952 0.605511
v -0.240746 1.096451 0.723772
v -0.232065 1.118171 0.697265
v -0.216001 1.140658 0.694898
v -0.184045 1.133480 0.726538
v -0.195970 1.115144 0.712282
v -0.216001 1.104820 0.735138
v -1.668521 0.752303 0.697443
v -1.676866 0.731265 0.722123
v -1.712605 0.753442 0.740206
v -1.684915 0.775004 0.697287
vn 0.2417 -0.9651 0.1004
vn 0.1898 -0.9729 -0.1319
vn -0.2177 0.9294 -0.2979
vn 0.1691 -0.9835 0.0642
vn 0.1688 -0.9729 0.1580
vn 0.1241 -0.9654 0.2293
vn -0.4809 -0.7953 -0.3691
vn 0.0291 -0.9803 -0.1955
vn -0.8884 -0.0398 -0.4573
vn 0.0227 0.0684 -0.9974
vn -0.0579 0.1302 -0.9898
vn 0.1139 -0.2602 -0.9588
vn -0.0198 0.1504 -0.9884
vn 0.0378 0.9993 -0.0023
vn 0.0804 -0.9857 0.1479
vn -0.0551 -0.3586 0.9319
vn 0.3812 0.6448 -0.6625
vn 0.5540 0.8324 -0.0087
vn 0.3416 0.5253 -0.7794
vn 0.3132 0.0574 -0.9479
vn 0.6907 -0.1014 -0.7160
vn 0.9630 -0.0790 -0.2578
vn -0.2506 0.9681 -0.0000
vn 0.0284 0.9964 0.0797
vn 0.1652 0.9863 -0.0000
vn 0.6936 0.7203 -0.0000
vn 0.1548 -0.9879 -0.0000
vn 0.6250 0.7806 -0.0001
vn -0.0000 -1.0000 -0.0000
vn -0.2026 -0.9793 -0.0000
vn 0.6998 0.7144 -0.0000
vn 1.0000 -0.0000 -0.0000
vn -0.0738 -0.9973 -0.0000
vn -0.0003 1.0000 -0.0000
vn 0.0327 0.9995 -0.0000
vn 0.3731 -0.9278 -0.0000
vn -0.6930 -0.7136 -0.1024
vn -0.1675 -0.7741 -0.6105
vn -0.0226 -0.2510 -0.9677
vn -0.0000 -0.9600 -0.2801
vn -0.2080 -0.9777 -0.0303
vn 0.1838 0.8740 -0.4497
vn 0.4483 0.1366 -0.8834
vn 0.2242 0.5047 -0.8337
vn 0.3348 0.6653 -0.6673
vn -0.3707 -0.1023 -0.9231
vn 0.7047 0.7027 -0.0979
vn -0.0000 0.7201 -0.6939
vn 0.1706 0.9853 -0.0084
vn -0.0004 0.8030 -0.5959
vn 0.6521 0.7463 -0.1336
vn 0.6935 0.6951 -0.1896
vn 0.6044 -0.7964 -0.0179
vn 0.6282 0.7780 0.0083
vn 0.5718 -0.8086 -0.1387
vn 0.6071 0.1402 0.7821
vn 0.6112 0.7512 0.2490
vn 0.9966 -0.0821 -0.0013
vn 0.9971 -0.0761 -0.0020
vn 0.9973 -0.0737 -0.0000
vn 0.9968 -0.0794 -0.0095
vn 0.9893 -0.0145 -0.1454
vn -0.8971 0.3850 -0.2167
vn -0.8980 0.4400 -0.0000
vn -0.9650 -0.2624 -0.0000
vn -0.8867 -0.3902 -0.2481
vn -0.2825 0.9580 0.0505
vn -0.8663 0.1290 -0.4826
vn -0.5784 -0.4414 -0.6860
vn 0.8247 -0.5549 0.1091
vn -0.0000 -0.0028 -1.0000
vn -1.0000 -0.0000 -0.0000
vn -0.0004 0.1078 -0.9942
vn 0.0004 -0.1133 -0.9936
vn 0.8767 -0.1319 -0.4625
vn 0.6715 -0.6913 -0.2669
vn -0.2710 0.6184 0.7377
vn -0.4724 0.8783 0.0738
vn 0.3256 0.9442 0.0499
vn -0.0000 1.0000 -0.0000
vn 0.0911 0.3877 -0.9173
vn 0.5188 -0.1012 -0.8489
vn 0.0011 -0.6901 -0.7237
vn -0.5627 -0.1659 -0.8099
vn -0.9227 0.3856 -0.0000
vn -0.7208 -0.6931 -0.0000
vn -0.8629 0.0534 0.5026
vn -0.0032 0.8527 -0.5224
vn -0.0603 0.4671 -0.8822
vn -0.0359 0.6108 -0.7910
vn -0.4365 0.5929 -0.6767
vn 0.6207 0.4704 -0.6273
vn -0.1997 0.7837 -0.5882
vn -0.6766 0.7262 -0.1216
vn 0.0664 0.9852 -0.1581
vn -0.4395 0.2287 -0.8686
vn -0.2316 0.9000 0.3692
vn 0.7008 0.1900 -0.6876
vn -0.0412 -0.5854 -0.8097
vn 0.0285 -0.1180 -0.9926
vn 0.6854 0.5899 -0.4269
vn -0.3246 0.9255 -0.1952
vn 0.4378 0.2144 -0.8732
vn 0.2417 -0.9651 -0.1004
vn 0.1898 -0.9729 0.1319
vn -0.2177 0.9294 0.2979
vn 0.1691 -0.9835 -0.0642
vn 0.1688 -0.9729 -0.1580
vn 0.1241 -0.9654 -0.2293
vn -0.4809 -0.7953 0.3691
vn 0.0291 -0.9803 0.1955
vn -0.8884 -0.0398 0.4573
vn 0.0227 0.0684 0.9974
vn -0.0579 0.1302 0.9898
vn 0.1139 -0.2602 0.9588
vn -0.0198 0.1504 0.9884
vn 0.0378 0.9993 0.0023
vn 0.0804 -0.9857 -0.1479
vn -0.0551 -0.3586 -0.9319
vn 0.3812 0.6448 0.6625
vn 0.5540 0.8324 0.0087
vn 0.3416 0.5253 0.7794
vn 0.3132 0.0574 0.9479
vn 0.6907 -0.1014 0.7160
vn 0.9630 -0.0790 0.2578
vn 0.0284 0.9964 -0.0797
vn 0.6250 0.7806 0.0001
vn -0.6930 -0.7136 0.1024
vn -0.1675 -0.7741 0.6105
vn -0.0226 -0.2510 0.9677
vn -0.0000 -0.9600 0.2801
vn -0.2080 -0.9777 0.0303
vn 0.1838 0.8740 0.4497
vn 0.4483 0.1366 0.8834
vn 0.2242 0.5047 0.8337
vn 0.3348 0.6653 0.6673
vn -0.3707 -0.1023 0.9231
vn 0.7047 0.7027 0.0979
vn -0.0000 0.7201 0.6939
vn 0.1706 0.9853 0.0084
vn -0.0004 0.8030 0.5959
vn 0.6521 0.7463 0.1336
vn 0.6935 0.6951 0.1896
vn 0.6044 -0.7964 0.0179
vn 0.6282 0.7780 -0.0083
vn 0.5718 -0.8086 0.1387
vn 0.6071 0.1402 -0.7821
vn 0.6112 0.7512 -0.2490
vn 0.9966 -0.0821 0.0013
vn 0.9971 -0.0761 0.0020
vn 0.9968 -0.0794 0.0095
vn 0.9893 -0.0145 0.1454
vn -0.8971 0.3850 0.2167
vn -0.8867 -0.3902 0.2481
vn -0.2825 0.9580 -0.0505
vn -0.8663 0.1290 0.4826
vn -0.5784 -0.4414 0.6860
vn 0.8247 -0.5549 -0.1091
vn -0.0000 -0.0028 1.0000
vn -0.0004 0.1078 0.9942
vn 0.0004 -0.1133 0.9936
vn 0.8767 -0.1319 0.4625
vn 0.6715 -0.6913 0.2669
vn -0.2710 0.6184 -0.7377
vn -0.4724 0.8783 -0.0738
vn 0.3256 0.9442 -0.0499
vn 0.0911 0.3877 0.9173
vn 0.5188 -0.1012 0.8489
vn 0.0011 -0.6901 0.7237
vn -0.5627 -0.1659 0.8099
vn -0.8629 0.0534 -0.5026
vn -0.0032 0.8527 0.5224
vn -0.0603 0.4671 0.8822
vn -0.0359 0.6108 0.7910
vn -0.4365 0.5929 0.6767
vn 0.6207 0.4704 0.6273
vn -0.1997 0.7837 0.5882
vn -0.6766 0.7262 0.1216
vn 0.0664 0.9852 0.1581
vn -0.4395 0.2287 0.8686
vn -0.2316 0.9000 -0.3692
vn 0.7008 0.1900 0.6876
vn -0.0412 -0.5854 0.8097
vn 0.0285 -0.1180 0.9926
vn 0.6854 0.5899 0.4269
vn -0.3246 0.9255 0.1952
vn 0.4378 0.2144 0.8732
vt 0.625000 0.540850
vt 0.625000 0.581700
vt 0.000000 0.000000
vt 0.625000 0.500000
vt 0.375000 0.581700
vt 0.625000 0.623343
vt 0.375000 0.623343
vt 0.625000 0.367470
vt 0.625000 0.337548
vt 0.625000 0.345849
vt 0.625000 0.359116
vt 0.125000 0.691902
vt 0.327816 0.606138
vt 0.285626 0.683698
vt 0.312198 0.500000
vt 0.625000 0.331700
vt 0.625000 0.373343
vt 0.625000 0.336629
vt 0.625000 0.331700
vt 0.625000 0.337816
vt 0.625000 0.373343
vt 0.382711 0.310498
vt 0.387559 0.331700
vt 0.375000 0.328900
vt 0.375000 0.287804
vt 0.387653 0.373343
vt 0.375000 0.373108
vt 0.392500 0.250000
vt 0.375000 0.250000
vt 0.375000 0.500000
vt 0.375000 0.625000
vt 0.375000 0.732500
vt 0.348100 0.750000
vt 0.125000 0.750000
vt 0.848100 0.500000
vt 0.850874 0.540850
vt 0.852491 0.581700
vt 0.625000 0.373343
vt 0.625000 0.373343
vt 0.625000 0.331700
vt 0.625000 0.331700
vt 0.375000 0.589480
vt 0.375000 0.570937
vt 0.375000 0.589462
vt 0.603780 0.918300
vt 0.418086 0.918300
vt 0.438402 0.918300
vt 0.594436 0.918300
vt 0.625000 0.332836
vt 0.625000 0.333134
vt 0.621227 0.331700
vt 0.625000 0.321615
vt 0.625000 0.333580
vt 0.625000 0.331800
vt 0.625000 0.333663
vt 0.500000 0.250000
vt 0.625000 0.250000
vt 0.500000 0.331700
vt 0.791570 0.623343
vt 0.788523 0.623343
vt 0.805741 0.623343
vt 0.808782 0.623343
vt 0.681453 0.623343
vt 0.680105 0.623343
vt 0.662616 0.623343
vt 0.663948 0.623343
vt 0.803205 0.598058
vt 0.827032 0.591739
vt 0.689050 0.601996
vt 0.672072 0.595662
vt 0.855506 0.623343
vt 0.592188 0.913004
vt 0.593125 0.876657
vt 0.625000 0.876657
vt 0.624100 0.918447
vt 0.375000 0.876657
vt 0.375000 0.910538
vt 0.625000 0.918300
vt 0.625000 0.918300
vt 0.407473 0.918300
vt 0.229531 0.500000
vt 0.288277 0.500000
vt 0.261011 0.500000
vt 0.226268 0.500000
vt 0.283604 0.500000
vt 0.375000 0.939826
vt 0.396096 0.918300
vt 0.625000 1.000000
vt 0.533604 1.000000
vt 0.476268 1.000000
vt 0.375000 1.000000
vt 0.125000 0.500000
vt 0.625000 0.331700
vt 0.625000 0.331700
vt 0.625000 0.333238
vt 0.625000 0.335543
vt 0.625000 0.335383
vt 0.625000 0.336732
vt 0.625000 0.908235
vt 0.625000 0.331700
s 0
g body.002_Material
usemtl Material
f 40/1/1 3/2/1 25/3/1 1/4/1
f 21/12/4 1/4/4 25/3/4 26/3/4
f 24/13/7 23/14/7 31/14/7 32/13/7
f 20/15/8 24/13/8 32/13/8 30/15/8
f 23/14/9 21/12/9 26/12/9 31/14/9
f 4/16/14 12/17/14 35/18/14
f 9/19/15 37/20/15 15/21/15
f 35/18/16 37/20/16 9/19/16 4/16/16
f 48/22/17 43/23/17 44/24/17 47/25/17
f 43/23/18 45/26/18 46/27/18 44/24/18
f 41/28/19 48/22/19 47/25/19 42/29/19
f 21/12/20 23/14/20 24/13/20 20/15/20 2/30/20 28/31/20 41/32/20 42/33/20 1/34/20
f 1/4/21 42/35/21 47/36/21 40/1/21
f 40/1/22 47/36/22 44/37/22 3/2/22
f 126/3/24 51/3/24 49/3/24 34/3/24
f 45/26/25 39/38/25 58/38/25 59/26/25
f 15/21/26 34/39/26 49/39/26 57/21/26
f 46/27/28 45/26/28 59/26/28 60/27/28
f 39/38/31 12/17/31 54/17/31 58/38/31
f 8/40/32 10/41/32 63/41/32 61/40/32
f 10/41/33 9/19/33 62/19/33 63/41/33
f 4/16/34 8/40/34 61/40/34 64/16/34
f 4/16/35 64/16/35 54/17/35 12/17/35
f 9/19/36 15/21/36 57/21/36 62/19/36
f 65/42/37 111/5/37 67/43/37 68/5/37
f 22/30/40 5/5/40 68/5/40 67/43/40 7/30/40
f 73/40/42 74/49/42 75/50/42 76/51/42 77/52/42 78/40/42
f 79/53/43 80/54/43 81/40/43 82/55/43
f 73/40/44 80/54/44 79/53/44 74/49/44
f 41/28/45 28/56/45 2/57/45 77/52/45 76/51/45 27/58/45 43/23/45 48/22/45
f 4/16/46 9/19/46 80/54/46 73/40/46
f 35/18/47 12/17/47 39/38/47 75/50/47 74/49/47
f 78/40/48 77/52/48 2/57/48 6/57/48 122/40/48
f 43/23/49 27/58/49 76/51/49 75/50/49 39/38/49 45/26/49
f 8/40/50 4/16/50 73/40/50 78/40/50 122/40/50
f 37/20/51 35/18/51 74/49/51 79/53/51
f 15/21/52 37/20/52 79/53/52 82/55/52 34/39/52
f 83/59/53 87/60/53 88/61/53 84/62/53
f 90/63/54 86/64/54 85/65/54 89/66/54
f 87/60/55 92/67/55 91/68/55 88/61/55
f 92/67/56 94/69/56 93/70/56 91/68/56
f 94/69/57 90/63/57 89/66/57 93/70/57
f 84/62/58 88/61/58 46/71/58 60/71/58
f 11/6/60 89/66/60 85/65/60 53/6/60
f 3/2/62 44/37/62 46/71/62 88/61/62 91/68/62 93/70/62 89/66/62 11/6/62
f 99/72/63 119/73/63 96/74/63 100/75/63
f 119/3/64 98/3/64 97/3/64 96/3/64
f 117/76/66 119/73/66 99/72/66 71/77/66
f 127/3/67 96/3/67 97/3/67 52/3/67
f 103/81/70 104/82/70 105/83/70
f 103/81/71 102/84/71 101/85/71 104/82/71
f 67/86/72 111/87/72 122/78/72 6/88/72 101/89/72 102/90/72 7/91/72
f 2/30/73 20/15/73 104/82/73 101/85/73 6/30/73
f 102/84/74 103/81/74 22/92/74 7/92/74
f 22/92/75 103/81/75 105/83/75 29/83/75 5/92/75
f 105/83/76 104/82/76 20/15/76 30/15/76 29/83/76
f 113/80/80 114/87/80 111/87/80 110/80/80
f 115/79/80 113/80/80 110/80/80 125/79/80
f 116/78/80 115/79/80 125/79/80 122/78/80
f 114/87/80 116/78/80 122/78/80 111/87/80
f 118/3/85 19/3/85 117/3/85 50/3/85
f 95/3/86 120/3/86 98/3/86 119/3/86
f 19/3/87 95/3/87 119/3/87 117/3/87
f 34/39/95 82/55/95 81/40/95 131/40/95 130/96/95 126/38/95
f 10/41/98 8/40/98 122/40/98 133/40/98 132/16/98
f 9/19/99 10/41/99 132/16/99 131/40/99 81/40/99 80/54/99
f 124/78/102 100/75/102 96/74/102 127/74/102 137/99/102 136/78/102
f 177/1/104 138/4/104 162/3/104 140/2/104
f 158/12/107 163/3/107 162/3/107 138/4/107
f 161/13/110 169/13/110 168/14/110 160/14/110
f 157/15/111 167/15/111 169/13/111 161/13/111
f 160/14/112 168/14/112 163/12/112 158/12/112
f 141/16/117 172/18/117 149/17/117
f 146/19/118 152/21/118 174/20/118
f 172/18/119 141/16/119 146/19/119 174/20/119
f 185/22/120 184/25/120 181/24/120 180/23/120
f 180/23/121 181/24/121 183/27/121 182/26/121
f 178/28/122 179/29/122 184/25/122 185/22/122
f 158/12/123 138/34/123 179/33/123 178/32/123 165/31/123 139/30/123 157/15/123 161/13/123 160/14/123
f 138/4/124 177/1/124 184/36/124 179/35/124
f 177/1/125 140/2/125 181/37/125 184/36/125
f 237/3/126 171/3/126 49/3/126 51/3/126
f 182/26/25 59/26/25 58/38/25 176/38/25
f 152/21/26 57/21/26 49/39/26 171/39/26
f 183/27/127 60/27/127 59/26/127 182/26/127
f 176/38/31 58/38/31 54/17/31 149/17/31
f 145/40/32 61/40/32 63/41/32 147/41/32
f 147/41/33 63/41/33 62/19/33 146/19/33
f 141/16/34 64/16/34 61/40/34 145/40/34
f 141/16/35 149/17/35 54/17/35 64/16/35
f 146/19/36 62/19/36 57/21/36 152/21/36
f 186/42/128 189/5/128 188/43/128 224/5/128
f 159/30/131 144/30/131 188/43/131 189/5/131 142/5/131
f 194/40/133 199/40/133 198/52/133 197/51/133 196/50/133 195/49/133
f 200/53/134 203/55/134 202/40/134 201/54/134
f 194/40/135 195/49/135 200/53/135 201/54/135
f 178/28/136 185/22/136 180/23/136 164/58/136 197/51/136 198/52/136 139/57/136 165/56/136
f 141/16/137 194/40/137 201/54/137 146/19/137
f 172/18/138 195/49/138 196/50/138 176/38/138 149/17/138
f 199/40/139 233/40/139 143/57/139 139/57/139 198/52/139
f 180/23/140 182/26/140 176/38/140 196/50/140 197/51/140 164/58/140
f 145/40/141 233/40/141 199/40/141 194/40/141 141/16/141
f 174/20/142 200/53/142 195/49/142 172/18/142
f 152/21/143 171/39/143 203/55/143 200/53/143 174/20/143
f 83/59/144 84/62/144 205/61/144 204/60/144
f 207/63/145 206/66/145 85/65/145 86/64/145
f 204/60/146 205/61/146 208/68/146 209/67/146
f 209/67/147 208/68/147 210/70/147 211/69/147
f 211/69/148 210/70/148 206/66/148 207/63/148
f 84/62/149 60/71/149 183/71/149 205/61/149
f 148/6/60 53/6/60 85/65/60 206/66/60
f 140/2/152 148/6/152 206/66/152 210/70/152 208/68/152 205/61/152 183/71/152 181/37/152
f 214/72/153 215/75/153 213/74/153 231/73/153
f 231/3/64 213/3/64 97/3/64 98/3/64
f 230/76/154 192/77/154 214/72/154 231/73/154
f 238/3/155 52/3/155 97/3/155 213/3/155
f 218/81/158 220/83/158 219/82/158
f 218/81/159 219/82/159 216/85/159 217/84/159
f 188/86/72 144/91/72 217/90/72 216/89/72 143/88/72 233/78/72 224/87/72
f 139/30/160 143/30/160 216/85/160 219/82/160 157/15/160
f 217/84/161 144/92/161 159/92/161 218/81/161
f 159/92/162 142/92/162 166/83/162 220/83/162 218/81/162
f 220/83/163 166/83/163 167/15/163 157/15/163 219/82/163
f 226/80/80 223/80/80 224/87/80 227/87/80
f 228/79/80 236/79/80 223/80/80 226/80/80
f 229/78/80 233/78/80 236/79/80 228/79/80
f 227/87/80 224/87/80 233/78/80 229/78/80
f 118/3/85 50/3/85 230/3/85 156/3/85
f 212/3/86 231/3/86 98/3/86 120/3/86
f 156/3/171 230/3/171 231/3/171 212/3/171
f 171/39/179 237/38/179 241/96/179 242/40/179 202/40/179 203/55/179
f 147/41/182 243/16/182 244/40/182 233/40/182 145/40/182
f 146/19/183 201/54/183 202/40/183 242/40/183 243/16/183 147/41/183
f 235/78/186 247/78/186 248/99/186 238/74/186 213/74/186 215/75/186
g body.002_black
usemtl black
f 5/5/2 3/2/2 11/6/2 13/7/2
f 107/8/3 121/9/3 123/10/3 106/11/3
f 3/3/5 5/3/5 26/3/5
f 3/3/6 26/3/6 25/3/6
f 29/3/10 32/3/10 5/3/10
f 32/3/11 26/3/11 5/3/11
f 32/3/12 29/3/12 30/3/12
f 32/3/13 31/3/13 26/3/13
f 16/3/23 17/3/23 108/3/23 109/3/23
f 13/7/27 11/6/27 53/6/27 55/7/27
f 14/7/29 13/7/29 55/7/29 56/7/29
f 117/7/30 14/7/30 56/7/30 50/7/30
f 5/5/29 13/7/29 14/7/29 65/42/29 68/5/29
f 36/45/39 66/46/39 72/47/39 69/48/39
f 65/42/41 14/7/41 117/7/41 71/44/41
f 86/64/59 90/63/59 87/60/59 83/59/59
f 90/63/61 94/69/61 92/67/61 87/60/61
f 19/3/65 118/3/65 120/3/65 95/3/65
f 112/3/89 70/3/89 18/93/89 38/94/89
f 142/5/105 150/7/105 148/6/105 140/2/105
f 222/8/106 221/11/106 234/10/106 232/9/106
f 140/3/108 163/3/108 142/3/108
f 140/3/109 162/3/109 163/3/109
f 166/3/113 142/3/113 169/3/113
f 169/3/114 142/3/114 163/3/114
f 169/3/115 167/3/115 166/3/115
f 169/3/116 163/3/116 168/3/116
f 153/3/23 109/3/23 108/3/23 154/3/23
f 150/7/27 55/7/27 53/6/27 148/6/27
f 151/7/29 56/7/29 55/7/29 150/7/29
f 230/7/30 50/7/30 56/7/30 151/7/30
f 142/5/29 189/5/29 186/42/29 151/7/29 150/7/29
f 173/45/130 190/48/130 193/47/130 187/46/130
f 186/42/132 192/44/132 230/7/132 151/7/132
f 86/64/150 83/59/150 204/60/150 207/63/150
f 207/63/151 204/60/151 209/67/151 211/69/151
f 156/3/65 212/3/65 120/3/65 118/3/65
f 225/3/173 175/94/173 155/93/173 191/3/173
g body.002_metal
usemtl metal
f 65/42/38 71/44/38 110/5/38 111/5/38
f 124/78/68 125/79/68 99/72/68 100/75/68
f 71/77/69 99/72/69 125/79/69 110/80/69
f 17/3/77 16/3/77 126/3/77 127/3/77
f 16/3/78 109/3/78 51/3/78 126/3/78
f 108/3/79 17/3/79 127/3/79 52/3/79
f 72/47/81 66/46/81 114/87/81 113/80/81
f 69/48/82 72/47/82 113/80/82 115/79/82
f 36/45/83 69/48/83 115/79/83 116/78/83
f 66/46/84 36/45/84 116/78/84 114/87/84
f 115/3/88 124/3/88 70/3/88 112/3/88 116/3/88
f 107/8/90 106/11/90 127/38/90 126/38/90
f 128/94/91 129/95/91 130/96/91 131/40/91 132/16/91 133/40/91
f 134/97/92 135/19/92 136/40/92 137/98/92
f 128/94/93 135/19/93 134/97/93 129/95/93
f 121/9/94 107/8/94 126/38/94 130/96/94 129/95/94
f 112/94/96 38/94/96 128/94/96 133/40/96 122/40/96
f 123/10/97 121/9/97 129/95/97 134/97/97
f 38/94/100 18/93/100 135/19/100 128/94/100
f 106/11/101 123/10/101 134/97/101 137/98/101 127/38/101
f 18/93/103 70/100/103 124/40/103 136/40/103 135/19/103
f 186/42/129 224/5/129 223/5/129 192/44/129
f 235/78/156 215/75/156 214/72/156 236/79/156
f 192/77/157 223/80/157 236/79/157 214/72/157
f 154/3/164 238/3/164 237/3/164 153/3/164
f 153/3/165 237/3/165 51/3/165 109/3/165
f 108/3/166 52/3/166 238/3/166 154/3/166
f 193/47/167 226/80/167 227/87/167 187/46/167
f 190/48/168 228/79/168 226/80/168 193/47/168
f 173/45/169 229/78/169 228/79/169 190/48/169
f 187/46/170 227/87/170 229/78/170 173/45/170
f 228/3/172 229/3/172 225/3/172 191/3/172 235/3/172
f 222/8/174 237/38/174 238/38/174 221/11/174
f 239/94/175 244/40/175 243/16/175 242/40/175 241/96/175 240/95/175
f 245/97/176 248/98/176 247/40/176 246/19/176
f 239/94/177 240/95/177 245/97/177 246/19/177
f 232/9/178 240/95/178 241/96/178 237/38/178 222/8/178
f 225/94/180 233/40/180 244/40/180 239/94/180 175/94/180
f 234/10/181 245/97/181 240/95/181 232/9/181
f 175/94/184 239/94/184 246/19/184 155/93/184
f 221/11/185 238/38/185 248/98/185 245/97/185 234/10/185
f 155/93/187 246/19/187 247/40/187 235/40/187 191/100/187
g widnshield_Cube.004
v 0.827636 0.723763 -0.799363
v -0.173058 0.723415 -0.798204
v 0.491818 1.036795 -0.698338
v -0.173044 1.085986 -0.699085
v 0.491818 1.036795 -0.698338
v 1.015438 0.717623 -0.381334
v 0.637189 1.095249 -0.387825
v 0.958263 0.718831 -0.793150
v 0.601940 1.047296 -0.688184
v 0.987935 0.689004 -0.381334
v 0.930761 0.690213 -0.793150
v 0.609686 1.066631 -0.387825
v 0.574437 1.018678 -0.688184
v 0.827636 0.723763 -0.799363
v -0.173058 0.723415 -0.798204
v -0.173044 1.085986 -0.699085
v 0.491818 1.036795 0.000000
v 0.827636 0.723763 0.000000
v -0.173058 0.723415 0.000000
v -0.173044 1.085986 0.000000
v 1.015438 0.717623 0.000000
v 0.637189 1.095249 0.000000
v 0.987935 0.689004 0.000000
v 0.609686 1.066631 0.000000
v 0.827636 0.723763 0.799363
v -0.173058 0.723415 0.798204
v 0.491818 1.036795 0.698338
v -0.173044 1.085986 0.699085
v 0.491818 1.036795 0.698338
v 1.015438 0.717623 0.381334
v 0.637189 1.095249 0.387825
v 0.958263 0.718831 0.793150
v 0.601940 1.047296 0.688184
v 0.987935 0.689004 0.381334
v 0.930761 0.690213 0.793150
v 0.609686 1.066631 0.387825
v 0.574437 1.018678 0.688184
v 0.827636 0.723763 0.799363
v -0.173058 0.723415 0.798204
v -0.173044 1.085986 0.699085
vn 0.0206 0.2636 -0.9644
vn -0.0012 0.3060 -0.9520
vn 0.6607 0.7453 -0.0895
vn 0.6950 0.6928 -0.1922
vn -0.6607 -0.7453 0.0895
vn -0.6950 -0.6928 0.1922
vn -0.7208 0.6927 -0.0260
vn -0.1527 0.1467 -0.9773
vn 0.7173 -0.6893 -0.1016
vn -1.0000 -0.0000 -0.0000
vn 0.0003 -1.0000 -0.0000
vn 0.6819 0.7315 -0.0000
vn 0.0738 0.9973 -0.0000
vn 0.7210 -0.6929 -0.0000
vn -0.7065 -0.7077 -0.0000
vn 0.7065 0.7077 -0.0000
vn -0.7210 0.6929 -0.0000
vn 0.0206 0.2636 0.9644
vn -0.0012 0.3060 0.9520
vn 0.6607 0.7453 0.0895
vn 0.6950 0.6928 0.1922
vn -0.6607 -0.7453 -0.0895
vn -0.6950 -0.6928 -0.1922
vn -0.7208 0.6927 0.0260
vn -0.1527 0.1467 0.9773
vn 0.7173 -0.6893 0.1016
vt 0.000000 0.000000
s 0
g widnshield_Material
usemtl Material
f 259/101/192 258/101/192 261/101/192
f 261/101/193 258/101/193 260/101/193
f 257/101/194 261/101/194 260/101/194 255/101/194
f 256/101/195 259/101/195 261/101/195 257/101/195
f 254/101/196 258/101/196 259/101/196 256/101/196
f 263/101/197 267/101/197 268/101/197 264/101/197
f 263/101/198 262/101/198 266/101/198 267/101/198
f 253/101/199 265/101/199 266/101/199 262/101/199
f 264/101/200 268/101/200 265/101/200 253/101/200
f 258/101/201 254/101/201 269/101/201 271/101/201
f 260/101/202 258/101/202 271/101/202 272/101/202
f 255/101/204 260/101/204 272/101/204 270/101/204
f 283/101/209 285/101/209 282/101/209
f 285/101/210 284/101/210 282/101/210
f 281/101/211 279/101/211 284/101/211 285/101/211
f 280/101/212 281/101/212 285/101/212 283/101/212
f 278/101/213 280/101/213 283/101/213 282/101/213
f 287/101/197 288/101/197 268/101/197 267/101/197
f 287/101/198 267/101/198 266/101/198 286/101/198
f 277/101/199 286/101/199 266/101/199 265/101/199
f 288/101/200 277/101/200 265/101/200 268/101/200
f 282/101/201 271/101/201 269/101/201 278/101/201
f 284/101/202 272/101/202 271/101/202 282/101/202
f 279/101/204 270/101/204 272/101/204 284/101/204
g widnshield_glass
usemtl glass
f 251/101/188 250/101/188 252/101/188
f 251/101/189 249/101/189 250/101/189
f 256/101/190 257/101/190 254/101/190
f 257/101/191 255/101/191 254/101/191
f 254/101/203 255/101/203 270/101/203 269/101/203
f 275/101/205 276/101/205 274/101/205
f 275/101/206 274/101/206 273/101/206
f 280/101/207 278/101/207 281/101/207
f 281/101/208 278/101/208 279/101/208
f 278/101/203 269/101/203 270/101/203 279/101/203
