# Blender 5.1.1
# www.blender.org
mtllib rodeo.mtl
g rodeo_Cube.007
v -1.580079 0.611318 0.000000
v -1.580079 0.611318 -0.836218
v 1.685634 0.613502 -0.570616
v 0.664398 -0.129581 -0.822512
v 1.655236 0.689456 -0.587377
v 0.623883 0.844443 0.000000
v -0.530790 0.139234 -0.602391
v 1.748307 0.486339 0.000000
v 0.734735 0.090241 -0.923296
v -1.580079 0.161064 -0.602865
v -1.580079 0.611318 -0.602865
v -0.480789 -0.129581 0.000000
v 1.668590 0.668725 -0.471781
v 1.748307 0.486339 -0.590320
v -0.689190 0.357254 -0.602391
v -0.945488 0.440530 -0.602391
v 1.215672 0.426295 -1.019793
v 1.471969 0.343019 -0.952423
v 1.103210 0.200305 0.000000
v -0.658289 0.399787 -1.014523
v -0.480790 -0.129581 -0.604162
v 0.750973 0.141245 -1.019793
v 0.959374 0.343019 -1.019793
v -0.945488 0.440530 -1.014523
v -0.689190 0.357254 -1.014523
v -0.458529 0.181873 -0.923296
v -0.530790 0.139234 -1.014523
v -1.360187 0.205430 -1.014523
v -1.201786 0.357254 -1.014523
v 0.750973 0.141245 -0.920225
v 0.926625 0.422382 -0.886659
v 1.213825 0.515699 -0.832349
v 1.501024 0.422382 -0.778038
v -0.945488 0.493103 -1.014523
v -0.944724 0.527982 -0.923296
v -0.480790 0.155480 -1.014523
v -0.635265 0.437951 -0.923296
v 1.215672 0.478868 -1.019793
v 1.502871 0.385551 -0.952423
v -0.480790 -0.129581 -0.822512
v 1.102734 0.202548 -0.625139
v -0.480790 0.099984 -0.923296
v -1.156115 0.451213 -0.923296
v -1.232688 0.399787 -0.907568
v 0.800973 0.124999 -1.019793
v 0.928472 0.385551 -1.019793
v -1.232688 0.399787 -1.014523
v -1.410187 0.221676 -1.014523
v -1.580079 0.161064 0.000000
v -1.580079 0.161064 -0.836218
v -1.417403 0.161064 -0.870475
v -1.360187 0.139234 -0.602391
v -1.201786 0.357254 -0.602391
v -1.201786 0.357254 -0.875885
v -1.360187 0.139234 -0.886222
v -0.530790 0.139234 -0.927326
v -0.689190 0.357254 -0.905509
v 0.664398 -0.129581 -0.625139
v 0.734735 0.090241 -0.627711
v 1.215672 0.426295 -0.627337
v 1.471969 0.343019 -0.627337
v 0.959374 0.343019 -0.627337
v 0.800973 0.124999 -0.627337
v 1.653869 0.731237 -0.634961
v 1.653869 0.765482 0.000000
v 1.856500 0.293567 0.000000
v 1.856500 0.448065 0.000000
v 1.791474 0.443934 -0.620221
v 1.791474 0.355511 -0.605481
v 1.748307 0.448065 0.000000
v 1.748307 0.293567 0.000000
v 1.748307 0.448065 -0.578649
v 1.748307 0.293567 -0.566977
v 0.543150 -0.129581 -0.876253
v 0.613487 0.090241 -1.043948
v 0.664398 -0.129581 0.000000
v 0.623883 0.844443 -0.558751
v 1.653869 0.765482 -0.458936
v 1.691405 0.355511 -0.725923
v 1.543684 0.355511 -0.770054
v 1.543684 0.355511 -0.771162
v 1.471969 0.343019 0.000000
v -0.886414 0.154799 0.000000
v -0.886414 0.154799 -0.603242
v -1.360187 0.139234 0.000000
v 0.200082 1.251772 -0.568515
v 0.327801 1.191581 -0.565728
v -0.622329 0.773056 -0.914810
v -0.622174 1.185395 -0.804868
v -1.338429 1.185495 -0.805387
v -1.477254 1.176965 -0.751790
v 0.327733 1.191661 0.000000
v 0.200082 1.251772 0.000000
v 1.627188 0.619955 -0.725923
v 1.628270 0.677862 -0.700274
v -0.426013 0.768594 -0.915087
v -0.425857 1.185371 -0.804744
v -1.330425 0.789151 -0.913808
v -1.300357 0.717411 -0.923296
v -1.350421 0.737936 -0.913239
v 1.685366 0.583048 -0.450438
v 1.689487 0.679908 0.000000
v 1.704961 0.598745 -0.580115
v 1.688404 0.501279 -0.400221
v 1.662996 0.707569 -0.604041
v 1.671388 0.665595 -0.437628
v 1.705474 0.488450 -0.407582
v 1.680948 0.665705 0.000000
v 1.728221 0.506597 0.000000
v 1.678375 0.682449 -0.465233
v -1.480690 1.158063 0.000000
v -1.480690 1.158063 -0.602865
v -1.546883 0.793930 0.000000
v -1.546883 0.793930 -0.602865
v 0.200082 1.251772 -0.676504
v 0.136143 1.251772 -0.727230
v 0.321577 1.186603 -0.754157
v 0.256329 1.185287 -0.804314
v 0.565170 0.684539 -0.923296
v 0.726469 0.677274 -0.904267
v 0.638427 0.637563 -0.923296
v 0.447309 0.748744 -0.916323
v 0.506602 0.775085 -0.874257
v 0.401604 0.853215 -0.889517
v 0.324380 0.751538 -0.916149
v 0.338955 0.852930 -1.078456
v 0.261730 0.751253 -1.105088
v 0.406156 0.748459 -1.038104
v 1.856500 0.448065 -0.479883
v 1.805376 0.448065 -0.555690
v 1.805376 0.293567 -0.544018
v 1.856500 0.293567 -0.468211
v -0.322192 0.099984 -1.043948
v -0.322192 -0.129581 -0.876253
v 0.070459 1.251772 0.000000
v 0.070459 1.251772 -0.571191
v -1.414944 1.251772 0.000000
v -1.472367 1.203846 0.000000
v -1.414944 1.251772 -0.601859
v -1.472367 1.203846 -0.602865
v -1.472367 1.203846 -0.742964
v -1.414944 1.251772 -0.727230
v -1.425957 1.231820 -0.750758
v 1.682079 0.681602 -0.310155
v 1.685783 0.680755 -0.141442
v 1.670968 0.510681 -0.329373
v 1.676622 0.511533 -0.276588
v 1.683677 0.512582 -0.185765
v 1.689421 0.513490 -0.123385
v 1.696765 0.514472 -0.031281
v 1.651442 0.657341 -0.357374
v 1.652009 0.657264 -0.298965
v 1.655092 0.657488 -0.202571
v 1.655764 0.657382 -0.134564
v 1.659099 0.657730 -0.036908
v 1.659146 0.657469 0.000000
v 1.701859 0.514484 0.000000
v 1.721585 0.506324 -0.039362
v 1.679354 0.665687 -0.045596
v 1.695040 0.502288 -0.336332
v 1.701676 0.503297 -0.266814
v 1.708313 0.504306 -0.193271
v 1.714949 0.505315 -0.114315
v 1.672981 0.665614 -0.367505
v 1.674574 0.665632 -0.291752
v 1.676168 0.665650 -0.211975
v 1.677761 0.665668 -0.126784
v 0.200082 1.323350 -0.518302
v 0.200082 1.323350 0.000000
v 0.143443 1.323350 -0.520978
v 0.143443 1.323350 0.000000
v 1.748307 0.486339 -0.407021
v 1.748307 0.486339 -0.269653
v 1.748307 0.486339 -0.118064
v -1.580079 0.611318 0.836218
v 1.685634 0.613502 0.570616
v 0.664398 -0.129581 0.822512
v 1.655236 0.689456 0.587377
v -0.530790 0.139234 0.602391
v 0.734735 0.090241 0.923296
v -1.580079 0.161064 0.602865
v -1.580079 0.611318 0.602865
v 1.668590 0.668725 0.471781
v 1.748307 0.486339 0.590320
v -0.689190 0.357254 0.602391
v -0.945488 0.440530 0.602391
v 1.215672 0.426295 1.019793
v 1.471969 0.343019 0.952423
v -0.658289 0.399787 1.014523
v -0.480790 -0.129581 0.604162
v 0.750973 0.141245 1.019793
v 0.959374 0.343019 1.019793
v -0.945488 0.440530 1.014523
v -0.689190 0.357254 1.014523
v -0.458529 0.181873 0.923296
v -0.530790 0.139234 1.014523
v -1.360187 0.205430 1.014523
v -1.201786 0.357254 1.014523
v 0.750973 0.141245 0.920225
v 0.926625 0.422382 0.886659
v 1.213825 0.515699 0.832349
v 1.501024 0.422382 0.778038
v -0.945488 0.493103 1.014523
v -0.944724 0.527982 0.923296
v -0.480790 0.155480 1.014523
v -0.635265 0.437951 0.923296
v 1.215672 0.478868 1.019793
v 1.502871 0.385551 0.952423
v -0.480790 -0.129581 0.822512
v 1.102734 0.202548 0.625139
v -0.480790 0.099984 0.923296
v -1.156115 0.451213 0.923296
v -1.232688 0.399787 0.907568
v 0.800973 0.124999 1.019793
v 0.928472 0.385551 1.019793
v -1.232688 0.399787 1.014523
v -1.410187 0.221676 1.014523
v -1.580079 0.161064 0.836218
v -1.417403 0.161064 0.870475
v -1.360187 0.139234 0.602391
v -1.201786 0.357254 0.602391
v -1.201786 0.357254 0.875885
v -1.360187 0.139234 0.886222
v -0.530790 0.139234 0.927326
v -0.689190 0.357254 0.905509
v 0.664398 -0.129581 0.625139
v 0.734735 0.090241 0.627711
v 1.215672 0.426295 0.627337
v 1.471969 0.343019 0.627337
v 0.959374 0.343019 0.627337
v 0.800973 0.124999 0.627337
v 1.653869 0.731237 0.634961
v 1.791474 0.443934 0.620221
v 1.791474 0.355511 0.605481
v 1.748307 0.448065 0.578649
v 1.748307 0.293567 0.566977
v 0.543150 -0.129581 0.876253
v 0.613487 0.090241 1.043948
v 0.623883 0.844443 0.558751
v 1.653869 0.765482 0.458936
v 1.691405 0.355511 0.725923
v 1.543684 0.355511 0.770054
v 1.543684 0.355511 0.771162
v -0.886414 0.154799 0.603242
v 0.200082 1.251772 0.568515
v 0.327801 1.191581 0.565728
v -0.622329 0.773056 0.914810
v -0.622174 1.185395 0.804868
v -1.338429 1.185495 0.805387
v -1.477254 1.176965 0.751790
v 1.627188 0.619955 0.725923
v 1.628270 0.677862 0.700274
v -0.426013 0.768594 0.915087
v -0.425857 1.185371 0.804744
v -1.330425 0.789151 0.913808
v -1.300357 0.717411 0.923296
v -1.350421 0.737936 0.913239
v 1.685366 0.583048 0.450438
v 1.704961 0.598745 0.580115
v 1.688404 0.501279 0.400221
v 1.662996 0.707569 0.604041
v 1.671388 0.665595 0.437628
v 1.705474 0.488450 0.407582
v 1.678375 0.682449 0.465233
v -1.480690 1.158063 0.602865
v -1.546883 0.793930 0.602865
v 0.200082 1.251772 0.676504
v 0.136143 1.251772 0.727230
v 0.321577 1.186603 0.754157
v 0.256329 1.185287 0.804314
v 0.565170 0.684539 0.923296
v 0.726469 0.677274 0.904267
v 0.638427 0.637563 0.923296
v 0.447309 0.748744 0.916323
v 0.506602 0.775085 0.874257
v 0.401604 0.853215 0.889517
v 0.324380 0.751538 0.916149
v 0.338955 0.852930 1.078456
v 0.261730 0.751253 1.105088
v 0.406156 0.748459 1.038104
v 1.856500 0.448065 0.479883
v 1.805376 0.448065 0.555690
v 1.805376 0.293567 0.544018
v 1.856500 0.293567 0.468211
v -0.322192 0.099984 1.043948
v -0.322192 -0.129581 0.876253
v 0.070459 1.251772 0.571191
v -1.414944 1.251772 0.601859
v -1.472367 1.203846 0.602865
v -1.472367 1.203846 0.742964
v -1.414944 1.251772 0.727230
v -1.425957 1.231820 0.750758
v 1.682079 0.681602 0.310155
v 1.685783 0.680755 0.141442
v 1.670968 0.510681 0.329373
v 1.676622 0.511533 0.276588
v 1.683677 0.512582 0.185765
v 1.689421 0.513490 0.123385
v 1.696765 0.514472 0.031281
v 1.651442 0.657341 0.357374
v 1.652009 0.657264 0.298965
v 1.655092 0.657488 0.202571
v 1.655764 0.657382 0.134564
v 1.659099 0.657730 0.036908
v 1.721585 0.506324 0.039362
v 1.679354 0.665687 0.045596
v 1.695040 0.502288 0.336332
v 1.701676 0.503297 0.266814
v 1.708313 0.504306 0.193271
v 1.714949 0.505315 0.114315
v 1.672981 0.665614 0.367505
v 1.674574 0.665632 0.291752
v 1.676168 0.665650 0.211975
v 1.677761 0.665668 0.126784
v 0.200082 1.323350 0.518302
v 0.143443 1.323350 0.520978
v 1.748307 0.486339 0.407021
v 1.748307 0.486339 0.269653
v 1.748307 0.486339 0.118064
vn -0.2829 0.9341 -0.2179
vn -0.0000 -1.0000 -0.0000
vn 0.9594 0.2819 0.0079
vn -0.7416 0.6566 0.1372
vn -1.0000 -0.0000 -0.0000
vn 0.6024 -0.7982 -0.0017
vn -0.1058 -0.9939 -0.0312
vn 0.9529 -0.2590 -0.1576
vn -0.3090 -0.9511 -0.0000
vn -0.8234 0.5595 -0.0951
vn 0.3388 0.9226 -0.1844
vn -0.0000 -0.0000 -1.0000
vn 0.9607 0.2684 -0.0715
vn 0.2183 -0.0709 -0.9733
vn 0.0505 -0.9559 -0.2892
vn 0.7520 -0.6397 -0.1586
vn 0.7560 0.5352 -0.3770
vn -0.8090 -0.5878 -0.0000
vn 0.4822 -0.5638 -0.6705
vn -0.5575 0.8302 -0.0000
vn -0.2022 0.0015 -0.9794
vn 0.8090 -0.5878 -0.0000
vn -0.3083 0.9038 -0.2968
vn 0.2707 0.8810 -0.3880
vn 0.3090 -0.9511 -0.0000
vn -0.2034 -0.9349 -0.2908
vn -0.9747 -0.2106 -0.0750
vn 0.0006 0.0033 -1.0000
vn 0.4646 -0.8855 -0.0000
vn -0.9529 0.3034 -0.0000
vn 0.9524 -0.3048 -0.0000
vn 0.3757 -0.9228 -0.0850
vn 0.9448 0.3271 -0.0183
vn 0.7438 0.3600 0.5632
vn 0.6475 0.0824 0.7576
vn 1.0000 -0.0000 -0.0000
vn -0.0032 -0.5978 -0.8016
vn 0.0091 1.0000 0.0014
vn -0.4288 -0.4560 -0.7799
vn -0.0000 -0.0000 1.0000
vn 0.0764 0.9971 -0.0000
vn -0.2702 -0.8317 -0.4851
vn 0.0056 -0.0107 -0.9999
vn 0.8434 0.5276 -0.1018
vn 0.3582 -0.9336 -0.0018
vn -0.1762 -0.9844 -0.0000
vn -0.3583 -0.8427 -0.4019
vn 0.0328 -0.9995 -0.0000
vn -0.0988 -0.9951 -0.0000
vn -0.5741 -0.8188 -0.0000
vn 0.0026 0.2607 -0.9654
vn 0.4262 0.9046 -0.0000
vn -0.8001 0.5384 0.2645
vn -0.1741 0.0571 -0.9831
vn 0.0026 0.2568 -0.9665
vn -0.9839 0.1789 -0.0000
vn 0.7120 0.1866 -0.6769
vn -0.0233 -0.9997 0.0096
vn -0.4035 0.2142 -0.8895
vn -0.2366 -0.1011 -0.9663
vn 0.9056 0.3825 0.1831
vn 0.6138 0.3913 0.6857
vn 0.8391 -0.0219 -0.5435
vn 0.8338 -0.5192 -0.1877
vn 0.7847 0.2474 0.5684
vn 0.8509 0.4413 -0.2851
vn 0.4181 -0.0806 -0.9048
vn 0.7608 0.6489 -0.0000
vn 0.1235 0.1926 -0.9735
vn 0.2648 0.8983 -0.3508
vn 0.1772 0.5548 -0.8129
vn 0.4769 0.4224 -0.7708
vn 0.4434 0.8960 -0.0244
vn 0.0027 0.2528 -0.9675
vn 0.7930 0.5438 -0.2746
vn 0.0018 0.1221 -0.9925
vn 0.1840 0.5497 -0.8148
vn 0.1913 0.0903 -0.9774
vn 0.1030 0.9495 -0.2964
vn 0.8283 -0.0422 -0.5586
vn 0.3723 -0.0699 -0.9255
vn -0.0000 1.0000 -0.0000
vn 0.0237 0.5660 -0.8241
vn -0.5219 0.7554 -0.3963
vn -0.6408 0.7677 -0.0000
vn -0.3561 0.3493 -0.8667
vn 0.0003 0.7601 -0.6498
vn 0.8865 -0.4624 -0.0194
vn 0.9036 -0.4279 -0.0218
vn 0.5769 0.8159 -0.0378
vn 0.4094 0.9120 -0.0239
vn 0.2813 0.9581 -0.0540
vn 0.7933 0.5819 0.1792
vn 0.9330 0.3598 -0.0000
vn 0.9925 0.1054 -0.0618
vn 0.9886 0.1395 -0.0563
vn 0.9835 0.1727 -0.0539
vn 0.9773 0.2059 -0.0494
vn 0.9699 0.2378 -0.0527
vn 0.2911 0.9553 -0.0522
vn 0.3575 -0.9339 -0.0099
vn 0.3227 0.9453 -0.0468
vn 0.3125 0.9491 -0.0402
vn 0.3526 -0.9357 -0.0061
vn 0.3565 -0.9343 -0.0058
vn 0.3428 0.2203 0.9132
vn 0.3349 -0.0879 -0.9382
vn 0.3420 0.1749 0.9233
vn 0.3342 0.0046 -0.9425
vn 0.3463 0.1279 0.9294
vn -0.7002 0.7140 -0.0000
vn 0.8597 -0.5103 -0.0236
vn -0.2829 0.9341 0.2179
vn 0.9594 0.2819 -0.0079
vn -0.7416 0.6566 -0.1372
vn 0.6024 -0.7982 0.0017
vn -0.1058 -0.9939 0.0312
vn 0.9529 -0.2590 0.1576
vn -0.8234 0.5595 0.0951
vn 0.3388 0.9226 0.1844
vn 0.9607 0.2684 0.0715
vn 0.2183 -0.0709 0.9733
vn 0.0505 -0.9559 0.2892
vn 0.7520 -0.6397 0.1586
vn 0.7560 0.5352 0.3770
vn 0.4822 -0.5638 0.6705
vn -0.2022 0.0015 0.9794
vn -0.3083 0.9038 0.2968
vn 0.2707 0.8810 0.3880
vn -0.2034 -0.9349 0.2908
vn -0.9747 -0.2106 0.0750
vn 0.0006 0.0033 1.0000
vn 0.3757 -0.9228 0.0850
vn 0.9448 0.3271 0.0183
vn 0.7438 0.3600 -0.5632
vn 0.6475 0.0824 -0.7576
vn -0.0032 -0.5978 0.8016
vn 0.0091 1.0000 -0.0014
vn -0.4288 -0.4560 0.7799
vn -0.2702 -0.8317 0.4851
vn 0.0056 -0.0107 0.9999
vn 0.8434 0.5276 0.1018
vn 0.3582 -0.9336 0.0018
vn -0.3583 -0.8427 0.4019
vn 0.0026 0.2607 0.9654
vn -0.8001 0.5384 -0.2645
vn -0.1741 0.0571 0.9831
vn 0.0026 0.2568 0.9665
vn 0.7120 0.1866 0.6769
vn -0.0233 -0.9997 -0.0096
vn -0.4035 0.2142 0.8895
vn -0.2366 -0.1011 0.9663
vn 0.9056 0.3825 -0.1831
vn 0.6138 0.3913 -0.6857
vn 0.8391 -0.0219 0.5435
vn 0.8338 -0.5192 0.1877
vn 0.7847 0.2474 -0.5684
vn 0.8509 0.4413 0.2851
vn 0.4181 -0.0806 0.9048
vn 0.1235 0.1926 0.9735
vn 0.2648 0.8983 0.3508
vn 0.1772 0.5548 0.8129
vn 0.4770 0.4224 0.7708
vn 0.4434 0.8960 0.0244
vn 0.0027 0.2528 0.9675
vn 0.7930 0.5438 0.2746
vn 0.0018 0.1221 0.9925
vn 0.1840 0.5497 0.8148
vn 0.1913 0.0903 0.9774
vn 0.1030 0.9495 0.2964
vn 0.8283 -0.0422 0.5586
vn 0.3723 -0.0699 0.9255
vn 0.0237 0.5660 0.8241
vn -0.5219 0.7554 0.3963
vn -0.3561 0.3493 0.8667
vn 0.0003 0.7601 0.6498
vn 0.8865 -0.4624 0.0194
vn 0.9036 -0.4279 0.0218
vn 0.5769 0.8159 0.0378
vn 0.4094 0.9120 0.0239
vn 0.2813 0.9581 0.0540
vn 0.7933 0.5819 -0.1792
vn 0.9925 0.1054 0.0618
vn 0.9886 0.1395 0.0563
vn 0.9835 0.1727 0.0539
vn 0.9773 0.2059 0.0494
vn 0.9699 0.2378 0.0527
vn 0.2911 0.9553 0.0522
vn 0.3575 -0.9339 0.0099
vn 0.3227 0.9453 0.0468
vn 0.3125 0.9491 0.0402
vn 0.3526 -0.9357 0.0061
vn 0.3565 -0.9343 0.0058
vn 0.3428 0.2203 -0.9132
vn 0.3349 -0.0879 0.9381
vn 0.3420 0.1749 -0.9233
vn 0.3342 0.0046 0.9425
vn 0.3463 0.1279 -0.9294
vn 0.8597 -0.5103 0.0236
vt -0.000000 0.629613
vt -0.000000 0.500000
vt 0.100000 0.500000
vt 0.100000 0.579314
vt 0.303020 0.500000
vt 0.194043 0.500000
vt 0.615986 0.651398
vt 0.621654 0.648328
vt 0.619988 0.685388
vt 0.615520 0.687786
vt 0.000000 0.000000
vt 0.473072 0.250000
vt 0.473072 0.166518
vt 0.625000 0.166518
vt 0.625000 0.250000
vt 0.303020 0.572023
vt 0.347088 0.527928
vt 0.357015 0.750000
vt 0.305990 0.750000
vt 0.546306 0.316184
vt 0.800000 0.672457
vt 0.781622 0.672457
vt 0.800000 0.500000
vt 0.750000 0.464177
vt 0.875890 0.423273
vt 0.100000 0.579314
vt 0.200000 0.500000
vt 0.200000 0.548228
vt 0.900000 0.679911
vt 0.900000 0.500000
vt 1.000000 0.500000
vt 1.000000 0.629613
vt 0.953694 0.316184
vt 0.891068 0.444164
vt 0.978254 0.324164
vt 0.617112 0.740191
vt 0.616835 0.745996
vt 0.608782 0.745722
vt 0.609493 0.740491
vt 0.875890 0.423273
vt 0.750000 0.490000
vt 0.876255 0.685970
vt 0.876214 0.687306
vt 0.531483 0.500000
vt 0.554670 0.646004
vt 0.551009 0.654851
vt 0.624110 0.423273
vt 0.900000 0.672457
vt 0.800000 0.672457
vt 0.624110 0.423273
vt 0.546306 0.316184
vt 0.521746 0.324164
vt 0.608932 0.444164
vt 0.100000 0.687023
vt 0.073338 0.672457
vt 0.512309 0.292340
vt 1.000000 0.672457
vt 0.497725 0.311372
vt 0.449174 0.325812
vt 0.375000 0.319043
vt 0.194043 0.592280
vt 0.376937 0.448932
vt 0.449174 0.428020
vt 0.625000 0.750000
vt 0.618098 0.750000
vt 0.619090 0.729914
vt 0.620082 0.709827
vt 0.621074 0.689741
vt 0.622988 0.643360
vt 0.625000 0.633481
vt 0.625000 0.699293
vt 0.606699 0.645191
vt 0.578854 0.650021
vt 0.589835 0.639743
vt 0.606699 0.687115
vt 0.606699 0.708076
vt 0.606699 0.729038
vt 0.606699 0.750000
vt 0.578854 0.750000
vt 0.375000 0.428020
vt 0.213644 0.750000
vt 0.551009 0.750000
vt 0.696980 0.649368
vt 0.696980 0.750000
vt 0.900000 0.679911
vt 0.473072 0.000000
vt 0.625000 0.000000
vt 0.546306 0.316184
vt 0.816519 0.484022
vt 0.585744 0.345481
vt 0.554660 0.295227
vt 0.815099 0.477934
vt 0.845762 0.622773
vt 0.845762 0.750000
vt 0.823805 0.750000
vt 0.823776 0.628731
vt 0.627304 0.412670
vt 0.677054 0.437939
vt 0.529187 0.279154
vt 0.470447 0.246991
vt 0.816859 0.485475
vt 0.594362 0.359414
vt 0.866663 0.750000
vt 0.850040 0.750000
vt 0.850040 0.572772
vt 0.866663 0.579905
vt 0.613536 0.500000
vt 0.625000 0.525092
vt 0.632700 0.421395
vt 0.815109 0.480533
vt 0.614265 0.692499
vt 0.614935 0.648434
vt 0.619664 0.693443
vt 0.615285 0.695532
vt 0.875000 0.583482
vt 0.875000 0.750000
vt 0.611834 0.422993
vt 0.615524 0.434896
vt 0.601932 0.428020
vt 0.818037 0.490525
vt 0.845762 0.533147
vt 0.845762 0.562065
vt 0.819034 0.512699
vt 0.648747 0.431859
vt 0.707790 0.521912
vt 0.500929 0.279238
vt 0.458444 0.325133
vt 0.539500 0.483906
vt 0.561539 0.480994
vt 0.590188 0.461187
vt 0.551676 0.441381
vt 0.466535 0.429140
vt 0.578854 0.660342
vt 0.551010 0.664893
vt 0.551010 0.654852
vt 0.845762 0.618734
vt 0.826124 0.495826
vt 0.845599 0.523210
vt 0.836531 0.509498
vt 0.847950 0.571875
vt 0.847950 0.750000
vt 0.845762 0.572454
vt 0.875000 0.500000
vt 0.618439 0.720525
vt 0.618847 0.711498
vt 0.618031 0.729552
vt 0.619256 0.702470
vt 0.610490 0.730132
vt 0.609292 0.738782
vt 0.608093 0.747431
vt 0.612888 0.712832
vt 0.611689 0.721482
vt 0.614087 0.704182
vt 0.618935 0.703622
vt 0.618605 0.710506
vt 0.613334 0.711670
vt 0.614213 0.705193
vt 0.618041 0.721536
vt 0.617701 0.728621
vt 0.611002 0.729116
vt 0.611911 0.722421
vt 0.617622 0.738579
vt 0.617214 0.747606
s 0
g rodeo_black
usemtl black
f 32/1/1 38/2/1 46/3/1 31/4/1
f 51/11/4 44/11/4 47/11/4 48/11/4
f 58/16/6 41/17/6 19/18/6 76/19/6
f 26/21/8 42/22/8 36/23/8
f 24/24/9 25/25/9 57/25/9 15/25/9 16/24/9
f 31/26/10 46/3/10 22/27/10 30/28/10
f 33/29/11 39/30/11 38/31/11 32/32/11
f 27/33/12 25/25/12 20/34/12 36/35/12
f 155/36/13 156/37/13 157/38/13 150/39/13
f 18/40/14 17/24/14 38/41/14 39/34/14
f 28/20/16 29/47/16 54/47/16 55/20/16
f 36/23/17 20/30/17 37/48/17 26/49/17
f 23/50/12 45/51/12 22/52/12 46/53/12
f 17/24/12 23/50/12 46/53/12 38/41/12
f 29/47/12 28/20/12 48/52/12 47/53/12
f 25/25/18 27/33/18 56/33/18 57/25/18
f 25/25/12 24/24/12 34/41/12 20/34/12
f 24/24/12 29/47/12 47/53/12 34/41/12
f 47/3/20 44/54/20 43/55/20
f 55/20/22 54/47/22 53/47/22 52/20/22
f 47/3/23 43/55/23 35/56/23 34/31/23
f 34/31/24 35/57/24 37/58/24 20/30/24
f 29/47/25 24/24/25 16/24/25 53/47/25 54/47/25
f 27/33/26 36/23/26 42/22/26 56/33/26
f 57/25/18 56/33/18 7/33/18 15/25/18
f 42/59/27 40/60/27 21/61/27 7/33/27 56/33/27
f 53/47/28 16/24/28 15/25/28 7/33/28 21/61/28 84/62/28 52/20/28
f 45/11/29 63/11/29 59/11/29 9/11/29
f 23/11/22 62/11/22 63/11/22 45/11/22
f 17/11/25 60/11/25 62/11/25 23/11/25
f 18/11/9 61/11/9 60/11/9 17/11/9
f 30/28/30 22/27/30 9/63/30
f 9/11/31 59/11/31 58/16/31 4/5/31
f 39/30/32 81/42/32 61/11/32 18/11/32
f 76/19/2 12/81/2 21/61/2 40/6/2 4/5/2 58/16/2
f 42/59/38 9/63/38 75/63/38 133/59/38
f 22/27/42 45/51/42 9/63/42
f 61/11/43 41/17/43 58/16/43 59/11/43 63/11/43 62/11/43 60/11/43
f 80/43/44 81/42/44 39/30/44 33/85/44
f 41/17/45 61/11/45 82/11/45 19/17/45
f 61/11/46 73/46/46 71/82/46 82/11/46
f 28/20/47 55/20/47 51/11/47 48/11/47
f 52/20/48 84/62/48 83/62/48 85/88/48
f 12/81/50 83/62/50 84/62/50 21/61/50
f 151/154/96 152/155/96 147/156/96 146/157/96
f 153/158/98 154/159/98 149/160/98 148/161/98
f 201/1/113 200/4/113 215/3/113 207/2/113
f 219/11/115 217/11/115 216/11/115 213/11/115
f 226/16/116 76/19/116 19/18/116 210/17/116
f 195/21/118 205/23/118 211/22/118
f 193/24/9 186/24/9 185/25/9 225/25/9 194/25/9
f 200/26/119 199/28/119 191/27/119 215/3/119
f 202/29/120 201/32/120 207/31/120 208/30/120
f 196/33/40 205/35/40 189/34/40 194/25/40
f 304/36/121 299/39/121 157/38/121 156/37/121
f 188/40/122 208/34/122 207/41/122 187/24/122
f 197/20/124 223/20/124 222/47/124 198/47/124
f 205/23/125 195/49/125 206/48/125 189/30/125
f 192/50/40 215/53/40 191/52/40 214/51/40
f 187/24/40 207/41/40 215/53/40 192/50/40
f 198/47/40 216/53/40 217/52/40 197/20/40
f 194/25/18 225/25/18 224/33/18 196/33/18
f 194/25/40 189/34/40 203/41/40 193/24/40
f 193/24/40 203/41/40 216/53/40 198/47/40
f 216/3/20 212/55/20 213/54/20
f 223/20/22 220/20/22 221/47/22 222/47/22
f 216/3/128 203/31/128 204/56/128 212/55/128
f 203/31/129 189/30/129 206/58/129 204/57/129
f 198/47/25 222/47/25 221/47/25 186/24/25 193/24/25
f 196/33/130 224/33/130 211/22/130 205/23/130
f 225/25/18 185/25/18 179/33/18 224/33/18
f 211/59/131 224/33/131 179/33/131 190/61/131 209/60/131
f 221/47/132 220/20/132 244/62/132 190/61/132 179/33/132 185/25/132 186/24/132
f 214/11/29 180/11/29 227/11/29 231/11/29
f 192/11/22 214/11/22 231/11/22 230/11/22
f 187/11/25 192/11/25 230/11/25 228/11/25
f 188/11/9 187/11/9 228/11/9 229/11/9
f 199/28/30 180/63/30 191/27/30
f 180/11/31 177/5/31 226/16/31 227/11/31
f 208/30/133 188/11/133 229/11/133 243/42/133
f 76/19/2 226/16/2 177/5/2 209/6/2 190/61/2 12/81/2
f 211/59/138 285/59/138 238/63/138 180/63/138
f 191/27/140 180/63/140 214/51/140
f 229/11/141 228/11/141 230/11/141 231/11/141 227/11/141 226/16/141 210/17/141
f 242/43/142 202/85/142 208/30/142 243/42/142
f 210/17/143 19/17/143 82/11/143 229/11/143
f 229/11/46 82/11/46 71/82/46 236/46/46
f 197/20/144 217/11/144 219/11/144 223/20/144
f 220/20/48 85/88/48 83/62/48 244/62/48
f 12/81/50 190/61/50 244/62/50 83/62/50
f 300/154/184 295/157/184 296/156/184 301/155/184
f 302/158/186 297/161/186 298/160/186 303/159/186
g rodeo_Material.001
usemtl Material.001
f 4/5/2 40/6/2 134/6/2 74/5/2
f 50/12/5 10/13/5 11/14/5 2/15/5
f 51/11/7 55/20/7 52/20/7 10/11/7 50/12/7
f 61/11/15 81/42/15 80/43/15 79/44/15 69/45/15 73/46/15
f 2/11/21 44/11/21 51/11/21 50/11/21
f 65/64/33 102/65/33 145/66/33 144/67/33 110/68/33 105/69/33 64/70/33 78/71/33
f 14/72/34 72/73/34 68/74/34 64/70/34
f 72/73/35 73/46/35 69/45/35 68/74/35
f 14/72/36 172/75/36 173/76/36 174/77/36 8/78/36 70/79/36 72/73/36
f 70/79/40 71/82/40 66/82/40 67/79/40
f 78/71/41 77/83/41 6/84/41 65/64/41
f 11/14/5 10/13/5 49/86/5 1/87/5
f 10/11/49 52/11/49 85/88/49 49/86/49
f 86/93/52 93/94/52 92/95/52 87/96/52
f 98/91/54 99/99/54 100/100/54
f 69/45/57 79/44/57 94/107/57 95/108/57 64/70/57 68/74/57
f 91/110/59 90/92/59 98/91/59 100/100/59 2/11/59
f 44/11/60 2/11/60 100/11/60 99/11/60 43/11/60
f 3/7/61 101/10/61 107/111/61 103/112/61
f 5/8/62 3/7/62 103/112/62 105/69/62
f 101/10/63 13/9/63 110/68/63 107/111/63
f 13/9/64 5/8/64 105/69/64 110/68/64
f 106/113/65 104/114/65 107/111/65 110/68/65
f 113/103/56 114/106/56 11/115/56 1/116/56
f 119/117/69 120/118/69 121/119/69
f 118/120/70 116/121/70 115/122/70 117/123/70
f 119/117/71 122/109/71 123/124/71 120/118/71
f 117/123/72 123/124/72 122/109/72 124/98/72 118/120/72
f 115/122/73 86/93/73 87/96/73 117/123/73
f 98/91/76 88/90/76 96/102/76 125/97/76 122/109/76 119/117/76 99/99/76
f 43/126/12 99/99/12 119/117/12 121/119/12 9/63/12 42/59/12 26/127/12 37/58/12 35/56/12
f 123/124/77 95/108/77 94/107/77 120/118/77
f 121/119/78 120/118/78 94/107/78 79/44/78 80/128/78 33/129/78 32/130/78 31/131/78 30/132/78 9/63/78
f 95/108/79 123/125/79 77/83/79 78/71/79 64/70/79
f 71/82/2 73/46/2 131/135/2 132/134/2 66/82/2
f 141/137/84 142/138/84 143/139/84
f 140/140/85 138/141/85 137/94/85 139/142/85
f 141/137/85 140/140/85 139/142/85 142/138/85
f 139/142/82 137/94/82 135/94/82 136/136/82
f 140/140/56 112/105/56 111/104/56 138/141/56
f 141/137/56 91/110/56 2/143/56 11/115/56 114/106/56 112/105/56 140/140/56
f 86/93/82 115/122/82 116/121/82 142/138/82 139/142/82 136/136/82
f 141/137/86 143/139/86 90/92/86 91/110/86
f 118/120/87 97/101/87 89/89/87 90/92/87 143/139/87 142/138/87 116/121/87
f 166/144/88 165/145/88 144/67/88 145/66/88 167/146/88
f 165/145/89 164/147/89 106/113/89 110/68/89 144/67/89
f 8/78/90 174/77/90 163/148/90 158/149/90 109/150/90
f 107/111/92 104/114/92 160/153/92 161/151/92 173/76/92 172/75/92
f 14/72/93 103/112/93 107/111/93 172/75/93
f 14/72/94 64/70/94 105/69/94 103/112/94
f 159/162/112 167/146/112 145/66/112 102/65/112 108/163/112
f 177/5/2 237/5/2 286/6/2 209/6/2
f 218/12/5 175/15/5 182/14/5 181/13/5
f 219/11/117 218/12/117 181/11/117 220/20/117 223/20/117
f 229/11/123 236/46/123 234/45/123 241/44/123 242/43/123 243/42/123
f 175/11/127 218/11/127 219/11/127 213/11/127
f 65/64/134 240/71/134 232/70/134 261/69/134 264/68/134 293/67/134 294/66/134 102/65/134
f 184/72/135 232/70/135 233/74/135 235/73/135
f 235/73/136 233/74/136 234/45/136 236/46/136
f 184/72/36 235/73/36 70/79/36 8/78/36 319/77/36 318/76/36 317/75/36
f 240/71/41 65/64/41 6/84/41 239/83/41
f 182/14/5 1/87/5 49/86/5 181/13/5
f 181/11/49 49/86/49 85/88/49 220/11/49
f 245/93/52 246/96/52 92/95/52 93/94/52
f 255/91/147 257/100/147 256/99/147
f 234/45/149 233/74/149 232/70/149 252/108/149 251/107/149 241/44/149
f 250/110/151 175/11/151 257/100/151 255/91/151 249/92/151
f 213/11/152 212/11/152 256/11/152 257/11/152 175/11/152
f 176/7/153 259/112/153 263/111/153 258/10/153
f 178/8/154 261/69/154 259/112/154 176/7/154
f 258/10/155 263/111/155 264/68/155 183/9/155
f 183/9/156 264/68/156 261/69/156 178/8/156
f 262/113/157 264/68/157 263/111/157 260/114/157
f 113/103/56 1/116/56 182/115/56 266/106/56
f 271/117/160 273/119/160 272/118/160
f 270/120/161 269/123/161 267/122/161 268/121/161
f 271/117/162 272/118/162 275/124/162 274/109/162
f 269/123/163 270/120/163 276/98/163 274/109/163 275/124/163
f 267/122/164 269/123/164 246/96/164 245/93/164
f 255/91/167 256/99/167 271/117/167 274/109/167 277/97/167 253/102/167 247/90/167
f 212/126/40 204/56/40 206/58/40 195/127/40 211/59/40 180/63/40 273/119/40 271/117/40 256/99/40
f 275/124/168 272/118/168 251/107/168 252/108/168
f 273/119/169 180/63/169 199/132/169 200/131/169 201/130/169 202/129/169 242/128/169 241/44/169 251/107/169 272/118/169
f 252/108/170 232/70/170 240/71/170 239/83/170 275/125/170
f 71/82/2 66/82/2 284/134/2 283/135/2 236/46/2
f 290/137/174 292/139/174 291/138/174
f 289/140/85 288/142/85 137/94/85 138/141/85
f 290/137/85 291/138/85 288/142/85 289/140/85
f 288/142/82 287/136/82 135/94/82 137/94/82
f 289/140/56 138/141/56 111/104/56 265/105/56
f 290/137/56 289/140/56 265/105/56 266/106/56 182/115/56 175/143/56 250/110/56
f 245/93/82 287/136/82 288/142/82 291/138/82 268/121/82 267/122/82
f 290/137/175 250/110/175 249/92/175 292/139/175
f 270/120/176 268/121/176 291/138/176 292/139/176 249/92/176 248/89/176 254/101/176
f 313/144/177 314/146/177 294/66/177 293/67/177 312/145/177
f 312/145/178 293/67/178 264/68/178 262/113/178 311/147/178
f 8/78/179 109/150/179 305/149/179 310/148/179 319/77/179
f 263/111/181 317/75/181 318/76/181 308/151/181 307/153/181 260/114/181
f 184/72/182 317/75/182 263/111/182 259/112/182
f 184/72/94 259/112/94 261/69/94 232/70/94
f 306/162/199 108/163/199 102/65/199 294/66/199 314/146/199
g rodeo_glass
usemtl glass
f 3/7/3 5/8/3 13/9/3 101/10/3
f 89/89/51 88/90/51 98/91/51 90/92/51
f 113/103/56 111/104/56 112/105/56 114/106/56
f 77/83/68 87/96/68 92/95/68 6/84/68
f 118/120/74 124/98/74 125/97/74 96/102/74 97/101/74
f 87/96/75 77/83/75 123/125/75 117/123/75
f 176/7/114 258/10/114 183/9/114 178/8/114
f 248/89/145 249/92/145 255/91/145 247/90/145
f 113/103/56 266/106/56 265/105/56 111/104/56
f 239/83/68 6/84/68 92/95/68 246/96/68
f 270/120/165 254/101/165 253/102/165 277/97/165 276/98/165
f 246/96/166 269/123/166 275/125/166 239/83/166
g rodeo_metal
usemtl metal
f 9/11/19 4/5/19 74/5/19 75/11/19
f 74/80/37 134/60/37 133/59/37 75/63/37
f 40/60/39 42/59/39 133/59/39 134/60/39
f 125/97/53 124/98/53 126/98/53 127/97/53
f 97/101/55 96/102/55 88/90/55 89/89/55
f 122/109/58 125/97/58 127/97/58 128/109/58
f 124/98/66 122/109/66 128/109/66 126/98/66
f 127/97/67 126/98/67 128/109/67
f 129/133/80 132/134/80 131/135/80 130/73/80
f 73/46/81 72/73/81 130/73/81 131/135/81
f 129/133/36 67/79/36 66/82/36 132/134/36
f 72/73/82 70/79/82 67/79/82 129/133/82 130/73/82
f 86/93/83 136/136/83 170/136/83 168/93/83
f 161/151/91 162/152/91 163/148/91 174/77/91 173/76/91
f 106/113/95 164/147/95 160/153/95 104/114/95
f 165/145/97 166/144/97 162/152/97 161/151/97
f 167/146/99 159/162/99 158/149/99 163/148/99
f 150/39/100 157/38/100 109/150/100 158/149/100
f 156/37/101 155/36/101 159/162/101 108/163/101
f 146/157/102 147/156/102 161/151/102 160/153/102
f 148/161/103 149/160/103 163/148/103 162/152/103
f 152/155/104 151/154/104 164/147/104 165/145/104
f 154/159/105 153/158/105 166/144/105 167/146/105
f 151/154/106 146/157/106 160/153/106 164/147/106
f 147/156/107 152/155/107 165/145/107 161/151/107
f 153/158/108 148/161/108 162/152/108 166/144/108
f 149/160/109 154/159/109 167/146/109 163/148/109
f 155/36/110 150/39/110 158/149/110 159/162/110
f 168/93/82 170/136/82 171/94/82 169/94/82
f 136/136/111 135/94/111 171/94/111 170/136/111
f 93/94/36 86/93/36 168/93/36 169/94/36
f 180/11/126 238/11/126 237/5/126 177/5/126
f 237/80/137 238/63/137 285/59/137 286/60/137
f 209/60/139 286/60/139 285/59/139 211/59/139
f 277/97/146 279/97/146 278/98/146 276/98/146
f 254/101/148 248/89/148 247/90/148 253/102/148
f 274/109/150 280/109/150 279/97/150 277/97/150
f 276/98/158 278/98/158 280/109/158 274/109/158
f 279/97/159 280/109/159 278/98/159
f 281/133/171 282/73/171 283/135/171 284/134/171
f 236/46/172 283/135/172 282/73/172 235/73/172
f 281/133/36 284/134/36 66/82/36 67/79/36
f 235/73/82 282/73/82 281/133/82 67/79/82 70/79/82
f 245/93/173 315/93/173 316/136/173 287/136/173
f 308/151/180 318/76/180 319/77/180 310/148/180 309/152/180
f 262/113/183 260/114/183 307/153/183 311/147/183
f 312/145/185 308/151/185 309/152/185 313/144/185
f 314/146/187 310/148/187 305/149/187 306/162/187
f 299/39/188 305/149/188 109/150/188 157/38/188
f 156/37/189 108/163/189 306/162/189 304/36/189
f 295/157/190 307/153/190 308/151/190 296/156/190
f 297/161/191 309/152/191 310/148/191 298/160/191
f 301/155/192 312/145/192 311/147/192 300/154/192
f 303/159/193 314/146/193 313/144/193 302/158/193
f 300/154/194 311/147/194 307/153/194 295/157/194
f 296/156/195 308/151/195 312/145/195 301/155/195
f 302/158/196 313/144/196 309/152/196 297/161/196
f 298/160/197 310/148/197 314/146/197 303/159/197
f 304/36/198 306/162/198 305/149/198 299/39/198
f 315/93/82 169/94/82 171/94/82 316/136/82
f 287/136/111 316/136/111 171/94/111 135/94/111
f 93/94/36 169/94/36 315/93/36 245/93/36
g tire-half.001_Cylinder.003
v -1.590784 0.556926 -0.400207
v -1.737625 0.556926 -0.076208
v -1.590784 0.636669 -0.392353
v -1.737625 0.573460 -0.074580
v -1.590784 0.713347 -0.369093
v -1.737625 0.589358 -0.069757
v -1.590784 0.784015 -0.331320
v -1.737625 0.604011 -0.061925
v -1.590784 0.845955 -0.280487
v -1.737625 0.616853 -0.051386
v -1.590784 0.896788 -0.218547
v -1.737625 0.627393 -0.038543
v -1.590784 0.934560 -0.147880
v -1.737625 0.635225 -0.023891
v -1.590784 0.957821 -0.071201
v -1.737625 0.640048 -0.007992
v -1.590784 0.965675 0.008542
v -1.737625 0.641676 0.008542
v -1.590784 0.957821 0.088285
v -1.737625 0.640048 0.025076
v -1.590784 0.934560 0.164963
v -1.737625 0.635225 0.040974
v -1.590784 0.896788 0.235630
v -1.737625 0.627393 0.055626
v -1.590784 0.845955 0.297570
v -1.737625 0.616853 0.068469
v -1.590784 0.784015 0.348404
v -1.737625 0.604011 0.079009
v -1.590784 0.713347 0.386176
v -1.737625 0.589358 0.086840
v -1.590784 0.636669 0.409436
v -1.737625 0.573460 0.091663
v -1.590784 0.556926 0.417290
v -1.737625 0.556926 0.093292
v -1.590784 0.477183 0.409436
v -1.737625 0.540392 0.091663
v -1.590784 0.400505 0.386176
v -1.737625 0.524494 0.086840
v -1.590784 0.329838 0.348404
v -1.737625 0.509841 0.079009
v -1.590784 0.267897 0.297570
v -1.737625 0.496999 0.068469
v -1.590784 0.217064 0.235630
v -1.737625 0.486459 0.055626
v -1.590784 0.179292 0.164963
v -1.737625 0.478627 0.040974
v -1.590784 0.156032 0.088285
v -1.737625 0.473804 0.025076
v -1.590784 0.148178 0.008542
v -1.737625 0.472176 0.008542
v -1.590784 0.156032 -0.071201
v -1.737625 0.473804 -0.007992
v -1.590784 0.179292 -0.147880
v -1.737625 0.478627 -0.023891
v -1.590784 0.217064 -0.218547
v -1.737625 0.486459 -0.038543
v -1.590784 0.267897 -0.280487
v -1.737625 0.496999 -0.051386
v -1.590784 0.329838 -0.331320
v -1.737625 0.509841 -0.061925
v -1.590784 0.400505 -0.369093
v -1.737625 0.524494 -0.069757
v -1.590784 0.477183 -0.392353
v -1.737625 0.540392 -0.074580
v -1.767383 0.636669 -0.392353
v -1.767383 0.556926 -0.400207
v -1.767383 0.713347 -0.369093
v -1.767383 0.784015 -0.331320
v -1.767383 0.845955 -0.280487
v -1.767383 0.896788 -0.218547
v -1.767383 0.934560 -0.147880
v -1.767383 0.957821 -0.071201
v -1.767383 0.965675 0.008542
v -1.767383 0.957821 0.088285
v -1.767383 0.934560 0.164963
v -1.767383 0.896788 0.235630
v -1.767383 0.845955 0.297570
v -1.767383 0.784015 0.348404
v -1.767383 0.713347 0.386176
v -1.767383 0.636669 0.409436
v -1.767383 0.556926 0.417290
v -1.767383 0.477183 0.409436
v -1.767382 0.400505 0.386176
v -1.767382 0.329838 0.348404
v -1.767382 0.267897 0.297570
v -1.767382 0.217064 0.235630
v -1.767382 0.179292 0.164963
v -1.767382 0.156032 0.088285
v -1.767382 0.148178 0.008542
v -1.767382 0.156032 -0.071201
v -1.767382 0.179292 -0.147880
v -1.767382 0.217064 -0.218547
v -1.767382 0.267897 -0.280487
v -1.767382 0.329838 -0.331320
v -1.767382 0.400505 -0.369093
v -1.767383 0.477183 -0.392353
v -1.817819 0.626099 -0.339213
v -1.817819 0.556926 -0.346026
v -1.817819 0.692613 -0.319036
v -1.817819 0.753913 -0.286270
v -1.817819 0.807643 -0.242175
v -1.817819 0.851738 -0.188445
v -1.817819 0.884503 -0.127145
v -1.817819 0.904680 -0.060631
v -1.817819 0.911493 0.008542
v -1.817819 0.904680 0.077714
v -1.817819 0.884503 0.144229
v -1.817819 0.851738 0.205529
v -1.817819 0.807643 0.259259
v -1.817819 0.753913 0.303354
v -1.817819 0.692613 0.336119
v -1.817819 0.626099 0.356296
v -1.817819 0.556926 0.363109
v -1.817819 0.487753 0.356296
v -1.817819 0.421239 0.336119
v -1.817819 0.359939 0.303354
v -1.817819 0.306209 0.259259
v -1.817819 0.262114 0.205529
v -1.817819 0.229349 0.144229
v -1.817819 0.209172 0.077714
v -1.817819 0.202359 0.008542
v -1.817819 0.209172 -0.060631
v -1.817819 0.229349 -0.127145
v -1.817819 0.262114 -0.188445
v -1.817819 0.306209 -0.242175
v -1.817819 0.359939 -0.286270
v -1.817819 0.421239 -0.319036
v -1.817819 0.487753 -0.339213
v -1.766616 0.603865 -0.227437
v -1.766616 0.556926 -0.232060
v -1.766616 0.649000 -0.213746
v -1.766616 0.690597 -0.191512
v -1.766616 0.727057 -0.161590
v -1.766616 0.756979 -0.125130
v -1.766616 0.779213 -0.083533
v -1.766616 0.792905 -0.038397
v -1.766616 0.797528 0.008542
v -1.766616 0.792905 0.055481
v -1.766616 0.779213 0.100616
v -1.766616 0.756979 0.142213
v -1.766616 0.727057 0.178673
v -1.766616 0.690597 0.208595
v -1.766616 0.649000 0.230829
v -1.766616 0.603865 0.244521
v -1.766616 0.556926 0.249144
v -1.766616 0.509987 0.244521
v -1.766616 0.464852 0.230829
v -1.766616 0.423255 0.208595
v -1.766616 0.386795 0.178673
v -1.766616 0.356873 0.142213
v -1.766616 0.334639 0.100616
v -1.766616 0.320947 0.055481
v -1.766616 0.316324 0.008542
v -1.766616 0.320947 -0.038397
v -1.766616 0.334639 -0.083533
v -1.766616 0.356873 -0.125130
v -1.766616 0.386795 -0.161590
v -1.766616 0.423255 -0.191512
v -1.766616 0.464852 -0.213746
v -1.766616 0.509987 -0.227437
v -1.721512 0.599759 -0.206796
v -1.721512 0.556926 -0.211015
v -1.721512 0.712176 -0.146708
v -1.721512 0.678905 -0.174013
v -1.721512 0.739481 -0.113437
v -1.721512 0.776482 0.008542
v -1.721512 0.772264 -0.034292
v -1.721512 0.772264 0.051375
v -1.721512 0.712176 0.163791
v -1.721512 0.739481 0.130521
v -1.721512 0.678905 0.191096
v -1.721512 0.556926 0.228098
v -1.721512 0.599759 0.223879
v -1.721512 0.514093 0.223879
v -1.721512 0.401676 0.163791
v -1.721512 0.434947 0.191096
v -1.721512 0.374371 0.130521
v -1.721512 0.337370 0.008542
v -1.721512 0.341588 0.051375
v -1.721512 0.341588 -0.034292
v -1.721512 0.401676 -0.146708
v -1.721512 0.374371 -0.113437
v -1.721512 0.434947 -0.174013
v -1.721512 0.514093 -0.206796
v -1.672830 0.580302 -0.108976
v -1.672830 0.556926 -0.111278
v -1.672830 0.641651 -0.076184
v -1.672830 0.623494 -0.091085
v -1.672830 0.656553 -0.058027
v -1.672830 0.676746 0.008542
v -1.672830 0.674444 -0.014834
v -1.672830 0.674444 0.031917
v -1.672830 0.641651 0.093267
v -1.672830 0.656553 0.075110
v -1.672830 0.623494 0.108168
v -1.672830 0.556926 0.128361
v -1.672830 0.580302 0.126059
v -1.672830 0.533550 0.126059
v -1.672830 0.472201 0.093267
v -1.672830 0.490358 0.108168
v -1.672830 0.457299 0.075110
v -1.672830 0.437106 0.008542
v -1.672830 0.439408 0.031917
v -1.672830 0.439408 -0.014834
v -1.672830 0.472201 -0.076184
v -1.672830 0.457299 -0.058027
v -1.672830 0.490358 -0.091085
v -1.672830 0.533550 -0.108976
v -1.717934 0.580302 -0.108976
v -1.717934 0.556926 -0.111278
v -1.717934 0.602779 -0.102157
v -1.717934 0.623494 -0.091085
v -1.717934 0.641651 -0.076184
v -1.717934 0.656553 -0.058027
v -1.717934 0.667625 -0.037311
v -1.717934 0.674444 -0.014834
v -1.717934 0.676746 0.008542
v -1.717934 0.674444 0.031917
v -1.717934 0.667625 0.054395
v -1.717934 0.656553 0.075110
v -1.717934 0.641651 0.093267
v -1.717934 0.623494 0.108168
v -1.717934 0.602779 0.119241
v -1.717934 0.580302 0.126059
v -1.717934 0.556926 0.128361
v -1.717934 0.533550 0.126059
v -1.717934 0.511073 0.119241
v -1.717934 0.490358 0.108168
v -1.717934 0.472201 0.093267
v -1.717934 0.457299 0.075110
v -1.717934 0.446227 0.054395
v -1.717934 0.439408 0.031917
v -1.717934 0.437106 0.008542
v -1.717934 0.439408 -0.014834
v -1.717934 0.446227 -0.037311
v -1.717934 0.457299 -0.058027
v -1.717934 0.472201 -0.076184
v -1.717934 0.490358 -0.091085
v -1.717934 0.511073 -0.102157
v -1.717934 0.533550 -0.108976
vn -0.0000 0.0980 -0.9952
vn -0.0000 0.2903 -0.9569
vn -0.0000 0.4714 -0.8819
vn -0.0000 0.6344 -0.7730
vn -0.0000 0.7730 -0.6344
vn -0.0000 0.8819 -0.4714
vn -0.0000 0.9569 -0.2903
vn -0.0000 0.9952 -0.0980
vn -0.0000 0.9952 0.0980
vn -0.0000 0.9569 0.2903
vn -0.0000 0.8819 0.4714
vn -0.0000 0.7730 0.6344
vn -0.0000 0.6344 0.7730
vn -0.0000 0.4714 0.8819
vn -0.0000 0.2903 0.9569
vn -0.0000 0.0980 0.9952
vn -0.0000 -0.0980 0.9952
vn -0.0000 -0.2903 0.9569
vn -0.0000 -0.4714 0.8819
vn -0.0000 -0.6344 0.7730
vn -0.0000 -0.7730 0.6344
vn -0.0000 -0.8819 0.4714
vn -0.0000 -0.9569 0.2903
vn -0.0000 -0.9952 0.0980
vn -0.0000 -0.9952 -0.0980
vn -0.0000 -0.9569 -0.2903
vn -0.0000 -0.8819 -0.4714
vn -0.0000 -0.7730 -0.6344
vn -0.0000 -0.6344 -0.7730
vn -0.0000 -0.4714 -0.8819
vn -1.0000 -0.0000 -0.0000
vn -0.0000 -0.2903 -0.9569
vn -0.0000 -0.0980 -0.9952
vn 1.0000 -0.0000 -0.0000
vn -0.7303 0.0670 -0.6798
vn -0.7303 0.1983 -0.6537
vn -0.7303 0.3220 -0.6025
vn -0.7303 0.4334 -0.5281
vn -0.7303 0.5281 -0.4334
vn -0.7303 0.6025 -0.3220
vn -0.7303 0.6537 -0.1983
vn -0.7303 0.6798 -0.0670
vn -0.7303 0.6798 0.0670
vn -0.7303 0.6537 0.1983
vn -0.7303 0.6025 0.3220
vn -0.7303 0.5281 0.4334
vn -0.7303 0.4334 0.5281
vn -0.7303 0.3220 0.6025
vn -0.7303 0.1983 0.6537
vn -0.7303 0.0670 0.6798
vn -0.7303 -0.0670 0.6798
vn -0.7303 -0.1983 0.6537
vn -0.7303 -0.3220 0.6025
vn -0.7303 -0.4334 0.5281
vn -0.7303 -0.5281 0.4334
vn -0.7303 -0.6025 0.3220
vn -0.7303 -0.6537 0.1983
vn -0.7303 -0.6798 0.0670
vn -0.7303 -0.6798 -0.0670
vn -0.7303 -0.6537 -0.1983
vn -0.7303 -0.6025 -0.3220
vn -0.7303 -0.5281 -0.4334
vn -0.7303 -0.4334 -0.5281
vn -0.7303 -0.3220 -0.6025
vn -0.7303 -0.1983 -0.6537
vn -0.7303 -0.0670 -0.6798
vn -0.9114 -0.0403 0.4095
vn -0.9114 -0.1194 0.3938
vn -0.9114 -0.1940 0.3629
vn -0.9114 -0.2610 0.3181
vn -0.9114 -0.3181 0.2610
vn -0.9114 -0.3629 0.1940
vn -0.9114 -0.3938 0.1194
vn -0.9114 -0.4095 0.0403
vn -0.9114 -0.4095 -0.0403
vn -0.9114 -0.3938 -0.1194
vn -0.9114 -0.3629 -0.1940
vn -0.9114 -0.3181 -0.2610
vn -0.9114 -0.2610 -0.3181
vn -0.9114 -0.1940 -0.3629
vn -0.9114 -0.1194 -0.3938
vn -0.9114 -0.0403 -0.4095
vn -0.9114 0.0403 -0.4095
vn -0.9114 0.1194 -0.3938
vn -0.9114 0.1940 -0.3629
vn -0.9114 0.2610 -0.3181
vn -0.9114 0.3181 -0.2610
vn -0.9114 0.3629 -0.1940
vn -0.9114 0.3938 -0.1194
vn -0.9114 0.4095 -0.0403
vn -0.9114 0.4095 0.0403
vn -0.9114 0.3938 0.1194
vn -0.9114 0.3629 0.1940
vn -0.9114 0.3181 0.2610
vn -0.9114 0.2610 0.3181
vn -0.9114 0.1940 0.3629
vn -0.9114 0.1194 0.3938
vn -0.9114 0.0403 0.4095
vn -0.9269 -0.1090 0.3592
vn -0.9269 -0.1770 0.3311
vn -0.0000 -0.1951 0.9808
vn -0.4212 0.7011 0.5754
vn -0.9269 -0.3311 0.1770
vn -0.9269 -0.3592 0.1090
vn -0.4212 -0.0889 0.9026
vn -0.9269 -0.3592 -0.1090
vn -0.9269 -0.3311 -0.1770
vn -0.0000 -0.5556 0.8315
vn -0.9269 -0.1770 -0.3311
vn -0.9269 -0.1090 -0.3592
vn -0.4212 -0.5754 -0.7011
vn -0.9269 0.1090 -0.3592
vn -0.9269 0.1770 -0.3311
vn -0.0000 -0.1951 -0.9808
vn -0.9269 0.3311 -0.1770
vn -0.9269 0.3592 -0.1090
vn -0.0000 0.1951 -0.9808
vn -0.4212 -0.7011 -0.5754
vn -0.9269 0.3592 0.1090
vn -0.9269 0.3311 0.1770
vn -0.4212 0.9026 0.0889
vn -0.9269 0.1770 0.3311
vn -0.9269 0.1090 0.3592
vn -0.8978 -0.0432 0.4382
vn -0.8978 -0.2794 0.3404
vn -0.8978 -0.3404 0.2794
vn -0.8978 -0.4382 0.0432
vn -0.8978 -0.4382 -0.0432
vn -0.8978 -0.3404 -0.2794
vn -0.8978 -0.2794 -0.3404
vn -0.8978 -0.0432 -0.4382
vn -0.8978 0.0432 -0.4382
vn -0.8978 0.2794 -0.3404
vn -0.8978 0.3404 -0.2794
vn -0.8978 0.4382 -0.0432
vn -0.8978 0.4382 0.0432
vn -0.8978 0.3404 0.2794
vn -0.8978 0.2794 0.3404
vn -0.8978 0.0432 0.4382
vn -0.4212 0.5754 0.7011
vn -0.4212 -0.0889 -0.9026
vn -0.0000 0.8315 -0.5556
vn -0.0000 0.5556 -0.8315
vn -0.4212 0.0889 -0.9026
vn -0.4212 -0.5754 0.7011
vn -0.0000 -0.9808 -0.1951
vn -0.0000 -0.9808 0.1951
vn -0.4212 -0.7011 0.5754
vn -0.4212 0.0889 0.9026
vn -0.0000 -0.8315 0.5556
vn -0.0000 0.8315 0.5556
vn -0.4212 0.5754 -0.7011
vn -0.0000 0.9808 0.1951
vn -0.0000 0.9808 -0.1951
vn -0.4212 0.7011 -0.5754
vn -0.4212 -0.9026 0.0889
vn -0.0000 -0.5556 -0.8315
vn -0.0000 -0.8315 -0.5556
vn -0.4212 -0.9026 -0.0889
vn -0.0000 0.1951 0.9808
vn -0.4212 0.9026 -0.0889
vn -0.0000 0.5556 0.8315
vn -0.8709 0.0482 -0.4890
vn -0.8709 0.1426 -0.4702
vn -0.8709 0.2316 -0.4334
vn -0.8709 0.3117 -0.3799
vn -0.8709 0.3799 -0.3117
vn -0.8709 0.4334 -0.2316
vn -0.8709 0.4702 -0.1426
vn -0.8709 0.4890 -0.0482
vn -0.8709 0.4890 0.0482
vn -0.8709 0.4702 0.1426
vn -0.8709 0.4334 0.2316
vn -0.8709 0.3799 0.3117
vn -0.8709 0.3117 0.3799
vn -0.8709 0.2316 0.4334
vn -0.8709 0.1426 0.4702
vn -0.8709 0.0482 0.4890
vn -0.8709 -0.0482 0.4890
vn -0.8709 -0.1426 0.4702
vn -0.8709 -0.2316 0.4334
vn -0.8709 -0.3117 0.3799
vn -0.8709 -0.3799 0.3117
vn -0.8709 -0.4334 0.2316
vn -0.8709 -0.4702 0.1426
vn -0.8709 -0.4890 0.0482
vn -0.8709 -0.4890 -0.0482
vn -0.8709 -0.4702 -0.1426
vn -0.8709 -0.4334 -0.2316
vn -0.8709 -0.3799 -0.3117
vn -0.8709 -0.3117 -0.3799
vn -0.8709 -0.2316 -0.4334
vn -0.8709 -0.1426 -0.4702
vn -0.8709 -0.0482 -0.4890
vt 1.000000 0.500000
vt 1.000000 1.000000
vt 0.968750 1.000000
vt 0.968750 0.500000
vt 0.937500 1.000000
vt 0.937500 0.500000
vt 0.906250 1.000000
vt 0.906250 0.500000
vt 0.875000 1.000000
vt 0.875000 0.500000
vt 0.843750 1.000000
vt 0.843750 0.500000
vt 0.812500 1.000000
vt 0.812500 0.500000
vt 0.781250 1.000000
vt 0.781250 0.500000
vt 0.750000 1.000000
vt 0.750000 0.500000
vt 0.718750 1.000000
vt 0.718750 0.500000
vt 0.687500 1.000000
vt 0.687500 0.500000
vt 0.656250 1.000000
vt 0.656250 0.500000
vt 0.625000 1.000000
vt 0.625000 0.500000
vt 0.593750 1.000000
vt 0.593750 0.500000
vt 0.562500 1.000000
vt 0.562500 0.500000
vt 0.531250 1.000000
vt 0.531250 0.500000
vt 0.500000 1.000000
vt 0.500000 0.500000
vt 0.468750 1.000000
vt 0.468750 0.500000
vt 0.437500 1.000000
vt 0.437500 0.500000
vt 0.406250 1.000000
vt 0.406250 0.500000
vt 0.375000 1.000000
vt 0.375000 0.500000
vt 0.343750 1.000000
vt 0.343750 0.500000
vt 0.312500 1.000000
vt 0.312500 0.500000
vt 0.281250 1.000000
vt 0.281250 0.500000
vt 0.250000 1.000000
vt 0.250000 0.500000
vt 0.218750 1.000000
vt 0.218750 0.500000
vt 0.187500 1.000000
vt 0.187500 0.500000
vt 0.156250 1.000000
vt 0.156250 0.500000
vt 0.125000 1.000000
vt 0.125000 0.500000
vt 0.093750 1.000000
vt 0.093750 0.500000
vt 0.062500 1.000000
vt 0.062500 0.500000
vt 0.259708 0.298806
vt 0.250000 0.299762
vt 0.240292 0.298806
vt 0.230957 0.295974
vt 0.222354 0.291375
vt 0.214813 0.285187
vt 0.208625 0.277646
vt 0.204026 0.269043
vt 0.201195 0.259708
vt 0.200238 0.250000
vt 0.201194 0.240292
vt 0.204026 0.230957
vt 0.208625 0.222354
vt 0.214813 0.214813
vt 0.222354 0.208625
vt 0.230957 0.204026
vt 0.240292 0.201194
vt 0.250000 0.200238
vt 0.259708 0.201195
vt 0.269043 0.204026
vt 0.277646 0.208625
vt 0.285187 0.214813
vt 0.291375 0.222354
vt 0.295974 0.230957
vt 0.298806 0.240292
vt 0.299762 0.250000
vt 0.298806 0.259708
vt 0.295974 0.269043
vt 0.291375 0.277646
vt 0.285187 0.285187
vt 0.277646 0.291375
vt 0.269043 0.295974
vt 0.031250 1.000000
vt 0.031250 0.500000
vt 0.000000 1.000000
vt 0.000000 0.500000
vt 0.750000 0.490000
vt 0.796822 0.485388
vt 0.841844 0.471731
vt 0.883337 0.449553
vt 0.919706 0.419706
vt 0.949553 0.383337
vt 0.971731 0.341844
vt 0.985388 0.296822
vt 0.990000 0.250000
vt 0.985388 0.203178
vt 0.971731 0.158156
vt 0.949553 0.116663
vt 0.919706 0.080294
vt 0.883337 0.050447
vt 0.841844 0.028269
vt 0.796822 0.014612
vt 0.750000 0.010000
vt 0.703178 0.014612
vt 0.658156 0.028269
vt 0.616663 0.050447
vt 0.580294 0.080294
vt 0.550447 0.116663
vt 0.528269 0.158156
vt 0.514612 0.203178
vt 0.510000 0.250000
vt 0.514612 0.296822
vt 0.528269 0.341844
vt 0.550447 0.383337
vt 0.580294 0.419706
vt 0.616663 0.449553
vt 0.658156 0.471731
vt 0.703178 0.485388
vt 0.250000 0.458187
vt 0.290615 0.454187
vt 0.296822 0.485388
vt 0.250000 0.490000
vt 0.329670 0.442340
vt 0.341844 0.471731
vt 0.365663 0.423101
vt 0.383337 0.449553
vt 0.397210 0.397210
vt 0.419706 0.419706
vt 0.423101 0.365663
vt 0.449553 0.383337
vt 0.442340 0.329670
vt 0.471731 0.341844
vt 0.454187 0.290615
vt 0.485388 0.296822
vt 0.458187 0.250000
vt 0.490000 0.250000
vt 0.454187 0.209385
vt 0.485388 0.203178
vt 0.442340 0.170330
vt 0.471731 0.158156
vt 0.423101 0.134337
vt 0.449553 0.116663
vt 0.397211 0.102790
vt 0.419706 0.080294
vt 0.365663 0.076899
vt 0.383337 0.050447
vt 0.329670 0.057660
vt 0.341844 0.028269
vt 0.290615 0.045813
vt 0.296822 0.014612
vt 0.250000 0.041813
vt 0.250000 0.010000
vt 0.209385 0.045813
vt 0.203178 0.014612
vt 0.170330 0.057660
vt 0.158156 0.028269
vt 0.134337 0.076899
vt 0.116663 0.050447
vt 0.102790 0.102790
vt 0.080294 0.080294
vt 0.076899 0.134337
vt 0.050447 0.116663
vt 0.057660 0.170330
vt 0.028269 0.158156
vt 0.045813 0.209385
vt 0.014612 0.203178
vt 0.041813 0.250000
vt 0.010000 0.250000
vt 0.045813 0.290615
vt 0.014612 0.296822
vt 0.057660 0.329670
vt 0.028269 0.341844
vt 0.076899 0.365663
vt 0.050447 0.383337
vt 0.102790 0.397211
vt 0.080294 0.419706
vt 0.134337 0.423101
vt 0.116663 0.449553
vt 0.170330 0.442340
vt 0.158156 0.471731
vt 0.209385 0.454187
vt 0.203178 0.485388
vt 0.250000 0.391272
vt 0.277561 0.388557
vt 0.304062 0.380518
vt 0.328486 0.367463
vt 0.349894 0.349894
vt 0.367463 0.328486
vt 0.380518 0.304062
vt 0.388557 0.277561
vt 0.391271 0.250000
vt 0.388557 0.222439
vt 0.380518 0.195938
vt 0.367463 0.171514
vt 0.349894 0.150106
vt 0.328486 0.132537
vt 0.304062 0.119482
vt 0.277561 0.111443
vt 0.250000 0.108729
vt 0.222439 0.111443
vt 0.195938 0.119482
vt 0.171514 0.132537
vt 0.150106 0.150106
vt 0.132537 0.171514
vt 0.119482 0.195938
vt 0.111443 0.222439
vt 0.108729 0.250000
vt 0.111443 0.277561
vt 0.119482 0.304062
vt 0.132537 0.328486
vt 0.150106 0.349894
vt 0.171514 0.367463
vt 0.195938 0.380518
vt 0.222439 0.388557
vt 0.299747 0.299747
vt 0.308497 0.289086
vt 0.263725 0.319001
vt 0.276923 0.314998
vt 0.289086 0.308497
vt 0.180999 0.263725
vt 0.314998 0.276923
vt 0.319001 0.263725
vt 0.319001 0.236275
vt 0.314998 0.223077
vt 0.308497 0.210914
vt 0.250000 0.179647
vt 0.236275 0.180999
vt 0.289086 0.191503
vt 0.276923 0.185002
vt 0.263725 0.180999
vt 0.223077 0.185002
vt 0.210914 0.191503
vt 0.180999 0.236275
vt 0.200253 0.299747
vt 0.210914 0.308497
vt 0.191503 0.210914
vt 0.185002 0.223077
vt 0.185002 0.276923
vt 0.191503 0.289086
vt 0.223077 0.314998
vt 0.236275 0.319001
vt 0.250000 0.320353
vt 0.320353 0.250000
vt 0.299747 0.200253
vt 0.200253 0.200253
vt 0.179647 0.250000
s 0
g tire-half.001_black.003
usemtl black.003
f 320/164/200 385/165/200 384/166/200 322/167/200
f 322/167/201 384/166/201 386/168/201 324/169/201
f 324/169/202 386/168/202 387/170/202 326/171/202
f 326/171/203 387/170/203 388/172/203 328/173/203
f 328/173/204 388/172/204 389/174/204 330/175/204
f 330/175/205 389/174/205 390/176/205 332/177/205
f 332/177/206 390/176/206 391/178/206 334/179/206
f 334/179/207 391/178/207 392/180/207 336/181/207
f 336/181/208 392/180/208 393/182/208 338/183/208
f 338/183/209 393/182/209 394/184/209 340/185/209
f 340/185/210 394/184/210 395/186/210 342/187/210
f 342/187/211 395/186/211 396/188/211 344/189/211
f 344/189/212 396/188/212 397/190/212 346/191/212
f 346/191/213 397/190/213 398/192/213 348/193/213
f 348/193/214 398/192/214 399/194/214 350/195/214
f 350/195/215 399/194/215 400/196/215 352/197/215
f 352/197/216 400/196/216 401/198/216 354/199/216
f 354/199/217 401/198/217 402/200/217 356/201/217
f 356/201/218 402/200/218 403/202/218 358/203/218
f 358/203/219 403/202/219 404/204/219 360/205/219
f 360/205/220 404/204/220 405/206/220 362/207/220
f 362/207/221 405/206/221 406/208/221 364/209/221
f 364/209/222 406/208/222 407/210/222 366/211/222
f 366/211/223 407/210/223 408/212/223 368/213/223
f 368/213/224 408/212/224 409/214/224 370/215/224
f 370/215/225 409/214/225 410/216/225 372/217/225
f 372/217/226 410/216/226 411/218/226 374/219/226
f 374/219/227 411/218/227 412/220/227 376/221/227
f 376/221/228 412/220/228 413/222/228 378/223/228
f 378/223/229 413/222/229 414/224/229 380/225/229
f 380/225/231 414/224/231 415/258/231 382/259/231
f 382/259/232 415/258/232 385/260/232 320/261/232
f 320/262/233 322/263/233 324/264/233 326/265/233 328/266/233 330/267/233 332/268/233 334/269/233 336/270/233 338/271/233 340/272/233 342/273/233 344/274/233 346/275/233 348/276/233 350/277/233 352/278/233 354/279/233 356/280/233 358/281/233 360/282/233 362/283/233 364/284/233 366/285/233 368/286/233 370/287/233 372/288/233 374/289/233 376/290/233 378/291/233 380/292/233 382/293/233
f 417/294/234 416/295/234 384/296/234 385/297/234
f 416/295/235 418/298/235 386/299/235 384/296/235
f 418/298/236 419/300/236 387/301/236 386/299/236
f 419/300/237 420/302/237 388/303/237 387/301/237
f 420/302/238 421/304/238 389/305/238 388/303/238
f 421/304/239 422/306/239 390/307/239 389/305/239
f 422/306/240 423/308/240 391/309/240 390/307/240
f 423/308/241 424/310/241 392/311/241 391/309/241
f 424/310/242 425/312/242 393/313/242 392/311/242
f 425/312/243 426/314/243 394/315/243 393/313/243
f 426/314/244 427/316/244 395/317/244 394/315/244
f 427/316/245 428/318/245 396/319/245 395/317/245
f 428/318/246 429/320/246 397/321/246 396/319/246
f 429/320/247 430/322/247 398/323/247 397/321/247
f 430/322/248 431/324/248 399/325/248 398/323/248
f 431/324/249 432/326/249 400/327/249 399/325/249
f 432/326/250 433/328/250 401/329/250 400/327/250
f 433/328/251 434/330/251 402/331/251 401/329/251
f 434/330/252 435/332/252 403/333/252 402/331/252
f 435/332/253 436/334/253 404/335/253 403/333/253
f 436/334/254 437/336/254 405/337/254 404/335/254
f 437/336/255 438/338/255 406/339/255 405/337/255
f 438/338/256 439/340/256 407/341/256 406/339/256
f 439/340/257 440/342/257 408/343/257 407/341/257
f 440/342/258 441/344/258 409/345/258 408/343/258
f 441/344/259 442/346/259 410/347/259 409/345/259
f 442/346/260 443/348/260 411/349/260 410/347/260
f 443/348/261 444/350/261 412/351/261 411/349/261
f 444/350/262 445/352/262 413/353/262 412/351/262
f 445/352/263 446/354/263 414/355/263 413/353/263
f 446/354/264 447/356/264 415/357/264 414/355/264
f 447/356/265 417/294/265 385/297/265 415/357/265
f 449/358/266 448/359/266 416/295/266 417/294/266
f 448/359/267 450/360/267 418/298/267 416/295/267
f 450/360/268 451/361/268 419/300/268 418/298/268
f 451/361/269 452/362/269 420/302/269 419/300/269
f 452/362/270 453/363/270 421/304/270 420/302/270
f 453/363/271 454/364/271 422/306/271 421/304/271
f 454/364/272 455/365/272 423/308/272 422/306/272
f 455/365/273 456/366/273 424/310/273 423/308/273
f 456/366/274 457/367/274 425/312/274 424/310/274
f 457/367/275 458/368/275 426/314/275 425/312/275
f 458/368/276 459/369/276 427/316/276 426/314/276
f 459/369/277 460/370/277 428/318/277 427/316/277
f 460/370/278 461/371/278 429/320/278 428/318/278
f 461/371/279 462/372/279 430/322/279 429/320/279
f 462/372/280 463/373/280 431/324/280 430/322/280
f 463/373/281 464/374/281 432/326/281 431/324/281
f 464/374/282 465/375/282 433/328/282 432/326/282
f 465/375/283 466/376/283 434/330/283 433/328/283
f 466/376/284 467/377/284 435/332/284 434/330/284
f 467/377/285 468/378/285 436/334/285 435/332/285
f 468/378/286 469/379/286 437/336/286 436/334/286
f 469/379/287 470/380/287 438/338/287 437/336/287
f 470/380/288 471/381/288 439/340/288 438/338/288
f 471/381/289 472/382/289 440/342/289 439/340/289
f 472/382/290 473/383/290 441/344/290 440/342/290
f 473/383/291 474/384/291 442/346/291 441/344/291
f 474/384/292 475/385/292 443/348/292 442/346/292
f 475/385/293 476/386/293 444/350/293 443/348/293
f 476/386/294 477/387/294 445/352/294 444/350/294
f 477/387/295 478/388/295 446/354/295 445/352/295
f 478/388/296 479/389/296 447/356/296 446/354/296
f 479/389/297 449/358/297 417/294/297 447/356/297
f 505/417/323 504/392/323 480/359/323 481/358/323
f 507/394/324 506/390/324 482/362/324 483/361/324
f 506/390/325 508/391/325 484/363/325 482/362/325
f 510/397/326 509/418/326 485/366/326 486/365/326
f 509/418/327 511/398/327 487/367/327 485/366/327
f 513/400/328 512/419/328 488/370/328 489/369/328
f 512/419/329 514/403/329 490/371/329 488/370/329
f 516/405/330 515/401/330 491/374/330 492/373/330
f 515/401/331 517/402/331 493/375/331 491/374/331
f 519/407/332 518/420/332 494/378/332 495/377/332
f 518/420/333 520/411/333 496/379/333 494/378/333
f 522/408/334 521/421/334 497/382/334 498/381/334
f 521/421/335 523/395/335 499/383/335 497/382/335
f 525/414/336 524/409/336 500/386/336 501/385/336
f 524/409/337 526/410/337 502/387/337 500/386/337
f 527/416/338 505/417/338 481/358/338 503/389/338
g tire-half.001_metal.003
usemtl metal.003
f 323/226/230 321/227/230 383/228/230 381/229/230 379/230/230 377/231/230 375/232/230 373/233/230 371/234/230 369/235/230 367/236/230 365/237/230 363/238/230 361/239/230 359/240/230 357/241/230 355/242/230 353/243/230 351/244/230 349/245/230 347/246/230 345/247/230 343/248/230 341/249/230 339/250/230 337/251/230 335/252/230 333/253/230 331/254/230 329/255/230 327/256/230 325/257/230
f 532/390/204 533/391/204 508/391/204 506/390/204
f 528/392/298 530/393/298 450/360/298 448/359/298
f 530/393/299 531/394/299 451/361/299 450/360/299
f 553/395/300 473/383/300 499/383/300 523/395/300
f 476/386/301 475/385/301 501/385/301 500/386/301
f 533/391/302 534/396/302 454/364/302 453/363/302
f 534/396/303 535/397/303 455/365/303 454/364/303
f 448/359/304 449/358/304 481/358/304 480/359/304
f 531/394/203 532/390/203 506/390/203 507/394/203
f 537/398/305 538/399/305 458/368/305 457/367/305
f 538/399/306 539/400/306 459/369/306 458/368/306
f 459/369/307 539/400/307 513/400/307 489/369/307
f 544/401/216 545/402/216 517/402/216 515/401/216
f 541/403/308 542/404/308 462/372/308 461/371/308
f 542/404/309 543/405/309 463/373/309 462/372/309
f 461/371/310 460/370/310 488/370/310 490/371/310
f 543/405/215 544/401/215 515/401/215 516/405/215
f 545/402/311 546/406/311 466/376/311 465/375/311
f 546/406/312 547/407/312 467/377/312 466/376/312
f 471/381/313 551/408/313 522/408/313 498/381/313
f 556/409/228 557/410/228 526/410/228 524/409/228
f 549/411/314 550/412/314 470/380/314 469/379/314
f 550/412/315 551/408/315 471/381/315 470/380/315
f 537/398/316 457/367/316 487/367/316 511/398/316
f 460/370/317 459/369/317 489/369/317 488/370/317
f 553/395/318 554/413/318 474/384/318 473/383/318
f 554/413/319 555/414/319 475/385/319 474/384/319
f 473/383/320 472/382/320 497/382/320 499/383/320
f 555/414/227 556/409/227 524/409/227 525/414/227
f 557/410/321 558/415/321 478/388/321 477/387/321
f 558/415/322 559/416/322 479/389/322 478/388/322
f 529/417/200 528/392/200 504/392/200 505/417/200
f 559/416/232 529/417/232 505/417/232 527/416/232
f 477/387/339 476/386/339 500/386/339 502/387/339
f 464/374/340 463/373/340 492/373/340 491/374/340
f 541/403/341 461/371/341 490/371/341 514/403/341
f 475/385/342 555/414/342 525/414/342 501/385/342
f 547/407/219 548/420/219 518/420/219 519/407/219
f 465/375/343 464/374/343 491/374/343 493/375/343
f 452/362/344 451/361/344 483/361/344 482/362/344
f 528/392/345 448/359/345 480/359/345 504/392/345
f 548/420/220 549/411/220 520/411/220 518/420/220
f 463/373/346 543/405/346 516/405/346 492/373/346
f 535/397/207 536/418/207 509/418/207 510/397/207
f 453/363/347 452/362/347 482/362/347 484/363/347
f 449/358/348 479/389/348 503/389/348 481/358/348
f 557/410/349 477/387/349 502/387/349 526/410/349
f 536/418/208 537/398/208 511/398/208 509/418/208
f 451/361/350 531/394/350 507/394/350 483/361/350
f 468/378/351 467/377/351 495/377/351 494/378/351
f 545/402/352 465/375/352 493/375/352 517/402/352
f 479/389/353 559/416/353 527/416/353 503/389/353
f 551/408/223 552/421/223 521/421/223 522/408/223
f 469/379/354 468/378/354 494/378/354 496/379/354
f 456/366/355 455/365/355 486/365/355 485/366/355
f 533/391/356 453/363/356 484/363/356 508/391/356
f 552/421/224 553/395/224 523/395/224 521/421/224
f 467/377/357 547/407/357 519/407/357 495/377/357
f 539/400/211 540/419/211 512/419/211 513/400/211
f 457/367/358 456/366/358 485/366/358 487/367/358
f 540/419/212 541/403/212 514/403/212 512/419/212
f 455/365/359 535/397/359 510/397/359 486/365/359
f 472/382/360 471/381/360 498/381/360 497/382/360
f 549/411/361 469/379/361 496/379/361 520/411/361
f 321/227/362 323/226/362 528/392/362 529/417/362
f 323/226/363 325/257/363 530/393/363 528/392/363
f 325/257/364 327/256/364 531/394/364 530/393/364
f 327/256/365 329/255/365 532/390/365 531/394/365
f 329/255/366 331/254/366 533/391/366 532/390/366
f 331/254/367 333/253/367 534/396/367 533/391/367
f 333/253/368 335/252/368 535/397/368 534/396/368
f 335/252/369 337/251/369 536/418/369 535/397/369
f 337/251/370 339/250/370 537/398/370 536/418/370
f 339/250/371 341/249/371 538/399/371 537/398/371
f 341/249/372 343/248/372 539/400/372 538/399/372
f 343/248/373 345/247/373 540/419/373 539/400/373
f 345/247/374 347/246/374 541/403/374 540/419/374
f 347/246/375 349/245/375 542/404/375 541/403/375
f 349/245/376 351/244/376 543/405/376 542/404/376
f 351/244/377 353/243/377 544/401/377 543/405/377
f 353/243/378 355/242/378 545/402/378 544/401/378
f 355/242/379 357/241/379 546/406/379 545/402/379
f 357/241/380 359/240/380 547/407/380 546/406/380
f 359/240/381 361/239/381 548/420/381 547/407/381
f 361/239/382 363/238/382 549/411/382 548/420/382
f 363/238/383 365/237/383 550/412/383 549/411/383
f 365/237/384 367/236/384 551/408/384 550/412/384
f 367/236/385 369/235/385 552/421/385 551/408/385
f 369/235/386 371/234/386 553/395/386 552/421/386
f 371/234/387 373/233/387 554/413/387 553/395/387
f 373/233/388 375/232/388 555/414/388 554/413/388
f 375/232/389 377/231/389 556/409/389 555/414/389
f 377/231/390 379/230/390 557/410/390 556/409/390
f 379/230/391 381/229/391 558/415/391 557/410/391
f 381/229/392 383/228/392 559/416/392 558/415/392
f 383/228/393 321/227/393 529/417/393 559/416/393
g rodeo.001_Cube.006
v 0.128419 1.342150 -0.525871
v 0.128419 1.312424 -0.481381
v 0.128419 1.322862 -0.428903
v 0.128419 1.367352 -0.399176
v 0.128419 1.419830 -0.409615
v 0.128419 1.449557 -0.454104
v 0.128419 1.439118 -0.506582
v 0.128419 1.394629 -0.536309
v 0.098502 1.342150 -0.525871
v 0.077579 1.353831 -0.508389
v 0.098502 1.312424 -0.481381
v 0.077579 1.333045 -0.477279
v 0.098502 1.322862 -0.428903
v 0.077579 1.340344 -0.440584
v 0.098502 1.367352 -0.399176
v 0.077579 1.371453 -0.419797
v 0.098502 1.419830 -0.409615
v 0.077579 1.408150 -0.427096
v 0.098502 1.449557 -0.454104
v 0.077579 1.428936 -0.458206
v 0.098502 1.439118 -0.506582
v 0.077579 1.421637 -0.494901
v 0.098502 1.394629 -0.536309
v 0.077579 1.390527 -0.515688
v 0.218693 1.332026 -0.541023
v 0.204153 1.326390 -0.549458
v 0.218693 1.294551 -0.484936
v 0.204153 1.284600 -0.486916
v 0.218693 1.307710 -0.418779
v 0.204153 1.299274 -0.413142
v 0.218693 1.363796 -0.381303
v 0.204153 1.361817 -0.371352
v 0.218693 1.429955 -0.394463
v 0.204153 1.435591 -0.386027
v 0.218693 1.467430 -0.450549
v 0.204153 1.477381 -0.448569
v 0.218693 1.454270 -0.516707
v 0.204153 1.462706 -0.522343
v 0.218693 1.398184 -0.554182
v 0.204153 1.400164 -0.564133
v 0.123817 1.342150 -0.222507
v 0.123817 1.312424 -0.178017
v 0.123817 1.322862 -0.125539
v 0.123817 1.367352 -0.095812
v 0.123817 1.419830 -0.106251
v 0.123817 1.449557 -0.150740
v 0.123817 1.439118 -0.203219
v 0.123817 1.394629 -0.232945
v 0.093901 1.342150 -0.222507
v 0.072977 1.353831 -0.205025
v 0.093901 1.312424 -0.178017
v 0.072977 1.333045 -0.173915
v 0.093901 1.322862 -0.125539
v 0.072977 1.340344 -0.137220
v 0.093901 1.367352 -0.095812
v 0.072977 1.371453 -0.116433
v 0.093901 1.419830 -0.106251
v 0.072977 1.408150 -0.123733
v 0.093901 1.449557 -0.150740
v 0.072977 1.428936 -0.154842
v 0.093901 1.439118 -0.203219
v 0.072977 1.421637 -0.191538
v 0.093901 1.394629 -0.232945
v 0.072977 1.390527 -0.212324
v 0.214091 1.332026 -0.237659
v 0.199552 1.326390 -0.246095
v 0.214091 1.294551 -0.181573
v 0.199552 1.284600 -0.183552
v 0.214091 1.307710 -0.115415
v 0.199552 1.299274 -0.109778
v 0.214091 1.363796 -0.077939
v 0.199552 1.361817 -0.067988
v 0.214091 1.429955 -0.091099
v 0.199552 1.435591 -0.082663
v 0.214091 1.467430 -0.147185
v 0.199552 1.477381 -0.145206
v 0.214091 1.454270 -0.213343
v 0.199552 1.462706 -0.218979
v 0.214091 1.398184 -0.250818
v 0.199552 1.400164 -0.260769
v 0.128419 1.342150 0.525871
v 0.128419 1.312424 0.481381
v 0.128419 1.322862 0.428903
v 0.128419 1.367352 0.399176
v 0.128419 1.419830 0.409615
v 0.128419 1.449557 0.454104
v 0.128419 1.439118 0.506582
v 0.128419 1.394629 0.536309
v 0.098502 1.342150 0.525871
v 0.077579 1.353831 0.508389
v 0.098502 1.312424 0.481381
v 0.077579 1.333045 0.477279
v 0.098502 1.322862 0.428903
v 0.077579 1.340344 0.440584
v 0.098502 1.367352 0.399176
v 0.077579 1.371453 0.419797
v 0.098502 1.419830 0.409615
v 0.077579 1.408150 0.427096
v 0.098502 1.449557 0.454104
v 0.077579 1.428936 0.458206
v 0.098502 1.439118 0.506582
v 0.077579 1.421637 0.494901
v 0.098502 1.394629 0.536309
v 0.077579 1.390527 0.515688
v 0.218693 1.332026 0.541023
v 0.204153 1.326390 0.549458
v 0.218693 1.294551 0.484936
v 0.204153 1.284600 0.486916
v 0.218693 1.307710 0.418779
v 0.204153 1.299274 0.413142
v 0.218693 1.363796 0.381303
v 0.204153 1.361817 0.371352
v 0.218693 1.429955 0.394463
v 0.204153 1.435591 0.386027
v 0.218693 1.467430 0.450549
v 0.204153 1.477381 0.448569
v 0.218693 1.454270 0.516707
v 0.204153 1.462706 0.522343
v 0.218693 1.398184 0.554182
v 0.204153 1.400164 0.564133
v 0.123817 1.342150 0.222507
v 0.123817 1.312424 0.178017
v 0.123817 1.322862 0.125539
v 0.123817 1.367352 0.095812
v 0.123817 1.419830 0.106251
v 0.123817 1.449557 0.150740
v 0.123817 1.439118 0.203219
v 0.123817 1.394629 0.232945
v 0.093901 1.342150 0.222507
v 0.072977 1.353831 0.205025
v 0.093901 1.312424 0.178017
v 0.072977 1.333045 0.173915
v 0.093901 1.322862 0.125539
v 0.072977 1.340344 0.137220
v 0.093901 1.367352 0.095812
v 0.072977 1.371453 0.116433
v 0.093901 1.419830 0.106251
v 0.072977 1.408150 0.123733
v 0.093901 1.449557 0.150740
v 0.072977 1.428936 0.154842
v 0.093901 1.439118 0.203219
v 0.072977 1.421637 0.191538
v 0.093901 1.394629 0.232945
v 0.072977 1.390527 0.212324
v 0.214091 1.332026 0.237659
v 0.199552 1.326390 0.246095
v 0.214091 1.294551 0.181573
v 0.199552 1.284600 0.183552
v 0.214091 1.307710 0.115415
v 0.199552 1.299274 0.109778
v 0.214091 1.363796 0.077939
v 0.199552 1.361817 0.067988
v 0.214091 1.429955 0.091099
v 0.199552 1.435591 0.082663
v 0.214091 1.467430 0.147185
v 0.199552 1.477381 0.145206
v 0.214091 1.454270 0.213343
v 0.199552 1.462706 0.218979
v 0.214091 1.398184 0.250818
v 0.199552 1.400164 0.260769
vn -0.6804 -0.7188 0.1430
vn -0.6804 0.1430 0.7188
vn -0.6804 -0.4072 0.6094
vn -0.6804 0.6094 0.4072
vn -0.0000 -0.1951 -0.9808
vn -0.6804 0.4072 -0.6094
vn -0.0000 0.9808 -0.1951
vn -0.0000 -0.8315 -0.5556
vn -1.0000 -0.0000 -0.0000
vn -0.0000 -0.9808 0.1951
vn -0.0000 0.1951 0.9808
vn -0.0000 -0.5556 0.8315
vn -0.6804 -0.1430 -0.7188
vn -0.0000 0.8315 0.5556
vn -0.3270 -0.1844 -0.9269
vn -0.0000 0.5556 -0.8315
vn -0.3270 0.9269 -0.1844
vn -0.3270 -0.7857 -0.5250
vn 0.5418 -0.6988 -0.4669
vn 0.5418 -0.8243 0.1640
vn 0.5419 -0.4669 0.6988
vn 0.5418 0.1640 0.8243
vn 0.5418 0.6988 0.4669
vn 0.5418 0.8243 -0.1640
vn 0.5418 0.4669 -0.6988
vn 0.5418 -0.1640 -0.8243
vn 1.0000 -0.0000 -0.0000
vn -0.3270 -0.9269 0.1844
vn -0.3270 0.1844 0.9269
vn -0.3270 -0.5250 0.7857
vn -0.3270 0.7857 0.5250
vn -0.3270 0.5250 -0.7857
vn -0.6804 -0.6094 -0.4072
vn -0.6804 0.7188 -0.1430
vn -0.6804 -0.7188 -0.1430
vn -0.6804 0.1430 -0.7188
vn -0.6804 -0.4072 -0.6094
vn -0.6804 0.6094 -0.4072
vn -0.0000 -0.1951 0.9808
vn -0.6804 0.4072 0.6094
vn -0.0000 0.9808 0.1951
vn -0.0000 -0.8315 0.5556
vn -0.0000 -0.9808 -0.1951
vn -0.0000 0.1951 -0.9808
vn -0.0000 -0.5556 -0.8315
vn -0.6804 -0.1430 0.7188
vn -0.0000 0.8315 -0.5556
vn -0.3270 -0.1844 0.9269
vn -0.0000 0.5556 0.8315
vn -0.3270 0.9269 0.1844
vn -0.3270 -0.7857 0.5250
vn 0.5418 -0.6988 0.4669
vn 0.5418 -0.8243 -0.1640
vn 0.5418 -0.4669 -0.6988
vn 0.5418 0.1640 -0.8243
vn 0.5418 0.6988 -0.4669
vn 0.5418 0.8243 0.1640
vn 0.5418 0.4669 0.6988
vn 0.5418 -0.1640 0.8243
vn -0.3270 -0.9269 -0.1844
vn -0.3270 0.1844 -0.9269
vn -0.3270 -0.5250 -0.7857
vn -0.3270 0.7857 -0.5250
vn -0.3270 0.5250 0.7857
vn -0.6804 -0.6094 0.4072
vn -0.6804 0.7188 0.1430
vt 0.781250 0.500000
vt 0.656250 0.500000
vt 0.656251 0.500000
vt 0.781249 0.500000
vt 0.531250 0.500000
vt 0.406250 0.500000
vt 0.406249 0.500000
vt 0.531250 0.500000
vt 0.281250 0.500000
vt 0.281250 0.500000
vt 0.031250 0.500000
vt 0.906250 0.500000
vt 0.156250 0.500000
vt 0.031250 0.500000
vt 0.156250 0.500000
vt 0.717259 0.414597
vt 0.843237 0.389538
vt 0.914597 0.282739
vt 0.889539 0.156764
vt 0.782740 0.085403
vt 0.656762 0.110462
vt 0.585403 0.217261
vt 0.610461 0.343236
vt 0.906250 0.500000
vt 0.906250 0.919470
vt 0.031250 0.919471
vt 0.281250 0.919470
vt 0.156250 0.919470
vt 0.781250 0.919471
vt 0.906250 1.000000
vt 0.781250 1.000000
vt 0.656250 1.000000
vt 0.656250 0.919470
vt 0.531250 1.000000
vt 0.531250 0.919470
vt 0.406250 1.000000
vt 0.406250 0.919470
vt 0.281250 1.000000
vt 0.156249 1.000000
vt 0.031250 1.000000
vt 0.363294 0.419556
vt 0.210217 0.450005
vt 0.080444 0.363294
vt 0.049995 0.210217
vt 0.136706 0.080444
vt 0.289783 0.049995
vt 0.419556 0.136707
vt 0.450005 0.289784
s 0
g rodeo.001_black
usemtl black
f 570/422/394 572/423/394 573/424/394 571/425/394
f 574/426/395 576/427/395 577/428/395 575/429/395
f 572/423/396 574/426/396 575/429/396 573/424/396
f 576/427/397 578/430/397 579/431/397 577/428/397
f 567/432/398 560/433/398 568/433/398 582/432/398
f 580/434/399 582/432/399 583/435/399 581/436/399
f 565/430/400 566/434/400 580/434/400 578/430/400
f 560/433/401 561/422/401 570/422/401 568/433/401
f 583/437/402 569/438/402 571/439/402 573/440/402 575/441/402 577/442/402 579/443/402 581/444/402
f 561/422/403 562/423/403 572/423/403 570/422/403
f 563/426/404 564/427/404 576/427/404 574/426/404
f 562/423/405 563/426/405 574/426/405 572/423/405
f 582/432/406 568/433/406 569/445/406 583/435/406
f 564/427/407 565/430/407 578/430/407 576/427/407
f 585/446/408 560/433/408 567/432/408 599/447/408
f 566/434/409 567/432/409 582/432/409 580/434/409
f 595/448/410 597/449/410 566/434/410 565/430/410
f 585/446/411 587/450/411 561/422/411 560/433/411
f 585/446/412 584/451/412 586/452/412 587/450/412
f 587/450/413 586/452/413 588/453/413 589/454/413
f 589/454/414 588/453/414 590/455/414 591/456/414
f 591/456/415 590/455/415 592/457/415 593/458/415
f 593/458/416 592/457/416 594/459/416 595/448/416
f 595/448/417 594/459/417 596/460/417 597/449/417
f 597/449/418 596/460/418 598/461/418 599/447/418
f 585/446/419 599/447/419 598/461/419 584/451/419
f 584/462/420 598/463/420 596/464/420 594/465/420 592/466/420 590/467/420 588/468/420 586/469/420
f 587/450/421 589/454/421 562/423/421 561/422/421
f 591/456/422 593/458/422 564/427/422 563/426/422
f 589/454/423 591/456/423 563/426/423 562/423/423
f 593/458/424 595/448/424 565/430/424 564/427/424
f 597/449/425 599/447/425 567/432/425 566/434/425
f 568/433/426 570/422/426 571/425/426 569/445/426
f 578/430/427 580/434/427 581/436/427 579/431/427
f 610/422/394 612/423/394 613/424/394 611/425/394
f 614/426/395 616/427/395 617/428/395 615/429/395
f 612/423/396 614/426/396 615/429/396 613/424/396
f 616/427/397 618/430/397 619/431/397 617/428/397
f 607/432/398 600/433/398 608/433/398 622/432/398
f 620/434/399 622/432/399 623/435/399 621/436/399
f 605/430/400 606/434/400 620/434/400 618/430/400
f 600/433/401 601/422/401 610/422/401 608/433/401
f 623/437/402 609/438/402 611/439/402 613/440/402 615/441/402 617/442/402 619/443/402 621/444/402
f 601/422/403 602/423/403 612/423/403 610/422/403
f 603/426/404 604/427/404 616/427/404 614/426/404
f 602/423/405 603/426/405 614/426/405 612/423/405
f 622/432/406 608/433/406 609/445/406 623/435/406
f 604/427/407 605/430/407 618/430/407 616/427/407
f 625/446/408 600/433/408 607/432/408 639/447/408
f 606/434/409 607/432/409 622/432/409 620/434/409
f 635/448/410 637/449/410 606/434/410 605/430/410
f 625/446/411 627/450/411 601/422/411 600/433/411
f 625/446/412 624/451/412 626/452/412 627/450/412
f 627/450/413 626/452/413 628/453/413 629/454/413
f 629/454/414 628/453/414 630/455/414 631/456/414
f 631/456/415 630/455/415 632/457/415 633/458/415
f 633/458/416 632/457/416 634/459/416 635/448/416
f 635/448/417 634/459/417 636/460/417 637/449/417
f 637/449/418 636/460/418 638/461/418 639/447/418
f 625/446/419 639/447/419 638/461/419 624/451/419
f 624/462/420 638/463/420 636/464/420 634/465/420 632/466/420 630/467/420 628/468/420 626/469/420
f 627/450/421 629/454/421 602/423/421 601/422/421
f 631/456/422 633/458/422 604/427/422 603/426/422
f 629/454/423 631/456/423 603/426/423 602/423/423
f 633/458/424 635/448/424 605/430/424 604/427/424
f 637/449/425 639/447/425 607/432/425 606/434/425
f 608/433/426 610/422/426 611/425/426 609/445/426
f 618/430/427 620/434/427 621/436/427 619/431/427
f 650/422/428 651/425/428 653/424/428 652/423/428
f 654/426/429 655/429/429 657/428/429 656/427/429
f 652/423/430 653/424/430 655/429/430 654/426/430
f 656/427/431 657/428/431 659/431/431 658/430/431
f 647/432/432 662/432/432 648/433/432 640/433/432
f 660/434/433 661/436/433 663/435/433 662/432/433
f 645/430/434 658/430/434 660/434/434 646/434/434
f 640/433/435 648/433/435 650/422/435 641/422/435
f 663/437/402 661/444/402 659/443/402 657/442/402 655/441/402 653/440/402 651/439/402 649/438/402
f 641/422/436 650/422/436 652/423/436 642/423/436
f 643/426/437 654/426/437 656/427/437 644/427/437
f 642/423/438 652/423/438 654/426/438 643/426/438
f 662/432/439 663/435/439 649/445/439 648/433/439
f 644/427/440 656/427/440 658/430/440 645/430/440
f 665/446/441 679/447/441 647/432/441 640/433/441
f 646/434/442 660/434/442 662/432/442 647/432/442
f 675/448/443 645/430/443 646/434/443 677/449/443
f 665/446/444 640/433/444 641/422/444 667/450/444
f 665/446/445 667/450/445 666/452/445 664/451/445
f 667/450/446 669/454/446 668/453/446 666/452/446
f 669/454/447 671/456/447 670/455/447 668/453/447
f 671/456/448 673/458/448 672/457/448 670/455/448
f 673/458/449 675/448/449 674/459/449 672/457/449
f 675/448/450 677/449/450 676/460/450 674/459/450
f 677/449/451 679/447/451 678/461/451 676/460/451
f 665/446/452 664/451/452 678/461/452 679/447/452
f 664/462/420 666/469/420 668/468/420 670/467/420 672/466/420 674/465/420 676/464/420 678/463/420
f 667/450/453 641/422/453 642/423/453 669/454/453
f 671/456/454 643/426/454 644/427/454 673/458/454
f 669/454/455 642/423/455 643/426/455 671/456/455
f 673/458/456 644/427/456 645/430/456 675/448/456
f 677/449/457 646/434/457 647/432/457 679/447/457
f 648/433/458 649/445/458 651/425/458 650/422/458
f 658/430/459 659/431/459 661/436/459 660/434/459
f 690/422/428 691/425/428 693/424/428 692/423/428
f 694/426/429 695/429/429 697/428/429 696/427/429
f 692/423/430 693/424/430 695/429/430 694/426/430
f 696/427/431 697/428/431 699/431/431 698/430/431
f 687/432/432 702/432/432 688/433/432 680/433/432
f 700/434/433 701/436/433 703/435/433 702/432/433
f 685/430/434 698/430/434 700/434/434 686/434/434
f 680/433/435 688/433/435 690/422/435 681/422/435
f 703/437/402 701/444/402 699/443/402 697/442/402 695/441/402 693/440/402 691/439/402 689/438/402
f 681/422/436 690/422/436 692/423/436 682/423/436
f 683/426/437 694/426/437 696/427/437 684/427/437
f 682/423/438 692/423/438 694/426/438 683/426/438
f 702/432/439 703/435/439 689/445/439 688/433/439
f 684/427/440 696/427/440 698/430/440 685/430/440
f 705/446/441 719/447/441 687/432/441 680/433/441
f 686/434/442 700/434/442 702/432/442 687/432/442
f 715/448/443 685/430/443 686/434/443 717/449/443
f 705/446/444 680/433/444 681/422/444 707/450/444
f 705/446/445 707/450/445 706/452/445 704/451/445
f 707/450/446 709/454/446 708/453/446 706/452/446
f 709/454/447 711/456/447 710/455/447 708/453/447
f 711/456/448 713/458/448 712/457/448 710/455/448
f 713/458/449 715/448/449 714/459/449 712/457/449
f 715/448/450 717/449/450 716/460/450 714/459/450
f 717/449/451 719/447/451 718/461/451 716/460/451
f 705/446/452 704/451/452 718/461/452 719/447/452
f 704/462/420 706/469/420 708/468/420 710/467/420 712/466/420 714/465/420 716/464/420 718/463/420
f 707/450/453 681/422/453 682/423/453 709/454/453
f 711/456/454 683/426/454 684/427/454 713/458/454
f 709/454/455 682/423/455 683/426/455 711/456/455
f 713/458/456 684/427/456 685/430/456 715/448/456
f 717/449/457 686/434/457 687/432/457 719/447/457
f 688/433/458 689/445/458 691/425/458 690/422/458
f 698/430/459 699/431/459 701/436/459 700/434/459
