# Blender 5.1.1
# www.blender.org
mtllib solano2.mtl
g solano2_solano2
v -1.817784 -0.076026 0.000000
v -1.734724 -0.021272 -0.797261
v 2.064345 -0.107249 0.000000
v 1.907800 0.475865 -0.000000
v 2.064345 -0.107249 -0.748666
v 1.907800 0.453706 -0.599432
v 0.602055 -0.250940 0.000000
v 0.748023 0.675528 -0.000000
v 0.011042 -0.250940 -0.853399
v 0.070473 -0.250940 0.000000
v -1.028528 -0.250940 0.000000
v 1.451644 0.594217 -0.658266
v 1.531206 -0.250940 0.000000
v -1.643560 0.044948 -0.847254
v 1.468306 0.616376 -0.000000
v -1.760362 0.559094 -0.000000
v 1.965238 0.262687 -0.600498
v 1.965238 0.294040 -0.000000
v 0.971744 0.427492 -0.000000
v 0.126542 0.490332 -0.853399
v 0.070473 0.794175 -0.000000
v -0.977305 0.770903 -0.000000
v 1.485146 0.365910 -0.000000
v 1.401884 0.467672 -0.918716
v 0.126542 0.652316 -0.797130
v 1.688053 0.539697 -0.658266
v 1.810937 -0.179094 0.000000
v -1.603658 -0.051539 -0.797261
v 1.688053 0.561856 -0.000000
v 1.741846 0.354353 -0.000000
v 1.741846 0.405235 -0.865055
v 0.706247 0.675528 -0.503015
v 1.688053 0.561856 -0.450690
v 1.468306 0.616376 -0.469314
v 1.907800 0.475865 -0.404525
v 2.014254 0.087447 -0.471589
v 2.014254 0.054576 -0.000000
v 0.971744 -0.080493 0.000000
v 0.014725 -0.064705 -0.801295
v 0.070473 0.011631 -0.000000
v -1.592909 -0.122591 0.000000
v -1.023355 0.005784 -0.000000
v 1.519634 -0.095965 0.000000
v -1.883529 0.067461 -0.000000
v 1.793579 -0.045073 0.000000
v 0.078958 1.067520 -0.000000
v -0.140656 1.123209 -0.000000
v 0.009016 1.013576 -0.000000
v -0.027512 1.108524 -0.000000
v -0.204440 1.105492 -0.645382
v 0.007415 1.055911 -0.649888
v -0.052733 1.019528 -0.679772
v -0.093568 1.105124 -0.646702
v 1.716655 0.298240 -1.016717
v 1.407322 0.429168 -1.027790
v 1.097989 0.298240 -1.016717
v 0.969859 -0.090002 -0.941407
v 0.848918 -0.250940 -0.918716
v 1.844785 -0.046709 -0.941407
v -0.794865 0.289937 -1.038344
v -1.149866 0.422126 -1.038344
v -1.454790 0.307421 -1.038344
v -1.565504 0.007231 -0.987921
v -1.025829 -0.250940 -0.551753
v -0.624349 -0.250940 0.000000
v -0.661241 -0.085854 -0.987921
v 1.925969 -0.109187 -0.812221
v 1.927432 -0.013669 -0.748859
v 0.878900 0.475778 -0.918716
v 0.841836 -0.068098 -0.866612
v 1.815493 -0.050893 -0.941407
v 1.687363 0.275691 -1.016717
v 1.405845 0.395059 -1.027790
v 1.121403 0.272483 -1.016717
v 1.903317 -0.115609 0.000000
v 1.008027 -0.090002 -0.941407
v 0.822965 -0.250940 0.000000
v 1.810937 -0.179094 -0.552861
v 1.531206 -0.250940 -0.552861
v 0.839896 -0.250940 -0.552861
v -0.604705 -0.250940 -0.888230
v -0.519824 -0.061672 -0.831721
v -0.875850 0.484169 -0.900105
v -0.670883 0.320582 -0.878099
v -1.529908 0.414623 -0.858370
v -1.590139 -0.111350 -0.551753
v -0.624349 -0.250940 -0.551753
v -0.825691 0.271838 -1.038344
v -0.700809 -0.085854 -0.987921
v -1.156195 0.390071 -1.038412
v -1.432197 0.286750 -1.038412
v -0.855237 0.263855 -0.551753
v -1.537811 0.007231 -0.987921
v -0.742565 -0.062372 -0.551753
v -1.153428 0.371688 -0.551753
v -1.402446 0.277455 -0.551753
v -1.497734 0.022525 -0.551753
v 1.791387 -0.033471 -0.552861
v 1.670827 0.267253 -0.552861
v 1.405941 0.377169 -0.552861
v 1.138304 0.264299 -0.552861
v 1.031626 -0.069483 -0.552861
v -1.580205 0.932360 -0.000000
v -1.697297 0.820410 -0.000000
v -0.885162 1.098421 -0.000000
v -1.066307 1.071292 -0.000000
v -0.977305 1.003159 -0.000000
v -0.976385 1.089204 -0.000000
v -0.885171 1.080957 -0.645382
v -1.214385 0.538693 -0.907157
v -1.067357 0.531921 -0.913487
v -1.216529 0.748637 -0.842660
v -1.067048 0.743806 -0.849738
v -0.918785 1.018645 -0.683151
v -1.720352 0.747961 -0.000000
v 1.998547 0.342797 -0.689832
v 1.998547 0.342797 -0.000000
v 2.067523 0.005819 -0.520205
v 2.067523 0.005819 -0.000000
v -1.881454 0.179985 -0.000000
v -1.827023 0.212798 -0.000000
v 0.541548 -0.250940 -0.911992
v 0.663611 -0.250940 -0.918716
v 0.602405 -0.250940 -0.857781
v 0.663567 0.649110 -0.674123
v 0.540356 0.653231 -0.691237
v 0.633684 0.660040 -0.623470
v 0.634714 0.479207 -0.900139
v 0.512748 0.481463 -0.889758
v 0.512849 -0.067004 -0.859499
v 0.634918 -0.067471 -0.866612
v -1.630522 0.606837 -0.838483
v -1.718492 0.622236 -0.737440
v -1.585075 0.744031 -0.791148
v -1.677962 0.743502 -0.691305
v -1.766378 0.224215 -0.604122
v -1.697139 0.225542 -0.837385
v -1.066098 1.053882 -0.556958
v -0.985800 1.034153 -0.666550
v -0.976326 1.072426 -0.573748
v -1.816189 0.067461 -0.767587
v -1.733572 0.057154 -0.844962
v -1.764173 0.013641 -0.815268
v -1.737982 0.209858 -0.838062
v -1.819031 0.181004 -0.763828
v -1.677907 0.743497 -0.692205
v -1.589167 0.743980 -0.790576
v -1.579215 0.769783 -0.762522
v -1.659177 0.808051 -0.659242
v -1.494253 0.860096 -0.727610
v -1.544712 0.921471 -0.598870
v -1.106376 0.971288 -0.699154
v -1.066114 1.055225 -0.559735
v -0.987871 1.034632 -0.666037
v -1.734724 -0.021272 0.797261
v 2.064345 -0.107249 0.748666
v 1.907800 0.453706 0.599432
v 0.011042 -0.250940 0.853399
v 1.451644 0.594217 0.658266
v -1.643560 0.044948 0.847254
v 1.965238 0.262687 0.600498
v 0.126542 0.490332 0.853399
v 1.401884 0.467672 0.918716
v 0.126542 0.652316 0.797130
v 1.688053 0.539697 0.658266
v -1.603658 -0.051539 0.797261
v 1.741846 0.405235 0.865055
v 0.706247 0.675528 0.503015
v 1.688053 0.561856 0.450690
v 1.468306 0.616376 0.469314
v 1.907800 0.475865 0.404525
v 2.014254 0.087447 0.471589
v 0.014725 -0.064705 0.801295
v -0.204440 1.105492 0.645382
v 0.007415 1.055911 0.649888
v -0.052733 1.019528 0.679772
v -0.093568 1.105124 0.646702
v 1.716655 0.298240 1.016717
v 1.407322 0.429168 1.027790
v 1.097989 0.298240 1.016717
v 0.969859 -0.090002 0.941407
v 0.848918 -0.250940 0.918716
v 1.844785 -0.046709 0.941407
v -0.794865 0.289937 1.038344
v -1.149866 0.422126 1.038344
v -1.454790 0.307421 1.038344
v -1.565504 0.007231 0.987921
v -1.025829 -0.250940 0.551753
v -0.661241 -0.085854 0.987921
v 1.925969 -0.109187 0.812221
v 1.927432 -0.013669 0.748859
v 0.878900 0.475778 0.918716
v 0.841836 -0.068098 0.866612
v 1.815493 -0.050893 0.941407
v 1.687363 0.275691 1.016717
v 1.405845 0.395059 1.027790
v 1.121403 0.272483 1.016717
v 1.008027 -0.090002 0.941407
v 1.810937 -0.179094 0.552861
v 1.531206 -0.250940 0.552861
v 0.839896 -0.250940 0.552861
v -0.604705 -0.250940 0.888230
v -0.519824 -0.061672 0.831721
v -0.875850 0.484169 0.900105
v -0.670883 0.320582 0.878099
v -1.529908 0.414623 0.858370
v -1.590139 -0.111350 0.551753
v -0.624349 -0.250940 0.551753
v -0.825691 0.271838 1.038344
v -0.700809 -0.085854 0.987921
v -1.156195 0.390071 1.038412
v -1.432197 0.286750 1.038412
v -0.855237 0.263855 0.551753
v -1.537811 0.007231 0.987921
v -0.742565 -0.062372 0.551753
v -1.153428 0.371688 0.551753
v -1.402446 0.277455 0.551753
v -1.497734 0.022525 0.551753
v 1.791387 -0.033471 0.552861
v 1.670827 0.267253 0.552861
v 1.405941 0.377169 0.552861
v 1.138304 0.264299 0.552861
v 1.031626 -0.069483 0.552861
v -0.885171 1.080957 0.645382
v -1.214385 0.538693 0.907157
v -1.067357 0.531921 0.913487
v -1.216529 0.748637 0.842660
v -1.067048 0.743806 0.849738
v -0.918785 1.018645 0.683151
v 1.998547 0.342797 0.689832
v 2.067523 0.005819 0.520205
v 0.541548 -0.250940 0.911992
v 0.663611 -0.250940 0.918716
v 0.602405 -0.250940 0.857781
v 0.663567 0.649110 0.674123
v 0.540356 0.653231 0.691237
v 0.633684 0.660040 0.623470
v 0.634714 0.479207 0.900139
v 0.512748 0.481463 0.889758
v 0.512849 -0.067004 0.859499
v 0.634918 -0.067471 0.866612
v -1.630522 0.606837 0.838483
v -1.718492 0.622236 0.737440
v -1.585075 0.744031 0.791148
v -1.677962 0.743502 0.691305
v -1.766378 0.224215 0.604122
v -1.697139 0.225542 0.837385
v -1.066098 1.053882 0.556958
v -0.985800 1.034153 0.666550
v -0.976326 1.072426 0.573748
v -1.816189 0.067461 0.767587
v -1.733572 0.057154 0.844962
v -1.764173 0.013641 0.815268
v -1.737982 0.209858 0.838062
v -1.819031 0.181004 0.763828
v -1.677907 0.743497 0.692205
v -1.589167 0.743980 0.790576
v -1.579215 0.769783 0.762522
v -1.659177 0.808051 0.659242
v -1.494253 0.860096 0.727610
v -1.544712 0.921471 0.598870
v -1.106376 0.971288 0.699154
v -1.066114 1.055225 0.559735
v -0.987871 1.034632 0.666037
vn 0.4532 0.7830 -0.4260
vn 0.8161 0.5778 -0.0099
vn -0.0000 -0.0000 1.0000
vn -0.2981 -0.9509 -0.0830
vn 0.2354 0.9647 -0.1177
vn 0.9732 0.2301 0.0003
vn 0.7117 -0.0257 -0.7020
vn 0.3834 0.9180 -0.1011
vn -0.0000 -1.0000 -0.0000
vn 0.2173 0.8530 -0.4746
vn 0.3644 0.9312 -0.0000
vn 0.2408 0.9706 -0.0000
vn 0.0796 0.9968 -0.0034
vn 0.9996 -0.0281 -0.0000
vn -0.2310 -0.9729 -0.0111
vn -0.0099 0.3562 -0.9343
vn 0.1808 0.4283 -0.8854
vn 0.0669 0.9975 -0.0230
vn 0.3976 0.9161 -0.0528
vn 0.4846 0.7080 -0.5137
vn 0.0853 -0.1870 -0.9787
vn 0.8690 0.2642 -0.4183
vn 0.8836 0.2663 -0.3852
vn 0.2938 0.8250 -0.4827
vn -0.1032 0.6303 -0.7695
vn -0.4632 -0.0389 -0.8854
vn -0.4622 0.2264 -0.8574
vn -0.0322 -0.0118 -0.9994
vn -0.0726 -0.1737 -0.9821
vn 0.1230 -0.8609 -0.4936
vn 0.0305 -0.0165 -0.9994
vn -0.0000 -0.1396 -0.9902
vn 0.0524 -0.0965 -0.9939
vn 0.0351 -0.9994 -0.0036
vn 0.2488 -0.9686 -0.0000
vn 0.5454 -0.8381 0.0051
vn 0.0553 0.2654 -0.9626
vn 0.7447 -0.1391 -0.6527
vn 0.7351 0.1931 -0.6499
vn 0.5564 0.6232 -0.5496
vn -0.8325 0.2326 -0.5028
vn -0.8082 -0.4975 -0.3151
vn 0.0321 -0.1250 -0.9916
vn -0.0009 0.0023 -1.0000
vn -0.0000 -0.5169 -0.8560
vn 0.0005 0.0010 -1.0000
vn -0.0624 -0.1485 -0.9869
vn -0.0000 -0.9556 -0.2946
vn 0.9317 -0.3567 -0.0682
vn -0.9410 -0.3318 -0.0671
vn -0.3382 -0.9404 -0.0348
vn 0.3519 -0.9352 -0.0384
vn -0.8476 -0.5281 -0.0513
vn 0.7172 -0.6895 -0.1014
vn -0.0000 -0.0000 -1.0000
vn 0.9514 -0.3051 -0.0408
vn -0.9272 -0.3724 -0.0403
vn -0.3862 -0.9219 -0.0326
vn 0.3915 -0.9196 -0.0326
vn 0.6986 -0.7155 0.0060
vn -0.7572 -0.6176 -0.2126
vn -0.0346 0.9991 -0.0255
vn -0.0319 0.2906 -0.9563
vn 0.0609 0.2693 -0.9611
vn 0.0060 0.7490 -0.6626
vn -0.3185 0.6961 -0.6435
vn 0.2276 0.6365 -0.7369
vn -0.0052 0.4343 -0.9008
vn 0.8914 -0.4532 0.0110
vn 0.7588 0.4495 0.4713
vn 0.7780 0.6279 0.0208
vn 0.0576 0.9823 -0.1780
vn -0.0540 0.2656 -0.9626
vn 0.0375 0.7761 -0.6296
vn -0.0720 -0.0580 -0.9957
vn 0.0004 0.2737 -0.9618
vn -0.1083 0.2635 -0.9586
vn 0.0351 0.8569 -0.5143
vn 0.0751 0.6012 -0.7956
vn 0.0771 0.9862 -0.1464
vn -0.1069 -0.0632 -0.9923
vn -0.0417 -0.0768 -0.9962
vn -0.6509 0.4402 -0.6186
vn -0.9024 0.0590 -0.4268
vn -0.1184 0.3178 -0.9407
vn -0.9652 0.2575 -0.0463
vn -0.9878 0.1399 -0.0677
vn -0.2986 0.8926 -0.3377
vn -0.0796 0.5477 -0.8329
vn -0.2014 0.9791 -0.0297
vn -0.1077 0.9938 -0.0279
vn -0.6845 -0.0159 -0.7288
vn -0.6802 0.0108 -0.7330
vn -0.1039 -0.5042 -0.8573
vn -0.1359 0.0221 -0.9905
vn -0.9964 -0.0020 -0.0844
vn -0.8447 -0.5260 -0.0991
vn -0.5066 0.8604 -0.0552
vn 0.4989 0.8619 -0.0910
vn 0.3425 0.5327 -0.7739
vn 0.0427 0.4058 -0.9130
vn -0.3372 0.8464 -0.4122
vn -0.4506 0.7001 -0.5539
vn -0.5705 0.5763 -0.5852
vn -0.2055 0.8572 -0.4723
vn -0.9506 0.3045 -0.0605
vn -0.1209 0.5702 -0.8125
vn -0.6892 0.7225 -0.0537
vn -0.2637 0.9641 -0.0306
vn -0.0487 0.5473 -0.8355
vn 0.2269 0.3952 -0.8901
vn 0.4532 0.7830 0.4260
vn 0.8161 0.5778 0.0099
vn -0.2981 -0.9509 0.0830
vn 0.2354 0.9647 0.1177
vn 0.9732 0.2301 -0.0003
vn 0.7117 -0.0257 0.7020
vn 0.3834 0.9180 0.1011
vn 0.2173 0.8530 0.4746
vn 0.0796 0.9968 0.0034
vn -0.2310 -0.9729 0.0111
vn -0.0099 0.3562 0.9343
vn 0.1808 0.4283 0.8854
vn 0.0669 0.9975 0.0230
vn 0.3976 0.9161 0.0528
vn 0.4846 0.7080 0.5137
vn 0.0853 -0.1870 0.9787
vn 0.8690 0.2642 0.4183
vn 0.8836 0.2663 0.3852
vn 0.2938 0.8250 0.4827
vn -0.1032 0.6303 0.7695
vn -0.4632 -0.0389 0.8854
vn -0.4622 0.2264 0.8574
vn -0.0322 -0.0118 0.9994
vn -0.0726 -0.1737 0.9821
vn 0.1230 -0.8609 0.4936
vn 0.0305 -0.0165 0.9994
vn -0.0000 -0.1396 0.9902
vn 0.0524 -0.0965 0.9939
vn 0.0351 -0.9994 0.0036
vn 0.5454 -0.8381 -0.0051
vn 0.0553 0.2654 0.9626
vn 0.7447 -0.1391 0.6527
vn 0.7351 0.1931 0.6499
vn 0.5564 0.6232 0.5496
vn -0.8325 0.2326 0.5028
vn -0.8082 -0.4975 0.3151
vn 0.0321 -0.1250 0.9916
vn -0.0009 0.0023 1.0000
vn -0.0000 -0.5169 0.8560
vn 0.0005 0.0010 1.0000
vn -0.0624 -0.1485 0.9869
vn -0.0000 -0.9556 0.2946
vn 0.9317 -0.3567 0.0682
vn -0.9410 -0.3318 0.0671
vn -0.3382 -0.9404 0.0348
vn 0.3519 -0.9352 0.0384
vn -0.8476 -0.5281 0.0513
vn 0.7172 -0.6895 0.1014
vn 0.9514 -0.3051 0.0408
vn -0.9272 -0.3724 0.0403
vn -0.3862 -0.9219 0.0326
vn 0.3915 -0.9196 0.0326
vn 0.6986 -0.7155 -0.0060
vn -0.7572 -0.6176 0.2126
vn -0.0346 0.9991 0.0255
vn -0.0319 0.2906 0.9563
vn 0.0609 0.2693 0.9611
vn 0.0060 0.7490 0.6626
vn -0.3185 0.6961 0.6435
vn 0.2276 0.6365 0.7369
vn -0.0052 0.4343 0.9008
vn 0.8914 -0.4532 -0.0110
vn 0.7588 0.4495 -0.4713
vn 0.7780 0.6279 -0.0208
vn 0.0576 0.9823 0.1780
vn -0.0540 0.2656 0.9626
vn 0.0375 0.7761 0.6296
vn -0.0720 -0.0580 0.9957
vn 0.0004 0.2737 0.9618
vn -0.1083 0.2635 0.9586
vn 0.0351 0.8569 0.5143
vn 0.0751 0.6012 0.7956
vn 0.0771 0.9862 0.1464
vn -0.1069 -0.0632 0.9923
vn -0.0417 -0.0768 0.9962
vn -0.6509 0.4402 0.6186
vn -0.9024 0.0590 0.4268
vn -0.1184 0.3178 0.9407
vn -0.9652 0.2575 0.0463
vn -0.9878 0.1399 0.0677
vn -0.2986 0.8926 0.3377
vn -0.0796 0.5477 0.8329
vn -0.2014 0.9791 0.0297
vn -0.1077 0.9938 0.0279
vn -0.6845 -0.0159 0.7288
vn -0.6802 0.0108 0.7330
vn -0.1039 -0.5042 0.8573
vn -0.1359 0.0221 0.9905
vn -0.9964 -0.0020 0.0844
vn -0.8447 -0.5260 0.0991
vn -0.5066 0.8604 0.0552
vn 0.4989 0.8619 0.0910
vn 0.3425 0.5327 0.7739
vn 0.0427 0.4058 0.9130
vn -0.3372 0.8464 0.4122
vn -0.4506 0.7001 0.5539
vn -0.5705 0.5763 0.5852
vn -0.2055 0.8572 0.4723
vn -0.9506 0.3045 0.0605
vn -0.1209 0.5702 0.8125
vn -0.6892 0.7225 0.0537
vn -0.2637 0.9641 0.0306
vn -0.0487 0.5473 0.8355
vn 0.2269 0.3952 0.8901
vt 0.558069 0.482283
vt 0.625000 0.482283
vt 0.625000 0.500000
vt 0.558069 0.500000
vt 0.625000 0.618360
vt 0.625000 0.750000
vt 0.558069 0.750000
vt 0.558069 0.785435
vt 0.625000 0.785435
vt 0.625000 0.820869
vt 0.558069 0.820869
vt 0.125000 0.500000
vt 0.135358 0.500000
vt 0.137088 0.577565
vt 0.140935 0.750000
vt 0.125000 0.750000
vt 0.558069 0.767717
vt 0.625000 0.767717
vt 0.642717 0.500000
vt 0.660435 0.500000
vt 0.660435 0.631593
vt 0.642717 0.634146
vt 0.420994 0.767717
vt 0.420994 0.785435
vt 0.420994 0.880285
vt 0.558069 0.880285
vt 0.558069 0.940142
vt 0.420994 0.940142
vt 0.420994 0.820869
vt 0.558069 1.000000
vt 0.460383 1.000000
vt 0.448797 1.000000
vt 0.420994 1.000000
vt 0.440827 0.518193
vt 0.538236 0.518098
vt 0.538236 0.731905
vt 0.440827 0.731810
vt 0.420994 0.500000
vt 0.420994 0.490940
vt 0.206872 0.750000
vt 0.210360 0.594048
vt 0.212796 0.500000
vt 0.244716 0.500000
vt 0.244716 0.750000
vt 0.558069 0.464565
vt 0.625000 0.464565
vt 0.375000 0.750000
vt 0.420994 0.750000
vt 0.375000 0.767717
vt 0.375000 0.761258
vt 0.642717 0.750000
vt 0.660435 0.750000
vt 0.695869 0.631080
vt 0.695869 0.750000
vt 0.375000 0.500000
vt 0.375000 0.940142
vt 0.375000 1.000000
vt 0.375000 0.984065
vt 0.375000 0.785435
vt 0.375000 0.820869
vt 0.375000 0.812444
vt 0.184858 0.599912
vt 0.184858 0.750000
vt 0.375000 0.880284
vt 0.375000 0.918128
vt 0.625000 0.872441
vt 0.621778 0.880285
vt 0.602173 0.880285
vt 0.625000 0.880284
vt 0.625000 0.362324
vt 0.623311 0.369716
vt 0.614212 0.369716
vt 0.616467 0.369716
vt 0.762676 0.500000
vt 0.762676 0.750000
vt 0.755285 0.750000
vt 0.755284 0.500000
vt 0.747441 0.750000
vt 0.746352 0.500000
vt 0.375000 0.490325
vt 0.000000 0.000000
vt 0.558069 0.441385
vt 0.420994 0.438380
vt 0.375000 0.438535
vt 0.420994 0.341833
vt 0.520858 0.335494
vt 0.558069 0.326914
vt 0.558069 0.369716
vt 0.420994 0.369716
vt 0.363742 0.750000
vt 0.365325 0.500000
vt 0.312556 0.750000
vt 0.313194 0.586914
vt 0.339565 0.586822
vt 0.339565 0.750000
vt 0.357283 0.591932
vt 0.357283 0.750000
vt 0.375000 0.337796
vt 0.375000 0.369716
vt 0.313535 0.500000
vt 0.625000 0.937253
vt 0.623731 0.940142
vt 0.605981 0.940142
vt 0.625000 0.947841
vt 0.625000 0.992290
vt 0.604442 1.000000
vt 0.587489 1.000000
vt 0.625000 0.887676
vt 0.808888 0.500000
vt 0.809364 0.750000
vt 0.579094 0.313403
vt 0.558069 0.314650
vt 0.558069 0.302049
vt 0.583172 0.301468
vt 0.577396 0.369716
vt 0.515913 0.270281
vt 0.616516 0.315612
vt 0.625000 0.316112
vt 0.298014 0.500000
vt 0.305298 0.500000
vt 0.304131 0.516582
vt 0.625000 0.431682
vt 0.619369 0.423964
vt 0.625000 0.430452
vt 0.420994 0.431242
vt 0.375000 0.431465
vt 0.375000 0.423014
vt 0.420994 0.422660
vt 0.558069 0.431580
vt 0.558069 0.421029
vt 0.304131 0.750000
vt 0.693318 0.500000
vt 0.695869 0.539462
vt 0.602856 0.259876
vt 0.558069 0.258697
vt 0.558069 0.223509
vt 0.605277 0.221881
vt 0.463532 0.250000
vt 0.463204 0.223985
vt 0.558069 0.000000
vt 0.587489 0.000000
vt 0.460383 0.000000
vt 0.623330 0.307084
vt 0.815142 0.510362
vt 0.700727 0.392840
vt 0.766418 0.465514
vt 0.823275 0.515524
vt 0.822840 0.750000
vt 0.815142 0.749935
vt 0.420994 0.227628
vt 0.420339 0.254277
vt 0.393097 0.250000
vt 0.458429 0.250000
vt 0.449048 0.227519
vt 0.375000 0.250000
vt 0.420994 0.260725
vt 0.375000 0.260358
vt 0.550474 0.302727
vt 0.420994 0.000000
vt 0.448797 0.000000
vt 0.375000 0.000000
vt 0.829017 0.500000
vt 0.823242 0.533606
vt 0.823304 0.500000
vt 0.831613 0.465060
vt 0.619384 0.265800
vt 0.613614 0.220834
vt 0.866891 0.531606
vt 0.603075 0.259415
vt 0.605300 0.222170
vt 0.611623 0.304623
vt 0.614501 0.265574
vt 0.624986 0.258391
vt 0.622030 0.305777
vt 0.604442 0.000000
vt 0.867290 0.750000
vt 0.698697 0.390594
s 0
g solano2_Material.001
usemtl Material.001
f 31/1/1 26/2/1 6/3/1 116/4/1
f 116/4/2 6/3/2 35/5/2 4/6/2 117/7/2
f 23/8/3 15/9/3 8/10/3 19/11/3
f 30/17/3 29/18/3 15/9/3 23/8/3
f 26/19/5 12/20/5 34/21/5 33/22/5
f 45/23/3 30/17/3 23/8/3 43/24/3
f 40/25/3 21/26/3 22/27/3 42/28/3
f 38/29/3 19/11/3 21/26/3 40/25/3
f 43/24/3 23/8/3 19/11/3 38/29/3
f 42/28/3 22/27/3 16/30/3 121/31/3 120/32/3 44/33/3
f 31/1/7 116/4/7 118/38/7 68/39/7
f 6/3/8 26/19/8 33/22/8 35/5/8
f 117/7/3 4/6/3 29/18/3 30/17/3
f 24/45/10 12/46/10 26/2/10 31/1/10
f 3/47/3 119/48/3 45/23/3 27/49/3 75/50/3
f 35/5/11 33/22/11 29/51/11 4/6/11
f 33/22/12 34/21/12 15/52/12 29/51/12
f 34/21/13 32/53/13 8/54/13 15/52/13
f 5/55/14 118/38/14 119/48/14 3/47/14
f 11/56/3 42/28/3 44/33/3 1/57/3 41/58/3
f 13/59/3 43/24/3 38/29/3 7/60/3 77/61/3
f 7/60/3 38/29/3 40/25/3 10/64/3
f 10/64/3 40/25/3 42/28/3 11/56/3 65/65/3
f 27/49/3 45/23/3 43/24/3 13/59/3
f 46/66/3 49/67/3 48/68/3
f 49/67/3 47/69/3 48/68/3
f 50/70/16 53/71/16 52/72/16
f 53/71/17 51/73/17 52/72/17
f 50/74/18 47/75/18 49/76/18 53/77/18
f 53/77/19 49/76/19 46/78/19 51/79/19
f 19/11/3 8/10/3 46/66/3 48/68/3 21/26/3
f 67/80/20 68/39/20 118/38/20 5/55/20
f 54/81/21 59/81/21 71/81/21 72/81/21
f 59/81/22 68/81/22 67/81/22
f 59/81/23 54/81/23 31/1/23 68/81/23
f 24/45/24 31/1/24 54/81/24 55/81/24
f 69/82/25 24/45/25 55/81/25 56/81/25
f 56/81/26 57/81/26 70/83/26 69/82/26
f 58/84/27 70/83/27 57/81/27
f 56/81/28 55/81/28 73/81/28 74/81/28
f 57/81/29 56/81/29 74/81/29 76/81/29
f 71/81/30 59/81/30 67/81/30
f 55/81/31 54/81/31 72/81/31 73/81/31
f 57/81/32 76/81/32 58/81/32
f 82/85/33 84/86/33 83/87/33 20/88/33 39/89/33
f 75/90/34 67/91/34 5/55/34 3/47/34
f 78/96/36 67/91/36 75/90/36 27/97/36
f 81/98/37 82/85/37 39/89/37 9/99/37
f 66/81/38 82/81/38 81/81/38
f 82/81/39 66/81/39 60/81/39 84/81/39
f 60/81/40 83/81/40 84/81/40
f 85/81/41 62/81/41 63/81/41 14/81/41
f 63/81/42 28/81/42 14/81/42
f 60/81/43 66/81/43 89/81/43 88/81/43
f 62/81/44 61/81/44 90/81/44 91/81/44
f 81/81/45 89/81/45 66/81/45
f 61/81/46 60/81/46 88/81/46 90/81/46
f 63/81/47 62/81/47 91/81/47 93/81/47
f 63/81/48 93/81/48 28/81/48
f 93/81/49 91/81/49 96/81/49 97/81/49
f 88/81/50 89/81/50 94/81/50 92/81/50
f 90/81/51 88/81/51 92/81/51 95/81/51
f 91/81/52 90/81/52 95/81/52 96/81/52
f 87/41/53 94/81/53 89/81/53 81/81/53
f 28/81/54 93/81/54 97/81/54 86/14/54
f 76/81/56 74/81/56 101/81/56 102/81/56
f 72/81/57 71/81/57 98/81/57 99/81/57
f 73/81/58 72/81/58 99/81/58 100/81/58
f 74/81/59 73/81/59 100/81/59 101/81/59
f 76/81/60 102/81/60 80/93/60 58/100/60
f 71/81/61 67/91/61 78/96/61 98/81/61
f 105/101/3 108/102/3 107/103/3
f 108/102/3 106/104/3 107/103/3
f 22/27/3 107/103/3 106/104/3 103/105/3 104/106/3 115/107/3 16/30/3
f 21/26/3 48/68/3 47/108/3 105/101/3 107/103/3 22/27/3
s 1
f 50/74/62 109/109/62 105/110/62 47/75/62
s 0
f 113/111/63 111/112/63 110/113/63 112/114/63
f 111/112/64 113/111/64 25/115/64 20/88/64 83/87/64
f 110/81/65 111/81/65 61/81/65
f 61/81/66 62/81/66 85/116/66 110/81/66
f 60/81/67 61/81/67 111/112/67 83/81/67
f 52/72/68 114/117/68 109/118/68 50/70/68
f 125/122/72 126/123/72 127/124/72
f 123/126/76 131/125/76 70/83/76 58/84/76
f 9/99/77 39/89/77 130/128/77 122/127/77
f 128/129/78 125/122/78 12/46/78 24/45/78 69/82/78
f 20/88/79 25/115/79 126/123/79 129/130/79
f 12/20/80 125/132/80 127/133/80 32/53/80 34/21/80
f 39/89/81 20/88/81 129/130/81 130/128/81
f 131/125/82 128/129/82 69/82/82 70/83/82
f 134/134/83 132/135/83 133/136/83 135/137/83
f 132/135/84 137/138/84 136/139/84 133/136/84
f 132/135/85 134/134/85 112/114/85 110/113/85
f 16/140/86 115/141/86 135/137/86 133/136/86
f 136/139/87 121/142/87 16/140/87 133/136/87
f 138/143/88 140/144/88 109/109/88 139/145/88
f 109/109/89 114/146/89 139/145/89
f 138/147/90 106/148/90 108/149/90 140/144/90
f 109/109/91 140/144/91 108/149/91 105/110/91
f 144/153/93 142/151/93 141/150/93 145/154/93
f 110/158/95 85/116/95 14/156/95 142/151/95 144/153/95 137/138/95 132/135/95
f 44/159/96 120/160/96 145/154/96 141/150/96
f 144/153/98 145/154/98 120/160/98 121/142/98 136/139/98 137/138/98
f 51/79/100 127/133/100 126/123/100 52/72/100
f 152/162/102 153/163/102 154/164/102
f 152/171/110 154/177/110 114/146/110 113/111/110 112/114/110
f 167/1/112 230/4/112 157/3/112 165/2/112
f 230/4/113 117/7/113 4/6/113 171/5/113 157/3/113
f 165/19/115 169/22/115 170/21/115 159/20/115
f 167/1/117 191/39/117 231/38/117 230/4/117
f 157/3/118 171/5/118 169/22/118 165/19/118
f 163/45/119 167/1/119 165/2/119 159/46/119
f 171/5/11 4/6/11 29/51/11 169/22/11
f 169/22/12 29/51/12 15/52/12 170/21/12
f 170/21/120 15/52/120 8/54/120 168/53/120
f 156/55/14 3/47/14 119/48/14 231/38/14
f 174/70/122 176/72/122 177/71/122
f 177/71/123 176/72/123 175/73/123
f 174/74/124 177/77/124 49/76/124 47/75/124
f 177/77/125 175/79/125 46/78/125 49/76/125
f 190/80/126 156/55/126 231/38/126 191/39/126
f 178/81/127 195/81/127 194/81/127 183/81/127
f 183/81/128 190/81/128 191/81/128
f 183/81/129 191/81/129 167/1/129 178/81/129
f 163/45/130 179/81/130 178/81/130 167/1/130
f 192/82/131 180/81/131 179/81/131 163/45/131
f 180/81/132 192/82/132 193/83/132 181/81/132
f 182/84/133 181/81/133 193/83/133
f 180/81/134 197/81/134 196/81/134 179/81/134
f 181/81/135 198/81/135 197/81/135 180/81/135
f 194/81/136 190/81/136 183/81/136
f 179/81/137 196/81/137 195/81/137 178/81/137
f 181/81/138 182/81/138 198/81/138
f 203/85/139 173/89/139 162/88/139 204/87/139 205/86/139
f 75/90/140 3/47/140 156/55/140 190/91/140
f 199/96/141 27/97/141 75/90/141 190/91/141
f 202/98/142 158/99/142 173/89/142 203/85/142
f 189/81/143 202/81/143 203/81/143
f 203/81/144 205/81/144 184/81/144 189/81/144
f 184/81/145 205/81/145 204/81/145
f 206/81/146 160/81/146 187/81/146 186/81/146
f 187/81/147 160/81/147 166/81/147
f 184/81/148 209/81/148 210/81/148 189/81/148
f 186/81/149 212/81/149 211/81/149 185/81/149
f 202/81/150 189/81/150 210/81/150
f 185/81/151 211/81/151 209/81/151 184/81/151
f 187/81/152 214/81/152 212/81/152 186/81/152
f 187/81/153 166/81/153 214/81/153
f 214/81/154 218/81/154 217/81/154 212/81/154
f 209/81/155 213/81/155 215/81/155 210/81/155
f 211/81/156 216/81/156 213/81/156 209/81/156
f 212/81/157 217/81/157 216/81/157 211/81/157
f 208/41/158 202/81/158 210/81/158 215/81/158
f 166/81/159 207/14/159 218/81/159 214/81/159
f 198/81/160 223/81/160 222/81/160 197/81/160
f 195/81/161 220/81/161 219/81/161 194/81/161
f 196/81/162 221/81/162 220/81/162 195/81/162
f 197/81/163 222/81/163 221/81/163 196/81/163
f 198/81/164 182/100/164 201/93/164 223/81/164
f 194/81/165 219/81/165 199/96/165 190/91/165
s 1
f 174/74/166 47/75/166 105/110/166 224/109/166
s 0
f 228/111/167 227/114/167 225/113/167 226/112/167
f 226/112/168 204/87/168 162/88/168 164/115/168 228/111/168
f 225/81/169 185/81/169 226/81/169
f 185/81/170 225/81/170 206/116/170 186/81/170
f 184/81/171 204/81/171 226/112/171 185/81/171
f 176/72/172 174/70/172 224/118/172 229/117/172
f 235/122/176 237/124/176 236/123/176
f 233/126/180 182/84/180 193/83/180 241/125/180
f 158/99/181 232/127/181 240/128/181 173/89/181
f 238/129/182 192/82/182 163/45/182 159/46/182 235/122/182
f 162/88/183 239/130/183 236/123/183 164/115/183
f 159/20/184 170/21/184 168/53/184 237/133/184 235/132/184
f 173/89/185 240/128/185 239/130/185 162/88/185
f 241/125/186 193/83/186 192/82/186 238/129/186
f 244/134/187 245/137/187 243/136/187 242/135/187
f 242/135/188 243/136/188 246/139/188 247/138/188
f 242/135/189 225/113/189 227/114/189 244/134/189
f 16/140/190 243/136/190 245/137/190 115/141/190
f 246/139/191 243/136/191 16/140/191 121/142/191
f 248/143/192 249/145/192 224/109/192 250/144/192
f 224/109/193 249/145/193 229/146/193
f 248/147/194 250/144/194 108/149/194 106/148/194
f 224/109/195 105/110/195 108/149/195 250/144/195
f 254/153/197 255/154/197 251/150/197 252/151/197
f 225/158/199 242/135/199 247/138/199 254/153/199 252/151/199 160/156/199 206/116/199
f 44/159/200 251/150/200 255/154/200 120/160/200
f 254/153/202 247/138/202 246/139/202 121/142/202 120/160/202 255/154/202
f 175/79/204 176/72/204 236/123/204 237/133/204
f 262/162/206 264/164/206 263/163/206
f 262/171/214 227/114/214 228/111/214 229/146/214 264/177/214
g solano2_black
usemtl black
f 36/34/6 17/35/6 18/36/6 37/37/6
f 65/40/9 87/41/9 81/42/9 9/43/9 10/44/9
f 41/15/15 86/14/15 64/62/15 11/63/15
f 77/92/9 80/93/9 79/94/9 13/95/9
f 79/94/35 78/96/35 27/97/35 13/95/35
f 64/62/9 87/41/9 65/40/9 11/63/9
f 86/14/55 97/81/55 96/81/55 95/81/55 92/81/55 94/81/55 87/41/55 64/62/55
f 79/94/55 80/93/55 102/81/55 101/81/55 100/81/55 99/81/55 98/81/55 78/96/55
f 122/119/9 123/120/9 124/121/9
f 124/121/9 123/120/9 58/100/9 80/93/9 77/92/9 7/131/9
f 9/43/9 122/119/9 124/121/9 7/131/9 10/44/9
f 172/34/116 37/37/116 18/36/116 161/35/116
f 65/40/9 10/44/9 158/43/9 202/42/9 208/41/9
f 41/15/121 11/63/121 188/62/121 207/14/121
f 77/92/9 13/95/9 200/94/9 201/93/9
f 200/94/35 13/95/35 27/97/35 199/96/35
f 188/62/9 11/63/9 65/40/9 208/41/9
f 207/14/3 188/62/3 208/41/3 215/81/3 213/81/3 216/81/3 217/81/3 218/81/3
f 200/94/3 199/96/3 219/81/3 220/81/3 221/81/3 222/81/3 223/81/3 201/93/3
f 232/119/9 234/121/9 233/120/9
f 234/121/9 7/131/9 77/92/9 201/93/9 182/100/9 233/120/9
f 158/43/9 10/44/9 7/131/9 234/121/9 232/119/9
g solano2_glass
usemtl glass
f 32/53/99 127/133/99 51/79/99 46/78/99 8/10/99
f 25/115/101 113/111/101 114/117/101 52/72/101
f 146/170/106 115/141/106 104/175/106 149/167/106
f 112/114/107 147/169/107 148/166/107 150/172/107 152/171/107
f 151/168/108 149/167/108 104/175/108 103/176/108
f 153/163/109 151/168/109 103/176/109 106/148/109
f 126/123/111 25/115/111 52/72/111
f 168/53/203 8/10/203 46/78/203 175/79/203 237/133/203
f 164/115/205 176/72/205 229/117/205 228/111/205
f 256/170/210 259/167/210 104/175/210 115/141/210
f 227/114/211 262/171/211 260/172/211 258/166/211 257/169/211
f 261/168/212 103/176/212 104/175/212 259/167/212
f 263/163/213 106/148/213 103/176/213 261/168/213
f 236/123/215 176/72/215 164/115/215
g solano2_metal
usemtl metal
f 2/12/4 28/13/4 86/14/4 41/15/4 1/16/4
f 18/36/69 17/35/69 116/4/69 117/7/69
f 17/35/70 36/34/70 118/38/70 116/4/70
f 36/34/71 37/37/71 119/48/71 118/38/71
f 131/125/73 123/126/73 122/127/73 130/128/73
f 125/122/74 128/129/74 129/130/74 126/123/74
f 128/129/75 131/125/75 130/128/75 129/130/75
f 141/150/92 142/151/92 143/152/92
f 2/155/94 143/152/94 142/151/94 14/156/94 28/157/94
f 1/161/97 44/159/97 141/150/97 143/152/97 2/155/97
f 150/165/103 148/166/103 149/167/103 151/168/103
f 148/166/104 147/169/104 146/170/104 149/167/104
f 152/171/105 150/172/105 151/173/105 153/174/105
f 155/12/114 1/16/114 41/15/114 207/14/114 166/13/114
f 18/36/173 117/7/173 230/4/173 161/35/173
f 161/35/174 230/4/174 231/38/174 172/34/174
f 172/34/175 231/38/175 119/48/175 37/37/175
f 241/125/177 240/128/177 232/127/177 233/126/177
f 235/122/178 236/123/178 239/130/178 238/129/178
f 238/129/179 239/130/179 240/128/179 241/125/179
f 251/150/196 253/152/196 252/151/196
f 155/155/198 166/157/198 160/156/198 252/151/198 253/152/198
f 1/161/201 155/155/201 253/152/201 251/150/201 44/159/201
f 260/165/207 261/168/207 259/167/207 258/166/207
f 258/166/208 259/167/208 256/170/208 257/169/208
f 262/171/209 263/174/209 261/173/209 260/172/209
