# Blender 5.1.1
# www.blender.org
mtllib tree_1.mtl
g trunk_3_obj_0.004
v -1.513500 -11.519600 -4.433801
v -1.524300 -11.516400 -4.474501
v 5.037700 -14.973101 2.558399
v 2.708790 -8.562500 -2.227941
v 2.712240 -8.561191 -2.227451
v -1.506600 -11.516400 -4.509101
v 5.028300 -14.955901 2.642899
v 5.045700 -14.962501 2.605399
v 3.247100 -8.600000 -2.112451
v 3.073100 -8.269140 -2.367881
v 3.076100 -8.269430 -2.368141
v 3.074150 -8.271140 -2.368931
v 3.073920 -8.271340 -2.369031
v 2.894550 -6.617230 -1.751861
v 3.072760 -8.269111 -2.367851
v 3.009130 -6.606580 -1.713381
v 3.008770 -6.607690 -1.713311
v 3.048360 -8.222220 -2.343081
v 3.048380 -8.222210 -2.343081
v 2.750500 -8.207950 -2.093581
v -2.115100 -14.962501 -1.938101
v 2.750500 -8.207820 -2.140651
v 2.716100 -8.200000 -2.102301
v 2.750520 -8.208180 -1.994361
v -2.069300 -14.973101 -1.926501
v 2.750520 -8.208190 -1.990291
v -2.143200 -14.955901 -1.969601
v 2.633240 -5.762050 -1.950861
v 2.635480 -5.808700 -2.039271
v 2.643280 -5.971490 -2.080760
v 2.635610 -5.811370 -2.039960
v 5.007400 -14.983600 2.519999
v -2.142800 -14.955901 -2.008801
v 2.643520 -5.976400 -2.079810
v 2.652870 -6.171370 -2.042240
v -2.114000 -14.962501 -2.040901
v 2.653140 -6.177010 -2.038720
v 2.659220 -6.303910 -1.959601
v 2.751990 -8.238880 -2.163121
v -2.067900 -14.973101 -2.053501
v -2.022100 -14.983600 -2.041901
v 2.639570 -5.893960 -2.200881
v -1.994000 -14.990199 -2.010501
v 2.664320 -6.410260 -2.192570
v -1.994400 -14.990199 -1.971201
v 4.992200 -14.955901 2.656699
v 2.866400 -8.256340 -1.846801
v 4.951200 -14.962501 2.641499
v -2.023200 -14.983600 -1.939101
v 3.264470 -8.237750 -2.131381
v 3.264570 -8.235630 -2.163171
v 3.256890 -8.395790 -2.074981
v 3.264460 -8.237890 -2.131331
v -2.068600 -14.973101 -1.990001
v 3.256800 -8.397571 -2.075311
v 3.281130 -7.890220 -2.021451
v 3.280530 -7.902600 -1.985361
v 3.281200 -7.888650 -2.023211
v 3.286140 -7.785630 -2.138781
v 2.850420 -8.259650 -1.852341
v 3.286180 -7.784930 -2.139041
v 2.816630 -8.226010 -1.885491
v 2.819360 -8.224290 -1.885161
v 3.289970 -7.705740 -1.988921
v 3.289990 -7.705320 -1.982181
v 2.816630 -8.226090 -1.885481
v 2.799100 -8.219600 -1.890301
v 2.714900 -8.200000 -1.984601
v 3.467900 -7.683200 -1.886301
v 3.399400 -7.683200 -1.787101
v -1.478400 -11.524700 -4.402401
v 2.606410 -8.465620 -2.176791
v 2.608440 -8.462220 -2.176431
v 2.598170 -8.499570 -2.191861
v -1.467300 -11.519600 -4.524301
v -1.421400 -11.524700 -4.514401
v -1.386300 -11.529799 -4.483001
v 4.921000 -14.973101 2.602999
v -1.375500 -11.533000 -4.442301
v 2.599040 -8.501460 -2.192351
v -1.393100 -11.533000 -4.407701
v -1.432400 -11.529799 -4.392501
v -1.449900 -11.524700 -4.458401
v 4.913000 -14.983600 2.555999
v 2.815230 -8.631990 -1.901271
v 2.815050 -8.624620 -1.895731
v 2.816300 -8.632820 -1.902881
v 4.930400 -14.990199 2.518499
v 4.966500 -14.990199 2.504699
v 2.814630 -8.621570 -1.895071
v 2.814600 -8.219600 -1.889801
v 2.815820 -8.223471 -1.887201
v 2.824150 -8.218081 -1.886251
v 4.979300 -14.973101 2.580699
v 2.815800 -8.223460 -1.887231
v 2.808480 -8.221750 -1.897591
v 2.817460 -8.220680 -1.895991
v 2.812430 -8.222640 -1.903331
v 2.811700 -8.222470 -1.904351
v 2.761900 -8.210850 -1.974311
v 2.767740 -5.834120 -1.765460
v 2.781320 -5.926590 -1.753920
v 2.766730 -5.832280 -1.766741
v 2.709240 -5.726920 -1.839741
v 2.714870 -5.737230 -1.832590
v 3.008200 -6.609430 -1.713211
v 2.708410 -5.727070 -1.840941
v 2.641980 -5.739170 -1.936500
v 3.008200 -8.289810 -1.800831
v 2.641330 -5.740850 -1.937561
v 2.782900 -8.239800 -2.371001
v 2.668990 -6.320620 -1.947101
v 2.671680 -6.320170 -1.943231
v 2.732320 -6.309900 -1.856061
v 2.858240 -8.523610 -2.290421
v 2.856050 -8.523940 -2.287281
v 2.725780 -6.311000 -1.865461
v 2.734280 -6.305160 -1.852861
v 2.780020 -6.195020 -1.778421
v 2.780510 -6.188750 -1.777201
v 2.840000 -8.249810 -2.287551
v 2.786740 -6.109510 -1.761640
v 2.850140 -8.250091 -2.301961
v 2.835400 -7.752491 -1.830951
v 3.022680 -8.290600 -1.805741
v -1.440200 -11.420800 0.373199
v -1.393300 -11.430100 0.361199
v -1.480900 -11.415100 0.360199
v -1.499700 -11.415100 0.327399
v -1.489500 -11.420800 0.287199
v -1.454200 -11.430100 0.254999
v 3.171000 -8.200000 -2.336601
v 2.860500 -8.600000 -2.287201
v 2.808820 -8.248950 -2.243221
v 2.766630 -8.247790 -2.183211
v 2.810470 -8.530829 -2.221781
v 2.809080 -8.529540 -2.219901
v 2.804990 -8.525770 -2.214401
v 2.800440 -8.600000 -2.201651
v 3.035330 -8.600000 -2.327771
v 3.008200 -8.410340 -2.346791
v 3.154940 -8.207100 -2.308011
v 3.167580 -8.205670 -2.303841
v 3.053890 -8.218510 -2.341421
v 3.149160 -8.207750 -2.309921
v 3.008200 0.000000 -2.785300
v 3.032820 -8.266200 -2.346021
v 3.008200 -8.263301 -2.354461
v 3.038240 -8.266841 -2.344161
v 3.007010 -8.401220 -2.346901
v 3.006660 -8.401580 -2.346731
v 2.999260 -8.408831 -2.343861
v 3.008200 -8.600000 -2.336901
v 2.992380 -8.261970 -2.349211
v 3.006380 -8.401980 -2.346611
v 3.010820 -6.814090 -1.724771
v 3.008200 -6.806490 -1.723491
v 3.013430 -6.816000 -1.725741
v 2.903210 -8.502880 -2.306641
v 2.899920 -8.504400 -2.305451
v 3.089110 -6.871320 -1.754061
v 2.857440 -8.250701 -2.304391
v 2.931800 -8.256920 -2.329081
v 3.104440 -6.543740 -1.742141
v 3.102510 -6.543650 -1.741491
v 3.102030 -6.543970 -1.741341
v 2.836890 -8.600000 -2.193951
v 3.082110 -7.020761 -1.759511
v 2.838450 -8.600000 -2.192481
v 3.216670 -6.549040 -1.780181
v 3.136200 -7.714770 -1.813901
v 3.139210 -7.708490 -1.814581
v 3.250600 -8.200000 -2.252501
v 3.157060 -8.424740 -1.857951
v 3.175750 -8.600000 -1.895291
v 3.175800 -8.600000 -1.895041
v 3.160350 -8.449930 -1.860371
v 3.156210 -8.423400 -1.857591
v 3.073090 -8.293330 -1.822841
v 3.072580 -8.293310 -1.822671
v 3.136220 -7.714830 -1.813911
v 3.177420 -7.838060 -1.834201
v 3.178440 -7.839070 -1.834601
v 3.217870 -8.208591 -2.231961
v 3.182400 -7.705480 -1.828961
v 7.394200 -10.963000 1.018399
v 3.099630 -6.879010 -1.758011
v 7.363300 -10.968101 0.981099
v 3.103430 -6.879180 -1.759291
v 7.400000 -10.959800 1.060699
v 3.206750 -6.883710 -1.794301
v 7.378500 -10.959800 1.091899
v 7.337900 -10.963000 1.099999
v 3.178390 -7.840950 -1.834681
v 3.227900 -8.600000 -2.099301
v 2.953900 -8.600000 -2.086471
v 2.955820 -8.600000 -2.085581
v 3.078930 -8.600000 -2.028501
v 7.293700 -10.968101 1.081999
v 3.080520 -8.600000 -2.026331
v 2.872800 -8.676761 -1.988481
v 2.873590 -8.675790 -1.992251
v 2.875010 -8.673980 -1.994311
v 2.932890 -8.600000 -2.078451
v 7.262800 -10.973201 1.044699
v 2.871620 -8.675840 -1.986691
v 7.257000 -10.976400 1.002399
v 7.278501 -10.976400 0.971199
v 2.726800 -8.239800 -2.261001
v 7.319200 -10.973201 0.963099
v 7.328500 -10.968101 1.031499
v 2.700000 -8.283100 -2.146101
v 2.700580 -8.284870 -2.144861
v 2.700500 -8.282431 -2.143141
v 2.700590 -8.284870 -2.144871
v 5.000000 -9.771300 2.547199
v 4.993700 -9.776401 2.500599
v 2.708790 -8.289910 -2.159471
v 2.709470 -8.291881 -2.158151
v 2.702440 -8.282710 -2.145191
v 4.981700 -9.768100 2.585099
v 3.351300 -7.709600 -2.139501
v 3.449500 -7.693300 -2.020901
v 2.709610 -8.286731 -2.166861
v 4.945900 -9.768100 2.599999
v 2.708840 -8.289741 -2.159881
v 2.714910 -8.284511 -2.158391
v 2.751380 -8.247040 -2.168051
v 4.906100 -9.771300 2.586099
v 4.877600 -9.776401 2.548599
v 4.871300 -9.781501 2.501999
v 4.889600 -9.784700 2.463999
v -1.407200 -11.439300 0.243099
v 2.629130 -8.566930 -2.209501
v 2.627960 -8.564430 -2.208831
v 3.289440 -7.716810 -2.164711
v 4.925400 -9.784700 2.449199
v 4.965200 -9.781501 2.463099
v 3.289790 -7.709600 -2.050401
v 3.097600 -8.600000 -2.093281
v 4.935600 -9.776401 2.524599
v 3.225790 -8.600000 -2.099201
v 2.933150 -8.600000 -2.102901
v 2.933130 -8.600000 -2.101161
v -1.366500 -11.445100 0.256099
v 3.096420 -8.600000 -2.094531
v -1.347700 -11.445100 0.288899
v 3.247100 -8.600000 -1.996601
v 3.020360 -8.600000 -2.174891
v -1.357900 -11.439300 0.329099
v 3.020450 -8.600000 -2.177001
v 3.026070 -8.600000 -2.312651
v 3.027480 -8.600000 -2.314951
v -1.423700 -11.430100 0.308099
v 6.554600 -14.962500 -5.902902
v 3.274690 -6.570990 -1.864651
v 6.514200 -14.973100 -5.877602
v 3.217910 -6.548290 -1.781881
v 3.217440 -6.548570 -1.781241
v 6.595900 -14.955900 -5.901202
v 2.800370 -8.432380 -1.857631
v 6.622500 -14.955900 -5.873201
v 2.800200 -8.434560 -1.857341
v 6.624100 -14.962500 -5.829501
v 3.253200 -8.210620 -2.181471
v 3.254460 -8.213380 -2.179451
v 6.600100 -14.973100 -5.786801
v 6.559800 -14.983599 -5.761502
v 6.518400 -14.990198 -5.763202
v 6.491900 -14.990198 -5.791202
v 6.490300 -14.983599 -5.834901
v 2.792800 -8.462180 -1.860691
v 2.793060 -8.464080 -1.861101
v 3.270200 -7.693300 -1.761201
v 3.163110 -8.476800 -1.866571
v 3.178540 -7.839180 -1.834741
v 3.198990 -7.863960 -1.865951
v 3.208270 -7.705440 -1.865791
v 2.805300 -5.994770 -1.749411
v 2.806580 -5.998440 -1.749170
v 3.208000 -6.883000 -1.796021
v 3.210320 -6.879621 -1.799041
v 3.260940 -6.805890 -1.864881
v 3.251140 -6.973330 -1.865051
v 2.963970 -6.692700 -1.732441
v 3.305560 -6.666660 -1.916691
v 2.949430 -8.239230 -1.817961
v 3.305250 -6.665340 -1.916131
v 3.284180 -6.574780 -1.878481
v 2.949200 -8.239280 -1.818051
v 3.283710 -6.574590 -1.877801
v 3.175520 -8.597251 -1.894411
v 3.230550 -7.902200 -1.914121
v 3.231660 -7.902210 -1.915711
v 3.277240 -7.705330 -1.964021
v 3.266070 -7.705350 -1.948111
v 3.248190 -7.705380 -1.922641
v 3.275380 -6.784840 -1.883681
v 3.276130 -6.781910 -1.884491
v 2.964840 -6.694921 -1.732261
v 6.557200 -14.973100 -5.832201
v 2.907900 -8.249900 -2.419401
v 3.054100 -8.266200 -2.387801
v 3.025130 -8.382870 -2.355881
v 3.024000 -8.384021 -2.355321
v 2.575665 -4.561108 -1.931506
v 2.574874 -4.544601 -2.023742
v 2.574260 -4.531731 -2.095665
v 2.573168 -4.508911 -2.223186
v 2.742966 -4.631540 -1.699287
v 2.734258 -4.627872 -1.711381
v 2.733488 -4.627549 -1.712448
v 2.693454 -4.610689 -1.768050
v 2.583650 -4.564468 -1.920433
v 2.638490 -4.587551 -1.844335
v 2.689045 -4.608832 -1.774173
v 2.639180 -4.587842 -1.843372
v 2.583054 -4.564218 -1.921254
v 2.733441 -4.496219 -2.452462
v 2.620761 -4.505137 -2.291295
v 2.738950 -4.495784 -2.460340
v 3.008200 -4.527034 -2.549266
v 3.030337 -4.532271 -2.541539
v 3.030348 -4.532273 -2.541538
v 3.033401 -4.532996 -2.540474
v 3.086265 -4.545502 -2.522032
v 2.999534 -4.526027 -2.546404
v 2.816581 -4.504790 -2.485996
v 3.075951 -4.700849 -1.636478
v 3.188696 -4.713697 -1.675048
v 3.190082 -4.713856 -1.675519
v 3.075602 -4.700810 -1.636355
v 3.008861 -4.693202 -1.613526
v 3.008200 -4.693129 -1.613296
v 3.008605 -4.693175 -1.613434
v 2.742932 -4.496245 -2.461659
v 2.783507 -4.500954 -2.475063
v 3.274704 -4.590070 -2.456366
v 3.096535 -4.547931 -2.518455
v 3.089486 -4.546264 -2.520909
v 3.270769 -4.723047 -1.703148
v 3.435048 -4.679643 -2.109434
v 3.435013 -4.680370 -2.105301
v 3.435989 -4.660053 -2.220753
v 3.435953 -4.660779 -2.216625
v 3.435368 -4.673023 -2.147056
v 3.433567 -4.710532 -1.933916
v 3.302589 -4.602170 -2.415625
v 3.322255 -4.610704 -2.386896
v 3.322986 -4.611020 -2.385832
v 3.429781 -4.657358 -2.229825
v 3.271650 -4.722980 -1.704395
v 3.341335 -4.717624 -1.803161
v 3.383388 -4.714392 -1.862771
v 3.271316 -4.723004 -1.703925
v 3.409285 -4.712400 -1.899486
v 3.409015 -4.712421 -1.899099
v 3.390383 -4.713855 -1.872684
v 3.390036 -4.713880 -1.872197
v 2.927916 -4.674484 -1.639339
v 2.850594 -4.656530 -1.664400
v 2.830122 -4.651777 -1.671038
v 2.851676 -4.656782 -1.664049
vn -0.0998 -0.9937 -0.0511
vn -0.7798 0.2879 0.5559
vn -0.1757 0.3807 -0.9078
vn -0.0997 -0.9937 -0.0517
vn 0.2245 0.9745 0.0027
vn 0.2246 0.9744 0.0022
vn -0.2253 -0.9743 -0.0023
vn 0.1941 -0.5125 -0.8365
vn 0.1938 -0.5123 -0.8366
vn -0.9989 -0.0479 -0.0001
vn -0.9988 -0.0488 0.0005
vn -0.9989 -0.0479 -0.0000
vn -0.9989 -0.0478 -0.0000
vn -0.9988 -0.0490 -0.0008
vn -0.9989 -0.0479 0.0001
vn -0.2254 -0.9743 -0.0019
vn -0.2247 -0.9744 -0.0025
vn -0.2249 -0.9744 -0.0025
vn -0.2255 -0.9742 -0.0030
vn -0.2244 -0.9745 -0.0040
vn -0.2240 -0.9746 -0.0023
vn -0.2243 -0.9745 -0.0009
vn -0.2229 -0.9748 -0.0025
vn -0.4328 -0.8505 -0.2989
vn -0.2227 -0.9749 -0.0025
vn -0.0899 0.9940 -0.0626
vn -0.2106 0.1491 0.9661
vn -0.2233 0.1215 0.9671
vn -0.2112 0.1471 0.9663
vn -0.9236 -0.3471 0.1629
vn -0.2313 -0.3515 0.9072
vn -0.6151 0.2872 0.7343
vn -0.6164 0.2905 0.7319
vn -0.6644 0.7155 0.2159
vn -0.5024 0.8255 -0.2570
vn -0.2358 -0.3459 0.9082
vn -0.6183 0.4383 -0.6524
vn -0.6226 0.4388 -0.6479
vn 0.2323 0.2873 -0.9292
vn -0.6225 0.4387 -0.6481
vn -0.0992 -0.9938 -0.0505
vn -0.2357 -0.3459 0.9082
vn -0.2364 -0.3444 0.9086
vn -0.2339 -0.3481 0.9078
vn -0.2287 0.1443 -0.9627
vn 0.0790 -0.9752 0.2065
vn 0.0802 -0.9750 0.2071
vn 0.0792 -0.9751 0.2072
vn -0.0993 -0.9938 -0.0505
vn 0.8367 0.4524 0.3086
vn -0.0999 -0.9937 -0.0508
vn -0.1003 -0.9937 -0.0502
vn -0.1004 -0.9937 -0.0504
vn -0.0995 -0.9937 -0.0506
vn 0.6084 -0.4673 0.6414
vn 0.6069 -0.4661 0.6437
vn -0.3737 0.4332 0.8202
vn 0.7941 -0.1747 -0.5821
vn -0.3731 0.4319 0.8211
vn -0.3742 0.4326 0.8202
vn -0.8313 0.1299 0.5404
vn -0.7970 0.1429 0.5868
vn 0.0789 -0.9753 0.2065
vn -0.6191 0.4466 0.6459
vn -0.0786 0.9753 -0.2064
vn -0.0797 0.9753 -0.2060
vn -0.0793 0.9752 -0.2069
vn 0.1991 0.9537 0.2253
vn 0.2253 0.9743 -0.0000
vn 0.0783 -0.9757 0.2046
vn 0.0783 -0.9750 0.2079
vn 0.2248 0.9744 0.0019
vn 0.0772 -0.9752 0.2074
vn 0.0783 -0.9756 0.2050
vn 0.2265 0.9740 0.0041
vn 0.2239 0.9746 0.0027
vn 0.0788 -0.9753 0.2062
vn 0.2244 0.9745 0.0023
vn 0.0803 -0.9753 0.2059
vn 0.2244 0.9745 0.0024
vn 0.2245 0.9745 0.0021
vn 0.2243 0.9745 0.0021
vn 0.2032 -0.1776 -0.9629
vn -0.7802 0.2875 0.5556
vn -0.7807 0.2865 0.5553
vn -0.8252 0.4905 -0.2799
vn -0.8253 0.4906 -0.2798
vn -0.8253 0.4909 -0.2790
vn 0.1940 -0.5124 -0.8366
vn 0.4767 -0.8446 0.2435
vn 0.0998 0.9937 0.0509
vn -0.8172 -0.0485 0.5743
vn -0.8175 -0.0484 0.5739
vn -0.8179 -0.0483 0.5733
vn -0.8160 -0.0488 0.5760
vn 0.1903 -0.7379 0.6475
vn 0.2879 0.5901 0.7543
vn 0.2880 0.5901 0.7543
vn -0.8172 -0.0484 0.5742
vn -0.8182 -0.0485 0.5729
vn -0.8157 -0.0485 0.5764
vn 0.6036 -0.4748 -0.6405
vn 0.2045 -0.1786 -0.9624
vn 0.2739 0.1569 0.9489
vn 0.6084 -0.4673 0.6415
vn -0.1685 -0.9809 0.0974
vn -0.6674 0.6394 0.3817
vn -0.8173 -0.0484 0.5742
vn -0.8172 -0.0484 0.5743
vn -0.8174 -0.0484 0.5741
vn -0.8174 -0.0484 0.5740
vn -0.0407 0.4503 -0.8920
vn -0.2108 0.1468 0.9664
vn -0.8169 -0.0484 -0.5748
vn -0.8173 -0.0484 -0.5742
vn 0.0998 0.9937 0.0510
vn -0.6223 0.4386 -0.6484
vn 0.4769 -0.8447 0.2430
vn 0.1904 -0.7382 0.6472
vn 0.2034 -0.1778 -0.9628
vn -0.2297 0.1450 -0.9624
vn -0.8174 -0.0484 -0.5740
vn 0.6039 -0.4749 -0.6402
vn -0.1605 0.9753 0.1520
vn -0.1601 0.9753 0.1523
vn -0.1604 0.9753 0.1520
vn -0.8173 -0.0484 -0.5741
vn -0.8175 -0.0484 -0.5738
vn -0.8175 -0.0485 -0.5739
vn -0.8175 -0.0484 -0.5739
vn 0.3187 -0.0494 -0.9466
vn -0.8185 -0.0479 -0.5725
vn -0.8171 -0.0486 -0.5744
vn 0.3187 -0.0493 -0.9466
vn 0.3190 -0.0494 -0.9465
vn 0.6355 -0.7384 -0.2257
vn 0.0250 -0.0548 -0.9982
vn 0.3186 -0.0494 -0.9466
vn -0.5539 0.1469 -0.8195
vn 0.4775 -0.8448 0.2416
vn -0.2885 -0.0856 -0.9536
vn 0.6356 -0.7382 -0.2260
vn -0.3186 -0.0490 -0.9466
vn 0.1002 0.9937 0.0502
vn -0.9238 -0.3461 0.1637
vn 0.1000 0.9937 0.0508
vn -0.6299 -0.7382 -0.2412
vn -0.8401 -0.1719 -0.5146
vn -0.6299 -0.7383 -0.2411
vn 0.1000 0.9937 0.0507
vn -0.3183 -0.0494 -0.9467
vn 0.3182 -0.0494 0.9467
vn -0.3185 -0.0494 -0.9466
vn -0.3186 -0.0493 -0.9466
vn -0.3191 -0.0502 -0.9464
vn -0.3186 -0.0494 -0.9466
vn 0.3193 -0.0493 0.9464
vn 0.3183 -0.0494 0.9467
vn -0.0000 -1.0000 -0.0000
vn 0.3182 -0.0494 0.9468
vn 0.3153 -0.0506 0.9476
vn 0.2150 0.8253 0.5222
vn 0.7920 -0.6105 0.0081
vn 0.3182 -0.0494 -0.9467
vn 0.6085 -0.4674 0.6413
vn 0.8474 0.1420 0.5116
vn -0.6652 -0.7322 0.1466
vn -0.1606 0.9752 0.1520
vn -0.1606 0.9753 0.1520
vn 0.3185 -0.0494 0.9466
vn 0.3172 -0.0495 0.9471
vn 0.3186 -0.0493 0.9466
vn 0.3226 -0.0487 0.9453
vn 0.3198 -0.0498 0.9462
vn 0.3156 -0.0485 0.9477
vn 0.0901 -0.9940 0.0620
vn 0.5563 -0.1756 0.8122
vn 0.3184 -0.0494 0.9467
vn 0.3224 -0.0495 0.9453
vn 0.3753 -0.4600 -0.8047
vn 0.3137 -0.0481 0.9483
vn 0.3733 -0.4609 -0.8051
vn -0.8250 -0.4809 -0.2969
vn -0.8247 -0.4811 -0.2974
vn 0.3186 -0.0494 0.9466
vn 0.3192 -0.0495 0.9464
vn -0.2808 -0.6168 -0.7354
vn 0.3168 -0.0492 0.9472
vn -0.2810 -0.6168 -0.7352
vn 0.7920 -0.6105 0.0088
vn 0.7922 -0.6102 0.0084
vn 0.7920 -0.6105 0.0095
vn -0.7969 0.1421 0.5872
vn -0.8252 -0.4808 -0.2965
vn -0.9630 -0.1759 0.2040
vn 0.9695 0.1451 -0.1977
vn -0.6666 0.7085 0.2315
vn 0.0996 0.9937 0.0511
vn 0.0905 -0.9940 0.0618
vn -0.8119 0.5838 -0.0083
vn 0.0901 -0.9940 0.0621
vn 0.0897 -0.9940 0.0619
vn -0.9637 -0.1742 0.2022
vn 0.0907 -0.9940 0.0616
vn 0.0898 -0.9940 0.0629
vn -0.5539 -0.6034 -0.5737
vn 0.0896 -0.9941 0.0617
vn 0.0895 -0.9941 0.0617
vn 0.0895 -0.9941 0.0618
vn -0.8247 -0.4813 -0.2971
vn -0.8241 -0.4829 -0.2961
vn -0.0787 0.9751 -0.2074
vn -0.0783 0.9752 -0.2069
vn 0.0897 -0.9940 0.0629
vn -0.6145 0.2855 0.7354
vn -0.6118 0.2837 0.7384
vn 0.7205 0.2790 -0.6349
vn 0.7204 0.2789 -0.6349
vn -0.8251 -0.4800 -0.2980
vn -0.8271 -0.4763 -0.2985
vn -0.0781 0.9753 -0.2068
vn 0.2203 0.8250 0.5205
vn 0.6962 0.7025 -0.1479
vn 0.6964 0.7021 -0.1486
vn -0.6667 0.7084 0.2319
vn 0.4568 0.8318 0.3154
vn -0.6667 0.7085 0.2314
vn 0.4571 0.8318 0.3150
vn 0.0828 0.7127 0.6966
vn -0.6668 0.7080 0.2326
vn 0.0426 -0.9938 0.1030
vn -0.6227 0.4388 -0.6478
vn -0.6205 0.4381 -0.6504
vn -0.6426 0.4375 -0.6290
vn -0.4334 -0.8506 -0.2977
vn -0.4331 -0.8505 -0.2985
vn -0.0748 -0.7426 -0.6656
vn -0.0742 -0.7421 -0.6662
vn -0.6223 0.4383 -0.6485
vn -0.6225 0.4389 -0.6479
vn -0.6221 0.4385 -0.6486
vn 0.0423 -0.9937 0.1040
vn -0.6229 0.4381 -0.6481
vn 0.1908 -0.7383 0.6470
vn -0.2339 0.1480 -0.9609
vn -0.0900 0.9940 -0.0623
vn -0.2308 0.1458 -0.9620
vn -0.0901 0.9940 -0.0620
vn -0.0900 0.9940 -0.0622
vn -0.0901 0.9940 -0.0621
vn 0.1909 -0.7383 0.6469
vn 0.1907 -0.7378 0.6475
vn 0.1863 -0.7359 0.6510
vn 0.7691 -0.3459 -0.5375
vn -0.6298 -0.7384 -0.2411
vn 0.0438 -0.9937 0.1034
vn 0.0428 -0.9937 0.1036
vn -0.2041 -0.8448 -0.4946
vn 0.0425 -0.9938 0.1028
vn 0.2747 -0.7384 -0.6159
vn 0.6046 -0.4754 -0.6391
vn 0.7694 -0.3455 -0.5372
vn 0.7920 -0.6105 0.0090
vn 0.6454 -0.6677 -0.3710
vn 0.9989 -0.0479 -0.0000
vn 0.9980 -0.0603 0.0205
vn 0.6304 -0.1955 0.7512
vn 0.9988 -0.0497 -0.0044
vn -0.0008 -1.0000 -0.0000
vn 0.9989 -0.0470 -0.0020
vn 0.9989 -0.0479 0.0002
vn -0.1690 -0.9808 0.0969
vn 0.9985 -0.0490 0.0250
vn 0.9989 -0.0479 -0.0002
vn -0.1695 -0.9807 0.0974
vn -0.1692 -0.9809 0.0962
vn -0.1696 -0.9807 0.0971
vn -0.1703 -0.9807 0.0956
vn -0.1678 -0.9811 0.0961
vn -0.1691 -0.9808 0.0969
vn 0.9989 -0.0479 0.0004
vn -0.1686 -0.9807 0.0987
vn -0.1677 -0.9811 0.0963
vn 0.2721 0.1584 0.9491
vn -0.2050 0.4808 0.8526
vn -0.2037 0.4800 0.8533
vn -0.0007 -1.0000 -0.0000
vn -0.6671 0.6393 0.3824
vn -0.6670 0.6393 0.3827
vn -0.8257 0.4927 -0.2747
vn -0.2765 -0.1951 -0.9410
vn -0.2759 -0.1956 -0.9411
vn 0.6575 0.7084 0.2568
vn 0.2147 0.8255 0.5220
vn 0.2168 0.8255 0.5211
vn -0.7986 0.1402 0.5853
vn -0.7968 0.1422 0.5873
vn 0.9006 0.4335 0.0303
vn -0.2083 0.1449 0.9673
vn -0.6192 0.4467 0.6458
vn 0.9010 0.4327 0.0317
vn 0.9010 0.4326 0.0318
vn 0.8405 0.1280 0.5265
vn 0.5562 -0.1757 0.8123
vn 0.0419 -0.4809 0.8758
vn -0.9634 -0.1763 0.2018
vn -0.9633 -0.1759 0.2027
vn -0.1608 0.9753 0.1517
vn -0.8235 -0.4821 -0.2992
vn 0.6082 -0.4671 0.6417
vn -0.0753 -0.7428 -0.6653
vn 0.3882 -0.3402 -0.8565
vn 0.3888 -0.3410 -0.8559
vn 0.2222 -0.1756 0.9591
vn 0.3886 -0.3411 -0.8559
vn 0.3886 -0.3412 -0.8559
vn 0.2235 -0.1766 0.9586
vn -0.0898 0.9940 -0.0617
vn 0.2226 -0.1759 0.9589
vn -0.0900 0.9940 -0.0621
vn 0.2230 -0.1762 0.9587
vn 0.2233 -0.1764 0.9587
vn -0.0904 0.9939 -0.0624
vn 0.6458 -0.6677 -0.3702
vn 0.8052 -0.5229 0.2797
vn 0.8052 -0.5231 0.2792
vn 0.0431 -0.9937 0.1035
vn 0.0421 -0.9937 0.1042
vn 0.0404 -0.4812 0.8757
vn 0.0425 -0.9938 0.1029
vn 0.0437 -0.9937 0.1035
vn -0.5724 -0.6165 0.5406
vn 0.9447 0.2868 -0.1591
vn 0.9444 0.2883 -0.1579
vn 0.7686 -0.3465 -0.5377
vn 0.6574 0.7085 0.2568
vn 0.8174 -0.0484 -0.5740
vn -0.2830 0.7086 0.6464
vn -0.2827 0.7087 0.6464
vn -0.2713 0.7130 0.6465
vn -0.7813 0.2856 0.5550
vn -0.3899 0.2818 0.8767
vn 0.0838 0.7132 0.6959
vn 0.9695 0.1455 -0.1972
vn 0.9695 0.1452 -0.1975
vn 0.9695 0.1456 -0.1971
vn 0.9704 0.1481 -0.1905
vn 0.8394 0.4503 0.3044
vn 0.2883 0.5901 0.7541
vn 0.8368 0.4523 0.3085
vn -0.3738 0.4328 0.8203
vn -0.7974 0.1415 0.5866
vn -0.3899 0.2820 0.8766
vn -0.3896 0.2824 0.8766
vn -0.2807 -0.6168 -0.7354
vn 0.3735 -0.4609 -0.8050
vn -0.7015 -0.3381 0.6274
vn -0.7071 -0.3309 0.6249
vn 0.2758 0.5898 0.7590
vn -0.7015 -0.3379 0.6275
vn -0.6650 -0.7325 0.1459
vn -0.6649 -0.7325 0.1459
vn -0.6660 -0.7310 0.1484
vn -0.6547 -0.7464 0.1193
vn 0.7957 -0.1732 -0.5804
vn 0.2720 0.1585 0.9492
vn -0.6301 -0.7382 -0.2409
vn 0.2733 0.1574 0.9490
vn -0.2045 -0.8447 -0.4946
vn -0.2049 0.4807 0.8526
vn -0.2040 0.4802 0.8531
vn -0.2027 -0.8446 -0.4955
vn -0.2046 -0.8447 -0.4946
vn 0.2746 -0.7385 -0.6158
vn 0.2745 -0.7385 -0.6158
vn 0.2744 -0.7385 -0.6158
vn -0.6414 0.1604 -0.7502
vn -0.6428 0.1621 -0.7487
vn -0.6417 0.1608 -0.7499
vn 0.8182 -0.0484 0.5729
vn -0.2771 -0.1946 -0.9409
vn 0.8173 -0.0484 0.5741
vn 0.8175 -0.0484 0.5739
vn 0.1943 -0.5127 -0.8363
vn 0.8169 -0.0498 0.5746
vn 0.7955 -0.0468 0.6041
vn 0.8174 -0.0484 0.5741
vn 0.6455 -0.6677 -0.3709
vn 0.6457 -0.6677 -0.3704
vn 0.8052 -0.5224 0.2807
vn 0.6304 -0.1955 0.7513
vn 0.8173 -0.0484 0.5742
vn 0.8176 -0.0483 0.5738
vn 0.6315 -0.1969 0.7499
vn 0.6316 -0.1970 0.7499
vn 0.8174 -0.0482 0.5740
vn 0.2880 0.5901 0.7542
vn -0.3740 0.4327 0.8203
vn 0.9448 0.2862 -0.1596
vn 0.6568 0.7088 0.2573
vn -0.3739 0.4327 0.8203
vn 0.6573 0.7085 0.2569
vn -0.4053 0.4178 0.8131
vn -0.8573 0.0655 0.5106
vn 0.9693 0.1442 -0.1990
vn 0.7969 -0.1719 -0.5791
vn -0.9633 -0.1757 0.2030
vn -0.9633 -0.1756 0.2032
vn -0.8244 -0.4813 -0.2978
vn -0.2811 -0.6168 -0.7352
vn -0.0899 0.9940 -0.0621
vn -0.3728 0.4340 0.8202
vn 0.8175 -0.0484 0.5738
vn -0.9233 -0.3486 0.1614
vn -0.9238 -0.3462 0.1636
vn -0.3185 -0.0494 0.9466
vn 0.8173 -0.0483 0.5742
vn -0.3212 -0.0491 0.9457
vn -0.3184 -0.0494 0.9467
vn -0.3561 -0.0471 0.9333
vn 0.8174 -0.0484 0.5740
vn 0.8175 -0.0485 0.5739
vn 0.8189 -0.0488 0.5719
vn 0.8176 -0.0484 0.5738
vn 0.8176 -0.0484 0.5737
vn 0.8149 -0.0489 0.5775
vn 0.2157 0.8255 0.5215
vn -0.3180 -0.0494 0.9468
vn -0.3183 -0.0494 0.9467
vn 0.1606 -0.9752 -0.1521
vn 0.1606 -0.9751 -0.1531
vn 0.1609 -0.9751 -0.1528
vn 0.1606 -0.9753 -0.1518
vn 0.1595 -0.9756 -0.1508
vn 0.1621 -0.9750 -0.1521
vn 0.1616 -0.9753 -0.1508
vn 0.1602 -0.9754 -0.1516
vn 0.1592 -0.9753 -0.1531
vn 0.1592 -0.9757 -0.1508
vn -0.0356 0.4522 -0.8912
vn -0.0116 0.4603 -0.8877
vn 0.5864 0.5901 -0.5550
vn 0.5853 0.5901 -0.5561
vn 0.9011 0.4324 0.0323
vn 0.8474 0.1420 0.5117
vn 0.5502 -0.1792 0.8156
vn 0.5559 -0.1759 0.8124
vn 0.0407 -0.4811 0.8757
vn -0.5717 -0.6168 0.5411
vn -0.8869 -0.4603 -0.0379
vn -0.8868 -0.4607 -0.0371
vn -0.8867 -0.4609 -0.0367
vn -0.8401 -0.1720 -0.5144
vn -0.8399 -0.1717 -0.5149
vn -0.8407 -0.1731 -0.5131
vn -0.5028 0.8255 -0.2564
vn -0.2039 0.7080 -0.6761
vn -0.2044 0.7084 -0.6756
vn 0.2328 0.2867 -0.9293
vn 0.5967 -0.3474 -0.7234
vn 0.5962 -0.3462 -0.7243
vn 0.6362 -0.7366 -0.2295
vn 0.4771 -0.8447 0.2427
vn 0.5998 -0.3310 -0.7285
vn 0.5962 -0.3462 -0.7244
vn 0.6382 -0.7317 -0.2393
vn 0.6356 -0.7383 -0.2258
vn 0.6357 -0.7379 -0.2267
vn 0.0996 0.9937 0.0508
vn 0.0997 0.9937 0.0508
vn 0.0878 0.9944 0.0589
vn 0.1004 0.9936 0.0511
vn 0.1000 0.9937 0.0509
vn -0.5541 0.1434 -0.8200
vn -0.5523 0.1462 -0.8207
vn -0.8399 -0.1718 -0.5148
vn -0.5540 0.1449 -0.8198
vn -0.5535 0.1452 -0.8201
vn -0.5533 0.1454 -0.8202
vn 0.5969 -0.3455 -0.7241
vn 0.1002 0.9937 0.0508
vn -0.0349 0.4525 -0.8911
vn -0.0348 0.4524 -0.8911
vn -0.0334 0.4529 -0.8909
vn -0.0353 0.4523 -0.8912
vn -0.3191 -0.0493 0.9464
vn 0.8152 -0.0483 0.5771
vn 0.8213 -0.0486 0.5684
vn 0.8151 -0.0485 0.5773
vn 0.8165 -0.0485 -0.5753
vn 0.8175 -0.0484 -0.5740
vn 0.8175 -0.0484 -0.5739
vn 0.9989 -0.0479 0.0001
vn 0.3179 -0.0494 -0.9468
vn -0.3185 -0.0494 -0.9467
vn 0.3173 -0.0494 0.9470
vn 0.3345 -0.0491 0.9411
vn 0.3168 -0.0493 0.9472
vn 0.3275 -0.0491 0.9436
vn -0.3187 -0.0494 -0.9466
vn 0.3184 -0.0494 -0.9467
vn 0.3183 -0.0494 -0.9467
vn 0.0253 -0.0528 -0.9983
vn -0.3192 -0.0494 -0.9464
vn -0.8186 -0.0485 0.5723
vn -0.8156 -0.0484 0.5766
vn -0.8167 -0.0484 0.5750
vn -0.8175 -0.0484 0.5740
vn -0.1695 -0.9704 -0.1722
vt 0.575219 0.928601
vt 0.573360 0.928661
vt 0.574159 0.925095
vt 0.388003 0.253714
vt 0.177078 0.416451
vt 0.177069 0.416397
vt 0.929423 0.789410
vt 0.929422 0.789410
vt 0.929406 0.786625
vt 0.576668 0.927199
vt 0.623027 0.710008
vt 0.623656 0.712171
vt 0.621547 0.710888
vt 0.621700 0.705450
vt 0.624902 0.705998
vt 0.623656 0.704594
vt 0.626919 0.702836
vt 0.998295 0.000238
vt 1.000000 0.000000
vt 0.999826 0.302305
vt 0.995907 0.296328
vt 0.771904 0.362341
vt 0.773568 0.361796
vt 0.801598 0.442879
vt 0.777220 0.360604
vt 0.777076 0.360651
vt 0.817506 0.467769
vt 0.817577 0.467879
vt 0.810360 0.465936
vt 0.843277 0.522132
vt 0.840301 0.523921
vt 0.821525 0.468943
vt 0.811110 0.451784
vt 0.813253 0.461114
vt 0.833867 0.527790
vt 0.837981 0.525316
vt 0.813200 0.460885
vt 0.770563 0.361216
vt 0.811136 0.451493
vt 0.811710 0.444944
vt 0.623656 0.702513
vt 0.624903 0.700559
vt 0.628936 0.705112
vt 0.626922 0.706197
vt 0.626917 0.699474
vt 0.628933 0.699670
vt 0.630182 0.701078
vt 0.630182 0.703158
vt 0.476148 0.951373
vt 0.473659 0.706698
vt 0.477538 0.950367
vt 0.399975 0.955066
vt 0.402690 0.945685
vt 0.401036 0.955122
vt 0.163309 0.339617
vt 0.162504 0.339784
vt 0.163211 0.339526
vt 0.163212 0.339523
vt 0.163531 0.329529
vt 0.174907 0.412269
vt 0.386090 0.253659
vt 0.541484 0.957931
vt 0.541390 0.957991
vt 0.533468 0.703727
vt 0.538199 0.961175
vt 0.530778 0.700754
vt 0.532317 0.702381
vt 0.538112 0.961339
vt 0.533657 0.969551
vt 0.533641 0.969547
vt 0.513864 0.930378
vt 0.505162 0.712651
vt 0.515723 0.930292
vt 0.538951 0.959553
vt 0.774348 0.361854
vt 0.770478 0.349640
vt 0.770467 0.349468
vt 0.801707 0.000405
vt 0.529442 0.699474
vt 0.529442 0.974542
vt 0.528403 0.700906
vt 0.769613 0.348015
vt 0.571649 0.922990
vt 0.571154 0.925198
vt 0.539022 0.959508
vt 0.769541 0.347946
vt 0.635496 0.700855
vt 0.636153 0.703092
vt 0.633170 0.703093
vt 0.633946 0.699474
vt 0.632099 0.699474
vt 0.573099 0.921589
vt 0.576506 0.922825
vt 0.577163 0.924992
vt 0.392202 -0.000000
vt 0.483656 0.296057
vt 0.390262 0.000245
vt 0.574955 0.921525
vt 0.571810 0.927360
vt 0.984073 0.353111
vt 0.980560 0.000411
vt 0.984414 0.352858
vt 0.984514 0.352858
vt 0.163422 0.339936
vt 0.162997 0.339843
vt 0.163126 0.339652
vt 0.961958 0.777191
vt 0.961856 0.777113
vt 0.965381 0.390782
vt 0.165433 0.337909
vt 0.163125 0.339652
vt 0.162521 0.339752
vt 0.630661 0.700854
vt 0.630182 0.703092
vt 0.001431 0.000725
vt 0.003444 0.000378
vt 0.623656 0.699479
vt 0.623484 0.700007
vt 0.623268 0.699764
vt 0.623355 0.700405
vt 0.623095 0.700197
vt 0.623296 0.699617
vt 0.623296 0.699619
vt 0.622562 0.699992
vt 0.623433 0.699474
vt 0.635674 0.705331
vt 0.634236 0.706710
vt 0.630846 0.705327
vt 0.623334 0.700462
vt 0.632389 0.706710
vt 0.619918 0.705498
vt 0.621646 0.705263
vt 0.621960 0.704370
vt 0.978714 0.000000
vt 0.978714 0.370407
vt 0.976969 0.000551
vt 0.177053 0.416311
vt 0.924088 0.140531
vt 0.822114 0.469839
vt 0.925888 0.140210
vt 0.995052 0.295655
vt 0.573003 0.700955
vt 0.572822 0.700937
vt 0.509387 0.708061
vt 0.511069 0.712385
vt 0.508558 0.708218
vt 0.506008 0.708701
vt 0.162856 0.339831
vt 0.166272 0.361853
vt 0.158281 0.340437
vt 0.162370 0.339761
vt 0.162429 0.339751
vt 0.576897 0.701350
vt 0.599118 0.954112
vt 0.596905 0.699656
vt 0.599844 0.954010
vt 0.602346 0.953657
vt 0.163648 0.430118
vt 0.163101 0.430083
vt 0.163831 0.430336
vt 0.168083 0.435410
vt 0.168993 0.439423
vt 0.168150 0.435704
vt 0.973540 0.371652
vt 0.974993 0.001045
vt 0.973633 0.371610
vt 0.978634 0.370536
vt 0.972193 0.727440
vt 0.967179 0.388756
vt 0.968845 0.389631
vt 0.989742 0.352844
vt 0.639086 0.703129
vt 0.641394 0.705390
vt 0.639882 0.706786
vt 0.164131 0.457657
vt 0.164061 0.457652
vt 0.111062 0.160966
vt 0.167056 0.510412
vt 0.163002 0.511530
vt 0.157839 0.512953
vt 0.157677 0.456197
vt 0.158436 0.457175
vt 0.158440 0.512788
vt 0.157604 0.430588
vt 0.157347 0.340592
vt 0.158346 0.429776
vt 0.158572 0.429790
vt 0.929398 0.786618
vt 0.005263 -0.000000
vt 0.163534 0.329424
vt 0.944284 0.782135
vt 0.946480 0.779221
vt 0.944441 0.782231
vt 0.821058 0.533024
vt 0.762728 0.363442
vt 0.763526 0.363172
vt 0.821484 0.532850
vt 0.502556 0.709355
vt 0.803754 -0.000000
vt 0.576783 0.701333
vt 0.974820 0.370823
vt 0.799803 0.000609
vt 0.765979 0.362341
vt 0.650137 0.706930
vt 0.650361 0.706339
vt 0.651688 0.707211
vt 0.650035 0.707200
vt 0.648355 0.711655
vt 0.769299 0.361215
vt 0.950502 0.782181
vt 0.947705 0.784224
vt 0.950186 0.174318
vt 0.939123 0.002222
vt 0.940727 0.000000
vt 0.951148 0.174394
vt 0.947759 0.784341
vt 0.947916 0.784680
vt 0.939665 0.000052
vt 0.939432 0.000063
vt 0.517163 0.969530
vt 0.525405 0.703696
vt 0.520428 0.974280
vt 0.950186 0.174318
vt 0.963775 0.385698
vt 0.651688 0.708284
vt 0.651688 0.699474
vt 0.652867 0.699494
vt 0.935438 0.783091
vt 0.935414 0.783095
vt 0.929128 0.389990
vt 0.571154 0.699474
vt 0.571276 0.699581
vt 0.935460 0.783083
vt 0.935914 0.783000
vt 0.520680 0.974646
vt 0.935645 0.782726
vt 0.514802 0.702178
vt 0.515652 0.707870
vt 0.514260 0.702767
vt 0.176501 0.406649
vt 0.176476 0.406994
vt 0.512184 0.705022
vt 0.509637 0.707789
vt 0.589259 0.706614
vt 0.591574 0.927554
vt 0.591436 0.927540
vt 0.587416 0.927150
vt 0.817838 0.533815
vt 0.810251 0.535679
vt 0.756894 0.365103
vt 0.461998 0.472813
vt 0.472140 0.385269
vt 0.466835 0.472821
vt 0.942248 0.781840
vt 0.941294 0.775627
vt 0.942087 0.781817
vt 0.469580 0.371897
vt 0.469432 0.372244
vt 0.476690 0.301661
vt 0.477307 0.301702
vt 0.473611 0.362454
vt 0.607853 0.718527
vt 0.608557 0.718383
vt 0.608416 0.719775
vt 0.473175 0.369604
vt 0.469700 0.371821
vt 0.491100 0.934956
vt 0.491003 0.934962
vt 0.498229 0.699474
vt 0.967807 0.374173
vt 0.973542 0.001299
vt 0.939572 0.173477
vt 0.934069 0.003901
vt 0.947311 0.174090
vt 0.982572 0.000956
vt 0.989853 0.352844
vt 0.496529 0.305326
vt 0.752398 0.001265
vt 0.754678 0.001871
vt 0.475471 0.706665
vt 0.476966 0.705267
vt 0.486408 0.950256
vt 0.650932 0.701731
vt 0.649182 0.702307
vt 0.466895 0.472821
vt 0.472222 0.385276
vt 0.477002 0.385640
vt 0.470358 0.472827
vt 0.479395 0.330042
vt 0.479298 0.329726
vt 0.481210 0.330422
vt 0.481696 0.324043
vt 0.481648 0.324086
vt 0.481703 0.323954
vt 0.479299 0.329724
vt 0.475626 0.699474
vt 0.474641 0.703087
vt 0.473814 0.699507
vt 0.496372 0.288027
vt 0.495308 0.287927
vt 0.750282 0.000554
vt 0.483919 0.294876
vt 0.483614 0.296116
vt 0.479456 0.301849
vt 0.479434 0.301847
vt 0.967179 0.391399
vt 0.967099 0.780098
vt 0.478220 0.369660
vt 0.987157 0.701107
vt 0.984348 0.389107
vt 0.987296 0.701009
vt 0.992617 0.701304
vt 0.987407 0.701016
vt 0.473821 0.369308
vt 0.473659 0.369295
vt 0.987075 0.701229
vt 0.983725 0.706227
vt 0.982858 0.706571
vt 0.982858 0.389699
vt 0.963775 0.370413
vt 0.963913 0.370445
vt 0.963986 0.370538
vt 0.966969 0.374319
vt 0.386087 0.006685
vt 0.163156 0.328097
vt 0.163147 0.328010
vt 0.963216 0.389771
vt 0.955691 0.772406
vt 0.961504 0.388756
vt 0.529442 0.699474
vt 0.533360 0.969470
vt 0.529442 0.968803
vt 0.501593 0.709721
vt 0.472222 0.705346
vt -0.000000 0.000905
vt 0.156474 0.340816
vt 0.152177 0.341357
vt 0.471712 0.703138
vt 0.653359 0.699599
vt 0.653262 0.699518
vt 0.653359 0.699474
vt 0.477060 0.700822
vt 0.771898 0.358338
vt 0.771899 0.358338
vt 0.771900 0.358425
vt 0.477574 0.703034
vt 0.472320 0.700906
vt 0.771071 0.358374
vt 0.771067 0.358278
vt 0.652947 0.699474
vt 0.652989 0.699602
vt 0.652867 0.699591
vt 0.652867 0.700683
vt 0.533775 0.969547
vt 0.568377 0.699474
vt 0.566584 0.975822
vt 0.562306 0.969767
vt 0.569722 0.701379
vt 0.770838 0.358611
vt 0.771058 0.358387
vt 0.653262 0.700429
vt 0.496854 0.934638
vt 0.496822 0.934618
vt 0.500086 0.699483
vt 0.532488 0.971726
vt 0.407215 0.950310
vt 0.407355 0.699586
vt 0.408776 0.701040
vt 0.396926 0.945335
vt 0.405543 0.699474
vt 0.533577 0.969903
vt 0.404037 0.700750
vt 0.772002 0.358427
vt 0.591574 0.703227
vt 0.590852 0.705363
vt 0.588580 0.703043
vt 0.771870 0.358461
vt 0.481608 0.950328
vt 0.481701 0.950327
vt 0.476081 0.951422
vt 0.770274 0.360898
vt 0.771026 0.358676
vt 0.578794 0.705665
vt 0.581393 0.708565
vt 0.767131 0.345635
vt 0.767034 0.345544
vt 0.399045 0.955016
vt 0.764230 0.346882
vt 0.397557 0.954937
vt 0.578738 0.705512
vt 0.577231 0.701402
vt 0.976473 0.374016
vt 0.549391 0.966410
vt 0.542599 0.701031
vt 0.544144 0.702686
vt 0.589744 0.699584
vt 0.591152 0.701016
vt 0.587411 0.706500
vt 0.586857 0.927096
vt 0.586667 0.927071
vt 0.550346 0.965345
vt 0.549505 0.966313
vt 0.585581 0.702857
vt 0.586304 0.700721
vt 0.967871 0.374162
vt 0.994831 0.295700
vt 0.996515 0.000393
vt 0.494676 0.297738
vt 0.492039 0.288126
vt 0.490562 0.321484
vt 0.494661 0.297824
vt 0.496531 0.305332
vt 0.978152 0.719958
vt 0.970896 0.390664
vt 0.619917 0.722627
vt 0.614966 0.723320
vt 0.619000 0.721099
vt 0.619001 0.720997
vt 0.497717 0.305406
vt 0.491893 0.322045
vt 0.491956 0.322118
vt 0.496122 0.326945
vt 0.638071 0.706786
vt 0.496131 0.326978
vt 0.496988 0.330213
vt 0.636646 0.705390
vt 0.636153 0.703132
vt 0.608495 0.704082
vt 0.612551 0.700297
vt 0.609580 0.704324
vt 0.618428 0.699474
vt 0.618421 0.699484
vt 0.642016 0.703130
vt 0.636781 0.700871
vt 0.638293 0.699474
vt 0.641529 0.700871
vt 0.640104 0.699474
vt 0.616935 0.707098
vt 0.494298 0.476300
vt 0.494451 0.476331
vt 0.969746 0.729740
vt 0.967179 0.733208
vt 0.483800 0.474164
vt 0.490144 0.330920
vt 0.490164 0.475459
vt 0.112781 0.160795
vt 0.168549 0.452453
vt 0.619917 0.713967
vt 0.619115 0.714700
vt 0.618952 0.713493
vt 0.168473 0.452543
vt 0.164556 0.457157
vt 0.613693 0.714056
vt 0.618921 0.713397
vt 0.614029 0.708769
vt 0.616910 0.707224
vt 0.609653 0.704395
vt 0.109278 0.161042
vt 0.158497 0.457253
vt 0.614034 0.708687
vt 0.822160 0.469910
vt 0.613616 0.714122
vt 0.919930 0.141161
vt 0.921812 0.140892
vt 0.619053 0.714756
vt 0.500914 0.937196
vt 0.496769 0.934583
vt 0.608684 0.718357
vt 0.497959 0.306392
vt 0.497989 0.306514
vt 0.500537 0.306943
vt 0.495242 0.287915
vt 0.749133 -0.000000
vt 0.162384 0.320625
vt 0.384101 0.006368
vt 0.162398 0.320765
vt 0.162178 0.320300
vt 0.648355 0.699474
vt 0.992718 0.701309
vt 0.471712 0.954642
vt 0.571154 0.975499
vt 0.571128 0.975523
vt 0.571154 0.702879
vt 0.978714 -0.000000
vt 0.568595 0.977924
vt 0.983980 0.353230
vt 0.401290 0.955320
vt 0.979165 0.359440
vt 0.978714 0.360722
vt 0.403600 0.957126
vt 0.979223 0.359366
vt 0.408776 0.957442
vt 0.407895 0.960485
vt 0.972559 0.391454
vt 0.982858 0.716103
vt 0.982664 0.716262
vt 0.587894 0.699474
vt 0.491203 0.287179
vt 0.586003 0.705068
vt 0.596905 0.975755
vt 0.596824 0.975745
vt 0.596905 0.699696
vt 0.541484 0.699474
vt 0.544874 0.970245
vt 0.544924 0.970222
vt 0.501593 0.937624
vt 0.501560 0.937603
vt 0.501593 0.700816
vt 0.935475 0.172488
vt 0.926414 0.170302
vt 0.926817 0.003529
vt 0.490979 0.934963
vt 0.486455 0.935218
vt 0.496727 0.700801
vt 0.390262 0.253897
vt 0.558238 0.977063
vt 0.557934 0.976956
vt 0.562306 0.972553
vt 0.392128 0.949392
vt 0.955608 0.772494
vt 0.951969 0.776327
vt 0.951157 0.777182
vt 0.950502 0.778087
vt 0.955699 0.772414
vt 0.598746 0.699474
vt 0.602371 0.953653
vt 0.390262 0.007536
vt 0.169751 0.339110
vt 0.388440 0.007131
vt 0.554844 0.700996
vt 0.556215 0.699474
vt 0.967179 0.780143
vt 0.553426 0.702849
vt 0.557932 0.976954
vt 0.553426 0.973602
vt 0.484552 0.950284
vt 0.486400 0.950256
vt 0.486455 0.950286
vt 0.392082 0.954647
vt 0.390262 0.955836
vt 0.394234 0.954761
vt 0.972069 0.727557
vt 0.581393 0.926457
vt 0.581481 0.926409
vt 0.553291 0.961953
vt 0.553426 0.961797
vt 0.545527 0.703801
vt 0.477063 0.385665
vt 0.470403 0.472831
vt 0.482452 0.365595
vt 0.484312 0.293610
vt 0.483554 0.322952
vt 1.000000 0.302570
vt 0.481704 0.324039
vt 0.989853 0.296726
vt 0.990390 0.296615
vt 0.483357 0.330542
vt 0.977945 0.720183
vt 0.482244 0.373612
vt 0.478491 0.369871
vt 0.478319 0.369699
vt 0.975326 0.723030
vt 0.596905 0.956264
vt 0.169741 0.339107
vt 0.166129 0.338103
vt 0.541484 0.971913
vt 0.986265 0.388756
vt 0.485101 0.380444
vt 0.483359 0.374823
vt 0.174938 0.412166
vt 0.486672 0.330727
vt 0.488157 0.330809
vt 0.172142 0.415673
vt 0.486117 0.287802
vt 0.486077 0.287931
vt 0.172130 0.336858
vt 0.486408 0.321275
vt 0.486500 0.321280
vt 0.489085 0.330861
vt 0.483315 0.374680
vt 0.171441 0.509203
vt 0.169296 0.448059
vt 0.175129 0.508453
vt 0.645186 0.702838
vt 0.643031 0.700759
vt 0.644873 0.699474
vt 0.648162 0.700756
vt 0.648355 0.702836
vt 0.646829 0.699474
vt 0.170172 0.444722
vt 0.647335 0.704917
vt 0.645498 0.706202
vt 0.643537 0.706202
vt 0.642209 0.704920
vt 0.642016 0.702840
vt 0.929397 0.786499
vt 0.929323 0.786551
vt 0.925888 0.388756
vt 0.929406 0.786493
vt 0.927067 0.389148
vt 0.602372 0.954591
vt 0.602371 0.699731
vt 0.607853 0.953824
vt 0.604199 0.699474
vt 0.756246 0.002137
vt 0.595076 0.699474
vt 0.591574 0.975108
vt 0.945731 0.779141
vt 0.945667 0.779092
vt 0.932705 0.391683
vt 0.931279 0.390961
vt 0.941553 0.775886
vt 0.941450 0.775810
vt 0.940876 0.775386
vt 0.517163 0.928872
vt 0.526127 0.979101
vt 0.526859 0.702522
vt 0.521389 0.975531
vt 0.521345 0.975477
vt 0.525145 0.979986
vt 0.525144 0.979971
vt 0.520693 0.974663
vt 0.514920 0.700931
vt 0.517163 0.700830
vt 0.516662 0.699615
vt 0.516670 0.699600
vt 0.514946 0.700656
vt 0.934252 0.783284
vt 0.934175 0.783297
vt 0.930908 0.787830
vt 0.525158 0.980112
vt 0.516741 0.699474
vt 0.925888 0.788380
vt 0.929227 0.789500
vt 0.170128 0.444893
vt 0.175996 0.508277
vt 0.176042 0.508267
vt 0.179268 0.507611
vt 0.482765 0.384721
vt 0.480233 0.473809
vt 0.480205 0.473806
vt 0.482725 0.384728
vt 0.485067 0.380506
vt 0.481772 0.473962
vt 0.481794 0.473964
vt 0.481954 0.384859
vt 0.479656 0.473752
vt 0.476184 0.473406
vt 0.477100 0.385681
vt 0.470430 0.472834
vt 0.926932 0.003658
vt 0.935537 0.172503
vt 0.929877 0.003758
vt 0.937206 0.172906
vt 0.491715 0.475774
vt 0.492702 0.330656
vt 0.925888 0.002484
vt 0.925888 0.170175
vt 0.490396 0.330894
vt 0.490317 0.475490
vt 0.934605 0.003738
vt 0.947617 0.174114
vt 0.762429 0.363527
vt 0.820893 0.533064
vt 0.819210 0.533478
vt 0.759379 0.364395
vt 0.468467 0.381622
vt 0.468483 0.381707
vt 0.459108 0.472809
vt 0.459091 0.472809
vt 0.182667 0.506921
vt 0.468493 0.381762
vt 0.459119 0.472809
vt 0.472121 0.385252
vt 0.461983 0.472813
vt 0.934851 0.003664
vt 0.947757 0.174125
vt 0.938897 0.002438
vt 0.950054 0.174307
vt 0.939123 0.002223
vt 0.756246 0.365287
vt 0.809892 0.535767
vt 0.830189 0.529293
vt 0.162946 0.511545
vt 0.158488 0.512774
vt 0.167414 0.510313
vt 0.170670 0.509415
vt 0.170733 0.509398
s 0
usemtl color_8273816.002
f 2/1/1 6/2/1 83/3/1
f 230/4/2 16/5/2 17/6/2
f 18/7/3 19/8/3 15/9/3
f 2/1/4 83/3/4 1/10/4
f 20/11/5 22/12/5 23/13/5
f 24/14/6 20/11/6 23/13/6
f 27/15/7 33/16/7 54/17/7
f 245/18/8 233/19/8 37/20/8
f 245/18/9 37/20/9 38/21/9
f 22/22/10 20/23/10 44/24/10
f 26/25/10 44/24/10 24/26/10
f 31/27/11 29/28/11 42/29/11
f 306/30/12 307/31/12 28/32/12
f 44/24/12 35/33/12 42/29/12
f 42/29/13 30/34/13 31/27/13
f 309/35/12 42/29/12 29/28/12 308/36/12
f 34/37/12 42/29/12 35/33/12
f 30/34/14 42/29/14 34/37/14
f 20/23/15 24/26/15 44/24/15
f 39/38/12 22/22/12 44/24/12
f 35/33/12 44/24/12 37/39/12
f 26/25/12 38/40/12 44/24/12
f 37/39/12 44/24/12 38/40/12
f 36/41/16 54/17/16 33/16/16
f 36/41/17 40/42/17 54/17/17
f 54/17/18 25/43/18 21/44/18
f 27/15/19 54/17/19 21/44/19
f 41/45/20 43/46/20 54/17/20
f 54/17/21 43/46/21 45/47/21
f 45/47/22 49/48/22 54/17/22
f 40/42/23 41/45/23 54/17/23
f 56/49/24 208/50/24 57/51/24
f 49/48/25 25/43/25 54/17/25
f 295/52/26 69/53/26 65/54/26
f 63/55/27 67/56/27 62/57/27
f 62/57/28 67/56/28 66/58/28
f 261/59/29 66/58/29 67/56/29
f 285/60/30 231/61/30 230/4/30
f 234/62/31 235/63/31 82/64/31
f 72/65/32 1/66/32 71/67/32
f 1/66/33 72/65/33 73/68/33
f 218/69/34 226/70/34 1/66/34
f 2/71/35 209/72/35 6/73/35
f 72/65/36 71/67/36 74/74/36
f 23/75/37 73/76/37 72/77/37
f 72/77/38 36/78/38 23/75/38
f 75/79/39 302/80/39 76/81/39
f 74/82/40 36/78/40 72/77/40
f 77/83/41 83/3/41 76/84/41
f 235/63/42 80/85/42 71/67/42
f 74/74/43 71/67/43 80/85/43
f 71/67/44 82/64/44 235/63/44
f 36/78/45 74/82/45 80/86/45
f 48/87/46 78/88/46 94/89/46
f 46/90/47 48/87/47 94/89/47
f 94/89/48 7/91/48 46/90/48
f 77/83/4 79/92/4 83/3/4
f 83/3/49 82/93/49 71/94/49
f 8/95/50 174/96/50 7/97/50
f 81/98/51 83/3/51 79/92/51
f 81/98/52 82/93/52 83/3/52
f 71/94/49 1/10/49 83/3/49
f 6/2/53 75/99/53 83/3/53
f 76/84/54 83/3/54 75/99/54
f 86/100/55 49/101/55 85/102/55
f 85/102/56 49/101/56 87/103/56
f 93/104/57 91/105/57 92/106/57
f 198/107/58 200/108/58 32/109/58
f 93/104/59 92/106/59 63/55/59
f 63/55/60 60/110/60 93/104/60
f 95/111/61 92/106/61 91/105/61
f 91/105/62 96/112/62 95/111/62
f 8/113/63 94/89/63 3/114/63
f 27/115/64 21/116/64 67/56/64
f 93/117/65 97/118/65 91/119/65
f 97/118/66 98/120/66 96/121/66
f 97/118/67 96/121/67 91/119/67
f 92/122/68 95/123/68 67/124/68
f 63/125/69 92/122/69 67/124/69
f 78/88/70 84/126/70 94/89/70
f 8/113/71 7/91/71 94/89/71
f 96/121/72 67/124/72 95/123/72
f 84/126/73 88/127/73 94/89/73
f 32/128/74 3/114/74 94/89/74
f 67/124/75 96/121/75 99/129/75
f 98/120/76 99/129/76 96/121/76
f 89/130/77 94/89/77 88/127/77
f 24/14/78 23/13/78 68/131/78
f 89/130/79 32/128/79 94/89/79
f 26/132/80 68/131/80 100/133/80
f 24/14/80 68/131/80 26/132/80
f 68/131/81 67/124/81 100/133/81
f 99/129/82 100/133/82 67/124/82
f 40/134/83 4/135/83 41/136/83
f 230/4/84 17/6/84 106/137/84
f 106/137/85 285/60/85 230/4/85
f 130/138/86 110/139/86 28/32/86
f 130/138/87 28/32/87 29/28/87
f 130/138/88 129/140/88 110/139/88
f 38/21/89 112/141/89 245/18/89
f 116/142/90 81/98/90 115/143/90
f 123/144/91 111/145/91 121/146/91
f 209/72/91 134/147/91 111/145/91
f 97/148/92 93/104/92 124/149/92
f 100/150/93 99/151/93 124/149/93
f 60/110/93 124/149/93 93/104/93
f 97/148/94 124/149/94 98/152/94
f 99/151/95 98/152/95 124/149/95
f 82/93/96 81/98/96 137/153/96
f 109/154/97 46/155/97 125/156/97
f 180/157/98 125/156/98 46/155/98
f 114/158/99 117/159/99 124/149/99
f 100/150/93 124/149/93 117/159/93
f 118/160/93 124/149/93 119/161/93
f 114/158/100 124/149/100 118/160/100
f 122/162/93 120/163/93 124/149/93
f 119/161/101 124/149/101 120/163/101
f 169/164/102 43/165/102 167/166/102
f 5/167/103 41/136/103 4/135/103
f 280/168/104 126/169/104 127/170/104
f 206/171/105 87/103/105 49/101/105
f 254/172/106 126/173/106 128/174/106
f 104/175/107 107/176/107 128/177/107
f 316/178/108 317/179/108 104/175/108
f 306/180/109 28/181/109 110/182/109 318/183/109
f 38/184/110 26/185/110 112/186/110
f 112/186/93 26/185/93 113/187/93
f 100/150/111 117/159/111 26/185/111
f 113/187/108 26/185/108 117/159/108
f 19/8/112 10/188/112 15/9/112
f 25/189/113 263/190/113 21/116/113
f 115/191/114 133/192/114 116/193/114
f 321/194/115 123/195/115 121/196/115 319/197/115
f 121/146/91 111/145/91 134/147/91
f 134/147/116 209/72/116 135/198/116
f 36/78/117 33/199/117 23/75/117
f 136/200/118 81/98/118 116/142/118
f 137/153/119 81/98/119 136/200/119
f 5/167/120 139/201/120 41/136/120
f 80/86/121 40/202/121 36/78/121
f 121/196/122 134/203/122 44/24/122
f 41/136/123 167/166/123 43/165/123
f 142/204/124 143/205/124 132/206/124
f 44/24/122 42/29/122 121/196/122
f 142/204/125 132/206/125 145/207/125
f 144/208/126 145/207/126 132/206/126
f 135/209/127 39/38/127 44/24/127
f 134/203/128 135/209/128 44/24/128
f 139/210/129 136/211/129 133/192/129
f 133/192/130 136/211/130 116/193/130
f 323/212/131 18/213/131 148/214/131 322/215/131
f 136/211/132 139/210/132 137/216/132
f 138/217/133 137/216/133 139/210/133
f 148/214/134 18/213/134 147/218/134
f 149/219/135 147/218/135 18/213/135
f 159/220/136 79/221/136 152/222/136
f 324/223/137 323/212/137 146/224/137
f 141/225/138 140/226/138 153/227/138
f 151/228/139 150/229/139 257/230/139
f 79/92/140 159/231/140 160/232/140
f 151/228/141 155/233/141 152/234/141
f 151/235/142 152/222/142 79/221/142
f 155/233/143 141/236/143 152/234/143
f 148/237/144 302/238/144 154/239/144
f 156/240/145 231/61/145 157/241/145
f 163/242/146 302/238/146 162/243/146
f 232/244/147 156/245/147 158/246/147
f 257/230/148 141/236/148 155/233/148
f 232/244/149 158/246/149 161/247/149
f 123/144/150 162/243/150 111/145/150
f 328/248/151 327/249/151 154/250/151
f 329/251/152 165/252/152 330/253/152
f 133/192/153 160/254/153 153/255/153
f 152/234/153 153/255/153 159/256/153
f 115/191/154 160/254/154 133/192/154
f 159/256/155 153/255/155 160/254/155
f 153/255/156 152/234/156 141/236/156
f 156/257/157 157/258/157 109/259/157
f 167/166/120 41/136/120 139/201/120
f 125/260/158 168/261/158 109/259/158
f 156/257/152 109/259/152 168/261/152
f 140/262/159 253/263/159 153/264/159
f 168/261/160 161/265/160 158/266/160
f 168/261/161 158/266/161 156/257/161
f 164/267/162 165/268/162 225/269/162
f 244/270/163 45/271/163 43/165/163
f 338/272/164 143/273/164 339/274/164
f 45/275/165 201/276/165 206/171/165
f 53/277/166 267/278/166 264/279/166
f 207/280/167 205/281/167 183/282/167
f 132/206/168 143/205/168 173/283/168
f 184/284/169 173/283/169 143/205/169
f 331/285/170 164/286/170 170/287/170 341/288/170
f 172/289/171 168/261/171 171/290/171
f 172/289/172 185/291/172 168/261/172
f 125/260/170 171/290/170 168/261/170
f 183/292/173 182/293/173 194/294/173
f 182/293/174 125/260/174 194/294/174
f 181/295/170 125/260/170 182/293/170
f 171/290/175 125/260/175 181/295/175
f 192/296/176 211/297/176 190/298/176
f 9/299/177 195/300/177 268/301/177
f 177/302/178 194/294/178 174/96/178
f 178/303/170 194/294/170 179/304/170
f 174/96/179 194/294/179 178/303/179
f 125/260/170 180/305/170 194/294/170
f 32/109/180 89/306/180 197/307/180
f 180/305/181 179/304/181 194/294/181
f 32/109/182 197/307/182 198/107/182
f 191/308/170 168/261/170 185/291/170
f 202/309/183 88/310/183 201/311/183
f 88/310/184 87/312/184 206/313/184
f 191/308/185 189/314/185 168/261/185
f 168/261/186 187/315/186 161/265/186
f 203/316/187 204/317/187 196/318/187
f 187/315/188 168/261/188 189/314/188
f 203/316/189 89/319/189 202/309/189
f 201/320/190 45/271/190 202/321/190
f 244/270/163 203/322/163 45/271/163
f 203/322/191 244/270/191 204/323/191
f 202/321/192 45/271/192 203/322/192
f 66/58/193 261/59/193 78/324/193
f 201/311/194 88/310/194 206/313/194
f 272/325/195 273/326/195 78/324/195
f 160/232/118 115/143/118 81/98/118
f 3/327/196 176/328/196 8/329/196
f 2/330/197 224/331/197 209/332/197
f 228/333/198 135/198/198 209/72/198
f 211/297/199 208/50/199 210/334/199
f 33/335/200 68/336/200 23/337/200
f 208/50/201 211/297/201 207/280/201
f 210/334/202 188/338/202 211/297/202
f 214/339/203 212/340/203 213/341/203
f 192/296/204 193/342/204 211/297/204
f 205/281/205 207/280/205 211/297/205
f 215/343/206 213/344/206 212/345/206
f 199/346/207 205/281/207 211/297/207
f 199/346/208 211/297/208 193/342/208
f 186/347/209 211/297/209 188/338/209
f 215/343/210 212/345/210 218/348/210
f 215/343/211 218/348/211 219/349/211
f 214/350/212 220/351/212 212/352/212
f 220/351/213 224/353/213 212/352/213
f 186/347/214 190/298/214 211/297/214
f 1/66/215 73/68/215 218/69/215
f 219/354/216 218/69/216 73/68/216
f 186/355/217 222/356/217 223/357/217
f 186/355/218 188/358/218 222/356/218
f 212/345/219 224/359/219 226/360/219
f 218/348/220 212/345/220 226/360/220
f 224/353/221 220/351/221 227/361/221
f 258/362/222 259/363/222 221/364/222
f 228/365/197 209/332/197 224/331/197
f 223/366/223 69/53/223 190/367/223
f 190/367/224 186/368/224 223/366/224
f 2/330/225 226/70/225 224/331/225
f 70/369/226 192/370/226 69/53/226
f 227/371/227 228/365/227 224/331/227
f 190/367/228 69/53/228 192/370/228
f 70/369/229 193/372/229 192/370/229
f 2/330/230 1/66/230 226/70/230
f 23/75/38 22/22/38 214/373/38
f 230/374/231 231/375/231 241/376/231
f 39/38/38 220/377/38 22/22/38
f 214/373/232 73/76/232 23/75/232
f 73/76/233 214/373/233 213/344/233
f 213/344/234 215/343/234 73/76/234
f 219/349/38 73/76/38 215/343/38
f 57/51/24 208/50/24 294/378/24
f 294/378/235 208/50/235 293/379/235
f 207/280/236 293/379/236 208/50/236
f 58/380/237 210/334/237 56/49/237
f 208/50/238 56/49/238 210/334/238
f 228/381/239 220/377/239 39/38/239
f 227/382/240 220/377/240 228/381/240
f 214/373/241 22/22/241 220/377/241
f 231/375/242 232/244/242 241/376/242
f 39/38/243 135/209/243 228/381/243
f 4/383/244 234/384/244 82/93/244
f 235/385/245 234/386/245 40/202/245
f 223/366/246 65/54/246 69/53/246
f 80/86/247 235/385/247 40/202/247
f 295/52/248 296/387/248 69/53/248
f 70/369/249 69/53/249 296/387/249
f 4/388/247 40/202/247 234/386/247
f 296/387/250 297/389/250 70/369/250
f 82/93/251 137/153/251 5/390/251
f 138/391/252 5/390/252 137/153/252
f 138/392/120 139/201/120 5/167/120
f 5/390/253 4/383/253 82/93/253
f 299/393/254 217/394/254 238/395/254
f 156/245/255 232/244/255 231/375/255
f 241/376/256 225/396/256 229/397/256
f 232/244/257 237/398/257 241/376/257
f 187/399/258 189/400/258 232/244/258
f 230/374/259 241/376/259 229/397/259
f 238/395/260 283/401/260 298/402/260
f 241/376/231 217/403/231 216/404/231
f 243/405/261 43/165/261 169/164/261
f 299/393/262 238/395/262 298/402/262
f 244/270/263 43/165/263 243/405/263
f 113/406/264 247/407/264 112/141/264
f 55/408/265 248/409/265 9/299/265
f 53/277/265 57/410/265 52/411/265
f 50/412/266 57/410/266 53/277/266
f 119/413/267 127/170/267 250/414/267
f 52/411/268 248/409/268 55/408/268
f 139/415/159 133/416/159 167/417/159
f 169/418/269 167/417/269 133/416/269
f 248/409/265 52/411/265 57/410/265
f 50/412/265 51/419/265 56/420/265
f 58/421/270 56/420/270 51/419/270
f 51/419/265 59/422/265 58/421/265
f 56/420/271 57/410/271 50/412/271
f 128/174/272 129/423/272 254/172/272
f 59/422/273 51/419/273 61/424/273
f 236/425/274 61/424/274 51/419/274
f 130/426/275 131/427/275 254/172/275
f 129/423/276 130/426/276 254/172/276
f 9/428/159 248/429/159 195/430/159
f 176/431/159 175/432/159 248/429/159
f 254/172/277 127/433/277 126/173/277
f 233/434/278 245/435/278 254/172/278
f 254/172/279 250/436/279 127/433/279
f 245/435/280 247/437/280 254/172/280
f 175/432/159 200/438/159 248/429/159
f 345/439/281 236/425/281 51/419/281 344/440/281
f 247/437/282 250/436/282 254/172/282
f 254/172/283 131/427/283 233/434/283
f 102/441/284 101/442/284 126/169/284
f 347/443/265 65/444/265 343/445/265
f 128/177/285 126/446/285 101/447/285
f 204/448/159 244/449/159 196/450/159
f 103/451/286 105/452/286 128/177/286
f 196/450/287 249/453/287 197/454/287
f 249/453/159 246/455/159 197/454/159
f 197/454/159 246/455/159 198/456/159
f 200/438/159 198/456/159 242/457/159
f 129/458/288 128/177/288 107/176/288
f 242/457/159 248/429/159 200/438/159
f 108/459/289 129/458/289 107/176/289
f 240/460/159 242/457/159 198/456/159
f 108/461/290 110/139/290 129/140/290
f 242/457/159 195/430/159 248/429/159
f 133/416/159 251/462/159 169/418/159
f 233/463/291 131/464/291 34/37/291
f 30/34/292 34/37/292 131/464/292
f 240/460/159 198/456/159 246/455/159
f 244/449/159 243/465/159 196/450/159
f 243/465/159 169/418/159 249/453/159
f 221/364/293 256/466/293 258/362/293
f 249/453/159 196/450/159 243/465/159
f 225/269/294 259/363/294 170/467/294
f 252/468/159 133/416/159 153/264/159
f 251/462/159 133/416/159 252/468/159
f 249/453/159 169/418/159 251/462/159
f 225/269/295 221/364/295 259/363/295
f 252/468/159 153/264/159 253/263/159
f 261/59/296 263/190/296 78/324/296
f 21/116/29 261/59/29 67/56/29
f 263/190/297 272/325/297 78/324/297
f 266/469/298 264/279/298 265/470/298
f 261/59/299 21/116/299 263/190/299
f 27/115/300 67/56/300 68/336/300
f 173/471/301 265/470/301 264/279/301
f 51/419/302 264/279/302 266/469/302
f 50/412/301 264/279/301 51/419/301
f 27/115/200 68/336/200 33/335/200
f 50/412/303 53/277/303 264/279/303
f 9/299/304 268/301/304 55/408/304
f 242/472/305 269/473/305 195/300/305
f 86/474/306 84/475/306 90/476/306
f 85/477/307 84/475/307 86/474/307
f 173/283/308 184/284/308 265/478/308
f 87/312/309 88/310/309 85/479/309
f 206/171/310 49/101/310 45/275/310
f 59/480/311 210/334/311 58/380/311
f 59/481/312 61/482/312 210/483/312
f 188/358/313 210/483/313 61/482/313
f 49/101/314 86/100/314 25/484/314
f 61/482/315 236/485/315 222/356/315
f 188/358/316 61/482/316 222/356/316
f 90/486/317 25/484/317 86/100/317
f 64/487/318 65/54/318 223/366/318
f 25/484/319 272/488/319 263/489/319
f 64/487/320 223/366/320 239/490/320
f 90/486/321 273/491/321 25/484/321
f 273/491/322 272/488/322 25/484/322
f 222/492/320 239/490/320 223/366/320
f 222/492/323 236/493/323 239/490/323
f 245/18/324 112/141/324 247/407/324
f 247/494/325 114/495/325 250/414/325
f 250/414/326 118/496/326 119/413/326
f 221/497/327 225/396/327 241/376/327
f 216/404/328 221/497/328 241/376/328
f 269/473/329 242/472/329 240/498/329
f 238/499/330 217/403/330 241/376/330
f 241/376/331 237/398/331 238/499/331
f 240/500/332 246/501/332 269/502/332
f 216/503/333 217/394/333 288/504/333
f 286/505/334 288/504/334 217/394/334
f 217/394/335 299/393/335 286/505/335
f 289/506/336 291/507/336 216/508/336
f 350/509/337 351/510/337 266/511/337
f 166/512/338 16/513/338 229/514/338
f 225/269/339 165/268/339 229/514/339
f 166/512/340 229/514/340 165/268/340
f 16/5/341 230/4/341 229/515/341
f 172/516/342 171/517/342 274/518/342
f 70/369/343 274/519/343 193/372/343
f 292/520/344 275/521/344 8/329/344
f 275/521/345 177/522/345 8/329/345
f 174/523/346 8/329/346 177/522/346
f 175/524/347 176/328/347 3/327/347
f 178/303/348 7/97/348 174/96/348
f 7/525/349 179/526/349 46/155/349
f 179/304/350 7/97/350 178/303/350
f 46/527/351 287/528/351 48/529/351
f 78/324/352 48/529/352 66/58/352
f 274/518/353 171/517/353 199/530/353
f 199/530/354 193/531/354 274/518/354
f 196/318/355 89/319/355 203/316/355
f 196/532/356 197/307/356 89/306/356
f 199/530/357 171/517/357 205/533/357
f 181/534/358 205/533/358 171/517/358
f 180/157/359 46/155/359 179/526/359
f 181/534/360 182/535/360 205/533/360
f 277/536/361 207/280/361 276/537/361
f 293/379/362 207/280/362 277/536/362
f 182/538/363 183/282/363 205/281/363
f 207/280/364 183/282/364 276/537/364
f 185/539/320 172/540/320 274/519/320
f 278/541/320 185/539/320 274/519/320
f 3/327/365 32/109/365 200/108/365
f 274/519/250 70/369/250 297/389/250
f 126/169/366 279/542/366 102/441/366
f 161/247/367 187/399/367 232/244/367
f 280/168/368 279/542/368 126/169/368
f 237/398/369 232/244/369 189/400/369
f 128/177/370 101/447/370 103/451/370
f 104/175/371 128/177/371 105/452/371
f 281/543/372 237/398/372 191/544/372
f 191/544/373 237/398/373 189/400/373
f 282/545/374 283/401/374 238/395/374
f 282/545/375 238/395/375 281/546/375
f 237/547/376 281/546/376 238/395/376
f 131/464/377 31/27/377 30/34/377
f 29/28/378 31/27/378 130/138/378
f 131/464/379 130/138/379 31/27/379
f 341/288/380 170/287/380 259/548/380 355/549/380
f 233/463/381 34/37/381 35/33/381
f 191/308/382 185/291/382 284/550/382
f 275/551/383 277/552/383 177/302/383
f 35/553/384 37/20/384 233/19/384
f 276/554/385 194/294/385 277/552/385
f 183/292/386 194/294/386 276/554/386
f 194/294/387 177/302/387 277/552/387
f 114/555/388 247/407/388 117/556/388
f 117/556/389 247/407/389 113/406/389
f 118/496/390 250/414/390 114/495/390
f 284/550/387 185/291/387 278/557/387
f 120/558/391 127/170/391 119/413/391
f 283/559/392 282/560/392 284/550/392
f 284/550/393 281/561/393 191/308/393
f 127/170/394 120/558/394 122/562/394
f 127/170/395 122/562/395 280/168/395
f 284/550/396 282/560/396 281/561/396
f 109/154/397 287/563/397 46/155/397
f 290/564/398 47/565/398 48/529/398
f 289/566/399 216/503/399 288/504/399
f 221/364/400 216/508/400 291/507/400
f 60/110/398 48/529/398 47/565/398
f 62/57/401 48/529/401 60/110/401
f 221/364/402 291/507/402 256/466/402
f 290/564/403 48/529/403 287/528/403
f 48/529/404 62/57/404 66/58/404
f 292/520/405 8/329/405 176/328/405
f 3/327/406 200/108/406 175/524/406
f 90/476/407 84/475/407 273/326/407
f 273/326/408 84/475/408 78/324/408
f 84/567/409 85/479/409 88/310/409
f 88/310/410 202/309/410 89/319/410
f 297/389/411 278/541/411 274/519/411
f 60/110/412 63/55/412 62/57/412
f 286/568/413 299/569/413 65/444/413
f 231/61/414 285/60/414 300/570/414
f 231/61/415 300/570/415 157/241/415
f 297/571/383 296/572/383 284/550/383
f 285/60/416 106/137/416 14/573/416
f 176/574/417 248/409/417 292/575/417
f 275/551/383 292/575/383 248/409/383
f 157/241/416 300/570/416 47/565/416
f 14/573/416 47/565/416 285/60/416
f 300/570/418 285/60/418 47/565/418
f 109/576/419 157/241/419 287/528/419
f 287/528/420 157/241/420 290/564/420
f 290/564/416 157/241/416 47/565/416
f 275/551/383 248/409/383 57/410/383
f 293/577/421 277/552/421 275/551/421
f 294/578/422 275/551/422 57/410/422
f 294/578/423 293/577/423 275/551/423
f 65/444/383 284/550/383 295/579/383
f 296/572/383 295/579/383 284/550/383
f 278/557/421 297/571/421 284/550/421
f 65/444/424 298/580/424 284/550/424
f 298/580/425 283/559/425 284/550/425
f 298/580/426 65/444/426 299/569/426
f 170/467/427 164/267/427 225/269/427
f 60/110/428 47/565/428 124/149/428
f 14/573/429 124/149/429 47/565/429
f 124/149/419 14/573/419 122/162/419
f 310/581/429 102/582/429 362/583/429
f 301/584/430 257/585/430 255/586/430
f 262/587/431 264/588/431 301/584/431
f 262/587/432 301/584/432 260/589/432
f 280/590/416 122/162/416 14/573/416
f 301/584/433 264/588/433 267/591/433
f 267/591/434 268/592/434 301/584/434
f 255/586/435 260/589/435 301/584/435
f 269/593/436 301/584/436 268/592/436
f 269/593/437 270/594/437 301/584/437
f 270/594/438 271/595/438 301/584/438
f 257/585/439 301/584/439 271/595/439
f 12/596/440 11/597/440 260/598/440
f 12/596/441 260/598/441 13/599/441
f 255/600/440 13/599/440 260/598/440
f 173/601/442 262/602/442 132/603/442
f 262/602/443 260/604/443 132/603/443
f 173/471/444 264/279/444 262/605/444
f 53/277/445 52/411/445 267/278/445
f 52/411/446 55/408/446 267/278/446
f 268/301/447 267/278/447 55/408/447
f 268/301/448 195/300/448 269/473/448
f 246/501/449 270/606/449 269/502/449
f 249/607/449 270/606/449 246/501/449
f 249/608/450 251/609/450 270/610/450
f 271/611/451 270/610/451 251/609/451
f 251/609/452 252/612/452 271/611/452
f 253/613/453 140/614/453 257/230/453
f 252/612/454 253/613/454 271/611/454
f 257/230/455 271/611/455 253/613/455
f 6/73/456 209/72/456 111/145/456
f 6/73/457 111/145/457 75/615/457
f 75/615/458 111/145/458 302/238/458
f 76/81/459 302/80/459 303/616/459
f 77/617/460 76/81/460 303/616/460
f 303/616/461 304/618/461 77/617/461
f 304/618/462 305/619/462 77/617/462
f 81/98/463 79/92/463 160/232/463
f 12/620/464 13/621/464 303/616/464
f 303/616/465 13/621/465 304/618/465
f 151/235/466 79/221/466 150/622/466
f 305/619/467 150/622/467 79/221/467
f 79/221/468 77/617/468 305/619/468
f 111/145/146 162/243/146 302/238/146
f 147/623/469 303/624/469 148/237/469
f 303/624/91 302/238/91 148/237/91
f 163/242/470 154/239/470 302/238/470
f 15/625/471 10/626/471 303/624/471
f 149/627/472 15/625/472 303/624/472
f 149/627/473 303/624/473 147/623/473
f 155/233/474 151/228/474 257/230/474
f 255/600/475 257/230/475 150/229/475
f 140/614/476 141/236/476 257/230/476
f 305/628/477 304/629/477 255/600/477
f 150/229/478 305/628/478 255/600/478
f 13/599/479 255/600/479 304/629/479
f 149/630/479 18/7/479 15/9/479
f 303/616/480 11/631/480 12/620/480
f 11/632/481 303/624/481 10/626/481
f 132/633/482 260/598/482 11/597/482
f 144/634/483 132/633/483 11/597/483
f 11/597/484 10/188/484 144/634/484
f 19/8/485 144/634/485 10/188/485
f 279/635/419 361/636/419 362/583/419 102/582/419
f 280/590/486 363/637/486 361/636/486 279/635/486
f 14/573/429 360/638/429 363/637/429 280/590/429
f 289/639/487 358/640/487 359/641/487 291/642/487
f 289/639/421 288/643/421 357/644/421 358/640/421
f 286/568/488 356/645/488 357/644/488 288/643/488
f 256/646/421 291/642/421 359/641/421 354/647/421
f 256/646/421 354/647/421 353/648/421 258/649/421
f 258/649/387 353/648/387 352/650/387
f 259/548/489 258/649/489 352/650/489 355/549/489
f 265/651/490 349/652/490 350/509/490 266/511/490
f 265/651/491 184/653/491 348/654/491 349/652/491
f 65/444/383 347/443/383 356/645/383 286/568/383
f 236/425/265 345/439/265 346/655/265 239/656/265
f 51/657/492 266/511/492 351/510/492 344/658/492
f 64/659/493 342/660/493 343/445/493 65/444/493
f 239/656/493 346/655/493 342/660/493 64/659/493
f 143/273/494 142/661/494 340/662/494 339/274/494
f 143/273/492 338/272/492 348/654/492 184/653/492
f 162/663/495 336/664/495 337/665/495 163/666/495
f 106/667/496 17/668/496 335/669/496 334/670/496
f 14/573/416 106/137/416 334/671/416 360/638/416
f 16/672/497 333/673/497 335/669/497 17/668/497
f 166/674/152 332/675/152 333/673/152 16/672/152
f 164/286/498 331/285/498 330/253/498 165/252/498
f 165/252/499 329/251/499 332/675/499 166/674/499
f 154/250/500 163/666/500 337/665/500 328/248/500
f 145/676/501 326/677/501 340/662/501 142/661/501
f 145/676/138 144/678/138 325/679/138 326/677/138
f 19/680/502 324/223/502 325/679/502 144/678/502
f 19/680/503 18/213/503 323/212/503 324/223/503
f 148/681/151 154/250/151 327/249/151 322/682/151
f 123/195/504 321/194/504 336/664/504 162/663/504
f 121/196/127 320/683/127 319/197/127
f 107/176/505 104/175/505 317/179/505 315/684/505
f 108/459/109 107/176/109 315/684/109 314/685/109
f 110/182/506 108/459/506 314/685/506 318/183/506
f 105/452/93 313/686/93 316/178/93 104/175/93
f 105/452/93 103/451/93 312/687/93 313/686/93
f 103/451/507 101/447/507 311/688/507 312/687/507
f 102/582/508 310/581/508 311/688/508 101/447/508
f 42/29/130 309/35/130 320/683/130 121/196/130
f 29/28/12 28/32/12 307/31/12 308/36/12
f 320/683/509 319/197/509 321/194/509 336/664/509 337/665/509 328/248/509 327/249/509 322/682/509 323/212/509 324/223/509 325/679/509 326/677/509 340/662/509 339/274/509 338/272/509 348/654/509 349/652/509 350/509/509 351/510/509 344/658/509 345/439/509 346/655/509 342/660/509 343/445/509 347/443/509 356/645/509 357/644/509 358/640/509 359/641/509 354/647/509 353/648/509 352/650/509 355/549/509 341/288/509 331/285/509 330/253/509 329/251/509 332/675/509 333/673/509 335/669/509 334/670/509 360/638/509 363/637/509 361/636/509 362/583/509 310/581/509 311/688/509 312/687/509 313/686/509 316/178/509 317/179/509 315/684/509 314/685/509 318/183/509 306/180/509 307/31/509 308/36/509 309/35/509
g leaves_3_obj_0.005
v 3.508500 -20.503000 -6.931402
v 6.378600 -19.656799 -3.676102
v 3.761500 -20.475401 -1.772402
v 5.491800 -15.778700 -6.258401
v 4.049220 -12.017540 2.221529
v 4.256890 -12.313971 2.635499
v 4.502500 -11.821380 2.704439
v 1.504500 -20.500000 -0.175302
v 5.167850 -12.685000 2.560139
v 1.939090 -18.327120 -4.201561
v 2.465380 -18.885679 -2.584902
v 5.912880 -15.767970 -5.335971
v 5.566320 -15.808140 -6.015532
v -3.100000 -17.514999 -2.052701
v 5.206740 -12.313500 -3.206441
v 5.081300 -12.447021 -3.570651
v -1.341200 -17.514999 4.739698
v 0.590300 -9.362600 -2.836901
v 5.821330 -12.242270 -2.001291
v 2.044120 -10.211020 -2.245931
v 5.568310 -13.481650 2.431589
v 0.540670 -9.669800 -2.766051
v 2.244950 -10.826080 -2.029501
v 0.439600 -9.678350 -2.788851
v 5.362730 -15.921170 2.068559
v 5.667370 -14.054339 2.343219
v 0.709100 -11.351001 -4.281101
v 3.657830 -11.152750 -1.589971
v 3.747600 -11.027431 -1.506621
v -1.658500 -11.811500 -5.053801
v 5.629900 -16.248701 -6.336001
v 5.269080 -11.751640 2.698549
v 4.902410 -10.681450 -0.768281
v 7.037000 -9.362600 0.775599
v 4.992740 -10.794661 -0.747521
v 5.524350 -11.415000 0.054889
v 6.039200 -16.204000 2.011499
v 5.888680 -11.782300 1.461189
v -3.120600 -9.362600 -1.748401
v 4.659750 -12.685000 -3.895251
v 4.350300 -12.685000 -5.090401
v 4.033980 -12.178081 -3.610861
v 4.657510 -12.673400 -3.842061
v 5.717030 -11.981920 1.844089
v 3.413310 -11.350330 -1.597231
v 8.260501 -11.415000 2.877999
v -0.612650 -10.256890 -2.893671
v -1.134580 -10.498960 -2.851461
v 4.463140 -12.994910 -4.895491
v 2.909500 -15.869900 -7.076302
v 5.509450 -15.842958 -6.055341
v 4.750300 -15.880939 -6.261771
v 7.675701 -14.935900 1.299999
v 4.022670 -13.241060 -5.223981
v 3.195590 -13.577670 -5.304841
v 3.056210 -15.172649 -6.118822
v -0.200480 -12.417220 -4.649481
v -3.100000 -12.685000 1.702099
v 3.501730 -19.205231 -0.989632
v 5.644110 -12.685000 2.125929
v 1.557170 -11.466510 -3.084041
v 6.109000 -12.685000 1.702099
v 5.886670 -12.540870 1.611449
v 4.350300 -17.514999 4.739698
v 6.022270 -12.685000 1.367139
v 3.566000 -19.120621 -0.786932
v 2.550000 -14.960999 -6.076102
v 1.504500 -12.685001 5.899999
v 3.033740 -14.084490 -5.426601
v 3.072610 -14.352980 -5.491092
v 2.912540 -14.281119 -5.473832
v 6.109000 -13.209641 1.294249
v 2.569900 -8.094100 0.564799
v 6.520000 -12.939560 0.417489
v 6.645960 -12.832160 0.144039
v -1.257240 -11.596690 0.384279
v 2.519330 -14.649029 -5.562212
v -1.341200 -12.685000 -5.090401
v -1.050860 -12.585930 -4.927281
v 6.504400 -13.538119 0.564159
v 6.708400 -14.690131 0.376909
v -1.897100 -11.415000 0.354099
v 2.512990 -15.803349 -5.839511
v 5.325180 -17.542999 0.825318
v 2.403000 -15.293550 -5.717052
v 5.356530 -17.484221 0.877388
v -1.112580 -11.415000 0.793719
v 2.221160 -11.415000 2.661819
v 1.836310 -10.089750 -2.330411
v 5.365240 -17.514999 0.819838
v 2.060160 -10.118120 -2.212451
v 3.678330 -11.973220 2.469469
v 8.600000 -12.866099 1.076299
v 4.549600 -11.415000 3.966599
v -1.403900 -12.534600 -4.046861
v 3.512890 -16.053572 -6.261292
v 3.159380 -15.773469 -6.211532
v -1.168120 -12.503450 -4.791451
v 1.032600 -9.362600 2.536999
v 7.310400 -9.362600 4.096900
v 6.203230 -12.376719 -1.430021
v 8.437500 -15.201401 -1.081501
v 7.250300 -13.387000 -3.595001
v 2.541430 -10.787650 -1.966231
v -1.767900 -12.280500 -3.620502
v 6.713640 -15.837450 -0.970341
v 6.659720 -15.058749 0.198199
v -1.204360 -10.696770 -2.921601
v -1.327070 -11.064390 -2.852551
v 4.827700 -10.689601 -2.292301
v 6.869160 -16.007530 -1.950991
v -1.628790 -12.685000 -3.979711
v 5.754800 -12.000000 -2.766901
v -1.030760 -11.343560 0.858399
v 3.833800 -13.800100 -7.300002
v 1.504500 -10.956110 2.381239
v 1.504500 -17.514999 -6.250701
v 2.451860 -17.514999 -5.386981
v -1.212560 -11.415000 -2.729171
v -0.975100 -11.557051 -2.406521
v 6.727070 -16.179821 -2.453311
v -1.210740 -12.239170 -3.218711
v -0.602400 -11.610000 -2.215641
v -0.869850 -11.763021 -1.998101
v -2.170500 -11.415000 -2.967201
vn 0.2924 -0.9563 -0.0092
vn -0.7536 0.2934 0.5882
vn 0.3730 -0.8327 -0.4091
vn 0.3730 0.8327 0.4091
vn 0.6368 -0.7174 -0.2824
vn -0.3730 -0.8327 -0.4091
vn 0.7947 0.4279 -0.4306
vn -0.5802 -0.8005 0.1502
vn 0.6581 0.2143 0.7218
vn 0.2332 -0.2542 -0.9386
vn 0.9502 -0.1913 0.2460
vn 0.0211 -0.1489 0.9886
vn 0.4764 0.2242 -0.8502
vn 0.4764 0.2241 -0.8502
vn 0.1086 0.6715 -0.7330
vn 0.5802 0.8005 -0.1502
vn 0.5802 0.8005 -0.1501
vn 0.3274 -0.8900 -0.3173
vn 0.9502 0.1912 -0.2460
vn 0.1313 -0.9418 -0.3094
vn 0.1313 -0.9418 -0.3095
vn 0.6581 -0.2143 -0.7218
vn -0.2577 0.4024 -0.8785
vn 0.2332 -0.2541 -0.9386
vn 0.6369 -0.7174 -0.2824
vn -0.0000 0.2336 -0.9723
vn -0.3503 0.9119 -0.2136
vn 0.3503 -0.9119 0.2137
vn -0.3503 0.9119 -0.2137
vn -0.3502 0.9120 -0.2137
vn -0.7847 -0.6184 0.0418
vn 0.3730 0.8327 0.4092
vn 0.1829 0.5954 -0.7823
vn -0.0000 -0.8547 0.5191
vn 0.1831 0.5954 -0.7823
vn 0.5802 -0.8005 0.1502
vn 0.1830 0.5954 -0.7823
vn -0.9502 -0.1913 0.2460
vn -0.6581 0.2143 0.7218
vn -0.4130 0.8222 -0.3917
vn 0.7194 -0.4235 -0.5505
vn 0.9502 0.1913 -0.2460
vn -0.9338 -0.2055 0.2927
vn -0.9338 -0.2055 0.2928
vn -0.0000 -0.2336 0.9723
vn -0.7017 -0.2337 0.6731
vn -0.5508 0.6985 -0.4569
vn -0.7947 -0.4279 0.4306
vn -0.3011 0.2344 0.9244
vn -0.3011 0.2343 0.9244
vn -0.8773 0.3572 -0.3205
vn 0.5801 -0.8006 0.1502
vn -0.3730 0.8327 0.4092
vn 0.2618 0.8444 -0.4673
vn 0.9502 -0.1911 0.2460
vn -0.5802 0.8005 -0.1502
vn -0.8917 -0.0856 -0.4444
vn -0.1830 -0.5954 0.7823
vn 0.8917 0.0857 0.4444
vn -0.9573 0.2183 -0.1897
vn 0.2959 0.0766 -0.9522
vn -0.2618 -0.8445 0.4672
vn 0.5508 -0.6985 0.4569
vn 0.4231 0.6296 -0.6516
vn 0.4232 0.6296 -0.6516
vn -0.1313 0.9418 0.3094
vn -0.0000 0.8547 -0.5191
vn -0.5785 -0.7752 0.2536
vn -0.0212 0.1489 -0.9886
vn 0.7847 0.6184 -0.0418
vn -0.7386 -0.6220 -0.2599
vn 0.5785 0.7752 -0.2536
vn -0.1171 0.8743 0.4711
vn 0.6906 -0.2740 -0.6693
vn 0.6906 -0.2739 -0.6693
vn -0.4347 -0.7585 0.4854
vn 0.2741 0.9614 -0.0226
vn 0.8773 -0.3572 0.3205
vn -0.6906 0.2740 0.6693
vn 0.4347 0.7585 -0.4854
vn -0.9461 0.3220 0.0332
vn -0.9462 0.3220 0.0332
vn -0.3503 0.9120 -0.2137
vn 0.1171 -0.8743 -0.4711
vn -0.4764 -0.2242 0.8502
vn -0.4764 -0.2241 0.8502
vn -0.6368 0.7174 0.2824
vn -0.6581 -0.2143 -0.7218
vn 0.9573 -0.2183 0.1897
vn 0.8695 -0.1009 -0.4835
vn -0.2924 0.9563 0.0092
vn 0.7847 0.6185 -0.0418
vn 0.7017 0.2336 -0.6731
vn -0.8172 -0.0654 0.5726
vn 0.9573 -0.2184 0.1897
vn 0.3011 -0.2343 -0.9244
vn -0.3274 0.8900 0.3173
vn -0.2332 0.2541 0.9386
vn 0.2577 -0.4024 0.8784
vn 0.9623 -0.0008 -0.2719
vn 0.8878 0.4544 -0.0731
vn 0.7536 -0.2935 -0.5882
vn 0.8172 0.0653 -0.5727
vn 0.8172 0.0653 -0.5726
vn 0.9338 0.2055 -0.2927
vn 0.0887 -0.9491 0.3023
vn -0.9502 0.1913 -0.2460
vn -0.1997 -0.9072 0.3702
vn -0.2741 -0.9614 0.0226
vn -0.8878 -0.4544 0.0731
vn -0.4231 -0.6296 0.6516
vn -0.4232 -0.6296 0.6516
vn -0.0887 0.9491 -0.3023
vt 0.513485 0.012819
vt 0.534121 0.173322
vt 0.418593 0.170051
vt 0.508516 0.845426
vt 0.519976 0.857163
vt 0.508516 0.870662
vt 0.512325 -0.000000
vt 0.466122 0.066799
vt 0.333415 0.168278
vt 0.435638 0.123738
vt 0.849765 0.962457
vt 0.849765 0.828008
vt 0.873615 0.851525
vt 0.641221 0.091730
vt 0.620509 0.309429
vt 0.633244 0.127964
vt 0.637619 0.100375
vt 0.206060 0.126203
vt -0.000000 0.177536
vt 0.040321 0.000000
vt 0.258661 0.868670
vt 0.191020 0.834619
vt 0.253423 0.854999
vt 0.250256 0.805757
vt 0.181141 0.358857
vt 0.572484 0.711957
vt 0.594544 0.697087
vt 0.720495 0.664141
vt 0.529259 0.583652
vt 0.563649 0.685732
vt 0.758016 0.126206
vt 0.757724 0.122415
vt 0.768495 0.127767
vt 0.363469 0.384471
vt 0.471643 0.333281
vt 0.510635 0.354395
vt 0.560952 0.349810
vt 0.529667 0.692610
vt 0.529259 0.665241
vt 0.546448 0.654812
vt 0.712347 0.248682
vt 0.707428 0.244875
vt 0.743093 0.184100
vt 0.739553 0.183269
vt 0.687029 0.122443
vt 0.669226 0.032076
vt 0.723762 0.298263
vt 0.727843 0.294943
vt 0.782121 0.381904
vt 0.333138 0.567872
vt 0.310559 0.645460
vt 0.307954 0.575739
vt 0.429462 0.756510
vt 0.470353 0.775359
vt 0.413115 0.782674
vt 0.427490 0.756372
vt 0.659064 0.844199
vt 0.529259 0.785969
vt 0.628989 0.798511
vt 0.737989 0.083426
vt 0.826261 0.863349
vt 0.807280 0.863701
vt 0.792756 0.839969
vt 0.630180 0.781548
vt 0.558515 0.336000
vt 0.467729 0.763509
vt 0.621742 0.075296
vt 0.594509 0.011711
vt 0.636365 0.097858
vt 0.006423 0.465526
vt 0.024052 0.476457
vt 0.000000 0.474707
vt 0.730452 0.064665
vt 0.722983 0.061615
vt 0.782121 0.000000
vt 0.700688 0.235878
vt 0.719883 0.202539
vt 0.048462 0.498024
vt 0.958241 0.542462
vt 0.948758 0.560279
vt 0.957382 0.540760
vt 0.564947 0.273339
vt 0.560997 0.363951
vt 0.948838 0.503741
vt 0.939202 0.600842
vt 0.126357 0.800468
vt 0.000000 0.861055
vt 0.121723 0.737483
vt 0.063081 0.686619
vt 0.422381 0.191870
vt 0.206387 0.671162
vt 0.222066 0.677890
vt 0.214454 0.684705
vt 0.104609 0.376450
vt 0.106000 0.411078
vt 0.091091 0.386546
vt 0.958007 0.483696
vt 0.933291 0.411462
vt 0.983158 0.463683
vt 0.333415 0.293386
vt 0.224307 0.690309
vt 0.088740 0.385190
vt 0.421600 0.199508
vt 0.568120 0.699003
vt 0.076831 0.495951
vt 0.076768 0.489575
vt 0.109479 0.497698
vt -0.000000 0.376450
vt 0.699153 0.461742
vt 0.537953 0.384471
vt 0.278865 0.376450
vt 0.315044 0.457292
vt 0.301657 0.473213
vt 0.278865 0.510800
vt 0.068242 0.495158
vt 0.089165 0.660347
vt 0.310357 0.829732
vt 0.310357 0.737618
vt 0.332953 0.781359
vt 0.240894 0.690105
vt 0.470353 0.845230
vt 0.478251 0.885647
vt 0.470353 0.925547
vt 0.474982 0.918774
vt 0.790429 0.909305
vt 0.741024 0.863920
vt 0.784256 0.867581
vt 0.518668 0.828509
vt 0.508535 0.845426
vt 0.508516 0.812953
vt 0.109893 0.667844
vt 0.720495 0.864309
vt 0.720495 0.944013
vt 0.113007 0.660347
vt 0.994507 0.452762
vt 0.462879 0.290296
vt 0.464491 0.291095
vt 0.412594 0.676022
vt 0.440134 0.576370
vt 0.524984 0.756372
vt 0.680883 0.834563
vt 0.690604 0.817782
vt 0.719076 0.824335
vt 0.719076 0.895915
vt 0.108679 0.477769
vt 0.972485 0.108082
vt 0.980559 0.349305
vt 0.890564 0.237219
vt 0.463767 0.292706
vt 0.438707 0.555572
vt 0.529259 0.542684
vt 0.441723 0.572077
vt 0.166417 0.850670
vt 0.165875 0.861055
vt 0.150039 0.851778
vt 0.960898 0.916253
vt 0.931401 0.902214
vt 0.307954 0.653688
vt 0.278865 0.558228
vt 0.307954 0.510800
vt 0.196509 0.691450
vt 0.193122 0.681011
vt 0.166417 0.660347
vt 0.307954 0.510800
vt 0.526361 0.812953
vt 0.208920 0.489906
vt 0.134883 0.484520
vt 0.743690 0.175336
vt 0.257363 0.720599
vt 0.253948 0.713280
vt 0.221740 0.660347
vt 0.641221 0.054321
vt 0.647736 0.086782
vt 0.074735 0.871696
vt 0.087407 0.861055
vt 0.086711 0.890986
vt 0.508516 0.756372
vt 0.508516 0.845230
vt 0.470353 0.806247
vt 0.483101 0.345203
vt 0.267444 0.707249
vt 0.338381 0.871360
vt 0.425251 0.898085
vt 0.342047 0.879141
vt 0.308797 0.660347
vt 0.304507 0.707488
vt 0.240054 0.660347
vt 0.351470 0.927863
vt 1.000000 0.704866
vt 0.960394 0.762729
vt 0.989574 0.699558
vt 0.589075 0.048042
vt 0.451772 0.901765
vt 0.463479 0.923529
vt 0.470353 0.930607
vt 0.503736 0.862774
vt 0.489911 0.871981
vt 0.457755 0.927427
vt 0.119261 0.496300
vt 0.095509 0.502864
vt 0.166417 0.898658
vt 0.177897 0.898731
vt 0.166417 0.968277
vt 0.356371 0.417526
vt 0.333415 0.401776
vt 0.365573 0.413123
vt 0.333575 0.387796
vt 0.278865 0.376450
vt 0.130893 0.448583
vt 0.127054 0.464649
vt 0.338696 0.840805
vt 0.196296 0.744471
vt 0.961272 0.646919
vt 0.707003 0.742574
vt 0.680883 0.711957
vt 0.711177 0.717100
vt 0.255183 0.780597
vt 0.716052 0.711957
vt 0.800367 0.560931
vt 0.720495 0.555142
vt 0.769873 0.384471
vt 0.183269 0.896001
vt 0.222251 0.924266
vt 0.691928 0.758691
vt 0.333415 0.800964
vt 0.788807 0.193239
vt 0.890563 0.206942
vt 0.782122 0.377097
vt 0.576049 0.870984
vt 0.680883 0.873339
vt 0.333138 0.645460
vt 0.333138 0.737618
vt 0.310357 0.690350
vt 0.890563 0.021332
vt 0.710443 0.057366
vt 0.698482 0.026003
vt 0.584508 0.247268
vt 0.628462 0.384471
vt 0.933291 0.444822
vt 0.849766 0.567384
vt 0.871461 0.384471
vt 0.957008 0.623631
vt 0.178183 0.780769
vt 0.798466 0.863701
vt 0.769871 0.734130
vt 0.329446 0.397992
vt 0.326566 0.443990
vt 0.317080 0.451054
vt 0.517715 0.045813
vt 0.950154 0.574888
vt 0.508516 0.811893
vt 0.519283 0.799200
vt 0.928794 0.479845
vt 0.931659 0.476390
vt 0.244367 0.631986
vt 0.556219 0.309233
vt 0.385802 0.861890
vt 0.849765 0.457975
vt 0.849765 0.674079
vt 0.908903 0.582745
vt 0.924726 0.610538
vt 0.698482 0.062019
vt 0.186530 0.457338
vt 0.225886 0.868670
vt 0.173458 0.783137
vt 0.341362 0.848566
vt 0.332473 0.880098
vt 0.322724 0.873886
vt 0.332473 0.829732
vt 0.310357 0.877869
vt 0.561201 0.316815
vt 0.919883 0.704233
vt 0.587594 0.228839
vt 0.117139 0.833640
vt 0.160991 0.926196
vt 0.087407 0.954197
vt 0.087407 0.861055
vt 0.890560 -0.000000
vt 0.849765 0.804209
vt 1.000000 0.384471
vt 0.895518 0.863653
vt 0.933291 0.828008
vt 0.840451 0.734130
vt 0.980559 0.000000
vt 0.892670 0.851225
vt 0.720495 0.734130
vt 0.735799 0.746864
vt 0.718572 0.191430
vt 0.636642 0.090796
vt 0.340739 0.869969
vt 0.674445 0.751193
vt 0.650258 0.744211
vt 0.680883 0.740176
vt 0.622582 0.711957
vt 0.626433 0.753804
vt 0.365954 0.448065
vt 0.529259 0.384471
vt 0.378110 0.494685
vt 0.708198 0.775047
vt 0.364449 0.495761
vt 0.524037 0.785443
vt 0.522115 0.812953
vt -0.000000 0.974025
vt 0.000851 0.914290
vt 0.087407 0.997304
vt 0.714445 0.817782
vt 0.701972 0.810274
vt 0.782121 0.042260
s 0
usemtl color_15277357.002
f 364/689/510 365/690/510 366/691/510
f 368/692/511 369/693/511 370/694/511
f 480/695/512 373/696/512 371/697/512
f 371/697/512 373/696/512 374/698/512
f 431/699/513 372/700/513 369/701/513
f 367/702/514 465/703/514 375/704/514
f 367/702/514 375/704/514 376/705/514
f 371/706/515 377/707/515 480/708/515
f 379/709/516 473/710/516 378/711/516
f 382/712/516 378/711/516 473/710/516
f 371/706/517 380/713/517 377/707/517
f 425/714/518 384/715/518 427/716/518
f 431/717/518 427/716/518 384/715/518
f 431/717/518 384/715/518 372/718/518
f 385/719/519 387/720/519 381/721/519
f 427/722/520 388/723/520 389/724/520
f 427/722/520 389/724/520 425/725/520
f 395/726/521 370/727/521 372/718/521
f 369/728/521 372/718/521 370/727/521
f 392/729/522 391/730/522 454/731/522
f 383/732/523 454/731/523 391/730/523
f 372/718/521 384/715/521 395/726/521
f 385/719/524 390/733/524 387/720/524
f 393/734/524 387/720/524 390/733/524
f 398/735/522 396/736/522 397/737/522
f 400/738/521 389/739/521 388/740/521
f 403/741/525 404/742/525 405/743/525
f 403/741/526 405/743/526 406/744/526
f 399/745/527 409/746/527 401/747/527
f 387/720/519 410/748/519 381/721/519
f 394/749/516 376/750/516 375/751/516
f 407/752/527 401/747/527 409/746/527
f 389/724/520 435/753/520 425/725/520
f 403/741/528 412/754/528 404/742/528
f 367/702/529 415/755/529 413/756/529
f 414/757/530 415/755/530 367/702/530
f 412/758/531 417/759/531 404/760/531
f 411/761/532 471/762/532 402/763/532
f 410/748/532 411/761/532 402/763/532
f 410/748/532 402/763/532 381/721/532
f 408/764/533 467/765/533 391/730/533
f 376/705/534 414/757/534 367/702/534
f 417/759/535 418/766/535 404/760/535
f 406/767/536 379/768/536 403/769/536
f 469/770/537 465/703/537 416/771/537
f 403/769/538 379/768/538 412/772/538
f 379/768/539 476/773/539 412/772/539
f 373/774/540 364/775/540 374/776/540
f 366/777/540 374/776/540 364/775/540
f 422/778/512 371/697/512 374/698/512
f 423/779/541 425/780/541 426/781/541
f 394/782/542 415/783/542 414/784/542
f 417/785/538 478/786/538 418/787/538
f 412/772/538 478/786/538 417/785/538
f 427/788/543 380/713/543 371/706/543
f 425/780/525 428/789/525 426/781/525
f 394/782/544 414/784/544 376/790/544
f 427/722/545 371/697/545 429/791/545
f 422/778/545 429/791/545 371/697/545
f 384/715/518 425/714/518 423/792/518
f 434/793/546 433/794/546 430/795/546
f 377/707/547 380/713/547 421/796/547
f 380/797/548 431/717/548 421/798/548
f 393/799/549 411/800/549 410/801/549
f 393/799/549 410/801/549 387/802/549
f 433/794/535 434/793/535 432/803/535
f 434/793/535 441/804/535 432/803/535
f 418/766/535 432/803/535 441/804/535
f 424/805/550 420/806/550 390/807/550
f 435/808/551 428/789/551 425/780/551
f 413/809/552 419/810/552 432/811/552
f 433/812/553 432/811/553 419/810/553
f 431/717/554 380/797/554 427/716/554
f 416/813/555 443/814/555 444/815/555
f 440/816/556 434/817/556 430/818/556
f 366/777/557 422/819/557 374/776/557
f 437/820/558 443/814/558 456/821/558
f 416/813/559 456/821/559 443/814/559
f 366/777/557 429/822/557 422/819/557
f 418/787/560 478/786/560 432/823/560
f 429/791/545 447/824/545 427/722/545
f 453/825/561 427/722/561 447/824/561
f 479/826/562 477/827/562 431/828/562
f 379/829/542 406/830/542 405/831/542
f 379/829/542 405/831/542 473/832/542
f 419/833/542 430/795/542 433/794/542
f 397/834/563 381/835/563 436/836/563
f 453/825/564 449/837/564 427/722/564
f 427/722/520 449/837/520 388/723/520
f 439/838/565 421/839/565 450/840/565
f 448/841/566 430/842/566 446/843/566
f 364/775/566 446/843/566 430/842/566
f 421/839/562 431/828/562 477/827/562
f 397/737/522 454/731/522 381/721/522
f 397/737/522 396/736/522 454/731/522
f 479/844/541 431/699/541 451/845/541
f 447/846/567 429/847/567 366/848/567
f 401/849/568 407/850/568 426/781/568
f 423/779/568 426/781/568 407/850/568
f 395/851/568 423/779/568 407/850/568
f 400/738/567 388/740/567 449/852/567
f 430/818/569 448/853/569 440/816/569
f 480/854/535 441/804/535 446/855/535
f 396/736/522 392/729/522 454/731/522
f 452/856/522 381/721/522 454/731/522
f 438/857/568 401/849/568 437/858/568
f 426/781/568 428/789/568 401/849/568
f 381/721/519 452/856/519 385/719/519
f 423/779/568 395/851/568 384/859/568
f 442/860/570 393/734/570 420/861/570
f 390/733/570 420/861/570 393/734/570
f 439/862/571 450/863/571 445/864/571
f 457/865/571 451/866/571 455/867/571
f 447/824/572 366/691/572 365/690/572
f 400/868/572 453/825/572 365/690/572
f 453/825/572 447/824/572 365/690/572
f 449/837/572 453/825/572 400/868/572
f 443/869/568 437/858/568 435/808/568
f 454/870/573 390/871/573 452/872/573
f 400/873/568 444/874/568 389/875/568
f 452/872/574 390/871/574 385/876/574
f 437/877/575 456/878/575 438/879/575
f 415/755/529 459/880/529 413/756/529
f 420/881/576 404/742/576 442/882/576
f 441/883/576 442/882/576 404/742/576
f 435/808/568 389/875/568 443/869/568
f 459/884/577 460/885/577 413/809/577
f 441/883/576 461/886/576 442/882/576
f 460/885/553 419/810/553 413/809/553
f 448/887/535 446/855/535 441/804/535
f 434/793/535 440/888/535 441/804/535
f 408/889/556 391/890/556 405/891/556
f 458/892/565 461/893/565 475/894/565
f 441/895/565 475/894/565 461/893/565
f 364/896/578 459/897/578 415/783/578
f 364/896/578 415/783/578 394/782/578
f 459/897/578 364/896/578 460/898/578
f 430/795/578 460/898/578 364/896/578
f 419/833/578 460/898/578 430/795/578
f 404/742/525 467/899/525 405/743/525
f 401/849/579 438/857/579 399/900/579
f 456/878/575 464/901/575 438/879/575
f 458/902/580 393/903/580 461/904/580
f 438/857/579 464/905/579 399/900/579
f 442/906/580 461/904/580 393/903/580
f 466/907/581 476/908/581 456/909/581
f 443/869/568 389/875/568 444/874/568
f 401/849/568 428/789/568 437/858/568
f 428/789/568 435/808/568 437/858/568
f 392/910/556 473/911/556 391/890/556
f 405/891/556 391/890/556 473/911/556
f 404/760/535 418/766/535 441/804/535
f 440/888/535 448/887/535 441/804/535
f 468/912/580 393/903/580 458/902/580
f 408/913/525 405/743/525 467/899/525
f 436/914/582 462/915/582 463/916/582
f 397/917/583 399/745/583 398/918/583
f 397/917/584 409/746/584 399/745/584
f 469/919/585 416/920/585 470/921/585
f 436/836/586 463/922/586 397/834/586
f 472/923/519 488/924/519 471/762/519
f 469/770/537 474/925/537 465/703/537
f 465/703/587 456/926/587 416/771/587
f 445/927/588 462/928/588 402/929/588
f 382/930/575 464/901/575 476/773/575
f 456/878/575 476/773/575 464/901/575
f 488/924/532 402/763/532 471/762/532
f 383/732/533 391/730/533 467/765/533
f 398/931/579 399/900/579 464/905/579
f 398/931/579 464/905/579 473/710/579
f 444/815/555 470/932/555 416/813/555
f 477/827/565 450/840/565 421/839/565
f 476/908/589 466/907/589 478/933/589
f 393/799/590 468/934/590 472/935/590
f 393/799/590 472/935/590 471/936/590
f 393/799/591 471/936/591 411/800/591
f 480/695/512 481/937/512 373/696/512
f 478/786/592 412/772/592 476/773/592
f 378/938/538 476/773/538 379/768/538
f 487/939/593 488/865/593 483/940/593
f 462/928/594 445/927/594 477/941/594
f 450/942/595 477/941/595 445/927/595
f 378/938/596 382/930/596 476/773/596
f 377/943/597 441/804/597 480/854/597
f 365/690/598 474/925/598 469/770/598
f 470/944/598 400/868/598 469/770/598
f 365/690/598 469/770/598 400/868/598
f 420/881/576 424/945/576 404/742/576
f 465/946/599 367/947/599 466/907/599
f 479/948/594 451/949/594 462/928/594
f 477/941/594 479/948/594 462/928/594
f 472/923/533 482/950/533 488/924/533
f 446/855/531 481/951/531 480/854/531
f 396/952/600 473/911/600 392/910/600
f 396/953/601 398/931/601 473/710/601
f 467/899/576 404/742/576 386/954/576
f 424/945/576 386/954/576 404/742/576
f 478/933/602 466/907/602 367/947/602
f 483/955/603 482/956/603 468/957/603
f 482/956/603 472/958/603 468/957/603
f 400/868/604 470/944/604 444/959/604
f 457/960/594 462/928/594 451/949/594
f 484/961/537 465/703/537 474/925/537
f 373/774/566 481/962/566 364/775/566
f 413/963/605 478/964/605 367/965/605
f 481/962/566 446/843/566 364/775/566
f 436/914/606 402/966/606 462/915/606
f 462/928/607 457/960/607 463/967/607
f 413/968/560 432/823/560 478/786/560
f 484/961/534 375/704/534 465/703/534
f 455/969/541 451/845/541 431/699/541
f 457/960/608 409/970/608 463/967/608
f 464/905/516 382/712/516 473/710/516
f 394/749/609 375/751/609 365/971/609
f 397/834/610 463/922/610 409/972/610
f 368/973/541 455/969/541 369/701/541
f 431/699/541 369/701/541 455/969/541
f 474/974/609 365/971/609 484/975/609
f 383/732/533 467/765/533 386/976/533
f 484/975/609 365/971/609 375/751/609
f 365/690/611 364/689/611 394/977/611
f 386/954/612 424/945/612 383/978/612
f 454/870/613 383/978/613 390/871/613
f 465/946/614 466/907/614 456/909/614
f 368/979/615 370/980/615 455/981/615
f 457/982/615 455/981/615 370/980/615
f 370/980/615 395/983/615 457/982/615
f 390/871/613 383/978/613 424/945/613
f 409/746/615 457/982/615 395/983/615
f 458/892/565 475/894/565 485/984/565
f 395/983/615 407/752/615 409/746/615
f 421/839/616 475/894/616 377/985/616
f 421/839/565 485/984/565 475/894/565
f 441/895/616 377/985/616 475/894/616
f 439/838/565 487/986/565 421/839/565
f 485/987/617 468/912/617 458/902/617
f 486/988/565 485/984/565 487/986/565
f 482/989/593 483/940/593 488/865/593
f 487/939/593 483/940/593 486/990/593
f 485/984/565 421/839/565 487/986/565
f 445/864/618 488/991/618 487/992/618
f 439/862/618 445/864/618 487/992/618
f 488/991/619 445/864/619 402/993/619
f 485/987/620 486/994/620 483/995/620
f 485/987/621 483/995/621 468/912/621
f 402/966/622 436/914/622 381/996/622
g trunk_3_base_obj_0.006
v 3.008200 0.000000 -1.368600
v 2.357000 0.000000 -1.858000
v 2.357000 0.000000 -2.295800
v 2.605800 0.000000 -1.503900
v 2.605800 0.000000 -2.650000
v 3.008200 0.000000 -2.785300
v 3.410700 0.000000 -1.503900
v 3.410700 0.000000 -2.650000
v 3.659400 0.000000 -2.295800
v 3.659400 0.000000 -1.858000
v 2.575665 -4.561108 -1.931506
v 2.574874 -4.544601 -2.023742
v 2.574260 -4.531731 -2.095665
v 2.573168 -4.508911 -2.223186
v 2.742966 -4.631540 -1.699287
v 2.734258 -4.627872 -1.711381
v 2.733488 -4.627549 -1.712448
v 2.693454 -4.610689 -1.768050
v 2.583650 -4.564468 -1.920433
v 2.638490 -4.587551 -1.844335
v 2.689045 -4.608832 -1.774173
v 2.639180 -4.587842 -1.843372
v 2.583054 -4.564218 -1.921254
v 2.733441 -4.496219 -2.452462
v 2.620761 -4.505137 -2.291295
v 2.738950 -4.495784 -2.460340
v 3.008200 -4.527034 -2.549266
v 3.030337 -4.532271 -2.541539
v 3.030348 -4.532273 -2.541538
v 3.033401 -4.532996 -2.540474
v 3.086265 -4.545502 -2.522032
v 2.999534 -4.526027 -2.546404
v 2.816581 -4.504790 -2.485996
v 3.075951 -4.700849 -1.636478
v 3.188696 -4.713697 -1.675048
v 3.190082 -4.713856 -1.675519
v 3.075602 -4.700810 -1.636355
v 3.008861 -4.693202 -1.613526
v 3.008200 -4.693129 -1.613296
v 3.008605 -4.693175 -1.613434
v 2.742932 -4.496245 -2.461659
v 2.783507 -4.500954 -2.475063
v 3.274704 -4.590070 -2.456366
v 3.096535 -4.547931 -2.518455
v 3.089486 -4.546264 -2.520909
v 3.270769 -4.723047 -1.703148
v 3.435048 -4.679643 -2.109434
v 3.435013 -4.680370 -2.105301
v 3.435989 -4.660053 -2.220753
v 3.435953 -4.660779 -2.216625
v 3.435368 -4.673023 -2.147056
v 3.433567 -4.710532 -1.933916
v 3.302589 -4.602170 -2.415625
v 3.322255 -4.610704 -2.386896
v 3.322986 -4.611020 -2.385832
v 3.429781 -4.657358 -2.229825
v 3.271650 -4.722980 -1.704395
v 3.341335 -4.717624 -1.803161
v 3.383388 -4.714392 -1.862771
v 3.271316 -4.723004 -1.703925
v 3.409285 -4.712400 -1.899486
v 3.409015 -4.712421 -1.899099
v 3.390383 -4.713855 -1.872684
v 3.390036 -4.713880 -1.872197
v 2.927916 -4.674484 -1.639339
v 2.850594 -4.656530 -1.664400
v 2.830122 -4.651777 -1.671038
v 2.851676 -4.656782 -1.664049
vn -0.9989 -0.0479 -0.0000
vn -0.8175 -0.0484 0.5740
vn -0.8169 -0.0484 0.5748
vn -0.8175 -0.0484 0.5739
vn -0.8172 -0.0484 0.5742
vn -0.8185 -0.0485 0.5725
vn -0.8156 -0.0484 0.5767
vn -0.8173 -0.0484 -0.5741
vn -0.8175 -0.0484 -0.5739
vn 0.3183 -0.0494 -0.9467
vn 0.3186 -0.0494 -0.9466
vn -0.3183 -0.0494 -0.9467
vn 0.3167 -0.0493 0.9473
vn 0.3182 -0.0494 0.9467
vn 0.3175 -0.0494 0.9470
vn 0.3276 -0.0491 0.9435
vn 0.3348 -0.0491 0.9410
vn -0.3192 -0.0494 -0.9464
vn -0.3187 -0.0494 -0.9466
vn -0.3184 -0.0494 -0.9467
vn 0.3179 -0.0494 -0.9468
vn 0.3184 -0.0494 -0.9467
vn 0.9989 -0.0479 -0.0000
vn 0.9989 -0.0479 0.0001
vn 0.8175 -0.0484 -0.5739
vn 0.8165 -0.0485 -0.5752
vn 0.8174 -0.0484 -0.5740
vn 0.8175 -0.0484 -0.5738
vn 0.8174 -0.0484 0.5741
vn 0.8174 -0.0484 0.5740
vn 0.8155 -0.0485 0.5767
vn 0.8213 -0.0486 0.5684
vn 0.8175 -0.0484 0.5739
vn 0.8152 -0.0483 0.5771
vn -0.3185 -0.0494 0.9466
vn -0.3184 -0.0494 0.9467
vn -0.3191 -0.0493 0.9464
vn -0.3183 -0.0494 0.9467
vn -0.0000 1.0000 -0.0000
vn 0.9989 -0.0479 0.0004
vn 0.8181 -0.0484 0.5730
vn 0.3182 -0.0494 -0.9467
vn 0.3185 -0.0494 0.9466
vn 0.3187 -0.0494 -0.9466
vn -0.8173 -0.0484 -0.5742
vn -0.8173 -0.0484 0.5742
vn -0.8172 -0.0484 0.5743
vt 0.837981 0.525316
vt 0.840301 0.523921
vt 0.910389 0.729150
vt 0.171441 0.509203
vt 0.179111 0.727871
vt 0.170733 0.509398
vt 0.170670 0.509415
vt 0.167414 0.510313
vt 0.158488 0.512774
vt 0.162946 0.511545
vt 0.158455 0.728511
vt 0.167056 0.510412
vt 0.163002 0.511530
vt 0.158440 0.512788
vt 0.830189 0.529293
vt 0.890909 0.736098
vt 0.821484 0.532850
vt 0.833867 0.527790
vt 0.950186 0.174318
vt 0.963775 0.385698
vt 0.950054 0.174307
vt 0.947757 0.174125
vt 0.809892 0.535767
vt 0.810251 0.535679
vt 0.874892 0.742329
vt 0.466895 0.472821
vt 0.453172 0.698341
vt 0.466835 0.472821
vt 0.461983 0.472813
vt 0.436126 0.696132
vt 0.459119 0.472809
vt 0.459091 0.472809
vt 0.459108 0.472809
vt 0.461998 0.472813
vt 0.821058 0.533024
vt 0.820893 0.533064
vt 0.817838 0.533815
vt 0.819210 0.533478
vt 0.947311 0.174090
vt 0.947617 0.174114
vt 0.490317 0.475490
vt 0.490195 0.699098
vt 0.490164 0.475459
vt 0.491715 0.475774
vt 0.494298 0.476300
vt 0.939572 0.173477
vt 0.946559 0.388756
vt 0.937206 0.172906
vt 0.935537 0.172503
vt 0.935475 0.172488
vt 0.925888 0.170175
vt 0.926414 0.170302
vt 0.925888 0.388727
vt 0.476184 0.473406
vt 0.473821 0.699474
vt 0.470430 0.472834
vt 0.479656 0.473752
vt 0.470403 0.472831
vt 0.481794 0.473964
vt 0.481772 0.473962
vt 0.483800 0.474164
vt 0.480233 0.473809
vt 0.480205 0.473806
vt 0.179268 0.507611
vt 0.182667 0.506921
vt 0.196415 0.728827
vt 0.175996 0.508277
vt 0.175129 0.508453
vt 0.176042 0.508267
vt 0.420797 0.706493
vt 0.420793 0.760765
vt 0.408776 0.723646
vt 0.408777 0.744378
vt 0.440246 0.699474
vt 0.459692 0.705259
vt 0.471712 0.721649
vt 0.471712 0.742375
vt 0.459691 0.759527
vt 0.440243 0.766553
vt 0.494451 0.476331
vt 0.470358 0.472827
vt 0.950186 0.174318
vt 0.951148 0.174394
vt 0.925888 0.724142
vt 0.843277 0.522132
vt 0.157839 0.512953
s 0
usemtl color_8273816.002
f 501/997/623 500/998/623 491/999/623
f 503/1000/624 492/1001/624 504/1002/624
f 505/1003/625 504/1002/625 492/1001/625
f 506/1004/626 505/1003/626 492/1001/626
f 507/1005/627 508/1006/627 490/1007/627
f 506/1004/626 492/1001/626 509/1008/626
f 508/1006/628 510/1009/628 490/1007/628
f 511/1010/629 507/1005/629 490/1007/629
f 513/1011/630 491/999/630 493/1012/630 512/1013/630
f 502/1014/631 491/999/631 513/1011/631
f 517/1015/632 494/1016/632 518/1017/632
f 519/1018/633 518/1017/633 494/1016/633
f 515/1019/634 520/1020/634 494/1021/634
f 524/1022/635 495/1023/635 523/1024/635
f 525/1025/636 489/1026/636 526/1027/636
f 527/1028/637 528/1029/637 489/1026/637
f 522/1030/638 489/1026/638 525/1025/638
f 526/1027/639 489/1026/639 528/1029/639
f 514/1031/640 493/1012/640 529/1032/640
f 521/1033/641 530/1034/641 493/1012/641
f 529/1032/642 493/1012/642 530/1034/642
f 532/1035/643 533/1036/643 494/1016/643
f 519/1018/644 494/1016/644 533/1036/644
f 535/1037/645 497/1038/645 536/1039/645
f 539/1040/646 497/1038/646 535/1037/646
f 538/1041/645 497/1038/645 539/1040/645
f 531/1042/647 496/1043/647 541/1044/647
f 542/1045/648 496/1043/648 543/1046/648
f 542/1045/649 541/1044/649 496/1043/649
f 537/1047/650 544/1048/650 497/1049/650
f 546/1050/651 498/1051/651 495/1023/651 545/1052/651
f 547/1053/652 498/1051/652 546/1050/652
f 548/1054/653 545/1052/653 495/1023/653
f 549/1055/654 498/1051/654 550/1056/654
f 540/1057/655 498/1051/655 549/1055/655
f 551/1058/652 550/1056/652 498/1051/652
f 547/1053/652 552/1059/652 498/1051/652
f 551/1058/656 498/1051/656 552/1059/656
f 553/1060/657 527/1061/657 489/1062/657
f 554/1063/658 489/1062/658 555/1064/658
f 556/1065/659 489/1062/659 554/1063/659
f 553/1060/660 489/1062/660 556/1065/660
f 490/1066/661 494/1067/661 491/1068/661
f 493/1069/661 491/1068/661 494/1067/661
f 494/1067/661 490/1066/661 492/1070/661
f 494/1067/661 492/1070/661 489/1071/661
f 494/1067/661 489/1071/661 495/1072/661
f 494/1067/661 495/1072/661 498/1073/661
f 494/1067/661 498/1073/661 497/1074/661
f 494/1067/661 497/1074/661 496/1075/661
f 496/1043/649 497/1049/649 544/1048/649 543/1046/649
f 497/1038/662 538/1041/662 537/1076/662
f 498/1051/645 540/1057/645 536/1039/645 497/1038/645
f 495/1023/663 534/1077/663 548/1054/663
f 496/1043/664 531/1042/664 532/1035/664 494/1016/664
f 495/1023/665 524/1022/665 534/1077/665
f 489/1026/636 522/1030/636 523/1024/636 495/1023/636
f 493/1012/634 494/1021/634 520/1020/634 521/1033/634
f 494/1016/666 516/1078/666 515/1079/666
f 493/1012/667 514/1031/667 512/1013/667
f 492/1001/668 490/1007/668 510/1009/668 509/1008/668
f 492/1001/660 503/1000/660 555/1064/660 489/1062/660
f 491/999/623 502/1014/623 501/997/623
f 490/1080/623 491/999/623 500/998/623 499/1081/623
f 490/1007/669 499/1082/669 511/1010/669
