# Blender 5.1.1
# www.blender.org
mtllib truck-tire-v2.mtl
g tire_Cylinder.001
v 0.012401 0.088185 -0.461495
v 0.131620 -0.000000 -0.104041
v 0.012401 0.186629 -0.465790
v 0.131620 -0.020297 -0.102042
v 0.012401 0.259788 -0.393790
v 0.131620 -0.039815 -0.096121
v 0.012401 0.350673 -0.358914
v 0.131620 -0.057802 -0.086507
v 0.012401 0.391841 -0.266134
v 0.131620 -0.073568 -0.073568
v 0.012401 0.461330 -0.197397
v 0.131620 -0.086507 -0.057802
v 0.012401 0.464239 -0.097961
v 0.131620 -0.096121 -0.039815
v 0.012401 0.501754 -0.005828
v 0.131620 -0.102042 -0.020297
v 0.012401 0.465962 0.085125
v 0.131620 -0.104041 0.000000
v 0.012401 0.465790 0.186629
v 0.131620 -0.102042 0.020297
v 0.012401 0.396746 0.255251
v 0.131620 -0.096121 0.039815
v 0.012401 0.358914 0.350673
v 0.131620 -0.086507 0.057802
v 0.012401 0.267129 0.386518
v 0.131620 -0.073568 0.073568
v 0.012401 0.197397 0.461330
v 0.131620 -0.057802 0.086507
v 0.012401 0.096843 0.458941
v 0.131620 -0.039815 0.096121
v 0.012401 0.005828 0.501754
v 0.131620 -0.020297 0.102042
v 0.012401 -0.088185 0.461495
v 0.131620 0.000000 0.104041
v 0.012401 -0.186629 0.465790
v 0.131620 0.020297 0.102042
v 0.012401 -0.259788 0.393790
v 0.131620 0.039815 0.096121
v 0.012401 -0.350673 0.358914
v 0.131620 0.057802 0.086507
v 0.012401 -0.391841 0.266134
v 0.131620 0.073568 0.073568
v 0.012401 -0.461330 0.197397
v 0.131620 0.086507 0.057802
v 0.012401 -0.464239 0.097961
v 0.131620 0.096121 0.039815
v 0.012401 -0.501754 0.005828
v 0.131620 0.102042 0.020297
v 0.012401 -0.465962 -0.085125
v 0.131620 0.104041 -0.000000
v 0.012401 -0.465790 -0.186629
v 0.131620 0.102042 -0.020297
v 0.012401 -0.396746 -0.255251
v 0.131620 0.096121 -0.039815
v 0.012401 -0.358914 -0.350673
v 0.131620 0.086507 -0.057802
v 0.012401 -0.267129 -0.386518
v 0.131620 0.073568 -0.073568
v 0.012401 -0.005828 -0.501754
v 0.131620 0.057802 -0.086507
v 0.012401 -0.197397 -0.461330
v 0.131620 0.039815 -0.096121
v 0.012401 -0.096843 -0.458941
v 0.131620 0.020297 -0.102042
v 0.168150 -0.097894 -0.492146
v 0.168150 -0.000000 -0.469048
v 0.168150 -0.181569 -0.433344
v 0.168150 -0.278778 -0.417221
v 0.168150 -0.335496 -0.331667
v 0.168150 -0.417221 -0.278778
v 0.168150 -0.438346 -0.179497
v 0.168150 -0.492146 -0.097894
v 0.168150 -0.474463 0.000000
v 0.168150 -0.492146 0.097894
v 0.168150 -0.438346 0.179497
v 0.168150 -0.417221 0.278778
v 0.168150 -0.335496 0.331667
v 0.168150 -0.278778 0.417221
v 0.168150 -0.181569 0.433344
v 0.168150 -0.097894 0.492146
v 0.168150 -0.000000 0.469048
v 0.168150 0.097894 0.492146
v 0.168150 0.181569 0.433344
v 0.168150 0.278778 0.417221
v 0.168150 0.335496 0.331667
v 0.168150 0.417221 0.278778
v 0.168150 0.438346 0.179497
v 0.168150 0.492146 0.097894
v 0.168150 0.474463 0.000000
v 0.168150 0.492146 -0.097894
v 0.168150 0.438346 -0.179497
v 0.168150 0.417221 -0.278778
v 0.168150 0.335496 -0.331667
v 0.168150 0.278778 -0.417221
v 0.168150 0.181569 -0.433344
v 0.168150 0.097894 -0.492146
v 0.230067 -0.084918 -0.426910
v 0.230067 -0.000000 -0.435274
v 0.230067 -0.166572 -0.402141
v 0.230067 -0.241825 -0.361917
v 0.230067 -0.307785 -0.307785
v 0.230067 -0.361917 -0.241825
v 0.230067 -0.402141 -0.166572
v 0.230067 -0.426910 -0.084918
v 0.230067 -0.435274 0.000000
v 0.230067 -0.426910 0.084918
v 0.230067 -0.402141 0.166572
v 0.230067 -0.361917 0.241825
v 0.230067 -0.307785 0.307785
v 0.230067 -0.241825 0.361917
v 0.230067 -0.166572 0.402141
v 0.230067 -0.084918 0.426910
v 0.230067 -0.000000 0.435274
v 0.230067 0.084918 0.426910
v 0.230067 0.166572 0.402141
v 0.230067 0.241825 0.361917
v 0.230067 0.307785 0.307785
v 0.230067 0.361917 0.241825
v 0.230067 0.402141 0.166572
v 0.230067 0.426910 0.084918
v 0.230067 0.435274 0.000000
v 0.230067 0.426910 -0.084918
v 0.230067 0.402141 -0.166572
v 0.230067 0.361917 -0.241825
v 0.230067 0.307785 -0.307785
v 0.230067 0.241825 -0.361917
v 0.230067 0.166572 -0.402141
v 0.230067 0.084918 -0.426910
v 0.167210 -0.057623 -0.289692
v 0.167210 -0.000000 -0.295368
v 0.167210 -0.113032 -0.272884
v 0.167210 -0.164098 -0.245589
v 0.167210 -0.208857 -0.208857
v 0.167210 -0.245589 -0.164098
v 0.167209 -0.272884 -0.113032
v 0.167209 -0.289692 -0.057623
v 0.167209 -0.295368 0.000000
v 0.167209 -0.289692 0.057623
v 0.167209 -0.272884 0.113032
v 0.167210 -0.245589 0.164098
v 0.167210 -0.208857 0.208857
v 0.167210 -0.164098 0.245589
v 0.167210 -0.113032 0.272884
v 0.167210 -0.057623 0.289692
v 0.167210 -0.000000 0.295368
v 0.167210 0.057623 0.289692
v 0.167210 0.113032 0.272884
v 0.167210 0.164098 0.245589
v 0.167210 0.208857 0.208857
v 0.167210 0.245589 0.164098
v 0.167210 0.272884 0.113032
v 0.167210 0.289692 0.057623
v 0.167210 0.295368 0.000000
v 0.167210 0.289692 -0.057623
v 0.167210 0.272884 -0.113032
v 0.167210 0.245589 -0.164098
v 0.167210 0.208857 -0.208857
v 0.167210 0.164098 -0.245589
v 0.167210 0.113032 -0.272884
v 0.167210 0.057623 -0.289692
v 0.111839 -0.047212 -0.233858
v 0.111839 0.000000 -0.238439
v 0.111839 -0.171122 -0.168602
v 0.111839 -0.134450 -0.198255
v 0.111839 -0.201218 -0.132470
v 0.111839 -0.242003 0.000000
v 0.111839 -0.237353 -0.046517
v 0.111839 -0.237353 0.046517
v 0.111839 -0.171122 0.168602
v 0.111839 -0.201218 0.132470
v 0.111839 -0.134450 0.198255
v 0.111839 0.000000 0.238439
v 0.111839 -0.047212 0.233858
v 0.111839 0.047212 0.233858
v 0.111839 0.171122 0.168602
v 0.111839 0.134450 0.198255
v 0.111839 0.201218 0.132470
v 0.111839 0.242003 0.000000
v 0.111839 0.237353 0.046517
v 0.111839 0.237353 -0.046517
v 0.111839 0.171122 -0.168602
v 0.111839 0.201218 -0.132470
v 0.111839 0.134450 -0.198255
v 0.111839 0.047212 -0.233858
v 0.052075 -0.028696 -0.144267
v 0.052075 0.000000 -0.147093
v 0.052075 -0.104011 -0.104011
v 0.052075 -0.081721 -0.122304
v 0.052075 -0.122304 -0.081721
v 0.052075 -0.147093 0.000000
v 0.052075 -0.144267 -0.028696
v 0.052075 -0.144267 0.028696
v 0.052075 -0.104011 0.104011
v 0.052075 -0.122304 0.081721
v 0.052075 -0.081721 0.122304
v 0.052075 0.000000 0.147093
v 0.052075 -0.028696 0.144267
v 0.052075 0.028696 0.144267
v 0.052075 0.104011 0.104011
v 0.052075 0.081721 0.122304
v 0.052075 0.122304 0.081721
v 0.052075 0.147093 0.000000
v 0.052075 0.144267 0.028696
v 0.052075 0.144267 -0.028696
v 0.052075 0.104011 -0.104011
v 0.052075 0.122304 -0.081721
v 0.052075 0.081721 -0.122304
v 0.052075 0.028696 -0.144267
v 0.107446 -0.028696 -0.144267
v 0.107446 -0.000000 -0.147093
v 0.107446 -0.056290 -0.135896
v 0.107446 -0.081721 -0.122304
v 0.107446 -0.104011 -0.104011
v 0.107446 -0.122304 -0.081721
v 0.107446 -0.135896 -0.056290
v 0.107446 -0.144267 -0.028696
v 0.107446 -0.147093 0.000000
v 0.107446 -0.144267 0.028696
v 0.107446 -0.135896 0.056290
v 0.107446 -0.122304 0.081721
v 0.107446 -0.104011 0.104011
v 0.107446 -0.081721 0.122304
v 0.107446 -0.056290 0.135896
v 0.107446 -0.028696 0.144267
v 0.107446 -0.000000 0.147093
v 0.107446 0.028696 0.144267
v 0.107446 0.056290 0.135896
v 0.107446 0.081721 0.122304
v 0.107446 0.104011 0.104011
v 0.107446 0.122304 0.081721
v 0.107446 0.135896 0.056290
v 0.107446 0.144267 0.028696
v 0.107446 0.147093 0.000000
v 0.107446 0.144267 -0.028696
v 0.107446 0.135896 -0.056290
v 0.107446 0.122304 -0.081721
v 0.107446 0.104011 -0.104011
v 0.107446 0.081721 -0.122304
v 0.107446 0.056290 -0.135896
v 0.107446 0.028696 -0.144267
v -0.230688 0.000000 -0.395826
v -0.143348 0.000000 -0.469048
v -0.230688 -0.077222 -0.388221
v -0.143348 -0.097894 -0.492146
v -0.230688 -0.151476 -0.365696
v -0.143348 -0.181569 -0.433344
v -0.230688 -0.219909 -0.329118
v -0.143348 -0.278778 -0.417221
v -0.230688 -0.279891 -0.279891
v -0.143348 -0.335496 -0.331667
v -0.230688 -0.329117 -0.219909
v -0.143348 -0.417221 -0.278778
v -0.230688 -0.365696 -0.151476
v -0.143348 -0.438346 -0.179497
v -0.230688 -0.388221 -0.077222
v -0.143348 -0.492146 -0.097894
v -0.230688 -0.395826 -0.000000
v -0.143348 -0.474463 0.000000
v -0.230688 -0.388221 0.077222
v -0.143348 -0.492146 0.097894
v -0.230688 -0.365696 0.151476
v -0.143348 -0.438346 0.179497
v -0.230688 -0.329117 0.219909
v -0.143348 -0.417221 0.278778
v -0.230688 -0.279891 0.279891
v -0.143348 -0.335496 0.331667
v -0.230688 -0.219909 0.329118
v -0.143348 -0.278778 0.417221
v -0.230688 -0.151476 0.365696
v -0.143348 -0.181569 0.433344
v -0.230688 -0.077222 0.388221
v -0.143348 -0.097894 0.492146
v -0.230688 0.000000 0.395826
v -0.143348 0.000000 0.469048
v -0.230688 0.077222 0.388221
v -0.143348 0.097894 0.492146
v -0.230688 0.151476 0.365696
v -0.143348 0.181569 0.433344
v -0.230688 0.219909 0.329117
v -0.143348 0.278778 0.417221
v -0.230688 0.279891 0.279891
v -0.143348 0.335496 0.331667
v -0.230688 0.329117 0.219909
v -0.143348 0.417221 0.278778
v -0.230688 0.365696 0.151476
v -0.143348 0.438346 0.179497
v -0.230688 0.388221 0.077222
v -0.143348 0.492146 0.097894
v -0.230688 0.395826 0.000000
v -0.143348 0.474463 0.000000
v -0.230688 0.388221 -0.077222
v -0.143348 0.492146 -0.097894
v -0.230688 0.365696 -0.151476
v -0.143348 0.438346 -0.179497
v -0.230688 0.329117 -0.219909
v -0.143348 0.417221 -0.278778
v -0.230688 0.279891 -0.279891
v -0.143348 0.335496 -0.331667
v -0.230688 0.219909 -0.329117
v -0.143348 0.278778 -0.417221
v -0.230688 0.151476 -0.365696
v -0.143348 0.181569 -0.433344
v -0.230688 0.077222 -0.388221
v -0.143348 0.097894 -0.492146
vn 0.2061 0.1246 -0.9706
vn -0.2061 -0.3224 -0.9239
vn -0.1982 -0.6438 -0.7391
vn 0.2054 -0.2595 -0.9436
vn -0.1864 -0.8708 -0.4549
vn 0.1962 -0.6153 -0.7635
vn -0.1772 -0.9787 -0.1038
vn 0.1838 -0.8724 -0.4529
vn -0.1759 -0.9453 0.2746
vn 0.1759 -0.9817 -0.0735
vn -0.1838 -0.7601 0.6233
vn 0.1772 -0.9362 0.3036
vn -0.1962 -0.4444 0.8741
vn 0.1864 -0.7581 0.6249
vn -0.2054 -0.0591 0.9769
vn 0.1982 -0.4773 0.8561
vn -0.2061 0.3224 0.9239
vn 0.2061 -0.1246 0.9706
vn -0.1982 0.6438 0.7391
vn 0.2054 0.2595 0.9436
vn -0.1864 0.8708 0.4549
vn 0.1962 0.6153 0.7635
vn -0.1772 0.9787 0.1038
vn 0.1838 0.8724 0.4529
vn -0.1759 0.9453 -0.2746
vn 0.1759 0.9817 0.0735
vn -0.1838 0.7601 -0.6233
vn 0.1772 0.9362 -0.3036
vn -0.1962 0.4444 -0.8741
vn 1.0000 -0.0000 -0.0000
vn 0.1864 0.7581 -0.6249
vn -0.2054 0.0591 -0.9769
vn 0.1982 0.4773 -0.8561
vn 0.6192 0.0631 -0.7827
vn 0.6232 -0.3528 -0.6979
vn 0.6220 -0.2432 -0.7443
vn 0.6314 -0.5826 -0.5117
vn 0.6300 -0.5114 -0.5845
vn 0.6390 -0.7257 -0.2551
vn 0.6381 -0.6938 -0.3339
vn 0.6418 -0.7659 0.0390
vn 0.6418 -0.7659 -0.0390
vn 0.6381 -0.6938 0.3339
vn 0.6390 -0.7257 0.2551
vn 0.6300 -0.5114 0.5845
vn 0.6314 -0.5826 0.5117
vn 0.6220 -0.2432 0.7443
vn 0.6232 -0.3528 0.6979
vn 0.6192 0.0631 0.7827
vn 0.6192 -0.0631 0.7827
vn 0.6232 0.3528 0.6979
vn 0.6220 0.2432 0.7443
vn 0.6314 0.5826 0.5117
vn 0.6300 0.5114 0.5845
vn 0.6390 0.7257 0.2551
vn 0.6381 0.6938 0.3339
vn 0.6418 0.7659 -0.0390
vn 0.6418 0.7659 0.0390
vn 0.6381 0.6938 -0.3339
vn 0.6390 0.7257 -0.2551
vn 0.6300 0.5114 -0.5845
vn 0.6314 0.5826 -0.5117
vn 0.6220 0.2432 -0.7443
vn 0.6232 0.3528 -0.6979
vn 0.6192 -0.0631 -0.7827
vn 0.9114 0.0403 0.4095
vn 0.9114 0.1194 0.3938
vn 0.9114 0.1940 0.3629
vn 0.9114 0.2610 0.3181
vn 0.9114 0.3181 0.2610
vn 0.9114 0.3629 0.1940
vn 0.9114 0.3938 0.1194
vn 0.9114 0.4095 0.0403
vn 0.9114 0.4095 -0.0403
vn 0.9114 0.3938 -0.1194
vn 0.9114 0.3629 -0.1940
vn 0.9114 0.3181 -0.2610
vn 0.9114 0.2610 -0.3181
vn 0.9114 0.1940 -0.3629
vn 0.9114 0.1194 -0.3938
vn 0.9114 0.0403 -0.4095
vn 0.9114 -0.0403 -0.4095
vn 0.9114 -0.1194 -0.3938
vn 0.9114 -0.1940 -0.3629
vn 0.9114 -0.2610 -0.3181
vn 0.9114 -0.3181 -0.2610
vn 0.9114 -0.3629 -0.1940
vn 0.9114 -0.3938 -0.1194
vn 0.9114 -0.4095 -0.0403
vn 0.9114 -0.4095 0.0403
vn 0.9114 -0.3938 0.1194
vn 0.9114 -0.3629 0.1940
vn 0.9114 -0.3181 0.2610
vn 0.9114 -0.2610 0.3181
vn 0.9114 -0.1940 0.3629
vn 0.9114 -0.1194 0.3938
vn 0.9114 -0.0403 0.4095
vn -0.0000 -0.7730 -0.6344
vn 0.9269 0.1090 0.3592
vn 0.9269 0.1770 0.3311
vn 0.0099 0.1876 0.9822
vn 0.7017 -0.5492 0.4538
vn 0.9269 0.3311 0.1770
vn 0.9269 0.3592 0.1090
vn 0.7150 0.0681 0.6958
vn -0.0000 -0.6344 -0.7730
vn 0.9269 0.3592 -0.1090
vn 0.9269 0.3311 -0.1770
vn -0.0240 0.5398 0.8415
vn -0.0000 0.0980 0.9952
vn 0.9269 0.1770 -0.3311
vn 0.9269 0.1090 -0.3592
vn 0.7062 0.4474 -0.5487
vn -0.0000 -0.0980 0.9952
vn 0.9269 -0.1090 -0.3592
vn 0.9269 -0.1770 -0.3311
vn 0.0099 0.1876 -0.9822
vn -0.0000 0.6344 -0.7730
vn 0.9269 -0.3311 -0.1770
vn 0.9269 -0.3592 -0.1090
vn 0.0099 -0.1876 -0.9822
vn 0.7017 0.5492 -0.4538
vn 0.9269 -0.3592 0.1090
vn 0.9269 -0.3311 0.1770
vn 0.6924 -0.7180 0.0712
vn -0.0000 0.7730 -0.6344
vn 0.9269 -0.1770 0.3311
vn 0.9269 -0.1090 0.3592
vn -0.0000 -0.0980 -0.9952
vn 0.8357 0.0533 0.5466
vn 0.8395 0.3428 0.4216
vn 0.8413 0.4163 0.3448
vn 0.8450 0.5322 0.0529
vn 0.8450 0.5322 -0.0529
vn 0.8413 0.4163 -0.3448
vn 0.8395 0.3428 -0.4216
vn 0.8357 0.0533 -0.5466
vn 0.8357 -0.0533 -0.5466
vn 0.8395 -0.3428 -0.4216
vn 0.8413 -0.4163 -0.3448
vn 0.8450 -0.5322 -0.0529
vn 0.8450 -0.5322 0.0529
vn 0.8413 -0.4163 0.3448
vn 0.8395 -0.3428 0.4216
vn 0.8357 -0.0533 0.5466
vn -0.0000 0.0980 -0.9952
vn 0.7062 -0.4474 0.5487
vn 0.7150 0.0681 -0.6958
vn 0.0244 -0.8205 -0.5711
vn -0.0240 -0.5398 -0.8415
vn -0.0000 0.6344 0.7730
vn 0.7150 -0.0681 -0.6958
vn 0.7062 0.4474 0.5487
vn -0.0102 0.9792 -0.2029
vn -0.0000 0.7730 0.6344
vn -0.0102 0.9792 0.2029
vn -0.0000 -0.9952 -0.0980
vn 0.7017 0.5492 0.4538
vn 0.7150 -0.0681 0.6958
vn 0.0244 0.8205 0.5711
vn -0.0000 -0.9952 0.0980
vn 0.0244 -0.8205 0.5711
vn 0.7062 -0.4474 -0.5487
vn -0.0102 -0.9792 0.2029
vn -0.0102 -0.9792 -0.2029
vn -0.0000 0.9952 0.0980
vn 0.7017 -0.5492 -0.4538
vn 0.6924 0.7180 0.0712
vn -0.0240 0.5398 -0.8415
vn -0.0000 0.9952 -0.0980
vn 0.0244 0.8205 -0.5711
vn -0.0000 -0.7730 0.6344
vn 0.6924 0.7180 -0.0712
vn -0.0000 -0.6344 0.7730
vn 0.0099 -0.1876 0.9822
vn 0.6924 -0.7180 -0.0712
vn -0.0240 -0.5398 0.8415
vn 0.8709 -0.0482 -0.4890
vn 0.8709 -0.1426 -0.4702
vn 0.8709 -0.2316 -0.4334
vn 0.8709 -0.3117 -0.3799
vn 0.8709 -0.3799 -0.3117
vn 0.8709 -0.4334 -0.2316
vn 0.8709 -0.4702 -0.1426
vn 0.8709 -0.4890 -0.0482
vn 0.8709 -0.4890 0.0482
vn 0.8709 -0.4702 0.1426
vn 0.8709 -0.4334 0.2316
vn 0.8709 -0.3799 0.3117
vn 0.8709 -0.3117 0.3799
vn 0.8709 -0.2316 0.4334
vn 0.8709 -0.1426 0.4702
vn 0.8709 -0.0482 0.4890
vn 0.8709 0.0482 0.4890
vn 0.8709 0.1426 0.4702
vn 0.8709 0.2316 0.4334
vn 0.8709 0.3117 0.3799
vn 0.8709 0.3799 0.3117
vn 0.8709 0.4334 0.2316
vn 0.8709 0.4702 0.1426
vn 0.8709 0.4890 0.0482
vn 0.8709 0.4890 -0.0482
vn 0.8709 0.4702 -0.1426
vn 0.8709 0.4334 -0.2316
vn 0.8709 0.3799 -0.3117
vn 0.8709 0.3117 -0.3799
vn 0.8709 0.2316 -0.4334
vn 0.8709 0.1426 -0.4702
vn 0.8709 0.0482 -0.4890
vn -0.7070 0.0623 -0.7044
vn -0.7093 -0.3227 -0.6267
vn -0.7085 -0.2139 -0.6724
vn -0.7139 -0.5294 -0.4583
vn -0.7130 -0.4578 -0.5311
vn -0.7182 -0.6580 -0.2264
vn -0.7176 -0.6255 -0.3063
vn -0.7197 -0.6931 0.0399
vn -0.7197 -0.6931 -0.0399
vn -0.7176 -0.6255 0.3063
vn -0.7182 -0.6580 0.2264
vn -0.7130 -0.4578 0.5311
vn -0.7139 -0.5294 0.4583
vn -0.7085 -0.2139 0.6724
vn -0.7093 -0.3227 0.6267
vn -0.7070 0.0623 0.7044
vn -0.7070 -0.0623 0.7044
vn -0.7093 0.3227 0.6267
vn -0.7085 0.2139 0.6724
vn -0.7139 0.5294 0.4583
vn -0.7130 0.4578 0.5311
vn -0.7182 0.6580 0.2264
vn -0.7176 0.6255 0.3063
vn -0.7197 0.6931 -0.0399
vn -0.7197 0.6931 0.0399
vn -0.7176 0.6255 -0.3063
vn -0.7182 0.6580 -0.2264
vn -0.7130 0.4578 -0.5311
vn -0.7139 0.5294 -0.4583
vn -0.7085 0.2139 -0.6724
vn -0.7093 0.3227 -0.6267
vn -0.7070 -0.0623 -0.7044
vn -1.0000 -0.0000 -0.0000
vn -0.2061 0.1246 -0.9706
vn 0.2061 -0.3224 -0.9239
vn 0.1982 -0.6438 -0.7391
vn -0.2054 -0.2595 -0.9436
vn 0.1864 -0.8708 -0.4549
vn -0.1962 -0.6153 -0.7635
vn 0.1772 -0.9787 -0.1038
vn -0.1838 -0.8724 -0.4529
vn 0.1759 -0.9453 0.2746
vn -0.1759 -0.9817 -0.0735
vn 0.1838 -0.7601 0.6233
vn -0.1772 -0.9362 0.3036
vn 0.1962 -0.4444 0.8741
vn -0.1864 -0.7581 0.6249
vn 0.2054 -0.0591 0.9769
vn -0.1982 -0.4773 0.8561
vn 0.2061 0.3224 0.9239
vn -0.2061 -0.1246 0.9706
vn 0.1982 0.6438 0.7391
vn -0.2054 0.2595 0.9436
vn 0.1864 0.8708 0.4549
vn -0.1962 0.6153 0.7635
vn 0.1772 0.9787 0.1038
vn -0.1838 0.8724 0.4529
vn 0.1759 0.9453 -0.2746
vn -0.1759 0.9817 0.0735
vn 0.1838 0.7601 -0.6233
vn -0.1772 0.9362 -0.3036
vn 0.1962 0.4444 -0.8741
vn -0.1864 0.7581 -0.6249
vn 0.2054 0.0591 -0.9769
vn -0.1982 0.4773 -0.8561
vt 1.000000 0.536714
vt 1.000000 0.768357
vt 0.968750 0.768357
vt 0.968750 0.536714
vt 0.031250 0.536714
vt 0.031250 0.768357
vt 0.000000 0.768357
vt 0.000000 0.536714
vt 0.937500 0.768357
vt 0.937500 0.536714
vt 0.906250 0.768357
vt 0.906250 0.536714
vt 0.875000 0.768357
vt 0.875000 0.536714
vt 0.843750 0.768357
vt 0.843750 0.536714
vt 0.812500 0.768357
vt 0.812500 0.536714
vt 0.781250 0.768357
vt 0.781250 0.536714
vt 0.750000 0.768357
vt 0.750000 0.536714
vt 0.718750 0.768357
vt 0.718750 0.536714
vt 0.687500 0.768357
vt 0.687500 0.536714
vt 0.656250 0.768357
vt 0.656250 0.536714
vt 0.625000 0.768357
vt 0.625000 0.536714
vt 0.593750 0.768357
vt 0.593750 0.536714
vt 0.562500 0.768357
vt 0.562500 0.536714
vt 0.531250 0.768357
vt 0.531250 0.536714
vt 0.500000 0.768357
vt 0.500000 0.536714
vt 0.468750 0.768357
vt 0.468750 0.536714
vt 0.437500 0.768357
vt 0.437500 0.536714
vt 0.406250 0.768357
vt 0.406250 0.536714
vt 0.375000 0.768357
vt 0.375000 0.536714
vt 0.343750 0.768357
vt 0.343750 0.536714
vt 0.312500 0.768357
vt 0.312500 0.536714
vt 0.281250 0.768357
vt 0.281250 0.536714
vt 0.250000 0.768357
vt 0.250000 0.536714
vt 0.218750 0.768357
vt 0.218750 0.536714
vt 0.187500 0.768357
vt 0.187500 0.536714
vt 0.156250 0.768357
vt 0.156250 0.536714
vt 0.125000 0.768357
vt 0.125000 0.536714
vt 0.259708 0.298806
vt 0.250000 0.299762
vt 0.240292 0.298806
vt 0.230957 0.295974
vt 0.222354 0.291375
vt 0.214813 0.285187
vt 0.208625 0.277646
vt 0.204026 0.269043
vt 0.201195 0.259708
vt 0.200238 0.250000
vt 0.201194 0.240292
vt 0.204026 0.230957
vt 0.208625 0.222354
vt 0.214813 0.214813
vt 0.222354 0.208625
vt 0.230957 0.204026
vt 0.240292 0.201194
vt 0.250000 0.200238
vt 0.259708 0.201195
vt 0.269043 0.204026
vt 0.277646 0.208625
vt 0.285187 0.214813
vt 0.291375 0.222354
vt 0.295974 0.230957
vt 0.298806 0.240292
vt 0.299762 0.250000
vt 0.298806 0.259708
vt 0.295974 0.269043
vt 0.291375 0.277646
vt 0.285187 0.285187
vt 0.277646 0.291375
vt 0.269043 0.295974
vt 0.093750 0.768357
vt 0.093750 0.536714
vt 0.062500 0.768357
vt 0.062500 0.536714
vt 0.250000 0.458187
vt 0.290615 0.454187
vt 0.296822 0.485388
vt 0.250000 0.490000
vt 0.329670 0.442340
vt 0.341844 0.471731
vt 0.365663 0.423101
vt 0.383337 0.449553
vt 0.397210 0.397210
vt 0.419706 0.419706
vt 0.423101 0.365663
vt 0.449553 0.383337
vt 0.442340 0.329670
vt 0.471731 0.341844
vt 0.454187 0.290615
vt 0.485388 0.296822
vt 0.458187 0.250000
vt 0.490000 0.250000
vt 0.454187 0.209385
vt 0.485388 0.203178
vt 0.442340 0.170330
vt 0.471731 0.158156
vt 0.423101 0.134337
vt 0.449553 0.116663
vt 0.397211 0.102790
vt 0.419706 0.080294
vt 0.365663 0.076899
vt 0.383337 0.050447
vt 0.329670 0.057660
vt 0.341844 0.028269
vt 0.290615 0.045813
vt 0.296822 0.014612
vt 0.250000 0.041813
vt 0.250000 0.010000
vt 0.209385 0.045813
vt 0.203178 0.014612
vt 0.170330 0.057660
vt 0.158156 0.028269
vt 0.134337 0.076899
vt 0.116663 0.050447
vt 0.102790 0.102790
vt 0.080294 0.080294
vt 0.076899 0.134337
vt 0.050447 0.116663
vt 0.057660 0.170330
vt 0.028269 0.158156
vt 0.045813 0.209385
vt 0.014612 0.203178
vt 0.041813 0.250000
vt 0.010000 0.250000
vt 0.045813 0.290615
vt 0.014612 0.296822
vt 0.057660 0.329670
vt 0.028269 0.341844
vt 0.076899 0.365663
vt 0.050447 0.383337
vt 0.102790 0.397211
vt 0.080294 0.419706
vt 0.134337 0.423101
vt 0.116663 0.449553
vt 0.170330 0.442340
vt 0.158156 0.471731
vt 0.209385 0.454187
vt 0.203178 0.485388
vt 0.250000 0.391272
vt 0.277561 0.388557
vt 0.304062 0.380518
vt 0.328486 0.367463
vt 0.349894 0.349894
vt 0.367463 0.328486
vt 0.380518 0.304062
vt 0.388557 0.277561
vt 0.391271 0.250000
vt 0.388557 0.222439
vt 0.380518 0.195938
vt 0.367463 0.171514
vt 0.349894 0.150106
vt 0.328486 0.132537
vt 0.304062 0.119482
vt 0.277561 0.111443
vt 0.250000 0.108729
vt 0.222439 0.111443
vt 0.195938 0.119482
vt 0.171514 0.132537
vt 0.150106 0.150106
vt 0.132537 0.171514
vt 0.119482 0.195938
vt 0.111443 0.222439
vt 0.108729 0.250000
vt 0.111443 0.277561
vt 0.119482 0.304062
vt 0.132537 0.328486
vt 0.150106 0.349894
vt 0.171514 0.367463
vt 0.195938 0.380518
vt 0.222439 0.388557
vt 0.299747 0.299747
vt 0.308497 0.289086
vt 0.263725 0.319001
vt 0.276923 0.314998
vt 0.289086 0.308497
vt 0.180999 0.263725
vt 0.314998 0.276923
vt 0.319001 0.263725
vt 0.319001 0.236275
vt 0.314998 0.223077
vt 0.308497 0.210914
vt 0.250000 0.179647
vt 0.236275 0.180999
vt 0.289086 0.191503
vt 0.276923 0.185002
vt 0.263725 0.180999
vt 0.223077 0.185002
vt 0.210914 0.191503
vt 0.180999 0.236275
vt 0.200253 0.299747
vt 0.210914 0.308497
vt 0.191503 0.210914
vt 0.185002 0.223077
vt 0.185002 0.276923
vt 0.191503 0.289086
vt 0.223077 0.314998
vt 0.236275 0.319001
vt 0.250000 0.320353
vt 0.320353 0.250000
vt 0.299747 0.200253
vt 0.200253 0.200253
vt 0.179647 0.250000
vt 0.750000 0.490000
vt 0.796822 0.485388
vt 0.786935 0.435682
vt 0.750000 0.439320
vt 0.841844 0.471731
vt 0.822450 0.424909
vt 0.883337 0.449553
vt 0.855180 0.407414
vt 0.919706 0.419706
vt 0.883869 0.383869
vt 0.949553 0.383337
vt 0.907414 0.355180
vt 0.971731 0.341844
vt 0.924909 0.322450
vt 0.985388 0.296822
vt 0.935682 0.286934
vt 0.990000 0.250000
vt 0.939320 0.250000
vt 0.985388 0.203178
vt 0.935682 0.213066
vt 0.971731 0.158156
vt 0.924909 0.177551
vt 0.949553 0.116663
vt 0.907414 0.144820
vt 0.919706 0.080294
vt 0.883869 0.116131
vt 0.883337 0.050447
vt 0.855180 0.092586
vt 0.841844 0.028269
vt 0.822450 0.075091
vt 0.796822 0.014612
vt 0.786934 0.064318
vt 0.750000 0.010000
vt 0.750000 0.060680
vt 0.703178 0.014612
vt 0.713066 0.064318
vt 0.658156 0.028269
vt 0.677550 0.075091
vt 0.616663 0.050447
vt 0.644819 0.092586
vt 0.580294 0.080294
vt 0.616131 0.116131
vt 0.550447 0.116663
vt 0.592587 0.144820
vt 0.528269 0.158156
vt 0.575091 0.177551
vt 0.514612 0.203178
vt 0.564318 0.213066
vt 0.510000 0.250000
vt 0.560680 0.250000
vt 0.514612 0.296822
vt 0.564318 0.286934
vt 0.528269 0.341844
vt 0.575091 0.322450
vt 0.550447 0.383337
vt 0.592586 0.355180
vt 0.580294 0.419706
vt 0.616131 0.383869
vt 0.616663 0.449553
vt 0.644820 0.407414
vt 0.658156 0.471731
vt 0.677551 0.424909
vt 0.703178 0.485388
vt 0.713066 0.435682
vt 1.000000 1.000000
vt 0.968750 1.000000
vt 0.031250 1.000000
vt 0.000000 1.000000
vt 0.937500 1.000000
vt 0.906250 1.000000
vt 0.875000 1.000000
vt 0.843750 1.000000
vt 0.812500 1.000000
vt 0.781250 1.000000
vt 0.750000 1.000000
vt 0.718750 1.000000
vt 0.687500 1.000000
vt 0.656250 1.000000
vt 0.625000 1.000000
vt 0.593750 1.000000
vt 0.562500 1.000000
vt 0.531250 1.000000
vt 0.500000 1.000000
vt 0.468750 1.000000
vt 0.437500 1.000000
vt 0.406250 1.000000
vt 0.375000 1.000000
vt 0.343750 1.000000
vt 0.312500 1.000000
vt 0.281250 1.000000
vt 0.250000 1.000000
vt 0.218750 1.000000
vt 0.187500 1.000000
vt 0.156250 1.000000
vt 0.125000 1.000000
vt 0.093750 1.000000
vt 0.062500 1.000000
s 0
g tire_black.001
usemtl black.001
f 242/1/1 63/2/1 61/3/1 244/4/1
f 304/5/2 59/6/2 63/7/2 242/8/2
f 244/4/3 61/3/3 57/9/3 246/10/3
f 246/10/4 57/9/4 55/11/4 248/12/4
f 248/12/5 55/11/5 53/13/5 250/14/5
f 250/14/6 53/13/6 51/15/6 252/16/6
f 252/16/7 51/15/7 49/17/7 254/18/7
f 254/18/8 49/17/8 47/19/8 256/20/8
f 256/20/9 47/19/9 45/21/9 258/22/9
f 258/22/10 45/21/10 43/23/10 260/24/10
f 260/24/11 43/23/11 41/25/11 262/26/11
f 262/26/12 41/25/12 39/27/12 264/28/12
f 264/28/13 39/27/13 37/29/13 266/30/13
f 266/30/14 37/29/14 35/31/14 268/32/14
f 268/32/15 35/31/15 33/33/15 270/34/15
f 270/34/16 33/33/16 31/35/16 272/36/16
f 272/36/17 31/35/17 29/37/17 274/38/17
f 274/38/18 29/37/18 27/39/18 276/40/18
f 276/40/19 27/39/19 25/41/19 278/42/19
f 278/42/20 25/41/20 23/43/20 280/44/20
f 280/44/21 23/43/21 21/45/21 282/46/21
f 282/46/22 21/45/22 19/47/22 284/48/22
f 284/48/23 19/47/23 17/49/23 286/50/23
f 286/50/24 17/49/24 15/51/24 288/52/24
f 288/52/25 15/51/25 13/53/25 290/54/25
f 290/54/26 13/53/26 11/55/26 292/56/26
f 292/56/27 11/55/27 9/57/27 294/58/27
f 294/58/28 9/57/28 7/59/28 296/60/28
f 296/60/29 7/59/29 5/61/29 298/62/29
f 298/62/31 5/61/31 3/95/31 300/96/31
f 300/96/32 3/95/32 1/97/32 302/98/32
f 302/98/33 1/97/33 59/6/33 304/5/33
f 98/99/34 97/100/34 65/101/34 66/102/34
f 97/100/35 99/103/35 67/104/35 65/101/35
f 99/103/36 100/105/36 68/106/36 67/104/36
f 100/105/37 101/107/37 69/108/37 68/106/37
f 101/107/38 102/109/38 70/110/38 69/108/38
f 102/109/39 103/111/39 71/112/39 70/110/39
f 103/111/40 104/113/40 72/114/40 71/112/40
f 104/113/41 105/115/41 73/116/41 72/114/41
f 105/115/42 106/117/42 74/118/42 73/116/42
f 106/117/43 107/119/43 75/120/43 74/118/43
f 107/119/44 108/121/44 76/122/44 75/120/44
f 108/121/45 109/123/45 77/124/45 76/122/45
f 109/123/46 110/125/46 78/126/46 77/124/46
f 110/125/47 111/127/47 79/128/47 78/126/47
f 111/127/48 112/129/48 80/130/48 79/128/48
f 112/129/49 113/131/49 81/132/49 80/130/49
f 113/131/50 114/133/50 82/134/50 81/132/50
f 114/133/51 115/135/51 83/136/51 82/134/51
f 115/135/52 116/137/52 84/138/52 83/136/52
f 116/137/53 117/139/53 85/140/53 84/138/53
f 117/139/54 118/141/54 86/142/54 85/140/54
f 118/141/55 119/143/55 87/144/55 86/142/55
f 119/143/56 120/145/56 88/146/56 87/144/56
f 120/145/57 121/147/57 89/148/57 88/146/57
f 121/147/58 122/149/58 90/150/58 89/148/58
f 122/149/59 123/151/59 91/152/59 90/150/59
f 123/151/60 124/153/60 92/154/60 91/152/60
f 124/153/61 125/155/61 93/156/61 92/154/61
f 125/155/62 126/157/62 94/158/62 93/156/62
f 126/157/63 127/159/63 95/160/63 94/158/63
f 127/159/64 128/161/64 96/162/64 95/160/64
f 128/161/65 98/99/65 66/102/65 96/162/65
f 130/163/66 129/164/66 97/100/66 98/99/66
f 129/164/67 131/165/67 99/103/67 97/100/67
f 131/165/68 132/166/68 100/105/68 99/103/68
f 132/166/69 133/167/69 101/107/69 100/105/69
f 133/167/70 134/168/70 102/109/70 101/107/70
f 134/168/71 135/169/71 103/111/71 102/109/71
f 135/169/72 136/170/72 104/113/72 103/111/72
f 136/170/73 137/171/73 105/115/73 104/113/73
f 137/171/74 138/172/74 106/117/74 105/115/74
f 138/172/75 139/173/75 107/119/75 106/117/75
f 139/173/76 140/174/76 108/121/76 107/119/76
f 140/174/77 141/175/77 109/123/77 108/121/77
f 141/175/78 142/176/78 110/125/78 109/123/78
f 142/176/79 143/177/79 111/127/79 110/125/79
f 143/177/80 144/178/80 112/129/80 111/127/80
f 144/178/81 145/179/81 113/131/81 112/129/81
f 145/179/82 146/180/82 114/133/82 113/131/82
f 146/180/83 147/181/83 115/135/83 114/133/83
f 147/181/84 148/182/84 116/137/84 115/135/84
f 148/182/85 149/183/85 117/139/85 116/137/85
f 149/183/86 150/184/86 118/141/86 117/139/86
f 150/184/87 151/185/87 119/143/87 118/141/87
f 151/185/88 152/186/88 120/145/88 119/143/88
f 152/186/89 153/187/89 121/147/89 120/145/89
f 153/187/90 154/188/90 122/149/90 121/147/90
f 154/188/91 155/189/91 123/151/91 122/149/91
f 155/189/92 156/190/92 124/153/92 123/151/92
f 156/190/93 157/191/93 125/155/93 124/153/93
f 157/191/94 158/192/94 126/157/94 125/155/94
f 158/192/95 159/193/95 127/159/95 126/157/95
f 159/193/96 160/194/96 128/161/96 127/159/96
f 160/194/97 130/163/97 98/99/97 128/161/97
f 186/222/130 185/197/130 161/164/130 162/163/130
f 188/199/131 187/195/131 163/167/131 164/166/131
f 187/195/132 189/196/132 165/168/132 163/167/132
f 191/202/133 190/223/133 166/171/133 167/170/133
f 190/223/134 192/203/134 168/172/134 166/171/134
f 194/205/135 193/224/135 169/175/135 170/174/135
f 193/224/136 195/208/136 171/176/136 169/175/136
f 197/210/137 196/206/137 172/179/137 173/178/137
f 196/206/138 198/207/138 174/180/138 172/179/138
f 200/212/139 199/225/139 175/183/139 176/182/139
f 199/225/140 201/216/140 177/184/140 175/183/140
f 203/213/141 202/226/141 178/187/141 179/186/141
f 202/226/142 204/200/142 180/188/142 178/187/142
f 206/219/143 205/214/143 181/191/143 182/190/143
f 205/214/144 207/215/144 183/192/144 181/191/144
f 208/221/145 186/222/145 162/163/145 184/194/145
f 242/227/210 244/228/210 243/229/210 241/230/210
f 244/228/211 246/231/211 245/232/211 243/229/211
f 246/231/212 248/233/212 247/234/212 245/232/212
f 248/233/213 250/235/213 249/236/213 247/234/213
f 250/235/214 252/237/214 251/238/214 249/236/214
f 252/237/215 254/239/215 253/240/215 251/238/215
f 254/239/216 256/241/216 255/242/216 253/240/216
f 256/241/217 258/243/217 257/244/217 255/242/217
f 258/243/218 260/245/218 259/246/218 257/244/218
f 260/245/219 262/247/219 261/248/219 259/246/219
f 262/247/220 264/249/220 263/250/220 261/248/220
f 264/249/221 266/251/221 265/252/221 263/250/221
f 266/251/222 268/253/222 267/254/222 265/252/222
f 268/253/223 270/255/223 269/256/223 267/254/223
f 270/255/224 272/257/224 271/258/224 269/256/224
f 272/257/225 274/259/225 273/260/225 271/258/225
f 274/259/226 276/261/226 275/262/226 273/260/226
f 276/261/227 278/263/227 277/264/227 275/262/227
f 278/263/228 280/265/228 279/266/228 277/264/228
f 280/265/229 282/267/229 281/268/229 279/266/229
f 282/267/230 284/269/230 283/270/230 281/268/230
f 284/269/231 286/271/231 285/272/231 283/270/231
f 286/271/232 288/273/232 287/274/232 285/272/232
f 288/273/233 290/275/233 289/276/233 287/274/233
f 290/275/234 292/277/234 291/278/234 289/276/234
f 292/277/235 294/279/235 293/280/235 291/278/235
f 294/279/236 296/281/236 295/282/236 293/280/236
f 296/281/237 298/283/237 297/284/237 295/282/237
f 298/283/238 300/285/238 299/286/238 297/284/238
f 300/285/239 302/287/239 301/288/239 299/286/239
f 302/287/240 304/289/240 303/290/240 301/288/240
f 304/289/241 242/227/241 241/230/241 303/290/241
f 241/230/242 243/229/242 245/232/242 247/234/242 249/236/242 251/238/242 253/240/242 255/242/242 257/244/242 259/246/242 261/248/242 263/250/242 265/252/242 267/254/242 269/256/242 271/258/242 273/260/242 275/262/242 277/264/242 279/266/242 281/268/242 283/270/242 285/272/242 287/274/242 289/276/242 291/278/242 293/280/242 295/282/242 297/284/242 299/286/242 301/288/242 303/290/242
f 63/2/243 66/291/243 65/292/243 61/3/243
f 59/6/244 96/293/244 66/294/244 63/7/244
f 61/3/245 65/292/245 67/295/245 57/9/245
f 57/9/246 67/295/246 68/296/246 55/11/246
f 55/11/247 68/296/247 69/297/247 53/13/247
f 53/13/248 69/297/248 70/298/248 51/15/248
f 51/15/249 70/298/249 71/299/249 49/17/249
f 49/17/250 71/299/250 72/300/250 47/19/250
f 47/19/251 72/300/251 73/301/251 45/21/251
f 45/21/252 73/301/252 74/302/252 43/23/252
f 43/23/253 74/302/253 75/303/253 41/25/253
f 41/25/254 75/303/254 76/304/254 39/27/254
f 39/27/255 76/304/255 77/305/255 37/29/255
f 37/29/256 77/305/256 78/306/256 35/31/256
f 35/31/257 78/306/257 79/307/257 33/33/257
f 33/33/258 79/307/258 80/308/258 31/35/258
f 31/35/259 80/308/259 81/309/259 29/37/259
f 29/37/260 81/309/260 82/310/260 27/39/260
f 27/39/261 82/310/261 83/311/261 25/41/261
f 25/41/262 83/311/262 84/312/262 23/43/262
f 23/43/263 84/312/263 85/313/263 21/45/263
f 21/45/264 85/313/264 86/314/264 19/47/264
f 19/47/265 86/314/265 87/315/265 17/49/265
f 17/49/266 87/315/266 88/316/266 15/51/266
f 15/51/267 88/316/267 89/317/267 13/53/267
f 13/53/268 89/317/268 90/318/268 11/55/268
f 11/55/269 90/318/269 91/319/269 9/57/269
f 9/57/270 91/319/270 92/320/270 7/59/270
f 7/59/271 92/320/271 93/321/271 5/61/271
f 5/61/272 93/321/272 94/322/272 3/95/272
f 3/95/273 94/322/273 95/323/273 1/97/273
f 1/97/274 95/323/274 96/293/274 59/6/274
g tire_metal.001
usemtl metal.001
f 4/63/30 2/64/30 64/65/30 62/66/30 60/67/30 58/68/30 56/69/30 54/70/30 52/71/30 50/72/30 48/73/30 46/74/30 44/75/30 42/76/30 40/77/30 38/78/30 36/79/30 34/80/30 32/81/30 30/82/30 28/83/30 26/84/30 24/85/30 22/86/30 20/87/30 18/88/30 16/89/30 14/90/30 12/91/30 10/92/30 8/93/30 6/94/30
f 213/195/98 214/196/98 189/196/98 187/195/98
f 209/197/99 211/198/99 131/165/99 129/164/99
f 211/198/100 212/199/100 132/166/100 131/165/100
f 234/200/101 154/188/101 180/188/101 204/200/101
f 157/191/102 156/190/102 182/190/102 181/191/102
f 214/196/103 215/201/103 135/169/103 134/168/103
f 215/201/104 216/202/104 136/170/104 135/169/104
f 129/164/105 130/163/105 162/163/105 161/164/105
f 212/199/106 213/195/106 187/195/106 188/199/106
f 218/203/107 219/204/107 139/173/107 138/172/107
f 219/204/108 220/205/108 140/174/108 139/173/108
f 140/174/109 220/205/109 194/205/109 170/174/109
f 225/206/110 226/207/110 198/207/110 196/206/110
f 222/208/111 223/209/111 143/177/111 142/176/111
f 223/209/112 224/210/112 144/178/112 143/177/112
f 142/176/113 141/175/113 169/175/113 171/176/113
f 224/210/114 225/206/114 196/206/114 197/210/114
f 226/207/115 227/211/115 147/181/115 146/180/115
f 227/211/116 228/212/116 148/182/116 147/181/116
f 152/186/117 232/213/117 203/213/117 179/186/117
f 237/214/118 238/215/118 207/215/118 205/214/118
f 230/216/119 231/217/119 151/185/119 150/184/119
f 231/217/120 232/213/120 152/186/120 151/185/120
f 218/203/121 138/172/121 168/172/121 192/203/121
f 141/175/122 140/174/122 170/174/122 169/175/122
f 234/200/123 235/218/123 155/189/123 154/188/123
f 235/218/124 236/219/124 156/190/124 155/189/124
f 154/188/125 153/187/125 178/187/125 180/188/125
f 236/219/126 237/214/126 205/214/126 206/219/126
f 238/215/127 239/220/127 159/193/127 158/192/127
f 239/220/128 240/221/128 160/194/128 159/193/128
f 210/222/129 209/197/129 185/197/129 186/222/129
f 240/221/146 210/222/146 186/222/146 208/221/146
f 158/192/147 157/191/147 181/191/147 183/192/147
f 145/179/148 144/178/148 173/178/148 172/179/148
f 222/208/149 142/176/149 171/176/149 195/208/149
f 156/190/150 236/219/150 206/219/150 182/190/150
f 228/212/151 229/225/151 199/225/151 200/212/151
f 146/180/152 145/179/152 172/179/152 174/180/152
f 133/167/153 132/166/153 164/166/153 163/167/153
f 209/197/154 129/164/154 161/164/154 185/197/154
f 229/225/155 230/216/155 201/216/155 199/225/155
f 144/178/156 224/210/156 197/210/156 173/178/156
f 216/202/157 217/223/157 190/223/157 191/202/157
f 134/168/158 133/167/158 163/167/158 165/168/158
f 130/163/159 160/194/159 184/194/159 162/163/159
f 238/215/160 158/192/160 183/192/160 207/215/160
f 217/223/161 218/203/161 192/203/161 190/223/161
f 132/166/162 212/199/162 188/199/162 164/166/162
f 149/183/163 148/182/163 176/182/163 175/183/163
f 226/207/164 146/180/164 174/180/164 198/207/164
f 160/194/165 240/221/165 208/221/165 184/194/165
f 232/213/166 233/226/166 202/226/166 203/213/166
f 150/184/167 149/183/167 175/183/167 177/184/167
f 137/171/168 136/170/168 167/170/168 166/171/168
f 214/196/169 134/168/169 165/168/169 189/196/169
f 233/226/170 234/200/170 204/200/170 202/226/170
f 148/182/171 228/212/171 200/212/171 176/182/171
f 220/205/172 221/224/172 193/224/172 194/205/172
f 138/172/173 137/171/173 166/171/173 168/172/173
f 221/224/174 222/208/174 195/208/174 193/224/174
f 136/170/175 216/202/175 191/202/175 167/170/175
f 153/187/176 152/186/176 179/186/176 178/187/176
f 230/216/177 150/184/177 177/184/177 201/216/177
f 2/64/178 4/63/178 209/197/178 210/222/178
f 4/63/179 6/94/179 211/198/179 209/197/179
f 6/94/180 8/93/180 212/199/180 211/198/180
f 8/93/181 10/92/181 213/195/181 212/199/181
f 10/92/182 12/91/182 214/196/182 213/195/182
f 12/91/183 14/90/183 215/201/183 214/196/183
f 14/90/184 16/89/184 216/202/184 215/201/184
f 16/89/185 18/88/185 217/223/185 216/202/185
f 18/88/186 20/87/186 218/203/186 217/223/186
f 20/87/187 22/86/187 219/204/187 218/203/187
f 22/86/188 24/85/188 220/205/188 219/204/188
f 24/85/189 26/84/189 221/224/189 220/205/189
f 26/84/190 28/83/190 222/208/190 221/224/190
f 28/83/191 30/82/191 223/209/191 222/208/191
f 30/82/192 32/81/192 224/210/192 223/209/192
f 32/81/193 34/80/193 225/206/193 224/210/193
f 34/80/194 36/79/194 226/207/194 225/206/194
f 36/79/195 38/78/195 227/211/195 226/207/195
f 38/78/196 40/77/196 228/212/196 227/211/196
f 40/77/197 42/76/197 229/225/197 228/212/197
f 42/76/198 44/75/198 230/216/198 229/225/198
f 44/75/199 46/74/199 231/217/199 230/216/199
f 46/74/200 48/73/200 232/213/200 231/217/200
f 48/73/201 50/72/201 233/226/201 232/213/201
f 50/72/202 52/71/202 234/200/202 233/226/202
f 52/71/203 54/70/203 235/218/203 234/200/203
f 54/70/204 56/69/204 236/219/204 235/218/204
f 56/69/205 58/68/205 237/214/205 236/219/205
f 58/68/206 60/67/206 238/215/206 237/214/206
f 60/67/207 62/66/207 239/220/207 238/215/207
f 62/66/208 64/65/208 240/221/208 239/220/208
f 64/65/209 2/64/209 210/222/209 240/221/209
